<svg width="30" height="16" viewBox="0 0 30 16" fill="none" xmlns="http://www.w3.org/2000/svg">
<path d="M28.736 7.02108L22.9444 0.405434C22.5978 0.00956452 22.0765 -0.108839 21.6236 0.105421C21.1708 0.31968 20.8754 0.824422 20.8753 1.38435V5.57694C20.8753 5.76811 20.7397 5.92309 20.5723 5.92309H1.8182C0.814035 5.92309 0 6.85295 0 8C0 9.14705 0.814035 10.0769 1.8182 10.0769H20.5723C20.7397 10.0769 20.8753 10.2319 20.8753 10.4231V14.6156C20.8754 15.1756 21.1708 15.6803 21.6236 15.8946C22.0765 16.1088 22.5978 15.9904 22.9444 15.5946L28.736 8.97892C29.2092 8.43823 29.2092 7.56177 28.736 7.02108Z" fill="#F8A35B"/>
</svg>
