<svg width="20" height="12" viewBox="0 0 20 12" fill="none" xmlns="http://www.w3.org/2000/svg">
<path d="M0.24399 5.32748L4.22569 0.779224C4.46402 0.507064 4.82239 0.425662 5.13375 0.572965C5.4451 0.720268 5.64813 1.06728 5.6482 1.45223V4.33463C5.6482 4.46607 5.74148 4.57261 5.85654 4.57261H18.75C19.4404 4.57261 20 5.21189 20 6.00049C20 6.78908 19.4404 7.42836 18.75 7.42836H5.85654C5.74148 7.42836 5.6482 7.53491 5.6482 7.66634V10.5487C5.64813 10.9337 5.4451 11.2807 5.13375 11.428C4.82239 11.5753 4.46402 11.4939 4.22569 11.2218L0.24399 6.67349C-0.0813312 6.30177 -0.0813312 5.69921 0.24399 5.32748Z" fill="#3F2B4F"/>
</svg>
