<svg width="23" height="28" viewBox="0 0 23 28" fill="none" xmlns="http://www.w3.org/2000/svg">
<path d="M1 1V2V26V27H2H8.33333H9.33333V26V24.2047C9.33333 23.1753 9.86106 22.2179 10.7314 21.6682L20.1953 15.691M1 1L20.1953 15.691M1 1H2M1 1H2M20.1953 15.691C21.438 14.9061 21.438 13.0939 20.1953 12.309M20.1953 15.691L20.1953 12.309M2 1H8.33333H9.33333M2 1H9.33333M9.33333 1V2M9.33333 1V2M9.33333 2V3.79533C9.33333 4.82466 9.86106 5.78213 10.7314 6.33179L20.1953 12.309M9.33333 2L20.1953 12.309" fill="#F9B57C" stroke="white" stroke-width="2"/>
<rect width="10" height="28" fill="#F9B57C"/>
</svg>
