<svg width="98" height="98" viewBox="0 0 98 98" fill="none" xmlns="http://www.w3.org/2000/svg">
<g filter="url(#filter0_d_41_1965)">
<circle cx="49" cy="41" r="40" fill="#F9B57C"/>
</g>
<path d="M49.0007 44.2066C37.2028 44.2066 27.4273 53.0135 25.9104 64.4091C32.2588 69.4456 40.2646 72.4281 49.0007 72.4281C57.7088 72.4281 65.7426 69.4175 72.0911 64.4091C70.5461 53.0135 60.7987 44.2066 49.0007 44.2066Z" fill="white"/>
<path d="M48.5351 41.5536C57.3671 41.5536 64.5269 34.3938 64.5269 25.5617C64.5269 16.7297 57.3671 9.56989 48.5351 9.56989C39.703 9.56989 32.5432 16.7297 32.5432 25.5617C32.5432 34.3938 39.703 41.5536 48.5351 41.5536Z" fill="white"/>
<defs>
<filter id="filter0_d_41_1965" x="0" y="0" width="98" height="98" filterUnits="userSpaceOnUse" color-interpolation-filters="sRGB">
<feFlood flood-opacity="0" result="BackgroundImageFix"/>
<feColorMatrix in="SourceAlpha" type="matrix" values="0 0 0 0 0 0 0 0 0 0 0 0 0 0 0 0 0 0 127 0" result="hardAlpha"/>
<feOffset dy="8"/>
<feGaussianBlur stdDeviation="4.5"/>
<feComposite in2="hardAlpha" operator="out"/>
<feColorMatrix type="matrix" values="0 0 0 0 0.516667 0 0 0 0 0.516667 0 0 0 0 0.516667 0 0 0 0.05 0"/>
<feBlend mode="normal" in2="BackgroundImageFix" result="effect1_dropShadow_41_1965"/>
<feBlend mode="normal" in="SourceGraphic" in2="effect1_dropShadow_41_1965" result="shape"/>
</filter>
</defs>
</svg>
