<svg width="221" height="206" viewBox="0 0 221 206" fill="none" xmlns="http://www.w3.org/2000/svg">
<path d="M207 115V116H206H199H198V115V91.0005V90.0005H199H206H207V91.0005V92.6792C207 93.7558 207.577 94.7498 208.512 95.2839L218.977 101.264C220.32 102.032 220.32 103.969 218.977 104.737L208.512 110.717C207.577 111.251 207 112.245 207 113.322V115Z" fill="#F9B57C" stroke="white" stroke-width="2"/>
<rect width="206" height="206" rx="10" transform="matrix(-1 0 0 1 206 0.000488281)" fill="#F9B57C"/>
<rect x="9.5" y="9.50049" width="187" height="187" rx="8.5" stroke="white" stroke-width="3" stroke-dasharray="12 12"/>
<path d="M37.36 135.312L35.584 137.136V140H33.504V128.8H35.584V134.544L41.12 128.8H43.456L38.752 133.808L43.744 140H41.312L37.36 135.312ZM44.812 131.456H46.812V140H44.812V131.456ZM45.82 130.048C45.4573 130.048 45.1533 129.936 44.908 129.712C44.6627 129.478 44.54 129.19 44.54 128.848C44.54 128.507 44.6627 128.224 44.908 128C45.1533 127.766 45.4573 127.648 45.82 127.648C46.1827 127.648 46.4867 127.76 46.732 127.984C46.9773 128.198 47.1 128.47 47.1 128.8C47.1 129.152 46.9773 129.451 46.732 129.696C46.4973 129.931 46.1933 130.048 45.82 130.048ZM57.469 135.776C57.469 135.915 57.4583 136.112 57.437 136.368H50.733C50.8503 136.998 51.1543 137.499 51.645 137.872C52.1463 138.235 52.765 138.416 53.501 138.416C54.4397 138.416 55.213 138.107 55.821 137.488L56.893 138.72C56.509 139.179 56.0237 139.526 55.437 139.76C54.8503 139.995 54.189 140.112 53.453 140.112C52.5143 140.112 51.6877 139.926 50.973 139.552C50.2583 139.179 49.7037 138.662 49.309 138C48.925 137.328 48.733 136.571 48.733 135.728C48.733 134.896 48.9197 134.15 49.293 133.488C49.677 132.816 50.205 132.294 50.877 131.92C51.549 131.547 52.3063 131.36 53.149 131.36C53.981 131.36 54.7223 131.547 55.373 131.92C56.0343 132.283 56.5463 132.8 56.909 133.472C57.2823 134.134 57.469 134.902 57.469 135.776ZM53.149 132.96C52.509 132.96 51.965 133.152 51.517 133.536C51.0797 133.91 50.813 134.411 50.717 135.04H55.565C55.4797 134.422 55.2183 133.92 54.781 133.536C54.3437 133.152 53.7997 132.96 53.149 132.96ZM62.0301 140.112C61.3368 140.112 60.6595 140.022 59.9981 139.84C59.3368 139.659 58.8088 139.43 58.4141 139.152L59.1821 137.632C59.5661 137.888 60.0248 138.096 60.5581 138.256C61.1021 138.406 61.6355 138.48 62.1581 138.48C63.3528 138.48 63.9501 138.166 63.9501 137.536C63.9501 137.238 63.7955 137.03 63.4861 136.912C63.1875 136.795 62.7021 136.683 62.0301 136.576C61.3261 136.47 60.7501 136.347 60.3021 136.208C59.8648 136.07 59.4808 135.83 59.1501 135.488C58.8301 135.136 58.6701 134.651 58.6701 134.032C58.6701 133.222 59.0061 132.576 59.6781 132.096C60.3608 131.606 61.2781 131.36 62.4301 131.36C63.0168 131.36 63.6035 131.43 64.1901 131.568C64.7768 131.696 65.2568 131.872 65.6301 132.096L64.8621 133.616C64.1368 133.19 63.3208 132.976 62.4141 132.976C61.8275 132.976 61.3795 133.067 61.0701 133.248C60.7715 133.419 60.6221 133.648 60.6221 133.936C60.6221 134.256 60.7821 134.486 61.1021 134.624C61.4328 134.752 61.9395 134.875 62.6221 134.992C63.3048 135.099 63.8648 135.222 64.3021 135.36C64.7395 135.499 65.1128 135.734 65.4221 136.064C65.7421 136.395 65.9021 136.864 65.9021 137.472C65.9021 138.272 65.5555 138.912 64.8621 139.392C64.1688 139.872 63.2248 140.112 62.0301 140.112ZM80.0784 135.776C80.0784 135.915 80.0677 136.112 80.0464 136.368H73.3424C73.4597 136.998 73.7637 137.499 74.2544 137.872C74.7557 138.235 75.3744 138.416 76.1104 138.416C77.049 138.416 77.8224 138.107 78.4304 137.488L79.5024 138.72C79.1184 139.179 78.633 139.526 78.0464 139.76C77.4597 139.995 76.7984 140.112 76.0624 140.112C75.1237 140.112 74.297 139.926 73.5824 139.552C72.8677 139.179 72.313 138.662 71.9184 138C71.5344 137.328 71.3424 136.571 71.3424 135.728C71.3424 134.896 71.529 134.15 71.9024 133.488C72.2864 132.816 72.8144 132.294 73.4864 131.92C74.1584 131.547 74.9157 131.36 75.7584 131.36C76.5904 131.36 77.3317 131.547 77.9824 131.92C78.6437 132.283 79.1557 132.8 79.5184 133.472C79.8917 134.134 80.0784 134.902 80.0784 135.776ZM75.7584 132.96C75.1184 132.96 74.5744 133.152 74.1264 133.536C73.689 133.91 73.4224 134.411 73.3264 135.04H78.1744C78.089 134.422 77.8277 133.92 77.3904 133.536C76.953 133.152 76.409 132.96 75.7584 132.96ZM90.0315 135.776C90.0315 135.915 90.0208 136.112 89.9995 136.368H83.2955C83.4128 136.998 83.7168 137.499 84.2075 137.872C84.7088 138.235 85.3275 138.416 86.0635 138.416C87.0022 138.416 87.7755 138.107 88.3835 137.488L89.4555 138.72C89.0715 139.179 88.5862 139.526 87.9995 139.76C87.4128 139.995 86.7515 140.112 86.0155 140.112C85.0768 140.112 84.2502 139.926 83.5355 139.552C82.8208 139.179 82.2662 138.662 81.8715 138C81.4875 137.328 81.2955 136.571 81.2955 135.728C81.2955 134.896 81.4822 134.15 81.8555 133.488C82.2395 132.816 82.7675 132.294 83.4395 131.92C84.1115 131.547 84.8688 131.36 85.7115 131.36C86.5435 131.36 87.2848 131.547 87.9355 131.92C88.5968 132.283 89.1088 132.8 89.4715 133.472C89.8448 134.134 90.0315 134.902 90.0315 135.776ZM85.7115 132.96C85.0715 132.96 84.5275 133.152 84.0795 133.536C83.6422 133.91 83.3755 134.411 83.2795 135.04H88.1275C88.0422 134.422 87.7808 133.92 87.3435 133.536C86.9062 133.152 86.3622 132.96 85.7115 132.96ZM96.8006 131.36C97.878 131.36 98.742 131.675 99.3926 132.304C100.043 132.934 100.369 133.867 100.369 135.104V140H98.3686V135.36C98.3686 134.614 98.1926 134.054 97.8406 133.68C97.4886 133.296 96.9873 133.104 96.3366 133.104C95.6006 133.104 95.0193 133.328 94.5926 133.776C94.166 134.214 93.9526 134.848 93.9526 135.68V140H91.9526V131.456H93.8566V132.56C94.1873 132.166 94.6033 131.867 95.1046 131.664C95.606 131.462 96.1713 131.36 96.8006 131.36ZM112.064 131.36C112.896 131.36 113.637 131.542 114.288 131.904C114.949 132.267 115.466 132.779 115.84 133.44C116.213 134.102 116.4 134.864 116.4 135.728C116.4 136.592 116.213 137.36 115.84 138.032C115.466 138.694 114.949 139.206 114.288 139.568C113.637 139.931 112.896 140.112 112.064 140.112C111.477 140.112 110.938 140.011 110.448 139.808C109.968 139.606 109.562 139.302 109.232 138.896V140H107.328V128.128H109.328V132.496C109.669 132.123 110.069 131.84 110.528 131.648C110.997 131.456 111.509 131.36 112.064 131.36ZM111.84 138.4C112.576 138.4 113.178 138.155 113.648 137.664C114.128 137.174 114.368 136.528 114.368 135.728C114.368 134.928 114.128 134.283 113.648 133.792C113.178 133.302 112.576 133.056 111.84 133.056C111.36 133.056 110.928 133.168 110.544 133.392C110.16 133.606 109.856 133.915 109.632 134.32C109.408 134.726 109.296 135.195 109.296 135.728C109.296 136.262 109.408 136.731 109.632 137.136C109.856 137.542 110.16 137.856 110.544 138.08C110.928 138.294 111.36 138.4 111.84 138.4ZM126.328 135.776C126.328 135.915 126.318 136.112 126.296 136.368H119.592C119.71 136.998 120.014 137.499 120.504 137.872C121.006 138.235 121.624 138.416 122.36 138.416C123.299 138.416 124.072 138.107 124.68 137.488L125.752 138.72C125.368 139.179 124.883 139.526 124.296 139.76C123.71 139.995 123.048 140.112 122.312 140.112C121.374 140.112 120.547 139.926 119.832 139.552C119.118 139.179 118.563 138.662 118.168 138C117.784 137.328 117.592 136.571 117.592 135.728C117.592 134.896 117.779 134.15 118.152 133.488C118.536 132.816 119.064 132.294 119.736 131.92C120.408 131.547 121.166 131.36 122.008 131.36C122.84 131.36 123.582 131.547 124.232 131.92C124.894 132.283 125.406 132.8 125.768 133.472C126.142 134.134 126.328 134.902 126.328 135.776ZM122.008 132.96C121.368 132.96 120.824 133.152 120.376 133.536C119.939 133.91 119.672 134.411 119.576 135.04H124.424C124.339 134.422 124.078 133.92 123.64 133.536C123.203 133.152 122.659 132.96 122.008 132.96ZM130.89 140.112C130.196 140.112 129.519 140.022 128.858 139.84C128.196 139.659 127.668 139.43 127.274 139.152L128.042 137.632C128.426 137.888 128.884 138.096 129.418 138.256C129.962 138.406 130.495 138.48 131.018 138.48C132.212 138.48 132.81 138.166 132.81 137.536C132.81 137.238 132.655 137.03 132.346 136.912C132.047 136.795 131.562 136.683 130.89 136.576C130.186 136.47 129.61 136.347 129.162 136.208C128.724 136.07 128.34 135.83 128.01 135.488C127.69 135.136 127.53 134.651 127.53 134.032C127.53 133.222 127.866 132.576 128.538 132.096C129.22 131.606 130.138 131.36 131.29 131.36C131.876 131.36 132.463 131.43 133.05 131.568C133.636 131.696 134.116 131.872 134.49 132.096L133.722 133.616C132.996 133.19 132.18 132.976 131.274 132.976C130.687 132.976 130.239 133.067 129.93 133.248C129.631 133.419 129.482 133.648 129.482 133.936C129.482 134.256 129.642 134.486 129.962 134.624C130.292 134.752 130.799 134.875 131.482 134.992C132.164 135.099 132.724 135.222 133.162 135.36C133.599 135.499 133.972 135.734 134.282 136.064C134.602 136.395 134.762 136.864 134.762 137.472C134.762 138.272 134.415 138.912 133.722 139.392C133.028 139.872 132.084 140.112 130.89 140.112ZM141.62 139.536C141.385 139.728 141.097 139.872 140.756 139.968C140.425 140.064 140.073 140.112 139.7 140.112C138.761 140.112 138.036 139.867 137.524 139.376C137.012 138.886 136.756 138.171 136.756 137.232V133.12H135.348V131.52H136.756V129.568H138.756V131.52H141.044V133.12H138.756V137.184C138.756 137.6 138.857 137.92 139.06 138.144C139.263 138.358 139.556 138.464 139.94 138.464C140.388 138.464 140.761 138.347 141.06 138.112L141.62 139.536ZM146.529 131.36C147.788 131.36 148.748 131.664 149.409 132.272C150.081 132.87 150.417 133.776 150.417 134.992V140H148.529V138.96C148.284 139.334 147.932 139.622 147.473 139.824C147.025 140.016 146.481 140.112 145.841 140.112C145.201 140.112 144.641 140.006 144.161 139.792C143.681 139.568 143.308 139.264 143.041 138.88C142.785 138.486 142.657 138.043 142.657 137.552C142.657 136.784 142.94 136.171 143.505 135.712C144.081 135.243 144.982 135.008 146.209 135.008H148.417V134.88C148.417 134.283 148.236 133.824 147.873 133.504C147.521 133.184 146.993 133.024 146.289 133.024C145.809 133.024 145.334 133.099 144.865 133.248C144.406 133.398 144.017 133.606 143.697 133.872L142.913 132.416C143.361 132.075 143.9 131.814 144.529 131.632C145.158 131.451 145.825 131.36 146.529 131.36ZM146.257 138.656C146.758 138.656 147.201 138.544 147.585 138.32C147.98 138.086 148.257 137.755 148.417 137.328V136.336H146.353C145.201 136.336 144.625 136.715 144.625 137.472C144.625 137.835 144.769 138.123 145.057 138.336C145.345 138.55 145.745 138.656 146.257 138.656ZM157.832 131.36C158.909 131.36 159.773 131.675 160.424 132.304C161.075 132.934 161.4 133.867 161.4 135.104V140H159.4V135.36C159.4 134.614 159.224 134.054 158.872 133.68C158.52 133.296 158.019 133.104 157.368 133.104C156.632 133.104 156.051 133.328 155.624 133.776C155.197 134.214 154.984 134.848 154.984 135.68V140H152.984V131.456H154.888V132.56C155.219 132.166 155.635 131.867 156.136 131.664C156.637 131.462 157.203 131.36 157.832 131.36ZM172.383 128.128V140H170.463V138.896C170.132 139.302 169.722 139.606 169.231 139.808C168.751 140.011 168.218 140.112 167.631 140.112C166.81 140.112 166.068 139.931 165.407 139.568C164.756 139.206 164.244 138.694 163.871 138.032C163.498 137.36 163.311 136.592 163.311 135.728C163.311 134.864 163.498 134.102 163.871 133.44C164.244 132.779 164.756 132.267 165.407 131.904C166.068 131.542 166.81 131.36 167.631 131.36C168.196 131.36 168.714 131.456 169.183 131.648C169.652 131.84 170.052 132.128 170.383 132.512V128.128H172.383ZM167.871 138.4C168.351 138.4 168.783 138.294 169.167 138.08C169.551 137.856 169.855 137.542 170.079 137.136C170.303 136.731 170.415 136.262 170.415 135.728C170.415 135.195 170.303 134.726 170.079 134.32C169.855 133.915 169.551 133.606 169.167 133.392C168.783 133.168 168.351 133.056 167.871 133.056C167.391 133.056 166.959 133.168 166.575 133.392C166.191 133.606 165.887 133.915 165.663 134.32C165.439 134.726 165.327 135.195 165.327 135.728C165.327 136.262 165.439 136.731 165.663 137.136C165.887 137.542 166.191 137.856 166.575 138.08C166.959 138.294 167.391 138.4 167.871 138.4Z" fill="white"/>
<path d="M99.0562 115C93.5633 115 89.0258 110.787 89.0258 105.943V77.2942C88.5482 70.3428 94.7574 64.4446 102.638 64.0233C110.52 63.602 117.207 69.0792 117.684 76.0306C117.684 76.4519 117.684 76.8729 117.684 77.2942V91.6184C117.684 92.4609 116.968 93.0928 116.012 93.0928C115.057 93.0928 114.341 92.4609 114.341 91.6184V77.2942C114.58 71.8173 109.564 67.3938 103.355 67.3938C97.1457 67.1832 92.1303 71.607 92.1303 77.0838C92.1303 77.2945 92.1303 77.2944 92.1303 77.505V106.153C92.1303 109.523 94.9963 112.262 98.8174 112.262C102.639 112.262 105.743 109.734 105.743 106.364C105.743 106.153 105.743 106.153 105.743 105.943V79.1903C105.743 77.7158 104.31 76.4518 102.638 76.4518C100.967 76.4518 99.5337 77.7158 99.5337 79.1903V103.625C99.5337 104.468 98.8173 105.1 97.8621 105.1C96.9068 105.1 96.1904 104.468 96.1904 103.625V79.1903C96.1904 76.2413 98.8175 73.7131 102.161 73.5024C105.504 73.5024 108.37 75.8195 108.609 78.7686V78.9795V105.732C109.325 110.998 104.788 115 99.0562 115Z" fill="white"/>
</svg>
