<svg width="13" height="13" viewBox="0 0 13 13" fill="none" xmlns="http://www.w3.org/2000/svg">
<path d="M11.9728 3.08141C12.54 2.51419 12.54 1.59453 11.9728 1.0273C11.4055 0.460073 10.4859 0.460073 9.91865 1.0273L6.49982 4.44613L3.08099 1.0273C2.51376 0.460074 1.5941 0.460073 1.02687 1.0273C0.459646 1.59453 0.459646 2.51419 1.02687 3.08141L4.4457 6.50024L1.02205 9.94557C0.458107 10.5131 0.462718 11.4308 1.03234 11.9926C1.59768 12.5502 2.50706 12.5471 3.06855 11.9856L6.49982 8.55436L9.93108 11.9856C10.4926 12.5471 11.4019 12.5502 11.9673 11.9926C12.5369 11.4308 12.5415 10.5131 11.9776 9.94557L8.55393 6.50024L11.9728 3.08141Z" fill="white"/>
</svg>
