<svg width="171" height="20" viewBox="0 0 171 20" fill="none" xmlns="http://www.w3.org/2000/svg">
<path d="M11.1562 0.323079L13.9787 5.96823C14.0655 6.14141 14.233 6.26146 14.4267 6.28936L20.7413 7.19467C20.9651 7.22707 21.1509 7.38185 21.2208 7.59409C21.2908 7.80633 21.2327 8.03933 21.071 8.19537L16.5015 12.5898C16.3613 12.7244 16.2973 12.9186 16.3304 13.1088L17.4113 19.3139C17.4498 19.534 17.3581 19.7567 17.1749 19.888C16.9917 20.0193 16.7487 20.0365 16.5484 19.9324L10.9034 17.0026C10.7298 16.9136 10.5233 16.9136 10.3497 17.0026L4.70172 19.9324C4.50132 20.036 4.2587 20.0186 4.07565 19.8874C3.8926 19.7562 3.8008 19.5339 3.83876 19.3139L4.91971 13.1088C4.95316 12.9186 4.88934 12.7244 4.74916 12.5898L0.179726 8.19537C0.0175338 8.03951 -0.0408529 7.8063 0.0291362 7.59386C0.0991252 7.38143 0.285339 7.22665 0.509417 7.19467L6.82399 6.28936C7.01755 6.26137 7.18482 6.14132 7.27138 5.96823L10.0939 0.323079C10.1948 0.125002 10.4003 0 10.625 0C10.8498 0 11.0553 0.125002 11.1562 0.323079Z" fill="#91F082"/>
<path d="M48.4062 0.323079L51.2287 5.96823C51.3155 6.14141 51.483 6.26146 51.6767 6.28936L57.9913 7.19467C58.2151 7.22707 58.4009 7.38185 58.4708 7.59409C58.5408 7.80633 58.4827 8.03933 58.321 8.19537L53.7515 12.5898C53.6113 12.7244 53.5473 12.9186 53.5804 13.1088L54.6613 19.3139C54.6998 19.534 54.6081 19.7567 54.4249 19.888C54.2417 20.0193 53.9987 20.0365 53.7984 19.9324L48.1534 17.0026C47.9798 16.9136 47.7733 16.9136 47.5997 17.0026L41.9517 19.9324C41.7513 20.036 41.5087 20.0186 41.3256 19.8874C41.1426 19.7562 41.0508 19.5339 41.0888 19.3139L42.1697 13.1088C42.2032 12.9186 42.1393 12.7244 41.9992 12.5898L37.4297 8.19537C37.2675 8.03951 37.2091 7.8063 37.2791 7.59386C37.3491 7.38143 37.5353 7.22665 37.7594 7.19467L44.074 6.28936C44.2676 6.26137 44.4348 6.14132 44.5214 5.96823L47.3439 0.323079C47.4448 0.125002 47.6503 0 47.875 0C48.0998 0 48.3053 0.125002 48.4062 0.323079Z" fill="#91F082"/>
<path d="M85.6562 0.323079L88.4787 5.96823C88.5655 6.14141 88.733 6.26146 88.9267 6.28936L95.2413 7.19467C95.4651 7.22707 95.6509 7.38185 95.7208 7.59409C95.7908 7.80633 95.7327 8.03933 95.571 8.19537L91.0015 12.5898C90.8613 12.7244 90.7973 12.9186 90.8304 13.1088L91.9113 19.3139C91.9498 19.534 91.8581 19.7567 91.6749 19.888C91.4917 20.0193 91.2487 20.0365 91.0484 19.9324L85.4034 17.0026C85.2298 16.9136 85.0233 16.9136 84.8497 17.0026L79.2017 19.9324C79.0013 20.036 78.7587 20.0186 78.5756 19.8874C78.3926 19.7562 78.3008 19.5339 78.3388 19.3139L79.4197 13.1088C79.4532 12.9186 79.3893 12.7244 79.2492 12.5898L74.6797 8.19537C74.5175 8.03951 74.4591 7.8063 74.5291 7.59386C74.5991 7.38143 74.7853 7.22665 75.0094 7.19467L81.324 6.28936C81.5176 6.26137 81.6848 6.14132 81.7714 5.96823L84.5939 0.323079C84.6948 0.125002 84.9003 0 85.125 0C85.3498 0 85.5553 0.125002 85.6562 0.323079Z" fill="#91F082"/>
<path d="M122.906 0.323079L125.729 5.96823C125.815 6.14141 125.983 6.26146 126.177 6.28936L132.491 7.19467C132.715 7.22707 132.901 7.38185 132.971 7.59409C133.041 7.80633 132.983 8.03933 132.821 8.19537L128.252 12.5898C128.111 12.7244 128.047 12.9186 128.08 13.1088L129.161 19.3139C129.2 19.534 129.108 19.7567 128.925 19.888C128.742 20.0193 128.499 20.0365 128.298 19.9324L122.653 17.0026C122.48 16.9136 122.273 16.9136 122.1 17.0026L116.452 19.9324C116.251 20.036 116.009 20.0186 115.826 19.8874C115.643 19.7562 115.551 19.5339 115.589 19.3139L116.67 13.1088C116.703 12.9186 116.639 12.7244 116.499 12.5898L111.93 8.19537C111.768 8.03951 111.709 7.8063 111.779 7.59386C111.849 7.38143 112.035 7.22665 112.259 7.19467L118.574 6.28936C118.768 6.26137 118.935 6.14132 119.021 5.96823L121.844 0.323079C121.945 0.125002 122.15 0 122.375 0C122.6 0 122.805 0.125002 122.906 0.323079Z" fill="#91F082"/>
<path d="M160.156 0.323079L162.979 5.96823C163.065 6.14141 163.233 6.26146 163.427 6.28936L169.741 7.19467C169.965 7.22707 170.151 7.38185 170.221 7.59409C170.291 7.80633 170.233 8.03933 170.071 8.19537L165.502 12.5898C165.361 12.7244 165.297 12.9186 165.33 13.1088L166.411 19.3139C166.45 19.534 166.358 19.7567 166.175 19.888C165.992 20.0193 165.749 20.0365 165.548 19.9324L159.903 17.0026C159.73 16.9136 159.523 16.9136 159.35 17.0026L153.702 19.9324C153.501 20.036 153.259 20.0186 153.076 19.8874C152.893 19.7562 152.801 19.5339 152.839 19.3139L153.92 13.1088C153.953 12.9186 153.889 12.7244 153.749 12.5898L149.18 8.19537C149.018 8.03951 148.959 7.8063 149.029 7.59386C149.099 7.38143 149.285 7.22665 149.509 7.19467L155.824 6.28936C156.018 6.26137 156.185 6.14132 156.271 5.96823L159.094 0.323079C159.195 0.125002 159.4 0 159.625 0C159.85 0 160.055 0.125002 160.156 0.323079Z" fill="#91F082"/>
</svg>
