<svg width="15" height="11" viewBox="0 0 15 11" fill="none" xmlns="http://www.w3.org/2000/svg">
<path d="M14.756 4.82699L10.7743 0.278736C10.536 0.00657561 10.1776 -0.0748266 9.86625 0.0724768C9.5549 0.21978 9.35187 0.56679 9.3518 0.951741V3.83415C9.3518 3.96558 9.25852 4.07212 9.14346 4.07212H1.25001C0.559649 4.07212 0 4.71141 0 5.5C0 6.28859 0.559649 6.92788 1.25001 6.92788H9.14346C9.25852 6.92788 9.3518 7.03442 9.3518 7.16585V10.0483C9.35187 10.4332 9.5549 10.7802 9.86625 10.9275C10.1776 11.0748 10.536 10.9934 10.7743 10.7213L14.756 6.17301C15.0813 5.80128 15.0813 5.19872 14.756 4.82699Z" fill="#F8A35B"/>
</svg>
