<svg width="20" height="18" viewBox="0 0 20 18" fill="none" xmlns="http://www.w3.org/2000/svg">
<path d="M2.71537 11.4359C3.01524 11.7449 3.50141 11.7449 3.80128 11.4359L6.29114 8.87025C6.77486 8.3718 6.43227 7.51953 5.74819 7.51953H0.768459C0.0843768 7.51953 -0.258211 8.3718 0.225508 8.87025L2.71537 11.4359Z" fill="white"/>
<path d="M4.77883 3.92486L4.00582 3.29047L4.77883 3.92486ZM9.40218 1.15373L9.20709 0.172945L9.40218 1.15373ZM4.59895 15.364C4.20843 14.9734 4.20843 14.3403 4.59895 13.9497C4.98947 13.5592 5.62264 13.5592 6.01316 13.9497L4.59895 15.364ZM1.96291 9C1.96291 6.9178 2.68489 4.90003 4.00582 3.29047L5.55184 4.55926C4.52445 5.81113 3.96291 7.38052 3.96291 9H1.96291ZM4.00582 3.29047C5.32675 1.68091 7.1649 0.579161 9.20709 0.172945L9.59727 2.13452C8.00891 2.45046 6.57923 3.30738 5.55184 4.55926L4.00582 3.29047ZM9.20709 0.172945C11.2493 -0.233271 13.3691 0.0811799 15.2055 1.06272L14.2627 2.82656C12.8344 2.06314 11.1856 1.81857 9.59727 2.13452L9.20709 0.172945ZM15.2055 1.06272C17.0418 2.04426 18.481 3.63216 19.2778 5.55585L17.43 6.32122C16.8103 4.82501 15.6909 3.58998 14.2627 2.82656L15.2055 1.06272ZM19.2778 5.55585C20.0746 7.47955 20.1798 9.62002 19.5754 11.6126L17.6615 11.032C18.1316 9.48224 18.0498 7.81743 17.43 6.32122L19.2778 5.55585ZM19.5754 11.6126C18.9709 13.6051 17.6943 15.3264 15.963 16.4832L14.8519 14.8203C16.1984 13.9205 17.1914 12.5817 17.6615 11.032L19.5754 11.6126ZM15.963 16.4832C14.2317 17.64 12.1529 18.1607 10.0807 17.9566L10.2768 15.9663C11.8885 16.125 13.5053 15.72 14.8519 14.8203L15.963 16.4832ZM10.0807 17.9566C8.00858 17.7526 6.07128 16.8363 4.59895 15.364L6.01316 13.9497C7.15831 15.0949 8.6651 15.8075 10.2768 15.9663L10.0807 17.9566Z" fill="white"/>
</svg>
