<svg width="16" height="16" viewBox="0 0 16 16" fill="none" xmlns="http://www.w3.org/2000/svg">
<path d="M9.13272 10.0005L9.3993 10.2671C8.39938 11.0003 7.13295 11.4004 5.86638 11.4004C5.59974 11.4004 5.39969 11.4004 5.13305 11.3337C4.99972 11.3337 4.79961 11.267 4.66629 11.267C3.06642 10.9337 1.66666 9.93384 0.800065 8.53396C0.266775 7.66736 0 6.66741 0 5.66749C0.0666612 2.46775 2.73331 -0.0653752 5.86638 0.00128605C7.39959 0.00128605 8.86594 0.534511 9.99919 1.60109C10.0658 1.66775 10.1327 1.73445 10.1994 1.80111C12.3325 3.93427 12.3325 7.46728 10.1994 9.60044C10.1327 9.6671 10.0659 9.73389 10.0659 9.73389L9.79933 9.46715C9.66601 9.33383 9.39917 9.33383 9.26585 9.46715C8.9992 9.60047 8.93274 9.80049 9.13272 10.0005C9.06606 9.93381 9.06606 10.0005 9.13272 10.0005Z" fill="#F8A35B"/>
<path d="M15.7985 15.8675C15.7318 15.9342 15.5986 16.0008 15.5319 16.0008C15.3986 16.0008 15.3316 15.9342 15.265 15.8675L9.39893 10.2013L9.46565 10.1346C9.66564 10.0012 9.86549 9.86795 9.99881 9.66797L15.8652 15.2674C15.9319 15.4674 15.9985 15.7342 15.7985 15.8675Z" fill="#F8A35B"/>
<path d="M9.9325 9.73392C9.73252 9.86724 9.59932 10.0672 9.39934 10.2005L9.33261 10.2671L9.06603 10.0005C9.06603 10.0005 9.06603 10.0004 9.06603 9.93378C8.93271 9.80045 8.93278 9.53384 9.13276 9.46718C9.26608 9.33386 9.5326 9.33386 9.66592 9.46718L9.9325 9.73392Z" fill="#F8A35B"/>
</svg>
