<svg width="25" height="16" viewBox="0 0 25 16" fill="none" xmlns="http://www.w3.org/2000/svg">
<path d="M24.5461 0H0.391435C-0.0830318 0 -0.126165 0.222118 0.262035 0.488659L6.55951 4.75332C6.94771 5.01986 7.24964 5.64179 7.24964 6.13045V13.5048C7.24964 13.9934 7.55158 14.1267 7.93978 13.8601L9.92391 12.3497C10.3121 12.0388 10.7866 12.1721 11.0022 12.6163L12.4688 15.6371C12.6844 16.0813 13.0726 16.1257 13.3746 15.7259L24.8481 0.710777C25.15 0.310965 24.9775 0 24.5461 0ZM20.1034 2.08791L10.4415 7.41873C9.96705 7.68527 9.57885 7.46316 9.57885 6.88565V5.55294C9.57885 4.97544 10.0102 4.39793 10.5278 4.26466L20.0171 1.82137C20.5779 1.68809 20.5779 1.82137 20.1034 2.08791Z" fill="#F8A35B"/>
</svg>
