<svg width="12" height="12" viewBox="0 0 12 12" fill="none" xmlns="http://www.w3.org/2000/svg">
<circle cx="6" cy="6" r="6" fill="#F8A35B"/>
<path d="M6.08929 10H4.5L5.55207 4.27548H7.14136L6.08929 10ZM5.73674 2.82055C5.72928 2.58423 5.81135 2.38848 5.98297 2.23328C6.15458 2.07809 6.36164 2.00049 6.60414 2.00049C6.8429 1.99344 7.04996 2.06222 7.2253 2.20683C7.40065 2.35144 7.49205 2.53838 7.49951 2.76764C7.50697 2.98632 7.42863 3.17679 7.26448 3.33903C7.10406 3.50128 6.89327 3.58593 6.63212 3.59299C6.39708 3.60004 6.19002 3.53303 6.01095 3.39194C5.8356 3.25086 5.7442 3.06039 5.73674 2.82055Z" fill="white"/>
</svg>
