<svg width="20" height="11" viewBox="0 0 20 11" fill="none" xmlns="http://www.w3.org/2000/svg">
<path d="M19.756 4.82699L15.7743 0.278736C15.536 0.00657561 15.1776 -0.0748266 14.8663 0.0724768C14.5549 0.21978 14.3519 0.56679 14.3518 0.951741V3.83415C14.3518 3.96558 14.2585 4.07212 14.1435 4.07212H1.25001C0.559649 4.07212 0 4.71141 0 5.5C0 6.28859 0.559649 6.92787 1.25001 6.92787H14.1435C14.2585 6.92787 14.3518 7.03442 14.3518 7.16585V10.0483C14.3519 10.4332 14.5549 10.7802 14.8663 10.9275C15.1776 11.0748 15.536 10.9934 15.7743 10.7213L19.756 6.17301C20.0813 5.80128 20.0813 5.19872 19.756 4.82699Z" fill="#F8A35B"/>
</svg>
