<svg width="472" height="259" viewBox="0 0 472 259" fill="none" xmlns="http://www.w3.org/2000/svg">
<path opacity="0.3" d="M273.703 15.6992C327.817 25.4492 386.91 34.2062 416.453 63.7563C446.521 93.8324 444.047 132.586 423.529 165.563C404.862 195.563 359.679 213.833 313.645 228.99C269.64 243.48 222.495 251.942 172.986 248.057C114.628 243.478 49.2513 236.339 17.7449 205.771C-14.3733 174.609 3.88995 134.894 19.6557 99.2924C35.3046 63.9545 52.9557 24.9935 105.449 7.72078C157.015 -9.24667 217.583 5.58772 273.703 15.6992Z" fill="url(#paint0_linear_517_78882)"/>
<path opacity="0.3" d="M195.803 233.301C141.196 223.551 81.5643 214.794 51.7526 185.244C21.4102 155.168 23.9075 116.414 44.6124 83.4371C63.4486 53.4365 109.044 35.1666 155.497 20.0095C199.903 5.52029 247.477 -2.94202 297.438 0.943003C356.327 5.52236 422.3 12.6608 454.093 43.229C486.504 74.3908 468.075 114.106 452.165 149.708C436.374 185.045 418.562 224.007 365.59 241.279C313.555 258.247 252.434 243.412 195.803 233.301Z" fill="url(#paint1_linear_517_78882)"/>
<g opacity="0.4">
<path d="M397.844 228.398C395.801 228.806 393.725 229.01 391.614 229.01C387.325 229.01 383.751 227.65 380.891 224.93C377.964 222.21 376.5 218.707 376.5 214.423C376.5 209.391 378.542 205.412 382.627 202.488C386.78 199.496 391.41 198 396.516 198C400.601 198 404.176 198.952 407.239 200.856C410.371 202.692 412.822 205.276 414.592 208.609C416.362 211.873 417.247 215.477 417.247 219.421C417.247 231.05 411.665 241.591 400.499 251.043C394.712 256.348 390.423 259 387.631 259C386.406 259 385.215 258.558 384.057 257.674C382.9 256.858 382.321 255.838 382.321 254.614C382.321 253.934 382.798 253.118 383.751 252.166C391.853 244.481 396.55 236.559 397.844 228.398Z" fill="#3F2B4F"/>
<path d="M446.096 228.398C444.054 228.806 441.977 229.01 439.867 229.01C435.578 229.01 432.003 227.65 429.144 224.93C426.216 222.21 424.753 218.707 424.753 214.423C424.753 209.391 426.795 205.412 430.88 202.488C435.033 199.496 439.663 198 444.769 198C448.854 198 452.428 198.952 455.492 200.856C458.624 202.692 461.075 205.276 462.845 208.609C464.615 211.873 465.5 215.477 465.5 219.421C465.5 231.05 459.917 241.591 448.752 251.043C442.965 256.348 438.675 259 435.884 259C434.659 259 433.467 258.558 432.31 257.674C431.152 256.858 430.574 255.838 430.574 254.614C430.574 253.934 431.05 253.118 432.003 252.166C440.105 244.481 444.803 236.559 446.096 228.398Z" fill="#3F2B4F"/>
</g>
<g opacity="0.4">
<path d="M73.6561 30.602C75.6986 30.194 77.7751 29.99 79.8857 29.99C84.1749 29.99 87.7492 31.3501 90.6087 34.0702C93.5362 36.7904 95 40.2926 95 44.5769C95 49.6093 92.9575 53.5875 88.8726 56.5117C84.7195 59.5039 80.0899 61 74.9837 61C70.8988 61 67.3244 60.0479 64.2607 58.1438C61.1289 56.3077 58.678 53.7235 56.9078 50.3913C55.1377 47.1271 54.2526 43.5229 54.2526 39.5786C54.2526 27.9498 59.8354 17.4091 71.0009 7.95652C76.7879 2.65217 81.0771 0 83.8685 0C85.094 0 86.2854 0.442028 87.4428 1.32609C88.6002 2.14214 89.1789 3.16221 89.1789 4.38629C89.1789 5.06633 88.7024 5.88239 87.7492 6.83445C79.6474 14.519 74.9497 22.4415 73.6561 30.602Z" fill="#3F2B4F"/>
<path d="M25.4035 30.602C27.446 30.194 29.5225 29.99 31.6331 29.99C35.9223 29.99 39.4966 31.3501 42.3561 34.0702C45.2836 36.7904 46.7474 40.2926 46.7474 44.5769C46.7474 49.6093 44.7049 53.5875 40.62 56.5117C36.4669 59.5039 31.8373 61 26.7311 61C22.6462 61 19.0718 60.0479 16.0081 58.1438C12.8763 56.3077 10.4254 53.7235 8.65522 50.3913C6.88508 47.1271 6 43.5229 6 39.5786C6 27.9498 11.5828 17.4091 22.7483 7.95652C28.5353 2.65217 32.8245 0 35.6159 0C36.8414 0 38.0328 0.442028 39.1902 1.32609C40.3476 2.14214 40.9263 3.16221 40.9263 4.38629C40.9263 5.06633 40.4498 5.88239 39.4966 6.83445C31.3948 14.519 26.6971 22.4415 25.4035 30.602Z" fill="#3F2B4F"/>
</g>
<defs>
<linearGradient id="paint0_linear_517_78882" x1="-58.8515" y1="-17.1555" x2="207.487" y2="411.419" gradientUnits="userSpaceOnUse">
<stop stop-color="#F8A35B"/>
<stop offset="1" stop-color="white" stop-opacity="0"/>
</linearGradient>
<linearGradient id="paint1_linear_517_78882" x1="531.388" y1="266.156" x2="266.125" y2="-164.576" gradientUnits="userSpaceOnUse">
<stop stop-color="#91F082"/>
<stop offset="1" stop-color="white" stop-opacity="0"/>
</linearGradient>
</defs>
</svg>
