<svg width="23" height="31" viewBox="0 0 23 31" fill="none" xmlns="http://www.w3.org/2000/svg">
<path d="M22.5 12.078C22.5 13.6206 21.8286 15.5057 20.7619 17.5069C19.7019 19.4956 18.2826 21.5426 16.8541 23.3941C15.427 25.2437 13.9987 26.888 12.9265 28.0703C12.3906 28.6612 11.9444 29.1361 11.6325 29.4628C11.5852 29.5123 11.541 29.5585 11.5 29.6011C11.459 29.5585 11.4148 29.5123 11.3675 29.4628C11.0556 29.1361 10.6094 28.6612 10.0735 28.0703C9.00133 26.888 7.57298 25.2437 6.14587 23.3941C4.71736 21.5426 3.29808 19.4956 2.23811 17.5069C1.17142 15.5057 0.5 13.6206 0.5 12.078C0.5 5.66025 5.44769 0.5 11.5 0.5C17.5523 0.5 22.5 5.66025 22.5 12.078Z" fill="#91F082" stroke="white"/>
<path d="M11.4037 11.3109C10.0183 11.1747 9.52674 12.4457 8.09666 13.4898C5.99624 15.0333 6.175 16.6221 7.24755 17.0761C8.3648 17.53 9.48205 16.3951 10.6887 16.5767C11.94 16.7129 12.7444 18.1656 13.9063 17.984C15.0683 17.8024 15.6492 16.3043 13.9957 14.307C12.9232 12.8997 12.7891 11.5378 11.4037 11.3109Z" fill="white"/>
<path d="M8.14049 9.81049C8.76615 10.9908 8.67677 12.3072 7.91704 12.7158C7.15731 13.1243 6.04007 12.4888 5.41441 11.3085C4.78875 10.1283 4.87813 8.81179 5.63786 8.40323C6.39759 7.99467 7.51483 8.63021 8.14049 9.81049Z" fill="white"/>
<path d="M14.889 10.7199C13.9952 11.7186 13.727 12.9897 14.3527 13.5798C14.9784 14.17 16.2297 13.8522 17.1235 12.8989C18.0173 11.9002 18.2854 10.6291 17.6598 10.039C17.0788 9.44885 15.8275 9.72122 14.889 10.7199Z" fill="white"/>
<path d="M11.536 7.49806C11.5807 8.90532 10.9103 10.0856 10.0165 10.131C9.12273 10.1764 8.31831 9.0415 8.27362 7.63425C8.18424 6.22699 8.85459 5.04671 9.74839 5.00132C10.6869 4.95592 11.4466 6.0908 11.536 7.49806Z" fill="white"/>
<path d="M12.2519 7.59008C11.8497 8.95194 12.1625 10.2684 13.0563 10.5408C13.9501 10.8131 14.9333 9.95063 15.3802 8.58877C15.7824 7.22691 15.4696 5.91045 14.5758 5.63808C13.682 5.3657 12.6541 6.22821 12.2519 7.59008Z" fill="white"/>
</svg>
