<svg width="22" height="13" viewBox="0 0 22 13" fill="none" xmlns="http://www.w3.org/2000/svg">
<path d="M21.6092 5.38691L17.4305 0.42517C17.1804 0.128267 16.8043 0.0394647 16.4775 0.200159C16.1508 0.360854 15.9377 0.73941 15.9376 1.15936V4.3038C15.9376 4.44718 15.8397 4.56341 15.719 4.56341H2.18782C1.46331 4.56341 0.875977 5.26081 0.875977 6.12109C0.875977 6.98138 1.46331 7.67878 2.18782 7.67878H15.719C15.8397 7.67878 15.9376 7.79501 15.9376 7.93839V11.0828C15.9377 11.5028 16.1508 11.8813 16.4775 12.042C16.8043 12.2027 17.1804 12.1139 17.4305 11.817L21.6092 6.85528C21.9506 6.44977 21.9506 5.79242 21.6092 5.38691Z" fill="#3F2B4F"/>
</svg>
