<svg width="63" height="71" viewBox="0 0 63 71" fill="none" xmlns="http://www.w3.org/2000/svg">
<path opacity="0.49" d="M28.2178 30.166C28.2178 28.9065 29.2629 27.873 30.5366 27.873C31.8104 27.873 32.8555 28.9065 32.8555 30.166C32.8555 31.4256 31.843 32.459 30.5366 32.459C29.2302 32.459 28.2178 31.4256 28.2178 30.166Z" fill="#1EE100"/>
<path d="M31.321 46.1515C32.2355 46.0869 32.8887 45.3118 32.8561 44.4076C32.7907 43.5033 32.0069 42.8574 31.0924 42.8897C30.2106 42.9543 29.9167 42.9543 29.8513 42.9543C25.4422 42.9543 21.8823 41.1134 19.8247 37.7547C19.3674 36.9796 18.355 36.7535 17.5711 37.2057C16.7873 37.6578 16.5587 38.659 17.0159 39.4341C19.6614 43.7294 24.3318 46.1838 29.8513 46.1838C29.9493 46.2484 30.2433 46.2484 31.321 46.1515ZM17.8324 27.4847C18.9429 21.51 24.2011 17.3116 30.6352 17.3116C36.4487 17.3116 41.2497 20.8318 42.9154 26.2898C43.2093 27.2263 44.1891 27.7754 45.1689 27.4847C46.1161 27.194 46.6713 26.2252 46.3773 25.2563C44.2544 18.2805 38.0817 13.7591 30.6678 13.7591C22.5028 13.7591 15.7748 19.1202 14.3378 26.8065C14.1745 27.7754 14.795 28.7119 15.7748 28.8734C15.8728 28.9057 16.0035 28.9057 16.1014 28.9057C16.9179 28.938 17.6691 28.3244 17.8324 27.4847ZM57.939 42.4375C59.6373 38.659 60.4865 34.622 60.4865 30.4236C60.4865 14.0821 47.0632 0.808594 30.5372 0.808594C14.0112 0.808594 0.587891 14.0821 0.587891 30.4236C0.587891 30.682 0.587891 30.9726 0.587891 31.231C0.620551 32.2967 1.50237 33.1364 2.61282 33.1041C3.6906 33.0718 4.53976 32.1999 4.5071 31.1018C4.5071 30.8757 4.5071 30.6497 4.5071 30.3913C4.5071 16.2459 16.1994 4.68406 30.5372 4.68406C44.875 4.68406 56.5673 16.2459 56.5673 30.4236C56.5673 34.0407 55.8161 37.5609 54.3464 40.8551C53.9218 41.8239 54.3464 42.9866 55.3589 43.4064C55.6201 43.5356 55.8814 43.5679 56.1427 43.5679C56.8939 43.6002 57.6124 43.148 57.939 42.4375Z" fill="url(#paint0_linear_35_8213)"/>
<path d="M60.9441 61.7488C56.241 61.4581 50.9501 61.4904 45.5938 61.7488C45.8878 60.1017 46.7043 58.6484 47.5208 57.1951C48.4026 55.6449 49.3171 54.0947 50.1336 52.5446C50.4275 51.9955 50.7215 51.4465 50.9828 50.8975C52.2239 48.3461 52.975 45.601 53.0077 42.7267V42.6298C53.0404 37.6886 51.342 33.361 48.37 29.4532C48.2393 29.2918 48.1087 29.1303 47.9127 29.0011C47.6514 28.8073 47.3902 28.6781 47.1289 28.5813C46.9329 28.5167 46.737 28.4844 46.5737 28.4844C45.7245 28.4844 44.908 29.0334 44.5161 30.0346C43.9282 31.4879 43.3403 32.9735 42.7198 34.4913C42.6871 34.4591 42.6218 34.4591 42.5891 34.4268C42.4258 34.3622 42.2625 34.2976 42.1319 34.233C40.3029 33.3933 38.4413 32.5536 36.6123 31.7462C36.2531 31.5847 35.9265 31.5202 35.5999 31.5202C34.2935 31.5202 33.2483 32.5859 33.4116 34.0392C33.4443 34.4591 33.7056 34.9112 33.9342 35.2664C35.3712 37.3979 36.0898 39.5295 36.1224 41.661C36.1224 43.1788 35.7958 44.6967 35.0446 46.2146C34.718 46.9251 34.2935 47.6033 33.8036 48.2815C32.8238 49.638 31.746 50.8975 30.6355 52.1247C29.5904 53.2873 28.4473 54.3854 27.3695 55.548C26.3571 56.6784 25.3773 57.841 24.5934 59.2297C24.4628 59.4881 24.2995 59.7465 24.1688 60.0048C24.0382 59.7465 23.8749 59.5204 23.6789 59.3266C23.5483 59.1974 23.385 59.036 23.2544 58.9391C22.3725 58.0994 21.4907 57.2274 20.5109 56.4846C19.0739 55.4189 17.5062 54.5146 15.9712 53.5457C13.8482 52.2539 11.6927 50.9944 9.79839 49.3473C8.13273 47.894 6.79367 46.2146 6.1078 44.0831C5.48726 42.1454 5.55258 40.3045 6.17312 38.7544C6.95697 36.7843 8.68795 35.2341 11.1375 34.4913C12.0846 34.2007 12.9991 34.0715 13.9136 34.0715C14.0115 34.0715 14.0769 34.0715 14.1748 34.0715C15.7099 34.1038 17.2122 34.5559 18.6819 35.331C18.7146 35.331 18.7146 35.3633 18.7473 35.3633C19.0739 35.5248 19.4005 35.5894 19.6944 35.5894C20.3476 35.5894 20.9355 35.2664 21.2621 34.6528C21.8173 33.7485 21.4907 32.6182 20.5109 32.1338C19.5964 31.6493 18.6819 31.2618 17.7348 30.9711C16.4937 30.5836 15.22 30.3898 13.9462 30.3898C13.8809 30.3898 13.8482 30.3898 13.7829 30.3898C12.2152 30.3898 10.6149 30.7128 8.98189 31.3587C7.41421 31.9723 6.07514 32.8443 5.03002 33.9423C3.495 35.4925 2.51519 37.4625 2.18859 39.6263C2.02529 40.5629 2.02529 41.5318 2.09061 42.5329C2.41721 46.0854 4.11554 48.992 6.69569 51.4142C8.65529 53.2873 10.9415 54.7084 13.2277 56.1294C15.22 57.3889 17.2449 58.6484 19.1718 60.0048C20.5762 61.006 21.654 62.2655 22.2745 63.848C12.5092 65.1075 5.22598 66.3993 4.57278 66.5285C3.59298 66.69 2.93978 67.6266 3.13574 68.5954C3.29904 69.4674 4.05022 70.0487 4.89938 70.0487C4.99736 70.0487 5.128 70.0487 5.22598 70.0164C5.55258 69.9519 39.4864 63.848 60.6502 65.2044C61.63 65.269 62.4791 64.5262 62.5444 63.5573C62.6751 62.6531 61.9239 61.8134 60.9441 61.7488ZM28.6759 59.7465C28.8392 59.4881 29.0352 59.262 29.2311 59.036C29.9497 58.1963 30.7008 57.3889 31.452 56.6138C31.7786 56.2908 32.0726 55.9679 32.3992 55.6449C34.0975 53.901 35.6978 52.0924 37.0696 50.0578C38.376 48.1524 39.2578 46.1823 39.6171 44.1154C39.911 42.5006 39.8783 40.8859 39.5517 39.1742C39.4211 38.496 39.2578 37.8501 39.0292 37.1719C38.9965 37.075 38.9965 36.9458 38.9639 36.7843C39.6171 37.075 40.2703 37.3656 40.8908 37.6563C41.4134 37.8824 41.9359 38.1407 42.4585 38.3668C42.8831 38.5606 43.275 38.6575 43.6342 38.6575C44.5161 38.6575 45.2346 38.1084 45.6592 37.075C45.9858 36.2353 46.3124 35.4279 46.7043 34.4913C46.8023 34.2653 46.9003 34.0392 46.9982 33.7808C47.0636 33.9423 47.0962 34.0069 47.1289 34.0715C48.7945 37.1073 49.6437 40.3045 49.2844 43.7925C49.0885 45.6656 48.5333 47.4419 47.7821 49.1212C47.5208 49.7025 47.2595 50.2516 46.9656 50.8006C45.8878 52.8352 44.6467 54.7729 43.5363 56.7753C43.5363 56.8076 43.5036 56.8076 43.5036 56.8399C42.7524 58.1963 42.2299 59.6173 41.9686 61.1029C41.9359 61.2321 41.9033 61.3289 41.9033 61.4581C41.9033 61.4904 41.9033 61.555 41.9033 61.5873C41.9033 61.7165 41.9033 61.8134 41.9359 61.9103C40.8581 61.9748 39.7804 62.0717 38.7026 62.1363C38.8332 60.7799 39.2905 59.4881 39.911 58.2609C40.0416 57.9702 40.2049 57.6795 40.3682 57.4212C40.9235 56.42 41.5113 55.4189 42.0339 54.4177C42.2952 53.9333 42.2952 53.3842 42.1319 52.9644C41.8706 52.2862 41.2174 51.7695 40.3356 51.7372C39.6824 51.7695 39.1272 52.0924 38.7679 52.7706C38.4086 53.4165 38.0494 54.0624 37.6901 54.7084C37.3962 55.2251 37.1349 55.7095 36.8409 56.2262C36.2857 57.2597 35.8611 58.2932 35.5345 59.3589C35.2406 60.3601 35.0446 61.4258 34.9793 62.4916C32.2359 62.7499 29.5577 63.0406 26.9776 63.3313C27.2715 62.0394 27.8594 60.8445 28.6759 59.7465Z" fill="#F8A35B"/>
<defs>
<linearGradient id="paint0_linear_35_8213" x1="28.5457" y1="-7.21539" x2="30.7783" y2="35.685" gradientUnits="userSpaceOnUse">
<stop stop-color="#1EE100"/>
<stop offset="0.1099" stop-color="#4CE734"/>
<stop offset="0.2388" stop-color="#7BED69"/>
<stop offset="0.3695" stop-color="#A3F397"/>
<stop offset="0.4992" stop-color="#C4F7BC"/>
<stop offset="0.6277" stop-color="#DEFBDA"/>
<stop offset="0.7548" stop-color="#F0FDEE"/>
<stop offset="0.8797" stop-color="#FBFFFB"/>
<stop offset="1" stop-color="white"/>
</linearGradient>
</defs>
</svg>
