<svg width="20" height="20" viewBox="0 0 20 20" fill="none" xmlns="http://www.w3.org/2000/svg">
<circle cx="10" cy="10" r="9.5" fill="white" stroke="#3F2B4F"/>
<path d="M14.3295 13.5774L14.3294 13.5775L14.3372 13.5849C14.5543 13.7903 14.5543 14.1294 14.3372 14.3348C14.207 14.458 14.0785 14.5 13.9716 14.5C13.8656 14.5 13.7384 14.4587 13.6094 14.338L10.3513 11.1209L10 10.774L9.64869 11.1209L6.39165 14.337C6.3726 14.3541 6.32346 14.3888 6.24813 14.4194C6.17192 14.4504 6.09414 14.4667 6.02843 14.4667C5.96271 14.4667 5.88493 14.4504 5.80872 14.4194C5.73002 14.3875 5.67992 14.351 5.66283 14.3348L5.32063 14.6964L5.66283 14.3348C5.44572 14.1294 5.44572 13.7903 5.66283 13.5849L5.6629 13.5849L5.6705 13.5774L8.93281 10.3558L9.29308 9.99998L8.93279 9.64422L5.67048 6.42287L5.67056 6.42279L5.66283 6.41548C5.44572 6.21004 5.44572 5.87062 5.66283 5.66519C5.793 5.54201 5.92147 5.5 6.02843 5.5C6.13445 5.5 6.26159 5.54127 6.39059 5.66196L9.64867 8.87945L10 9.2264L10.3513 8.87945L13.6094 5.66196C13.7384 5.54127 13.8656 5.5 13.9716 5.5C14.0785 5.5 14.207 5.54201 14.3372 5.66519C14.5543 5.87063 14.5543 6.21004 14.3372 6.41548L14.3371 6.41539L14.3295 6.42287L11.0672 9.64422L10.7069 9.99998L11.0672 10.3558L14.3295 13.5774Z" fill="#3F2B4F" stroke="#3F2B4F"/>
</svg>
