<svg width="619" height="618" viewBox="0 0 619 618" fill="none" xmlns="http://www.w3.org/2000/svg">
<path d="M511.53 420.582C528.715 393.768 532.344 363.826 529.694 333.342C527.154 304.13 518.811 274.1 510.875 245.538C510.55 244.369 510.226 243.202 509.903 242.039C501.558 211.97 486.293 179.759 465.941 151.984C445.604 124.229 420.026 100.687 390.956 88.2822C361.576 75.7456 323.724 78.2726 286.998 87.6047C250.159 96.9657 213.842 113.33 187.128 129.21C137.534 158.692 92.3171 198.31 78.9098 255.609C64.7714 316.033 77.6181 380.72 117.397 428.606C138.087 453.513 171.495 472.407 207.379 484.892C243.313 497.394 282.15 503.616 314.089 502.874C346.853 502.113 387.129 495.53 423.682 482.232C460.15 468.965 493.432 448.821 511.53 420.582Z" stroke="white" stroke-opacity="0.35" stroke-width="7"/>
<mask id="mask0_16_49578" style="mask-type:alpha" maskUnits="userSpaceOnUse" x="76" y="83" width="451" height="417">
<path d="M506.53 242.975C523.011 302.359 541.837 366.806 508.583 418.693C473.594 473.29 378.836 497.869 314.008 499.375C251.05 500.837 160.329 474.811 120.089 426.369C81.0728 379.401 68.4062 315.861 82.3177 256.407C95.3946 200.52 139.579 161.548 188.916 132.219C241.85 100.752 332.943 67.3328 389.582 91.5014C446.21 115.665 490.067 183.649 506.53 242.975Z" fill="#FF4D9C"/>
</mask>
<g mask="url(#mask0_16_49578)">
<path d="M506.53 242.975C523.011 302.359 541.837 366.806 508.583 418.693C473.594 473.29 378.836 497.869 314.008 499.375C251.05 500.837 160.329 474.811 120.089 426.369C81.0728 379.401 68.4062 315.861 82.3177 256.407C95.3946 200.52 139.579 161.548 188.916 132.219C241.85 100.752 332.943 67.3328 389.582 91.5014C446.21 115.665 490.067 183.649 506.53 242.975Z" fill="white"/>
<path d="M319.065 330.848C325.717 299.857 319.065 94.1199 442.975 73.1586C432.402 61.5303 419.248 45.5644 405.301 32.1839C403.093 30.0425 401.466 27.3753 400.571 24.4326C399.677 21.4899 399.545 18.3682 400.187 15.3604C402.911 2.19117 397.574 -15.0878 386.427 -26.1685C370.628 -41.8742 216.51 58.9373 206.174 63.8475C201.959 65.8369 171.001 101.008 167.543 104.134C162.979 108.555 141.433 128.166 131.415 124.914C114.649 119.471 148.743 143.849 138.329 140.903C124.57 137.011 111.919 141.465 107.512 143.288C104.448 144.556 83.3934 153.68 78.6465 175.797C5.63655 197.981 21.1806 250.316 23.5763 252.95C26.1964 255.832 29.0379 259.085 32.0476 262.505C41.5138 273.262 36.7697 290.211 23.0892 294.472C22.9801 294.506 22.8709 294.54 22.7616 294.574C17.5365 296.198 8.24478 299.082 1.93336 307.593C-11.3915 325.562 63.4873 359.625 83.4437 379.463C105.514 401.403 128.718 573.665 143.156 566.806C153.043 562.109 159.322 556.027 159.322 556.027C165.699 549.853 182.263 540.525 196.256 545.067C219.678 552.671 222.519 559.902 237.066 564.018C256.287 569.454 273.96 563.233 280.116 560.686C284.397 558.914 312.434 361.743 319.065 330.848Z" fill="url(#paint0_linear_16_49578)"/>
<path d="M29.7127 333.365C29.7127 333.365 59.1325 286.883 117.435 295.641C186.493 306.015 192.228 276.959 220.422 261.69C258.15 241.256 290.08 239.37 327.408 262.633L292.122 505.024L73.678 447.286L18.291 402.72L29.7127 333.365Z" fill="url(#paint1_linear_16_49578)"/>
<path d="M426.092 110.18H527.318C527.345 110.18 527.371 110.19 527.39 110.21C527.409 110.229 527.42 110.255 527.42 110.282V261.044C527.42 261.071 527.409 261.097 527.39 261.116C527.371 261.135 527.345 261.146 527.318 261.146H426.092C426.065 261.146 426.039 261.135 426.02 261.116C426.001 261.096 425.99 261.071 425.99 261.043V110.282C425.99 110.255 426.001 110.229 426.02 110.21C426.039 110.19 426.065 110.18 426.092 110.18V110.18Z" fill="#F5F5F5"/>
<path d="M528.495 262.322H424.918C424.891 262.322 424.865 262.311 424.846 262.292C424.827 262.273 424.816 262.247 424.816 262.22V109.108C424.816 109.081 424.827 109.055 424.846 109.036C424.865 109.017 424.891 109.006 424.918 109.006H528.495C528.522 109.006 528.548 109.017 528.567 109.036C528.586 109.055 528.597 109.081 528.597 109.108V262.22C528.597 262.233 528.594 262.247 528.589 262.259C528.584 262.271 528.577 262.283 528.567 262.292C528.558 262.301 528.546 262.309 528.534 262.314C528.522 262.319 528.508 262.322 528.495 262.322H528.495ZM427.268 259.972H526.144C526.157 259.972 526.171 259.969 526.183 259.964C526.195 259.959 526.207 259.951 526.216 259.942C526.226 259.932 526.233 259.921 526.238 259.909C526.243 259.896 526.246 259.883 526.246 259.87V111.458C526.246 111.431 526.235 111.405 526.216 111.386C526.197 111.367 526.171 111.356 526.144 111.356H427.268C427.241 111.356 427.216 111.367 427.196 111.386C427.177 111.405 427.167 111.431 427.167 111.458V259.87C427.167 259.883 427.169 259.896 427.174 259.909C427.179 259.921 427.187 259.932 427.196 259.942C427.206 259.951 427.217 259.959 427.229 259.964C427.242 259.969 427.255 259.972 427.268 259.972V259.972Z" fill="#EBEBEB"/>
<path d="M436.305 119.494H517.284C517.311 119.494 517.337 119.505 517.356 119.524C517.376 119.543 517.386 119.569 517.386 119.596V251.632C517.386 251.659 517.375 251.685 517.356 251.704C517.337 251.723 517.311 251.734 517.284 251.734H436.305C436.278 251.734 436.252 251.723 436.233 251.704C436.214 251.685 436.203 251.659 436.203 251.632V119.596C436.203 119.569 436.214 119.543 436.233 119.524C436.252 119.505 436.278 119.494 436.305 119.494H436.305Z" fill="white"/>
<path d="M453.978 156.984H499.433C499.451 156.984 499.467 156.991 499.479 157.003C499.491 157.015 499.498 157.032 499.498 157.049V210.348C499.498 210.365 499.491 210.381 499.479 210.393C499.467 210.405 499.45 210.412 499.433 210.412H453.978C453.961 210.412 453.945 210.405 453.933 210.393C453.921 210.381 453.914 210.365 453.914 210.348V157.049C453.914 157.032 453.921 157.015 453.933 157.003C453.945 156.991 453.961 156.984 453.978 156.984Z" fill="#EBEBEB"/>
<path d="M495.89 203.872C495.949 204.043 493.699 205.029 489.418 204.527C486.788 204.183 484.286 203.184 482.144 201.619C479.23 199.452 477.217 196.287 476.491 192.729C476.069 190.502 476.247 188.202 477.006 186.067C477.766 183.931 479.08 182.035 480.814 180.575C481.791 179.755 482.899 179.106 484.092 178.654C485.402 178.171 486.808 178.009 488.193 178.182C489.715 178.33 491.15 178.957 492.293 179.973C492.934 180.575 493.417 181.325 493.699 182.158C493.981 182.991 494.053 183.881 493.909 184.749C493.596 186.314 492.81 187.745 491.658 188.849C490.642 189.853 489.485 190.705 488.225 191.378C485.709 192.775 482.906 193.575 480.032 193.718C476.994 193.884 473.97 193.196 471.302 191.731C468.546 190.199 466.31 187.88 464.877 185.071C463.394 182.199 462.986 178.891 463.725 175.745C464.449 172.702 466.182 169.993 468.641 168.06C469.868 167.109 471.267 166.402 472.762 165.979C474.277 165.577 475.864 165.527 477.402 165.834C479.027 166.144 480.507 166.979 481.613 168.21C482.677 169.469 483.261 171.063 483.264 172.71C483.279 174.211 482.9 175.689 482.165 176.998C481.491 178.185 480.611 179.243 479.566 180.122C477.679 181.708 475.478 182.877 473.108 183.553C470.905 184.197 468.591 184.376 466.315 184.078C464.196 183.787 462.173 183.012 460.402 181.813C458.878 180.81 457.586 179.494 456.612 177.951C455.638 176.408 455.005 174.675 454.755 172.868C454.452 170.139 455.201 167.397 456.848 165.2C457.829 163.833 459.168 162.764 460.718 162.108C461.782 161.705 462.389 161.719 462.416 161.82C462.46 161.965 461.934 162.2 461.07 162.776C459.84 163.619 458.813 164.723 458.061 166.01C456.877 167.975 456.44 170.3 456.829 172.561C457.132 174.017 457.735 175.394 458.6 176.605C459.464 177.815 460.571 178.832 461.849 179.592C463.401 180.499 465.131 181.057 466.919 181.228C468.708 181.398 470.513 181.176 472.207 180.579C474.118 179.969 475.882 178.97 477.39 177.647C478.126 177.065 478.725 176.328 479.143 175.489C479.562 174.649 479.79 173.728 479.811 172.79C479.804 171.932 479.483 171.107 478.908 170.472C478.332 169.836 477.543 169.434 476.69 169.343C475.699 169.166 474.681 169.214 473.711 169.483C472.69 169.795 471.736 170.295 470.898 170.956C469.12 172.392 467.872 174.381 467.353 176.607C466.827 178.897 467.136 181.298 468.223 183.381C469.321 185.525 471.027 187.299 473.127 188.479C475.188 189.617 477.524 190.161 479.875 190.049C482.196 189.954 484.465 189.333 486.511 188.235C487.478 187.741 488.369 187.113 489.159 186.368C489.812 185.786 490.279 185.024 490.503 184.178C490.568 183.863 490.553 183.536 490.458 183.228C490.363 182.92 490.192 182.641 489.96 182.417C489.345 181.876 488.579 181.538 487.765 181.45C486.899 181.318 486.013 181.393 485.181 181.67C484.31 181.972 483.497 182.418 482.773 182.989C481.402 184.082 480.341 185.515 479.697 187.146C479.053 188.777 478.849 190.549 479.104 192.283C479.593 195.282 481.132 198.01 483.447 199.978C485.26 201.483 487.397 202.549 489.69 203.094C493.546 203.99 495.86 203.547 495.89 203.872Z" fill="#E0E0E0"/>
<path d="M423.981 60C404.249 74.6529 380.084 98.0533 360.261 131.246C330.565 180.968 328.736 241.558 322.7 299.157C314.521 377.206 299.364 482.908 284.566 525.372" stroke="black" stroke-width="4"/>
<path d="M390.478 262.498C388.119 262.653 385.837 263.407 383.85 264.687C381.862 265.968 380.232 267.733 379.115 269.817C377.93 272.634 376.994 275.55 376.32 278.531C375.973 280.023 375.331 281.429 374.431 282.668C373.531 283.906 372.391 284.951 371.079 285.74C368.659 286.913 365.81 286.607 363.171 287.123C360.045 287.842 357.289 289.678 355.421 292.285C353.553 294.893 352.7 298.092 353.024 301.283C353.253 302.132 353.229 303.029 352.954 303.864C352.65 304.393 352.2 304.823 351.658 305.102C348.08 307.238 343.277 306.896 340.078 309.565C338.055 311.497 336.798 314.094 336.54 316.88C335.755 322.17 336.783 327.57 339.457 332.201C340.474 334.076 341.903 335.696 343.635 336.94C346.203 338.441 349.116 339.25 352.09 339.286C362.068 339.997 372.66 337.758 380.14 331.116C390.013 322.351 405.772 289.135 407.519 276.049L390.478 262.498Z" fill="#1A2E35"/>
<path d="M464.021 298.002L499.408 314.968L474.293 421.211C474.293 421.211 489.201 464.978 494.206 489.116L499.21 513.255C448.462 547.809 381.059 584.419 338.141 540.241L375.707 448.004L356.883 374.3L406.553 292.995L418.824 292.352L464.021 298.002Z" fill="#FF4F5B"/>
<g opacity="0.3">
<path opacity="0.3" d="M490.982 482.763C489.962 480.629 469.513 463.016 467.383 461.988C436.593 447.13 417.764 461.123 383.466 463.869C382.56 463.942 383.481 464.551 382.574 464.632C378.666 464.981 372.701 462.866 368.848 463.433L366.709 470.121C389.841 479.344 416.665 471.344 440.572 478.313C447.579 480.355 454.238 483.664 461.439 484.855C463.503 485.196 465.786 485.452 467.212 486.982C467.904 487.912 468.519 488.895 469.053 489.924C470.78 492.511 474.01 493.643 477.084 494.12C480.346 494.826 483.751 494.353 486.697 492.786C489.504 491.042 492.408 485.745 490.982 482.763Z" fill="black"/>
</g>
<path d="M494.827 474.103C496.622 474.624 496.001 480.86 491.537 479.857C483.797 477.876 476.202 475.371 468.803 472.359L453.413 459.794L384.414 464.009L395.09 431.652C395.09 431.652 466.551 438.402 476.636 442.508C484.003 445.508 489.256 448.504 492.698 452.367" fill="#FFBF9D"/>
<path d="M492.699 452.367C493.706 453.516 494.587 454.769 495.328 456.105C496.297 457.982 493.54 460.479 493.54 460.479C493.54 460.479 499.66 462.398 497.529 464.929C495.398 467.46 494.622 467.595 494.622 467.595C494.622 467.595 499.61 471.373 498.563 473.291C497.516 475.209 494.828 474.103 494.828 474.103" fill="#FFBF9D"/>
<path d="M495.356 474.406C495.57 474.179 493.807 472.328 490.937 471.177C488.074 470.007 485.52 470.112 485.516 470.424C485.486 470.768 487.828 471.186 490.491 472.28C493.165 473.346 495.138 474.674 495.356 474.406Z" fill="#FF9A6C"/>
<path d="M488.665 464.982C488.623 465.318 490.033 465.751 491.647 466.473C493.27 467.179 494.539 467.929 494.759 467.671C494.975 467.438 493.931 466.175 492.127 465.385C490.328 464.585 488.692 464.665 488.665 464.982Z" fill="#FF9A6C"/>
<path d="M489.214 459.921C489.313 460.057 489.515 460.096 489.829 460.215C490.297 460.386 490.779 460.517 491.269 460.606C492.408 460.798 493.407 460.693 493.5 460.378C493.593 460.063 492.67 459.635 491.437 459.429C490.91 459.317 490.368 459.298 489.835 459.374C489.349 459.467 489.108 459.79 489.214 459.921Z" fill="#FF9A6C"/>
<path d="M406.554 292.994C406.554 292.994 376.471 293.772 364.802 316.717C358.982 328.161 343.758 367.353 338.432 383.88C334.828 395.062 322.847 451.27 336.414 456.839C353.81 463.98 384.331 465.082 384.3 465.082H384.331L395.541 432.445C396.289 429.9 396.025 427.165 394.804 424.809C393.583 422.454 391.5 420.662 388.989 419.806L379.714 421.781L369.043 418.56L376.313 352.716L386.531 339.93L406.554 292.994Z" fill="#FF4F5B"/>
<g opacity="0.3">
<path opacity="0.3" d="M435.012 319.197C433.61 324.349 435.088 331.806 434.429 336.408C431.59 354.823 430.862 373.501 432.257 392.082C432.416 393.087 432.366 394.114 432.111 395.099C431.746 395.953 431.253 396.746 430.649 397.45C426.987 402.441 426.116 409.049 426.954 415.183C428.057 421.281 429.936 427.213 432.546 432.834C432.607 427.876 432.24 420.468 431.779 415.529C431.687 414.544 431.192 415.185 431.15 414.197C430.897 408.254 431.815 402.726 435.93 398.431C436.828 397.646 437.61 396.738 438.256 395.736C438.706 394.731 438.964 393.651 439.016 392.551C441.283 371.762 442.737 350.905 443.379 329.981C443.552 328.797 443.295 327.589 442.654 326.579C441.964 325.949 441.181 325.429 440.332 325.036C438.719 324.005 437.695 322.157 435.954 321.361" fill="black"/>
</g>
<path d="M499.408 314.969C499.408 314.969 520.854 323.622 516.314 359.888C514.08 377.73 503.431 425.934 492.113 453.67C486.779 466.741 474.398 475.858 460.375 474.223C454.248 473.509 448.206 474.565 444.075 472.153C437.808 468.494 434.924 455.899 433.559 442.286C432.63 433.015 432.829 423.338 431.487 415.431C429.296 402.523 435.147 396.342 442.72 394.721L472.412 388.366L474.349 404.093L499.408 314.969Z" fill="#FF4F5B"/>
<path d="M462.55 424.447C462.465 424.382 461.997 425.063 460.855 425.943C459.237 427.165 457.333 427.952 455.324 428.23C452.332 428.575 449.3 428.187 446.491 427.098C442.972 425.963 439.71 424.145 436.894 421.748C434.214 419.236 432.43 415.916 431.815 412.294C431.316 409.33 431.638 406.287 432.748 403.493C433.862 400.926 435.435 398.583 437.389 396.58C436.69 396.918 436.065 397.392 435.55 397.973C434.03 399.457 432.815 401.222 431.971 403.171C430.681 406.089 430.251 409.315 430.733 412.469C431.328 416.358 433.213 419.934 436.086 422.621C439.022 425.132 442.445 427.01 446.14 428.137C449.12 429.232 452.33 429.549 455.467 429.059C457.585 428.691 459.556 427.733 461.155 426.296C461.774 425.812 462.255 425.175 462.55 424.447V424.447Z" fill="#1A2E35"/>
<path d="M493.858 449.216C493.752 449.18 493.248 450.814 491.903 453.561C489.993 457.429 487.448 460.95 484.375 463.977C479.838 468.478 474.195 471.702 468.015 473.326C460.459 475.331 452.462 474.885 445.177 472.051C441.342 470.561 439.905 466.341 438.394 462.826C437.065 459.297 436.063 455.653 435.4 451.94C434.088 444.829 433.712 438.279 433.228 432.803C432.76 427.452 432.375 423.06 432.091 419.824C431.943 418.403 431.82 417.238 431.722 416.299C431.705 415.884 431.634 415.473 431.513 415.076C431.45 415.487 431.44 415.904 431.483 416.317C431.522 417.26 431.571 418.43 431.63 419.857C431.819 423.1 432.076 427.502 432.389 432.865C432.676 439.32 433.321 445.754 434.322 452.137C434.967 455.925 435.966 459.644 437.307 463.244C438.029 465.16 438.895 467.019 439.898 468.804C440.976 470.736 442.66 472.258 444.691 473.136C452.22 476.084 460.5 476.523 468.298 474.385C473.578 472.936 478.471 470.335 482.625 466.768C486.779 463.201 490.091 458.758 492.322 453.758C492.812 452.675 493.228 451.562 493.569 450.424C493.717 450.035 493.814 449.629 493.858 449.216V449.216Z" fill="#1A2E35"/>
<path d="M482.327 427.48C482.474 425.458 482.42 423.426 482.167 421.414C481.916 417.681 481.488 412.531 480.943 406.851C480.655 404.003 480.426 401.32 480.093 398.828C479.885 396.55 479.06 394.371 477.709 392.525C476.745 391.29 475.383 390.428 473.855 390.086C472.77 389.883 472.174 390.113 472.188 390.165C472.191 390.273 472.785 390.214 473.74 390.535C475.075 391.009 476.229 391.884 477.045 393.041C479.297 395.929 479.107 401.33 479.759 406.965C480.304 412.645 480.865 417.782 481.329 421.494C481.464 423.518 481.798 425.523 482.327 427.48V427.48Z" fill="#1A2E35"/>
<path d="M492.583 318.234C491.734 318.368 490.92 318.671 490.19 319.125C488.131 320.253 486.319 321.781 484.859 323.619C482.705 326.346 481.075 329.447 480.05 332.767C478.836 336.779 477.825 340.849 477.022 344.963C475.127 353.641 473.477 361.51 472.341 367.219C471.772 370.073 471.333 372.387 471.055 373.992C470.848 374.815 470.743 375.661 470.742 376.51C471.095 375.738 471.352 374.925 471.507 374.091C471.924 372.516 472.489 370.23 473.162 367.398C474.509 361.735 476.289 353.895 478.184 345.217C479.148 340.88 479.936 336.728 481.092 333.107C482.034 329.883 483.532 326.848 485.519 324.14C487.416 321.681 489.827 319.666 492.583 318.234V318.234Z" fill="#1A2E35"/>
<path d="M356.809 462.014C357.449 462.211 358.108 462.339 358.775 462.396C360.232 462.596 362.09 462.852 364.361 463.164C369.371 463.777 376.187 464.611 384.274 465.6L384.69 465.651L384.826 465.245C386.034 461.653 387.213 457.707 388.374 453.525C389.537 449.343 390.734 444.947 392.266 440.517C392.877 438.782 393.498 437.074 394.169 435.413C394.509 434.585 394.846 433.762 395.181 432.946C395.591 432.114 395.882 431.229 396.044 430.316C396.276 428.563 396.276 426.788 396.047 425.035C395.916 424.141 395.586 423.287 395.083 422.537C394.58 421.786 393.915 421.158 393.138 420.697C391.73 419.797 390.103 419.298 388.432 419.253C386.905 419.33 385.4 419.644 383.97 420.183C382.704 420.647 381.404 421.012 380.081 421.274C378.859 421.433 377.624 421.453 376.397 421.334C374.261 421.059 372.158 420.565 370.123 419.859C368.538 419.339 366.895 419.016 365.231 418.897C364.178 418.842 363.122 418.912 362.087 419.108C361.722 419.154 361.366 419.253 361.03 419.402C362.416 419.303 363.807 419.289 365.195 419.359C366.809 419.556 368.396 419.937 369.924 420.493C371.985 421.282 374.126 421.844 376.309 422.17C377.605 422.325 378.914 422.329 380.211 422.183C381.59 421.939 382.947 421.585 384.268 421.122C385.603 420.64 387.003 420.362 388.421 420.299C389.887 420.361 391.309 420.816 392.539 421.615C393.178 421.993 393.724 422.51 394.136 423.127C394.548 423.744 394.816 424.446 394.92 425.181C395.123 426.825 395.114 428.489 394.894 430.132C394.743 430.951 394.475 431.744 394.098 432.487C393.746 433.305 393.401 434.133 393.07 434.975C392.388 436.65 391.759 438.376 391.142 440.128C389.594 444.606 388.401 449.039 387.265 453.218C386.13 457.401 384.994 461.331 383.838 464.92L384.389 464.566C376.283 463.75 369.45 463.062 364.429 462.556C362.144 462.36 360.276 462.2 358.811 462.075C358.148 461.983 357.476 461.963 356.809 462.014V462.014Z" fill="#1A2E35"/>
<path d="M353.281 421.819C353.234 421.687 352.365 421.815 351.163 422.532C349.638 423.515 348.373 424.852 347.475 426.429C345.367 430.07 344.773 433.377 345.022 433.456C345.386 433.596 346.51 430.452 348.492 427.046C349.328 425.604 350.396 424.31 351.653 423.215C352.628 422.391 353.352 421.991 353.281 421.819Z" fill="#1A2E35"/>
<path d="M377.287 421.818C377.474 420.812 377.543 419.788 377.495 418.765C377.5 415.982 377.33 413.202 376.987 410.44C376.287 403.417 373.833 393.974 372.618 383.404C371.416 372.829 372.434 363.064 374.904 356.559C376.261 353.053 378.014 349.713 380.128 346.604C380.096 346.578 379.9 346.767 379.553 347.153C379.039 347.71 378.558 348.298 378.114 348.913C376.465 351.177 375.122 353.648 374.117 356.262C371.385 362.839 370.215 372.826 371.435 383.532C372.015 388.889 373.021 393.912 373.931 398.459C374.847 403.005 375.656 407.091 376.154 410.551C376.661 414.008 376.921 416.825 377.033 418.778C377.028 419.797 377.113 420.815 377.287 421.818V421.818Z" fill="#1A2E35"/>
<g opacity="0.3">
<path opacity="0.3" d="M373.843 358.346C372.677 362.5 371.511 366.654 370.346 370.808C368.929 375.193 368.03 379.729 367.667 384.322C367.644 388.187 367.991 392.045 368.704 395.844C369.375 400.216 370.025 404.592 370.76 408.954C371.521 413.463 370.1 416.99 372.712 420.743L377.2 421.512C376.567 402.152 368.936 377.121 373.567 358.312" fill="black"/>
</g>
<path d="M391.763 317.765C391.433 317.656 389.604 322.638 387.416 328.772C385.238 334.912 383.222 339.786 383.517 339.93C383.811 340.079 386.34 335.363 388.535 329.176C390.737 323.001 392.057 317.862 391.763 317.765Z" fill="#1A2E35"/>
<g opacity="0.3">
<path opacity="0.3" d="M470.896 384.861C473.628 384.869 476.29 385.726 478.513 387.313C483.482 390.637 487.108 395.619 488.743 401.369C490.339 407.114 490.153 413.208 488.21 418.846C487.62 420.593 486.457 422.581 484.613 422.534C482.444 422.479 481.531 419.787 481.2 417.643C480.284 411.704 479.368 405.765 478.452 399.826C478.264 397.787 477.7 395.8 476.787 393.966C476.318 393.055 475.609 392.29 474.736 391.752C473.864 391.215 472.861 390.926 471.836 390.916L471.193 384.568" fill="black"/>
</g>
<path d="M475.276 359.539C475.254 359.666 477.553 360.05 481.128 361.181C485.773 362.695 490.292 364.571 494.644 366.791C499.762 369.363 504.242 371.993 507.452 373.947C508.851 374.802 510.109 375.571 511.251 376.27C511.698 376.588 512.18 376.853 512.687 377.063C512.3 376.674 511.87 376.331 511.405 376.039C510.552 375.42 509.3 374.548 507.721 373.52C503.611 370.825 499.351 368.366 494.963 366.153C490.582 363.907 485.997 362.08 481.272 360.697C479.839 360.279 478.382 359.95 476.908 359.712C476.372 359.592 475.825 359.535 475.276 359.539V359.539Z" fill="#FAFAFA"/>
<path d="M472.188 372.787C472.686 373.034 473.21 373.225 473.75 373.356C474.767 373.676 476.237 374.144 478.034 374.774C482.719 376.397 487.311 378.282 491.785 380.418C496.264 382.546 500.593 384.973 504.745 387.684C506.338 388.723 507.593 389.619 508.453 390.247C508.878 390.605 509.342 390.914 509.836 391.169C509.476 390.745 509.069 390.362 508.624 390.029C507.813 389.33 506.597 388.366 505.029 387.267C500.933 384.414 496.606 381.908 492.094 379.775C487.597 377.617 482.951 375.785 478.191 374.294C476.365 373.723 474.867 373.327 473.824 373.088C473.292 372.927 472.743 372.826 472.188 372.787V372.787Z" fill="#FAFAFA"/>
<path d="M354.139 343.381C355.22 343.76 356.33 344.055 357.457 344.263C360.122 344.926 362.745 345.749 365.312 346.727C367.872 347.721 370.371 348.867 372.795 350.161C373.771 350.761 374.792 351.286 375.848 351.729C375.007 350.939 374.064 350.265 373.045 349.722C368.276 346.841 363.036 344.825 357.565 343.77C356.445 343.49 355.293 343.359 354.139 343.381V343.381Z" fill="#FAFAFA"/>
<path d="M347.053 359.785C347.062 359.907 348.509 359.809 350.823 359.982C353.834 360.231 356.804 360.845 359.667 361.809C363.675 363.337 367.601 365.074 371.426 367.015C370.456 366.193 369.393 365.489 368.259 364.915C365.601 363.381 362.798 362.114 359.891 361.131C356.974 360.139 353.927 359.582 350.848 359.478C349.917 359.446 348.986 359.483 348.06 359.588C347.715 359.593 347.374 359.659 347.053 359.785V359.785Z" fill="#FAFAFA"/>
<path d="M398.767 186.764C390.527 191.17 386.596 201.412 387.625 207.719C388.144 210.899 389.323 214.147 388.465 217.252C387.724 219.935 385.601 221.965 383.957 224.211C381.281 228.024 379.852 232.573 379.865 237.231C379.879 241.889 381.334 246.429 384.031 250.227C386.879 253.914 390.798 256.628 395.25 257.998C399.702 259.368 404.47 259.326 408.897 257.877" fill="#1A2E35"/>
<path d="M391.014 227.315C375.083 183.812 422.166 166.133 446.451 175.024C469.275 183.38 478.342 195.741 480.997 211.631C483.653 227.528 482.188 244.416 474.945 258.814C471.374 265.914 465.378 272.949 457.437 273.267" fill="#1A2E35"/>
<path d="M454.765 312.856L466.033 208.111C466.223 206.129 465.662 204.149 464.462 202.561C463.262 200.973 461.509 199.893 459.551 199.534L418.297 185.714C404.935 183.268 394.721 199.175 392.843 212.629C390.759 227.576 388.802 245.908 389.732 257.249C391.602 280.054 408.655 284.231 408.655 284.231C408.67 284.129 407.317 304.117 406.177 322.734C406.133 323.452 406.266 324.17 406.565 324.824C406.863 325.479 407.317 326.05 407.888 326.488C408.459 326.926 409.128 327.218 409.838 327.337C410.547 327.455 411.275 327.398 411.957 327.17L454.765 312.856Z" fill="#FFBF9D"/>
<path d="M396.775 227.786C396.703 228.533 396.925 229.28 397.394 229.866C397.864 230.452 398.543 230.832 399.289 230.924C399.651 230.985 400.022 230.973 400.38 230.888C400.738 230.804 401.075 230.648 401.372 230.431C401.669 230.214 401.919 229.94 402.109 229.625C402.298 229.31 402.422 228.96 402.474 228.596C402.547 227.849 402.325 227.103 401.856 226.516C401.388 225.93 400.709 225.55 399.964 225.456C399.601 225.395 399.23 225.407 398.871 225.492C398.513 225.576 398.176 225.732 397.878 225.949C397.581 226.166 397.331 226.44 397.141 226.756C396.952 227.071 396.827 227.422 396.775 227.786V227.786Z" fill="#1A2E35"/>
<path d="M426.236 230.018C426.163 230.766 426.386 231.512 426.855 232.098C427.325 232.684 428.004 233.064 428.75 233.156C429.112 233.217 429.483 233.205 429.841 233.121C430.199 233.036 430.536 232.881 430.833 232.664C431.13 232.447 431.381 232.172 431.57 231.857C431.759 231.542 431.883 231.192 431.935 230.828C432.008 230.081 431.786 229.335 431.317 228.749C430.849 228.162 430.17 227.782 429.425 227.689C429.062 227.628 428.69 227.64 428.332 227.724C427.974 227.809 427.637 227.964 427.339 228.181C427.042 228.398 426.792 228.673 426.602 228.988C426.413 229.304 426.288 229.654 426.236 230.018V230.018Z" fill="#1A2E35"/>
<path d="M396.608 221.473C396.924 221.888 399.283 220.511 402.382 220.859C405.483 221.161 407.584 223.005 407.962 222.662C408.146 222.513 407.856 221.794 406.944 220.965C405.704 219.888 404.162 219.221 402.528 219.056C400.917 218.874 399.289 219.209 397.881 220.014C396.848 220.642 396.45 221.286 396.608 221.473Z" fill="#1A2E35"/>
<path d="M426.064 224.455C426.397 224.858 428.705 223.394 431.813 223.624C434.922 223.808 437.092 225.572 437.456 225.215C437.633 225.058 437.321 224.352 436.374 223.557C435.095 222.528 433.529 221.92 431.891 221.816C430.273 221.695 428.659 222.092 427.282 222.949C426.275 223.615 425.901 224.274 426.064 224.455Z" fill="#1A2E35"/>
<path d="M413.593 247.594C411.993 246.956 410.319 246.522 408.611 246.299C407.823 246.157 407.083 245.942 406.99 245.39C406.986 244.565 407.233 243.758 407.699 243.077C408.592 241.212 409.527 239.256 410.506 237.208C414.42 228.846 417.318 221.946 416.979 221.792C416.642 221.637 413.194 228.289 409.281 236.651C408.335 238.715 407.431 240.685 406.57 242.564C405.998 243.484 405.768 244.576 405.921 245.649C406.015 245.937 406.174 246.201 406.385 246.419C406.596 246.638 406.854 246.805 407.139 246.909C407.57 247.062 408.019 247.159 408.474 247.199C410.157 247.547 411.877 247.679 413.593 247.594V247.594Z" fill="#1A2E35"/>
<path d="M408.655 284.231C419.253 285.197 429.912 283.202 439.444 278.469C439.444 278.469 430.63 293.567 408.236 289.749L408.655 284.231Z" fill="#FF9A6C"/>
<path d="M423.202 254.334C423.173 255.775 422.777 257.185 422.053 258.431C421.329 259.677 420.299 260.718 419.061 261.456C418.177 262.011 417.191 262.383 416.16 262.549C415.129 262.714 414.076 262.669 413.063 262.417C412.086 262.175 411.207 261.639 410.545 260.88C409.883 260.122 409.469 259.178 409.361 258.178C409.45 257.046 409.875 255.966 410.582 255.078C411.288 254.189 412.244 253.532 413.327 253.19C415.574 252.468 417.943 252.198 420.295 252.398C420.946 252.375 421.596 252.474 422.21 252.69C422.505 252.792 422.763 252.98 422.952 253.229C423.14 253.478 423.25 253.777 423.268 254.089" fill="#1A2E35"/>
<path d="M425.64 219.838C425.883 220.706 429.019 220.541 432.633 221.257C436.263 221.901 439.124 223.192 439.666 222.47C439.909 222.124 439.457 221.29 438.329 220.381C436.817 219.257 435.069 218.492 433.218 218.145C431.366 217.797 429.46 217.876 427.643 218.375C426.263 218.813 425.539 219.426 425.64 219.838Z" fill="#1A2E35"/>
<path d="M397.93 213.576C398.423 214.324 400.621 213.753 403.2 213.914C405.784 213.984 407.921 214.749 408.48 214.048C408.727 213.706 408.437 212.973 407.535 212.232C406.315 211.333 404.856 210.818 403.342 210.75C401.829 210.682 400.329 211.065 399.034 211.851C398.069 212.508 397.715 213.213 397.93 213.576Z" fill="#1A2E35"/>
<path d="M459.93 237.345C460.272 237.21 472.397 232.911 471.512 246.413C470.626 259.914 457.254 256.24 457.256 255.851C457.258 255.463 459.93 237.345 459.93 237.345Z" fill="#FFBF9D"/>
<path d="M461.716 251.006C461.778 250.966 461.941 251.186 462.326 251.394C462.87 251.67 463.499 251.724 464.082 251.546C465.543 251.116 466.892 248.93 467.117 246.501C467.227 245.345 467.078 244.18 466.68 243.09C466.581 242.66 466.379 242.26 466.091 241.926C465.804 241.591 465.439 241.331 465.029 241.169C464.763 241.08 464.475 241.086 464.213 241.187C463.952 241.288 463.735 241.478 463.598 241.723C463.393 242.088 463.461 242.363 463.388 242.381C463.348 242.413 463.113 242.137 463.258 241.586C463.355 241.257 463.562 240.97 463.845 240.775C464.235 240.518 464.71 240.426 465.168 240.516C465.715 240.662 466.216 240.946 466.622 241.341C467.028 241.736 467.326 242.228 467.488 242.771C467.986 243.978 468.181 245.288 468.056 246.588C467.792 249.302 466.232 251.757 464.243 252.193C463.874 252.275 463.491 252.272 463.122 252.186C462.754 252.1 462.41 251.932 462.115 251.694C461.719 251.334 461.668 251.027 461.716 251.006Z" fill="#FF9A6C"/>
<path d="M414.321 178.58C406.521 181.89 402.267 197.012 404.777 205.104C407.287 213.196 415.365 217.669 423.48 220.102C431.386 222.67 439.808 223.225 447.982 221.717C448.134 227.233 450.989 233.101 456.189 234.947C463.075 237.393 470.65 231.492 472.754 224.494C474.858 217.496 473.07 209.99 471.277 202.906" fill="#1A2E35"/>
<path d="M470.132 232.047C469.806 232.401 469.431 232.705 469.018 232.951C467.959 233.713 466.861 234.418 465.728 235.063C464.036 236.051 462.202 236.773 460.29 237.203C457.899 237.765 455.39 237.537 453.138 236.556C450.934 235.463 449.154 233.671 448.075 231.46C447.202 229.693 446.684 227.772 446.551 225.805C446.451 224.498 446.479 223.184 446.635 221.882C446.653 221.4 446.748 220.924 446.919 220.473C447.067 220.481 446.751 222.522 447.101 225.75C447.304 227.626 447.851 229.449 448.713 231.127C449.751 233.171 451.419 234.826 453.47 235.848C455.574 236.759 457.91 236.986 460.15 236.497C462.004 236.111 463.794 235.464 465.467 234.576C468.353 233.061 470.061 231.93 470.132 232.047Z" fill="#1A2E35"/>
<path d="M474.012 199.072C473.958 199.084 473.857 198.313 473.368 197.023C472.641 195.214 471.546 193.576 470.153 192.212C468.084 190.192 465.612 188.632 462.898 187.633C459.545 186.467 456.089 185.623 452.576 185.114C446.159 184.118 439.875 182.405 433.84 180.008C431.53 179.082 429.704 178.227 428.46 177.606C427.835 177.301 427.359 177.045 427.038 176.87C426.868 176.792 426.707 176.694 426.559 176.58C426.739 176.628 426.914 176.697 427.08 176.784C427.46 176.955 427.943 177.172 428.539 177.439C429.805 178.007 431.645 178.813 433.963 179.695C440.006 181.99 446.272 183.649 452.658 184.646C456.201 185.16 459.684 186.024 463.056 187.225C465.815 188.262 468.318 189.883 470.393 191.977C471.793 193.389 472.868 195.089 473.542 196.959C473.72 197.466 473.854 197.987 473.944 198.516C473.988 198.698 474.011 198.885 474.012 199.072V199.072Z" fill="#375A64"/>
<path d="M476.795 250.571C476.817 250.595 477.032 250.436 477.43 250.104C477.999 249.598 478.523 249.043 478.996 248.447C480.761 246.168 481.919 243.478 482.362 240.63C483.013 236.251 482.27 231.778 480.239 227.845C479.055 225.463 477.54 223.26 475.74 221.302C473.817 218.991 471.167 217.399 468.223 216.786L468.678 217.528C469.632 214.514 469.687 211.286 468.835 208.241C467.983 205.196 466.262 202.466 463.882 200.384C460.63 197.892 456.736 196.376 452.655 196.013C448.817 195.464 445.162 195.147 441.757 194.344C435.667 193.195 430.007 190.406 425.386 186.277C422.334 183.427 420.129 179.789 419.014 175.764C418.674 174.268 418.431 172.752 418.288 171.225C418.2 171.619 418.164 172.024 418.182 172.428C418.187 173.586 418.315 174.74 418.564 175.872C419.537 180.065 421.702 183.887 424.798 186.878C429.468 191.221 435.256 194.176 441.512 195.412C444.978 196.261 448.722 196.61 452.478 197.165C456.338 197.513 460.022 198.941 463.108 201.287C465.308 203.217 466.904 205.743 467.702 208.56C468.5 211.377 468.467 214.364 467.607 217.163L467.386 217.807L468.062 217.905C470.759 218.468 473.19 219.919 474.965 222.026C476.718 223.895 478.203 225.998 479.377 228.276C481.381 232.026 482.18 236.303 481.665 240.524C481.3 243.289 480.281 245.928 478.693 248.221C477.56 249.809 476.73 250.503 476.795 250.571Z" fill="#375A64"/>
<path d="M408.897 284.108C408.897 284.108 406.396 318.102 404.527 335.458C403.892 341.352 403.095 347.514 399.681 352.36C394.08 360.312 381.661 362.181 373.78 356.48C365.899 350.779 363.697 338.706 368.785 330.416C370.573 327.504 373.218 324.165 371.705 321.1C370.991 319.995 370.12 319 369.119 318.146C364.448 313.151 365.9 305.03 368.904 298.886C369.482 297.314 370.619 296.01 372.097 295.222C373.794 294.552 375.759 295.233 377.516 294.742C381.346 293.669 381.603 288.506 382.467 284.623C383.732 278.934 388.229 272.88 393.997 272.045C393.997 272.045 399.619 281.336 408.897 284.108Z" fill="#1A2E35"/>
<path d="M369.139 316.069C368.101 313.518 367.453 310.825 367.215 308.081C367.069 305.125 367.628 302.177 368.846 299.48C370.351 296.193 372.766 293.404 375.805 291.445C377.383 290.405 379.239 289.755 380.82 288.527C381.63 287.925 382.277 287.129 382.702 286.213C383.067 285.342 383.268 284.41 383.293 283.466C383.233 281.889 383.352 280.311 383.648 278.761C384.085 277.498 384.831 276.364 385.82 275.464C387.647 273.729 389.378 272.448 390.306 271.296C390.856 270.756 391.26 270.086 391.483 269.348C391.394 269.297 390.987 269.99 389.969 270.979C388.968 272 387.236 273.116 385.24 274.854C384.098 275.82 383.226 277.064 382.707 278.466C382.337 280.082 382.167 281.737 382.199 283.395C382.206 284.212 382.019 285.019 381.656 285.751C381.292 286.483 380.761 287.119 380.105 287.607C378.733 288.672 376.889 289.323 375.164 290.442C371.932 292.523 369.386 295.512 367.845 299.034C366.605 301.899 366.1 305.029 366.376 308.138C366.553 310.213 367.088 312.241 367.957 314.134C368.223 314.849 368.625 315.506 369.139 316.069V316.069Z" fill="#375A64"/>
<path d="M382.936 359.606C383.003 359.501 381.866 358.859 380.191 357.272C377.869 354.992 376.123 352.193 375.096 349.106C373.524 344.552 373.758 339.569 375.749 335.183C378.002 330.232 382.534 326.101 386.772 321.309C388.889 318.963 390.66 316.326 392.031 313.479C393.321 310.766 393.841 307.75 393.533 304.762C393.21 301.935 392.382 299.426 391.98 297.05C391.579 294.86 391.586 292.616 392 290.429C392.607 287.232 394.002 284.238 396.058 281.718C397.536 279.944 398.589 279.172 398.517 279.084C398.492 279.051 398.218 279.224 397.714 279.587C396.995 280.138 396.324 280.749 395.709 281.414C393.439 283.909 391.875 286.963 391.176 290.263C390.684 292.548 390.626 294.905 391.007 297.211C391.385 299.681 392.172 302.204 392.443 304.874C392.7 307.665 392.191 310.473 390.97 312.996C389.631 315.734 387.915 318.27 385.873 320.531C381.726 325.235 377.083 329.483 374.753 334.725C372.696 339.364 372.534 344.624 374.301 349.381C375.432 352.554 377.352 355.387 379.879 357.614C380.564 358.208 381.303 358.736 382.087 359.19C382.625 359.498 382.915 359.641 382.936 359.606Z" fill="#375A64"/>
<path d="M472.875 394.583L464.224 311.916L439.573 322.055L437.57 406.291C437.57 406.291 445.675 418.184 459.004 413.069C462.82 411.603 466.145 409.091 468.599 405.821C471.052 402.552 472.534 398.657 472.875 394.583Z" fill="#FFBF9D"/>
<path d="M465.859 239.387L420.084 280.811L428.905 311.133L432.283 312.081L472.218 270.036L469.236 240.337L465.859 239.387Z" fill="#1A2E35"/>
<path d="M469.236 240.338L423.461 281.76L432.283 312.082L475.597 270.985L469.236 240.338Z" fill="#375A64"/>
<path d="M438.563 324.721C435.681 321.626 433.976 317.617 433.745 313.394C433.763 307.153 435.272 292.116 435.272 292.116C435.272 292.116 426.982 275.28 427.153 273.023C427.324 270.767 427.693 270.795 430.598 271.664C433.502 272.532 442.692 287.857 442.692 287.857L445.464 276.357C445.464 276.357 437.829 264.432 437.213 262.765C436.597 261.098 435.587 259.724 437.457 259.542C439.328 259.36 453.537 272.755 453.537 272.755L452.583 285.325C452.583 285.325 452.877 286.319 454.87 284.525C456.862 282.731 456.141 267.766 456.141 267.766C456.141 267.766 451.239 258.966 451.336 257.677C451.434 256.388 450.424 255.014 451.334 252.814C452.243 250.614 455.027 253.094 455.027 253.094L464.507 265.159L467.653 253.043C467.653 253.043 467.477 250.473 470.823 250.402L470.081 289.569L462.026 319.81L438.563 324.721Z" fill="#FFBF9D"/>
<path d="M437.571 406.29C437.571 406.29 437.634 405.789 437.68 404.814C437.721 403.779 437.777 402.344 437.848 400.5C437.965 396.652 438.133 391.108 438.346 384.055C438.711 369.789 439.232 349.431 439.862 324.794L439.868 324.557L439.665 324.387C437.655 322.697 436.086 320.544 435.092 318.113C434.138 315.515 433.778 312.736 434.039 309.98C434.252 304.244 434.88 298.27 435.592 292.166L435.611 292.002L435.539 291.853C433.978 288.649 432.415 285.35 430.892 281.966C430.136 280.272 429.381 278.558 428.685 276.812C428.342 275.94 428.006 275.057 427.738 274.179L427.563 273.528C427.533 273.348 427.513 273.165 427.503 272.983C427.514 272.58 427.586 272.18 427.717 271.799C427.624 271.527 428.903 271.789 429.729 272.063C430.135 272.152 430.513 272.338 430.832 272.604C431.191 272.888 431.525 273.203 431.83 273.544C433.126 274.987 434.328 276.511 435.429 278.108C437.704 281.318 439.859 284.7 441.954 288.144L442.7 289.371L443.036 287.978C443.915 284.336 444.859 280.424 445.811 276.479L445.87 276.235L445.734 276.019C444.508 274.077 443.188 271.985 441.861 269.882C440.385 267.463 438.764 264.977 437.566 262.598C437.314 261.929 436.973 261.241 436.804 260.677C436.71 260.368 436.761 260.233 436.768 260.26C436.936 260.161 437.133 260.12 437.328 260.144C437.564 260.232 437.791 260.342 438.006 260.472C438.285 260.621 438.57 260.839 438.851 261.019C439.41 261.411 439.967 261.824 440.511 262.254C444.858 265.723 448.935 269.477 452.904 273.163L452.723 272.694C452.403 276.946 452.089 281.136 451.779 285.263L451.77 285.381L451.801 285.471C451.882 285.696 452.038 285.886 452.242 286.009C452.446 286.133 452.686 286.183 452.923 286.151C453.208 286.114 453.483 286.023 453.734 285.883C454.138 285.656 454.516 285.385 454.86 285.074C455.51 284.36 455.92 283.461 456.033 282.502C456.319 280.843 456.483 279.165 456.525 277.481C456.652 274.172 456.6 270.929 456.463 267.722L456.458 267.597L456.393 267.479C454.662 264.486 453.118 261.39 451.77 258.207C451.717 258.056 451.678 257.902 451.654 257.745C451.637 257.607 451.66 257.257 451.621 257.046C451.562 256.568 451.452 256.15 451.376 255.751C451.198 255.007 451.215 254.23 451.423 253.494C451.667 252.669 451.915 252.33 452.547 252.435C453.255 252.621 453.907 252.975 454.449 253.467L454.386 253.4C457.688 257.585 460.856 261.6 463.889 265.445L464.504 266.224L464.751 265.264C465.829 261.07 466.868 257.029 467.867 253.142L467.883 253.081L467.881 252.994C467.877 252.675 467.949 252.359 468.093 252.073C468.237 251.788 468.447 251.541 468.706 251.354C469.274 250.999 469.932 250.818 470.602 250.832L470.145 250.377C469.909 266.309 469.713 279.523 469.564 289.546L469.573 289.482C467.818 296.702 466.459 302.289 465.524 306.137C465.091 307.987 464.757 309.416 464.517 310.442C464.299 311.411 464.226 311.915 464.226 311.915C464.226 311.915 464.399 311.437 464.665 310.48C464.939 309.462 465.321 308.045 465.815 306.21C466.811 302.378 468.258 296.813 470.128 289.621L470.136 289.591L470.137 289.556C470.367 279.535 470.672 266.324 471.039 250.394L471.05 249.928L470.583 249.938C469.734 249.921 468.898 250.156 468.182 250.612C467.793 250.888 467.478 251.255 467.265 251.682C467.053 252.108 466.949 252.581 466.963 253.057L466.976 252.911C465.958 256.794 464.899 260.829 463.8 265.017L464.661 264.837C461.634 260.969 458.483 256.941 455.207 252.755L455.173 252.711L455.143 252.687C454.457 252.056 453.62 251.611 452.713 251.394C452.427 251.337 452.132 251.349 451.852 251.429C451.572 251.509 451.315 251.656 451.103 251.856C450.76 252.236 450.52 252.698 450.403 253.197C450.146 254.095 450.119 255.044 450.325 255.955C450.409 256.39 450.511 256.799 450.554 257.168C450.583 257.382 450.563 257.461 450.577 257.748C450.597 258.017 450.653 258.281 450.743 258.535C452.1 261.792 453.664 264.96 455.425 268.018L455.356 267.776C455.484 270.943 455.528 274.18 455.395 277.434C455.352 279.058 455.191 280.677 454.914 282.278C454.838 282.985 454.559 283.655 454.111 284.207C453.832 284.46 453.526 284.682 453.198 284.868C453.081 284.934 452.954 284.981 452.822 285.006L452.792 285.005C452.785 285.047 452.773 285.087 452.757 285.126L452.738 285.158L452.725 285.167L452.686 285.187L452.618 285.218L452.601 285.225C452.324 285.333 452.955 285.083 452.894 285.115L452.904 285.144L452.926 285.351C453.242 281.224 453.563 277.034 453.888 272.782L453.91 272.502L453.706 272.312C449.717 268.599 445.657 264.85 441.24 261.322C440.686 260.882 440.114 260.456 439.524 260.043C439.213 259.844 438.938 259.629 438.596 259.443C438.217 259.194 437.789 259.028 437.341 258.958C437.087 258.935 436.832 258.963 436.59 259.042C436.348 259.121 436.124 259.248 435.933 259.416C435.748 259.63 435.625 259.89 435.577 260.169C435.529 260.447 435.557 260.733 435.66 260.997C435.905 261.788 436.215 262.369 436.458 263.029C437.808 265.727 439.344 268.026 440.852 270.511L444.733 276.66L444.656 276.2C443.706 280.146 442.763 284.058 441.886 287.701L442.968 287.536C440.852 284.061 438.691 280.677 436.384 277.428C435.249 275.787 434.009 274.222 432.672 272.74C432.326 272.356 431.946 272.002 431.539 271.682C431.102 271.335 430.596 271.085 430.055 270.949C429.57 270.801 429.078 270.678 428.581 270.581C428.279 270.519 427.968 270.509 427.663 270.552C427.457 270.587 427.263 270.669 427.094 270.792C426.926 270.916 426.789 271.076 426.694 271.262C426.483 271.78 426.368 272.331 426.354 272.89C426.356 273.185 426.384 273.479 426.437 273.769L426.634 274.504C426.926 275.451 427.27 276.347 427.621 277.236C428.331 279.008 429.094 280.73 429.858 282.432C431.395 285.831 432.968 289.129 434.544 292.343L434.491 292.032C433.792 298.17 433.181 304.14 432.984 309.949C432.728 312.85 433.124 315.772 434.143 318.5C435.213 321.096 436.905 323.389 439.069 325.179L438.872 324.772C438.416 349.414 438.04 369.774 437.776 384.043C437.679 391.098 437.602 396.644 437.549 400.493C437.54 402.339 437.533 403.775 437.527 404.811C437.531 405.787 437.571 406.29 437.571 406.29Z" fill="#FF9A6C"/>
<path d="M462.867 286.427C463.194 286.457 463.771 281.656 464.155 275.704C464.539 269.75 464.584 264.916 464.256 264.904C463.928 264.893 463.351 269.693 462.968 275.628C462.585 281.56 462.54 286.396 462.867 286.427Z" fill="#FF9A6C"/>
<path d="M191.693 303.791C191.693 303.791 207.052 297.192 214.987 295.694C222.921 294.197 278.349 279.908 278.349 279.908L221.137 230.88L233.758 215.523C233.758 215.523 276.255 240.883 306.47 261.093C306.669 261.206 306.858 261.335 307.035 261.48C324.219 275.002 318.201 298.57 300.562 309.635C291.778 315.146 253.269 331.758 245.801 335.395C230.889 342.657 231.124 342.414 231.124 342.414L191.693 303.791Z" fill="#F8A35B"/>
<path d="M181.326 190.788L178.696 188.281L150.282 199.732C148.299 199.842 146.43 200.692 145.043 202.114C143.656 203.536 142.853 205.426 142.793 207.411L143.043 299.99C142.732 305.975 144.504 311.883 148.055 316.71L152.046 321.978C161.145 333.991 179.862 333.003 187.065 319.767C187.502 319.015 187.84 318.21 188.07 317.372C188.25 316.691 188.391 316 188.493 315.302C189.339 307.854 189.387 301.395 189.387 301.395C189.893 293.218 190.06 289.862 190.062 289.938C190.062 289.938 207.465 287.938 212.169 265.599C214.509 254.489 214.068 239.205 213.41 224.162C212.5 203.344 198.06 190.767 181.326 190.788Z" fill="#FFBF9D"/>
<path d="M179.568 239.013C179.538 239.767 179.215 240.478 178.667 240.996C178.12 241.515 177.391 241.798 176.638 241.787C176.269 241.798 175.901 241.735 175.557 241.602C175.213 241.469 174.899 241.268 174.634 241.011C174.369 240.755 174.157 240.448 174.013 240.108C173.868 239.769 173.793 239.404 173.791 239.035C173.822 238.282 174.144 237.571 174.691 237.052C175.238 236.534 175.965 236.249 176.719 236.259C177.088 236.248 177.456 236.311 177.8 236.444C178.144 236.578 178.459 236.779 178.724 237.035C178.99 237.292 179.201 237.599 179.346 237.939C179.491 238.279 179.567 238.644 179.568 239.013V239.013Z" fill="#1A2E35"/>
<path d="M207.762 239.816C207.731 240.569 207.408 241.281 206.86 241.799C206.313 242.317 205.585 242.601 204.831 242.59C204.462 242.601 204.095 242.538 203.751 242.405C203.407 242.271 203.093 242.07 202.827 241.814C202.562 241.557 202.351 241.25 202.206 240.911C202.061 240.571 201.986 240.206 201.984 239.837C202.015 239.085 202.338 238.373 202.884 237.855C203.431 237.337 204.159 237.052 204.912 237.062C205.281 237.051 205.649 237.114 205.993 237.247C206.338 237.38 206.652 237.581 206.918 237.838C207.183 238.095 207.395 238.402 207.54 238.742C207.685 239.081 207.76 239.447 207.762 239.816V239.816Z" fill="#1A2E35"/>
<path d="M210.089 230.574C209.679 230.895 207.747 228.972 204.668 228.527C201.598 228.039 199.105 229.291 198.827 228.864C198.687 228.673 199.148 228.053 200.237 227.481C201.705 226.754 203.362 226.499 204.98 226.75C206.582 226.98 208.069 227.714 209.227 228.845C210.066 229.711 210.288 230.432 210.089 230.574Z" fill="#1A2E35"/>
<path d="M179.381 229.079C179.049 229.481 176.746 228.021 173.645 228.252C170.542 228.437 168.379 230.198 168.015 229.842C167.838 229.685 168.15 228.981 169.094 228.187C170.369 227.16 171.932 226.552 173.567 226.448C175.18 226.327 176.791 226.722 178.165 227.577C179.169 228.241 179.544 228.898 179.381 229.079Z" fill="#1A2E35"/>
<path d="M189.758 253.056C191.421 252.626 193.132 252.405 194.851 252.399C195.648 252.356 196.407 252.236 196.568 251.702C196.677 250.885 196.533 250.056 196.157 249.323C195.507 247.365 194.825 245.312 194.112 243.163C191.285 234.396 189.28 227.203 189.634 227.093C189.988 226.982 192.568 233.998 195.396 242.765C196.073 244.925 196.721 246.989 197.339 248.956C197.79 249.938 197.881 251.049 197.594 252.091C197.465 252.365 197.275 252.606 197.039 252.796C196.803 252.986 196.527 253.119 196.231 253.186C195.786 253.283 195.33 253.324 194.874 253.306C193.165 253.44 191.446 253.356 189.758 253.056V253.056Z" fill="#1A2E35"/>
<path d="M190.062 289.939C179.45 289.569 169.149 286.261 160.307 280.383C160.307 280.383 167.108 296.351 189.752 295.374L190.062 289.939Z" fill="#FF9A6C"/>
<path d="M168.632 222.56C168.983 223.214 171.581 222.412 174.73 222.224C177.88 221.974 180.495 222.413 180.826 221.711C180.971 221.378 180.451 220.797 179.352 220.298C177.855 219.683 176.269 219.435 174.69 219.57C173.086 219.663 171.513 220.13 170.061 220.944C168.98 221.595 168.477 222.247 168.632 222.56Z" fill="#1A2E35"/>
<path d="M208.718 222.163C208.114 222.713 205.853 222.026 203.109 221.887C200.37 221.676 198.025 222.069 197.513 221.447C197.289 221.146 197.677 220.587 198.712 220.084C200.164 219.459 201.74 219.199 203.309 219.328C204.869 219.395 206.39 219.853 207.741 220.661C208.689 221.29 208.985 221.893 208.718 222.163Z" fill="#1A2E35"/>
<path d="M147.283 245.458C147.363 243.781 145.622 239.73 143.979 239.388C139.591 238.477 131.602 238.433 130.965 249.661C130.094 265.009 145.683 262.717 145.735 262.278C145.776 261.936 147.006 251.249 147.283 245.458Z" fill="#FFBF9D"/>
<path d="M141.377 256.198C141.312 256.145 141.099 256.37 140.636 256.551C139.984 256.787 139.267 256.761 138.634 256.479C137.046 255.792 135.828 253.14 135.91 250.37C135.945 249.051 136.275 247.757 136.875 246.583C137.046 246.112 137.329 245.689 137.7 245.352C138.071 245.014 138.518 244.772 139.003 244.646C139.315 244.582 139.639 244.629 139.92 244.779C140.2 244.929 140.42 245.173 140.54 245.467C140.721 245.909 140.606 246.21 140.686 246.24C140.726 246.281 141.03 246.002 140.942 245.362C140.878 244.976 140.684 244.625 140.393 244.365C139.988 244.022 139.465 243.851 138.936 243.89C138.299 243.979 137.695 244.23 137.183 244.619C136.67 245.008 136.266 245.522 136.008 246.112C135.28 247.404 134.878 248.854 134.839 250.337C134.762 253.436 136.18 256.419 138.363 257.187C138.768 257.33 139.201 257.38 139.628 257.334C140.055 257.287 140.466 257.146 140.832 256.919C141.328 256.568 141.428 256.229 141.377 256.198Z" fill="#FF9A6C"/>
<path d="M142.339 299.99L142.281 299.971L142.339 299.99Z" fill="#375A64"/>
<path d="M142.279 299.971L142.125 299.92L142.279 299.971Z" fill="#375A64"/>
<path d="M235.566 545.497L235.716 426.951L233.982 363.207C233.44 352.216 232.632 336.143 232.632 336.143C225.453 313.687 202.628 294.727 202.628 294.727L189.674 296.662C189.177 310.677 167.788 323.405 152.405 314.115C146.716 310.032 142.337 299.99 142.337 299.99L116.195 312.631L134.146 440.931C134.146 440.931 133.974 473.964 133.974 494.019L235.566 545.497Z" fill="#F8A35B"/>
<path d="M142.126 299.919L141.977 299.869L142.126 299.919Z" fill="#375A64"/>
<path d="M141.976 299.87C141.86 299.831 141.886 299.84 141.976 299.87V299.87Z" fill="#375A64"/>
<path d="M167.16 357.397C203.345 357.397 232.68 357.024 232.68 356.564C232.68 356.103 203.345 355.73 167.16 355.73C130.975 355.73 101.641 356.103 101.641 356.564C101.641 357.024 130.975 357.397 167.16 357.397Z" fill="white"/>
<path d="M168.848 374.059C205.033 374.059 234.367 373.686 234.367 373.226C234.367 372.766 205.033 372.393 168.848 372.393C132.662 372.393 103.328 372.766 103.328 373.226C103.328 373.686 132.662 374.059 168.848 374.059Z" fill="white"/>
<g opacity="0.3">
<path opacity="0.3" d="M132.396 425.62C135.611 433.825 141.926 441.048 150.192 444.1C158.458 447.152 168.619 445.427 174.563 438.923C178.213 434.929 180.043 429.606 181.204 424.322C182.156 419.662 182.871 414.956 183.346 410.223C186.115 386.227 188.13 361.99 185.912 337.938L182.631 310.172L173.152 315.516L168.749 414.408L132.396 425.62Z" fill="black"/>
</g>
<path d="M189.93 296.161C189.93 296.161 208.978 291.377 224.466 290.966L252.019 286.428L254.541 330.378L230.05 346.097L189.93 296.161Z" fill="#F8A35B"/>
<path d="M231.207 309.154C231.23 309.254 231.244 309.355 231.246 309.457L231.316 310.348C231.369 311.16 231.444 312.309 231.54 313.775C231.731 316.752 231.958 321.063 232.231 326.39C232.766 337.043 233.392 351.766 233.987 368.03C234.583 384.299 235.046 399.029 235.345 409.692C235.48 415.002 235.591 419.309 235.667 422.319C235.694 423.789 235.714 424.94 235.729 425.753L235.733 426.647C235.738 426.749 235.733 426.851 235.718 426.952C235.697 426.852 235.686 426.75 235.686 426.648L235.637 425.756C235.602 424.943 235.553 423.793 235.49 422.325C235.378 419.316 235.219 415.011 235.022 409.702C234.64 399.018 234.113 384.304 233.531 368.047C232.898 351.798 232.325 337.087 231.909 326.405C231.679 321.098 231.493 316.793 231.362 313.785C231.303 312.317 231.257 311.166 231.224 310.353L231.2 309.459C231.192 309.358 231.194 309.256 231.207 309.154V309.154Z" fill="#1A2E35"/>
<path d="M145.38 373.279L105.807 387.234C105.807 387.234 87.031 322.432 116.069 312.631C117.18 318.928 119.297 325.006 122.336 330.631L145.38 373.279Z" fill="#F8A35B"/>
<path d="M105.262 386.483C114.476 407.905 131.997 429.648 142.794 433.626C158.883 439.554 172.2 436.607 178.365 416.992C184.53 397.377 180.579 310.236 180.579 310.236L153.757 308.697L148.79 383.775C148.79 383.775 145.827 377.946 140.612 368.747" fill="#F8A35B"/>
<path d="M105.262 386.483C114.476 407.905 131.997 429.648 142.794 433.626C158.883 439.554 172.2 436.607 178.365 416.992C184.53 397.377 180.579 310.236 180.579 310.236L153.757 308.697L148.79 383.775C148.79 383.775 145.827 377.946 140.612 368.747" stroke="black" stroke-width="0.52839" stroke-miterlimit="10"/>
<path d="M292.852 283.715C292.066 283.832 291.269 283.845 290.48 283.753C286.647 283.498 282.914 282.424 279.531 280.606C278.813 280.265 278.144 279.831 277.541 279.314C278.273 279.604 278.986 279.939 279.677 280.318C283.089 281.951 286.75 283.004 290.509 283.431C291.295 283.477 292.077 283.572 292.852 283.715V283.715Z" fill="#FF9A6C"/>
<path d="M213.716 224.17C213.821 227.12 218.14 217.312 216.666 214.723C217.731 215.009 218.842 215.082 219.936 214.937C221.029 214.792 222.083 214.432 223.036 213.878C223.99 213.324 224.824 212.586 225.492 211.708C226.159 210.83 226.645 209.828 226.924 208.761C227.053 207.674 226.961 206.573 226.652 205.523C226.343 204.473 225.825 203.497 225.128 202.653C224.431 201.81 223.571 201.116 222.598 200.615C221.625 200.114 220.561 199.815 219.47 199.737C220.296 198.437 220.649 196.893 220.469 195.364C220.288 193.835 219.586 192.415 218.48 191.343C217.169 190.408 215.666 189.779 214.08 189.501C214.19 187.691 213.82 185.885 213.006 184.264C211.282 180.718 205.971 172.753 202 171.883C200.012 171.459 197.955 171.472 195.972 171.92C193.989 172.367 192.127 173.24 190.513 174.477C189.254 172.746 187.606 171.336 185.702 170.36C183.797 169.384 181.69 168.87 179.55 168.86C177.41 168.849 175.297 169.342 173.383 170.298C171.469 171.255 169.806 172.649 168.53 174.367C166.595 173.175 164.39 172.493 162.121 172.383C159.851 172.273 157.59 172.74 155.55 173.74C153.026 175.039 151.013 177.151 149.836 179.735C147.977 178.685 145.835 178.246 143.712 178.478C141.59 178.71 139.593 179.602 138.005 181.028C136.925 182.399 135.744 183.687 134.473 184.881C132.685 185.864 130.806 186.674 128.863 187.299C127.52 187.996 126.35 188.986 125.439 190.196C124.529 191.406 123.902 192.804 123.605 194.289C123.308 195.773 123.348 197.305 123.721 198.772C124.095 200.239 124.794 201.603 125.766 202.764C123.537 204.213 121.556 206.01 119.897 208.086C119.086 209.113 118.541 210.323 118.31 211.611C118.079 212.898 118.17 214.222 118.574 215.466C119.739 218.376 123.072 220.095 124.205 223.015C124.729 224.365 124.731 225.857 125.221 227.219C126.047 229.517 129.832 236.233 132.181 237.221C133.373 243.141 137.562 244.896 137.611 246.623C138.133 264.78 146.317 254.552 151.749 216.521C153.025 207.592 149.797 202.892 157.372 197.649C158.297 198.824 159.154 200.05 159.939 201.322C164.009 206.908 173.613 207.592 178.495 202.644C179.331 204.079 180.483 205.306 181.864 206.23C183.244 207.154 184.817 207.751 186.463 207.976C188.123 208.192 189.81 208.033 191.4 207.512C192.99 206.991 194.443 206.119 195.652 204.963C198.283 207.396 204.46 211.572 209.423 207.55C212.111 212.687 213.581 218.374 213.716 224.17V224.17Z" fill="#1A2E35"/>
<path d="M124.682 246.947C132.097 256.767 151.403 285.189 159.267 295.361C160.925 297.505 165.752 296.712 167.882 295.036C172.947 291.05 181.819 284.126 187.111 280.329C187.643 279.948 188.092 279.463 188.433 278.905C188.774 278.346 188.999 277.724 189.094 277.077C189.189 276.429 189.153 275.769 188.988 275.136C188.823 274.503 188.532 273.909 188.133 273.391L150.52 224.531C150.109 223.996 149.59 223.553 148.998 223.228C148.406 222.904 147.753 222.706 147.081 222.648C146.408 222.589 145.731 222.67 145.092 222.886C144.452 223.103 143.865 223.449 143.366 223.905L125.29 240.41C124.392 241.228 123.832 242.352 123.72 243.561C123.608 244.77 123.951 245.978 124.682 246.947V246.947Z" fill="#375A64"/>
<path d="M180.579 310.268L180.578 310.238L184.536 278.394C184.536 278.394 187.323 268.905 186.919 268.026C186.514 267.146 183.171 265.168 181.875 267.146C180.578 269.125 177.94 272.863 177.94 272.863L178.6 264.068C178.6 264.068 181.018 260.551 180.358 258.792C179.699 257.033 176.181 255.494 174.202 257.033C172.224 258.572 168.486 270.884 168.486 270.884L170.023 256.665L174.082 253.826C174.518 253.524 174.85 253.096 175.036 252.6C175.221 252.103 175.251 251.562 175.12 251.049C174.99 250.535 174.706 250.074 174.306 249.726C173.906 249.379 173.409 249.161 172.883 249.104L172.791 249.097C169.713 248.877 165.156 249.821 163.837 251.8C162.518 253.778 159.033 268.685 159.033 268.685L156.918 240.336C156.918 240.336 155.394 237.471 153.823 237.471C152.801 237.489 151.819 237.872 151.053 238.55C150.288 239.227 149.789 240.156 149.647 241.168C149.478 243.572 148.491 260.906 148.491 260.906C148.491 265.523 148.301 279.31 148.301 279.31L141.389 271.288C141.389 271.288 141.664 282.756 142.763 286.713C143.82 290.516 152.99 307.299 153.707 308.608C162.589 310.033 171.589 310.589 180.579 310.268V310.268Z" fill="#FFBF9D"/>
<path d="M153.705 308.607L153.755 308.697L148.787 383.775L153.072 395.302L181.823 356.084L180.578 310.267C171.588 310.588 162.588 310.032 153.705 308.607V308.607Z" fill="#F8A35B"/>
<path d="M181.824 356.084C181.824 356.084 181.803 355.817 181.782 355.293C181.763 354.76 181.736 353.983 181.699 352.962C181.634 350.9 181.539 347.866 181.416 343.937C181.186 336.059 180.852 324.601 180.434 310.24L180.433 310.23L180.435 310.219C181.594 300.803 182.91 290.117 184.357 278.371L184.359 278.357L184.363 278.342C184.874 276.576 185.375 274.772 185.844 272.931C186.076 272.011 186.306 271.081 186.499 270.14C186.596 269.67 186.682 269.197 186.742 268.724C186.769 268.517 186.77 268.307 186.744 268.099C186.63 267.913 186.484 267.749 186.314 267.612C185.585 266.998 184.692 266.612 183.746 266.501C183.292 266.448 182.834 266.559 182.456 266.816C182.105 267.142 181.806 267.518 181.567 267.933C180.425 269.593 179.27 271.274 178.101 272.975L177.689 273.575L177.743 272.847C177.945 270.126 178.169 267.112 178.397 264.052L178.401 264L178.432 263.952C179.05 263.037 179.559 262.052 179.948 261.019C180.145 260.514 180.25 259.979 180.26 259.437C180.237 258.914 180.011 258.419 179.63 258.059C178.841 257.281 177.817 256.784 176.718 256.646C176.183 256.534 175.628 256.58 175.119 256.778C174.61 256.975 174.169 257.316 173.85 257.759C173.229 258.734 172.699 259.766 172.269 260.839C171.814 261.919 171.383 263.017 170.977 264.133C170.16 266.36 169.407 268.639 168.693 270.945L168.271 270.859C168.752 266.394 169.274 261.553 169.803 256.64L169.814 256.54L169.896 256.482C171.17 255.591 172.45 254.695 173.736 253.795C174.054 253.617 174.327 253.369 174.536 253.071C174.745 252.772 174.883 252.43 174.942 252.071C175 251.711 174.976 251.343 174.873 250.994C174.769 250.645 174.588 250.324 174.343 250.054C174.087 249.789 173.776 249.585 173.431 249.454C173.087 249.324 172.718 249.271 172.351 249.299C171.565 249.276 170.78 249.311 170 249.406C168.428 249.56 166.898 249.999 165.483 250.7C164.791 251.031 164.221 251.573 163.855 252.247C163.528 252.975 163.248 253.722 163.016 254.485C162.523 256.023 162.082 257.59 161.657 259.166C160.809 262.319 160.016 265.514 159.254 268.736L158.915 270.172L158.805 268.701C158.52 264.878 158.214 260.779 157.906 256.652C157.496 251.164 157.091 245.731 156.69 240.352L156.716 240.442C156.243 239.536 155.594 238.734 154.806 238.082C154.391 237.832 153.912 237.705 153.427 237.718C152.942 237.731 152.471 237.882 152.069 238.154C151.165 238.577 150.454 239.326 150.079 240.251C149.92 240.724 149.839 241.22 149.841 241.719L149.749 243.272C149.507 247.409 149.266 251.503 149.028 255.555C148.924 257.58 148.758 259.592 148.706 261.597C148.684 263.602 148.663 265.596 148.642 267.577C148.6 271.54 148.558 275.451 148.517 279.311L148.511 279.884L148.137 279.45C145.797 276.732 143.493 274.057 141.228 271.426L141.6 271.282C141.704 274.843 141.876 278.357 142.207 281.793C142.336 283.492 142.608 285.178 143.018 286.831C143.588 288.41 144.248 289.953 144.996 291.455C147.909 297.472 150.969 303.164 153.92 308.607L153.946 308.656L153.943 308.71C151.6 343.338 149.804 369.882 148.864 383.78L148.859 383.748C150.277 387.609 151.336 390.493 152.044 392.421C152.39 393.376 152.649 394.093 152.826 394.58C152.997 395.06 153.073 395.302 153.073 395.302C153.073 395.302 152.972 395.069 152.789 394.594C152.604 394.11 152.333 393.397 151.971 392.448C151.247 390.526 150.165 387.651 148.717 383.801L148.711 383.786L148.713 383.77C149.611 369.869 151.328 343.32 153.569 308.685L153.591 308.788C150.628 303.343 147.562 297.658 144.633 291.628C143.874 290.109 143.204 288.546 142.628 286.948C142.207 285.269 141.929 283.559 141.795 281.834C141.46 278.38 141.284 274.865 141.176 271.292L141.158 270.696L141.549 271.149C143.819 273.782 146.125 276.454 148.464 279.167L148.084 279.305C148.123 275.445 148.162 271.532 148.202 267.567C148.222 265.585 148.242 263.591 148.262 261.584C148.313 259.579 148.478 257.564 148.581 255.537C148.818 251.483 149.057 247.385 149.299 243.243L149.389 241.688C149.391 241.145 149.48 240.606 149.655 240.093C150.07 239.06 150.86 238.222 151.867 237.748C152.359 237.499 152.89 237.337 153.438 237.267C153.728 237.223 154.024 237.242 154.306 237.323C154.581 237.409 154.84 237.541 155.072 237.713C155.917 238.405 156.613 239.26 157.118 240.228L157.14 240.267L157.144 240.318C157.545 245.693 157.951 251.126 158.361 256.618C158.669 260.745 158.974 264.844 159.259 268.667L158.81 268.632C159.574 265.404 160.369 262.208 161.219 259.047C161.645 257.467 162.087 255.897 162.585 254.345C162.825 253.559 163.115 252.789 163.454 252.04C163.862 251.286 164.496 250.679 165.267 250.305C166.732 249.575 168.318 249.12 169.947 248.96C170.75 248.863 171.559 248.826 172.367 248.851C172.794 248.826 173.221 248.894 173.619 249.049C174.017 249.205 174.377 249.445 174.674 249.753C174.961 250.072 175.173 250.451 175.296 250.863C175.419 251.275 175.449 251.708 175.383 252.133C175.316 252.557 175.153 252.96 174.907 253.312C174.655 253.647 174.345 253.934 173.991 254.159L170.15 256.845L170.243 256.687C169.71 261.6 169.185 266.44 168.701 270.906L168.279 270.82C168.998 268.502 169.754 266.223 170.577 263.986C170.984 262.866 171.418 261.762 171.88 260.673C172.323 259.571 172.868 258.513 173.51 257.513C173.684 257.254 173.896 257.022 174.138 256.824C174.392 256.642 174.668 256.496 174.961 256.39C175.543 256.198 176.162 256.144 176.769 256.232C177.964 256.383 179.076 256.926 179.93 257.775C180.38 258.21 180.645 258.801 180.671 259.426C180.663 260.018 180.549 260.604 180.335 261.155C179.932 262.222 179.406 263.238 178.766 264.182L178.801 264.083C178.57 267.142 178.342 270.155 178.136 272.876L177.779 272.748C178.947 271.052 180.103 269.376 181.245 267.72L181.672 267.1C181.823 266.871 182.012 266.67 182.23 266.505C182.682 266.196 183.23 266.059 183.774 266.12C184.801 266.238 185.77 266.657 186.559 267.325C186.801 267.467 186.988 267.687 187.089 267.948C187.19 268.21 187.199 268.498 187.115 268.766C187.052 269.259 186.963 269.74 186.865 270.215C186.668 271.167 186.435 272.098 186.201 273.022C185.727 274.869 185.223 276.673 184.707 278.444L184.713 278.415C183.241 290.158 181.901 300.841 180.721 310.254L180.722 310.233C181.084 324.594 181.373 336.054 181.572 343.933C181.662 347.863 181.732 350.897 181.78 352.96L181.823 355.292C181.83 355.816 181.824 356.084 181.824 356.084Z" fill="#FF9A6C"/>
<path d="M148.789 295.361C148.63 294.331 148.547 293.291 148.541 292.248C148.446 290.322 148.346 287.66 148.264 284.72C148.182 281.778 148.133 279.115 148.12 277.186C148.068 276.145 148.093 275.102 148.195 274.064C148.354 275.095 148.437 276.137 148.443 277.18C148.538 279.106 148.638 281.767 148.72 284.707C148.802 287.646 148.851 290.309 148.863 292.237C148.916 293.279 148.891 294.323 148.789 295.361Z" fill="#FF9A6C"/>
<path d="M221.477 230.999L213.446 225.019L212.41 216.55C212.41 216.55 200.208 216.865 199.461 210.327C199.461 210.327 192.425 212.195 192.767 205.283C192.767 205.283 189.187 202.855 190.494 200.613C191.802 198.371 201.909 195.037 202.47 194.85C203.03 194.663 209.638 193.266 209.638 193.266L207.68 191.086L202.45 191.646C200.816 193.214 198.83 194.367 196.659 195.009C194.044 195.382 193.857 194.262 193.857 194.262C193.857 194.262 190.868 191.086 194.791 187.91C198.147 185.346 202.165 183.791 206.373 183.427C208.988 183.24 212.494 188.28 212.494 188.28L215.339 193.328C215.339 193.328 220.944 192.58 222.812 196.877V199.866C224.129 199.783 225.433 200.169 226.493 200.955C227.553 201.742 228.3 202.878 228.603 204.162L229.723 208.459C229.723 208.459 234.58 214.81 234.767 217.426" fill="#FFBF9D"/>
<path d="M234.77 217.426C234.751 217.428 234.73 217.194 234.611 216.762C234.408 216.128 234.149 215.513 233.837 214.924C232.61 212.683 231.205 210.544 229.636 208.528L229.622 208.51L229.616 208.487C229.275 207.203 228.89 205.756 228.476 204.196L228.479 204.206C228.105 203.052 227.429 202.02 226.522 201.216C225.494 200.356 224.172 199.928 222.836 200.025L222.654 200.04L222.654 199.866L222.645 196.877L222.659 196.944C222.09 195.668 221.054 194.659 219.764 194.124C218.371 193.562 216.86 193.352 215.367 193.515L215.238 193.528L215.177 193.421C214.283 191.841 213.316 190.134 212.322 188.379L212.332 188.394C211.713 187.536 211.034 186.722 210.3 185.959C209.569 185.167 208.716 184.498 207.774 183.974C207.308 183.732 206.785 183.619 206.26 183.649C205.706 183.692 205.149 183.775 204.592 183.87C203.464 184.072 202.352 184.354 201.265 184.715C199.012 185.437 196.903 186.551 195.036 188.005C194.068 188.689 193.368 189.69 193.059 190.834C192.967 191.417 193.006 192.013 193.173 192.579C193.34 193.145 193.631 193.667 194.024 194.106L194.062 194.151L194.083 194.224C194.151 194.357 194.248 194.473 194.367 194.563C194.486 194.652 194.624 194.714 194.771 194.742C195.121 194.834 195.484 194.871 195.846 194.854C196.605 194.832 197.352 194.665 198.048 194.362C199.484 193.69 200.814 192.81 201.994 191.751L202.296 191.48L202.355 191.427L202.428 191.419C204.19 191.231 205.933 191.044 207.658 190.86L207.774 190.847L207.852 190.934C208.509 191.666 209.161 192.393 209.809 193.115L210.068 193.404L209.687 193.488C207.388 193.995 205.122 194.494 202.891 194.985C200.744 195.645 198.632 196.412 196.563 197.283C195.544 197.702 194.555 198.154 193.595 198.64C192.644 199.082 191.761 199.658 190.974 200.352C190.64 200.693 190.446 201.147 190.43 201.625C190.438 202.109 190.577 202.581 190.834 202.992C191.372 203.827 192.068 204.548 192.884 205.114L192.969 205.176L192.973 205.293C192.989 205.727 192.966 206.164 193.011 206.588C193.056 207.007 193.15 207.42 193.292 207.817C193.537 208.602 194.06 209.271 194.764 209.697C196.207 210.412 197.862 210.573 199.416 210.148L199.627 210.102L199.648 210.306C199.735 210.999 199.966 211.667 200.326 212.266C200.686 212.865 201.167 213.383 201.738 213.786C202.82 214.562 204.033 215.136 205.319 215.482C207.628 216.116 210.014 216.428 212.409 216.409L212.538 216.409L212.553 216.533C212.947 219.888 213.276 222.685 213.549 225.006L213.508 224.936C215.681 226.547 217.355 227.788 218.504 228.64C219.053 229.054 219.476 229.373 219.779 229.602C220.063 229.82 220.199 229.941 220.199 229.941C220.199 229.941 220.041 229.849 219.747 229.645C219.437 229.427 219.004 229.122 218.442 228.726C217.28 227.892 215.587 226.677 213.388 225.1L213.353 225.075L213.347 225.031C213.053 222.713 212.698 219.919 212.273 216.567L212.416 216.691C209.99 216.73 207.57 216.429 205.227 215.798C203.899 215.449 202.645 214.862 201.526 214.066C200.914 213.636 200.398 213.083 200.012 212.443C199.625 211.803 199.376 211.09 199.279 210.348L199.511 210.506C198.701 210.698 197.867 210.773 197.036 210.728C196.167 210.699 195.318 210.459 194.561 210.03C193.779 209.56 193.195 208.822 192.917 207.953C192.763 207.527 192.66 207.083 192.61 206.633C192.561 206.184 192.582 205.729 192.566 205.273L192.655 205.452C191.787 204.854 191.046 204.089 190.476 203.202C190.178 202.726 190.017 202.178 190.01 201.617C190.027 201.033 190.262 200.477 190.669 200.058C191.486 199.328 192.405 198.721 193.398 198.257C194.37 197.763 195.369 197.304 196.394 196.88C198.473 196.001 200.595 195.227 202.752 194.56C204.996 194.063 207.277 193.558 209.593 193.045L209.471 193.418C208.823 192.696 208.171 191.97 207.514 191.238L207.707 191.312C205.982 191.497 204.239 191.684 202.477 191.873L202.609 191.813L202.294 192.095C201.078 193.186 199.707 194.091 198.226 194.781C197.478 195.106 196.675 195.285 195.859 195.308C195.448 195.327 195.037 195.283 194.639 195.176C194.411 195.129 194.198 195.024 194.022 194.87C193.846 194.716 193.713 194.52 193.636 194.299L193.694 194.417C193.251 193.925 192.925 193.339 192.739 192.704C192.552 192.069 192.511 191.4 192.618 190.747C192.767 190.113 193.042 189.516 193.427 188.992C193.631 188.748 193.832 188.499 194.055 188.277C194.291 188.071 194.516 187.846 194.759 187.656C196.668 186.172 198.824 185.037 201.128 184.303C202.237 183.938 203.369 183.653 204.518 183.449C205.087 183.354 205.655 183.27 206.226 183.228C206.826 183.194 207.425 183.322 207.958 183.598C208.942 184.145 209.832 184.846 210.594 185.674C211.341 186.455 212.032 187.288 212.66 188.166L212.665 188.173L212.671 188.182C213.658 189.941 214.618 191.652 215.507 193.235L215.317 193.14C216.878 192.973 218.455 193.198 219.907 193.795C221.275 194.371 222.371 195.45 222.969 196.809L222.983 196.842L222.983 196.877L222.974 199.866L222.792 199.707C224.217 199.605 225.624 200.066 226.711 200.991C227.653 201.834 228.35 202.914 228.731 204.119L228.733 204.124L228.734 204.129C229.134 205.692 229.506 207.143 229.835 208.43L229.816 208.39C231.374 210.429 232.755 212.597 233.944 214.871C234.247 215.47 234.49 216.099 234.669 216.746C234.726 216.969 234.76 217.196 234.77 217.426V217.426Z" fill="#FF9A6C"/>
<path d="M222.755 220.863C222.292 220.547 221.846 220.207 221.418 219.845C220.326 219.069 219.134 218.445 217.874 217.988C216.617 217.508 215.329 217.115 214.018 216.81C213.011 216.619 212.362 216.639 212.359 216.564C212.915 216.406 213.5 216.381 214.066 216.491C215.423 216.706 216.753 217.065 218.034 217.56C219.336 218.026 220.548 218.713 221.617 219.591C222.085 219.926 222.473 220.361 222.755 220.863V220.863Z" fill="#FF9A6C"/>
<path d="M224.729 208.569C224.397 208.649 224.056 208.689 223.714 208.689C222.963 208.732 222.037 208.785 220.944 208.847C218.604 208.96 215.372 209.085 211.801 209.194L206.766 209.331C205.402 209.332 204.04 209.41 202.684 209.563C201.773 209.662 200.872 209.84 199.991 210.095C199.371 210.285 199.05 210.452 199.031 210.418C199.297 210.198 199.603 210.031 199.932 209.928C200.807 209.601 201.715 209.372 202.64 209.244C204.004 209.042 205.38 208.931 206.759 208.91C208.318 208.857 210.013 208.799 211.793 208.738C215.364 208.628 218.597 208.555 220.938 208.524C222.033 208.519 222.959 208.515 223.711 208.512C224.052 208.491 224.393 208.511 224.729 208.569V208.569Z" fill="#FF9A6C"/>
<path d="M219.108 200.708C218.774 200.816 218.429 200.885 218.08 200.915C217.32 201.028 216.378 201.169 215.263 201.336C212.885 201.688 209.605 202.2 206 202.865C202.393 203.532 199.146 204.224 196.799 204.745L194.018 205.358C193.681 205.455 193.334 205.513 192.984 205.532C193.3 205.379 193.632 205.263 193.974 205.186C194.619 204.99 195.558 204.732 196.724 204.431C199.056 203.829 202.301 203.085 205.917 202.416C209.531 201.75 212.828 201.286 215.221 201.016C216.418 200.88 217.388 200.786 218.06 200.738C218.407 200.689 218.758 200.678 219.108 200.708V200.708Z" fill="#FF9A6C"/>
<path d="M208.006 187.81C208.121 187.771 208.444 188.508 208.393 189.477C208.348 190.446 207.953 191.147 207.843 191.097C207.721 191.05 207.898 190.338 207.937 189.454C207.986 188.571 207.88 187.845 208.006 187.81Z" fill="#FF9A6C"/>
<path d="M200.815 261.465C200.41 261.107 198.178 263.935 194.172 264.039C190.166 264.153 187.396 261.461 187.063 261.84C186.884 261.986 187.303 262.919 188.55 263.955C190.191 265.283 192.248 265.99 194.359 265.951C196.385 265.912 198.317 265.087 199.747 263.65C200.786 262.551 201.022 261.601 200.815 261.465Z" fill="#1A2E35"/>
</g>
<defs>
<linearGradient id="paint0_linear_16_49578" x1="63.2385" y1="284.612" x2="331.616" y2="284.612" gradientUnits="userSpaceOnUse">
<stop stop-color="#DAFBFA"/>
<stop offset="0.99658" stop-color="#ABDFF7"/>
</linearGradient>
<linearGradient id="paint1_linear_16_49578" x1="223657" y1="113674" x2="307917" y2="-54029.5" gradientUnits="userSpaceOnUse">
<stop stop-color="#DAFBFA"/>
<stop offset="0.99658" stop-color="#ABDFF7"/>
</linearGradient>
</defs>
</svg>
