<svg width="258" height="252" viewBox="0 0 258 252" fill="none" xmlns="http://www.w3.org/2000/svg">
<rect opacity="0.8" x="234.915" y="166.576" width="234.915" height="166.576" rx="20" transform="rotate(-180 234.915 166.576)" fill="url(#paint0_linear_0_3625)"/>
<rect opacity="0.8" x="248.583" y="252" width="234.915" height="148.637" rx="10" transform="rotate(180 248.583 252)" fill="url(#paint1_linear_0_3625)"/>
<path d="M114.952 153.226C102.029 159.002 98.8523 154.872 92.0765 146.741C85.3006 138.61 74.6529 120.993 71.9426 120.219C69.2323 119.444 60.0104 118.516 61.4884 113.443C62.8074 108.915 69.0386 107.054 76.0081 109.184C82.9775 111.313 90.3778 120.219 90.3778 120.219L114.952 153.226Z" fill="#37474F"/>
<path d="M66.1355 111.292C66.2276 111.214 66.2873 110.896 66.0905 110.921C65.1402 111.117 64.2492 111.533 63.4892 112.137C62.7292 112.74 62.1215 113.514 61.715 114.395C61.5945 114.627 61.4873 114.866 61.394 115.111C61.562 115.825 61.957 116.466 62.5197 116.937C62.5802 116.504 62.6745 116.076 62.8016 115.658C63.4694 113.912 64.6271 112.396 66.1355 111.292V111.292Z" fill="#263238"/>
<path d="M67.2215 116.031C67.4833 115.414 67.8143 114.829 68.2081 114.286C68.75 113.564 69.4721 112.997 70.3021 112.642C70.4961 112.555 70.4926 112.081 70.2332 112.13C68.8651 112.403 67.6176 113.1 66.6676 114.122C65.6599 115.312 65.0294 116.775 64.8564 118.324C65.3942 118.548 65.9607 118.746 66.5352 118.92C66.6153 117.928 66.8468 116.953 67.2215 116.031Z" fill="#263238"/>
<path d="M212.769 165.57C209.035 165.513 205.381 164.481 202.169 162.576C198.957 160.672 196.297 157.962 194.454 154.714L191.14 173.384L212.769 165.57Z" fill="#263238"/>
<path d="M157.661 190.612C150.54 193.979 137.919 192.875 132.966 183.599C128.013 174.324 129.628 141.337 142.623 137.071C155.619 132.805 169.199 176.866 157.661 190.612Z" fill="#FAFAFA"/>
<path d="M161.253 182.592L156.015 163.073C156.891 161.112 158.075 159.303 159.523 157.716C159.234 156.693 158.924 155.685 158.593 154.697C155.947 156.764 153.754 159.352 152.15 162.302C146.265 173.217 149.923 187.562 149.923 187.562C149.923 187.562 145.629 191.056 137.677 182.932C134.235 179.416 131.927 174.588 130.414 170.242C130.586 175.886 131.48 180.813 132.968 183.599C137.921 192.875 150.541 193.979 157.663 190.612C159.489 188.268 160.721 185.516 161.253 182.592V182.592Z" fill="#EBEBEB"/>
<path d="M101.145 81.6024C91.8736 93.7892 87.0652 116.301 92.9664 131.382C98.8676 146.463 113.975 153.238 118.77 158.921C123.565 164.603 126.188 181.214 122.691 192.142C122.691 192.142 113.074 194.546 115.915 199.355C118.757 204.163 124.002 203.944 127.936 202.852C131.87 201.759 147.607 190.831 146.951 149.085C151.216 152.812 154.355 157.657 156.013 163.073C153.945 167.62 152.916 172.572 153.002 177.566C153.241 184.56 157.661 190.612 157.661 190.612C154.731 190.499 151.798 190.719 148.918 191.268C148.222 191.373 147.557 191.632 146.974 192.027C146.391 192.421 145.903 192.942 145.547 193.549C145.19 194.157 144.975 194.837 144.915 195.539C144.856 196.241 144.954 196.947 145.203 197.606C146.077 199.792 150.23 201.977 154.382 201.103C158.535 200.229 180.828 191.049 188.259 184.929C195.691 178.81 195.909 161.762 193.505 147.555C191.101 133.349 181.265 116.082 157.005 101.876L141.341 76.2361L101.145 81.6024Z" fill="#F8A35B"/>
<path d="M101.145 81.6024C86.3861 93.7913 91.5281 115.465 101.166 133.8C101.166 133.8 103.291 124.557 114.124 117.244C127.368 108.304 150.522 97.447 141.342 76.2361L101.145 81.6024Z" fill="#F5F5F5"/>
<path d="M141.341 76.2361L101.145 81.6023L101.142 81.6046C100.779 81.9046 100.437 82.2148 100.098 82.5262C98.226 84.2187 96.6327 86.196 95.3768 88.3851C97.2979 91.8408 100.459 94.4383 104.222 95.6528C110.756 97.7469 133.489 90.7814 137.226 83.8416C137.226 83.8416 138.147 92.9723 123.617 104.559C115.969 110.658 104.321 112.772 101.165 133.8L101.165 133.8C101.166 133.796 103.293 124.555 114.123 117.244C127.368 108.304 150.522 97.4469 141.341 76.2361Z" fill="#E0E0E0"/>
<path d="M170.279 149.103C164.056 150.533 158.477 153.968 154.399 158.881C155.053 160.231 155.593 161.633 156.013 163.073C159.304 155.245 170.279 149.103 170.279 149.103Z" fill="#37474F"/>
<path d="M150.171 152.366L150.17 152.358C149.657 139.128 144.254 132.605 144.254 132.605C144.254 132.605 146.699 137.819 146.951 149.085C148.117 150.084 149.194 151.181 150.171 152.366Z" fill="#37474F"/>
<path d="M123.498 189.018L123.497 189.018C123.285 190.073 123.016 191.116 122.691 192.142C124.088 191.831 125.538 191.852 126.926 192.203C128.314 192.553 129.6 193.224 130.682 194.161C130.682 194.161 132.369 189.7 123.498 189.018Z" fill="#37474F"/>
<path d="M163.278 194.161C161.102 193.544 159.151 192.312 157.66 190.612C155.93 190.556 154.198 190.599 152.472 190.739C156.29 195.406 163.278 194.161 163.278 194.161Z" fill="#37474F"/>
<path d="M125.422 196.958C125.353 196.926 125.277 196.914 125.202 196.922C124.509 196.919 123.822 197.055 123.181 197.321C122.199 197.828 121.43 198.669 121.012 199.692C120.619 200.638 120.492 201.674 120.645 202.687C120.666 202.832 120.691 202.98 120.72 203.128C121.226 203.27 121.742 203.369 122.264 203.426C122.229 203.301 122.189 203.177 122.165 203.048C122.019 202.217 122.096 201.361 122.39 200.57C123.014 199.156 124.076 197.98 125.419 197.216C125.448 197.2 125.473 197.177 125.492 197.149C125.502 197.128 125.507 197.105 125.505 197.082C125.504 197.058 125.496 197.036 125.482 197.017C125.467 196.993 125.447 196.973 125.422 196.958Z" fill="#263238"/>
<path d="M117.645 201.463C117.59 200.396 117.772 199.329 118.179 198.341C118.586 197.353 119.206 196.467 119.997 195.748C120.056 195.71 120.105 195.657 120.14 195.596C120.175 195.534 120.194 195.465 120.195 195.394C120.101 194.973 118.31 196.128 118.124 196.286C117.39 196.952 116.853 197.806 116.57 198.756C116.446 199.146 116.36 199.547 116.314 199.954C116.695 200.509 117.142 201.015 117.645 201.463Z" fill="#263238"/>
<path d="M153.603 196.257C153.546 196.208 153.476 196.175 153.401 196.162C152.736 195.967 152.038 195.907 151.349 195.986C150.265 196.201 149.293 196.796 148.608 197.664C148.071 198.339 147.699 199.131 147.522 199.975C147.959 200.23 148.415 200.448 148.888 200.628C149.038 200.001 149.31 199.41 149.69 198.889C150.681 197.703 152.026 196.867 153.528 196.504C153.561 196.496 153.591 196.481 153.617 196.46C153.633 196.443 153.644 196.422 153.649 196.399C153.654 196.376 153.652 196.352 153.644 196.33C153.637 196.303 153.622 196.278 153.603 196.257Z" fill="#263238"/>
<path d="M145.751 198.505C146.004 197.482 146.477 196.526 147.137 195.705C147.798 194.883 148.629 194.216 149.574 193.749C149.697 193.689 149.839 193.613 149.863 193.463C149.889 193.032 147.848 193.647 147.625 193.747C146.736 194.184 145.984 194.857 145.449 195.691C145.255 195.983 145.086 196.291 144.943 196.612C144.99 196.952 145.077 197.286 145.202 197.606C145.34 197.931 145.525 198.234 145.751 198.505Z" fill="#263238"/>
<path d="M137.626 60.8693C140.71 55.4492 139.866 42.7841 135.288 40.2158C130.965 37.791 121.019 50.5342 121.019 50.5342C121.019 50.5342 129.198 59.5573 137.626 60.8693Z" fill="#BA7A44"/>
<path d="M132.402 57.6159C126.642 54.2672 121.018 50.5343 121.018 50.5343C121.018 50.5343 130.509 38.4201 134.059 40.4438C136.299 41.3998 138.57 48.506 132.402 57.6159Z" fill="#FFA8A7"/>
<path d="M124.289 50.7318C125.261 50.256 126.076 49.5103 126.636 48.5837C127.369 47.5528 127.753 46.3136 127.729 45.0486C129.866 46.5123 130.755 50.0406 130.755 50.0406C131.606 49.9126 132.378 49.4697 132.918 48.7997C133.458 48.1297 133.728 47.2813 133.672 46.4223C135.257 48.1323 135.205 52.4469 132.475 54.6884C130.997 54.8784 129.497 54.6263 128.162 53.9639C125.723 52.8478 124.454 51.5877 124.289 50.7318Z" fill="#F28F8F"/>
<path d="M130.821 55.5039C132.867 54.08 134.151 51.0575 133.287 48.9739C133.287 48.9739 131.872 50.7578 130.223 50.8217C130.223 50.8217 129.417 44.9287 126.155 44.0312C126.155 44.0312 126.863 47.9091 123.973 50.0243C123.07 55.5026 130.821 55.5039 130.821 55.5039Z" fill="#7C512E"/>
<path d="M113.133 47.8953C110.273 43.1296 102.032 38.4453 97.0507 41.9227C94.2436 43.8826 99.707 57.8122 99.707 57.8122C99.707 57.8122 109.047 54.0382 113.133 47.8953Z" fill="#BA7A44"/>
<path d="M109.145 51.7811C104.543 54.9327 99.7071 57.8122 99.7071 57.8122C99.7071 57.8122 94.2438 43.8826 97.0509 41.9227C98.9663 41.021 104.702 42.9877 109.145 51.7811Z" fill="#FFA8A7"/>
<path d="M100.28 54.7306C99.9799 54.1353 99.5838 53.5936 99.1073 53.1275C98.8016 52.2473 98.4627 51.219 98.1409 50.1336C99.54 49.4461 101.075 49.0799 102.634 49.0618C102.567 47.9233 102.115 46.8413 101.353 45.993C103.202 45.462 106.267 47.2659 106.912 50.3934C106.457 51.5858 105.767 52.6744 104.882 53.5941C103.865 54.1352 102.942 54.5907 102.181 54.9496C101.539 55.0174 100.89 54.9426 100.28 54.7306Z" fill="#F28F8F"/>
<path d="M106.117 51.4692C105.503 49.3036 103.441 47.3164 101.586 47.4387C102.164 48.3845 102.409 49.4966 102.282 50.5977C102.282 50.5977 97.4407 49.5459 95.925 52.0638C96.8777 52.2516 97.7647 52.6854 98.4978 53.3222C99.2309 53.9589 99.7846 54.7765 100.104 55.6936C104.194 58.0805 106.117 51.4692 106.117 51.4692Z" fill="#7C512E"/>
<path d="M115.054 47.543C101.394 48.8704 93.0031 61.4977 89.2658 70.2432C87.4513 74.4892 95.4933 88.8517 106.19 90.4693C121.018 92.7118 136.354 84.7395 141.891 76.5332C146.753 69.3267 132.321 48.2925 115.054 47.543Z" fill="#F8A35B"/>
<path d="M114.095 73.8899C108.084 70.4319 111.229 55.5037 111.229 55.5037C108.092 62.0205 106.92 69.7689 100.711 72.3217C95.3115 74.5413 92.424 76.3566 93.7398 82.2736C96.5424 86.3709 100.894 90.2406 106.045 90.8974C111.615 91.5103 117.251 90.9312 122.58 89.1985C125.392 81.2715 121.698 78.2639 114.095 73.8899Z" fill="#FAFAFA"/>
<path d="M120.913 68.26C120.978 68.6884 120.916 69.1267 120.732 69.5194C120.549 69.9121 120.253 70.2417 119.883 70.4664C119.512 70.691 119.083 70.8008 118.65 70.7817C118.217 70.7626 117.799 70.6156 117.45 70.3591C117.101 70.1027 116.835 69.7484 116.687 69.3411C116.539 68.9338 116.515 68.4917 116.618 68.0707C116.721 67.6498 116.947 67.2689 117.267 66.9762C117.586 66.6836 117.986 66.4922 118.414 66.4265C118.699 66.3828 118.989 66.3956 119.268 66.4641C119.548 66.5327 119.811 66.6556 120.043 66.8258C120.275 66.9961 120.471 67.2104 120.62 67.4564C120.77 67.7025 120.869 67.9756 120.913 68.26Z" fill="#263238"/>
<path d="M101.901 66.3613C101.966 66.7897 101.904 67.228 101.72 67.6207C101.537 68.0134 101.241 68.343 100.871 68.5677C100.5 68.7923 100.071 68.9021 99.6382 68.883C99.2052 68.8639 98.7876 68.7168 98.4382 68.4604C98.0888 68.204 97.8233 67.8497 97.6752 67.4424C97.5272 67.0351 97.5032 66.593 97.6064 66.172C97.7096 65.7511 97.9353 65.3702 98.255 65.0775C98.5746 64.7849 98.9739 64.5936 99.4023 64.5278C99.6867 64.4841 99.977 64.4969 100.256 64.5655C100.536 64.634 100.799 64.7569 101.031 64.9271C101.263 65.0974 101.459 65.3117 101.609 65.5578C101.758 65.8038 101.857 66.0769 101.901 66.3613Z" fill="#263238"/>
<path d="M123.509 77.6949C123.497 77.6888 123.485 77.6821 123.474 77.6747C123.383 77.6107 123.32 77.5144 123.298 77.4056C123.276 77.2967 123.295 77.1835 123.354 77.0888C124.066 75.7099 125.184 74.5826 126.557 73.8593C127.93 73.136 129.491 72.8514 131.031 73.044C131.139 73.0601 131.236 73.1184 131.301 73.2061C131.366 73.2938 131.393 73.4036 131.377 73.5114L131.377 73.5142C131.367 73.6236 131.314 73.7245 131.229 73.7949C131.145 73.8653 131.036 73.8994 130.927 73.8899C129.542 73.7191 128.138 73.977 126.905 74.629C125.671 75.2809 124.667 76.2954 124.028 77.5358C123.979 77.6242 123.897 77.6901 123.801 77.7197C123.704 77.7494 123.599 77.7405 123.509 77.6949Z" fill="#263238"/>
<path d="M124.648 78.7072C124.607 78.6856 124.57 78.657 124.539 78.6226C124.466 78.5386 124.427 78.43 124.43 78.3184C124.433 78.2069 124.477 78.1005 124.555 78.0204C125.31 77.3576 126.198 76.8635 127.16 76.5712C128.121 76.279 129.134 76.1952 130.13 76.3255C130.236 76.3527 130.326 76.419 130.384 76.5108C130.443 76.6026 130.463 76.7131 130.443 76.8198C130.422 76.9264 130.362 77.0213 130.274 77.085C130.186 77.1487 130.077 77.1764 129.969 77.1626C129.101 77.0534 128.22 77.1274 127.382 77.3798C126.545 77.6322 125.769 78.0574 125.106 78.628C125.049 78.6891 124.973 78.7299 124.89 78.7441C124.808 78.7584 124.722 78.7455 124.648 78.7072Z" fill="#263238"/>
<path d="M124.485 80.4567C124.411 80.4124 124.353 80.3452 124.32 80.2652C124.277 80.1622 124.275 80.0469 124.313 79.942C124.351 79.8372 124.427 79.7506 124.526 79.6992C125.738 79.1872 127.054 78.9754 128.365 79.082C129.676 79.1887 130.941 79.6105 132.053 80.3116C132.145 80.3733 132.21 80.4679 132.235 80.576C132.259 80.6842 132.242 80.7976 132.185 80.893C132.161 80.9389 132.128 80.9795 132.088 81.0126C132.048 81.0458 132.002 81.0707 131.952 81.086C131.903 81.1013 131.85 81.1066 131.799 81.1018C131.747 81.0969 131.697 81.082 131.651 81.0577L131.641 81.0521L131.633 81.0475C130.633 80.4107 129.493 80.0255 128.312 79.9249C127.131 79.8242 125.943 80.0111 124.849 80.4695C124.793 80.498 124.729 80.5118 124.666 80.5096C124.602 80.5073 124.54 80.4892 124.485 80.4567Z" fill="#263238"/>
<path d="M93.4405 73.2546C93.4534 73.251 93.4661 73.2467 93.4785 73.2417C93.5802 73.1968 93.6609 73.1149 93.7043 73.0126C93.7477 72.9103 93.7505 72.7953 93.7122 72.691C93.2861 71.1987 92.4124 69.8731 91.2091 68.8932C90.0057 67.9133 88.5306 67.3262 86.983 67.2112C86.8741 67.2058 86.7675 67.2438 86.6867 67.317C86.6058 67.3901 86.5573 67.4924 86.5519 67.6013L86.5518 67.6042C86.5401 67.7133 86.5721 67.8227 86.6408 67.9083C86.7095 67.994 86.8093 68.0489 86.9184 68.0611C88.3096 68.1668 89.635 68.6966 90.7158 69.579C91.7965 70.4614 92.5807 71.6541 92.9625 72.9961C92.9935 73.0925 93.0605 73.1732 93.1496 73.2214C93.2386 73.2696 93.3429 73.2815 93.4405 73.2546Z" fill="#263238"/>
<path d="M92.1255 74.0227C92.1697 74.0096 92.2113 73.9888 92.2483 73.9612C92.3369 73.8933 92.3967 73.7946 92.4159 73.6847C92.435 73.5747 92.4121 73.4616 92.3517 73.3678C91.742 72.569 90.9689 71.9094 90.084 71.4333C89.1991 70.9571 88.2228 70.6752 87.2203 70.6064C87.1118 70.6123 87.0096 70.6593 86.9346 70.7379C86.8595 70.8165 86.8173 70.9207 86.8164 71.0293C86.8155 71.138 86.856 71.2429 86.9298 71.3227C87.0035 71.4025 87.1049 71.4512 87.2133 71.4588C88.0857 71.523 88.9351 71.7693 89.7064 72.182C90.4778 72.5947 91.1541 73.1645 91.6916 73.8546C91.7359 73.9259 91.8022 73.9808 91.8805 74.0111C91.9587 74.0414 92.0447 74.0455 92.1255 74.0227Z" fill="#263238"/>
<path d="M91.9391 75.7698C92.0207 75.741 92.0907 75.6865 92.1388 75.6146C92.2011 75.5221 92.2263 75.4095 92.2096 75.2992C92.1928 75.1889 92.1353 75.089 92.0483 75.0191C90.962 74.2782 89.7127 73.8109 88.4069 73.657C87.1011 73.503 85.7774 73.6669 84.5485 74.1348C84.446 74.1771 84.3636 74.2571 84.3183 74.3583C84.2729 74.4595 84.268 74.5742 84.3047 74.6788C84.3344 74.7794 84.4029 74.8639 84.4951 74.914C84.5872 74.964 84.6954 74.9754 84.796 74.9456L84.807 74.9422L84.8156 74.9392C85.9216 74.5121 87.1145 74.3593 88.2924 74.4936C89.4703 74.6279 90.5982 75.0454 91.5796 75.7105C91.6298 75.7497 91.689 75.7757 91.7518 75.786C91.8146 75.7964 91.879 75.7908 91.9391 75.7698Z" fill="#263238"/>
<path d="M112.955 81.8668C108.826 82.9237 106.468 79.6414 106.379 76.7429C106.256 78.5154 104.31 81.882 100.866 80.4089" stroke="#263238" stroke-width="2.61951" stroke-linecap="round" stroke-linejoin="round"/>
<path d="M106.285 77.9143C105.686 77.6702 105.153 77.2874 104.73 76.7974C104.307 76.3074 104.007 75.7241 103.853 75.0955C103.791 73.9621 109.392 74.7214 109.399 75.6127C109.408 76.8752 106.981 77.9651 106.285 77.9143Z" fill="#F28F8F"/>
<path d="M221.651 167.036C210.387 163.061 181.457 167.036 173.506 176.091C165.556 185.146 164.231 195.967 164.672 205.684C164.672 205.684 182.754 212.943 198.246 204.536C214.306 195.821 237.11 173.441 221.651 167.036Z" fill="#37474F"/>
<path d="M164.672 205.684C164.672 205.684 178.891 212.933 194.082 206.412C202.592 201.641 203.866 197.863 204.571 194.958C200.802 197.335 191.139 195.302 191.139 195.302C191.139 195.302 200.523 185.302 201.543 179.503C194.432 182.326 182.73 181.447 182.73 181.447C182.73 181.447 183.479 175.55 187.597 172.286C185.113 171.949 182.587 172.111 180.167 172.765C177.747 173.418 175.482 174.549 173.506 176.091C164.017 185.399 163.23 196.175 164.672 205.684Z" fill="#FAFAFA"/>
<path d="M204.571 194.958C203.701 196.743 200.931 200.939 191.843 203.547C183.509 205.779 174.714 205.601 166.477 203.034C165.27 198.359 164.965 193.498 165.577 188.709C163.97 194.222 163.66 200.032 164.673 205.684C164.673 205.684 178.892 212.933 194.083 206.412C201.554 202.223 203.942 198.685 204.571 194.958Z" fill="#F0F0F0"/>
<path d="M199.568 96.8772H46.9057V233.418H199.568V96.8772Z" fill="#7C522E"/>
<path opacity="0.2" d="M199.568 96.8772H46.9057V233.418H199.568V96.8772Z" fill="#BA7A44"/>
<path d="M231.885 96.8772H79.2232V233.418H231.885V96.8772Z" fill="#F8A35B"/>
<path d="M22.1628 137.416C27.0172 129.953 46.9009 96.873 46.9009 96.873L79.2069 96.8706L62.6959 137.416H22.1628Z" fill="#BA7A44"/>
<path d="M257.05 138.738C252.174 131.072 231.981 97.0876 231.981 97.0876H199.747L216.333 138.738H257.05Z" fill="#BA7A44"/>
<path d="M117.875 198.525C120.086 198.525 122.297 198.528 124.508 198.52C124.74 198.52 124.877 198.549 124.913 198.823C125.451 202.062 124.909 205.388 123.371 208.288C122.529 209.842 121.37 211.201 119.969 212.279C118.569 213.356 116.958 214.128 115.24 214.543C113.089 215.159 110.83 215.301 108.619 214.958C106.408 214.616 104.297 213.798 102.433 212.56C100.523 211.4 98.908 209.813 97.7135 207.925C96.519 206.036 95.7778 203.896 95.5481 201.673C94.8717 195.429 97.3764 190.588 102.541 187.122C105.362 185.253 108.737 184.403 112.106 184.714C115.47 184.94 118.647 186.341 121.083 188.672C121.259 188.835 121.248 188.918 121.085 189.077C120.245 189.901 119.413 190.733 118.588 191.573C118.427 191.737 118.334 191.776 118.138 191.598C117.088 190.636 115.854 189.896 114.51 189.424C113.166 188.952 111.74 188.756 110.319 188.85C108.174 188.992 106.117 189.754 104.397 191.042C102.677 192.331 101.368 194.091 100.63 196.109C99.8909 198.127 99.7539 200.316 100.235 202.411C100.717 204.505 101.796 206.415 103.342 207.908C105.13 209.689 107.512 210.747 110.033 210.881C112.538 211.127 115.051 210.488 117.135 209.075C118.111 208.412 118.934 207.548 119.551 206.542C120.167 205.535 120.561 204.409 120.708 203.238C120.796 202.667 120.792 202.666 120.205 202.666C117.222 202.666 114.238 202.66 111.255 202.675C110.918 202.676 110.847 202.575 110.852 202.26C110.87 201.131 110.87 200.002 110.852 198.873C110.848 198.592 110.925 198.517 111.207 198.518C113.429 198.53 115.652 198.525 117.875 198.525Z" fill="white"/>
<path d="M188.247 205.377C188.247 208.122 188.254 210.867 188.245 213.612C188.297 215.47 187.941 217.317 187.203 219.022C186.653 220.262 185.796 221.342 184.713 222.159C183.63 222.976 182.357 223.504 181.013 223.693C178.949 224.125 176.8 223.879 174.888 222.99C172.876 222.023 171.269 220.377 170.352 218.342C170.26 218.147 170.285 218.058 170.494 217.973C171.559 217.539 172.623 217.098 173.678 216.639C173.932 216.529 174.018 216.602 174.128 216.824C174.436 217.516 174.886 218.136 175.45 218.642C176.013 219.149 176.676 219.531 177.397 219.765C178.413 220.098 179.507 220.111 180.53 219.802C181.554 219.492 182.458 218.876 183.119 218.036C183.732 217.081 184.073 215.978 184.106 214.844C184.143 214.252 184.12 213.657 184.121 213.062C184.121 212.997 184.15 212.911 184.067 212.873C183.989 212.836 183.938 212.893 183.886 212.945C182.888 214.002 181.587 214.722 180.162 215.007C178.736 215.292 177.258 215.127 175.931 214.535C174.15 213.941 172.586 212.832 171.439 211.347C170.291 209.862 169.611 208.069 169.486 206.196C169.267 203.954 169.825 201.705 171.065 199.824C172.305 197.944 174.153 196.545 176.3 195.863C177.394 195.486 178.561 195.366 179.709 195.514C180.857 195.662 181.955 196.073 182.918 196.715C183.262 196.949 183.577 197.224 183.857 197.532C183.911 197.592 183.962 197.69 184.052 197.662C184.176 197.623 184.118 197.5 184.119 197.415C184.126 197.082 184.135 196.749 184.118 196.417C184.105 196.181 184.159 196.084 184.425 196.087C185.601 196.101 186.778 196.101 187.954 196.088C188.196 196.085 188.254 196.167 188.252 196.394C188.242 197.368 188.248 198.343 188.248 199.317C188.248 201.337 188.248 203.357 188.247 205.377ZM184.413 205.351C184.433 204.553 184.306 203.758 184.038 203.006C183.778 202.096 183.267 201.277 182.564 200.643C181.862 200.009 180.995 199.584 180.063 199.418C179.151 199.24 178.207 199.32 177.338 199.649C176.469 199.979 175.71 200.545 175.145 201.283C174.203 202.462 173.707 203.936 173.745 205.445C173.783 206.954 174.353 208.402 175.354 209.532C176.248 210.514 177.487 211.11 178.812 211.197C180.137 211.283 181.444 210.852 182.458 209.995C183.101 209.41 183.61 208.691 183.947 207.889C184.285 207.087 184.444 206.221 184.413 205.351Z" fill="white"/>
<path d="M157.807 195.514C159.741 195.523 161.629 196.105 163.233 197.187C164.837 198.268 166.084 199.8 166.818 201.59C167.551 203.38 167.738 205.347 167.354 207.243C166.97 209.139 166.033 210.879 164.661 212.243C163.29 213.606 161.544 214.533 159.646 214.905C157.748 215.278 155.782 215.08 153.997 214.336C152.211 213.592 150.686 212.335 149.614 210.725C148.542 209.115 147.972 207.223 147.974 205.289C147.956 204.023 148.187 202.766 148.655 201.59C149.123 200.414 149.817 199.341 150.699 198.433C151.581 197.526 152.634 196.801 153.796 196.3C154.958 195.799 156.208 195.531 157.474 195.513C157.585 195.512 157.696 195.512 157.807 195.514ZM163.351 205.292C163.338 204.645 163.246 204.003 163.077 203.379C162.828 202.451 162.339 201.606 161.659 200.928C160.978 200.25 160.131 199.764 159.202 199.519C158.273 199.274 157.296 199.279 156.37 199.533C155.444 199.787 154.601 200.281 153.927 200.965C152.908 202.092 152.322 203.544 152.273 205.062C152.224 206.58 152.715 208.067 153.659 209.257C154.507 210.294 155.713 210.975 157.039 211.164C158.365 211.353 159.713 211.038 160.817 210.28C161.619 209.722 162.271 208.975 162.713 208.105C163.155 207.234 163.374 206.268 163.351 205.292Z" fill="white"/>
<path d="M126.542 205.284C126.539 203.342 127.113 201.443 128.189 199.827C129.266 198.211 130.797 196.95 132.591 196.205C134.384 195.459 136.357 195.262 138.263 195.638C140.168 196.014 141.918 196.947 143.294 198.318C144.669 199.689 145.606 201.438 145.988 203.342C146.369 205.246 146.178 207.22 145.437 209.015C144.696 210.81 143.44 212.346 141.827 213.427C140.214 214.508 138.316 215.086 136.374 215.089C136.362 215.089 136.349 215.089 136.337 215.089C135.073 215.112 133.818 214.886 132.642 214.424C131.466 213.962 130.393 213.273 129.484 212.396C128.574 211.519 127.846 210.472 127.341 209.313C126.837 208.155 126.565 206.909 126.542 205.646C126.54 205.525 126.54 205.405 126.542 205.284ZM130.824 205.26C130.808 205.952 130.914 206.641 131.137 207.297C131.418 208.276 131.971 209.156 132.732 209.833C133.493 210.51 134.431 210.956 135.436 211.121C136.406 211.321 137.414 211.235 138.336 210.873C139.258 210.512 140.055 209.89 140.63 209.084C141.233 208.31 141.641 207.404 141.821 206.441C142.002 205.477 141.949 204.485 141.668 203.546C141.48 202.732 141.106 201.972 140.577 201.326C140.047 200.68 139.376 200.164 138.615 199.819C137.854 199.475 137.023 199.31 136.188 199.338C135.353 199.367 134.536 199.587 133.8 199.982C132.86 200.496 132.084 201.263 131.558 202.196C131.032 203.129 130.777 204.19 130.824 205.26Z" fill="white"/>
<path d="M197.578 205.259C197.535 203.781 197.832 202.313 198.444 200.967C199.057 199.622 199.97 198.434 201.113 197.496C202.097 196.676 203.249 196.084 204.487 195.759C205.726 195.435 207.021 195.386 208.28 195.618C209.54 195.849 210.733 196.355 211.775 197.099C212.817 197.843 213.683 198.807 214.312 199.922C214.79 200.783 215.202 201.678 215.543 202.602C215.652 202.868 215.489 202.898 215.321 202.968C212.242 204.241 209.163 205.516 206.084 206.792C205 207.241 203.919 207.701 202.827 208.131C202.549 208.24 202.572 208.338 202.692 208.56C203.126 209.299 203.729 209.925 204.452 210.386C205.175 210.847 205.997 211.129 206.851 211.21C207.704 211.29 208.565 211.167 209.361 210.85C210.158 210.532 210.868 210.03 211.432 209.385C211.541 209.259 211.652 209.135 211.756 209.006C212.141 208.53 212.141 208.529 212.662 208.877C213.521 209.452 214.375 210.032 215.24 210.597C215.429 210.72 215.434 210.8 215.301 210.975C214.289 212.437 212.89 213.588 211.261 214.3C209.632 215.012 207.837 215.257 206.077 215.008C203.971 214.794 201.998 213.878 200.477 212.406C198.956 210.934 197.974 208.993 197.691 206.896C197.607 206.355 197.569 205.807 197.578 205.259ZM206.912 199.262C206.724 199.286 206.425 199.302 206.137 199.365C204.927 199.612 203.839 200.267 203.055 201.22C202.27 202.173 201.837 203.367 201.827 204.602C201.816 204.992 201.815 204.992 202.18 204.841C204.754 203.777 207.328 202.713 209.903 201.649C210.676 201.329 210.699 201.259 210.133 200.594C209.724 200.153 209.224 199.806 208.668 199.576C208.112 199.346 207.513 199.239 206.912 199.262L206.912 199.262Z" fill="white"/>
<path d="M191.19 200.102C191.19 195.433 191.188 190.763 191.184 186.094C191.183 185.794 191.236 185.688 191.567 185.694C192.743 185.718 193.92 185.716 195.096 185.695C195.414 185.69 195.487 185.777 195.487 186.089C195.478 194.904 195.475 203.72 195.479 212.536C195.479 213.07 195.466 213.606 195.485 214.14C195.494 214.408 195.432 214.507 195.137 214.503C193.937 214.485 192.737 214.485 191.537 214.503C191.25 214.507 191.184 214.422 191.184 214.145C191.193 209.464 191.195 204.783 191.19 200.102Z" fill="white"/>
<path d="M95.3197 150.117H111.845V153.106H105.347V169.91H101.774V153.106H95.3052V150.117L95.3197 150.117ZM111.139 155.578H114.194V158.344H114.251C114.362 157.934 114.553 157.549 114.813 157.213C115.096 156.833 115.431 156.495 115.807 156.207C116.203 155.901 116.639 155.651 117.104 155.467C117.568 155.285 118.061 155.191 118.559 155.187C118.934 155.187 119.208 155.201 119.352 155.215C119.496 155.229 119.64 155.257 119.798 155.271V158.316C119.568 158.274 119.337 158.246 119.092 158.218C118.858 158.191 118.622 158.177 118.386 158.177C117.851 158.176 117.322 158.286 116.83 158.498C116.343 158.712 115.91 159.031 115.562 159.434C115.18 159.887 114.887 160.408 114.698 160.97C114.474 161.65 114.367 162.364 114.381 163.08V169.896H111.125V155.578L111.139 155.578ZM134.768 169.91H131.569V167.913H131.512C131.096 168.651 130.476 169.252 129.725 169.645C128.987 170.065 128.154 170.291 127.304 170.301C126.542 170.374 125.774 170.287 125.047 170.046C124.32 169.806 123.652 169.417 123.083 168.904C122.132 167.708 121.669 166.196 121.786 164.672V155.578H125.043V164.365C124.945 165.317 125.213 166.27 125.792 167.033C126.066 167.301 126.394 167.51 126.754 167.644C127.113 167.779 127.497 167.837 127.881 167.815C128.468 167.836 129.052 167.731 129.595 167.507C130.027 167.327 130.407 167.044 130.705 166.683C131 166.325 131.212 165.905 131.324 165.454C131.455 164.948 131.518 164.426 131.512 163.904V155.592H134.768L134.768 169.91ZM140.315 165.314C140.326 165.701 140.43 166.079 140.618 166.417C140.806 166.755 141.073 167.043 141.395 167.256C142.086 167.639 142.867 167.832 143.657 167.815C144.004 167.81 144.35 167.786 144.694 167.745C145.069 167.703 145.437 167.614 145.79 167.48C146.116 167.362 146.408 167.165 146.64 166.907C146.864 166.633 146.972 166.282 146.942 165.929C146.94 165.741 146.898 165.555 146.818 165.384C146.739 165.213 146.624 165.061 146.481 164.937C146.16 164.659 145.789 164.445 145.386 164.309C144.887 164.138 144.377 164.003 143.859 163.904C143.282 163.792 142.707 163.666 142.116 163.541C141.522 163.414 140.935 163.255 140.358 163.066C139.817 162.895 139.307 162.64 138.845 162.311C138.397 162.003 138.032 161.591 137.779 161.11C137.49 160.55 137.351 159.924 137.375 159.294C137.353 158.595 137.561 157.908 137.966 157.339C138.36 156.81 138.867 156.375 139.45 156.067C140.079 155.739 140.754 155.509 141.452 155.383C142.147 155.259 142.851 155.193 143.557 155.187C144.293 155.187 145.027 155.266 145.747 155.425C146.416 155.566 147.056 155.827 147.634 156.193C148.192 156.544 148.669 157.011 149.031 157.562C149.422 158.177 149.664 158.876 149.737 159.601H146.337C146.298 159.28 146.181 158.972 145.995 158.706C145.809 158.441 145.56 158.225 145.27 158.079C144.664 157.807 144.005 157.673 143.34 157.688C143.066 157.688 142.791 157.707 142.519 157.744C142.215 157.784 141.916 157.854 141.626 157.953C141.361 158.049 141.12 158.202 140.92 158.4C140.823 158.503 140.748 158.623 140.698 158.755C140.649 158.887 140.626 159.028 140.631 159.168C140.626 159.346 140.661 159.522 140.733 159.684C140.806 159.846 140.914 159.99 141.049 160.104C141.371 160.367 141.737 160.57 142.13 160.705C142.629 160.876 143.139 161.011 143.657 161.11C144.233 161.222 144.824 161.348 145.429 161.473C146.02 161.599 146.597 161.767 147.172 161.948C147.719 162.116 148.234 162.371 148.7 162.702C149.141 163.016 149.51 163.421 149.78 163.89C150.072 164.434 150.216 165.046 150.198 165.664C150.221 166.43 150.01 167.185 149.593 167.829C149.19 168.42 148.658 168.912 148.037 169.268C147.372 169.645 146.653 169.919 145.904 170.078C145.142 170.243 144.365 170.328 143.585 170.329C142.711 170.339 141.839 170.236 140.992 170.022C140.256 169.839 139.558 169.527 138.931 169.1C138.364 168.693 137.896 168.163 137.563 167.549C137.217 166.865 137.034 166.109 137.029 165.342H140.315L140.315 165.314ZM151.062 155.578H153.526V151.276H156.782V155.578H159.721V157.939H156.782V165.594C156.78 165.883 156.795 166.172 156.826 166.46C156.849 166.677 156.918 166.886 157.028 167.075C157.139 167.251 157.306 167.384 157.503 167.452C157.781 167.546 158.074 167.589 158.368 167.577C158.597 167.577 158.828 167.577 159.059 167.563C159.292 167.551 159.523 167.519 159.75 167.466V169.91C159.39 169.952 159.03 169.98 158.699 170.022C158.35 170.062 157.998 170.08 157.647 170.078C156.948 170.096 156.249 170.016 155.572 169.84C155.11 169.719 154.687 169.478 154.348 169.142C154.045 168.823 153.835 168.426 153.742 167.996C153.63 167.477 153.568 166.949 153.555 166.418V157.967H151.092V155.578L151.062 155.578ZM162.027 155.578H165.11V157.52H165.167C165.586 156.725 166.261 156.094 167.084 155.732C167.924 155.364 168.832 155.178 169.749 155.187C170.794 155.161 171.832 155.366 172.789 155.788C173.626 156.158 174.366 156.718 174.951 157.422C175.533 158.141 175.968 158.967 176.232 159.853C176.526 160.812 176.671 161.811 176.665 162.814C176.668 163.759 176.537 164.7 176.276 165.608C176.036 166.473 175.641 167.287 175.109 168.01C174.583 168.71 173.903 169.279 173.121 169.673C172.24 170.11 171.266 170.325 170.282 170.301C169.804 170.301 169.327 170.259 168.856 170.176C168.386 170.092 167.927 169.956 167.487 169.771C167.052 169.591 166.645 169.352 166.277 169.058C165.915 168.773 165.599 168.434 165.341 168.052H165.283V175.204H162.027L162.027 155.578ZM173.408 162.758C173.409 162.121 173.322 161.486 173.149 160.872C172.99 160.29 172.726 159.741 172.371 159.252C172.032 158.785 171.594 158.399 171.089 158.121C170.544 157.83 169.934 157.681 169.317 157.688C168.727 157.649 168.136 157.754 167.597 157.995C167.057 158.236 166.584 158.605 166.219 159.071C165.48 160.153 165.116 161.449 165.182 162.758C165.173 163.439 165.266 164.116 165.456 164.77C165.619 165.351 165.898 165.893 166.277 166.362C166.628 166.802 167.07 167.159 167.574 167.41C168.146 167.676 168.771 167.81 169.403 167.8C170.034 167.791 170.655 167.638 171.219 167.354C171.72 167.069 172.153 166.678 172.487 166.208C172.826 165.723 173.07 165.178 173.207 164.602C173.34 163.996 173.407 163.378 173.408 162.758H173.408ZM179.157 150.117H182.414V153.106H179.157L179.157 150.117ZM179.157 155.578H182.414V169.91H179.157L179.157 155.578ZM185.324 150.117H188.58V169.91H185.324V150.117ZM198.565 170.301C197.486 170.318 196.414 170.123 195.409 169.729C194.528 169.372 193.729 168.84 193.061 168.164C192.415 167.478 191.919 166.664 191.606 165.775C191.263 164.797 191.092 163.767 191.102 162.73C191.093 161.703 191.264 160.682 191.606 159.713C191.919 158.824 192.415 158.011 193.061 157.325C193.723 156.641 194.524 156.107 195.409 155.76C197.444 154.996 199.685 154.996 201.72 155.76C202.601 156.116 203.4 156.649 204.068 157.325C204.714 158.011 205.21 158.824 205.523 159.713C205.865 160.682 206.036 161.703 206.027 162.73C206.037 163.767 205.866 164.797 205.523 165.776C205.21 166.664 204.714 167.478 204.068 168.164C203.406 168.848 202.605 169.381 201.72 169.729C200.715 170.123 199.644 170.318 198.565 170.301L198.565 170.301ZM198.565 167.801C199.221 167.815 199.871 167.661 200.452 167.354C200.97 167.07 201.418 166.674 201.763 166.195C202.111 165.703 202.369 165.155 202.527 164.574C202.853 163.371 202.853 162.103 202.527 160.9C202.378 160.317 202.119 159.766 201.763 159.28C201.417 158.805 200.969 158.414 200.452 158.135C199.866 157.841 199.22 157.688 198.565 157.688C197.909 157.688 197.263 157.841 196.677 158.135C196.163 158.418 195.716 158.809 195.366 159.28C195.016 159.77 194.757 160.319 194.602 160.9C194.276 162.103 194.276 163.371 194.602 164.574C194.754 165.157 195.013 165.707 195.366 166.195C195.711 166.674 196.159 167.07 196.677 167.354C197.256 167.667 197.907 167.821 198.565 167.801L198.565 167.801ZM206.979 155.578H209.442V151.276H212.699V155.578H215.638V157.939H212.699V165.594C212.696 165.883 212.711 166.172 212.742 166.46C212.765 166.677 212.834 166.886 212.943 167.075C213.054 167.25 213.222 167.383 213.418 167.452C213.696 167.546 213.99 167.589 214.283 167.577C214.514 167.577 214.745 167.577 214.974 167.563C215.208 167.551 215.439 167.519 215.667 167.466V169.91C215.306 169.952 214.946 169.98 214.614 170.022C214.265 170.062 213.914 170.08 213.562 170.078C212.863 170.096 212.165 170.016 211.488 169.84C211.025 169.72 210.603 169.479 210.263 169.142C209.96 168.823 209.751 168.427 209.659 167.996C209.546 167.477 209.483 166.949 209.471 166.418V157.967H207.007V155.578L206.979 155.578Z" fill="white"/>
<path d="M231.988 96.9363L246.043 139.102H86.6095L79.2232 96.9363H231.988Z" fill="#F9B57C"/>
<path d="M155.997 180.238C189.387 180.238 216.455 180.009 216.455 179.726C216.455 179.443 189.387 179.213 155.997 179.213C122.607 179.213 95.5388 179.443 95.5388 179.726C95.5388 180.009 122.607 180.238 155.997 180.238Z" fill="white"/>
<path d="M108.923 108.348L114.105 115.598L122.494 116.778L117.87 122.507L121.089 130.724L112.878 126.817L106.343 130.696L106.042 122.492L98.9791 116.758L106.847 115.593L108.923 108.348Z" fill="white"/>
<path d="M134.454 108.351L139.842 115.616L148.295 116.798L143.799 122.539L147.24 130.773L138.896 126.858L132.435 130.745L131.923 122.525L124.686 116.779L132.555 115.611L134.454 108.351Z" fill="white"/>
<path d="M160.078 108.354L165.673 115.634L174.191 116.819L169.823 122.571L173.49 130.822L165.012 126.898L158.623 130.793L157.899 122.557L150.486 116.799L158.357 115.629L160.078 108.354Z" fill="white"/>
<path d="M185.797 108.358L191.602 115.652L200.184 116.839L195.947 122.604L199.84 130.871L191.227 126.94L184.912 130.843L183.974 122.589L176.384 116.82L184.256 115.647L185.797 108.358Z" fill="white"/>
<path d="M211.608 108.361L217.623 115.67L226.271 116.86L222.165 122.636L226.286 130.921L217.537 126.981L211.298 130.892L210.144 122.621L202.374 116.84L210.248 115.665L211.608 108.361Z" fill="white"/>
<defs>
<linearGradient id="paint0_linear_0_3625" x1="116.591" y1="413.695" x2="229.612" y2="21.3647" gradientUnits="userSpaceOnUse">
<stop stop-color="#F8A35B"/>
<stop offset="1" stop-color="white" stop-opacity="0"/>
</linearGradient>
<linearGradient id="paint1_linear_0_3625" x1="467.446" y1="205.243" x2="393.099" y2="472.614" gradientUnits="userSpaceOnUse">
<stop stop-color="#91F082"/>
<stop offset="1" stop-color="white" stop-opacity="0"/>
</linearGradient>
</defs>
</svg>
