<svg width="252" height="252" viewBox="0 0 252 252" fill="none" xmlns="http://www.w3.org/2000/svg">
<path opacity="0.3" d="M204.82 205.064C229.347 179.643 231.727 141.94 227.451 106.853C223.029 70.5688 212.506 32.5728 181.457 13.3495C149.74 -6.28714 109.358 -2.27045 75.131 12.5476C42.7183 26.5799 19.7283 54.6525 8.56515 88.1991C-2.84415 122.486 -5.06745 161.476 15.7488 190.999C36.1167 219.885 73.3679 227.433 108.585 230.053C143.355 232.639 180.594 230.173 204.82 205.064Z" fill="url(#paint0_linear_0_3260)"/>
<path opacity="0.3" d="M227.832 226.583C252.178 201.534 254.54 164.384 250.296 129.811C245.907 94.0583 235.461 56.619 204.641 37.6773C173.159 18.3284 133.075 22.2862 99.1 36.8871C66.9265 50.7139 44.1062 78.3752 33.0254 111.43C21.7003 145.214 19.4934 183.633 40.156 212.723C60.3736 241.187 97.3499 248.624 132.307 251.205C166.82 253.754 203.785 251.324 227.832 226.583Z" fill="url(#paint1_linear_0_3260)"/>
<mask id="mask0_0_3260" style="mask-type:alpha" maskUnits="userSpaceOnUse" x="18" y="11" width="220" height="220">
<path d="M213.935 206.406C237.325 182.196 239.595 146.288 235.517 112.872C231.3 78.3155 221.264 42.1288 191.654 23.8209C161.407 5.11931 122.896 8.94473 90.2545 23.0571C59.3436 36.4212 37.4188 63.1571 26.7729 95.1062C15.8922 127.76 13.7719 164.893 33.6236 193.01C53.0478 220.522 88.573 227.71 122.158 230.205C155.317 232.668 190.831 230.319 213.935 206.406Z" fill="#FF2C62"/>
</mask>
<g mask="url(#mask0_0_3260)">
<path d="M370.271 6.14355H21.1292V236.876H370.271V6.14355Z" fill="white"/>
<path d="M38.0965 37.2217H21.1297V70.8534H38.0965V37.2217Z" fill="#F5F5F5"/>
<path d="M57.0816 37.2217H38.7493V70.8534H57.0816V37.2217Z" fill="#F5F5F5"/>
<path d="M57.0816 73.2034H38.7493V105.699H57.0816V73.2034Z" fill="#F5F5F5"/>
<path d="M59.4311 36.6399H78.737V6.80579H79.3898V36.6399H95.1013V6.1438H59.4311V36.6399Z" fill="#F5F5F5"/>
<path d="M95.1009 37.2217H79.3895V70.8534H95.1009V37.2217Z" fill="#F5F5F5"/>
<path d="M95.1009 73.2034H79.3895V105.699H95.1009V73.2034Z" fill="#F5F5F5"/>
<path d="M38.0965 73.2034H21.1297V105.699H38.0965V73.2034Z" fill="#F5F5F5"/>
<path d="M78.737 73.2034H59.4311V105.699H78.737V73.2034Z" fill="#F5F5F5"/>
<path d="M38.0965 106.281H21.1297V135.563H38.0965V106.281Z" fill="#F5F5F5"/>
<path d="M95.1009 106.281H79.3895V135.563H95.1009V106.281Z" fill="#F5F5F5"/>
<path d="M38.0961 36.6399V6.80579H38.7484V36.6399H57.0809V6.1438H21.1294V36.6399H38.0961Z" fill="#F5F5F5"/>
<path d="M78.737 106.281H59.4311V135.563H78.737V106.281Z" fill="#F5F5F5"/>
<path d="M57.0816 106.281H38.7493V135.563H57.0816V106.281Z" fill="#F5F5F5"/>
<path d="M78.737 37.2217H59.4311V70.8534H78.737V37.2217Z" fill="#F5F5F5"/>
<path d="M154.17 24.5332H114.158V66.2429H154.17V24.5332Z" fill="#E0E0E0"/>
<path d="M151.462 24.5337H111.449V66.2434H151.462V24.5337Z" fill="#FAFAFA"/>
<path d="M151.473 66.2554H111.436V24.521H151.473V66.2554ZM111.461 66.2305H151.448V24.5457H111.461L111.461 66.2305Z" fill="#E0E0E0"/>
<path d="M146.082 30.1404H116.827V60.636H146.082V30.1404Z" fill="white"/>
<path d="M116.827 60.8389C116.62 61.1456 116.378 61.4273 116.105 61.6782C115.638 62.1712 114.982 62.8385 114.246 63.5634C113.51 64.2886 112.833 64.9344 112.334 65.3928C112.081 65.6601 111.798 65.8965 111.489 66.0971C111.694 65.791 111.935 65.5104 112.207 65.2612C112.674 64.7682 113.333 64.0992 114.071 63.3723C114.809 62.6453 115.487 61.998 115.985 61.5396C116.237 61.2731 116.52 61.0379 116.827 60.8389V60.8389Z" fill="#E0E0E0"/>
<path d="M146.082 60.7639C146.389 60.9712 146.671 61.2134 146.922 61.4857C147.415 61.953 148.082 62.6096 148.807 63.3454C149.532 64.0815 150.178 64.7579 150.637 65.2566C150.904 65.5097 151.14 65.7935 151.341 66.1021C151.035 65.8967 150.754 65.6557 150.505 65.3842C150.012 64.9169 149.343 64.2585 148.616 63.5203C147.889 62.7823 147.242 62.1044 146.783 61.6056C146.517 61.354 146.282 61.0714 146.082 60.7639V60.7639Z" fill="#E0E0E0"/>
<path d="M146.001 30.2216C146.209 29.9148 146.451 29.6331 146.723 29.3822C147.191 28.8891 147.847 28.2218 148.583 27.497C149.319 26.7718 149.996 26.1261 150.494 25.6675C150.747 25.4002 151.031 25.1638 151.34 24.9634C151.134 25.2693 150.893 25.5499 150.622 25.7992C150.155 26.2922 149.496 26.961 148.758 27.6882C148.02 28.4151 147.342 29.0623 146.843 29.5209C146.592 29.7874 146.309 30.0226 146.001 30.2216V30.2216Z" fill="#E0E0E0"/>
<path d="M116.747 30.2966C116.44 30.0894 116.159 29.8471 115.908 29.5747C115.415 29.1076 114.747 28.4509 114.022 27.7151C113.297 26.9789 112.651 26.3027 112.193 25.8039C111.926 25.5509 111.689 25.2671 111.489 24.9585C111.795 25.1638 112.075 25.4048 112.325 25.6763C112.818 26.1435 113.487 26.8019 114.214 27.5402C114.941 28.2783 115.588 28.9562 116.046 29.4551C116.313 29.7065 116.548 29.989 116.747 30.2966Z" fill="#E0E0E0"/>
<path d="M146.003 60.6361C145.998 60.5869 145.996 60.5374 145.996 60.4879C145.995 60.3839 145.993 60.2438 145.99 60.0624C145.987 59.68 145.982 59.1302 145.977 58.4161C145.97 56.9715 145.96 54.8697 145.947 52.2009C145.933 46.8598 145.914 39.251 145.89 30.1405L146.003 30.2532C137.486 30.2581 127.485 30.2638 116.831 30.27H116.828L116.957 30.1405C116.951 41.3336 116.944 51.805 116.939 60.636L116.828 60.525C125.57 60.5485 132.849 60.5681 137.952 60.5818C140.502 60.5942 142.508 60.6041 143.886 60.6108C144.567 60.6164 145.09 60.6207 145.456 60.6236C145.628 60.6263 145.762 60.6284 145.861 60.63C145.909 60.6295 145.956 60.6315 146.003 60.6361C145.96 60.6413 145.917 60.6434 145.874 60.6425C145.777 60.644 145.648 60.646 145.48 60.6487C145.12 60.6516 144.604 60.6559 143.932 60.6616C142.559 60.6683 140.562 60.6781 138.023 60.6906C132.903 60.7043 125.599 60.7239 116.828 60.7474L116.717 60.7477L116.717 60.636C116.711 51.8049 116.705 41.3336 116.698 30.1405L116.698 30.011H116.831C127.485 30.0169 137.486 30.0227 146.003 30.0276H146.116L146.116 30.1405C146.092 39.2808 146.072 46.9147 146.058 52.2731C146.045 54.931 146.036 57.0242 146.029 58.4628C146.023 59.1675 146.019 59.71 146.015 60.0873C146.013 60.2636 146.011 60.3997 146.009 60.5007C146.01 60.5459 146.008 60.5912 146.003 60.6361Z" fill="#E0E0E0"/>
<path d="M136.335 40.5073H126.573V50.2692H136.335V40.5073Z" fill="#EBEBEB"/>
<path d="M228.9 18.0396H225.298V95.4896H228.9V18.0396Z" fill="#E0E0E0"/>
<path d="M173.097 18.6384H224.7C224.714 18.6384 224.727 18.6439 224.737 18.6536C224.746 18.6634 224.752 18.6766 224.752 18.6904V95.5454C224.752 95.5592 224.746 95.5724 224.737 95.5821C224.727 95.5919 224.714 95.5974 224.7 95.5974H173.097C173.084 95.5974 173.07 95.5919 173.061 95.5821C173.051 95.5723 173.045 95.5591 173.045 95.5453V18.6904C173.045 18.6766 173.051 18.6634 173.061 18.6536C173.07 18.6439 173.084 18.6384 173.097 18.6384Z" fill="#F5F5F5"/>
<path d="M225.298 96.1968H172.497C172.484 96.1968 172.47 96.1913 172.461 96.1816C172.451 96.1718 172.446 96.1586 172.445 96.1449V18.0918C172.445 18.078 172.451 18.0648 172.461 18.055C172.47 18.0453 172.484 18.0398 172.497 18.0398H225.298C225.312 18.0398 225.325 18.0453 225.335 18.055C225.345 18.0648 225.35 18.078 225.35 18.0918V96.1449C225.35 96.1517 225.349 96.1584 225.346 96.1647C225.344 96.171 225.34 96.1767 225.335 96.1816C225.33 96.1864 225.325 96.1902 225.318 96.1928C225.312 96.1954 225.305 96.1968 225.298 96.1968H225.298ZM173.695 94.9988H224.1C224.107 94.9988 224.114 94.9974 224.12 94.9948C224.126 94.9922 224.132 94.9883 224.137 94.9835C224.142 94.9787 224.145 94.9729 224.148 94.9666C224.151 94.9603 224.152 94.9536 224.152 94.9467V19.2898C224.152 19.276 224.146 19.2628 224.137 19.2531C224.127 19.2433 224.114 19.2379 224.1 19.2379H173.695C173.682 19.2379 173.669 19.2433 173.659 19.2531C173.649 19.2628 173.644 19.276 173.644 19.2898V94.9467C173.644 94.9536 173.645 94.9603 173.648 94.9666C173.65 94.9729 173.654 94.9787 173.659 94.9835C173.664 94.9883 173.669 94.9922 173.676 94.9948C173.682 94.9974 173.689 94.9988 173.695 94.9988Z" fill="#EBEBEB"/>
<path d="M178.303 23.3862H219.585C219.598 23.3862 219.612 23.3917 219.621 23.4014C219.631 23.4112 219.637 23.4244 219.637 23.4382V90.7468C219.637 90.7607 219.631 90.7739 219.621 90.7836C219.612 90.7934 219.598 90.7989 219.585 90.7989H178.303C178.29 90.7989 178.276 90.7934 178.267 90.7837C178.257 90.7739 178.251 90.7607 178.251 90.7469V23.4382C178.251 23.4244 178.257 23.4112 178.267 23.4014C178.276 23.3917 178.289 23.3862 178.303 23.3862H178.303Z" fill="white"/>
<path d="M187.312 42.4976H210.484C210.493 42.4976 210.501 42.501 210.507 42.5072C210.513 42.5133 210.517 42.5216 210.517 42.5303V69.7009C210.517 69.7096 210.513 69.7179 210.507 69.7241C210.501 69.7302 210.493 69.7337 210.484 69.7337H187.312C187.303 69.7337 187.295 69.7302 187.289 69.7241C187.283 69.718 187.279 69.7096 187.279 69.7009V42.5303C187.279 42.5216 187.283 42.5133 187.289 42.5072C187.295 42.501 187.303 42.4976 187.312 42.4976Z" fill="#EBEBEB"/>
<path d="M208.677 66.4006C208.707 66.4881 207.56 66.9905 205.378 66.7347C204.037 66.5595 202.762 66.0497 201.669 65.2524C200.184 64.1476 199.158 62.534 198.788 60.7203C198.573 59.5849 198.663 58.4127 199.051 57.3239C199.438 56.2351 200.108 55.269 200.992 54.5245C201.49 54.1066 202.055 53.7756 202.663 53.5453C203.33 53.2992 204.047 53.2166 204.753 53.3045C205.529 53.3799 206.261 53.6995 206.843 54.2173C207.17 54.5242 207.416 54.9069 207.56 55.3316C207.704 55.7563 207.741 56.2099 207.667 56.6522C207.508 57.4498 207.107 58.1793 206.52 58.7422C206.002 59.2541 205.412 59.6884 204.769 60.0317C203.487 60.7435 202.058 61.1516 200.593 61.2244C199.044 61.309 197.502 60.9582 196.143 60.2115C194.738 59.4303 193.598 58.2484 192.867 56.8165C192.112 55.3522 191.903 53.6662 192.28 52.062C192.649 50.5108 193.532 49.1301 194.786 48.1445C195.412 47.6596 196.125 47.2995 196.887 47.0838C197.659 46.8786 198.468 46.8534 199.252 47.01C200.081 47.1681 200.835 47.5935 201.399 48.2211C201.941 48.8627 202.239 49.6752 202.24 50.5153C202.248 51.2802 202.055 52.0338 201.68 52.7008C201.337 53.3062 200.888 53.8456 200.355 54.2935C199.393 55.1019 198.272 55.698 197.063 56.0427C195.94 56.3709 194.761 56.462 193.6 56.31C192.52 56.162 191.489 55.7669 190.586 55.1554C189.809 54.6444 189.15 53.9732 188.654 53.1868C188.157 52.4004 187.835 51.5169 187.708 50.5957C187.553 49.2043 187.935 47.8065 188.774 46.6864C189.275 45.9899 189.957 45.4446 190.747 45.1103C191.29 44.9048 191.599 44.9118 191.613 44.9635C191.635 45.0376 191.367 45.1572 190.927 45.4509C190.3 45.8805 189.776 46.4436 189.393 47.0998C188.789 48.1015 188.566 49.2867 188.764 50.4391C188.919 51.1813 189.227 51.8833 189.667 52.5004C190.108 53.1175 190.672 53.6361 191.324 54.0235C192.115 54.4858 192.997 54.7703 193.909 54.8571C194.82 54.9439 195.74 54.831 196.604 54.5263C197.578 54.2153 198.478 53.7064 199.246 53.0316C199.621 52.7353 199.927 52.3597 200.14 51.9317C200.353 51.5037 200.469 51.0339 200.48 50.5558C200.477 50.1187 200.313 49.698 200.02 49.3739C199.726 49.0499 199.324 48.8451 198.889 48.7986C198.384 48.7084 197.865 48.7328 197.37 48.8701C196.85 49.0291 196.364 49.2838 195.937 49.6211C195.03 50.3531 194.394 51.367 194.129 52.5018C193.862 53.6689 194.019 54.8933 194.573 55.9548C195.133 57.0481 196.002 57.9521 197.073 58.5537C198.124 59.134 199.314 59.4111 200.513 59.3541C201.696 59.3054 202.853 58.9892 203.896 58.4293C204.389 58.1775 204.843 57.8572 205.246 57.4778C205.579 57.1807 205.817 56.7925 205.931 56.3614C205.964 56.2005 205.956 56.0337 205.908 55.8767C205.859 55.7196 205.772 55.5774 205.654 55.4632C205.341 55.1876 204.95 55.0155 204.535 54.9705C204.093 54.9031 203.642 54.9414 203.218 55.0824C202.774 55.2368 202.359 55.4641 201.99 55.7549C201.291 56.3121 200.751 57.0428 200.422 57.8743C200.094 58.7057 199.99 59.6087 200.12 60.4931C200.369 62.0219 201.154 63.4122 202.334 64.4156C203.258 65.1829 204.347 65.7265 205.517 66.004C207.482 66.4611 208.662 66.2348 208.677 66.4006Z" fill="#E0E0E0"/>
<path d="M36.1575 178.405C33.466 176.719 30.4239 175.671 27.2647 175.344C25.8116 175.195 24.2239 175.237 23.0583 176.118C22.9238 176.195 22.8127 176.307 22.7364 176.442C22.6602 176.577 22.6218 176.731 22.6251 176.886C22.6931 177.105 22.8395 177.292 23.0364 177.411C26.6547 180.171 32.1279 180.52 36.1575 178.405" fill="url(#paint2_linear_0_3260)"/>
<path d="M35.9281 178.153C33.8685 176.641 31.9464 174.95 30.1844 173.1C28.4166 171.237 27.1741 168.939 26.5834 166.44C26.4288 165.681 26.3809 164.814 26.868 164.211C31.4463 167.787 35.0429 172.412 35.9281 178.153Z" fill="url(#paint3_linear_0_3260)"/>
<path d="M36.1089 178.37C35.6839 175.871 35.7199 173.315 36.2153 170.829C36.7905 168.367 38.1297 166.011 40.2322 164.606C41.0235 166.456 40.6833 168.586 40.126 170.519C39.2617 173.511 37.9165 176.344 36.1429 178.904" fill="url(#paint4_linear_0_3260)"/>
<path d="M40.5978 186.412C37.8734 186.743 35.5004 188.18 33.4661 190.022C31.4208 191.883 29.9967 194.327 29.3867 197.025C32.0592 196.86 34.3263 194.975 35.9707 192.862C37.615 190.749 38.7543 188.43 40.5606 186.454" fill="url(#paint5_linear_0_3260)"/>
<path d="M41.572 187.699C40.4996 184.975 40.1236 182.027 40.4782 179.122C40.8329 176.217 41.9069 173.446 43.603 171.061C45.1553 176.582 44.5854 182.819 41.572 187.699Z" fill="url(#paint6_linear_0_3260)"/>
<path d="M47.5019 194.76C45.0116 194.605 42.5308 195.187 40.3684 196.431C38.206 197.676 36.4574 199.529 35.3404 201.761C35.1896 202.062 35.0567 202.444 35.2585 202.714C35.3636 202.816 35.492 202.891 35.6324 202.932C35.7729 202.974 35.9213 202.98 36.0649 202.951C38.4616 202.796 40.5859 201.354 42.3387 199.712C44.0916 198.07 45.6185 196.173 47.5555 194.753" fill="url(#paint7_linear_0_3260)"/>
<path d="M47.3127 194.376C46.0368 190.265 45.9584 185.876 47.0867 181.723C47.5325 180.094 48.2808 178.38 49.7868 177.616C49.8471 177.577 49.9148 177.55 49.9858 177.537C50.0569 177.525 50.1297 177.527 50.1999 177.544C50.3221 177.608 50.4154 177.716 50.461 177.846C50.9669 178.986 51.1855 180.232 51.0976 181.476C51.0085 182.714 50.8182 183.943 50.5287 185.151C50.0545 187.397 49.8021 189.81 48.5704 191.747C48.2799 192.213 48.0183 192.697 47.7872 193.196C47.5541 193.688 47.5523 193.861 47.3386 194.253" fill="url(#paint8_linear_0_3260)"/>
<path d="M63.0107 196.714C61.8477 192.291 63.0822 186.927 65.8698 183.301C66.0751 183.034 66.3471 182.748 66.6826 182.779C67.196 182.826 67.329 183.51 67.306 184.025C67.0947 188.575 65.6061 192.972 63.0107 196.714" fill="url(#paint9_linear_0_3260)"/>
<path d="M64.4262 197.682C69.8008 199.08 75.9667 197.721 80.4369 194.425C77.7577 193.079 74.6947 192.703 71.7695 193.362C68.8742 194.024 66.2284 195.321 64.4262 197.682" fill="url(#paint10_linear_0_3260)"/>
<path d="M65.6203 194.736C68.6305 189.829 74.4013 186.625 80.1511 186.334C79.4887 188.673 77.5669 190.49 75.3985 191.589C73.2301 192.687 70.8095 193.165 68.4234 193.628C67.4952 193.809 66.222 194.007 65.6203 194.736" fill="url(#paint11_linear_0_3260)"/>
<path d="M63.3097 180.443C64.1247 177.651 64.9443 174.834 65.168 171.933C65.3919 169.033 64.9783 166.005 63.4731 163.516C60.6615 168.956 60.3769 175.313 63.2252 180.735" fill="url(#paint12_linear_0_3260)"/>
<path d="M72.7769 175.659C76.0651 169.683 82.7734 164.909 89.5615 164.24C86.9429 170.76 79.8016 175.799 72.7769 175.659Z" fill="url(#paint13_linear_0_3260)"/>
<path d="M70.7073 176.83C75.6111 177.577 79.7891 180.709 84.3718 182.607C85.3324 183.07 86.3973 183.274 87.4609 183.199C87.9554 183.193 88.4361 183.035 88.838 182.747C89.24 182.458 89.5439 182.054 89.7089 181.588C89.8739 181.122 89.892 180.616 89.7608 180.139C89.6295 179.662 89.3552 179.237 88.9749 178.921C88.3254 178.322 87.5625 177.859 86.7311 177.56C81.7398 175.482 76.3871 175.43 71.1294 176.69" fill="url(#paint14_linear_0_3260)"/>
<path d="M67.8698 180.269C68.98 180.587 69.3593 181.162 70.2385 181.911C73.2366 184.459 76.7827 186.281 80.6004 187.234C80.9962 187.332 81.5155 187.371 81.7116 187.014C81.883 186.701 81.6661 186.323 81.4437 186.045C79.7783 184.092 77.6168 182.625 75.1872 181.797C72.7959 180.907 70.7241 179.834 67.8699 180.064" fill="url(#paint15_linear_0_3260)"/>
<path d="M64.6673 159.497C66.6781 161.35 69.0544 162.763 71.6435 163.644C74.2327 164.525 76.9775 164.855 79.7016 164.612C79.9521 164.616 80.1954 164.528 80.3861 164.366C80.7645 163.954 80.3105 163.319 79.8696 162.975C75.4494 159.529 70.0953 158.1 64.6673 159.497" fill="url(#paint16_linear_0_3260)"/>
<path d="M68.4644 158.107C71.1259 156.148 74.2128 154.847 77.4732 154.309C80.7336 153.771 84.075 154.012 87.2246 155.011C84.862 157.34 81.5842 158.593 78.2849 158.936C74.9881 159.236 71.6642 158.956 68.4644 158.107" fill="url(#paint17_linear_0_3260)"/>
<path d="M66.956 148.561C66.5218 144.149 66.8036 140.667 66.4973 136.234C66.4729 135.88 66.3967 135.454 66.0655 135.326C65.6042 135.149 65.2197 135.716 65.0684 136.186C64.426 138.241 64.2615 140.415 64.5875 142.543C64.9135 144.671 65.7214 146.696 66.9495 148.464" fill="url(#paint18_linear_0_3260)"/>
<path d="M66.6377 149.049C69.628 147.2 71.8714 144.784 73.946 141.946C75.3894 139.971 76.6064 137.605 76.2784 135.18C74.2512 135.14 72.325 136.258 71.0066 137.798C69.7465 139.395 68.8315 141.236 68.3192 143.205C67.7339 145.146 67.3244 147.141 66.6377 149.049" fill="url(#paint19_linear_0_3260)"/>
<path d="M73.8187 147.054C80.3974 144.617 86.4882 141.026 91.8043 136.448C89.6558 135.583 87.196 136.101 85.0482 136.968C80.1409 138.949 76.1316 142.293 73.7249 147.006" fill="url(#paint20_linear_0_3260)"/>
<path d="M68.6577 151.462C71.9777 151.825 75.3504 152.061 78.6446 151.511C81.8824 150.97 84.9422 149.686 87.9679 148.413C88.2318 148.338 88.4579 148.166 88.6013 147.932C88.649 147.792 88.6529 147.64 88.6123 147.498C88.5717 147.355 88.4887 147.228 88.3742 147.134C88.1414 146.95 87.8693 146.823 87.5792 146.762C84.2899 145.842 80.7401 146.272 77.5037 147.364C74.4202 148.418 71.4554 149.791 68.6577 151.462" fill="url(#paint21_linear_0_3260)"/>
<path d="M49.6992 159.647C47.4341 155.075 47.5811 149.739 49.5379 145.026C50.9154 147.125 51.0836 149.798 50.8317 152.296C50.5798 154.794 49.8195 157.364 49.7702 159.874" fill="url(#paint22_linear_0_3260)"/>
<path d="M40.6502 155.083C37.8144 155.046 35.0021 155.601 32.3929 156.713C29.7838 157.824 27.4351 159.468 25.4971 161.538C28.3198 161.982 31.2269 161.254 33.7946 160C36.3621 158.746 38.6437 156.987 40.9052 155.241" fill="url(#paint23_linear_0_3260)"/>
<path d="M34.5656 153.048C31.7988 152.824 29.1367 152.482 26.4765 153.297C23.8164 154.112 21.3953 155.962 20.311 158.525C22.9215 158.735 25.5407 158.241 27.8947 157.092C30.2346 155.946 32.4672 154.593 34.5656 153.048" fill="url(#paint24_linear_0_3260)"/>
<path d="M43.5738 153.141C41.0849 151.51 38.529 149.85 35.6309 149.174C32.7329 148.499 29.3744 148.998 27.3535 151.182C29.6995 152.559 32.5458 152.722 35.2658 152.719C37.9859 152.717 41.3205 152.686 43.8847 153.594" fill="url(#paint25_linear_0_3260)"/>
<path d="M43.5876 153.273C39.3324 149.095 37.7194 141.589 39.4313 135.876C42.7904 141.018 44.2595 147.168 43.5876 153.273Z" fill="url(#paint26_linear_0_3260)"/>
<path d="M55.2893 141.434C56.0918 139.568 56.6563 137.61 57.3761 135.711C58.0327 133.784 59.0416 131.995 60.3515 130.436C61.682 128.869 63.5746 127.888 65.6215 127.704C64.9673 130.583 63.7197 133.294 61.9586 135.663C60.1975 138.032 57.9615 140.008 55.3935 141.464" fill="url(#paint27_linear_0_3260)"/>
<path d="M53.1708 143.901C51.8427 142.073 50.3084 139.592 48.5075 138.228C46.7066 136.863 44.3616 136.037 42.1638 136.561C43.3019 138.556 44.8893 140.258 46.7999 141.532C48.7106 142.806 50.8919 143.617 53.1708 143.901" fill="url(#paint28_linear_0_3260)"/>
<path d="M53.596 141.586C52.7256 139.374 51.8488 137.139 51.4968 134.788C51.1448 132.438 51.359 129.927 52.561 127.876C54.8968 132.291 55.649 137.031 53.7151 141.636" fill="url(#paint29_linear_0_3260)"/>
<path d="M55.3108 127.876C56.6338 123.499 60.6417 120.276 64.9686 118.797C65.5045 118.578 66.0853 118.491 66.6619 118.543C66.9494 118.575 67.2211 118.691 67.4431 118.876C67.6652 119.061 67.8275 119.308 67.91 119.585C68.0678 120.33 67.4528 120.997 66.8742 121.492C63.4914 124.38 59.5575 126.552 55.3108 127.876" fill="url(#paint30_linear_0_3260)"/>
<path d="M55.3585 124.296C55.5268 121.474 55.7028 118.611 56.6207 115.937C57.5386 113.263 59.3077 110.755 61.8813 109.585C62.3191 112.435 61.0615 115.271 59.5449 117.723C58.0284 120.176 56.2004 122.491 55.2893 125.227" fill="url(#paint31_linear_0_3260)"/>
<path d="M55.2885 126.239C54.195 123.049 54.082 118.997 52.1719 116.218C50.8366 114.276 48.6983 112.952 47.5479 110.895C46.8536 112.868 46.95 115.034 47.8169 116.938C48.6857 118.82 49.8822 120.533 51.3505 121.997C52.764 123.506 53.9744 124.642 55.2885 126.239" fill="url(#paint32_linear_0_3260)"/>
<path d="M55.3106 220.179C55.2256 220.179 55.1519 198.899 55.146 172.655C55.1401 146.403 55.2042 125.127 55.2891 125.127C55.374 125.127 55.4477 146.402 55.4536 172.655C55.4595 198.899 55.3954 220.179 55.3106 220.179Z" fill="url(#paint33_linear_0_3260)"/>
<path d="M73.9062 156.436C73.6495 156.561 73.3817 156.662 73.1061 156.736C72.5313 156.93 71.7917 157.18 70.9043 157.479C69.0476 158.112 66.4974 159.028 63.7293 160.162C60.9885 161.338 58.4036 162.292 56.9317 163.568C56.344 164.057 55.8767 164.676 55.5658 165.375C55.3547 165.874 55.317 166.18 55.2889 166.175C55.2783 166.1 55.2814 166.025 55.298 165.951C55.3304 165.74 55.3827 165.533 55.4543 165.331C55.7328 164.589 56.1908 163.927 56.7873 163.405C57.676 162.654 58.6696 162.037 59.7368 161.573C60.9165 161.022 62.2243 160.448 63.6127 159.877C66.3891 158.74 68.9593 157.853 70.8368 157.273C71.7751 156.98 72.5408 156.764 73.0716 156.622C73.3433 156.534 73.6228 156.472 73.9062 156.436Z" fill="url(#paint34_linear_0_3260)"/>
<path d="M80.0019 141.464C79.9374 141.553 79.8621 141.633 79.7777 141.703C79.5964 141.873 79.3707 142.085 79.0949 142.345C78.4606 142.921 77.5977 143.705 76.5457 144.66C74.3446 146.62 71.3596 149.278 68.0612 152.215C64.7492 155.163 61.8871 157.98 59.9035 160.101C58.9102 161.16 58.1281 162.038 57.5945 162.65C57.3454 162.934 57.1416 163.167 56.978 163.354C56.9112 163.441 56.8339 163.52 56.7477 163.588C56.7968 163.49 56.858 163.398 56.9298 163.315C57.0587 163.144 57.2462 162.889 57.5027 162.573C58.0091 161.936 58.7681 161.034 59.7436 159.954C62.3054 157.156 65.0134 154.497 67.8564 151.986C71.1798 149.044 74.2041 146.402 76.4018 144.497C77.4805 143.572 78.3653 142.813 79.0156 142.255C79.307 142.013 79.5454 141.815 79.7366 141.657C79.8167 141.582 79.9058 141.517 80.0019 141.464V141.464Z" fill="url(#paint35_linear_0_3260)"/>
<path d="M64.4848 155.213C64.3979 155.174 65.0898 153.576 65.7791 151.556C66.475 149.536 66.8024 147.831 66.8906 147.846C66.9709 147.854 66.775 149.609 66.0705 151.655C65.7747 152.526 65.4308 153.379 65.0403 154.212C64.9042 154.571 64.7171 154.908 64.4848 155.213Z" fill="url(#paint36_linear_0_3260)"/>
<path d="M55.3293 168.093C55.1394 167.913 54.9683 167.715 54.8189 167.5C54.4726 167.056 54.0343 166.494 53.5115 165.824C52.4132 164.404 50.8949 162.445 49.1933 160.3C47.4904 158.155 45.9265 156.232 44.7932 154.84C44.2589 154.179 43.811 153.624 43.4571 153.186C43.2822 152.992 43.1278 152.78 42.9962 152.555C43.1986 152.72 43.3836 152.905 43.5482 153.108C43.889 153.478 44.3714 154.021 44.9597 154.7C46.1366 156.057 47.7291 157.961 49.4342 160.109C51.1379 162.256 52.6308 164.239 53.6855 165.693C54.2129 166.42 54.6329 167.013 54.9153 167.429C55.0757 167.636 55.2144 167.858 55.3293 168.093Z" fill="url(#paint37_linear_0_3260)"/>
<path d="M51.2518 162.858C50.4293 161.948 49.8427 160.85 49.5436 159.66C49.2229 158.617 49.0917 157.525 49.1563 156.436L49.2921 156.447C49.2313 156.693 49.1868 156.823 49.1625 156.819C49.1383 156.815 49.137 156.678 49.1572 156.425L49.293 156.436C49.3607 157.498 49.5436 158.55 49.8385 159.572C50.3888 161.473 51.3343 162.806 51.2518 162.858Z" fill="url(#paint38_linear_0_3260)"/>
<path d="M45.988 156.236C45.6211 155.956 45.2204 155.724 44.7954 155.544C43.7224 155.224 42.5942 155.135 41.4842 155.28C40.3598 155.367 39.2446 155.547 38.1498 155.818C37.7007 155.96 37.2423 156.07 36.7778 156.148C37.1864 155.904 37.6292 155.722 38.0914 155.609C39.1872 155.271 40.3175 155.058 41.4611 154.974C42.6127 154.82 43.7845 154.946 44.8769 155.342C45.3397 155.502 45.7324 155.819 45.988 156.236Z" fill="url(#paint39_linear_0_3260)"/>
<path d="M44.7399 154.632C44.7164 154.68 44.0452 154.353 42.9127 153.966C39.9531 152.953 36.7839 152.711 33.7049 153.264C32.5269 153.475 31.8141 153.696 31.7981 153.645C31.9482 153.552 32.1115 153.482 32.2825 153.439C32.7339 153.281 33.1948 153.151 33.6624 153.051C36.7731 152.369 40.0156 152.617 42.9871 153.762C43.4341 153.932 43.8701 154.13 44.2923 154.354C44.4547 154.423 44.6056 154.517 44.7399 154.632V154.632Z" fill="url(#paint40_linear_0_3260)"/>
<path d="M55.289 147.845C55.2067 147.866 54.6101 145.794 53.9566 143.217C53.3028 140.639 52.8398 138.533 52.9221 138.512C53.0045 138.492 53.6009 140.564 54.2547 143.141C54.9082 145.718 55.3714 147.825 55.289 147.845Z" fill="url(#paint41_linear_0_3260)"/>
<path d="M55.3741 147.845C55.2825 147.875 54.8988 146.49 53.8972 145.074C53.2718 144.237 52.5412 143.483 51.7234 142.831C52.0333 142.907 52.3208 143.055 52.5624 143.264C53.1798 143.715 53.7163 144.267 54.1489 144.898C54.81 145.755 55.2326 146.772 55.3741 147.845Z" fill="url(#paint42_linear_0_3260)"/>
<path d="M55.3109 208.835C55.2777 208.84 55.2151 208.323 54.9753 207.42C54.623 206.148 54.1468 204.914 53.5533 203.736C52.0831 200.731 49.4079 196.922 46.0086 193.106C44.3242 191.182 42.6899 189.366 41.3029 187.628C40.0585 186.099 38.9336 184.477 37.9379 182.775C37.27 181.625 36.7017 180.42 36.2393 179.174C36.0831 178.73 35.9685 178.383 35.9057 178.144C35.8632 178.025 35.8338 177.901 35.8182 177.776C35.8457 177.767 36.0005 178.263 36.351 179.13C36.8532 180.352 37.4464 181.533 38.1257 182.665C39.1417 184.34 40.2773 185.939 41.5236 187.45C42.9161 189.171 44.5528 190.976 46.2402 192.904C49.6486 196.73 52.3175 200.587 53.7492 203.641C54.3311 204.839 54.7812 206.096 55.0915 207.391C55.1728 207.743 55.2357 208.1 55.2798 208.458C55.3039 208.583 55.3143 208.709 55.3109 208.835Z" fill="url(#paint43_linear_0_3260)"/>
<path d="M72.1146 189.855C71.8322 190.039 71.538 190.204 71.234 190.349C70.4377 190.798 69.6743 191.302 68.9496 191.859C67.8804 192.693 66.8775 193.607 65.9497 194.596C64.8968 195.708 63.8122 197 62.705 198.384C60.4918 201.161 58.4218 203.618 57.1823 205.58C56.5529 206.553 56.0954 207.373 55.7956 207.948C55.6539 208.254 55.492 208.551 55.3108 208.835C55.3249 208.748 55.3524 208.664 55.3924 208.585C55.458 208.427 55.5469 208.189 55.6883 207.895C56.0746 207.059 56.5121 206.246 56.9984 205.464C58.2021 203.455 60.2557 200.964 62.4652 198.191C63.5744 196.805 64.6723 195.51 65.7451 194.4C66.6918 193.41 67.7201 192.502 68.8193 191.685C69.5627 191.138 70.352 190.655 71.1785 190.243C71.4702 190.097 71.7084 190.007 71.8658 189.939C71.9439 189.898 72.0278 189.87 72.1146 189.855V189.855Z" fill="url(#paint44_linear_0_3260)"/>
<path d="M72.4426 196.012C71.8296 196.148 71.2074 196.238 70.5811 196.283C69.0861 196.437 67.6083 196.728 66.1665 197.152C64.7412 197.615 63.4047 198.317 62.2137 199.226C61.3025 199.931 60.8729 200.513 60.8306 200.479C60.8959 200.321 60.9893 200.176 61.1063 200.051C61.3959 199.688 61.7208 199.356 62.0761 199.058C63.2549 198.076 64.6115 197.329 66.0721 196.859C67.5327 196.424 69.0383 196.158 70.5595 196.066C71.1843 195.991 71.8146 195.972 72.4426 196.012Z" fill="url(#paint45_linear_0_3260)"/>
<path d="M61.3751 199.803C61.2779 199.748 62.1169 198.466 62.7675 196.743C63.3782 195.004 63.5211 193.479 63.6307 193.496C63.6772 193.829 63.6667 194.166 63.5997 194.495C63.508 195.297 63.3258 196.086 63.0567 196.848C62.7743 197.603 62.4124 198.327 61.9771 199.006C61.8223 199.303 61.6188 199.572 61.3751 199.803Z" fill="url(#paint46_linear_0_3260)"/>
<path d="M77.5565 173.324C77.4639 173.389 77.3639 173.442 77.2586 173.483C77.0276 173.588 76.7383 173.719 76.3838 173.88C76.0006 174.045 75.5355 174.253 75.0115 174.529C74.4856 174.801 73.8719 175.08 73.233 175.464C72.9085 175.648 72.57 175.841 72.2174 176.041C71.8654 176.244 71.517 176.484 71.1463 176.716C70.3977 177.17 69.6479 177.73 68.8473 178.301C65.4188 180.855 62.4284 183.949 59.9929 187.463C59.4496 188.283 58.9162 189.051 58.488 189.815C58.2687 190.194 58.0403 190.55 57.8499 190.909C57.6618 191.268 57.4811 191.613 57.3076 191.943C56.9459 192.595 56.6876 193.218 56.4345 193.753C56.1762 194.286 55.9839 194.758 55.8328 195.146C55.6839 195.506 55.5624 195.8 55.4654 196.034C55.4284 196.141 55.3787 196.242 55.3174 196.337C55.3339 196.226 55.364 196.117 55.407 196.013C55.49 195.773 55.5939 195.472 55.7212 195.103C55.8556 194.707 56.0325 194.226 56.2768 193.684C56.5161 193.14 56.7621 192.507 57.1133 191.846C57.282 191.51 57.458 191.16 57.6413 190.796C57.8274 190.432 58.052 190.07 58.268 189.686C58.6896 188.912 59.2186 188.132 59.7596 187.302C62.1878 183.742 65.2038 180.621 68.6786 178.073C69.4896 177.504 70.2503 176.949 71.0099 176.501C71.386 176.272 71.7398 176.035 72.0972 175.837C72.455 175.641 72.7989 175.453 73.1288 175.273C73.7781 174.899 74.4019 174.632 74.9374 174.374C75.471 174.112 75.9451 173.918 76.3368 173.77C76.7011 173.63 76.9984 173.516 77.2358 173.425C77.3382 173.379 77.4459 173.345 77.5565 173.324Z" fill="url(#paint47_linear_0_3260)"/>
<path d="M64.2577 182.235C64.3814 181.804 64.6371 181.423 64.9889 181.146C65.8078 180.435 66.8509 180.034 67.9354 180.015C68.9988 180.011 70.0526 180.217 71.036 180.621C71.4528 180.752 71.8478 180.944 72.2083 181.191C71.7836 181.107 71.3673 180.985 70.9645 180.827C69.9925 180.494 68.9724 180.324 67.9452 180.323C66.9259 180.345 65.9401 180.691 65.1308 181.311C64.8175 181.597 64.5257 181.906 64.2577 182.235Z" fill="url(#paint48_linear_0_3260)"/>
<path d="M62.2691 184.286C62.1847 184.239 62.9348 183.139 63.1056 181.564C63.3021 179.991 62.8252 178.749 62.9182 178.722C63.096 178.955 63.2146 179.227 63.2637 179.515C63.6245 180.886 63.4545 182.343 62.7878 183.594C62.5281 184.064 62.2987 184.307 62.2691 184.286Z" fill="url(#paint49_linear_0_3260)"/>
<path d="M40.6129 211.884C41.0714 220.016 43.522 228.287 47.2913 236.649H63.6826C67.2773 228.37 69.5585 220.112 69.9641 211.884H40.6129Z" fill="#E2A160"/>
<path d="M67.3074 225.043C67.3074 225.128 61.9106 225.197 55.2548 225.197C48.5967 225.197 43.201 225.128 43.201 225.043C43.201 224.958 48.5967 224.889 55.2548 224.889C61.9106 224.889 67.3074 224.958 67.3074 225.043Z" fill="#FAFAFA"/>
<path d="M66.9413 227.989C66.9413 228.074 61.8819 228.143 55.6423 228.143C49.4005 228.143 44.3423 228.074 44.3423 227.989C44.3423 227.905 49.4005 227.836 55.6423 227.836C61.8819 227.836 66.9413 227.905 66.9413 227.989Z" fill="#FAFAFA"/>
<path d="M47.5565 217.223C47.6415 217.223 47.7104 218.914 47.7104 220.999C47.7104 223.084 47.6415 224.774 47.5565 224.774C47.4717 224.774 47.4028 223.084 47.4028 220.999C47.4028 218.914 47.4717 217.223 47.5565 217.223Z" fill="#FAFAFA"/>
<path d="M56.3383 217.223C56.4233 217.223 56.4921 218.974 56.4921 221.133C56.4921 223.293 56.4233 225.043 56.3383 225.043C56.2534 225.043 56.1845 223.293 56.1845 221.133C56.1845 218.974 56.2534 217.223 56.3383 217.223Z" fill="#FAFAFA"/>
<path d="M64.5832 217.157C64.6682 217.157 64.737 218.943 64.737 221.145C64.737 223.348 64.6682 225.133 64.5832 225.133C64.4983 225.133 64.4295 223.348 64.4295 221.145C64.4295 218.943 64.4983 217.157 64.5832 217.157Z" fill="#FAFAFA"/>
<path d="M69.4435 217.223C69.4435 217.308 63.1137 217.377 55.3072 217.377C47.498 217.377 41.1695 217.308 41.1695 217.223C41.1695 217.138 47.498 217.07 55.3072 217.07C63.1137 217.07 69.4435 217.138 69.4435 217.223Z" fill="#FAFAFA"/>
<path d="M204.04 128.381H197.306V237.09H204.04V128.381Z" fill="#E0E0E0"/>
<path d="M294.487 132.517H121.325C120.914 132.517 120.506 132.436 120.126 132.278C119.746 132.121 119.401 131.89 119.11 131.599C118.819 131.309 118.588 130.963 118.431 130.583C118.274 130.203 118.193 129.796 118.193 129.384C118.193 128.973 118.274 128.566 118.431 128.186C118.588 127.806 118.819 127.46 119.11 127.169C119.401 126.879 119.746 126.648 120.126 126.49C120.506 126.333 120.914 126.252 121.325 126.252H294.487C295.318 126.252 296.115 126.582 296.702 127.169C297.29 127.757 297.62 128.554 297.62 129.384V129.384C297.62 130.215 297.29 131.012 296.702 131.599C296.115 132.187 295.318 132.517 294.487 132.517V132.517Z" fill="#455A64"/>
<path d="M145.77 112.417H130.346L131.5 120.9C131.5 120.9 132.507 125.077 134.851 125.077H141.536C141.536 125.077 144.238 123.553 144.785 120.505L145.77 112.417Z" fill="#E0E0E0"/>
<path d="M131.506 116.791C131.431 116.771 131.356 116.754 131.281 116.736C131.263 116.732 131.134 116.709 131.251 116.729C131.377 116.749 131.214 116.726 131.183 116.724C131.016 116.718 130.849 116.72 130.682 116.731C130.846 116.726 130.706 116.727 130.623 116.744C130.534 116.762 130.446 116.784 130.36 116.809C130.285 116.831 130.213 116.861 130.139 116.883C130.039 116.912 130.168 116.869 130.181 116.863C130.135 116.884 130.088 116.906 130.041 116.929C129.893 117.008 129.75 117.095 129.612 117.191C129.525 117.25 129.638 117.173 129.648 117.164C129.62 117.191 129.589 117.215 129.56 117.241C129.493 117.301 129.429 117.364 129.368 117.43C129.321 117.48 129.225 117.61 129.316 117.48C129.264 117.554 129.213 117.629 129.166 117.707C129.126 117.775 129.095 117.848 129.055 117.916C129.003 118.006 129.064 117.89 129.07 117.875C129.051 117.924 129.033 117.973 129.016 118.023C128.987 118.11 128.963 118.199 128.942 118.289C128.934 118.324 128.895 118.545 128.91 118.437C128.925 118.329 128.903 118.552 128.901 118.589C128.897 118.681 128.896 118.773 128.9 118.865C128.902 118.918 128.907 118.971 128.91 119.023C128.912 119.042 128.932 119.17 128.913 119.057C128.895 118.949 128.938 119.17 128.946 119.206C128.964 119.283 128.985 119.359 129.009 119.434C129.028 119.494 129.115 119.705 129.04 119.544C129.111 119.7 129.194 119.849 129.289 119.991C129.311 120.024 129.334 120.056 129.357 120.088C129.347 120.074 129.262 119.985 129.336 120.054C129.411 120.125 129.476 120.207 129.553 120.278C129.581 120.304 129.747 120.433 129.667 120.378C129.586 120.322 129.766 120.44 129.796 120.458C129.862 120.499 129.929 120.537 129.998 120.572C130.032 120.589 130.067 120.605 130.102 120.623C129.987 120.564 130.045 120.601 130.13 120.632C130.303 120.694 130.478 120.727 130.654 120.772C130.758 120.798 130.612 120.768 130.599 120.767C130.65 120.772 130.701 120.778 130.753 120.781C130.856 120.788 130.96 120.79 131.063 120.786C131.102 120.785 131.14 120.783 131.179 120.78C131.201 120.778 131.369 120.76 131.247 120.776C131.13 120.792 131.258 120.773 131.277 120.769C131.327 120.759 131.378 120.749 131.428 120.737C131.528 120.713 131.626 120.681 131.723 120.648C131.739 120.643 131.857 120.593 131.756 120.637C131.64 120.688 131.855 120.585 131.855 120.585C132.068 120.461 132.321 120.427 132.559 120.49C132.798 120.553 133.001 120.707 133.125 120.92C133.25 121.132 133.285 121.386 133.222 121.624C133.16 121.862 133.006 122.066 132.794 122.191C131.904 122.652 130.873 122.762 129.907 122.497C128.94 122.233 128.109 121.614 127.578 120.764C127.074 119.875 126.918 118.83 127.14 117.833C127.253 117.348 127.461 116.89 127.752 116.486C128.042 116.082 128.41 115.739 128.833 115.477C129.3 115.184 129.822 114.99 130.367 114.908C130.912 114.825 131.468 114.856 132.001 114.998C132.239 115.064 132.441 115.221 132.562 115.436C132.684 115.65 132.716 115.904 132.65 116.142C132.585 116.38 132.427 116.582 132.213 116.703C131.998 116.825 131.744 116.857 131.507 116.791L131.506 116.791Z" fill="#C7C7C7"/>
<path d="M128.095 126.324L133.243 126.661H142.003L147.822 126.324V124.797H128.095V126.324Z" fill="#C5C5C5"/>
<path d="M106.093 139.869C106.326 129.869 103.133 128.934 99.3679 124.295C95.6032 119.656 88.432 110.034 88.432 110.034C86.5101 109.644 80.988 105.144 79.3816 103.707C77.7752 102.271 79.4817 101.604 79.4817 101.604C78.9959 99.094 82.2774 100.433 82.2774 100.433C82.2774 100.433 81.8192 98.845 84.4282 99.9513C87.0373 101.058 89.9322 105.328 93.0638 106.62C96.1954 107.913 103.743 116.314 107.525 120.066C111.308 123.817 114.486 122.851 114.486 122.851C114.486 122.851 105.861 149.869 106.093 139.869Z" fill="#E2A160"/>
<path opacity="0.2" d="M101.878 127.105C104.438 129.867 106.271 132.208 106.093 139.868C105.86 149.868 114.486 122.85 114.486 122.85C113.532 123.049 112.542 122.984 111.622 122.665C110.426 124.737 106.449 130.679 101.878 127.105Z" fill="black"/>
<path opacity="0.4" d="M79.3816 103.707C80.9881 105.144 86.5102 109.643 88.432 110.034C88.432 110.034 89.182 111.04 90.3209 112.554C94.1864 113.295 95.3862 110.571 95.7409 108.427C94.934 107.707 94.0335 107.099 93.0638 106.62C89.9323 105.327 87.0374 101.057 84.4284 99.9508C81.8193 98.8445 82.2774 100.433 82.2774 100.433C82.2774 100.433 78.9961 99.0936 79.4818 101.604C79.4818 101.604 77.7751 102.27 79.3816 103.707Z" fill="white"/>
<path d="M79.1667 102.766C78.8032 102.341 78.2908 102.071 77.7347 102.013C78.2727 101.448 79.4063 102.142 79.4063 102.142L79.1667 102.766Z" fill="#E2A160"/>
<path d="M80.0205 101.221C79.9447 100.787 79.7281 100.39 79.4041 100.092C79.0802 99.7943 78.667 99.6113 78.2286 99.5718C78.7072 99.3938 79.233 99.3885 79.7152 99.5568C80.1973 99.7252 80.6055 100.057 80.8694 100.494L80.0205 101.221Z" fill="#E2A160"/>
<path d="M82.6245 100.205C82.6204 99.8408 82.5025 99.4873 82.2873 99.1938C82.0721 98.9003 81.7704 98.6815 81.4245 98.5682C82.7648 98.1844 83.4202 99.9086 83.4202 99.9086L82.6245 100.205Z" fill="#E2A160"/>
<g opacity="0.6">
<path opacity="0.6" d="M79.1667 102.766C78.8032 102.341 78.2908 102.071 77.7347 102.013C78.2727 101.448 79.4063 102.142 79.4063 102.142L79.1667 102.766Z" fill="white"/>
<path opacity="0.6" d="M80.0205 101.221C79.9447 100.787 79.7281 100.39 79.4041 100.092C79.0802 99.7943 78.667 99.6113 78.2286 99.5718C78.7072 99.3938 79.233 99.3885 79.7152 99.5568C80.1973 99.7252 80.6055 100.057 80.8694 100.494L80.0205 101.221Z" fill="white"/>
<path opacity="0.6" d="M82.6245 100.205C82.6204 99.8408 82.5025 99.4873 82.2873 99.1938C82.0721 98.9003 81.7704 98.6815 81.4245 98.5682C82.7648 98.1844 83.4202 99.9086 83.4202 99.9086L82.6245 100.205Z" fill="white"/>
</g>
<path opacity="0.2" d="M84.677 103.912C83.8279 102.925 82.6434 102.287 81.3518 102.121C84.5169 101.229 84.677 103.912 84.677 103.912Z" fill="black"/>
<path d="M98.7225 124.747L140.808 159.01C140.808 159.01 142.664 158.397 144.073 160.708C144.464 161.603 144.527 162.607 144.251 163.544L129.313 183.377C128.621 184.32 127.617 184.988 126.479 185.261C125.341 185.534 124.144 185.395 123.099 184.869C122.463 184.527 121.916 184.042 121.5 183.452C121.085 182.862 120.813 182.183 120.706 181.469L100.308 151.821" fill="#E2A160"/>
<path d="M100.31 151.821C100.31 151.821 100.337 151.873 100.399 151.97L100.681 152.397C100.939 152.779 101.31 153.331 101.79 154.043C102.772 155.483 104.194 157.572 105.984 160.199C109.591 165.462 114.676 172.881 120.609 181.537L120.59 181.493C120.721 182.194 120.986 182.864 121.369 183.466C121.773 184.078 122.322 184.583 122.966 184.934C123.628 185.293 124.364 185.495 125.117 185.526C125.87 185.556 126.619 185.414 127.309 185.11C128.014 184.8 128.645 184.341 129.158 183.765C129.652 183.168 130.081 182.555 130.551 181.945C131.473 180.721 132.406 179.483 133.35 178.23C137.224 173.082 140.939 168.146 144.348 163.616L144.362 163.597L144.367 163.578C144.524 162.991 144.578 162.381 144.525 161.776C144.498 161.473 144.424 161.177 144.304 160.898C144.171 160.632 144.01 160.381 143.824 160.148C143.471 159.68 143.008 159.304 142.476 159.055C141.942 158.817 141.343 158.764 140.774 158.904L140.905 158.952C136.433 151.676 107.025 136.764 104.39 132.478C103.073 130.35 102.033 128.671 101.318 127.516L100.499 126.21L100.285 125.877C100.263 125.839 100.237 125.802 100.208 125.768C100.225 125.809 100.246 125.849 100.27 125.887L100.469 126.229C100.653 126.537 100.917 126.979 101.258 127.552C101.961 128.715 102.982 130.405 104.277 132.547C106.893 136.845 136.274 151.774 140.714 159.068L140.757 159.14L140.845 159.116C141.36 158.996 141.901 159.048 142.385 159.264C142.881 159.499 143.312 159.852 143.642 160.292C143.985 160.745 144.21 161.277 144.296 161.839C144.383 162.401 144.328 162.975 144.138 163.511L144.157 163.473C140.744 167.999 137.026 172.932 133.147 178.077C132.204 179.329 131.271 180.568 130.349 181.793C129.885 182.397 129.438 183.031 128.969 183.598C128.481 184.147 127.881 184.584 127.209 184.881C126.555 185.17 125.843 185.306 125.128 185.278C124.413 185.25 123.714 185.059 123.085 184.72C122.474 184.388 121.955 183.911 121.571 183.332C121.204 182.757 120.951 182.117 120.825 181.446L120.82 181.421L120.806 181.401C114.843 172.766 109.732 165.365 106.106 160.115C104.292 157.505 102.85 155.429 101.855 153.998C101.362 153.295 100.979 152.751 100.715 152.374C100.587 152.196 100.489 152.059 100.416 151.958C100.348 151.865 100.31 151.821 100.31 151.821Z" fill="#1A2E35"/>
<path d="M63.1735 60.2232C63.3885 59.2041 63.9147 58.277 64.6794 57.5699C65.444 56.8628 66.4094 56.4106 67.4421 56.2758C68.3523 55.0412 69.6493 54.1466 71.1267 53.7344C72.6041 53.3222 74.177 53.416 75.5949 54.001C76.3112 53.2241 77.2166 52.6461 78.2229 52.3235C79.2292 52.0009 80.302 51.9447 81.3365 52.1604C82.371 52.3761 83.3319 52.8563 84.1254 53.5541C84.919 54.252 85.5181 55.1436 85.8642 56.142C86.831 55.6763 87.92 55.5269 88.9765 55.7151C90.033 55.9033 91.0034 56.4194 91.7499 57.1903C92.4965 57.9613 92.9812 58.9477 93.1354 60.0097C93.2895 61.0717 93.1052 62.1553 92.6087 63.1067C93.825 63.1346 94.9877 63.6131 95.8713 64.4494C96.7549 65.2858 97.2964 66.4204 97.391 67.6334C97.4856 68.8464 97.1264 70.0513 96.3832 71.0145C95.6399 71.9777 94.5655 72.6306 93.3682 72.8467L65.6988 65.4602C64.7873 64.9564 64.0547 64.1819 63.6023 63.2438C63.15 62.3057 63.0001 61.2502 63.1735 60.2232Z" fill="#1A2E35"/>
<path d="M102.736 97.9331C101.25 92.7417 97.9143 82.7096 94.2482 73.3014C92.3475 68.4236 88.6798 64.4403 83.9751 62.1443C79.2704 59.8483 73.8736 59.4079 68.8589 60.9109L67.8255 61.2205C56.8785 65.2096 54.1506 76.7352 58.441 87.5679L72.1832 124.543C84.1926 133.76 98.0772 128.343 98.0111 119.742L98.2248 119.048L96.1933 113.966C96.1933 113.966 105.813 108.682 102.736 97.9331Z" fill="#FFBF9D"/>
<path d="M96.2771 113.924C91.3036 115.417 86.006 115.45 81.0139 114.021C81.0139 114.021 86.7276 120.593 97.1249 116.427L96.2771 113.924Z" fill="#FF9A6C"/>
<path d="M88.3235 84.2264C88.4094 83.9525 89.8892 84.224 91.4301 83.4632C92.9799 82.7257 93.7227 81.3768 93.9825 81.4838C94.1058 81.5272 94.0903 81.9536 93.7735 82.5538C93.333 83.3439 92.6588 83.9783 91.8433 84.3699C91.0424 84.766 90.1363 84.8971 89.256 84.7441C88.6031 84.6128 88.2768 84.3532 88.3235 84.2264Z" fill="#1A2E35"/>
<path d="M73.713 88.7701C73.8418 88.5132 75.2612 89.0159 76.9022 88.5107C78.5491 88.0294 79.4975 86.8161 79.7373 86.9632C79.852 87.0255 79.7705 87.4433 79.3598 87.9863C78.7993 88.6961 78.0329 89.215 77.1656 89.4717C76.3119 89.7354 75.3963 89.7205 74.5516 89.4291C73.9296 89.195 73.6475 88.8874 73.713 88.7701Z" fill="#1A2E35"/>
<path d="M87.0606 94.7999C87.8463 94.268 88.6957 93.8369 89.5887 93.5166C89.9961 93.3477 90.3688 93.1449 90.3537 92.8366C90.2591 92.3919 90.031 91.9866 89.7 91.6749C89.0003 90.7766 88.2665 89.8341 87.4985 88.8473C84.4073 84.8083 82.0361 81.4363 82.1995 81.3133C82.3636 81.1904 85.0016 84.3642 88.0923 88.4034C88.8443 89.4023 89.5627 90.3564 90.2474 91.2657C90.6635 91.6937 90.9156 92.2545 90.9595 92.8497C90.943 93.0162 90.8888 93.1767 90.8009 93.319C90.7131 93.4614 90.594 93.5818 90.4527 93.6713C90.2389 93.8042 90.0091 93.9093 89.7687 93.9841C88.9041 94.3693 87.9941 94.6434 87.0606 94.7999Z" fill="#1A2E35"/>
<path d="M82.5577 97.3897C82.8206 97.2938 83.3592 99.079 85.268 99.8889C87.1756 100.704 89.0198 99.9325 89.1085 100.178C89.1669 100.283 88.7884 100.652 87.9911 100.915C86.9491 101.243 85.8247 101.193 84.8157 100.775C83.8473 100.371 83.0735 99.6075 82.6575 98.6445C82.3655 97.9178 82.4323 97.4157 82.5577 97.3897Z" fill="#1A2E35"/>
<path d="M77.5916 78.9044C77.5633 79.4003 75.8564 79.6806 73.9957 80.4919C72.1179 81.2657 70.7304 82.2975 70.3539 81.973C70.1822 81.8149 70.3275 81.3128 70.8273 80.6909C71.5086 79.9082 72.3592 79.291 73.3145 78.886C74.2699 78.481 75.305 78.2989 76.3412 78.3534C77.1356 78.4265 77.5978 78.6711 77.5916 78.9044Z" fill="#1A2E35"/>
<path d="M92.0476 74.3705C91.8178 74.8468 90.3633 74.8595 88.7483 75.3236C87.12 75.7396 85.8512 76.4654 85.4206 76.1683C85.2262 76.0197 85.3282 75.5809 85.8179 75.0486C86.5059 74.3618 87.3665 73.8734 88.3089 73.635C89.2378 73.3645 90.2228 73.3525 91.1581 73.6C91.8416 73.8141 92.1439 74.1432 92.0476 74.3705Z" fill="#1A2E35"/>
<path d="M91.7462 68.6984C91.7462 68.6984 86.9122 62.8381 83.2093 62.2419C78.7265 61.5202 78.3286 66.3224 74.2851 66.3974C70.2416 66.4723 65.9595 65.7741 63.0105 69.8006C59.783 74.2079 62.4018 75.8368 63.5678 80.6658C68.2943 100.244 66.4086 106.746 62.6889 97.9717C62.2815 97.0104 59.2854 97.0463 57.6181 92.9685C55.4561 87.6807 53.2653 81.1301 53.3229 76.9007C53.3715 73.3356 54.5546 70.5283 57.1419 67.0487C61.2266 61.556 68.4239 59.3079 73.4768 58.3319C78.5293 57.356 89.6772 60.167 91.7462 68.6984Z" fill="#1A2E35"/>
<path d="M63.2848 97.4756C63.1541 97.0864 62.9457 96.7277 62.6723 96.4214C62.399 96.1151 62.0662 95.8674 61.6944 95.6934C61.3225 95.5194 60.9191 95.4227 60.5088 95.4091C60.0984 95.3956 59.6896 95.4654 59.307 95.6145C57.3667 96.4028 55.4839 98.2029 56.8523 102.291C59.2796 109.542 66.0593 105.609 66.0022 105.397C65.9635 105.253 64.3276 100.501 63.2848 97.4756Z" fill="#FFBF9D"/>
<path d="M63.5116 103.197C63.472 103.185 63.4147 103.328 63.2341 103.498C62.9766 103.727 62.6405 103.847 62.2963 103.833C61.4362 103.808 60.3839 102.808 59.9111 101.513C59.6847 100.897 59.5988 100.239 59.6596 99.5859C59.6517 99.3366 59.7044 99.0892 59.8134 98.8649C59.9223 98.6406 60.0842 98.4461 60.285 98.2983C60.4173 98.2112 60.5758 98.1732 60.7332 98.1909C60.8905 98.2085 61.0367 98.2807 61.1464 98.3948C61.3115 98.5651 61.3141 98.7251 61.3565 98.7248C61.3829 98.7363 61.4713 98.5511 61.3129 98.2711C61.2123 98.1052 61.0579 97.9787 60.8755 97.9126C60.6254 97.8284 60.3522 97.846 60.1151 97.9617C59.8371 98.1203 59.6045 98.3476 59.4394 98.6217C59.2743 98.8958 59.1821 99.2077 59.1718 99.5276C59.0734 100.259 59.1553 101.003 59.4103 101.695C59.9461 103.141 61.1518 104.258 62.3016 104.21C62.5152 104.202 62.7241 104.145 62.913 104.045C63.1018 103.945 63.2658 103.804 63.3927 103.632C63.5573 103.377 63.541 103.202 63.5116 103.197Z" fill="#FF9A6C"/>
<path d="M59.178 83.2471C60.2946 83.7057 61.508 83.8785 62.7082 83.7498C63.3042 83.6661 63.8498 83.3695 64.2442 82.9148C64.6387 82.4602 64.8553 81.8782 64.8542 81.2764C64.7883 80.7408 64.4867 80.1868 64.7037 79.6925C64.9628 79.1028 65.7446 79.0289 66.3775 78.9102C67.4729 78.6731 68.4533 78.0661 69.1539 77.1912C69.8544 76.3164 70.2324 75.227 70.2244 74.1063C71.0107 74.7565 72.2673 74.3415 72.9303 73.5658C73.5066 72.7232 73.9625 71.8042 74.2849 70.8356C74.4507 70.3521 74.732 69.9163 75.1042 69.566C75.4765 69.2157 75.9286 68.9615 76.4213 68.8253C76.9901 68.8474 77.5596 68.805 78.1189 68.6991C79.055 68.3256 79.1869 67.0591 79.0465 66.0612C78.9061 65.0634 78.6857 63.9159 79.3445 63.1532C79.9551 62.4465 81.0165 62.4312 81.9407 62.2966C82.8647 62.1619 83.9455 61.6116 83.9127 60.6782C83.8812 60.4348 83.8006 60.2003 83.6759 59.989C83.5512 59.7776 83.385 59.5937 83.1872 59.4484C82.3268 58.7415 81.2533 58.3454 80.14 58.324C79.0267 58.3025 77.9388 58.6571 77.0518 59.3303C76.3259 58.2198 75.2871 57.3495 74.0667 56.8293C72.8463 56.3091 71.499 56.1624 70.1952 56.4077C68.8915 56.653 67.6897 57.2794 66.7418 58.2076C65.7939 59.1358 65.1425 60.3241 64.8698 61.6225C63.8809 61.15 62.7926 60.9233 61.6974 60.9614C60.6021 60.9996 59.5322 61.3015 58.5786 61.8417C57.625 62.3818 56.8159 63.1441 56.22 64.0638C55.624 64.9836 55.2589 66.0336 55.1556 67.1246C54.188 67.1575 53.2514 67.4741 52.4624 68.0353C51.6734 68.5964 51.0669 69.3772 50.7183 70.2804C50.3698 71.1836 50.2946 72.1695 50.5021 73.1151C50.7096 74.0608 51.1907 74.9245 51.8854 75.5988C51.3061 76.141 50.8739 76.8213 50.6292 77.576C50.3845 78.3308 50.3354 79.1353 50.4865 79.9142C50.9132 81.4378 52.842 82.5054 54.185 81.6685C54.0649 82.3552 54.2116 83.0618 54.5953 83.6439C54.979 84.2259 55.5706 84.6393 56.249 84.7996C56.9275 84.9599 57.6415 84.8548 58.2451 84.506C58.8487 84.1572 59.2961 83.5909 59.496 82.9231" fill="#1A2E35"/>
<path d="M53.6432 81.8136C53.6121 81.8015 53.6925 82.4693 54.5209 83.0841C55.0225 83.4408 55.6398 83.5962 56.2505 83.5195C56.6396 83.4682 57.0123 83.331 57.3419 83.118C57.6714 82.9049 57.9495 82.6212 58.1559 82.2874L57.8324 82.3339C58.4232 82.9012 59.1014 83.3699 59.8409 83.7219C60.3368 83.9632 60.8737 84.1089 61.4236 84.1515C62.1229 84.1735 62.812 83.9788 63.3965 83.5941C63.9809 83.2094 64.4322 82.6534 64.6884 82.0023C64.844 81.4495 64.8901 80.8717 64.8244 80.3012C64.8268 80.0921 64.7857 79.8849 64.7037 79.6926C64.6698 79.6951 64.6684 79.9149 64.6532 80.3061C64.6515 80.8481 64.564 81.3865 64.3941 81.9012C64.2149 82.2943 63.956 82.6458 63.6338 82.9335C63.3115 83.2212 62.933 83.4388 62.5222 83.5724C62.1114 83.7061 61.6773 83.7529 61.2474 83.7098C60.8176 83.6668 60.4014 83.5349 60.0252 83.3225C59.3283 82.9897 58.6856 82.5535 58.119 82.0287L57.9253 81.8518L57.795 82.0751C57.623 82.3612 57.3913 82.6068 57.1157 82.7952C56.8401 82.9836 56.5271 83.1103 56.1981 83.1667C55.6671 83.2526 55.1229 83.1458 54.6638 82.8654C54.2571 82.5861 53.9101 82.2285 53.6432 81.8136Z" fill="#375A64"/>
<path d="M81.7352 52.2595C81.7496 52.179 82.6401 52.4612 83.5589 53.5293C84.107 54.1455 84.5335 54.8598 84.8157 55.6347C85.177 56.6155 85.1701 57.6941 84.7963 58.6702C84.3902 59.6066 83.7594 60.4284 82.9596 61.0626C82.3385 61.5745 81.6822 62.0422 80.9956 62.4624C80.3954 62.8911 79.7488 63.2507 79.0681 63.5345C79.5736 62.9962 80.1495 62.5287 80.7802 62.1445C81.3243 61.7433 81.9762 61.272 82.6298 60.6862C83.3458 60.0861 83.9139 59.3289 84.2899 58.4736C84.6183 57.6137 84.6365 56.6662 84.3413 55.7943C84.0976 55.0646 83.7327 54.3811 83.2618 53.7726C82.8141 53.2101 82.3017 52.7022 81.7352 52.2595V52.2595Z" fill="#E1E1E1"/>
<path d="M87.0249 59.9465C86.4842 60.802 85.722 61.495 84.8191 61.9522C84.1225 62.2859 83.6403 62.3229 83.626 62.2628C83.6007 62.1794 84.0296 62.0117 84.629 61.6185C85.406 61.1073 86.0664 60.438 86.5671 59.6543C87.0678 58.8706 87.3975 57.99 87.5348 57.0702C87.6397 56.361 87.6115 55.9012 87.6978 55.8892C87.7584 55.8769 87.9274 56.33 87.9175 57.1024" fill="#E1E1E1"/>
<path d="M78.0598 92.6113C77.0755 92.4983 76.0791 92.5562 75.1146 92.7827C74.5971 92.9039 74.116 93.1466 73.711 93.4908C73.3061 93.835 72.989 94.2708 72.786 94.762C72.6051 95.5178 72.6989 96.3134 73.0504 97.0065C73.402 97.6997 73.9885 98.2453 74.7052 98.5459C75.4267 98.8259 76.2024 98.9383 76.9737 98.8745C77.745 98.8107 78.4917 98.5724 79.1574 98.1776C79.8153 97.8613 80.356 97.3448 80.7021 96.7022C80.8957 96.215 80.952 95.684 80.8648 95.1671C80.7777 94.6501 80.5504 94.167 80.2078 93.7702C79.9535 93.4346 79.6302 93.1574 79.2596 92.9575C78.8891 92.7575 78.4799 92.6395 78.0598 92.6113Z" fill="#FFB08E"/>
<path d="M142.073 160.928C144.638 161.781 146.959 163.242 148.837 165.186C150.716 167.129 152.096 169.499 152.86 172.092C153.624 174.684 153.75 177.424 153.226 180.076C152.703 182.727 151.546 185.213 149.853 187.321L133.996 177.989L142.073 160.928Z" fill="#E2A160"/>
<path d="M130.841 183.041L130.859 183.052L130.682 183.425L130.841 183.041Z" fill="#E2A160"/>
<path d="M59.9114 143.824C61.2595 140.374 69.0748 120.541 69.0748 120.541L68.9905 115.949L98.131 118.182L100.624 126.681C100.624 126.681 102.599 128.137 106.116 132.925C111.831 140.706 111.223 141.327 114.962 146.6C120.173 153.951 124.007 162.187 126.275 170.908L143.845 240.745L75.9422 239.368C75.5102 235.528 77.6709 228.388 77.6709 228.388C76.3289 227.831 75.1041 227.026 74.0608 226.015C72.0548 224.186 63.9231 174.049 61.7352 168.64C59.5473 163.23 58.5633 147.275 59.9114 143.824Z" fill="#0FA61E"/>
<g opacity="0.3">
<path opacity="0.3" d="M117.674 196.322C123.326 195.71 126.779 195.889 132.431 195.277L133.684 200.353C126.396 204.902 100.296 198.08 96.8097 198.208C95.4968 188.796 117.822 199.835 117.674 196.322Z" fill="black"/>
</g>
<path d="M67.6934 142.675C67.7807 142.611 67.861 142.538 67.9331 142.457C68.0872 142.311 68.2955 142.078 68.5902 141.805C69.4071 141.021 70.2847 140.302 71.2149 139.656C72.5904 138.695 74.087 137.92 75.6656 137.351C79.5517 135.909 83.834 135.958 87.6865 137.486C89.2517 138.092 90.7294 138.902 92.0808 139.897C92.9947 140.566 93.8538 141.307 94.65 142.112C94.9376 142.393 95.1395 142.631 95.2898 142.78C95.3597 142.863 95.4381 142.939 95.5237 143.005C95.4678 142.912 95.4023 142.826 95.3284 142.747C95.1902 142.586 94.9995 142.336 94.7214 142.044C93.9472 141.206 93.0992 140.439 92.1878 139.753C90.8366 138.726 89.3506 137.89 87.7716 137.269C83.8714 135.692 79.5205 135.643 75.5857 137.131C73.9929 137.716 72.4876 138.516 71.1115 139.509C70.1834 140.173 69.3163 140.918 68.5205 141.735C68.2352 142.02 68.0378 142.265 67.8955 142.422C67.8194 142.499 67.7517 142.584 67.6934 142.675Z" fill="#1A2E35"/>
<path d="M68.1261 121.629C68.237 121.667 68.3513 121.694 68.4674 121.71C68.718 121.757 69.0462 121.817 69.4552 121.893C70.3155 122.037 71.5642 122.224 73.1117 122.416C76.2045 122.817 80.4965 123.199 85.1974 123.883C88.1879 124.278 91.1388 124.93 94.0174 125.832L94.1024 125.86L94.1459 125.784C95.3542 123.67 96.3624 121.907 97.0844 120.644C97.4215 120.04 97.6913 119.556 97.8905 119.199L98.0955 118.815C98.1132 118.82 98.1323 118.819 98.1492 118.812C98.1662 118.804 98.1796 118.79 98.1871 118.773C98.1946 118.756 98.1956 118.737 98.1898 118.719C98.1841 118.702 98.172 118.687 98.156 118.677C98.1399 118.668 98.121 118.665 98.1028 118.669C98.0846 118.673 98.0684 118.683 98.0574 118.698C98.0463 118.713 98.0411 118.731 98.0428 118.75C98.0445 118.768 98.0529 118.785 98.0665 118.798L97.8336 119.166C97.6218 119.516 97.3348 119.989 96.9762 120.581C96.235 121.833 95.1999 123.581 93.9594 125.676L94.0878 125.628C91.2032 124.696 88.24 124.028 85.2347 123.632C80.5218 122.946 76.2277 122.593 73.1327 122.238C71.584 122.069 70.3338 121.909 69.47 121.796L68.4759 121.659C68.3605 121.638 68.2434 121.628 68.1261 121.629Z" fill="#1A2E35"/>
<path d="M67.2885 156.278C67.3288 156.265 67.1549 155.72 66.9708 154.821C66.4863 152.474 66.5483 150.047 67.1519 147.728C67.3816 146.84 67.5831 146.305 67.5436 146.289C67.4621 146.398 67.3989 146.519 67.3565 146.647C67.2103 146.984 67.0843 147.328 66.9792 147.679C66.2687 150.012 66.2053 152.495 66.7958 154.861C66.8829 155.217 66.9912 155.568 67.12 155.911C67.1558 156.042 67.2127 156.166 67.2885 156.278Z" fill="#1A2E35"/>
<path d="M70.3106 128.457C70.2488 128.49 71.2907 130.544 72.6373 133.045C73.9844 135.547 75.1262 137.547 75.1879 137.514C75.2496 137.48 74.208 135.426 72.8609 132.925C71.5142 130.424 70.3722 128.423 70.3106 128.457Z" fill="#1A2E35"/>
<path d="M145.93 185.12C147.873 185.213 149.337 183.206 150.256 181.404C149.003 180.9 147.864 180.151 146.905 179.202C145.644 181.995 143.163 184.987 145.93 185.12Z" fill="white"/>
<path d="M148.987 124.418C150.861 124.94 152.772 125.323 154.703 125.563C154.442 128.285 154.508 131.028 154.899 133.733C152.48 133.586 150.085 133.162 147.762 132.47C147.741 129.738 148.154 127.02 148.987 124.418Z" fill="#E2A160"/>
<path d="M147.763 132.47C150.086 133.162 152.481 133.586 154.9 133.734C155.104 135.547 155.383 137.336 155.731 139.128C153.213 139.075 150.699 138.891 148.2 138.576C147.96 136.543 147.811 134.518 147.763 132.47Z" fill="#E8B480"/>
<path d="M148.832 142.654C148.626 141.451 148.375 139.865 148.201 138.582C150.703 138.888 153.207 139.072 155.731 139.129C155.99 140.489 156.283 141.923 156.537 143.265C156.792 144.607 157.024 145.852 157.255 147.179C154.618 146.779 152.009 146.208 149.375 145.813C149.181 144.682 149.039 143.858 148.832 142.654Z" fill="#E2A160"/>
<path d="M149.374 145.807C152.009 146.214 154.617 146.777 157.254 147.177C157.547 149.118 157.595 151.089 157.396 153.042C154.86 152.488 152.372 151.732 149.957 150.782C149.867 149.113 149.672 147.451 149.374 145.807V145.807Z" fill="#E8B480"/>
<path d="M148.969 157.102C149.542 155.041 149.874 152.92 149.958 150.782C152.374 151.732 154.861 152.488 157.397 153.042C157.222 154.391 156.948 155.72 156.643 157.046C154.069 157.052 151.539 157.396 148.969 157.102Z" fill="#E2A160"/>
<path d="M147.78 162.095C148.089 160.411 148.485 158.745 148.968 157.102C151.538 157.396 154.069 157.052 156.643 157.046C156.157 159.045 155.591 161.028 155.226 163.055C152.719 162.884 150.269 162.425 147.78 162.095Z" fill="#E8B480"/>
<path d="M132.91 181.943C141.621 181.65 145.156 178.744 146.813 169.913C147.069 168.55 147.191 165.447 147.592 163.663C147.617 163.551 147.735 162.348 147.778 162.116C150.269 162.413 152.723 162.868 155.222 163.078C155.167 163.519 154.964 165.077 154.903 165.327C153.309 171.916 152.326 180.793 145.887 184.073C141.563 183.359 137.234 182.636 132.91 181.943Z" fill="#E2A160"/>
<path d="M156.327 116.009C159.492 117.057 154.69 123.795 154.742 125.533C152.803 125.358 150.89 124.971 149.035 124.38C149.556 122.133 153.847 115.188 156.327 116.009Z" fill="#E8B480"/>
<path d="M147.369 165.304C147.146 166.55 146.998 167.808 146.927 169.072C148.287 169.251 153.059 170.497 153.201 168.202C153.344 165.908 149.011 165.583 147.369 165.304Z" fill="#E8B480"/>
<path opacity="0.1" d="M143.316 182.098C143.961 179.95 144.341 177.73 144.446 175.49C143.484 173.064 143.056 170.459 143.193 167.853L140.382 180.649C140.704 183.5 142.588 185.632 145.415 187.185C143.906 186.047 142.62 184.361 143.316 182.098Z" fill="black"/>
<path d="M120.346 187.061C121.54 189.577 119.672 189.539 119.672 189.539L90.7604 188.817C90.3483 188.811 89.9431 188.711 89.5755 188.525C89.208 188.338 88.888 188.07 88.6398 187.741C88.3916 187.412 88.2219 187.031 88.1436 186.626C88.0652 186.222 88.0804 185.805 88.1878 185.407C88.4846 184.385 88.957 183.423 89.5839 182.563C91.9355 179.289 104.972 183.263 110.179 182.54C115.385 181.816 104.322 160.722 111.538 153.187C118.753 145.651 134.166 151.159 134.166 151.159C147.698 179.888 120.346 187.061 120.346 187.061Z" fill="#E2A160"/>
<path opacity="0.2" d="M120.345 187.061C121.54 189.577 119.671 189.539 119.671 189.539L90.2913 188.344C89.8793 188.338 89.474 188.238 89.1065 188.052C88.739 187.865 88.4189 187.597 88.1707 187.268C87.9225 186.939 87.7528 186.558 87.6745 186.153C87.5962 185.749 87.6113 185.331 87.7188 184.934C88.0155 183.912 88.4879 182.95 89.1149 182.09C91.4665 178.816 104.971 183.263 110.178 182.54C115.384 181.816 104.322 160.722 111.537 153.187C118.753 145.651 134.166 151.159 134.166 151.159C147.697 179.888 120.345 187.061 120.345 187.061Z" fill="black"/>
<path opacity="0.2" d="M110.748 167.631C112.868 173.808 116.276 175.06 116.276 175.06L117.031 176.461C119.95 174.435 122.628 172.084 125.015 169.453L131.719 164.613L133.98 161.693L132.6 158.9C132.6 158.9 114.488 154.414 110.748 167.631Z" fill="black"/>
<path opacity="0.1" d="M108.353 145.698C109.911 146.131 111.535 146.281 113.146 146.141C121.881 144.942 122.081 131.369 122.081 131.369L121.548 128.511L117.635 132.642L107.24 137.46C107.608 140.088 108.013 142.837 108.353 145.698Z" fill="black"/>
<path d="M106.045 93.0521C105.935 92.2595 102.316 88.2765 104.023 87.8316C105.73 87.3867 108.653 90.4622 110.231 91.2973C108.845 91.828 107.474 92.5271 106.045 93.0521Z" fill="#E2A160"/>
<path opacity="0.2" d="M106.045 93.0521C105.935 92.2595 102.316 88.2765 104.023 87.8316C105.73 87.3867 108.653 90.4622 110.231 91.2973C108.845 91.828 107.474 92.5271 106.045 93.0521Z" fill="black"/>
<path d="M100.43 99.6125C100.537 99.7556 100.864 99.829 100.783 99.5593C100.682 99.2395 100.469 98.9669 100.183 98.7919C99.8862 98.6222 99.5501 98.5327 99.208 98.532C98.8659 98.5313 98.5294 98.6195 98.2316 98.7879C98.213 98.7955 98.1961 98.8068 98.182 98.8212C98.168 98.8355 98.157 98.8526 98.1497 98.8713C98.1425 98.8901 98.1391 98.9101 98.1399 98.9302C98.1406 98.9503 98.1455 98.97 98.1541 98.9881C98.1626 99.0082 98.1751 99.0264 98.1907 99.0416C98.2063 99.0568 98.2248 99.0687 98.245 99.0767C98.2653 99.0848 98.287 99.0887 98.3087 99.0882C98.3305 99.0878 98.352 99.0831 98.372 99.0743C98.6239 98.9237 98.9123 98.8451 99.2058 98.8471C99.4993 98.8492 99.7866 98.9318 100.036 99.086C100.193 99.2408 100.326 99.4183 100.43 99.6125Z" fill="#E2A160"/>
<path d="M100.42 100.85C100.622 100.97 100.819 100.708 100.617 100.602C99.4474 99.9854 98.4033 100.375 97.42 101.137C97.2228 101.289 97.4386 101.518 97.6374 101.368C98.487 100.727 99.4032 100.243 100.42 100.85V100.85Z" fill="#E2A160"/>
<path d="M100.511 101.767C100.567 101.846 100.706 101.748 100.737 101.672C100.744 101.652 100.747 101.63 100.746 101.608C100.744 101.587 100.738 101.566 100.727 101.547C100.717 101.528 100.702 101.511 100.685 101.498C100.667 101.485 100.647 101.476 100.626 101.472C100.224 101.407 99.8131 101.476 99.456 101.67C99.0989 101.864 98.8165 102.171 98.653 102.543C98.6405 102.561 98.6315 102.58 98.6265 102.601C98.6216 102.621 98.6207 102.643 98.6241 102.664C98.6274 102.684 98.6349 102.705 98.646 102.723C98.6572 102.741 98.6718 102.756 98.689 102.769C98.7062 102.781 98.7258 102.79 98.7464 102.795C98.7671 102.799 98.7885 102.8 98.8094 102.797C98.8303 102.793 98.8503 102.785 98.8682 102.774C98.8862 102.763 98.9017 102.748 98.9139 102.731C99.1729 102.363 100.061 101.136 100.511 101.767H100.511Z" fill="#E2A160"/>
<g opacity="0.5">
<path opacity="0.5" d="M100.43 99.6125C100.537 99.7556 100.864 99.829 100.783 99.5593C100.682 99.2395 100.469 98.9669 100.183 98.7919C99.8862 98.6222 99.5501 98.5327 99.208 98.532C98.8659 98.5313 98.5294 98.6195 98.2316 98.7879C98.213 98.7955 98.1961 98.8068 98.182 98.8212C98.168 98.8355 98.157 98.8526 98.1497 98.8713C98.1425 98.8901 98.1391 98.9101 98.1399 98.9302C98.1406 98.9503 98.1455 98.97 98.1541 98.9881C98.1626 99.0082 98.1751 99.0264 98.1907 99.0416C98.2063 99.0568 98.2248 99.0687 98.245 99.0767C98.2653 99.0848 98.287 99.0887 98.3087 99.0882C98.3305 99.0878 98.352 99.0831 98.372 99.0743C98.6239 98.9237 98.9123 98.8451 99.2058 98.8471C99.4993 98.8492 99.7866 98.9318 100.036 99.086C100.193 99.2408 100.326 99.4183 100.43 99.6125Z" fill="white"/>
<path opacity="0.5" d="M100.42 100.85C100.622 100.97 100.819 100.708 100.617 100.602C99.4474 99.9854 98.4033 100.375 97.42 101.137C97.2228 101.289 97.4386 101.518 97.6374 101.368C98.487 100.727 99.4032 100.243 100.42 100.85V100.85Z" fill="white"/>
<path opacity="0.5" d="M100.511 101.767C100.567 101.846 100.706 101.748 100.737 101.672C100.744 101.652 100.747 101.63 100.746 101.608C100.744 101.587 100.738 101.566 100.727 101.547C100.717 101.528 100.702 101.511 100.685 101.498C100.667 101.485 100.647 101.476 100.626 101.472C100.224 101.407 99.8131 101.476 99.456 101.67C99.0989 101.864 98.8165 102.171 98.653 102.543C98.6405 102.561 98.6315 102.58 98.6265 102.601C98.6216 102.621 98.6207 102.643 98.6241 102.664C98.6274 102.684 98.6349 102.705 98.646 102.723C98.6572 102.741 98.6718 102.756 98.689 102.769C98.7062 102.781 98.7258 102.79 98.7464 102.795C98.7671 102.799 98.7885 102.8 98.8094 102.797C98.8303 102.793 98.8503 102.785 98.8682 102.774C98.8862 102.763 98.9017 102.748 98.9139 102.731C99.1729 102.363 100.061 101.136 100.511 101.767H100.511Z" fill="white"/>
</g>
<path d="M100.64 98.7769C104.682 97.7794 103.048 94.6767 105.415 92.4888C107.782 90.3009 111.838 90.9556 114.785 90.4043C115.127 88.8238 115.336 81.1962 118.318 81.9328C121.301 82.6695 121.65 88.1299 123.319 91.2155C124.988 94.3011 126.604 99.2688 126.055 103.217C128.81 108.918 129.355 112.987 129.437 119.383C129.554 128.573 135.556 132.875 139.167 142.488C142.777 152.101 146.099 166.795 143.264 177.593C140.428 188.39 132.577 188.262 123.457 187.628C121.057 183.296 119.04 178.806 116.928 174.542C110.843 170.193 110.849 163.697 110.513 155.784C110.178 147.871 104.214 125.82 106.957 119.867C109.7 113.914 109.98 108.763 107.869 107.393C102.66 104.012 100.024 104.705 100.64 98.7769Z" fill="#E2A160"/>
<path opacity="0.2" d="M116.929 174.545C117.569 175.708 118.189 177.279 118.85 178.503C120.011 170.272 119.486 161.891 117.307 153.869C114.848 145.035 109.183 135.315 108.743 127.271C108.363 120.347 110.006 121.534 112.667 116.508C115.327 111.483 114.415 104.624 109.329 102.57C105.582 101.057 105.774 101.233 103.65 99.1414C103.376 98.8419 103.017 98.6342 102.62 98.5466C102.224 98.4591 101.81 98.496 101.435 98.6524C101.159 98.6041 101.027 98.9625 100.659 98.791C99.9982 104.697 102.675 104.009 107.868 107.395C109.973 108.767 109.704 113.912 106.958 119.867C104.212 125.822 110.178 147.87 110.513 155.784C110.849 163.699 110.843 170.19 116.929 174.545Z" fill="white"/>
<path opacity="0.6" d="M102.43 99.3938C102.448 98.5096 101.369 99.3881 101.155 99.2671C100.929 101.336 102.413 100.278 102.43 99.3938Z" fill="#263238"/>
<path opacity="0.2" d="M118.046 82.8532C116.74 83.6389 115.865 88.8954 116.404 90.9013C117.545 91.1297 118.729 91.4182 119.967 91.5961C117.68 88.2533 119.352 82.0675 118.046 82.8532Z" fill="black"/>
<path opacity="0.2" d="M109.703 92.3745C108.494 92.0532 106.81 93.2601 107.74 93.8696C108.669 94.479 110.912 92.6959 109.703 92.3745Z" fill="white"/>
<path opacity="0.2" d="M105.087 92.9234C105.708 92.9124 106.207 94.0227 105.704 94.1893C105.201 94.356 104.466 92.9345 105.087 92.9234Z" fill="white"/>
<g opacity="0.6">
<path opacity="0.6" d="M105.668 100.06C105.769 100.288 105.729 100.503 105.938 100.366C106.606 99.9705 107.352 99.7243 108.125 99.644C108.897 99.5637 109.678 99.6511 110.413 99.9002C110.651 99.9567 110.669 99.7605 110.512 99.6379C109.387 98.7543 105.563 99.0454 105.649 99.8603C105.732 100.65 105.668 100.06 105.668 100.06Z" fill="white"/>
<path opacity="0.6" d="M106.45 100.947C106.446 100.948 106.064 101.147 106.229 101.194C106.393 101.24 106.397 101.319 106.508 101.299C108.533 100.934 110.13 101.646 111.778 102.793C112.006 102.952 111.947 102.784 111.915 102.572C111.67 100.918 106.526 100.925 106.45 100.947V100.947Z" fill="white"/>
<path opacity="0.6" d="M106.048 102.306C107.288 102.598 108.413 103.251 109.28 104.183C109.443 104.358 109.724 104.21 109.56 104.032C108.628 103.019 107.408 102.315 106.065 102.015C105.827 101.96 105.812 102.251 106.048 102.306Z" fill="white"/>
</g>
<g opacity="0.3">
<path opacity="0.3" d="M126.323 103.686C124.33 105.263 122.589 105.556 120.181 106.443C115.04 108.338 126.846 109.44 128.412 109.062C127.849 107.221 127.152 105.424 126.323 103.686Z" fill="white"/>
<path opacity="0.3" d="M129.898 124.503C129.383 122.818 129.202 121.049 129.363 119.294C129.389 118.876 129.45 118.432 129.512 117.981C126.905 118.791 125.588 118.477 122.725 118.469C116.723 118.451 128.272 124.281 129.898 124.503Z" fill="white"/>
<path opacity="0.3" d="M142.405 152.477C141.904 150.59 141.322 148.731 140.774 146.836C137.474 149.535 135 150.062 130.637 150.198C121.838 150.472 137.788 153.444 142.405 152.477Z" fill="white"/>
<path opacity="0.3" d="M137.065 137.469C136.152 135.773 135.18 134.116 134.185 132.439C131.463 134.512 129.491 134.785 126.058 135.368C119.139 136.544 133 138.944 137.065 137.469Z" fill="white"/>
</g>
<path d="M107.078 95.4915C107.604 95.3994 108.056 95.9448 108.236 96.3677C108.416 96.7907 108.434 97.3337 107.91 97.4246C107.386 97.5155 106.943 96.9684 106.761 96.5486C106.578 96.1288 106.551 95.5835 107.078 95.4915Z" fill="#263238"/>
<path d="M110.338 95.7111C110.373 95.6596 110.305 95.7916 110.354 95.6788C110.381 95.5914 110.377 95.4974 110.343 95.4126C110.309 95.3278 110.246 95.2574 110.166 95.2133C109.049 94.5759 107.731 94.3895 106.481 94.6922C106.305 94.737 106.295 94.897 106.358 95.0507C106.403 95.1429 106.476 95.2186 106.567 95.2671C106.657 95.3156 106.76 95.3344 106.862 95.3209C107.871 95.1357 108.912 95.3046 109.81 95.799C109.865 95.83 109.926 95.8496 109.989 95.8567C110.052 95.8637 110.116 95.8581 110.176 95.8401C110.211 95.8317 110.243 95.8157 110.271 95.7934C110.299 95.7711 110.322 95.743 110.338 95.7111Z" fill="#263238"/>
<path opacity="0.2" d="M106.803 134.198L110.439 130.771L111.903 122.402L110.392 119.069L109.676 120.58C109.676 120.58 107.972 128.85 106.432 130.839C106.532 131.931 106.659 133.052 106.803 134.198Z" fill="black"/>
<path d="M125.226 187.161C126.42 189.678 124.552 189.639 124.552 189.639L93.474 189.001C93.0619 188.995 92.6567 188.895 92.2892 188.709C91.9216 188.522 91.6016 188.254 91.3534 187.925C91.1052 187.596 90.9355 187.215 90.8572 186.81C90.7788 186.405 90.794 185.988 90.9014 185.59C91.1982 184.569 91.6706 183.606 92.2976 182.747C94.6491 179.472 106.396 183.867 111.602 183.143C116.809 182.42 109.588 170.019 116.803 162.484C124.019 154.948 138.858 160.445 138.858 160.445C152.389 189.173 125.226 187.161 125.226 187.161Z" fill="#E2A160"/>
<path opacity="0.3" d="M141.641 167.725C141.641 167.725 141.486 168.381 143.613 167.619C143.473 165.551 143.224 163.493 142.867 161.451C141.958 162.062 140.938 162.488 139.865 162.708C137.769 163.051 134.739 164.504 127.34 164.352C119.941 164.2 135.944 169.97 141.641 167.725Z" fill="white"/>
<g opacity="0.1">
<path opacity="0.1" d="M125.226 187.161C125.226 187.161 137.68 188.081 141.52 179.754C137.53 185.252 129.553 184.621 126.393 184.72C123.232 184.819 125.226 187.161 125.226 187.161Z" fill="black"/>
</g>
<path d="M138.34 170.348C138.54 170.153 138.795 170.023 139.071 169.975C139.346 169.927 139.63 169.963 139.885 170.079C140.869 170.449 143.469 169.838 144.193 170.517C145.044 171.315 145.202 172.522 145.109 174.212C145.016 175.902 147.727 177.49 147.727 177.49L142.262 186.753L139.28 186.318L119.444 178.487C119.444 178.487 116.904 175.103 120.414 175.481C121.612 175.705 122.797 175.997 123.962 176.357C123.962 176.357 119.727 173.136 119.551 171.782C119.334 170.115 120.774 169.701 122.927 170.584C124.769 171.339 125.676 171.654 125.676 171.654C125.676 171.654 123.741 169.28 124.456 168.537C125.171 167.793 125.596 166.985 128.305 168.616C131.014 170.247 136.783 173.399 137.409 174.17C138.302 175.056 139.261 175.874 140.276 176.617L140.462 174.86C140.462 174.86 138.277 174.288 137.962 172.963C137.489 170.964 138.34 170.348 138.34 170.348Z" fill="#FFBF9D"/>
<path d="M100.078 194.071C100.078 194.071 101.972 199.541 124.593 199.102C129.879 199 147.453 198.947 147.453 198.947C149.112 197.333 150.093 195.147 150.196 192.834C150.242 190.606 150.459 186.424 150.627 183.411C150.689 182.307 150.496 181.203 150.063 180.186C149.629 179.169 148.968 178.265 148.129 177.545L147.71 177.185L142.295 186.129L139.313 185.694C139.313 185.694 114.421 176.782 110.345 175.016L103.629 159.314L100.078 194.071Z" fill="#FFBF9D"/>
<path d="M100.079 194.072C100.079 194.072 100.111 193.858 100.159 193.443C100.205 193.022 100.273 192.409 100.361 191.609C100.532 189.994 100.783 187.632 101.104 184.612C101.733 178.561 102.635 169.879 103.732 159.326L103.535 159.355C105.566 164.114 107.83 169.419 110.238 175.062L110.257 175.107L110.299 175.124C114.706 176.914 119.394 178.591 124.241 180.378C129.097 182.134 134.124 183.953 139.271 185.814L139.283 185.818L139.296 185.82C139.7 185.879 140.138 185.943 140.578 186.007C141.146 186.09 141.712 186.173 142.278 186.255L142.361 186.267L142.405 186.195C144.242 183.16 146.046 180.178 147.818 177.251L147.629 177.281C148.437 177.905 149.113 178.683 149.621 179.569C150.11 180.446 150.406 181.418 150.488 182.419C150.521 182.916 150.519 183.415 150.482 183.912L150.414 185.41C150.369 186.406 150.324 187.393 150.28 188.372C150.235 189.351 150.191 190.322 150.148 191.284C150.126 191.765 150.104 192.244 150.083 192.72L150.04 193.424C150.02 193.656 149.976 193.886 149.945 194.117C149.586 195.921 148.692 197.574 147.378 198.862L147.454 198.833C140.266 198.888 133.637 198.94 127.735 198.986C126.26 198.997 124.832 199.007 123.45 199.018C122.069 199.016 120.736 199.059 119.456 199.002C118.175 198.964 116.944 198.947 115.771 198.85C115.184 198.811 114.61 198.774 114.05 198.737C113.491 198.678 112.947 198.621 112.416 198.565C110.523 198.37 108.645 198.054 106.792 197.62C105.421 197.288 104.084 196.828 102.799 196.245C102.003 195.875 101.271 195.382 100.628 194.785C100.404 194.582 100.218 194.341 100.079 194.072C100.084 194.091 100.091 194.109 100.098 194.127L100.178 194.279C100.299 194.472 100.441 194.65 100.601 194.811C101.237 195.424 101.969 195.931 102.767 196.31C104.052 196.908 105.391 197.381 106.767 197.723C108.621 198.171 110.503 198.498 112.401 198.702C112.932 198.76 113.478 198.82 114.037 198.881C114.598 198.921 115.173 198.961 115.761 199.002C116.937 199.104 118.169 199.125 119.452 199.168C120.735 199.229 122.069 199.191 123.451 199.197C124.833 199.19 126.262 199.184 127.738 199.177C133.639 199.143 140.268 199.104 147.454 199.062L147.501 199.062L147.531 199.033C148.885 197.714 149.809 196.015 150.178 194.16C150.21 193.923 150.256 193.686 150.277 193.446L150.321 192.725L150.388 191.29C150.432 190.329 150.477 189.359 150.522 188.381C150.568 187.403 150.613 186.417 150.659 185.422C150.682 184.925 150.705 184.426 150.728 183.925C150.766 183.417 150.768 182.907 150.735 182.399C150.651 181.362 150.345 180.356 149.839 179.447C149.318 178.535 148.622 177.734 147.792 177.091L147.678 176.998L147.603 177.121C145.834 180.042 144.029 183.022 142.188 186.064L142.314 186.004C141.749 185.921 141.183 185.839 140.614 185.756C140.175 185.692 139.737 185.628 139.332 185.569L139.357 185.575C134.21 183.715 129.183 181.899 124.326 180.145C119.482 178.362 114.783 176.686 110.392 174.909L110.454 174.97C108.036 169.331 105.763 164.029 103.724 159.275L103.567 158.908L103.527 159.305C102.467 169.869 101.595 178.561 100.987 184.619C100.69 187.639 100.458 190 100.3 191.615C100.225 192.414 100.167 193.026 100.128 193.447C100.09 193.86 100.079 194.072 100.079 194.072Z" fill="#FF9A6C"/>
<path d="M97.5651 147.38L112.506 171.806C112.506 171.806 114.362 171.193 115.771 173.505C116.161 174.4 116.224 175.404 115.948 176.341L101.01 196.173C100.318 197.117 99.3141 197.784 98.1763 198.057C97.0386 198.331 95.8409 198.192 94.796 197.665C94.1603 197.324 93.613 196.839 93.1977 196.248C92.7824 195.658 92.5105 194.979 92.4036 194.266L72.0056 164.617" fill="#0FA61E"/>
<path d="M72.0057 164.617C72.0057 164.617 72.0332 164.669 72.0956 164.766L72.3772 165.193C72.6347 165.575 73.0064 166.127 73.4863 166.839C74.4677 168.28 75.8904 170.368 77.6798 172.995C81.2872 178.258 86.3718 185.677 92.305 194.333L92.2863 194.289C92.4173 194.99 92.6817 195.66 93.065 196.262C93.4693 196.875 94.0176 197.379 94.6619 197.731C95.3245 198.089 96.0602 198.291 96.8129 198.322C97.5656 198.352 98.3153 198.21 99.0047 197.906C99.7105 197.596 100.341 197.137 100.854 196.561C101.348 195.964 101.777 195.352 102.247 194.741C103.169 193.517 104.102 192.279 105.046 191.026C108.92 185.878 112.635 180.942 116.044 176.412L116.058 176.393L116.063 176.374C116.22 175.787 116.274 175.177 116.221 174.572C116.194 174.269 116.12 173.973 116 173.694C115.867 173.428 115.706 173.177 115.521 172.945C115.167 172.476 114.704 172.101 114.173 171.851C113.638 171.613 113.039 171.56 112.471 171.7L112.601 171.748C108.129 164.473 104.382 158.377 101.747 154.091C100.43 151.962 99.3905 150.284 98.6752 149.128L97.8565 147.822L97.6426 147.49C97.62 147.451 97.5941 147.414 97.565 147.38C97.5822 147.421 97.6029 147.461 97.6271 147.499L97.826 147.841C98.0098 148.149 98.2738 148.592 98.6154 149.164C99.3183 150.328 100.339 152.017 101.634 154.16C104.25 158.457 107.97 164.57 112.41 171.865L112.453 171.936L112.541 171.913C113.057 171.792 113.598 171.844 114.081 172.06C114.577 172.296 115.008 172.648 115.338 173.088C115.681 173.541 115.906 174.073 115.992 174.635C116.079 175.197 116.024 175.772 115.834 176.307L115.853 176.269C112.441 180.795 108.722 185.728 104.843 190.873C103.9 192.125 102.968 193.364 102.045 194.589C101.581 195.193 101.134 195.827 100.665 196.395C100.177 196.943 99.5768 197.381 98.9051 197.677C98.2508 197.966 97.5391 198.102 96.8242 198.074C96.1094 198.046 95.4104 197.855 94.7807 197.516C94.1705 197.184 93.6509 196.707 93.2675 196.128C92.9005 195.553 92.6472 194.913 92.5211 194.242L92.5159 194.217L92.5022 194.198C86.5386 185.562 81.4278 178.162 77.8018 172.911C75.9882 170.301 74.5461 168.226 73.5515 166.794L72.4106 165.17C72.2832 164.992 72.1847 164.855 72.1124 164.754C72.0445 164.661 72.0057 164.617 72.0057 164.617Z" fill="#1A2E35"/>
<path d="M93.8077 191.695C93.8796 191.638 93.9442 191.572 94 191.499L94.5128 190.905C94.9768 190.359 95.6091 189.615 96.3802 188.707C97.9616 186.855 100.177 184.324 102.727 181.623C105.279 178.923 107.681 176.567 109.439 174.882C110.301 174.061 111.008 173.387 111.527 172.893L112.091 172.347C112.161 172.287 112.223 172.219 112.276 172.144C112.197 172.19 112.123 172.245 112.057 172.309L111.461 172.82C110.946 173.266 110.212 173.926 109.316 174.751C107.524 176.404 105.099 178.744 102.542 181.449C99.9883 184.154 97.7904 186.709 96.2426 188.591C95.469 189.533 94.8523 190.303 94.4361 190.843L93.9601 191.467C93.9001 191.537 93.849 191.613 93.8077 191.695Z" fill="#1A2E35"/>
<path d="M94.8235 189.228C94.9554 189.076 95.0702 188.911 95.1658 188.734L96.0364 187.355C96.7744 186.193 97.8231 184.608 99.0621 182.913C100.303 181.22 101.498 179.741 102.383 178.686C102.8 178.191 103.152 177.774 103.434 177.44C103.574 177.295 103.697 177.136 103.801 176.964C103.64 177.084 103.492 177.221 103.361 177.373C103.089 177.647 102.708 178.055 102.247 178.569C101.325 179.596 100.103 181.063 98.8572 182.763C97.6134 184.464 96.5841 186.072 95.8835 187.261C95.5327 187.856 95.259 188.343 95.0804 188.685C94.975 188.856 94.8889 189.038 94.8235 189.228Z" fill="#1A2E35"/>
<path d="M139.099 174.306C139.602 174.631 140.184 174.815 140.783 174.836C141.382 174.858 141.976 174.717 142.501 174.428C141.934 174.51 141.364 174.561 140.792 174.583C140.223 174.521 139.658 174.428 139.099 174.306Z" fill="#FF9A6C"/>
<path d="M125.585 171.32C125.859 171.675 126.171 172 126.514 172.289C127.117 172.857 127.979 173.612 128.976 174.391C129.973 175.17 130.914 175.824 131.611 176.271C131.974 176.534 132.365 176.758 132.776 176.938C132.445 176.637 132.089 176.364 131.712 176.123C131.043 175.639 130.124 174.965 129.132 174.191C128.141 173.416 127.265 172.687 126.633 172.155C126.308 171.848 125.957 171.569 125.585 171.32Z" fill="#FF9A6C"/>
<path d="M123.524 175.999C123.63 176.117 123.753 176.22 123.887 176.305C124.131 176.489 124.489 176.746 124.937 177.057C125.831 177.678 127.087 178.509 128.502 179.383C129.918 180.256 131.223 181.005 132.18 181.526C132.659 181.787 133.049 181.992 133.323 182.127C133.459 182.209 133.606 182.272 133.76 182.314C133.285 181.967 132.787 181.651 132.27 181.37C131.281 180.771 130.025 180.009 128.635 179.166C127.259 178.303 126.015 177.522 125.036 176.907C124.553 176.571 124.048 176.268 123.524 175.999Z" fill="#FF9A6C"/>
<path opacity="0.23" d="M110.984 141.205L115.435 144.512L113.148 145.855C110.812 146.159 108.457 146.285 106.102 146.232C102.977 146.081 98.1177 145.72 95.3417 145.49C92.5658 145.259 90.4794 145.303 89.4103 146.584C88.3412 147.866 86.1786 147.387 86.1875 146.953C86.1965 146.518 84.865 147.881 84.1755 147.606C83.486 147.332 82.1051 146.869 82.1176 146.261C82.1301 145.653 80.7385 145.711 80.7528 145.016C80.8397 144.371 80.9937 143.737 81.2122 143.124C81.2952 142.864 81.4514 142.633 81.662 142.46C81.8726 142.286 82.1288 142.177 82.3999 142.145L92.1321 140.992C92.1321 140.992 103.566 138.533 104.172 138.632C104.779 138.732 110.984 141.205 110.984 141.205Z" fill="black"/>
<path d="M110.416 144.025C99.4408 140.99 92.0337 144.442 92.0337 144.442C87.0366 148.449 86.5036 146.118 86.5036 146.118C83.0208 148.375 82.427 145.683 82.427 145.683C79.7619 144.6 82.3677 141.859 82.3677 141.859C80.539 139.257 88.6342 137.76 88.6342 137.76C93.4155 136.492 98.2869 135.592 103.206 135.067C109.371 134.621 107.989 123.054 110.214 118.519C112.439 113.983 118.064 118.681 118.064 118.681C126.178 125.022 121.39 147.061 110.416 144.025Z" fill="#E2A160"/>
<path opacity="0.4" d="M82.4278 145.683C82.4278 145.683 83.0214 148.374 86.5043 146.117C86.5043 146.117 87.0373 148.449 92.0344 144.442C94.5916 143.427 97.3089 142.875 100.059 142.811C100.532 141.376 103.548 139.563 102.771 137.561C102.469 137.002 102.042 136.52 101.523 136.154C101.003 135.788 100.406 135.547 99.7783 135.451C96.0271 136.031 92.3079 136.802 88.6349 137.76C88.6349 137.76 80.5397 139.256 82.3683 141.859C82.3683 141.859 79.7626 144.599 82.4278 145.683Z" fill="white"/>
<g opacity="0.2">
<path opacity="0.2" d="M83.0323 145.138C83.7865 143.835 86.1619 143.293 86.1619 143.293C83.2191 142.687 83.0323 145.138 83.0323 145.138Z" fill="black"/>
<path opacity="0.2" d="M86.6306 140.875C86.0679 140.503 85.3803 140.369 84.7191 140.504C84.058 140.639 83.4773 141.03 83.105 141.593C84.4026 140.602 86.8446 141.034 86.8446 141.034C86.7761 140.977 86.7047 140.924 86.6306 140.875Z" fill="black"/>
</g>
<path d="M75.8167 238.002L133.834 209.948C133.834 209.948 165.664 196.944 177.895 193.572C190.985 189.963 202.794 199.811 210.092 215.08C215.035 225.42 241.239 285.862 241.239 285.862L218.096 301.147L176.093 228.144L113.057 267.642C113.057 267.642 100.446 267.392 88.2569 267.392C77.2395 267.392 75.4308 243.03 75.8167 238.002Z" fill="#263238"/>
<path d="M213.435 333.432L206.262 254.327C206.262 254.327 204.85 235.922 194.231 232.248C183.611 228.575 171.195 230.052 171.195 230.052L111.677 267.616L172.74 268.666C172.74 268.666 175.846 281.514 176.732 287.086C177.788 293.73 182.838 335.37 182.838 335.37L213.435 333.432Z" fill="#263238"/>
<path d="M113.058 264.352C113.058 264.352 113.148 264.286 113.332 264.171C113.53 264.049 113.803 263.882 114.157 263.664C114.901 263.217 115.981 262.568 117.375 261.73C120.204 260.047 124.309 257.604 129.468 254.535C134.647 251.467 140.882 247.774 147.945 243.591C151.48 241.501 155.212 239.294 159.142 236.971C161.103 235.813 163.106 234.629 165.154 233.419C167.223 232.249 169.331 231.055 171.48 229.839L171.523 229.814L171.573 229.813C174.183 229.731 176.994 229.644 179.852 229.554L179.861 229.554L179.868 229.554C183.477 229.68 187.067 230.144 190.589 230.94C191.498 231.153 192.392 231.427 193.264 231.76C194.101 232.203 194.946 232.614 195.748 233.116L196.9 233.95L197.476 234.369L197.998 234.857L199.042 235.836C199.377 236.177 199.669 236.559 199.984 236.919C202.124 239.537 203.739 242.543 204.742 245.772C205.761 248.88 206.373 252.106 206.564 255.371C207.136 261.735 207.689 267.873 208.215 273.721C209.258 285.413 210.198 295.944 210.988 304.793C211.76 313.628 212.386 320.783 212.82 325.745C213.027 328.207 213.187 330.125 213.297 331.443C213.347 332.084 213.384 332.577 213.411 332.926C213.434 333.26 213.435 333.432 213.435 333.432C213.435 333.432 213.406 333.263 213.368 332.93C213.332 332.581 213.28 332.09 213.213 331.45C213.085 330.134 212.898 328.219 212.658 325.759C212.192 320.8 211.521 313.649 210.692 304.818C209.877 295.97 208.907 285.44 207.83 273.749C207.296 267.901 206.735 261.763 206.154 255.4C205.963 252.169 205.355 248.978 204.346 245.903C203.358 242.725 201.768 239.766 199.663 237.188C199.353 236.835 199.068 236.46 198.74 236.127L197.718 235.17L197.208 234.692L196.645 234.283L195.52 233.468C194.741 232.979 193.902 232.572 193.104 232.146C192.251 231.822 191.378 231.554 190.489 231.344C186.994 230.553 183.432 230.091 179.85 229.963L179.865 229.963C177.006 230.049 174.196 230.133 171.585 230.212L171.677 230.186L165.347 233.755C163.299 234.96 161.293 236.139 159.329 237.295C155.403 239.602 151.666 241.798 148.116 243.884C141.036 248.038 134.785 251.704 129.594 254.749C124.41 257.776 120.285 260.185 117.442 261.845C116.034 262.659 114.944 263.289 114.192 263.723C113.83 263.928 113.551 264.086 113.35 264.2C113.159 264.306 113.058 264.352 113.058 264.352Z" fill="#455A64"/>
<path d="M62.2044 240.945L51.4442 156.532C51.2658 155.133 51.6507 153.72 52.514 152.605C53.3774 151.489 54.6485 150.762 56.0478 150.584C56.7407 150.495 57.4442 150.544 58.1182 150.728C58.7921 150.911 59.4233 151.226 59.9757 151.653C60.5281 152.081 60.9909 152.613 61.3377 153.219C61.6845 153.826 61.9084 154.494 61.9967 155.187L72.7568 239.6C72.9352 240.999 72.5504 242.412 71.687 243.528C70.8237 244.643 69.5525 245.37 68.1532 245.549C66.7538 245.727 65.3409 245.342 64.2253 244.479C63.1097 243.615 62.3828 242.344 62.2044 240.945L62.2044 240.945Z" fill="#455A64"/>
<path d="M108.128 72.3154C101.807 63.7863 103.559 51.7541 112.088 45.4334C120.617 39.1127 132.649 40.8642 138.97 49.3934C145.29 57.9225 143.539 69.9547 135.01 76.2754C128.537 81.073 119.703 81.3776 112.925 76.8846L106.3 79.7784L108.128 72.3154Z" fill="#FAFAFA"/>
<path d="M129.298 59.6741C129.222 58.9887 128.993 58.2272 128.536 57.6941C128.079 57.161 127.47 56.7041 126.785 56.4756C125.566 56.171 124.348 56.628 123.662 57.6941C123.51 57.3133 123.206 57.0087 122.901 56.7803C122.292 56.3233 121.53 56.0949 120.769 56.2472C120.083 56.3995 119.398 56.7041 118.941 57.2372C118.408 57.7702 118.027 58.3795 117.951 59.141C117.799 60.0548 117.951 60.9687 118.332 61.8064C118.789 62.644 119.474 63.4056 120.312 63.9386C121.606 64.8525 123.358 65.9948 123.358 65.9948C123.358 65.9948 124.957 64.9286 126.404 64.1671C127.242 63.7102 128.003 63.101 128.612 62.3394C129.145 61.5017 129.374 60.5879 129.298 59.6741Z" fill="#FF725E"/>
<path d="M123.51 41.6257C123.586 41.6257 123.739 41.6257 123.815 41.6257H124.805C125.033 41.6257 125.262 41.6257 125.566 41.6257L126.404 41.778L127.394 41.9303L128.536 42.2349C130.44 42.6919 132.344 43.5295 134.019 44.5957C136.228 46.0426 138.208 47.8703 139.655 50.0787C141.406 52.744 142.548 55.8663 142.853 59.0647C142.929 59.9786 142.929 60.8163 142.929 61.7301C142.929 62.187 142.929 62.6439 142.853 63.1008L142.625 64.4716C142.244 66.3754 141.635 68.1269 140.797 69.8785C139.883 71.63 138.665 73.3053 137.294 74.7523C135.771 76.1992 134.095 77.4176 132.268 78.4076C130.364 79.3976 128.232 80.0068 126.099 80.3114C125.566 80.3876 125.033 80.4637 124.424 80.4637C123.891 80.4637 123.282 80.4637 122.749 80.4637C121.606 80.3876 120.54 80.3114 119.398 80.083C117.037 79.5499 114.753 78.6361 112.773 77.2653H113.001L106.223 80.0068L105.843 80.1591L105.919 79.7022C106.604 77.2653 107.29 74.8284 107.899 72.4677V72.62C106.071 70.1831 104.853 67.3654 104.32 64.3193C104.091 62.9485 103.939 61.5016 104.091 60.0547C104.091 59.3693 104.167 58.684 104.32 57.9986C104.396 57.694 104.396 57.3132 104.472 57.0086C104.548 56.704 104.624 56.3232 104.7 56.0186C105.843 51.6018 108.508 47.6418 112.239 45.0526C113.61 44.0626 115.133 43.2249 116.732 42.6919L117.722 42.3111L118.712 42.0826L119.626 41.8542C119.931 41.778 120.159 41.778 120.464 41.7019C120.997 41.6257 121.454 41.5496 121.835 41.5496H122.825H123.434C123.434 41.5496 123.51 41.5496 123.51 41.6257L123.282 41.5496L122.672 41.6257L121.682 41.7019C121.302 41.7019 120.845 41.8542 120.312 41.9303C112.849 43.2249 106.756 48.7841 104.929 56.1709C104.853 56.4755 104.776 56.7802 104.7 57.0848C104.624 57.3894 104.624 57.694 104.548 58.0748C104.472 58.7601 104.396 59.3693 104.396 60.0547C104.32 61.4255 104.396 62.8724 104.7 64.167C105.233 67.137 106.452 69.9546 108.28 72.3154L108.356 72.3915V72.4677C107.746 74.8284 107.061 77.1892 106.376 79.7022L106.071 79.4737L112.849 76.7322H112.925L113.001 76.8084C115.895 78.7122 119.246 79.7784 122.749 79.9307C123.282 79.9307 123.815 79.9307 124.348 79.9307C124.881 79.9307 125.414 79.8545 125.947 79.7783C128.079 79.5499 130.135 78.8645 131.963 77.9507C135.542 76.123 138.512 73.2292 140.34 69.65C141.178 67.9746 141.787 66.2231 142.168 64.3955L142.396 63.0247C142.472 62.5678 142.472 62.1109 142.472 61.7301C142.777 54.9525 139.502 48.4795 133.791 44.8241C132.115 43.758 130.288 42.9203 128.384 42.3872L127.242 42.0826L126.252 41.9303L125.414 41.778C125.109 41.778 124.881 41.7019 124.729 41.7019L123.739 41.6257C123.739 41.7019 123.662 41.7019 123.51 41.6257Z" fill="#263238"/>
</g>
<defs>
<linearGradient id="paint0_linear_0_3260" x1="-115.43" y1="-111.624" x2="90.9918" y2="392.752" gradientUnits="userSpaceOnUse">
<stop stop-color="#F8A35B"/>
<stop offset="1" stop-color="white" stop-opacity="0"/>
</linearGradient>
<linearGradient id="paint1_linear_0_3260" x1="236.456" y1="323.557" x2="74.0848" y2="-45.912" gradientUnits="userSpaceOnUse">
<stop stop-color="#91F082"/>
<stop offset="1" stop-color="white" stop-opacity="0"/>
</linearGradient>
<linearGradient id="paint2_linear_0_3260" x1="22.6249" y1="177.524" x2="36.1575" y2="177.524" gradientUnits="userSpaceOnUse">
<stop stop-color="#B0EF87"/>
<stop offset="1" stop-color="#73C89A"/>
</linearGradient>
<linearGradient id="paint3_linear_0_3260" x1="140.835" y1="101586" x2="316.128" y2="101586" gradientUnits="userSpaceOnUse">
<stop stop-color="#B0EF87"/>
<stop offset="1" stop-color="#73C89A"/>
</linearGradient>
<linearGradient id="paint4_linear_0_3260" x1="184.383" y1="104163" x2="231.177" y2="104163" gradientUnits="userSpaceOnUse">
<stop stop-color="#B0EF87"/>
<stop offset="1" stop-color="#73C89A"/>
</linearGradient>
<linearGradient id="paint5_linear_0_3260" x1="229.04" y1="76960.3" x2="475.673" y2="76960.3" gradientUnits="userSpaceOnUse">
<stop stop-color="#B0EF87"/>
<stop offset="1" stop-color="#73C89A"/>
</linearGradient>
<linearGradient id="paint6_linear_0_3260" x1="201.198" y1="120941" x2="234.037" y2="120941" gradientUnits="userSpaceOnUse">
<stop stop-color="#B0EF87"/>
<stop offset="1" stop-color="#73C89A"/>
</linearGradient>
<linearGradient id="paint7_linear_0_3260" x1="396.367" y1="59643.5" x2="698.063" y2="59643.5" gradientUnits="userSpaceOnUse">
<stop stop-color="#B0EF87"/>
<stop offset="1" stop-color="#73C89A"/>
</linearGradient>
<linearGradient id="paint8_linear_0_3260" x1="292.158" y1="122242" x2="337.704" y2="122242" gradientUnits="userSpaceOnUse">
<stop stop-color="#B0EF87"/>
<stop offset="1" stop-color="#73C89A"/>
</linearGradient>
<linearGradient id="paint9_linear_0_3260" x1="455.161" y1="101070" x2="499.133" y2="101070" gradientUnits="userSpaceOnUse">
<stop stop-color="#B0EF87"/>
<stop offset="1" stop-color="#73C89A"/>
</linearGradient>
<linearGradient id="paint10_linear_0_3260" x1="1450.39" y1="37647.1" x2="1953.4" y2="37647.1" gradientUnits="userSpaceOnUse">
<stop stop-color="#B0EF87"/>
<stop offset="1" stop-color="#73C89A"/>
</linearGradient>
<linearGradient id="paint11_linear_0_3260" x1="1357.51" y1="60991.2" x2="1771.83" y2="60991.2" gradientUnits="userSpaceOnUse">
<stop stop-color="#B0EF87"/>
<stop offset="1" stop-color="#73C89A"/>
</linearGradient>
<linearGradient id="paint12_linear_0_3260" x1="382.556" y1="125399" x2="413.995" y2="125399" gradientUnits="userSpaceOnUse">
<stop stop-color="#B0EF87"/>
<stop offset="1" stop-color="#73C89A"/>
</linearGradient>
<linearGradient id="paint13_linear_0_3260" x1="1800.76" y1="83280.2" x2="2353.57" y2="83280.2" gradientUnits="userSpaceOnUse">
<stop stop-color="#B0EF87"/>
<stop offset="1" stop-color="#73C89A"/>
</linearGradient>
<linearGradient id="paint14_linear_0_3260" x1="1963.5" y1="53633.2" x2="2682.36" y2="53633.2" gradientUnits="userSpaceOnUse">
<stop stop-color="#B0EF87"/>
<stop offset="1" stop-color="#73C89A"/>
</linearGradient>
<linearGradient id="paint15_linear_0_3260" x1="1365.38" y1="52885.6" x2="1744.7" y2="52885.6" gradientUnits="userSpaceOnUse">
<stop stop-color="#B0EF87"/>
<stop offset="1" stop-color="#73C89A"/>
</linearGradient>
<linearGradient id="paint16_linear_0_3260" x1="1445.11" y1="41897.9" x2="1938.69" y2="41897.9" gradientUnits="userSpaceOnUse">
<stop stop-color="#B0EF87"/>
<stop offset="1" stop-color="#73C89A"/>
</linearGradient>
<linearGradient id="paint17_linear_0_3260" x1="1841.1" y1="36842.7" x2="2531.7" y2="36842.7" gradientUnits="userSpaceOnUse">
<stop stop-color="#B0EF87"/>
<stop offset="1" stop-color="#73C89A"/>
</linearGradient>
<linearGradient id="paint18_linear_0_3260" x1="283.535" y1="97420.1" x2="296.123" y2="97420.1" gradientUnits="userSpaceOnUse">
<stop stop-color="#B0EF87"/>
<stop offset="1" stop-color="#73C89A"/>
</linearGradient>
<linearGradient id="paint19_linear_0_3260" x1="947.929" y1="101824" x2="1132.35" y2="101824" gradientUnits="userSpaceOnUse">
<stop stop-color="#B0EF87"/>
<stop offset="1" stop-color="#73C89A"/>
</linearGradient>
<linearGradient id="paint20_linear_0_3260" x1="1968.64" y1="81166.6" x2="2610.03" y2="81166.6" gradientUnits="userSpaceOnUse">
<stop stop-color="#B0EF87"/>
<stop offset="1" stop-color="#73C89A"/>
</linearGradient>
<linearGradient id="paint21_linear_0_3260" x1="1964.34" y1="40960.1" x2="2747.87" y2="40960.1" gradientUnits="userSpaceOnUse">
<stop stop-color="#B0EF87"/>
<stop offset="1" stop-color="#73C89A"/>
</linearGradient>
<linearGradient id="paint22_linear_0_3260" x1="205.488" y1="108706" x2="221.925" y2="108706" gradientUnits="userSpaceOnUse">
<stop stop-color="#B0EF87"/>
<stop offset="1" stop-color="#73C89A"/>
</linearGradient>
<linearGradient id="paint23_linear_0_3260" x1="182.277" y1="48243.2" x2="648.133" y2="48243.2" gradientUnits="userSpaceOnUse">
<stop stop-color="#B0EF87"/>
<stop offset="1" stop-color="#73C89A"/>
</linearGradient>
<linearGradient id="paint24_linear_0_3260" x1="20.311" y1="42448.9" x2="419.03" y2="42448.9" gradientUnits="userSpaceOnUse">
<stop stop-color="#B0EF87"/>
<stop offset="1" stop-color="#73C89A"/>
</linearGradient>
<linearGradient id="paint25_linear_0_3260" x1="255.794" y1="34522.7" x2="792.038" y2="34522.7" gradientUnits="userSpaceOnUse">
<stop stop-color="#B0EF87"/>
<stop offset="1" stop-color="#73C89A"/>
</linearGradient>
<linearGradient id="paint26_linear_0_3260" x1="219.344" y1="127602" x2="268.177" y2="127602" gradientUnits="userSpaceOnUse">
<stop stop-color="#B0EF87"/>
<stop offset="1" stop-color="#73C89A"/>
</linearGradient>
<linearGradient id="paint27_linear_0_3260" x1="764.442" y1="101212" x2="973.92" y2="101212" gradientUnits="userSpaceOnUse">
<stop stop-color="#B0EF87"/>
<stop offset="1" stop-color="#73C89A"/>
</linearGradient>
<linearGradient id="paint28_linear_0_3260" x1="514.17" y1="55144.4" x2="751.906" y2="55144.4" gradientUnits="userSpaceOnUse">
<stop stop-color="#B0EF87"/>
<stop offset="1" stop-color="#73C89A"/>
</linearGradient>
<linearGradient id="paint29_linear_0_3260" x1="262.88" y1="101214" x2="286.561" y2="101214" gradientUnits="userSpaceOnUse">
<stop stop-color="#B0EF87"/>
<stop offset="1" stop-color="#73C89A"/>
</linearGradient>
<linearGradient id="paint30_linear_0_3260" x1="922.317" y1="68998" x2="1235.05" y2="68998" gradientUnits="userSpaceOnUse">
<stop stop-color="#B0EF87"/>
<stop offset="1" stop-color="#73C89A"/>
</linearGradient>
<linearGradient id="paint31_linear_0_3260" x1="513.787" y1="115555" x2="601.353" y2="115555" gradientUnits="userSpaceOnUse">
<stop stop-color="#B0EF87"/>
<stop offset="1" stop-color="#73C89A"/>
</linearGradient>
<linearGradient id="paint32_linear_0_3260" x1="477.94" y1="113318" x2="609.866" y2="113318" gradientUnits="userSpaceOnUse">
<stop stop-color="#B0EF87"/>
<stop offset="1" stop-color="#73C89A"/>
</linearGradient>
<linearGradient id="paint33_linear_0_3260" x1="76.223" y1="691322" x2="76.4095" y2="691322" gradientUnits="userSpaceOnUse">
<stop stop-color="#B0EF87"/>
<stop offset="1" stop-color="#73C89A"/>
</linearGradient>
<linearGradient id="paint34_linear_0_3260" x1="1333.29" y1="71190.9" x2="2013.86" y2="71190.9" gradientUnits="userSpaceOnUse">
<stop stop-color="#B0EF87"/>
<stop offset="1" stop-color="#73C89A"/>
</linearGradient>
<linearGradient id="paint35_linear_0_3260" x1="1719.36" y1="161896" x2="2780.46" y2="161896" gradientUnits="userSpaceOnUse">
<stop stop-color="#B0EF87"/>
<stop offset="1" stop-color="#73C89A"/>
</linearGradient>
<linearGradient id="paint36_linear_0_3260" x1="275.084" y1="54026" x2="286.671" y2="54026" gradientUnits="userSpaceOnUse">
<stop stop-color="#B0EF87"/>
<stop offset="1" stop-color="#73C89A"/>
</linearGradient>
<linearGradient id="paint37_linear_0_3260" x1="592.004" y1="113518" x2="890.476" y2="113518" gradientUnits="userSpaceOnUse">
<stop stop-color="#B0EF87"/>
<stop offset="1" stop-color="#73C89A"/>
</linearGradient>
<linearGradient id="paint38_linear_0_3260" x1="168.859" y1="47099.4" x2="177.668" y2="47099.4" gradientUnits="userSpaceOnUse">
<stop stop-color="#B0EF87"/>
<stop offset="1" stop-color="#73C89A"/>
</linearGradient>
<linearGradient id="paint39_linear_0_3260" x1="334.387" y1="9843.48" x2="500.842" y2="9843.48" gradientUnits="userSpaceOnUse">
<stop stop-color="#B0EF87"/>
<stop offset="1" stop-color="#73C89A"/>
</linearGradient>
<linearGradient id="paint40_linear_0_3260" x1="323.533" y1="14494.2" x2="652.189" y2="14494.2" gradientUnits="userSpaceOnUse">
<stop stop-color="#B0EF87"/>
<stop offset="1" stop-color="#73C89A"/>
</linearGradient>
<linearGradient id="paint41_linear_0_3260" x1="205.544" y1="68549" x2="216.714" y2="68549" gradientUnits="userSpaceOnUse">
<stop stop-color="#B0EF87"/>
<stop offset="1" stop-color="#73C89A"/>
</linearGradient>
<linearGradient id="paint42_linear_0_3260" x1="276.741" y1="36879.1" x2="302.986" y2="36879.1" gradientUnits="userSpaceOnUse">
<stop stop-color="#B0EF87"/>
<stop offset="1" stop-color="#73C89A"/>
</linearGradient>
<linearGradient id="paint43_linear_0_3260" x1="628.96" y1="224777" x2="1374.6" y2="224777" gradientUnits="userSpaceOnUse">
<stop stop-color="#B0EF87"/>
<stop offset="1" stop-color="#73C89A"/>
</linearGradient>
<linearGradient id="paint44_linear_0_3260" x1="1209.36" y1="137216" x2="1763.44" y2="137216" gradientUnits="userSpaceOnUse">
<stop stop-color="#B0EF87"/>
<stop offset="1" stop-color="#73C89A"/>
</linearGradient>
<linearGradient id="paint45_linear_0_3260" x1="984.111" y1="32611.9" x2="1248.7" y2="32611.9" gradientUnits="userSpaceOnUse">
<stop stop-color="#B0EF87"/>
<stop offset="1" stop-color="#73C89A"/>
</linearGradient>
<linearGradient id="paint46_linear_0_3260" x1="246" y1="45757.2" x2="256.307" y2="45757.2" gradientUnits="userSpaceOnUse">
<stop stop-color="#B0EF87"/>
<stop offset="1" stop-color="#73C89A"/>
</linearGradient>
<linearGradient id="paint47_linear_0_3260" x1="1582.95" y1="166968" x2="2553.43" y2="166968" gradientUnits="userSpaceOnUse">
<stop stop-color="#B0EF87"/>
<stop offset="1" stop-color="#73C89A"/>
</linearGradient>
<linearGradient id="paint48_linear_0_3260" x1="749.867" y1="16283.4" x2="873.905" y2="16283.4" gradientUnits="userSpaceOnUse">
<stop stop-color="#B0EF87"/>
<stop offset="1" stop-color="#73C89A"/>
</linearGradient>
<linearGradient id="paint49_linear_0_3260" x1="159.935" y1="40548" x2="162.697" y2="40548" gradientUnits="userSpaceOnUse">
<stop stop-color="#B0EF87"/>
<stop offset="1" stop-color="#73C89A"/>
</linearGradient>
</defs>
</svg>
