<svg width="268" height="254" viewBox="0 0 268 254" fill="none" xmlns="http://www.w3.org/2000/svg">
<path d="M160.415 20.4626C179.193 25.0686 190.724 43.1694 203.975 57.2484C216.309 70.3532 229.007 83.2139 235.333 100.062C241.833 117.374 242.979 136.038 240.436 154.355C237.763 173.603 233.14 193.398 220.341 208.02C207.463 222.734 188.44 230.25 169.558 235.33C151.247 240.258 131.956 241.7 113.658 236.727C95.8348 231.884 81.5735 219.728 67.6192 207.628C53.4036 195.303 37.8061 183.233 31.5112 165.502C25.1508 147.587 28.5377 127.99 32.7649 109.455C36.9582 91.0693 42.9378 72.6148 55.8337 58.8552C68.6389 45.1926 86.9736 39.3144 104.552 32.8612C122.768 26.174 141.569 15.8399 160.415 20.4626Z" fill="white"/>
<path opacity="0.3" d="M177.042 1.9401C198.057 7.08809 210.962 27.3192 225.792 43.0553C239.595 57.7024 253.806 72.0767 260.886 90.9073C268.161 110.257 269.443 131.118 266.597 151.59C263.605 173.104 258.431 195.229 244.108 211.572C229.695 228.017 211.797 240.01 190.666 245.688C170.173 251.195 164.564 252.798 141.31 242.096C121.364 236.683 75.6166 255.619 59.9997 242.096C44.0903 228.32 39.8241 183.867 32.7792 164.05C25.6609 144.026 29.4514 122.123 34.1823 101.407C38.8751 80.8566 45.5672 60.2301 59.9997 44.8512C74.3306 29.5806 94.8498 23.0105 114.523 15.7979C134.909 8.32361 155.95 -3.22667 177.042 1.9401Z" fill="url(#paint0_linear_0_2876)"/>
<path opacity="0.9" d="M90.8287 247.412C87.6869 246.384 84.3845 246.018 81.0966 246.359C68.9704 247.617 38.1553 249.459 27.5633 237.272C15.1792 223.023 12.7341 196.626 6.38254 178.308C-0.144196 159.484 -1.29497 139.192 1.25897 119.276C3.94273 98.3483 8.58456 76.8251 21.4354 60.9265C34.366 44.9292 50.4232 33.2628 69.3815 27.7386C87.528 22.451 92.6659 20.8638 112.856 30.8332C113.385 31.0941 113.933 31.3199 114.506 31.4599C132.816 35.9386 172.815 18.2808 186.61 31.233C200.884 44.6344 204.711 87.8775 211.031 107.156C217.418 126.635 214.017 147.942 209.773 168.094C205.562 188.085 199.559 208.15 186.61 223.111C173.753 237.966 155.344 244.357 137.694 251.373C123.633 256.963 100.688 250.636 90.8287 247.412Z" fill="url(#paint1_linear_0_2876)"/>
<mask id="mask0_0_2876" style="mask-type:alpha" maskUnits="userSpaceOnUse" x="16" y="17" width="219" height="228">
<path d="M151.496 18.6904C170.575 23.3702 182.291 41.7616 195.755 56.0668C208.287 69.3819 221.189 82.4491 227.617 99.5673C234.221 117.158 235.386 136.121 232.801 154.732C230.086 174.289 225.388 194.402 212.384 209.259C199.299 224.209 183.05 235.111 163.865 240.273C145.26 245.28 140.168 246.736 119.056 237.008C100.947 232.087 59.4139 249.301 45.2356 237.008C30.7917 224.484 26.9186 184.074 20.5226 166.058C14.06 147.856 17.5014 127.944 21.7964 109.112C26.057 90.4306 32.1326 71.6798 45.2356 57.6994C58.2463 43.8174 76.8754 37.8448 94.7359 31.288C113.244 24.4934 132.347 13.9935 151.496 18.6904Z" fill="#FFA07D"/>
</mask>
<g mask="url(#mask0_0_2876)">
<path d="M301.925 16.7656H-38.1638V241.542H301.925V16.7656Z" fill="white"/>
<path d="M3.66522 47.9732H21.8345V19.8955H22.4489V47.9732H37.2355V19.2725H3.66522V47.9732Z" fill="#F5F5F5"/>
<path d="M37.2342 48.5208H22.4477V80.1725H37.2342V48.5208Z" fill="#F5F5F5"/>
<path d="M37.2342 82.3843H22.4477V112.967H37.2342V82.3843Z" fill="#F5F5F5"/>
<path d="M21.8346 82.3843H3.66522V112.967H21.8346V82.3843Z" fill="#F5F5F5"/>
<path d="M37.2342 113.514H22.4477V141.073H37.2342V113.514Z" fill="#F5F5F5"/>
<path d="M21.8346 113.514H3.66522V141.073H21.8346V113.514Z" fill="#F5F5F5"/>
<path d="M21.8346 48.5208H3.66522V80.1725H21.8346V48.5208Z" fill="#F5F5F5"/>
<path d="M92.8279 36.5796H55.1709V75.8338H92.8279V36.5796Z" fill="#E0E0E0"/>
<path d="M90.2785 36.5801H52.6217V75.8343H90.2785V36.5801Z" fill="#FAFAFA"/>
<path d="M90.2892 75.8451H52.609V36.5676H90.2892V75.8451ZM52.6324 75.8217H90.2658V36.5909H52.6324L52.6324 75.8217Z" fill="#E0E0E0"/>
<path d="M85.2147 41.8564H57.6821V70.5568H85.2147V41.8564Z" fill="white"/>
<path d="M57.6838 70.7478C57.4886 71.0365 57.2607 71.3016 57.0044 71.5377C56.5647 72.0017 55.9468 72.6297 55.2543 73.312C54.5614 73.9944 53.9249 74.6022 53.4555 75.0337C53.2173 75.2852 52.9502 75.5077 52.6598 75.6965C52.8531 75.4084 53.08 75.1443 53.3356 74.9098C53.7753 74.4458 54.3948 73.8162 55.0896 73.1321C55.7842 72.4479 56.4222 71.8387 56.8916 71.4073C57.1283 71.1565 57.3943 70.9351 57.6838 70.7478Z" fill="#E0E0E0"/>
<path d="M85.2156 70.677C85.5043 70.8721 85.7695 71.1 86.0056 71.3563C86.4696 71.7961 87.0976 72.414 87.7799 73.1065C88.4623 73.7993 89.0701 74.4359 89.5016 74.9052C89.7531 75.1434 89.9755 75.4105 90.1643 75.7009C89.8763 75.5076 89.6123 75.2808 89.3777 75.0253C88.9138 74.5854 88.2842 73.9659 87.5999 73.2712C86.9159 72.5765 86.3066 71.9385 85.8751 71.4691C85.6244 71.2324 85.403 70.9664 85.2156 70.677Z" fill="#E0E0E0"/>
<path d="M85.1394 41.9328C85.3345 41.644 85.5625 41.3789 85.8189 41.1428C86.2585 40.6788 86.8764 40.0507 87.5691 39.3686C88.2618 38.6861 88.8984 38.0784 89.3678 37.6468C89.6058 37.3952 89.8729 37.1728 90.1635 36.9841C89.9701 37.2721 89.7432 37.5361 89.4877 37.7707C89.048 38.2347 88.4285 38.8641 87.7336 39.5485C87.039 40.2327 86.4011 40.8417 85.9316 41.2733C85.6949 41.5241 85.429 41.7455 85.1394 41.9328V41.9328Z" fill="#E0E0E0"/>
<path d="M57.6083 42.0036C57.3195 41.8086 57.0545 41.5806 56.8184 41.3242C56.3544 40.8845 55.7264 40.2665 55.0441 39.574C54.3617 38.8812 53.7538 38.2448 53.3225 37.7754C53.0709 37.5373 52.8484 37.2702 52.6598 36.9797C52.9478 37.173 53.2118 37.3998 53.4463 37.6553C53.9104 38.095 54.5398 38.7147 55.224 39.4094C55.9082 40.1041 56.5174 40.7421 56.9488 41.2116C57.1996 41.4482 57.4211 41.7141 57.6083 42.0036Z" fill="#E0E0E0"/>
<path d="M85.1388 70.5568C85.1344 70.5105 85.1325 70.4639 85.1329 70.4174C85.1314 70.3195 85.1294 70.1876 85.1268 70.0168C85.1239 69.657 85.1198 69.1395 85.1145 68.4675C85.108 67.1079 85.0985 65.1299 85.0867 62.6182C85.0736 57.5916 85.055 50.4306 85.0326 41.8565L85.1388 41.9626C77.1238 41.9672 67.7111 41.9726 57.6843 41.9784H57.6816L57.8035 41.8565C57.7972 52.3907 57.7912 62.2456 57.7864 70.5567L57.6816 70.4522C65.9092 70.4743 72.7595 70.4928 77.5624 70.5056C79.9619 70.5174 81.8496 70.5267 83.1467 70.5329C83.7875 70.5383 84.2799 70.5423 84.6241 70.5451C84.7866 70.5476 84.9123 70.5496 85.0059 70.551C85.0503 70.5506 85.0946 70.5525 85.1388 70.5568C85.0986 70.5616 85.058 70.5636 85.0175 70.5628C84.9266 70.5642 84.8048 70.5661 84.647 70.5687C84.3083 70.5714 83.8224 70.5754 83.1896 70.5807C81.898 70.5871 80.0185 70.5963 77.629 70.6081C72.8101 70.6209 65.9368 70.6394 57.6816 70.6616L57.577 70.6618L57.5769 70.5567C57.5719 62.2455 57.5659 52.3907 57.5596 41.8565L57.5595 41.7346H57.6843C67.711 41.7402 77.1238 41.7456 85.1388 41.7503H85.2454L85.2452 41.8565C85.2228 50.4587 85.2042 57.6432 85.1912 62.6862C85.1791 65.1876 85.1697 67.1575 85.1633 68.5114C85.1579 69.1746 85.1538 69.6852 85.1509 70.0403C85.1483 70.2062 85.1463 70.3343 85.1449 70.4293C85.1458 70.4719 85.1438 70.5145 85.1388 70.5568Z" fill="#E0E0E0"/>
<path d="M76.0444 51.6128H66.8572V60.7999H76.0444V51.6128Z" fill="#EBEBEB"/>
<path d="M216.876 36.5713H179.219V75.8255H216.876V36.5713Z" fill="#E0E0E0"/>
<path d="M214.327 36.5732H176.67V75.8274H214.327V36.5732Z" fill="#FAFAFA"/>
<path d="M214.336 75.8373H176.655V36.5598H214.336L214.336 75.8373ZM176.679 75.8139H214.312V36.5831H176.679L176.679 75.8139Z" fill="#E0E0E0"/>
<path d="M209.263 41.8481H181.73V70.5484H209.263V41.8481Z" fill="white"/>
<path d="M181.73 70.7395C181.535 71.0282 181.307 71.2933 181.051 71.5294C180.611 71.9934 179.993 72.6214 179.301 73.3036C178.608 73.9861 177.971 74.5939 177.502 75.0254C177.264 75.2769 176.996 75.4994 176.706 75.6881C176.899 75.4001 177.126 75.136 177.382 74.9014C177.822 74.4375 178.441 73.8079 179.136 73.1238C179.83 72.4396 180.468 71.8303 180.938 71.3989C181.175 71.1482 181.441 70.9268 181.73 70.7395Z" fill="#E0E0E0"/>
<path d="M209.263 70.6689C209.552 70.8641 209.817 71.092 210.054 71.3483C210.518 71.7881 211.146 72.4059 211.828 73.0984C212.51 73.7912 213.118 74.4278 213.549 74.8972C213.801 75.1354 214.023 75.4025 214.212 75.6929C213.924 75.4996 213.66 75.2728 213.426 75.0172C212.962 74.5774 212.332 73.9579 211.648 73.2631C210.964 72.5685 210.354 71.9305 209.923 71.461C209.672 71.2243 209.451 70.9584 209.263 70.6689Z" fill="#E0E0E0"/>
<path d="M209.187 41.9252C209.382 41.6365 209.61 41.3714 209.867 41.1353C210.306 40.6712 210.924 40.0432 211.617 39.3611C212.31 38.6785 212.946 38.0708 213.416 37.6392C213.654 37.3876 213.921 37.1652 214.211 36.9766C214.018 37.2645 213.791 37.5285 213.536 37.7631C213.096 38.2272 212.476 38.8566 211.781 39.5409C211.087 40.2251 210.449 40.8342 209.979 41.2658C209.743 41.5165 209.477 41.738 209.187 41.9252Z" fill="#E0E0E0"/>
<path d="M181.655 41.9951C181.366 41.8 181.101 41.572 180.865 41.3157C180.401 40.876 179.773 40.258 179.09 39.5655C178.408 38.8726 177.8 38.2362 177.369 37.7668C177.117 37.5288 176.895 37.2617 176.706 36.9712C176.994 37.1645 177.258 37.3913 177.492 37.6468C177.957 38.0865 178.586 38.7061 179.27 39.4009C179.955 40.0955 180.564 40.7336 180.995 41.203C181.246 41.4396 181.467 41.7056 181.655 41.9951V41.9951Z" fill="#E0E0E0"/>
<path d="M209.187 70.548C209.182 70.5017 209.18 70.4552 209.181 70.4086C209.179 70.3107 209.177 70.1789 209.175 70.0081C209.172 69.6482 209.168 69.1308 209.162 68.4587C209.156 67.0992 209.147 65.1211 209.135 62.6094C209.122 57.5828 209.103 50.4219 209.081 41.8477L209.187 41.9538C201.172 41.9584 191.759 41.9638 181.732 41.9696H181.73L181.851 41.8477C181.845 52.3819 181.839 62.2368 181.834 70.548L181.73 70.4435C189.957 70.4655 196.807 70.4841 201.61 70.4969C204.01 70.5086 205.898 70.5179 207.195 70.5242C207.835 70.5295 208.328 70.5335 208.672 70.5363C208.835 70.5388 208.96 70.5408 209.054 70.5422C209.098 70.5419 209.143 70.5438 209.187 70.548C209.147 70.5529 209.106 70.5549 209.065 70.554C208.975 70.5555 208.853 70.5573 208.695 70.5599C208.356 70.5626 207.87 70.5666 207.238 70.572C205.946 70.5783 204.066 70.5876 201.677 70.5993C196.858 70.6122 189.985 70.6307 181.73 70.6528L181.625 70.6531L181.625 70.548C181.62 62.2368 181.614 52.3819 181.608 41.8477L181.607 41.7258H181.732C191.759 41.7314 201.172 41.7368 209.187 41.7415H209.293L209.293 41.8477C209.271 50.45 209.252 57.6344 209.239 62.6774C209.227 65.1788 209.218 67.1488 209.211 68.5027C209.206 69.1658 209.202 69.6764 209.199 70.0315C209.196 70.1975 209.194 70.3255 209.193 70.4206C209.194 70.4632 209.192 70.5057 209.187 70.548Z" fill="#E0E0E0"/>
<path d="M200.092 51.6047H190.905V60.7919H200.092V51.6047Z" fill="#EBEBEB"/>
<path d="M163.161 30.4678H159.77V103.358H163.161V30.4678Z" fill="#E0E0E0"/>
<path d="M110.641 31.031H159.206C159.219 31.031 159.231 31.0362 159.24 31.0453C159.249 31.0545 159.255 31.0669 159.255 31.0799V103.41C159.255 103.423 159.249 103.436 159.24 103.445C159.231 103.454 159.219 103.459 159.206 103.459H110.641C110.628 103.459 110.616 103.454 110.607 103.445C110.597 103.436 110.592 103.423 110.592 103.41V31.0799C110.592 31.0669 110.597 31.0545 110.607 31.0453C110.616 31.0362 110.628 31.031 110.641 31.031V31.031Z" fill="#F5F5F5"/>
<path d="M159.768 104.024H110.075C110.062 104.024 110.05 104.018 110.041 104.009C110.032 104 110.027 103.988 110.026 103.975V30.5167C110.026 30.5037 110.032 30.4913 110.041 30.4821C110.05 30.4729 110.062 30.4678 110.075 30.4678H159.768C159.781 30.4678 159.793 30.4729 159.803 30.4821C159.812 30.4913 159.817 30.5037 159.817 30.5167V103.975C159.817 103.981 159.816 103.987 159.813 103.993C159.811 103.999 159.807 104.005 159.803 104.009C159.798 104.014 159.793 104.017 159.787 104.02C159.781 104.022 159.774 104.024 159.768 104.024H159.768ZM111.203 102.896H158.64C158.646 102.896 158.653 102.895 158.659 102.892C158.665 102.89 158.67 102.886 158.675 102.882C158.679 102.877 158.683 102.872 158.685 102.866C158.688 102.86 158.689 102.854 158.689 102.847V31.6442C158.689 31.6312 158.684 31.6188 158.675 31.6096C158.665 31.6005 158.653 31.5953 158.64 31.5953H111.203C111.19 31.5953 111.178 31.6004 111.168 31.6096C111.159 31.6188 111.154 31.6312 111.154 31.6441V102.847C111.154 102.854 111.155 102.86 111.158 102.866C111.16 102.872 111.164 102.877 111.168 102.882C111.173 102.886 111.178 102.89 111.184 102.892C111.19 102.895 111.196 102.896 111.203 102.896Z" fill="#EBEBEB"/>
<path d="M115.541 35.4998H154.392C154.405 35.4998 154.417 35.5049 154.427 35.5141C154.436 35.5232 154.441 35.5357 154.441 35.5486V98.8948C154.441 98.9078 154.436 98.9202 154.426 98.9294C154.417 98.9386 154.405 98.9437 154.392 98.9437H115.541C115.528 98.9437 115.515 98.9386 115.506 98.9294C115.497 98.9202 115.492 98.9078 115.492 98.8948V35.5486C115.492 35.5357 115.497 35.5232 115.506 35.5141C115.515 35.5049 115.528 35.4998 115.541 35.4998H115.541Z" fill="white"/>
<path d="M124.019 53.4861H145.827C145.835 53.4861 145.843 53.4893 145.848 53.4951C145.854 53.5009 145.857 53.5087 145.857 53.5169V79.0879C145.857 79.0961 145.854 79.104 145.848 79.1097C145.843 79.1155 145.835 79.1188 145.826 79.1188H124.019C124.011 79.1188 124.003 79.1156 123.997 79.1098C123.991 79.104 123.988 79.0961 123.988 79.088V53.5169C123.988 53.5087 123.991 53.5009 123.997 53.4951C124.003 53.4893 124.011 53.4861 124.019 53.4861Z" fill="#EBEBEB"/>
<path d="M144.126 75.9818C144.154 76.0641 143.075 76.5369 141.021 76.2961C139.759 76.1313 138.558 75.6515 137.53 74.9011C136.133 73.8614 135.167 72.3428 134.818 70.6358C134.616 69.5673 134.701 68.4641 135.066 67.4394C135.43 66.4147 136.061 65.5054 136.893 64.8048C137.361 64.4115 137.893 64.1 138.465 63.8833C139.094 63.6516 139.768 63.5739 140.433 63.6566C141.163 63.7276 141.851 64.0284 142.4 64.5157C142.707 64.8045 142.939 65.1647 143.074 65.5644C143.21 65.9641 143.244 66.3909 143.175 66.8072C143.025 67.5579 142.648 68.2445 142.095 68.7742C141.608 69.256 141.053 69.6647 140.448 69.9877C139.241 70.6577 137.896 71.0418 136.518 71.1103C135.06 71.1899 133.609 70.8597 132.329 70.157C131.007 69.4218 129.934 68.3095 129.247 66.9618C128.535 65.5838 128.339 63.9971 128.694 62.4873C129.041 61.0274 129.873 59.728 131.052 58.8004C131.641 58.344 132.312 58.0051 133.029 57.8021C133.756 57.6091 134.518 57.5853 135.255 57.7327C136.035 57.8814 136.745 58.2818 137.276 58.8725C137.786 59.4763 138.067 60.241 138.068 61.0316C138.075 61.7515 137.893 62.4608 137.541 63.0884C137.218 63.6583 136.795 64.1659 136.294 64.5874C135.389 65.3482 134.333 65.9092 133.196 66.2336C132.138 66.5425 131.028 66.6282 129.936 66.4852C128.92 66.3459 127.949 65.974 127.1 65.3986C126.368 64.9176 125.748 64.2859 125.281 63.5458C124.814 62.8057 124.51 61.9743 124.391 61.1073C124.245 59.7979 124.604 58.4823 125.394 57.4281C125.865 56.7726 126.508 56.2594 127.251 55.9449C127.762 55.7514 128.053 55.758 128.066 55.8067C128.087 55.8764 127.834 55.9889 127.42 56.2654C126.83 56.6697 126.337 57.1997 125.976 57.8172C125.409 58.7599 125.199 59.8753 125.385 60.9599C125.531 61.6584 125.82 62.3191 126.235 62.8998C126.65 63.4806 127.181 63.9687 127.794 64.3333C128.538 64.7684 129.368 65.0361 130.226 65.1178C131.085 65.1995 131.95 65.0933 132.763 64.8065C133.68 64.5138 134.527 64.0349 135.25 63.3998C135.603 63.1209 135.89 62.7674 136.091 62.3646C136.292 61.9618 136.401 61.5197 136.411 61.0697C136.408 60.6583 136.254 60.2624 135.978 59.9574C135.702 59.6525 135.323 59.4597 134.914 59.416C134.439 59.3311 133.95 59.3541 133.485 59.4833C132.995 59.6329 132.537 59.8726 132.135 60.1901C131.282 60.879 130.683 61.8332 130.434 62.9012C130.182 63.9996 130.33 65.1518 130.852 66.1509C131.379 67.1798 132.197 68.0306 133.205 68.5968C134.193 69.1429 135.314 69.4037 136.442 69.35C137.556 69.3043 138.644 69.0067 139.626 68.4797C140.09 68.2428 140.517 67.9413 140.896 67.5842C141.209 67.3046 141.434 66.9393 141.541 66.5335C141.572 66.3821 141.565 66.2252 141.519 66.0774C141.474 65.9296 141.392 65.7957 141.28 65.6883C140.986 65.4288 140.618 65.2669 140.228 65.2245C139.812 65.1611 139.387 65.1972 138.988 65.3298C138.57 65.4751 138.18 65.6891 137.832 65.9628C137.174 66.4871 136.666 67.1749 136.357 67.9574C136.048 68.7399 135.95 69.5897 136.072 70.422C136.307 71.8608 137.045 73.1693 138.156 74.1136C139.026 74.8358 140.051 75.3473 141.151 75.6085C143.001 76.0387 144.111 75.8257 144.126 75.9818Z" fill="#E0E0E0"/>
<path d="M8.36682 199.535C13.425 200.851 19.2279 199.571 23.4349 196.47C20.9135 195.203 18.0308 194.849 15.2779 195.469C12.553 196.092 10.063 197.313 8.36682 199.535" fill="url(#paint2_linear_0_2876)"/>
<path d="M9.49158 196.762C12.3246 192.144 17.7557 189.129 23.167 188.855C22.5436 191.056 20.7349 192.766 18.6941 193.8C16.6534 194.834 14.3753 195.284 12.1296 195.72C11.2561 195.889 10.0579 196.076 9.49158 196.762" fill="url(#paint3_linear_0_2876)"/>
<path d="M11.6085 183.147C12.6533 183.446 13.0103 183.987 13.8377 184.692C16.6594 187.09 19.9967 188.805 23.5896 189.702C23.9621 189.794 24.4508 189.831 24.6354 189.494C24.7967 189.2 24.5926 188.844 24.3833 188.583C22.8159 186.745 20.7817 185.364 18.4951 184.585C16.2445 183.747 14.2947 182.737 11.6085 182.954" fill="url(#paint4_linear_0_2876)"/>
<path d="M17.2903 160.717C17.0488 160.835 16.7967 160.929 16.5374 161C15.9964 161.182 15.3003 161.417 14.4651 161.699C12.7178 162.294 10.3177 163.156 7.71253 164.224C5.13311 165.33 2.70044 166.229 1.31517 167.429C0.762093 167.89 0.322296 168.472 0.0297 169.13C-0.169005 169.6 -0.204498 169.887 -0.230973 169.882C-0.240922 169.812 -0.238014 169.741 -0.222392 169.672C-0.191866 169.473 -0.142613 169.278 -0.0752892 169.089C0.186848 168.39 0.617846 167.767 1.17924 167.276C2.01561 166.569 2.95076 165.988 3.95507 165.551C5.06533 165.033 6.29613 164.493 7.60279 163.956C10.2158 162.885 12.6346 162.051 14.4017 161.504C15.2847 161.229 16.0053 161.026 16.5049 160.892C16.7606 160.809 17.0236 160.751 17.2903 160.717V160.717Z" fill="url(#paint5_linear_0_2876)"/>
<path d="M20.7246 176.611C20.6375 176.672 20.5433 176.722 20.4442 176.76C20.2269 176.859 19.9546 176.983 19.6209 177.135C19.2603 177.289 18.8226 177.485 18.3295 177.745C17.8345 178.001 17.257 178.264 16.6556 178.625C16.3503 178.798 16.0317 178.98 15.6998 179.168C15.3686 179.359 15.0406 179.585 14.6918 179.803C13.9872 180.231 13.2816 180.757 12.5281 181.295C9.3015 183.698 6.4871 186.611 4.19503 189.917C3.68371 190.689 3.1817 191.412 2.77868 192.131C2.5723 192.487 2.35733 192.823 2.1782 193.16C2.00117 193.498 1.83103 193.823 1.66779 194.134C1.3274 194.747 1.08429 195.334 0.846058 195.837C0.602989 196.339 0.422032 196.783 0.279826 197.149C0.139682 197.487 0.0253408 197.763 -0.0659781 197.984C-0.100752 198.084 -0.14752 198.18 -0.205261 198.269C-0.189709 198.165 -0.161375 198.062 -0.120895 197.964C-0.0428088 197.738 0.0549315 197.455 0.174792 197.108C0.301315 196.735 0.467791 196.283 0.697719 195.772C0.922894 195.26 1.15436 194.665 1.48496 194.042C1.64366 193.726 1.80931 193.397 1.98189 193.054C2.15695 192.711 2.36836 192.371 2.57163 192.01C2.96846 191.281 3.4663 190.547 3.97546 189.766C6.2607 186.416 9.09913 183.479 12.3693 181.08C13.1326 180.545 13.8485 180.022 14.5634 179.601C14.9174 179.385 15.2503 179.162 15.5867 178.976C15.9235 178.792 16.2471 178.615 16.5575 178.445C17.1687 178.094 17.7558 177.842 18.2597 177.599C18.7619 177.352 19.208 177.17 19.5767 177.031C19.9195 176.899 20.1994 176.792 20.4228 176.706C20.5192 176.662 20.6205 176.63 20.7246 176.611V176.611Z" fill="url(#paint6_linear_0_2876)"/>
<path d="M243.479 48.5212H227.511V80.173H243.479V48.5212Z" fill="#F5F5F5"/>
<path d="M243.479 82.3845H227.511V112.967H243.479V82.3845Z" fill="#F5F5F5"/>
<path d="M243.479 113.514H227.511V141.073H243.479V113.514Z" fill="#F5F5F5"/>
<path d="M243.479 47.9737V19.896H244.093V47.9737H261.346V19.2729H227.511V47.9737H243.479Z" fill="#F5F5F5"/>
<path d="M239.69 181.392C237.157 179.805 234.294 178.82 231.321 178.512C229.953 178.371 228.459 178.411 227.362 179.239C227.235 179.312 227.131 179.418 227.059 179.545C226.987 179.672 226.951 179.816 226.954 179.962C227.018 180.169 227.156 180.345 227.341 180.457C230.747 183.055 235.898 183.383 239.69 181.392Z" fill="url(#paint7_linear_0_2876)"/>
<path d="M239.477 181.156C237.538 179.733 235.73 178.141 234.071 176.4C232.408 174.647 231.238 172.484 230.682 170.132C230.537 169.418 230.492 168.602 230.95 168.035C235.259 171.4 238.644 175.752 239.477 181.156" fill="url(#paint8_linear_0_2876)"/>
<path d="M243.871 188.929C241.307 189.24 239.073 190.592 237.159 192.326C235.234 194.077 233.894 196.378 233.32 198.916C235.835 198.761 237.969 196.987 239.516 194.999C241.064 193.01 242.136 190.828 243.836 188.968" fill="url(#paint9_linear_0_2876)"/>
<path d="M243.918 159.444C241.249 159.409 238.603 159.931 236.147 160.977C233.692 162.023 231.481 163.57 229.657 165.519C232.314 165.936 235.05 165.251 237.466 164.071C239.883 162.891 242.03 161.236 244.158 159.592" fill="url(#paint10_linear_0_2876)"/>
<path d="M238.193 157.529C235.589 157.318 233.084 156.995 230.58 157.763C228.076 158.53 225.798 160.271 224.777 162.683C227.234 162.881 229.699 162.415 231.915 161.335C234.117 160.256 236.218 158.982 238.193 157.529" fill="url(#paint11_linear_0_2876)"/>
<path d="M246.67 157.616C244.328 156.081 241.922 154.518 239.195 153.883C236.468 153.247 233.307 153.717 231.405 155.772C233.613 157.068 236.291 157.221 238.851 157.219C241.411 157.217 244.55 157.188 246.963 158.042" fill="url(#paint12_linear_0_2876)"/>
<path d="M196.51 141.422H69.993V199.786H196.51V141.422Z" fill="#F5F5F5"/>
<path d="M193.511 197.049H72.8885V144.527H193.511V197.049ZM73.6779 196.26H192.722V145.316H73.6779V196.26Z" fill="#E0E0E0"/>
<path d="M227.402 141.422H196.509V199.786H227.402V141.422Z" fill="#E0E0E0"/>
<path d="M73.3081 160.789H193.142C193.247 160.789 193.299 160.736 193.299 160.631C193.299 160.526 193.247 160.473 193.142 160.473H73.3081C73.2029 160.473 73.1502 160.526 73.1502 160.631C73.1502 160.684 73.2029 160.789 73.3081 160.789Z" fill="#E0E0E0"/>
<path d="M133.568 160.631C133.883 155.368 133.936 150.053 133.62 144.79C133.62 144.685 133.568 144.632 133.462 144.632C133.357 144.632 133.305 144.685 133.305 144.79C132.989 150.053 132.989 155.368 133.357 160.631C133.357 160.684 133.41 160.736 133.462 160.736C133.515 160.736 133.568 160.684 133.568 160.631Z" fill="#E0E0E0"/>
<path d="M165.828 152.684C165.828 153.579 165.091 154.316 164.197 154.316C163.302 154.316 162.565 153.579 162.565 152.684C162.565 151.79 163.302 151.053 164.197 151.053C165.091 151.053 165.828 151.79 165.828 152.684Z" fill="#E0E0E0"/>
<path d="M69.895 152.684C69.895 153.579 69.1582 154.316 68.2636 154.316C67.3689 154.316 66.6321 153.579 66.6321 152.684C66.6321 151.79 67.3689 151.053 68.2636 151.053C69.1582 151.053 69.8424 151.79 69.895 152.684Z" fill="#E0E0E0"/>
<path d="M133.198 172.42C134.099 172.42 134.829 171.689 134.829 170.788C134.829 169.887 134.099 169.157 133.198 169.157C132.297 169.157 131.567 169.887 131.567 170.788C131.567 171.689 132.297 172.42 133.198 172.42Z" fill="#E0E0E0"/>
<path d="M70.4745 199.786L63.9487 236.415H67.58L79.6317 199.786H70.4745Z" fill="#E0E0E0"/>
<path d="M96.7888 199.786L90.263 236.415H93.8943L105.946 199.786H96.7888Z" fill="#E0E0E0"/>
<path d="M187.563 199.786L193.036 236.467H189.352L178.406 199.786H187.563Z" fill="#E0E0E0"/>
<path d="M212.035 199.786L218.193 236.467H214.562L202.878 199.786H212.035Z" fill="#E0E0E0"/>
<path d="M101.629 187.313C101.629 188.208 100.892 188.945 99.9978 188.945C99.1031 188.945 98.3663 188.208 98.3663 187.313C98.3663 186.418 99.1031 185.682 99.9978 185.682C100.892 185.682 101.629 186.418 101.629 187.313Z" fill="#E0E0E0"/>
<path d="M73.3081 178.84H193.142C193.247 178.84 193.299 178.788 193.299 178.683C193.299 178.577 193.247 178.525 193.142 178.525H73.3081C73.2029 178.525 73.1502 178.577 73.1502 178.683C73.1502 178.788 73.2029 178.84 73.3081 178.84Z" fill="#E0E0E0"/>
<path d="M195.563 121.634L201.931 141.738H197.3L195.3 134.791L195.563 121.634Z" fill="#EBEBEB"/>
<path d="M102.833 115.319C102.833 115.319 98.5702 118.581 102.675 122.844C102.728 122.897 102.833 122.95 102.938 122.95L140.093 122.739C140.093 122.739 143.251 119.16 140.62 115.055L102.833 115.319Z" fill="#EBEBEB"/>
<path d="M131.882 118.687C131.882 118.739 127.251 118.739 121.567 118.739C115.883 118.739 111.252 118.687 111.252 118.687C111.252 118.634 115.883 118.634 121.567 118.634C127.251 118.581 131.882 118.634 131.882 118.687Z" fill="#E0E0E0"/>
<path d="M126.094 120.002C126.094 120.055 123.936 120.055 121.252 120.055C118.568 120.055 116.41 120.002 116.41 120.002C116.41 119.95 118.568 119.95 121.252 119.95C123.936 119.95 126.094 120.002 126.094 120.002Z" fill="#E0E0E0"/>
<path d="M135.671 122.581C135.671 122.581 135.777 122.16 135.882 121.476C136.04 120.581 136.092 119.687 136.092 118.792C136.092 117.897 135.987 117.003 135.829 116.108C135.724 115.424 135.566 115.003 135.619 115.003C135.671 115.108 135.724 115.213 135.724 115.266C135.777 115.476 135.882 115.739 135.934 116.055C136.145 116.95 136.25 117.845 136.25 118.792C136.25 119.687 136.198 120.634 135.987 121.529C135.935 121.897 135.829 122.16 135.777 122.318C135.777 122.423 135.724 122.528 135.671 122.581Z" fill="#E0E0E0"/>
<path d="M138.462 115.003C138.515 115.108 138.567 115.161 138.62 115.266C138.673 115.371 138.725 115.476 138.778 115.582C138.83 115.739 138.936 115.845 138.988 116.055C139.146 116.476 139.252 116.897 139.357 117.318C139.462 117.845 139.515 118.371 139.515 118.897C139.515 119.423 139.462 119.95 139.357 120.476C139.252 120.897 139.146 121.318 139.041 121.739C138.988 121.897 138.936 122.055 138.883 122.213C138.831 122.318 138.778 122.423 138.725 122.528C138.673 122.634 138.62 122.739 138.567 122.792C138.567 122.792 138.725 122.371 138.988 121.686C139.094 121.265 139.199 120.897 139.304 120.476C139.409 119.95 139.409 119.476 139.409 118.95C139.409 118.423 139.357 117.897 139.252 117.424C139.199 117.003 139.094 116.582 138.936 116.213C138.62 115.424 138.409 115.003 138.462 115.003Z" fill="#E0E0E0"/>
<path d="M75.634 122.634C75.5813 122.581 75.5287 122.476 75.4761 122.371C75.4235 122.265 75.3708 122.16 75.3182 122.055C75.2656 121.95 75.1603 121.792 75.1077 121.634C74.9498 121.265 74.8446 120.844 74.7393 120.476C74.6341 120.002 74.5814 119.476 74.5814 119.002C74.5814 118.476 74.634 118.002 74.7919 117.529C74.8972 117.108 75.0024 116.739 75.213 116.371C75.2656 116.213 75.3182 116.108 75.4235 115.95C75.4761 115.845 75.5287 115.739 75.634 115.634C75.6866 115.529 75.7392 115.476 75.7919 115.371C75.8445 115.371 75.5813 115.74 75.3182 116.371C75.1603 116.739 75.0551 117.108 74.9498 117.529C74.8446 118.002 74.7919 118.476 74.7919 119.002C74.7919 119.476 74.8446 120.002 74.9498 120.476C75.0024 120.844 75.1603 121.265 75.2656 121.634C75.4235 122.265 75.634 122.634 75.634 122.634Z" fill="#E0E0E0"/>
<path d="M71.6311 123.529C71.5784 123.423 71.4732 123.371 71.4206 123.265C71.3679 123.16 71.2627 123.055 71.21 122.897C71.1048 122.739 71.0522 122.581 70.9995 122.423C70.8416 122.002 70.6838 121.581 70.5785 121.108C70.3154 120.002 70.3154 118.845 70.5259 117.739C70.6311 117.266 70.7364 116.845 70.8943 116.424C70.9469 116.266 70.9995 116.108 71.1048 115.95C71.1574 115.845 71.21 115.687 71.2627 115.582C71.3153 115.476 71.3679 115.371 71.4206 115.319C71.4206 115.319 71.21 115.74 70.9469 116.476C70.789 116.897 70.6838 117.371 70.6311 117.792C70.5259 118.318 70.5259 118.897 70.5259 119.424C70.5259 120.002 70.6311 120.529 70.7364 121.055C70.8416 121.476 70.9469 121.95 71.1048 122.371C71.3679 123.108 71.6311 123.529 71.6311 123.529Z" fill="#E0E0E0"/>
<path d="M138.725 134.001V141.106H124.989V134.001H138.725Z" fill="#EBEBEB"/>
<path d="M94.3064 137.633C94.3064 137.685 94.3064 137.738 94.3064 137.843C94.4643 140.001 96.2536 141.685 98.4114 141.632H139.408V141.106H129.62C127.672 141.106 126.041 139.527 126.041 137.527C126.041 135.58 127.62 133.949 129.62 133.949H139.356V133.212L98.4114 133.37C96.1484 133.37 94.3064 135.212 94.3064 137.475C94.3064 137.527 94.3064 137.58 94.3064 137.633Z" fill="#E0E0E0"/>
<path d="M138.724 137.685C138.724 137.738 135.882 137.738 132.409 137.738C128.936 137.738 126.094 137.685 126.094 137.685C126.094 137.633 128.936 137.633 132.409 137.633C135.882 137.633 138.724 137.633 138.724 137.685Z" fill="#E0E0E0"/>
<path d="M138.515 139.264C138.515 139.317 135.831 139.317 132.516 139.317C129.2 139.317 126.516 139.264 126.516 139.264C126.516 139.212 129.2 139.212 132.516 139.212C135.831 139.212 138.515 139.212 138.515 139.264Z" fill="#E0E0E0"/>
<path d="M138.725 140.738C138.725 140.79 136.304 140.79 133.357 140.79C130.409 140.79 127.989 140.738 127.989 140.738C127.989 140.685 130.409 140.685 133.357 140.685C136.304 140.685 138.725 140.685 138.725 140.738Z" fill="#E0E0E0"/>
<path d="M138.724 136.265C138.724 136.317 135.935 136.317 132.514 136.317C129.093 136.317 126.304 136.265 126.304 136.265C126.304 136.212 129.093 136.212 132.514 136.212C135.935 136.212 138.724 136.212 138.724 136.265Z" fill="#E0E0E0"/>
<path d="M138.514 134.791C138.514 134.844 136.04 134.844 132.988 134.844C129.935 134.844 127.462 134.791 127.462 134.791C127.462 134.738 129.935 134.738 132.988 134.738C136.04 134.738 138.514 134.738 138.514 134.791Z" fill="#E0E0E0"/>
<path d="M66.1592 133.528C65.8435 133.843 65.5277 134.212 65.3172 134.58C64.0541 136.422 64.0541 138.843 65.3698 140.685C65.6329 141.053 65.9487 141.369 66.2645 141.685C66.1592 141.632 66.054 141.58 65.9487 141.474C65.6856 141.264 65.4751 141.001 65.2646 140.738C63.8436 138.896 63.8436 136.369 65.2119 134.528C65.4224 134.264 65.6329 134.001 65.8961 133.791C65.9487 133.685 66.054 133.58 66.1592 133.528Z" fill="#F5F5F5"/>
<path d="M64.7906 133.37C64.4749 133.686 64.1591 134.054 63.8959 134.422C62.6329 136.264 62.6329 138.685 63.9486 140.527C64.2117 140.896 64.5275 141.211 64.8432 141.527C64.738 141.475 64.6327 141.422 64.5275 141.317C64.2643 141.106 64.0538 140.843 63.8433 140.58C62.4224 138.738 62.4224 136.212 63.7907 134.37C64.0012 134.107 64.2117 133.844 64.4749 133.633C64.5801 133.528 64.6854 133.423 64.7906 133.37Z" fill="#F5F5F5"/>
<path d="M125.673 133.528C125.358 133.843 125.042 134.212 124.779 134.58C123.516 136.422 123.516 138.843 124.831 140.685C125.094 141.053 125.41 141.369 125.726 141.685C125.621 141.632 125.515 141.58 125.41 141.474C125.147 141.264 124.937 141.001 124.726 140.738C123.305 138.896 123.305 136.369 124.673 134.528C124.884 134.264 125.094 134.001 125.358 133.791C125.463 133.685 125.568 133.58 125.673 133.528Z" fill="#F5F5F5"/>
<path d="M124.304 133.37C123.988 133.686 123.672 134.054 123.409 134.422C122.146 136.264 122.146 138.685 123.461 140.527C123.725 140.896 124.04 141.211 124.356 141.527C124.251 141.475 124.146 141.422 124.04 141.317C123.777 141.106 123.567 140.843 123.356 140.58C122.672 139.685 122.304 138.58 122.304 137.475C122.304 136.37 122.672 135.264 123.304 134.37C123.514 134.107 123.725 133.844 123.988 133.633C124.146 133.528 124.198 133.475 124.304 133.37Z" fill="#F5F5F5"/>
<path d="M70.8444 138.632C70.8444 137.685 70.7918 136.685 70.7918 135.738C70.7918 135.475 70.7918 135.212 70.6865 135.001C70.5812 134.79 70.4234 134.58 70.1602 134.527C69.6866 134.422 69.2129 134.685 69.0024 135.106C68.7919 135.527 68.6866 136.054 68.7393 136.527C68.7393 137.264 68.7919 138.053 68.8445 138.79C68.8445 139.159 68.9498 139.527 69.1077 139.843C69.2655 140.159 69.6339 140.369 70.0023 140.369C70.3707 140.316 70.6865 140.053 70.7918 139.685C70.8444 139.369 70.8444 139.001 70.8444 138.632Z" fill="#F5F5F5"/>
<path d="M119.83 137.843C119.83 137.896 116.882 137.896 113.199 137.896C109.515 137.896 106.567 137.843 106.567 137.843C106.567 137.791 109.515 137.791 113.199 137.791C116.882 137.791 119.83 137.791 119.83 137.843Z" fill="#F5F5F5"/>
<path d="M68.1056 133.265L68.0003 126.529H71.6843L71.7895 133.265H68.1056Z" fill="#F5F5F5"/>
<path d="M71.4741 127.686C70.3163 127.791 69.2112 127.791 68.0533 127.686C69.2112 127.633 70.3163 127.633 71.4741 127.686Z" fill="#E0E0E0"/>
<path d="M71.4741 128.738C70.3163 128.844 69.2112 128.844 68.0533 128.738C69.2112 128.633 70.3163 128.633 71.4741 128.738Z" fill="#E0E0E0"/>
<path d="M71.4741 129.791C70.3163 129.896 69.2112 129.896 68.0533 129.791C69.2112 129.686 70.3163 129.686 71.4741 129.791Z" fill="#E0E0E0"/>
<path d="M71.4741 130.844C70.3163 130.949 69.2112 130.949 68.0533 130.844C69.2112 130.738 70.3163 130.738 71.4741 130.844Z" fill="#E0E0E0"/>
<path d="M71.4741 131.844C70.3163 131.949 69.2112 131.949 68.0533 131.844C69.2112 131.738 70.3163 131.738 71.4741 131.844Z" fill="#E0E0E0"/>
<path d="M100.937 126.318H141.566C142.039 128.739 142.039 131.212 141.566 133.58H101.095V133.054H103.621C104.253 133.054 104.779 132.528 104.779 131.896V127.896C104.779 127.265 104.253 126.791 103.621 126.791H100.99L100.937 126.318Z" fill="#EBEBEB"/>
<path d="M77.4229 129.949H78.1071H78.1597C78.2123 129.949 78.2123 130.001 78.2123 130.054V130.107C78.2123 130.159 78.1597 130.212 78.1597 130.265C78.1071 130.528 77.9492 130.791 77.7387 131.054C77.5808 131.212 77.3703 131.317 77.1598 131.37H77.0545C76.844 131.317 76.6861 131.212 76.5809 131.054C76.423 130.791 76.3704 130.528 76.3704 130.212C76.3704 130.001 76.423 129.844 76.4756 129.633C76.5282 129.37 76.6861 129.054 76.8966 128.844C77.0545 128.633 77.265 128.528 77.5282 128.528C77.6334 128.528 77.6861 128.528 77.7913 128.58C78.0018 128.686 78.1071 128.844 78.2123 129.054V129.107V129.159C78.2123 129.212 78.1597 129.212 78.1071 129.212H78.0544C78.0018 129.212 78.0018 129.159 77.9492 129.107C77.9492 129.054 77.8966 129.001 77.8439 128.949C77.7913 128.844 77.6334 128.738 77.5282 128.738C77.4229 128.738 77.3703 128.791 77.3177 128.844C77.1598 129.001 77.0019 129.159 76.9493 129.37C76.844 129.633 76.7914 129.896 76.7914 130.107C76.7914 130.317 76.844 130.528 76.8966 130.686C76.9493 130.843 77.1071 130.949 77.265 130.949C77.3703 130.949 77.5282 130.843 77.5808 130.738C77.7387 130.58 77.8439 130.317 77.9492 130.107H77.4755C77.3703 130.107 77.3177 130.054 77.3177 129.949V129.896C77.3177 130.001 77.3703 129.949 77.4229 129.949Z" fill="#FAFAFA"/>
<path d="M79.736 128.633C79.736 128.686 79.736 128.686 79.736 128.633C79.7886 128.791 79.9465 129.633 80.2096 131.212C80.2096 131.212 80.2096 131.212 80.2096 131.265V131.317C80.2096 131.37 80.157 131.37 80.1044 131.37H80.0518C79.9991 131.37 79.9465 131.317 79.9465 131.265L79.7886 130.423H78.9466L78.5255 131.265V131.317C78.4729 131.37 78.4729 131.37 78.4203 131.37H78.3677C78.315 131.317 78.315 131.317 78.315 131.265V131.212L78.4203 130.949C78.9992 129.686 79.3676 128.897 79.4729 128.686C79.4729 128.633 79.5781 128.581 79.6307 128.581C79.6307 128.581 79.6834 128.633 79.736 128.633ZM79.5255 129.212L79.0518 130.16H79.6834L79.5255 129.212Z" fill="#FAFAFA"/>
<path d="M81.9978 131.423H80.7874H80.7347C80.6821 131.37 80.6821 131.317 80.6821 131.265C80.6821 131.212 80.7874 130.37 80.9979 128.739V128.686C80.9979 128.633 81.0505 128.581 81.1558 128.581H81.2084C81.261 128.581 81.3136 128.633 81.261 128.686C81.261 128.791 81.2084 129.002 81.1558 129.37C80.9979 130.423 80.9452 131.002 80.9452 131.054H81.9978H82.0504C82.1031 131.054 82.1557 131.107 82.1557 131.212V131.265C82.1557 131.37 82.0504 131.423 81.9978 131.423Z" fill="#FAFAFA"/>
<path d="M116.78 128.633C116.78 128.686 116.78 128.686 116.78 128.633C116.78 128.791 116.99 129.633 117.253 131.212C117.253 131.212 117.253 131.212 117.253 131.265V131.317C117.253 131.37 117.201 131.37 117.148 131.37C117.095 131.37 117.043 131.317 117.043 131.265L116.885 130.423H116.043L115.622 131.265V131.317C115.569 131.37 115.569 131.37 115.516 131.37H115.464C115.411 131.317 115.411 131.317 115.411 131.265V131.212L115.516 130.949C116.095 129.686 116.464 128.897 116.569 128.686C116.569 128.633 116.674 128.581 116.727 128.581C116.674 128.581 116.727 128.633 116.78 128.633ZM116.569 129.212L116.095 130.16H116.727L116.569 129.212Z" fill="#FAFAFA"/>
<path d="M118.725 130.107L118.935 130.739C119.041 131.107 119.146 131.265 119.146 131.265C119.146 131.318 119.146 131.318 119.146 131.318C119.093 131.37 119.041 131.423 118.988 131.37C118.935 131.37 118.935 131.318 118.935 131.265V131.212C118.883 131.054 118.777 130.791 118.62 130.37L117.935 131.318C117.883 131.37 117.883 131.37 117.777 131.37H117.725C117.672 131.37 117.672 131.318 117.672 131.265V131.212C117.672 131.16 117.725 131.107 117.725 131.107C117.935 130.791 118.199 130.423 118.514 130.055C118.514 129.949 118.462 129.897 118.409 129.844C118.146 129.16 118.041 128.791 118.041 128.739V128.686C118.041 128.634 118.093 128.634 118.146 128.634C118.199 128.634 118.251 128.686 118.304 128.686L118.725 129.791L119.514 128.686C119.567 128.634 119.567 128.634 119.672 128.634H119.725C119.777 128.634 119.777 128.686 119.777 128.739V128.791L118.725 130.107Z" fill="#FAFAFA"/>
<path d="M121.777 128.581H121.829C121.882 128.581 121.882 128.634 121.882 128.686C121.671 130.265 121.566 131.107 121.566 131.265C121.514 131.528 121.461 131.739 121.303 131.949C121.04 132.318 120.514 132.475 120.093 132.265C119.935 132.212 119.777 132.054 119.672 131.897V131.844V131.791C119.724 131.739 119.724 131.739 119.777 131.739C119.829 131.739 119.882 131.739 119.882 131.791C120.04 132.002 120.25 132.16 120.514 132.16C120.724 132.16 120.882 132.054 120.987 131.897C121.145 131.686 121.25 131.423 121.25 131.107C121.198 131.16 121.145 131.265 121.093 131.318C120.987 131.423 120.829 131.476 120.671 131.476H120.619C120.408 131.423 120.25 131.318 120.145 131.16C119.987 130.897 119.935 130.634 119.935 130.318C119.935 130.16 119.935 130.002 119.935 129.844C119.987 129.476 120.04 129.16 120.093 128.792V128.739C120.093 128.686 120.145 128.634 120.198 128.634H120.25C120.303 128.634 120.303 128.686 120.303 128.739C120.303 128.949 120.25 129.107 120.25 129.318C120.198 129.581 120.198 129.897 120.145 130.16C120.145 130.37 120.198 130.634 120.25 130.844C120.356 131.055 120.461 131.16 120.619 131.16H120.671C120.829 131.107 120.935 131.002 121.04 130.844C121.198 130.634 121.303 130.423 121.356 130.16L121.566 128.792V128.739C121.619 128.581 121.671 128.528 121.777 128.581C121.724 128.581 121.724 128.581 121.777 128.581Z" fill="#FAFAFA"/>
<path d="M140.041 133.686C139.988 133.686 139.988 132.002 139.988 129.949C139.988 127.897 140.041 126.213 140.041 126.213C140.041 126.213 140.093 127.897 140.093 129.949C140.093 132.002 140.093 133.686 140.041 133.686Z" fill="#F5F5F5"/>
<path d="M73.6849 133.686C73.6323 133.686 73.6323 132.002 73.6323 129.949C73.6323 127.897 73.6849 126.213 73.6849 126.213C73.6849 126.213 73.7375 127.897 73.7375 129.949C73.7375 132.002 73.7375 133.686 73.6849 133.686Z" fill="#E0E0E0"/>
<path d="M140.725 133.686C140.672 133.686 140.672 132.002 140.672 129.949C140.672 127.897 140.725 126.213 140.725 126.213C140.725 126.213 140.777 127.897 140.777 129.949C140.777 132.002 140.777 133.686 140.725 133.686Z" fill="#F5F5F5"/>
<path d="M73.0008 133.686C72.9482 133.686 72.9482 132.002 72.9482 129.949C72.9482 127.897 73.0008 126.213 73.0008 126.213C73.0008 126.213 73.0534 127.897 73.0534 129.949C73.0534 132.002 73.0534 133.686 73.0008 133.686Z" fill="#E0E0E0"/>
<path d="M130.198 127.476L134.513 130.949L134.566 131.002H134.513L133.934 131.16L130.303 132.107L126.987 130.739L126.04 130.317L125.777 130.212H125.724H125.777L126.04 130.317L126.987 130.686L130.303 132.054L133.934 131.107L134.513 130.949V131.002L130.198 127.476Z" fill="#E0E0E0"/>
<path d="M134.094 130.37L134.304 130.58L134.62 130.528L134.462 130.844L134.673 131.107L134.304 131.054L134.094 131.317L134.041 131.001L133.778 130.844L134.041 130.686L134.094 130.37Z" fill="#E0E0E0"/>
<path d="M129.935 131.739L130.093 131.896L130.304 131.844L130.251 132.002L130.356 132.212L130.146 132.16L130.041 132.317L129.988 132.16L129.778 132.054L129.935 131.949V131.739Z" fill="#E0E0E0"/>
<path d="M125.41 129.897H125.673L125.831 129.686L125.883 129.949L126.094 130.054L125.883 130.16V130.423L125.673 130.265L125.462 130.318L125.567 130.107L125.41 129.897Z" fill="#E0E0E0"/>
<path d="M135.988 127.528H136.251L136.409 127.318L136.461 127.581L136.724 127.686L136.514 127.791V128.054L136.303 127.897L136.04 127.949L136.145 127.739L135.988 127.528Z" fill="#E0E0E0"/>
<path d="M129.988 127.37H130.146L130.251 127.212V127.37L130.409 127.475L130.304 127.528V127.686L130.146 127.581L129.988 127.633L130.041 127.475L129.988 127.37Z" fill="#E0E0E0"/>
<path d="M136.357 127.686C136.357 127.686 134.989 127.633 133.252 127.581C131.515 127.528 130.147 127.423 130.147 127.423C130.147 127.423 131.515 127.423 133.252 127.528C134.989 127.633 136.357 127.686 136.357 127.686Z" fill="#E0E0E0"/>
<path d="M137.933 126.265H96.7251C96.1988 125.055 96.041 123.897 96.7251 122.844H137.933C138.459 123.897 138.459 125.16 137.933 126.265Z" fill="#E0E0E0"/>
<path d="M127.566 123.792H105.252V125.055H127.566V123.792Z" fill="#EBEBEB"/>
<path d="M65.2124 126.265C65.0546 126.16 64.9493 126.002 64.8967 125.844C64.6862 125.476 64.5809 125.055 64.5283 124.634C64.4757 124.213 64.5283 123.792 64.6862 123.371C64.7388 123.213 64.7914 123.055 64.9493 122.897C64.8967 123.055 64.844 123.266 64.7914 123.423C64.6862 123.845 64.6335 124.213 64.6862 124.634C64.7388 125.055 64.8441 125.423 65.0019 125.792C65.0546 126.002 65.1072 126.16 65.2124 126.265Z" fill="#E0E0E0"/>
<path d="M66.0533 126.265C65.8954 126.16 65.7901 126.002 65.7375 125.844C65.3165 125.108 65.2112 124.16 65.527 123.371C65.5796 123.213 65.6849 123.055 65.7901 122.897C65.7375 123.055 65.6849 123.266 65.6322 123.423C65.527 123.845 65.4744 124.213 65.527 124.634C65.5796 125.055 65.6849 125.423 65.8427 125.792C65.948 126.002 66.0006 126.16 66.0533 126.265Z" fill="#E0E0E0"/>
<path d="M136.251 126.213C136.409 125.686 136.514 125.107 136.514 124.529C136.514 123.95 136.409 123.371 136.251 122.844C136.567 123.371 136.725 123.95 136.672 124.529C136.725 125.107 136.567 125.686 136.251 126.213Z" fill="#F5F5F5"/>
<path d="M135.46 126.212C135.408 126.212 135.566 125.476 135.566 124.581C135.566 123.686 135.408 122.949 135.408 122.949C135.829 124.002 135.829 125.16 135.46 126.212Z" fill="#F5F5F5"/>
<path d="M167.301 105.161H195.562V142.053H167.459L167.301 105.161Z" fill="#E0E0E0"/>
<path d="M193.299 105.372H165.196V141.896H193.299V105.372Z" fill="white"/>
<path d="M193.509 105.214V142.053H165.09V105.214H193.509ZM193.193 141.738V105.477H165.353V141.738H193.193Z" fill="#E0E0E0"/>
<path d="M189.667 109.319H168.143V137.948H189.667V109.319Z" fill="white"/>
<path d="M168.09 109.319V109.476C168.09 109.582 168.09 109.687 168.09 109.898C168.09 110.266 168.09 110.792 168.09 111.476C168.09 112.845 168.09 114.845 168.09 117.371C168.09 122.423 168.09 129.528 168.143 138.001L168.09 137.948H189.615L189.563 138.001C189.563 127.317 189.563 117.476 189.563 109.371L189.615 109.424L173.985 109.371H169.617H168.459H169.564H173.932L189.615 109.319H189.668V109.371C189.668 117.476 189.668 127.317 189.668 138.001V138.053H189.615H168.038H167.985V138.001C167.985 129.528 167.985 122.37 168.038 117.318C168.038 114.792 168.038 112.845 168.038 111.476C168.038 110.792 168.038 110.266 168.038 109.95C168.038 109.792 168.038 109.634 168.038 109.529C168.038 109.476 168.09 109.371 168.09 109.319Z" fill="#E0E0E0"/>
<path d="M165.144 141.896C165.25 141.685 165.355 141.475 165.513 141.264C165.776 140.896 166.092 140.369 166.513 139.843C166.934 139.317 167.302 138.791 167.565 138.475C167.723 138.264 167.881 138.106 168.039 137.948C167.934 138.159 167.776 138.369 167.618 138.527L166.565 139.948L165.513 141.369C165.46 141.527 165.302 141.738 165.144 141.896Z" fill="#E0E0E0"/>
<path d="M165.196 105.319C165.722 105.951 166.248 106.582 166.722 107.266C167.248 107.898 167.669 108.582 168.09 109.266C167.564 108.635 167.038 108.003 166.564 107.319C166.09 106.74 165.617 106.056 165.196 105.319Z" fill="#E0E0E0"/>
<path d="M189.666 109.424C190.245 108.687 190.824 108.003 191.456 107.319C192.035 106.635 192.666 105.951 193.35 105.319C192.771 106.056 192.193 106.74 191.561 107.424C190.508 108.582 189.666 109.477 189.666 109.424Z" fill="#E0E0E0"/>
<path d="M193.352 141.896C192.088 140.633 190.931 139.369 189.825 137.948C190.457 138.527 191.089 139.212 191.667 139.843C192.246 140.527 192.825 141.159 193.352 141.896Z" fill="#E0E0E0"/>
<path d="M169.143 137.949C169.143 137.949 171.459 130.791 172.827 130.002C174.669 129.002 176.774 128.423 178.879 128.37C182.037 128.37 183.563 128.581 185.458 129.844C187.615 131.318 189.089 137.843 189.089 137.843" fill="#E0E0E0"/>
<path d="M175.563 116.529C173.563 116.634 173.09 119.266 173.248 120.792C173.3 121.529 173.511 122.318 173.195 122.897C172.932 123.318 172.406 123.581 172.195 124.055C171.932 124.634 172.195 125.265 172.353 125.844C172.511 126.423 172.616 127.16 172.142 127.581C173.248 127.897 174.405 128.107 175.563 128.212C176.721 128.318 177.879 128.055 178.931 127.476" fill="#E0E0E0"/>
<path d="M174.143 121.844C172.827 118.845 174.617 117.003 175.774 116.371C176.511 116.003 177.301 115.845 178.09 115.845C178.88 115.792 179.669 115.897 180.406 116.055C181.195 116.213 181.879 116.634 182.406 117.16C183.353 118.16 183.563 119.687 183.511 121.055C183.405 122.686 182.932 124.265 182.142 125.739C182.037 125.949 181.932 126.107 181.721 126.212C181.511 126.318 181.3 126.265 181.143 126.107" fill="#E0E0E0"/>
<path d="M178.563 132.107C179.931 132.212 181.089 131.054 181.247 128.949L181.983 118.423L181.931 119.16C181.931 118.739 181.615 118.371 181.194 118.318L177.036 117.897C175.615 117.739 174.405 118.792 174.247 120.16C174.247 120.213 174.247 120.213 174.247 120.265C174.142 121.844 174.142 123.423 174.3 125.002C174.668 127.423 176.51 127.686 176.51 127.686L176.352 129.423C176.194 130.791 177.194 132.001 178.563 132.107Z" fill="#F5F5F5"/>
<path d="M174.984 121.634C174.984 121.792 175.089 121.95 175.299 121.95C175.457 121.95 175.615 121.844 175.615 121.687C175.615 121.529 175.51 121.371 175.299 121.371C175.142 121.371 174.984 121.476 174.984 121.634Z" fill="#E0E0E0"/>
<path d="M174.617 121.318C174.669 121.371 174.88 121.16 175.196 121.16C175.511 121.16 175.775 121.318 175.827 121.266C175.88 121.213 175.827 121.16 175.669 121.108C175.511 121.003 175.354 120.95 175.196 120.95C175.038 120.95 174.88 121.003 174.722 121.108C174.617 121.213 174.564 121.266 174.617 121.318Z" fill="#E0E0E0"/>
<path d="M178.143 121.634C178.143 121.792 178.3 121.95 178.458 121.95C178.616 121.95 178.774 121.844 178.774 121.687C178.774 121.529 178.616 121.371 178.458 121.371C178.3 121.371 178.143 121.476 178.143 121.634Z" fill="#E0E0E0"/>
<path d="M177.879 121.371C177.932 121.424 178.142 121.213 178.458 121.213C178.774 121.213 179.037 121.371 179.089 121.318C179.142 121.266 179.089 121.213 178.984 121.161C178.826 121.055 178.668 121.003 178.511 121.003C178.353 121.003 178.195 121.055 178.037 121.161C177.879 121.266 177.826 121.318 177.879 121.371Z" fill="#E0E0E0"/>
<path d="M176.669 123.844C176.511 123.792 176.301 123.739 176.143 123.739C176.038 123.739 175.985 123.739 175.985 123.634C175.985 123.528 175.985 123.476 176.038 123.371L176.301 122.739C176.511 122.213 176.722 121.634 176.88 121.055C176.617 121.581 176.353 122.107 176.196 122.686C176.09 122.897 176.038 123.107 175.932 123.318C175.88 123.423 175.88 123.528 175.88 123.634C175.932 123.686 175.932 123.739 176.038 123.739C176.09 123.739 176.143 123.739 176.196 123.739C176.301 123.844 176.459 123.844 176.669 123.844Z" fill="#E0E0E0"/>
<path d="M176.459 127.739C177.617 127.739 178.722 127.476 179.669 126.897C179.669 126.897 178.827 128.581 176.407 128.37L176.459 127.739Z" fill="#EBEBEB"/>
<path d="M176.774 124.633C176.879 124.475 177.09 124.37 177.3 124.423C177.458 124.423 177.563 124.528 177.669 124.633C177.774 124.739 177.774 124.897 177.669 125.054C177.563 125.16 177.405 125.212 177.248 125.16C177.09 125.107 176.932 125.002 176.827 124.897C176.774 124.897 176.774 124.844 176.721 124.791C176.721 124.739 176.721 124.686 176.774 124.633Z" fill="#E0E0E0"/>
<path d="M177.616 124.055C177.564 124.055 177.564 124.423 177.248 124.686C176.932 124.95 176.564 124.897 176.564 124.95C176.564 125.002 176.669 125.002 176.827 125.002C177.038 125.002 177.248 124.95 177.406 124.792C177.564 124.634 177.669 124.476 177.669 124.265C177.722 124.16 177.669 124.055 177.616 124.055Z" fill="#E0E0E0"/>
<path d="M177.721 120.792C177.774 120.897 178.089 120.844 178.458 120.897C178.826 120.95 179.142 121.055 179.194 120.95C179.247 120.844 179.142 120.844 179.037 120.739C178.879 120.634 178.668 120.581 178.458 120.529C178.247 120.529 178.037 120.529 177.879 120.581C177.774 120.686 177.668 120.739 177.721 120.792Z" fill="#E0E0E0"/>
<path d="M174.723 120.318C174.775 120.371 174.986 120.318 175.302 120.318C175.617 120.318 175.828 120.371 175.881 120.265C175.933 120.16 175.881 120.16 175.775 120.055C175.617 119.95 175.46 119.897 175.302 119.95C175.144 119.95 174.986 120.002 174.828 120.107C174.723 120.213 174.67 120.318 174.723 120.318Z" fill="#E0E0E0"/>
<path d="M176.038 116.266C178.353 114.95 180.879 115.897 182.774 117.792C183.142 118.266 183.616 118.634 184.142 118.897C184.721 119.16 185.511 119.108 185.879 119.634C186.3 120.265 185.721 121.16 186.037 121.792C186.353 122.476 187.142 122.581 187.511 123.213C187.668 123.739 187.668 124.265 187.511 124.791C187.3 125.318 187.405 125.897 187.721 126.318L182.721 128.212C182.511 128.318 182.248 128.318 182.037 128.265C181.3 128.107 181.248 127.475 181.353 126.897C181.458 126.476 181.458 126.055 181.3 125.686C181.09 125.265 180.564 125.002 180.406 124.581C180.09 123.792 180.985 122.95 180.879 122.107C180.774 121.581 180.353 121.16 179.88 120.95C179.353 120.792 178.827 120.634 178.301 120.476C177.09 120.002 176.09 119.055 175.669 117.792C175.301 117.266 175.511 116.582 176.038 116.266Z" fill="#E0E0E0"/>
<g clip-path="url(#clip0_0_2876)">
<path d="M142.111 122.225C131.008 128.871 116.73 131.007 111.645 131.583C110.962 131.294 110.176 130.948 109.262 130.489C108.478 130.096 107.766 129.574 107.155 128.944C106.373 128.186 105.699 127.324 105.151 126.382C105.079 126.183 104.947 126.012 104.773 125.893C104.6 125.773 104.393 125.711 104.182 125.715C103.971 125.719 103.766 125.789 103.597 125.915C103.428 126.041 103.302 126.217 103.238 126.418C103.052 127.305 104.122 129.857 106.558 131.982C108.994 134.106 103.912 133.924 102.055 133.896C100.198 133.868 94.4712 134.037 93.9777 134.597C93.3095 135.406 94.0603 136.296 95.9179 136.285C97.7754 136.274 103.317 136.617 103.255 137.597C103.193 138.576 93.762 138.278 93.762 138.278C93.762 138.278 91.762 137.896 91.6514 139.021C91.4496 141.048 101.491 140.641 102.453 140.55C103.115 140.508 103.081 141.565 102.367 141.583C101.652 141.6 92.9736 141.067 92.7479 143.148C92.5754 144.73 101.012 142.861 102.749 143.972C104.487 145.083 96.2045 144.734 96.1069 146.257C96.0642 146.827 96.1208 147.247 100.906 146.758C104.339 146.26 107.741 145.574 111.098 144.704L111.086 144.75C111.086 144.75 160.619 143.331 160.948 121.572C178.225 121.572 192.052 114.789 192.052 114.789L185.854 99.0581C185.854 99.0581 144.106 121.027 142.111 122.225Z" fill="#FFBE9D"/>
<path d="M211.296 217.319L222.567 221.275L222.443 232.106C217.046 233.631 216.293 236.358 216.293 236.358L227.574 236.101L237.386 216.146L229.624 211.074L215.11 204.725" fill="#FF725E"/>
<g opacity="0.6">
<path opacity="0.6" d="M237.386 216.146L227.574 236.101L216.293 236.358L217.523 234.632L226.687 233.917L235.737 215.069L237.386 216.146Z" fill="white"/>
</g>
<path d="M222.405 227.148C222.491 227.262 223.13 226.872 224.007 226.881C224.884 226.891 225.523 227.234 225.609 227.119C225.695 227.005 225.065 226.366 224.007 226.385C222.948 226.404 222.3 227.091 222.405 227.148Z" fill="#263238"/>
<path d="M222.567 224.46C222.682 224.536 223.168 223.859 224.064 223.659C224.961 223.459 225.686 223.859 225.752 223.745C225.819 223.63 225.657 223.506 225.342 223.335C224.91 223.129 224.421 223.075 223.954 223.18C223.487 223.286 223.069 223.545 222.768 223.916C222.51 224.231 222.472 224.421 222.567 224.46Z" fill="#263238"/>
<path d="M222.376 221.008C222.5 221.066 222.872 220.408 223.654 220.122C224.436 219.836 225.142 220.074 225.199 219.941C225.256 219.807 225.075 219.731 224.76 219.626C224.341 219.483 223.886 219.491 223.471 219.648C223.057 219.804 222.711 220.1 222.491 220.484C222.329 220.77 222.319 220.989 222.376 221.008Z" fill="#263238"/>
<path d="M221.546 220.999C221.689 220.999 221.604 220.255 221.937 219.493C222.271 218.73 222.824 218.291 222.757 218.167C222.691 218.043 221.88 218.358 221.48 219.302C221.079 220.246 221.422 221.066 221.546 220.999Z" fill="#263238"/>
<path d="M220.212 219.731C220.379 219.242 220.469 218.731 220.479 218.215C220.527 217.672 220.574 217.128 220.632 216.566C220.68 216.218 220.68 215.865 220.632 215.517C220.573 215.286 220.43 215.085 220.231 214.954C220.116 214.879 219.982 214.839 219.845 214.839C219.708 214.839 219.574 214.879 219.459 214.954C219.154 215.22 218.932 215.567 218.82 215.955C218.705 216.284 218.637 216.628 218.62 216.976C218.586 217.56 218.687 218.144 218.915 218.682C219.316 219.636 219.869 219.931 219.869 219.893C219.62 219.462 219.397 219.016 219.201 218.558C219.042 218.06 218.983 217.535 219.03 217.014C219.063 216.711 219.134 216.413 219.239 216.127C219.324 215.838 219.482 215.575 219.697 215.364C219.732 215.339 219.773 215.325 219.816 215.325C219.859 215.325 219.901 215.339 219.935 215.364C220.029 215.424 220.097 215.515 220.126 215.622C220.16 215.92 220.16 216.22 220.126 216.518C220.126 217.08 220.126 217.633 220.079 218.177C220.039 218.699 220.084 219.223 220.212 219.731V219.731Z" fill="#263238"/>
<path d="M220.031 220.227C220.078 220.227 219.745 219.702 218.877 219.416C218.291 219.239 217.663 219.254 217.086 219.46C216.509 219.666 216.014 220.052 215.673 220.56C215.648 220.632 215.639 220.709 215.647 220.785C215.655 220.861 215.68 220.934 215.72 220.999C215.791 221.108 215.895 221.191 216.016 221.237C216.188 221.299 216.368 221.334 216.55 221.342C216.867 221.373 217.187 221.373 217.504 221.342C218.017 221.296 218.519 221.167 218.991 220.961C219.802 220.608 220.174 220.198 220.136 220.16C220.097 220.122 219.659 220.389 218.877 220.637C218.42 220.783 217.945 220.866 217.465 220.884C217.189 220.908 216.912 220.908 216.636 220.884C216.506 220.875 216.378 220.849 216.254 220.808C216.159 220.751 216.188 220.761 216.188 220.732C216.24 220.628 216.315 220.536 216.407 220.465C216.509 220.365 216.621 220.276 216.741 220.198C216.962 220.043 217.207 219.924 217.465 219.845C217.908 219.711 218.376 219.688 218.829 219.779C219.24 219.899 219.641 220.048 220.031 220.227Z" fill="#263238"/>
<g opacity="0.6">
<path opacity="0.6" d="M228.384 216.013C228.388 216.188 228.426 216.361 228.497 216.521C228.567 216.682 228.669 216.827 228.796 216.948C228.922 217.069 229.071 217.164 229.235 217.228C229.398 217.292 229.573 217.322 229.748 217.319C229.923 217.315 230.096 217.277 230.257 217.206C230.417 217.136 230.562 217.034 230.684 216.908C230.805 216.781 230.9 216.632 230.964 216.468C231.027 216.305 231.058 216.131 231.054 215.955C231.051 215.78 231.012 215.607 230.942 215.447C230.871 215.286 230.77 215.141 230.643 215.02C230.516 214.899 230.367 214.803 230.204 214.74C230.04 214.676 229.866 214.645 229.691 214.649C229.515 214.653 229.343 214.691 229.182 214.762C229.021 214.832 228.876 214.934 228.755 215.06C228.634 215.187 228.539 215.336 228.475 215.5C228.411 215.663 228.381 215.837 228.384 216.013V216.013Z" fill="white"/>
</g>
<path d="M153.47 212.79L153.623 227.549C153.623 227.549 138.661 232.668 138.422 235.395L167.03 236.129L167.736 213.114L153.47 212.79Z" fill="#FF725E"/>
<g opacity="0.6">
<path opacity="0.6" d="M162.491 226.538C162.764 226.63 162.993 226.818 163.135 227.068C163.277 227.318 163.323 227.611 163.264 227.892C163.181 228.167 162.998 228.4 162.75 228.545C162.502 228.69 162.209 228.736 161.929 228.674C161.64 228.575 161.397 228.375 161.246 228.109C161.094 227.844 161.046 227.533 161.109 227.234C161.223 226.953 161.442 226.728 161.72 226.605C161.997 226.483 162.311 226.472 162.596 226.576" fill="white"/>
</g>
<g opacity="0.6">
<path opacity="0.6" d="M167.068 236.129V233.803L139.614 233.975C139.614 233.975 138.317 234.489 138.441 235.395L167.068 236.129Z" fill="white"/>
</g>
<path d="M153.155 227.396C153.155 227.53 153.861 227.615 154.538 228.083C155.215 228.55 155.559 229.15 155.692 229.093C155.826 229.036 155.635 228.226 154.805 227.682C153.976 227.139 153.136 227.263 153.155 227.396Z" fill="#263238"/>
<path d="M150.094 228.559C150.094 228.693 150.657 228.95 151.115 229.513C151.572 230.075 151.696 230.743 151.839 230.743C151.982 230.743 152.087 229.951 151.506 229.208C150.924 228.464 150.094 228.426 150.094 228.559Z" fill="#263238"/>
<path d="M148.321 232.106C148.454 232.106 148.664 231.448 148.321 230.676C147.978 229.904 147.367 229.579 147.272 229.722C147.177 229.865 147.606 230.256 147.882 230.895C148.159 231.534 148.187 232.096 148.321 232.106Z" fill="#263238"/>
<path d="M153.499 224.021C153.556 224.155 154.195 224.021 154.986 224.021C155.778 224.021 156.388 224.364 156.464 224.24C156.541 224.116 155.959 223.611 155.024 223.535C154.09 223.459 153.432 223.916 153.499 224.021Z" fill="#263238"/>
<g opacity="0.3">
<path opacity="0.3" d="M153.499 215.708L153.527 218.339L167.602 218.577L167.679 216.203L153.499 215.708Z" fill="black"/>
</g>
<path d="M153.518 221.047C153.989 221.178 154.487 221.178 154.958 221.047C155.475 220.969 155.981 220.828 156.464 220.627C156.753 220.506 157.033 220.366 157.303 220.208C157.467 220.126 157.616 220.016 157.742 219.883C157.837 219.787 157.897 219.661 157.912 219.526C157.928 219.392 157.898 219.256 157.828 219.14C157.76 219.042 157.67 218.961 157.566 218.903C157.462 218.846 157.346 218.812 157.227 218.806C157.044 218.803 156.862 218.822 156.684 218.863C156.376 218.93 156.076 219.026 155.787 219.149C155.298 219.354 154.845 219.634 154.443 219.979C153.756 220.579 153.489 221.094 153.565 221.123C153.642 221.151 153.966 220.741 154.652 220.255C155.052 219.969 155.488 219.738 155.949 219.569C156.219 219.467 156.496 219.387 156.779 219.33C157.084 219.264 157.341 219.264 157.418 219.407C157.494 219.55 157.418 219.473 157.418 219.559C157.325 219.657 157.215 219.738 157.094 219.798C156.836 219.96 156.579 220.093 156.331 220.217C155.878 220.421 155.409 220.587 154.929 220.713C154.45 220.786 153.978 220.897 153.518 221.047Z" fill="#263238"/>
<path d="M153.699 221.256C153.976 220.849 154.119 220.366 154.109 219.874C154.152 219.345 154.1 218.812 153.957 218.301C153.876 217.996 153.76 217.702 153.613 217.424C153.541 217.232 153.421 217.061 153.264 216.929C153.107 216.797 152.918 216.708 152.717 216.67C152.588 216.67 152.462 216.706 152.354 216.776C152.246 216.845 152.16 216.944 152.107 217.061C152.031 217.225 151.976 217.398 151.944 217.576C151.899 217.892 151.899 218.213 151.944 218.53C152.004 219.069 152.201 219.584 152.517 220.026C153.06 220.78 153.632 220.98 153.651 220.913C153.67 220.846 153.213 220.56 152.803 219.836C152.569 219.419 152.426 218.958 152.383 218.482C152.361 218.204 152.378 217.925 152.431 217.652C152.488 217.347 152.602 217.109 152.717 217.138C152.831 217.166 153.098 217.376 153.213 217.624C153.344 217.875 153.456 218.137 153.547 218.406C153.692 218.872 153.772 219.357 153.785 219.845C153.785 220.713 153.623 221.228 153.699 221.256Z" fill="#263238"/>
<path d="M220.05 205.268L187.065 193.007L221.738 188.136L223.483 171.251L158.648 176.905L149.494 190.09L151.897 206.622L215.072 222.677L220.05 205.268Z" fill="#263238"/>
<path d="M150.095 217.08L146.938 156.731C147.024 153.841 147.847 151.021 149.329 148.538C150.811 146.055 152.903 143.992 155.406 142.545C157.486 141.339 159.799 140.589 162.191 140.344C164.583 140.099 166.999 140.365 169.281 141.124L211.344 155.148L234.43 161.088C234.43 161.088 238.368 170.784 236.051 178.316C233.791 185.695 225.705 190.605 218.591 188.498C209.751 185.876 169.185 168.477 169.185 168.477V217.557L150.095 217.08Z" fill="#263238"/>
<path d="M218 188.65L217.752 188.574L217.027 188.298L214.271 187.192L204.154 183.064L170.826 169.316L169.128 168.61L169.405 168.429C169.405 182.091 169.357 194.361 169.338 203.256C169.338 207.671 169.338 211.246 169.281 213.744C169.281 214.954 169.281 215.908 169.281 216.604C169.281 216.909 169.281 217.157 169.281 217.338C169.295 217.423 169.295 217.51 169.281 217.595C169.272 217.51 169.272 217.424 169.281 217.338V216.604C169.281 215.927 169.281 214.974 169.281 213.744C169.281 211.246 169.281 207.671 169.224 203.256C169.224 194.361 169.224 182.091 169.166 168.429V168.143L169.433 168.248L171.131 168.953L204.411 182.806L214.328 187.049L217.056 188.221L217.761 188.536L218 188.65Z" fill="#455A64"/>
<path d="M179.15 188.727C182.201 189.26 184.984 190.801 187.056 193.103C186.97 193.188 185.473 191.796 183.241 190.586C181.01 189.375 179.112 188.841 179.15 188.727Z" fill="#455A64"/>
<path d="M165.543 160.268C166.448 161.533 167.197 162.903 167.774 164.348C168.463 165.742 168.988 167.21 169.338 168.724C169.233 168.724 168.461 166.818 167.431 164.51C166.401 162.203 165.447 160.354 165.543 160.268Z" fill="#455A64"/>
<path d="M116.719 146.053L133.407 143.193C147.234 140.333 158.067 133.761 161.061 132.229C164.055 130.696 188.982 115.821 188.982 115.821L180.399 96.8389C179.289 97.2189 178.206 97.6744 177.157 98.2022C177.157 98.2022 163.382 109.592 153.499 115.249C140.087 122.925 116.719 129.845 116.719 129.845V146.053Z" fill="#FF725E"/>
<path d="M233.81 160.945L231.75 157.332L209.741 151.821L212.335 156.302L233.81 160.945Z" fill="#FFBE9D"/>
<path d="M180.371 96.839C180.371 97.6017 177.138 121.494 177.138 126.394C177.138 131.295 186.484 136.567 186.484 136.567L196.716 158.295H233.171L220.708 134.898L215.072 116.155C212.936 109.061 213.165 105.391 207.873 100.195L197.679 93.3306L180.371 96.839Z" fill="#FF725E"/>
<path d="M187.055 137.758C186.789 137.27 186.469 136.813 186.102 136.395C185.873 136.281 185.549 136.109 185.148 135.871C183.968 135.206 182.836 134.457 181.763 133.63C180.118 132.432 178.757 130.886 177.777 129.102C176.823 126.966 176.823 124.335 177.214 121.76C177.605 119.186 178.168 116.746 178.435 114.505C178.702 112.265 179.017 110.253 179.14 108.556C179.264 106.859 179.293 105.477 179.293 104.523C179.293 103.57 179.293 103.036 179.293 103.036C179.332 103.16 179.354 103.288 179.36 103.417C179.36 103.665 179.417 104.037 179.446 104.514C179.516 105.867 179.516 107.222 179.446 108.575C179.36 110.282 179.15 112.322 178.826 114.562C178.502 116.803 178.006 119.243 177.634 121.818C177.262 124.392 177.214 126.918 178.13 128.949C179.07 130.69 180.37 132.211 181.944 133.411C182.996 134.25 184.095 135.03 185.234 135.747C185.953 136.307 186.569 136.987 187.055 137.758V137.758Z" fill="#263238"/>
<path d="M199.338 95.0276C199.178 95.261 198.989 95.4726 198.775 95.6568C198.403 96.0382 197.821 96.6102 197.144 97.2299C195.743 98.5361 193.75 100.29 191.423 102.121C189.096 103.951 186.998 105.515 185.415 106.602C184.624 107.145 183.975 107.555 183.508 107.851C183.281 108.016 183.034 108.154 182.774 108.261C182.972 108.062 183.189 107.883 183.422 107.727L185.243 106.373C186.779 105.238 188.896 103.646 191.175 101.816C193.454 99.9852 195.466 98.2786 196.896 97.0488L198.613 95.5615C198.832 95.3555 199.076 95.1763 199.338 95.0276V95.0276Z" fill="#263238"/>
<path d="M194.379 126.032C194.446 126.192 194.497 126.358 194.532 126.527C194.627 126.883 194.751 127.36 194.904 127.958C195.228 129.245 195.676 131.056 196.239 133.316C197.355 137.911 198.909 144.318 200.683 151.668L200.759 151.983L200.454 151.897L192.615 149.714L169.624 143.183L169.786 143.116L165.886 149.886L164.799 151.716L164.513 152.183C164.446 152.298 164.408 152.345 164.399 152.345C164.417 152.282 164.443 152.221 164.475 152.164L164.732 151.678L165.743 149.771L169.558 142.935L169.615 142.84H169.72L192.739 149.266L200.616 151.497L200.378 151.716C198.652 144.356 197.145 137.94 196.058 133.335C195.543 131.066 195.104 129.235 194.837 127.948C194.704 127.338 194.599 126.861 194.523 126.499C194.463 126.347 194.415 126.191 194.379 126.032Z" fill="#263238"/>
<path d="M207.872 114.095C207.942 114.237 207.994 114.388 208.025 114.543C208.12 114.877 208.235 115.296 208.387 115.821L209.627 120.588C210.647 124.63 212.049 130.122 213.584 136.233C214.337 139.293 215.081 142.201 215.711 144.871C216.337 147.232 216.534 149.686 216.292 152.116C216.098 153.761 215.509 155.334 214.576 156.702C214.241 157.205 213.821 157.647 213.336 158.008C213.735 157.569 214.105 157.104 214.442 156.616C215.317 155.248 215.859 153.694 216.025 152.078C216.218 149.68 215.992 147.267 215.358 144.947C214.69 142.296 213.966 139.389 213.203 136.366L209.388 120.693L208.263 115.926L207.977 114.629C207.927 114.454 207.892 114.276 207.872 114.095Z" fill="#263238"/>
<g opacity="0.3">
<path opacity="0.3" d="M213.48 158.275C218 158.685 220.622 156.111 221.108 152.555C221.215 150.596 220.869 148.639 220.098 146.835C217.323 138.712 214.519 130.522 210.123 123.143C211.782 130.522 213.937 137.606 215.568 144.985C216.095 147.036 216.329 149.151 216.264 151.268C216.161 153.85 215.178 156.319 213.48 158.266" fill="black"/>
</g>
<path d="M176.413 121.265C175.719 120.676 175.103 120 174.582 119.253C173.251 117.515 172.116 115.635 171.197 113.647C170.276 111.656 169.582 109.568 169.128 107.421C168.9 106.54 168.784 105.634 168.784 104.723C169.06 105.581 169.29 106.453 169.471 107.336C170.018 109.429 170.745 111.47 171.645 113.437C172.551 115.398 173.63 117.274 174.868 119.043C175.841 120.445 176.47 121.265 176.413 121.265Z" fill="#FAFAFA"/>
<path d="M167.564 126.537C167.011 125.9 166.525 125.206 166.115 124.468C165.276 123.152 164.208 121.303 163.044 119.215C161.881 117.127 160.946 115.201 160.298 113.79C159.899 113.047 159.579 112.264 159.344 111.454C159.826 112.141 160.241 112.872 160.584 113.638L163.445 118.977C164.542 120.979 165.543 122.79 166.372 124.287C166.835 125 167.234 125.753 167.564 126.537Z" fill="#FAFAFA"/>
<path d="M155.387 131.285C154.731 128.776 154.234 126.229 153.899 123.658C153.403 121.11 153.069 118.534 152.898 115.945C153.554 118.453 154.051 121.001 154.386 123.572C154.887 126.118 155.221 128.695 155.387 131.285Z" fill="#FAFAFA"/>
<path d="M146.171 136.984C145.863 136.32 145.64 135.619 145.506 134.9C145.159 133.588 144.75 131.764 144.395 129.725C144.041 127.687 143.821 125.835 143.7 124.489C143.585 123.764 143.561 123.028 143.627 122.297C143.845 122.994 143.987 123.712 144.05 124.439C144.257 125.778 144.542 127.617 144.884 129.639C145.225 131.661 145.588 133.494 145.85 134.822C146.039 135.528 146.147 136.253 146.171 136.984V136.984Z" fill="#FAFAFA"/>
<path d="M135.141 126.032C135.31 126.692 135.4 127.371 135.408 128.053C135.503 129.311 135.56 131.056 135.532 132.982C135.503 134.908 135.37 136.652 135.227 137.901C135.203 138.587 135.088 139.267 134.883 139.923C134.74 139.923 134.969 136.805 135.026 132.972C135.084 129.14 134.988 126.041 135.141 126.032Z" fill="#FAFAFA"/>
<path d="M125.396 129.845C125.465 131.788 125.373 133.734 125.12 135.661C125.032 137.603 124.773 139.533 124.347 141.429C124.366 137.545 124.716 133.67 125.396 129.845V129.845Z" fill="#FAFAFA"/>
<path d="M188.072 152.012C178.495 160.713 164.918 165.618 160.045 167.185C159.319 167.035 158.48 166.851 157.493 166.581C156.647 166.35 155.846 165.978 155.124 165.481C154.208 164.892 153.377 164.179 152.654 163.363C152.545 163.183 152.382 163.041 152.188 162.958C151.994 162.875 151.779 162.855 151.572 162.9C151.366 162.946 151.18 163.055 151.038 163.211C150.897 163.368 150.809 163.565 150.785 163.775C150.778 164.682 152.33 166.973 155.136 168.577C157.943 170.18 152.925 171.002 151.099 171.34C149.273 171.678 143.691 172.972 143.318 173.617C142.822 174.542 143.733 175.266 145.552 174.89C147.371 174.513 152.872 173.759 153.004 174.732C153.136 175.705 143.831 177.269 143.831 177.269C143.831 177.269 141.795 177.288 141.908 178.413C142.109 180.44 151.874 178.064 152.799 177.785C153.44 177.614 153.615 178.657 152.918 178.815C152.22 178.973 143.607 180.159 143.796 182.243C143.938 183.828 151.841 180.335 153.764 181.082C155.686 181.829 147.497 183.118 147.701 184.63C147.772 185.197 147.91 185.597 152.506 184.177C155.773 183.013 158.973 181.67 162.094 180.156L162.091 180.204C162.091 180.204 210.374 169.061 206.412 147.664C210.647 148.437 212.077 152.012 212.077 152.012L204.121 141.455C204.121 141.455 189.792 150.445 188.072 152.012Z" fill="#FFBE9D"/>
<path d="M163.445 179.899L164.398 182.759C177.749 177.992 183.814 174.854 186.808 173.322C189.802 171.79 213.032 157.971 213.032 157.971L213.985 147.007L209.217 134.613C208.107 134.993 204.067 136.468 203.019 136.996C203.019 136.996 189.129 150.685 179.246 156.342C165.834 164.018 161.538 165.598 161.538 165.598L163.445 179.899Z" fill="#FF725E"/>
<path d="M202.161 162.358C201.466 161.769 200.851 161.093 200.33 160.346C198.999 158.608 197.863 156.728 196.945 154.74C196.024 152.749 195.33 150.661 194.875 148.515C194.647 147.634 194.532 146.727 194.532 145.817C194.808 146.674 195.037 147.546 195.219 148.429C195.765 150.522 196.493 152.564 197.393 154.531C198.299 156.491 199.377 158.367 200.616 160.137C201.589 161.538 202.218 162.358 202.161 162.358Z" fill="#FAFAFA"/>
<path d="M193.311 167.63C192.757 166.993 192.272 166.299 191.862 165.561C191.023 164.246 189.955 162.396 188.791 160.308C187.628 158.22 186.693 156.294 186.045 154.883C185.646 154.14 185.326 153.358 185.091 152.548C185.573 153.235 185.988 153.966 186.331 154.731L189.192 160.07C190.288 162.072 191.29 163.883 192.119 165.38C192.582 166.094 192.981 166.847 193.311 167.63Z" fill="#FAFAFA"/>
<path d="M181.134 172.378C180.478 169.87 179.981 167.322 179.646 164.751C179.15 162.204 178.816 159.628 178.645 157.038C179.301 159.547 179.798 162.094 180.132 164.665C180.633 167.212 180.968 169.788 181.134 172.378Z" fill="#FAFAFA"/>
<path d="M171.918 178.077C171.611 177.413 171.387 176.713 171.253 175.993C170.907 174.681 170.497 172.857 170.143 170.818C169.788 168.78 169.568 166.928 169.448 165.582C169.333 164.857 169.308 164.121 169.374 163.39C169.592 164.087 169.734 164.805 169.798 165.532C170.004 166.871 170.29 168.71 170.631 170.732C170.973 172.754 171.335 174.587 171.598 175.915C171.786 176.621 171.894 177.347 171.918 178.077Z" fill="#FAFAFA"/>
<path d="M178.482 107.107C178.339 107.107 177.767 105.563 176.795 103.751C175.822 101.94 174.887 100.567 174.964 100.481C176.79 102.276 178.018 104.589 178.482 107.107Z" fill="#FAFAFA"/>
<path d="M195.266 133.049C195.025 133.124 194.773 133.153 194.522 133.134C193.838 133.163 193.153 133.147 192.472 133.087C190.216 132.914 187.998 132.419 185.882 131.619C183.761 130.831 181.761 129.75 179.941 128.406C179.391 127.999 178.865 127.56 178.368 127.09C178.015 126.756 177.834 126.566 177.863 126.537C177.891 126.508 178.73 127.166 180.142 128.12C183.852 130.616 188.099 132.2 192.538 132.744C194.198 132.953 195.266 132.963 195.266 133.049Z" fill="#FAFAFA"/>
<path d="M191.786 120.874C191.117 120.903 190.448 120.829 189.802 120.655C188.219 120.356 186.661 119.942 185.139 119.415C183.614 118.896 182.131 118.258 180.705 117.509C180.089 117.242 179.514 116.889 178.998 116.46C179.074 116.326 181.763 117.728 185.301 118.939C188.839 120.149 191.814 120.731 191.786 120.874Z" fill="#FAFAFA"/>
<path d="M189.763 112.122C188.04 112.23 186.314 111.953 184.711 111.312C183.108 110.671 181.667 109.68 180.495 108.413C183.223 110.409 186.411 111.684 189.763 112.122Z" fill="#FAFAFA"/>
<path d="M204.039 105.886C203.991 105.963 203.248 105.457 201.894 105.076C200.13 104.586 198.257 104.656 196.534 105.276C194.823 105.931 193.361 107.108 192.358 108.642C191.576 109.814 191.347 110.682 191.261 110.653C191.344 109.866 191.615 109.111 192.053 108.451C193.022 106.775 194.545 105.488 196.36 104.812C198.174 104.135 200.168 104.11 201.998 104.742C202.76 104.957 203.459 105.349 204.039 105.886Z" fill="#FAFAFA"/>
<path d="M205.727 117.594C205.242 117.998 204.694 118.32 204.106 118.548C201.352 119.743 198.373 120.335 195.371 120.283C194.75 120.32 194.127 120.249 193.531 120.073C193.531 119.92 196.391 120.073 199.729 119.396C203.066 118.719 205.66 117.451 205.727 117.594Z" fill="#FAFAFA"/>
<path d="M210.609 132.286C208.409 132.75 206.178 133.053 203.934 133.192C201.697 133.491 199.44 133.628 197.183 133.602C199.382 133.133 201.613 132.83 203.858 132.696C206.096 132.396 208.352 132.259 210.609 132.286Z" fill="#FAFAFA"/>
<path d="M214.939 152.641C214.678 152.632 214.42 152.581 214.176 152.488C213.499 152.301 212.833 152.075 212.183 151.811C210.025 150.944 207.964 149.855 206.032 148.56C204.11 147.27 202.258 145.879 200.482 144.394C199.712 143.826 198.997 143.188 198.346 142.487C199.154 142.975 199.92 143.53 200.635 144.146C202.056 145.204 204.01 146.682 206.251 148.169C208.163 149.44 210.172 150.559 212.259 151.516C213.89 152.212 214.939 152.565 214.939 152.641Z" fill="#FAFAFA"/>
<path d="M216.522 120.979C215.808 121.87 214.874 122.561 213.812 122.982C212.75 123.403 211.597 123.541 210.466 123.381C210.466 123.229 211.954 123.191 213.623 122.514C215.291 121.837 216.417 120.874 216.522 120.979Z" fill="#FAFAFA"/>
<path d="M212.154 107.603C211.825 108.56 211.201 109.388 210.37 109.967C209.64 110.672 208.699 111.121 207.691 111.245C207.691 111.111 208.835 110.587 210.056 109.576C211.276 108.566 212.077 107.517 212.154 107.603Z" fill="#FAFAFA"/>
<path d="M196.581 98.698C197.427 99.1987 198.094 99.9524 198.489 100.853C199.028 101.679 199.304 102.65 199.28 103.637C199.137 103.637 198.794 102.445 198.05 101.091C197.306 99.7372 196.486 98.7933 196.581 98.698Z" fill="#FAFAFA"/>
<path d="M219.706 133.573C218.875 134.317 217.856 134.818 216.76 135.022C215.705 135.378 214.573 135.434 213.489 135.184C213.489 135.041 214.938 134.984 216.636 134.536C218.333 134.088 219.649 133.449 219.706 133.573Z" fill="#FAFAFA"/>
<path d="M226.382 145.309C222.943 145.932 219.453 146.226 215.959 146.186C217.663 145.794 219.4 145.564 221.147 145.5C222.881 145.264 224.635 145.2 226.382 145.309V145.309Z" fill="#FAFAFA"/>
<path d="M231.016 154.748C225.898 154.951 220.773 154.824 215.672 154.366C220.79 154.163 225.915 154.29 231.016 154.748V154.748Z" fill="#FAFAFA"/>
<path d="M197.268 60.1335C197.907 63.3655 202.551 64.6526 202.99 67.9132C203.181 69.3052 202.513 70.6971 202.57 72.1081C202.628 74.0149 203.953 75.607 204.621 77.3804C206.013 81.0414 204.449 85.3793 201.502 87.963C198.556 90.5467 194.532 91.5954 190.622 91.6716" fill="#263238"/>
<path d="M170.968 63.4705C171.378 65.1961 170.472 66.9312 169.519 68.4281C168.565 69.9249 167.488 71.4885 167.507 73.2522C167.507 76.3984 170.997 78.7724 170.863 81.909C170.787 83.587 169.662 85.1029 169.681 86.7904C169.762 87.6019 170.016 88.3868 170.426 89.0922C170.835 89.7976 171.391 90.4073 172.055 90.8804C173.295 91.9291 174.496 91.5573 175.641 92.7204C176.96 94.0187 178.535 95.0284 180.266 95.6855C183.918 96.9916 187.542 93.6833 189.096 92.9492" fill="#263238"/>
<path d="M198.222 61.8972C198.013 60.3051 196.315 59.3135 194.789 58.9703C193.264 58.6271 191.557 58.6652 190.098 58.0169C188.886 57.2844 187.749 56.435 186.703 55.4809C185.294 54.4398 183.633 53.7925 181.891 53.6055C180.149 53.4185 178.388 53.6985 176.79 54.4168C175.192 55.1351 173.814 56.2657 172.798 57.6926C171.781 59.1195 171.163 60.7912 171.007 62.536C170.797 64.8813 171.608 67.4841 173.62 68.7044C175.956 70.1154 178.96 69.2479 181.515 68.2849C184.071 67.322 186.979 66.321 189.43 67.5222C190.832 68.3974 192.032 69.5608 192.949 70.9354C193.979 72.2129 195.228 73.4904 196.849 73.7955C198.47 74.1006 200.416 72.8421 200.225 71.2023" fill="#263238"/>
<path d="M198.775 95.6568L194.961 64.7765C194.869 64.1112 194.531 63.5045 194.014 63.0757C193.497 62.647 192.838 62.4272 192.167 62.4598L177.558 61.0964C172.981 61.3252 170.883 67.3316 171.264 71.8983C171.732 76.9608 172.494 83.1388 173.677 86.7903C176.042 94.1314 181.964 94.1886 181.964 94.1886C181.964 94.1886 183.032 105.057 183.47 107.727" fill="#FFBE9D"/>
<path d="M173.229 77.533C173.244 77.6595 173.284 77.7818 173.348 77.8924C173.411 78.0031 173.496 78.1 173.597 78.1773C173.698 78.2546 173.814 78.3109 173.938 78.3427C174.061 78.3744 174.19 78.3812 174.316 78.3624C174.566 78.3382 174.796 78.2165 174.956 78.0238C175.117 77.831 175.195 77.5828 175.174 77.3328C175.159 77.2062 175.118 77.084 175.055 76.9733C174.992 76.8626 174.907 76.7658 174.806 76.6884C174.704 76.6111 174.589 76.5549 174.465 76.5231C174.342 76.4913 174.213 76.4845 174.087 76.5033C173.837 76.5275 173.607 76.6491 173.446 76.8419C173.286 77.0346 173.208 77.283 173.229 77.533Z" fill="#263238"/>
<path d="M172.98 75.626C173.124 75.7404 173.772 75.0826 174.811 74.9205C175.851 74.7584 176.719 75.1684 176.785 75.0158C176.852 74.8633 176.671 74.7489 176.309 74.5582C175.809 74.3141 175.246 74.2308 174.697 74.3199C174.155 74.4024 173.654 74.6563 173.267 75.0444C172.98 75.34 172.885 75.5783 172.98 75.626Z" fill="#263238"/>
<path d="M183.708 75.9979C183.723 76.1235 183.764 76.2449 183.826 76.3548C183.889 76.4648 183.973 76.5612 184.073 76.6384C184.173 76.7156 184.288 76.7721 184.41 76.8045C184.533 76.8369 184.66 76.8447 184.786 76.8274C185.034 76.8031 185.262 76.6828 185.423 76.4921C185.583 76.3015 185.663 76.0557 185.644 75.8072C185.629 75.6816 185.589 75.5603 185.526 75.4503C185.463 75.3403 185.379 75.2439 185.279 75.1667C185.179 75.0895 185.064 75.033 184.942 75.0006C184.819 74.9682 184.692 74.9604 184.566 74.9778C184.318 75.002 184.09 75.1223 183.929 75.313C183.769 75.5036 183.69 75.7494 183.708 75.9979Z" fill="#263238"/>
<path d="M183.203 74.234C183.346 74.3389 183.994 73.681 185.034 73.5285C186.073 73.3759 186.941 73.7668 187.008 73.6238C187.075 73.4808 186.893 73.3473 186.521 73.1567C186.024 72.9153 185.464 72.8353 184.919 72.9278C184.38 73.0115 183.88 73.2614 183.489 73.6429C183.212 73.9384 183.136 74.1863 183.203 74.234Z" fill="#263238"/>
<path d="M180.609 82.5286C180.032 82.4594 179.45 82.4594 178.873 82.5286C178.606 82.5286 178.349 82.5286 178.273 82.3475C178.204 82.0782 178.224 81.7941 178.33 81.5371C178.473 80.8602 178.635 80.1452 178.797 79.392C179.261 77.5674 179.58 75.7088 179.751 73.8337C179.141 75.6176 178.675 77.4477 178.358 79.3062C178.206 80.0625 178.063 80.7776 177.929 81.4513C177.806 81.7965 177.806 82.1739 177.929 82.5191C177.982 82.6072 178.054 82.6821 178.14 82.7383C178.226 82.7945 178.323 82.8304 178.425 82.8433C178.581 82.8582 178.737 82.8582 178.892 82.8433C179.476 82.814 180.053 82.7082 180.609 82.5286V82.5286Z" fill="#263238"/>
<path d="M181.926 94.1885C185.456 93.7668 188.789 92.3294 191.519 90.0508C190.718 91.8748 189.405 93.4274 187.74 94.5206C186.074 95.6138 184.128 96.2005 182.135 96.2097L181.926 94.1885Z" fill="#EB996E"/>
<path d="M181.458 84.9693C181.618 84.6907 181.847 84.4571 182.122 84.2904C182.397 84.1237 182.71 84.0293 183.031 84.016C183.263 84.0018 183.496 84.0341 183.715 84.111C183.935 84.188 184.137 84.308 184.309 84.464C184.475 84.6165 184.59 84.8159 184.64 85.0357C184.689 85.2555 184.67 85.4852 184.585 85.6939C184.449 85.9067 184.251 86.0733 184.018 86.1719C183.785 86.2706 183.527 86.2967 183.279 86.2469C182.759 86.1529 182.262 85.9552 181.82 85.6653C181.694 85.596 181.579 85.5094 181.477 85.4079C181.431 85.3547 181.402 85.2898 181.392 85.2207C181.382 85.1516 181.391 85.081 181.42 85.017" fill="#EB996E"/>
<path d="M183.804 82.7764C183.633 82.7764 183.804 83.9204 182.965 84.8643C182.126 85.8081 180.905 85.8844 180.915 86.0369C180.924 86.1895 181.22 86.2181 181.735 86.1514C182.402 86.046 183.01 85.7083 183.451 85.198C183.875 84.7172 184.1 84.0936 184.081 83.4533C184.052 83.0147 183.88 82.7573 183.804 82.7764Z" fill="#263238"/>
<path d="M182.269 71.4024C182.421 71.6694 183.442 71.4024 184.681 71.3261C185.921 71.2499 186.96 71.4596 187.084 71.1831C187.208 70.9067 186.922 70.8113 186.484 70.6016C185.901 70.3477 185.269 70.2304 184.634 70.2585C183.999 70.2866 183.38 70.4594 182.822 70.7636C182.402 71.0115 182.212 71.269 182.269 71.4024Z" fill="#263238"/>
<path d="M172.866 72.5657C173.085 72.7659 173.763 72.4131 174.621 72.2701C175.479 72.1271 176.242 72.1748 176.366 71.9079C176.49 71.6409 176.27 71.5551 175.918 71.3835C175.451 71.1745 174.931 71.1178 174.43 71.2214C173.924 71.3056 173.458 71.5456 173.095 71.9079C172.828 72.2034 172.771 72.4608 172.866 72.5657Z" fill="#263238"/>
<path d="M199.195 87.8961C197.192 88.6397 196.839 87.6196 195.066 86.4184C194.181 85.8119 193.451 85.0074 192.933 84.0689C192.415 83.1304 192.123 82.0838 192.081 81.0126C192.024 79.1059 192.72 77.0847 191.804 75.4353C190.584 73.2616 187.227 73.0614 186.006 70.8876C185.291 69.6196 185.491 67.9798 184.719 66.7594C184.297 66.2241 183.771 65.7793 183.173 65.4517C182.575 65.124 181.917 64.9203 181.238 64.8527C179.877 64.7198 178.546 64.3756 177.291 63.8326C176.099 63.1747 175.193 61.716 175.698 60.448C181.43 60.2369 187.166 60.7073 192.786 61.8495C194.115 61.9943 195.366 62.551 196.362 63.4417C197.199 64.5816 197.656 65.9557 197.669 67.3696C198.425 74.1768 199.176 80.9872 199.919 87.8008" fill="#263238"/>
<path d="M201.503 71.7838C201.428 70.5142 201.768 69.2549 202.473 68.1962C203.178 67.1374 204.208 66.337 205.408 65.9158C206.609 65.4946 207.913 65.4757 209.125 65.8618C210.337 66.248 211.39 67.0182 212.126 68.056C212.752 69.0831 213.148 70.2343 213.284 71.4296C213.421 72.6249 213.296 73.8356 212.917 74.9776C212.164 77.7329 210.161 80.4501 207.319 80.7647C204.659 81.0602 202.161 79.0772 200.997 76.6556C199.834 74.234 199.71 71.4691 199.605 68.7901" fill="#263238"/>
<path d="M204.611 81.8708C204.752 81.7256 204.862 81.5538 204.936 81.3655C205.157 80.8642 205.267 80.3212 205.26 79.7733C205.245 78.9625 205.093 78.1599 204.812 77.3994C204.526 76.5413 204.077 75.6642 203.705 74.7108C203.321 73.8388 203.113 72.8989 203.095 71.946C203.095 71.0879 203.4 70.3157 203.477 69.6197C203.56 69.0736 203.487 68.5152 203.267 68.0085C203.086 67.6557 202.895 67.5223 202.885 67.5413C202.876 67.5604 203.009 67.7129 203.143 68.0562C203.305 68.5514 203.338 69.0797 203.238 69.5911C203.04 70.3628 202.89 71.1461 202.79 71.9365C202.791 72.921 202.996 73.8948 203.391 74.7966C203.772 75.75 204.23 76.6367 204.526 77.4661C204.805 78.1931 204.972 78.9581 205.021 79.7352C205.048 80.4689 204.908 81.199 204.611 81.8708V81.8708Z" fill="#455A64"/>
<path d="M203.295 72.804C203.655 73.2224 204.109 73.5492 204.62 73.7574C205.826 74.3553 207.184 74.5751 208.516 74.388C209.848 74.2008 211.093 73.6155 212.087 72.7087C212.519 72.3654 212.868 71.9286 213.107 71.4312C213.06 71.4312 212.707 71.9078 211.934 72.5275C210.937 73.3354 209.742 73.8621 208.473 74.053C207.2 74.2227 205.905 74.0448 204.725 73.5381C203.81 73.1568 203.324 72.7564 203.295 72.804Z" fill="#455A64"/>
<path d="M203.849 73.929C204.054 74.3376 204.336 74.7032 204.678 75.0063C205.459 75.7934 206.394 76.4102 207.425 76.8177C208.447 77.2368 209.543 77.4444 210.648 77.4279C211.105 77.4535 211.562 77.3854 211.992 77.2277C211.548 77.2008 211.102 77.2008 210.657 77.2277C208.506 77.1319 206.452 76.3006 204.84 74.8728C204.53 74.5378 204.199 74.2226 203.849 73.929Z" fill="#455A64"/>
<path d="M203.591 84.6069C203.591 84.6069 203.591 84.6069 203.667 84.502C203.725 84.394 203.776 84.2825 203.82 84.1683C204.003 83.7263 204.103 83.2546 204.115 82.7764C204.138 82.0145 203.974 81.2587 203.639 80.5741C203.201 79.6474 202.447 78.9072 201.512 78.4861C200.39 78.1231 199.336 77.5753 198.394 76.8654C198.168 76.6439 197.99 76.3779 197.872 76.0841C197.753 75.7904 197.697 75.4753 197.707 75.1588C197.746 74.4619 197.861 73.7713 198.051 73.0995C198.233 72.3372 198.255 71.5453 198.116 70.774C197.976 70.0027 197.678 69.2687 197.24 68.6186C196.778 67.9249 196.153 67.3552 195.419 66.9597C194.646 66.5927 193.804 66.3914 192.949 66.3686C192.11 66.3114 191.28 66.3685 190.489 66.2255C189.712 66.15 188.965 65.8848 188.314 65.4533C187.726 64.9907 187.312 64.3419 187.142 63.6133C186.955 62.8862 186.72 62.1726 186.436 61.4777C185.888 60.1782 184.99 59.0561 183.842 58.2362C182.829 57.5322 181.624 57.1562 180.39 57.1588C179.365 57.1423 178.362 57.4565 177.529 58.055C176.909 58.4995 176.411 59.093 176.08 59.7806C175.87 60.2117 175.737 60.6765 175.689 61.1535C175.666 61.318 175.666 61.4848 175.689 61.6493C175.73 61.0182 175.899 60.4021 176.185 59.8378C176.586 59.0827 177.188 58.4537 177.926 58.0211C178.663 57.5884 179.507 57.3691 180.362 57.3876C181.542 57.4034 182.69 57.7793 183.651 58.465C184.75 59.2632 185.608 60.3484 186.131 61.6016C186.396 62.2906 186.622 62.994 186.808 63.7086C186.998 64.5022 187.452 65.2079 188.095 65.7107C188.785 66.1821 189.581 66.4737 190.412 66.5592C191.242 66.6736 192.072 66.645 192.901 66.7022C193.708 66.7236 194.501 66.9153 195.228 67.2647C195.919 67.6252 196.509 68.1529 196.944 68.7997C197.358 69.4158 197.64 70.1105 197.773 70.8405C197.906 71.5705 197.887 72.32 197.717 73.0423C197.529 73.7337 197.417 74.4433 197.383 75.1588C197.373 75.5137 197.437 75.8667 197.572 76.1952C197.706 76.5237 197.909 76.8202 198.165 77.0656C199.136 77.798 200.226 78.3561 201.388 78.7149C202.275 79.0896 203.001 79.7648 203.438 80.6217C203.775 81.2801 203.951 82.0085 203.953 82.7478C203.956 83.3853 203.833 84.0171 203.591 84.6069Z" fill="#455A64"/>
<path d="M199.767 63.6705C199.795 63.5514 199.795 63.4273 199.767 63.3082C199.739 62.9557 199.598 62.6215 199.366 62.3548C198.994 61.9262 198.492 61.6315 197.936 61.5158C197.2 61.398 196.447 61.4905 195.762 61.7828C194.999 62.0593 194.226 62.4978 193.359 62.8124C192.922 63.0129 192.447 63.1166 191.966 63.1166C191.486 63.1166 191.011 63.0129 190.574 62.8124C189.685 62.1886 188.977 61.3397 188.524 60.3527C187.945 59.2843 187.194 58.3181 186.302 57.4925C184.575 55.8911 182.364 54.9085 180.018 54.6991C178.988 54.6297 177.958 54.8232 177.024 55.2616C176.209 55.6499 175.521 56.2616 175.04 57.0254C174.648 57.6656 174.468 58.4127 174.525 59.161C174.562 59.7189 174.735 60.2592 175.031 60.7341C175.211 61.0339 175.447 61.2961 175.727 61.5063C175.826 61.5756 175.931 61.6362 176.041 61.6875C175.685 61.4001 175.379 61.0553 175.135 60.6673C174.879 60.198 174.732 59.6763 174.706 59.1419C174.676 58.4387 174.863 57.7433 175.24 57.1493C175.709 56.434 176.37 55.8655 177.147 55.5095C178.043 55.1011 179.028 54.9303 180.008 55.0137C182.278 55.2286 184.414 56.1871 186.083 57.7404C186.949 58.5342 187.683 59.4611 188.257 60.4862C188.735 61.5199 189.487 62.4034 190.431 63.0413C190.914 63.2973 191.46 63.4098 192.004 63.3654C192.505 63.3265 192.996 63.2141 193.463 63.0317C194.369 62.6885 195.123 62.2404 195.857 61.9544C196.499 61.6655 197.209 61.5598 197.907 61.6493C198.43 61.7441 198.908 62.0049 199.271 62.393C199.507 62.6344 199.661 62.945 199.709 63.2796C199.776 63.537 199.748 63.6705 199.767 63.6705Z" fill="#455A64"/>
</g>
<path d="M42.6746 200.218C42.4854 201.387 42.1172 202.52 41.5831 203.577C40.8274 204.836 40.6595 207.439 40.7435 209.119C40.8274 210.798 40.9114 215.416 40.2397 216.759C39.568 218.103 37.5268 220.705 36.9651 222.721C36.4034 224.736 36.2094 227.506 36.9651 229.27C37.7207 231.033 38.3996 233.636 39.5715 234.056C40.7435 234.475 44.3538 234.056 44.3538 234.056C44.3538 234.056 44.3538 232.796 43.85 232.376C43.3463 231.956 41.5831 231.117 41.4151 229.773C41.2472 228.43 40.9954 226.163 40.9954 226.163C40.9954 226.163 45.2774 224.4 47.4605 222.301C49.6436 220.202 52.4143 217.23 52.4143 217.23C52.8703 218.936 53.4598 220.603 54.1775 222.217C54.4587 222.762 54.6054 223.367 54.6054 223.98C54.6054 224.593 54.4587 225.198 54.1775 225.743C53.9256 226.331 57.1162 229.831 60.6426 232.46C64.169 235.09 67.1078 233.468 67.1078 233.468C67.1078 233.468 67.6115 231.285 66.688 230.865C65.7892 230.603 64.8484 230.518 63.9172 230.613C63.9172 230.613 59.5511 227.422 60.0549 225.071C60.5587 222.72 62.0701 220.034 62.238 218.27C62.4059 216.507 62.4899 215.668 62.4899 215.668C65.1956 216.033 67.9243 216.201 70.6544 216.171C72.3838 216.11 74.0983 215.828 75.756 215.332C75.756 215.332 77.1834 224.064 76.2598 225.323C75.3362 226.583 72.3975 228.934 72.1456 230.529C71.8937 232.124 72.3135 234.429 74.1607 234.242C76.0079 234.055 75.924 232.964 75.84 231.453C76.9899 230.328 78.0562 229.122 79.0305 227.842C79.6183 226.835 82.8089 218.019 82.8089 218.019C82.8089 218.019 87.7627 227.59 87.9306 229.27C87.9955 229.867 88.1955 230.443 88.5155 230.952C88.8356 231.461 89.2672 231.891 89.7778 232.208C90.1136 232.292 90.8694 235.09 92.0448 235.09C93.3976 234.993 94.7433 234.816 96.075 234.559C96.075 234.559 95.9911 232.712 94.7316 232.124C93.4722 231.537 91.709 231.285 91.709 228.85C91.709 226.415 90.2816 216.843 90.3655 216.507C90.4495 216.171 93.0524 211.386 93.4722 209.706C93.892 208.027 94.8156 204.165 94.8156 204.165C94.8156 204.165 96.4948 198.875 97.8383 197.532C99.1818 196.188 101.113 196.188 102.54 196.02C103.968 195.852 104.037 195.265 104.471 194.341C104.905 193.417 105.885 191.402 105.395 191.15C104.906 190.899 102.288 189.807 101.952 189.303C101.617 188.799 101.365 187.708 100.273 187.288C99.1817 186.868 96.4949 185.105 95.1515 185.105C93.8081 185.105 91.2053 187.456 90.6175 187.96C89.4771 189.034 88.411 190.184 87.4269 191.402C86.5033 192.578 85.8316 195.768 82.3891 195.852C78.9466 195.936 49.3077 196.608 47.8804 195.768C46.453 194.929 44.6058 195.852 44.018 189.051C43.4303 182.25 43.0944 177.8 43.8501 176.709C44.6058 175.617 43.8502 175.365 45.2775 175.114C46.7049 174.862 48.4681 174.526 48.9719 173.518C49.4757 172.511 49.1399 171.017 47.7965 171.017C46.4531 171.017 40.2398 170.999 39.2323 179.228C38.2247 187.456 40.9115 192.578 41.4992 195.768C42.0869 198.959 42.9669 198.901 42.6746 200.218Z" fill="#F8A35B"/>
<path d="M64.9256 215.161C64.261 215.179 63.5967 215.115 62.9472 214.973C62.2464 214.785 61.5557 214.561 60.8777 214.303C60.0293 213.969 59.1378 213.759 58.2301 213.678C57.3048 213.643 56.3854 213.838 55.5541 214.246C54.8835 214.571 54.2639 214.991 53.715 215.495C53.3446 215.828 53.0048 216.193 52.6998 216.587C52.5749 216.722 52.4749 216.878 52.4046 217.048C52.4517 217.087 52.9226 216.466 53.8728 215.679C54.4244 215.218 55.0343 214.833 55.6868 214.532C56.4766 214.164 57.3427 213.988 58.2137 214.019C59.0898 214.1 59.9514 214.296 60.7764 214.601C61.469 214.85 62.177 215.053 62.896 215.21C63.3874 215.315 63.8921 215.342 64.392 215.291C64.5768 215.284 64.7583 215.24 64.9256 215.161V215.161Z" fill="#BA7A44"/>
<path d="M91.5456 188.822C91.9628 186.626 92.6864 184.5 93.6953 182.505C93.8109 182.277 93.9668 182.023 94.2205 181.989C94.6007 181.937 94.8285 182.393 94.9212 182.766C95.1649 183.746 95.3172 184.746 95.3761 185.754" fill="#F8A35B"/>
<path d="M96.872 185.822C97.1037 184.941 97.5684 184.138 98.2175 183.498C98.3943 183.325 98.6425 183.153 98.871 183.249C99.0901 183.341 99.148 183.62 99.1702 183.856C99.2725 184.951 99.2548 186.054 99.1174 187.145" fill="#F8A35B"/>
<path d="M105.021 193.139C104.55 192.887 104.183 192.478 103.983 191.983C103.879 191.507 103.965 191.009 104.223 190.595C104.223 190.595 105.416 190.955 105.504 191.295C105.646 191.758 105.021 193.139 105.021 193.139Z" fill="#375A64"/>
<path d="M94.9256 185.528C94.9594 185.186 94.9354 184.841 94.8545 184.508C94.7979 184.145 94.7411 183.782 94.6833 183.413C94.6712 183.292 94.6396 183.175 94.5897 183.064C94.5487 182.976 94.4755 182.908 94.3854 182.872C94.3303 182.853 94.2712 182.85 94.2143 182.862C94.1574 182.875 94.105 182.902 94.0625 182.942C93.9686 183.049 93.9008 183.176 93.8645 183.314L93.7475 183.654C93.4892 184.442 93.3339 185.261 93.2852 186.089C93.2505 186.35 93.2804 186.614 93.3723 186.86C93.4585 187.036 93.5644 187.085 93.5758 187.069C93.5954 187.05 93.5325 186.974 93.498 186.816C93.4645 186.582 93.474 186.344 93.5261 186.114C93.6435 185.315 93.8264 184.528 94.0731 183.759L94.1852 183.429C94.2068 183.344 94.242 183.263 94.2895 183.189C94.2517 183.096 94.3378 183.26 94.3753 183.481C94.4567 183.843 94.5367 184.198 94.6166 184.552C94.6651 184.892 94.7695 185.222 94.9256 185.528V185.528Z" fill="#BA7A44"/>
<path d="M100.526 187.365C99.3351 186.538 98.0208 185.906 96.6319 185.491C97.8228 186.317 99.1372 186.95 100.526 187.365Z" fill="#BA7A44"/>
<path d="M90.6655 209.247C90.4706 209.878 90.2154 210.488 89.9036 211.069C89.0388 212.405 87.9216 213.56 86.6146 214.469C85.8325 214.894 85.0723 215.359 84.3366 215.861C83.7519 216.325 83.2724 216.908 82.9298 217.571C82.7041 218.011 82.5212 218.472 82.3835 218.947C82.3186 219.117 82.282 219.297 82.2754 219.479C82.3381 219.501 82.5449 218.752 83.141 217.689C83.495 217.076 83.9671 216.539 84.5299 216.11C85.1548 215.615 85.9895 215.284 86.8039 214.754C88.1561 213.822 89.2866 212.604 90.1152 211.187C90.3531 210.749 90.5236 210.278 90.6208 209.79C90.6721 209.614 90.6872 209.429 90.6655 209.247V209.247Z" fill="#BA7A44"/>
<path d="M92.1108 207.525C92.0084 207.527 91.9971 208.51 91.609 209.631C91.2343 210.757 90.6447 211.544 90.7251 211.608C91.2762 211.095 91.6913 210.454 91.9332 209.741C92.175 209.029 92.2361 208.267 92.1108 207.525H92.1108Z" fill="#BA7A44"/>
<path d="M97.7638 189.406C97.7638 189.521 97.798 189.634 97.8622 189.73C97.9263 189.826 98.0174 189.9 98.1241 189.945C98.2307 189.989 98.348 190 98.4612 189.978C98.5744 189.955 98.6783 189.9 98.76 189.818C98.8416 189.737 98.8971 189.633 98.9196 189.519C98.9422 189.406 98.9306 189.289 98.8864 189.182C98.8423 189.076 98.7675 188.984 98.6716 188.92C98.5756 188.856 98.4628 188.822 98.3474 188.822C98.2707 188.822 98.1949 188.837 98.1241 188.866C98.0533 188.896 97.9889 188.939 97.9348 188.993C97.8806 189.047 97.8376 189.111 97.8082 189.182C97.7789 189.253 97.7638 189.329 97.7638 189.406V189.406Z" fill="#375A64"/>
<path d="M97.0105 189.557C97.0836 189.639 97.5827 189.08 98.3937 189.111C98.718 189.153 99.0139 189.318 99.2206 189.572C99.414 189.766 99.5376 189.897 99.5801 189.87C99.6172 189.847 99.5676 189.671 99.4089 189.42C99.3131 189.268 99.194 189.133 99.0562 189.019C98.8732 188.864 98.6432 188.776 98.4036 188.768C97.9958 188.756 97.5976 188.894 97.2847 189.155C97.0589 189.359 96.9787 189.527 97.0105 189.557Z" fill="#375A64"/>
</g>
<defs>
<linearGradient id="paint0_linear_0_2876" x1="-91.6294" y1="370.554" x2="136.774" y2="-168.705" gradientUnits="userSpaceOnUse">
<stop stop-color="white" stop-opacity="0"/>
<stop offset="1" stop-color="#F8A35B"/>
</linearGradient>
<linearGradient id="paint1_linear_0_2876" x1="14.6623" y1="342.408" x2="201.956" y2="-34.5963" gradientUnits="userSpaceOnUse">
<stop stop-color="#91F082"/>
<stop offset="1" stop-color="white" stop-opacity="0"/>
</linearGradient>
<linearGradient id="paint2_linear_0_2876" x1="1312.74" y1="35444.2" x2="1786.13" y2="35444.2" gradientUnits="userSpaceOnUse">
<stop stop-color="#B0EF87"/>
<stop offset="1" stop-color="#73C89A"/>
</linearGradient>
<linearGradient id="paint3_linear_0_2876" x1="1225.33" y1="57414" x2="1615.26" y2="57414" gradientUnits="userSpaceOnUse">
<stop stop-color="#B0EF87"/>
<stop offset="1" stop-color="#73C89A"/>
</linearGradient>
<linearGradient id="paint4_linear_0_2876" x1="1232.73" y1="49785.6" x2="1589.72" y2="49785.6" gradientUnits="userSpaceOnUse">
<stop stop-color="#B0EF87"/>
<stop offset="1" stop-color="#73C89A"/>
</linearGradient>
<linearGradient id="paint5_linear_0_2876" x1="1202.53" y1="67013.3" x2="1843.04" y2="67013.3" gradientUnits="userSpaceOnUse">
<stop stop-color="#B0EF87"/>
<stop offset="1" stop-color="#73C89A"/>
</linearGradient>
<linearGradient id="paint6_linear_0_2876" x1="1437.49" y1="157152" x2="2350.84" y2="157152" gradientUnits="userSpaceOnUse">
<stop stop-color="#B0EF87"/>
<stop offset="1" stop-color="#73C89A"/>
</linearGradient>
<linearGradient id="paint7_linear_0_2876" x1="226.954" y1="180.563" x2="239.69" y2="180.563" gradientUnits="userSpaceOnUse">
<stop stop-color="#84D580"/>
<stop offset="1" stop-color="#3C696B"/>
</linearGradient>
<linearGradient id="paint8_linear_0_2876" x1="5121.83" y1="95619.5" x2="5286.81" y2="95619.5" gradientUnits="userSpaceOnUse">
<stop stop-color="#84D580"/>
<stop offset="1" stop-color="#3C696B"/>
</linearGradient>
<linearGradient id="paint9_linear_0_2876" x1="6095.34" y1="72443" x2="6327.45" y2="72443" gradientUnits="userSpaceOnUse">
<stop stop-color="#84D580"/>
<stop offset="1" stop-color="#3C696B"/>
</linearGradient>
<linearGradient id="paint10_linear_0_2876" x1="8175.47" y1="45416.6" x2="8613.9" y2="45416.6" gradientUnits="userSpaceOnUse">
<stop stop-color="#84D580"/>
<stop offset="1" stop-color="#3C696B"/>
</linearGradient>
<linearGradient id="paint11_linear_0_2876" x1="7439.29" y1="39963.4" x2="7814.54" y2="39963.4" gradientUnits="userSpaceOnUse">
<stop stop-color="#84D580"/>
<stop offset="1" stop-color="#3C696B"/>
</linearGradient>
<linearGradient id="paint12_linear_0_2876" x1="8813.07" y1="32503.8" x2="9317.75" y2="32503.8" gradientUnits="userSpaceOnUse">
<stop stop-color="#84D580"/>
<stop offset="1" stop-color="#3C696B"/>
</linearGradient>
<clipPath id="clip0_0_2876">
<rect width="147.807" height="184.004" fill="white" transform="translate(90.0179 52.6208)"/>
</clipPath>
</defs>
</svg>
