<svg width="1920" height="9457" viewBox="0 0 1920 9457" fill="none" xmlns="http://www.w3.org/2000/svg">
<g clip-path="url(#clip0_1_8814)">
<rect width="1920" height="9457" fill="white"/>
<g opacity="0.2" filter="url(#filter0_f_1_8814)">
<circle cx="210" cy="4133" r="170" stroke="#F8A35B" stroke-width="28"/>
</g>
<circle opacity="0.2" cx="1811" cy="6234" r="170" stroke="#91F082" stroke-width="28"/>
<g opacity="0.15" filter="url(#filter1_f_1_8814)">
<circle cx="503" cy="6236" r="162" fill="#F8A35B"/>
</g>
<g opacity="0.1" filter="url(#filter2_f_1_8814)">
<path d="M643.913 7394.64C641.415 7392.98 642.296 7390.22 641.304 7386.56C639.861 7381.16 642.289 7378.79 644.69 7379.5C647.165 7380.27 647.512 7383.66 649.772 7385.01C652.046 7386.48 655.337 7385.19 657.036 7387.07C658.735 7388.95 657.699 7392.2 652.259 7393.24C648.581 7394.1 646.532 7396.15 643.913 7394.64Z" fill="#3F2B4F"/>
<path d="M636.453 7392.67C639.08 7391.58 640.694 7389.29 639.972 7387.58C639.25 7385.88 636.531 7385.4 633.904 7386.49C631.277 7387.58 629.662 7389.87 630.385 7391.58C631.107 7393.28 633.826 7393.76 636.453 7392.67Z" fill="#3F2B4F"/>
<path d="M648.948 7400.36C648.792 7397.5 650.047 7395.04 651.884 7394.92C653.72 7394.8 655.386 7397.03 655.602 7399.81C655.758 7402.67 654.504 7405.13 652.667 7405.25C650.906 7405.43 649.179 7403.28 648.948 7400.36Z" fill="#3F2B4F"/>
<path d="M639.028 7401.1C640.988 7398.84 641.449 7395.99 640.016 7394.7C638.583 7393.41 635.718 7394.18 633.758 7396.44C631.723 7398.63 631.262 7401.48 632.695 7402.78C634.203 7404.13 636.994 7403.29 639.028 7401.1Z" fill="#3F2B4F"/>
<path d="M640.345 7401.92C641.498 7399.14 643.784 7397.39 645.643 7398.16C647.502 7398.93 647.99 7401.69 646.912 7404.54C645.76 7407.33 643.473 7409.07 641.614 7408.3C639.755 7407.53 639.193 7404.71 640.345 7401.92Z" fill="#3F2B4F"/>
<path d="M564.621 7350.74C562.684 7348.45 564.299 7346.04 564.367 7342.25C564.484 7336.66 567.475 7335.06 569.583 7336.41C571.745 7337.85 571.135 7341.2 572.932 7343.12C574.704 7345.17 578.226 7344.84 579.334 7347.12C580.442 7349.4 578.541 7352.24 573.028 7351.72C569.257 7351.52 566.716 7352.92 564.621 7350.74Z" fill="#3F2B4F"/>
<path d="M558.005 7346.77C560.832 7346.45 563.019 7344.7 562.801 7342.86C562.582 7341.02 560.102 7339.81 557.276 7340.13C554.449 7340.44 552.261 7342.19 552.48 7344.03C552.699 7345.87 555.178 7347.08 558.005 7346.77Z" fill="#3F2B4F"/>
<path d="M567.866 7357.63C568.513 7354.84 570.402 7352.83 572.199 7353.23C573.996 7353.62 574.976 7356.23 574.409 7358.96C573.763 7361.75 571.874 7363.76 570.077 7363.37C568.334 7363.05 567.275 7360.5 567.866 7357.63Z" fill="#3F2B4F"/>
<path d="M558.132 7355.58C560.642 7353.96 561.879 7351.35 560.862 7349.71C559.845 7348.07 556.878 7348.02 554.368 7349.64C551.803 7351.18 550.566 7353.79 551.583 7355.43C552.655 7357.15 555.567 7357.12 558.132 7355.58Z" fill="#3F2B4F"/>
<path d="M559.167 7356.74C561.05 7354.38 563.731 7353.35 565.302 7354.6C566.874 7355.86 566.575 7358.64 564.747 7361.08C562.864 7363.44 560.183 7364.47 558.611 7363.22C557.04 7361.96 557.284 7359.1 559.167 7356.74Z" fill="#3F2B4F"/>
</g>
<g opacity="0.1" filter="url(#filter3_f_1_8814)">
<path d="M525.885 7522.16C523.934 7519.89 525.534 7517.47 525.578 7513.67C525.66 7508.09 528.641 7506.47 530.757 7507.81C532.928 7509.22 532.339 7512.58 534.148 7514.49C535.933 7516.53 539.453 7516.18 540.575 7518.45C541.697 7520.72 539.814 7523.57 534.298 7523.09C530.525 7522.91 527.993 7524.33 525.885 7522.16Z" fill="#3F2B4F"/>
<path d="M519.245 7518.23C522.07 7517.9 524.246 7516.14 524.016 7514.3C523.786 7512.46 521.299 7511.26 518.474 7511.6C515.649 7511.93 513.473 7513.69 513.703 7515.53C513.934 7517.37 516.42 7518.57 519.245 7518.23Z" fill="#3F2B4F"/>
<path d="M529.174 7529.03C529.802 7526.24 531.679 7524.22 533.478 7524.6C535.278 7524.99 536.274 7527.58 535.724 7530.32C535.095 7533.12 533.219 7535.14 531.419 7534.75C529.675 7534.45 528.6 7531.91 529.174 7529.03Z" fill="#3F2B4F"/>
<path d="M519.426 7527.05C521.926 7525.41 523.147 7522.79 522.12 7521.16C521.093 7519.53 518.126 7519.49 515.626 7521.12C513.07 7522.68 511.849 7525.3 512.877 7526.93C513.959 7528.65 516.871 7528.6 519.426 7527.05Z" fill="#3F2B4F"/>
<path d="M520.469 7528.2C522.337 7525.83 525.012 7524.78 526.591 7526.02C528.17 7527.27 527.889 7530.05 526.076 7532.5C524.207 7534.87 521.533 7535.92 519.954 7534.68C518.375 7533.43 518.601 7530.57 520.469 7528.2Z" fill="#3F2B4F"/>
<path d="M460.764 7479.21C459.524 7476.48 461.733 7474.61 462.833 7470.97C464.467 7465.63 467.781 7464.9 469.441 7466.78C471.131 7468.75 469.632 7471.81 470.838 7474.14C471.984 7476.6 475.461 7477.24 475.907 7479.74C476.353 7482.23 473.75 7484.45 468.587 7482.44C465.013 7481.22 462.186 7481.88 460.764 7479.21Z" fill="#3F2B4F"/>
<path d="M455.481 7473.59C458.287 7474.06 460.868 7472.97 461.158 7471.14C461.449 7469.31 459.394 7467.47 456.588 7467C453.782 7466.54 451.201 7467.62 450.91 7469.45C450.62 7471.28 452.675 7473.12 455.481 7473.59Z" fill="#3F2B4F"/>
<path d="M462.01 7486.73C463.392 7484.22 465.757 7482.8 467.378 7483.67C468.999 7484.54 469.234 7487.31 467.943 7489.79C466.561 7492.3 464.196 7493.72 462.575 7492.85C460.985 7492.07 460.659 7489.33 462.01 7486.73Z" fill="#3F2B4F"/>
<path d="M453.201 7482.11C456.058 7481.23 457.96 7479.05 457.428 7477.2C456.896 7475.35 454.056 7474.48 451.2 7475.36C448.312 7476.14 446.41 7478.32 446.942 7480.17C447.505 7482.12 450.314 7482.89 453.201 7482.11Z" fill="#3F2B4F"/>
<path d="M453.882 7483.5C456.336 7481.75 459.197 7481.48 460.368 7483.12C461.538 7484.75 460.492 7487.35 458.069 7489.2C455.615 7490.95 452.754 7491.22 451.584 7489.58C450.413 7487.95 451.428 7485.26 453.882 7483.5Z" fill="#3F2B4F"/>
</g>
<g opacity="0.1" filter="url(#filter4_f_1_8814)">
<path d="M852.888 6429.31C850.292 6430.81 848.208 6428.8 844.484 6428.06C839.005 6426.96 837.955 6423.74 839.658 6421.9C841.448 6420.02 844.639 6421.21 846.845 6419.78C849.178 6418.4 849.475 6414.88 851.913 6414.19C854.351 6413.5 856.811 6415.87 855.329 6421.2C854.467 6424.88 855.404 6427.63 852.888 6429.31Z" fill="#3F2B4F"/>
<path d="M847.812 6435.12C847.998 6432.28 846.663 6429.82 844.813 6429.71C842.963 6429.6 841.333 6431.83 841.147 6434.67C840.96 6437.51 842.296 6439.97 844.146 6440.08C845.995 6440.18 847.626 6437.96 847.812 6435.12Z" fill="#3F2B4F"/>
<path d="M860.243 6427.32C857.61 6426.2 855.964 6423.98 856.67 6422.28C857.377 6420.58 860.111 6420.08 862.703 6421.12C865.336 6422.25 866.982 6424.46 866.275 6426.16C865.656 6427.82 862.963 6428.41 860.243 6427.32Z" fill="#3F2B4F"/>
<path d="M856.512 6436.55C855.359 6433.79 853.005 6432.11 851.212 6432.82C849.42 6433.54 848.843 6436.45 849.996 6439.2C851.061 6442 853.415 6443.68 855.208 6442.97C857.088 6442.21 857.577 6439.34 856.512 6436.55Z" fill="#3F2B4F"/>
<path d="M857.834 6435.73C855.845 6433.46 855.298 6430.64 856.81 6429.31C858.323 6427.99 861.011 6428.77 863.087 6431C865.076 6433.27 865.623 6436.09 864.111 6437.42C862.599 6438.74 859.823 6438 857.834 6435.73Z" fill="#3F2B4F"/>
<path d="M778.396 6480.93C775.484 6481.66 774.042 6479.14 770.67 6477.4C765.714 6474.82 765.604 6471.43 767.75 6470.14C769.992 6468.83 772.726 6470.86 775.243 6470.1C777.869 6469.43 779.135 6466.12 781.669 6466.14C784.203 6466.16 785.905 6469.12 782.996 6473.83C781.144 6477.12 781.28 6480.02 778.396 6480.93Z" fill="#3F2B4F"/>
<path d="M771.902 6485.1C772.871 6482.43 772.274 6479.69 770.527 6479.08C768.781 6478.46 766.595 6480.14 765.626 6482.82C764.657 6485.49 765.254 6488.23 767.001 6488.84C768.747 6489.46 770.933 6487.78 771.902 6485.1Z" fill="#3F2B4F"/>
<path d="M786.011 6481.08C783.796 6479.26 782.831 6476.68 783.983 6475.24C785.135 6473.81 787.901 6474.08 790.102 6475.8C792.317 6477.62 793.281 6480.2 792.13 6481.64C791.073 6483.06 788.321 6482.88 786.011 6481.08Z" fill="#3F2B4F"/>
<path d="M779.861 6488.9C779.521 6485.93 777.726 6483.66 775.806 6483.85C773.887 6484.03 772.522 6486.67 772.862 6489.64C773.106 6492.62 774.901 6494.89 776.821 6494.7C778.836 6494.5 780.105 6491.88 779.861 6488.9Z" fill="#3F2B4F"/>
<path d="M781.358 6488.48C780.079 6485.75 780.339 6482.89 782.16 6482.03C783.982 6481.18 786.345 6482.68 787.719 6485.4C788.998 6488.14 788.738 6491 786.916 6491.85C785.095 6492.7 782.636 6491.21 781.358 6488.48Z" fill="#3F2B4F"/>
</g>
<g opacity="0.1" filter="url(#filter5_f_1_8814)">
<path d="M979.905 6577.62C976.998 6578.36 975.541 6575.85 972.158 6574.13C967.186 6571.58 967.054 6568.19 969.193 6566.89C971.427 6565.57 974.173 6567.59 976.685 6566.81C979.307 6566.11 980.552 6562.8 983.086 6562.81C985.62 6562.81 987.341 6565.76 984.462 6570.49C982.63 6573.79 982.784 6576.69 979.905 6577.62Z" fill="#3F2B4F"/>
<path d="M973.438 6581.83C974.391 6579.15 973.776 6576.42 972.026 6575.81C970.276 6575.2 968.1 6576.9 967.148 6579.58C966.195 6582.26 966.81 6584.99 968.56 6585.6C970.31 6586.21 972.486 6584.51 973.438 6581.83Z" fill="#3F2B4F"/>
<path d="M987.522 6577.72C985.296 6575.91 984.315 6573.34 985.458 6571.89C986.6 6570.45 989.369 6570.71 991.58 6572.41C993.806 6574.22 994.787 6576.79 993.644 6578.24C992.597 6579.67 989.843 6579.5 987.522 6577.72Z" fill="#3F2B4F"/>
<path d="M981.42 6585.57C981.062 6582.61 979.253 6580.35 977.335 6580.55C975.416 6580.75 974.068 6583.39 974.426 6586.36C974.689 6589.34 976.498 6591.59 978.417 6591.39C980.431 6591.18 981.683 6588.55 981.42 6585.57Z" fill="#3F2B4F"/>
<path d="M982.914 6585.15C981.619 6582.42 981.861 6579.56 983.677 6578.7C985.493 6577.83 987.866 6579.32 989.257 6582.03C990.553 6584.75 990.311 6587.62 988.494 6588.48C986.678 6589.35 984.21 6587.87 982.914 6585.15Z" fill="#3F2B4F"/>
<path d="M912.546 6616.97C909.548 6616.87 908.846 6614.06 906.076 6611.46C902.01 6607.63 902.828 6604.33 905.245 6603.68C907.757 6603.03 909.834 6605.73 912.462 6605.69C915.174 6605.75 917.292 6602.92 919.725 6603.62C922.159 6604.33 922.99 6607.64 918.908 6611.38C916.23 6614.05 915.569 6616.87 912.546 6616.97Z" fill="#3F2B4F"/>
<path d="M905.162 6619.21C906.823 6616.9 906.994 6614.11 905.482 6613.03C903.97 6611.96 901.408 6612.99 899.747 6615.3C898.086 6617.61 897.916 6620.4 899.428 6621.47C900.939 6622.54 903.502 6621.52 905.162 6619.21Z" fill="#3F2B4F"/>
<path d="M919.834 6619.18C918.198 6616.83 917.974 6614.08 919.473 6613.01C920.972 6611.94 923.559 6612.96 925.208 6615.22C926.844 6617.57 927.069 6620.32 925.57 6621.38C924.166 6622.46 921.566 6621.54 919.834 6619.18Z" fill="#3F2B4F"/>
<path d="M911.787 6625.03C912.269 6622.08 911.16 6619.41 909.262 6619.06C907.364 6618.72 905.333 6620.88 904.852 6623.83C904.275 6626.77 905.384 6629.44 907.282 6629.78C909.275 6630.14 911.21 6627.96 911.787 6625.03Z" fill="#3F2B4F"/>
<path d="M913.34 6625.04C912.854 6622.06 913.884 6619.37 915.869 6619.05C917.854 6618.73 919.719 6620.82 920.3 6623.81C920.787 6626.78 919.757 6629.47 917.772 6629.79C915.787 6630.11 913.826 6628.01 913.34 6625.04Z" fill="#3F2B4F"/>
</g>
<g opacity="0.2" filter="url(#filter6_f_1_8814)">
<path d="M372 188C205.999 304 256.407 561.815 444.999 597C712.999 647 657.417 346.785 754.5 321.5C910 281 838.001 463 996 446C1093.87 435.47 1041.47 305.582 1160 209C1268 121 1408 133 1499 209C1574.15 271.761 1597 412 1570 446C1523.67 547.667 1387.5 739.5 1213.5 693.5C996 636 657.263 597.789 424 923.5C315.5 1075 323.5 1324 451.5 1447C615.671 1604.76 725.564 1685.29 910 1727C1108.73 1771.94 1184 1496 1495 1665C1747.79 1802.37 1616.5 2366.5 1288.5 2274.5C947.165 2178.76 270.097 2012.73 292.999 2366.5C316.499 2729.5 742.017 2384.5 722 2803C701.983 3221.5 1427.36 2784.05 1496.5 2996.5C1620 3376 922.5 3147 922.5 3376C922.5 3672.67 1017.66 3561.21 1146.5 3732C1254 3874.5 1009 3872 960 3991C911 4110 1102 3989.5 767 3916.5C432 3843.5 1286.04 3843.69 1434.5 4071C1651 4402.5 502.02 4372.5 625 4681C742 4974.5 1656.5 4888 1492.5 5204.5C1254.05 5664.68 555.5 5563.5 555.5 5988.5C555.5 6358.47 1002.57 6523.75 1264 6595.58C1419.65 6638.35 1494 7124 1384.5 7124C439.115 7124 131.5 7729.5 570.5 7922.5C589.797 7928.68 582.5 8204.5 889.999 8235C933.969 8235 933.317 8277.29 919.811 8322.93C898.635 8394.48 897.555 8473.62 940 8535V8535" stroke="#F8A35B" stroke-width="8" stroke-linecap="round" stroke-dasharray="47 47"/>
</g>
<g opacity="0.1" filter="url(#filter7_f_1_8814)">
<path d="M865.106 1584.38C862.962 1582.28 864.343 1579.74 864.053 1575.95C863.644 1570.38 866.471 1568.5 868.697 1569.65C870.984 1570.87 870.693 1574.27 872.662 1576.01C874.62 1577.88 878.095 1577.23 879.413 1579.39C880.73 1581.55 879.105 1584.56 873.567 1584.56C869.794 1584.72 867.397 1586.36 865.106 1584.38Z" fill="#3F2B4F"/>
<path d="M858.146 1581.05C860.931 1580.47 862.944 1578.52 862.552 1576.71C862.161 1574.9 859.579 1573.93 856.794 1574.51C854.01 1575.09 851.997 1577.03 852.388 1578.84C852.779 1580.66 855.362 1581.63 858.146 1581.05Z" fill="#3F2B4F"/>
<path d="M868.986 1590.94C869.367 1588.1 871.058 1585.92 872.885 1586.14C874.711 1586.37 875.932 1588.87 875.625 1591.64C875.244 1594.48 873.553 1596.66 871.726 1596.44C869.962 1596.28 868.667 1593.85 868.986 1590.94Z" fill="#3F2B4F"/>
<path d="M859.102 1589.81C861.448 1587.96 862.434 1585.25 861.267 1583.71C860.1 1582.17 857.142 1582.4 854.795 1584.25C852.386 1586.02 851.401 1588.74 852.567 1590.28C853.796 1591.89 856.693 1591.59 859.102 1589.81Z" fill="#3F2B4F"/>
<path d="M860.242 1590.87C861.894 1588.34 864.466 1587.06 866.148 1588.16C867.831 1589.26 867.795 1592.06 866.205 1594.66C864.552 1597.19 861.981 1598.47 860.298 1597.37C858.615 1596.27 858.589 1593.39 860.242 1590.87Z" fill="#3F2B4F"/>
<path d="M795.405 1526.45C793.93 1523.83 795.966 1521.77 796.741 1518.06C797.899 1512.59 801.137 1511.57 802.955 1513.3C804.812 1515.11 803.588 1518.29 804.994 1520.51C806.352 1522.86 809.873 1523.19 810.536 1525.64C811.199 1528.08 808.801 1530.52 803.482 1528.98C799.815 1528.07 797.056 1528.98 795.405 1526.45Z" fill="#3F2B4F"/>
<path d="M789.648 1521.31C792.484 1521.53 794.96 1520.22 795.088 1518.37C795.217 1516.52 793.008 1514.87 790.171 1514.65C787.335 1514.43 784.86 1515.74 784.731 1517.59C784.603 1519.44 786.812 1521.09 789.648 1521.31Z" fill="#3F2B4F"/>
<path d="M797.307 1533.82C798.463 1531.2 800.694 1529.58 802.386 1530.3C804.077 1531.03 804.555 1533.77 803.487 1536.35C802.331 1538.97 800.1 1540.59 798.408 1539.87C796.756 1539.23 796.191 1536.53 797.307 1533.82Z" fill="#3F2B4F"/>
<path d="M788.126 1529.99C790.895 1528.87 792.598 1526.53 791.905 1524.73C791.212 1522.93 788.308 1522.32 785.539 1523.45C782.732 1524.48 781.028 1526.82 781.721 1528.62C782.453 1530.51 785.319 1531.03 788.126 1529.99Z" fill="#3F2B4F"/>
<path d="M788.928 1531.32C791.218 1529.36 794.044 1528.84 795.354 1530.37C796.663 1531.9 795.85 1534.57 793.599 1536.63C791.309 1538.59 788.482 1539.11 787.172 1537.58C785.863 1536.05 786.638 1533.29 788.928 1531.32Z" fill="#3F2B4F"/>
</g>
<g opacity="0.1" filter="url(#filter8_f_1_8814)">
<path d="M1667.1 1905.56C1664.16 1906.14 1662.84 1903.55 1659.56 1901.64C1654.74 1898.82 1654.8 1895.43 1657.01 1894.25C1659.31 1893.06 1661.94 1895.22 1664.49 1894.59C1667.15 1894.04 1668.58 1890.8 1671.11 1890.95C1673.64 1891.09 1675.19 1894.13 1672.05 1898.69C1670.04 1901.89 1670.03 1904.79 1667.1 1905.56Z" fill="#3F2B4F"/>
<path d="M1660.41 1909.4C1661.51 1906.78 1661.05 1904.02 1659.34 1903.31C1657.62 1902.61 1655.36 1904.18 1654.25 1906.8C1653.15 1909.43 1653.61 1912.19 1655.33 1912.89C1657.04 1913.6 1659.31 1912.02 1660.41 1909.4Z" fill="#3F2B4F"/>
<path d="M1674.7 1906.08C1672.58 1904.16 1671.74 1901.53 1672.97 1900.15C1674.19 1898.78 1676.94 1899.19 1679.05 1901.02C1681.17 1902.94 1682.01 1905.57 1680.78 1906.95C1679.66 1908.31 1676.92 1908 1674.7 1906.08Z" fill="#3F2B4F"/>
<path d="M1668.17 1913.59C1667.98 1910.6 1666.3 1908.25 1664.37 1908.34C1662.44 1908.43 1660.95 1910.99 1661.14 1913.98C1661.24 1916.97 1662.92 1919.32 1664.84 1919.23C1666.87 1919.13 1668.26 1916.58 1668.17 1913.59Z" fill="#3F2B4F"/>
<path d="M1669.68 1913.25C1668.54 1910.45 1668.95 1907.61 1670.81 1906.85C1672.67 1906.09 1674.96 1907.7 1676.19 1910.49C1677.33 1913.28 1676.93 1916.13 1675.07 1916.89C1673.21 1917.65 1670.83 1916.04 1669.68 1913.25Z" fill="#3F2B4F"/>
<path d="M1579.85 1930.1C1576.86 1929.83 1576.32 1926.98 1573.7 1924.24C1569.85 1920.18 1570.86 1916.94 1573.31 1916.42C1575.85 1915.92 1577.77 1918.73 1580.4 1918.83C1583.1 1919.04 1585.38 1916.33 1587.77 1917.18C1590.16 1918.02 1590.8 1921.37 1586.52 1924.88C1583.69 1927.39 1582.88 1930.17 1579.85 1930.1Z" fill="#3F2B4F"/>
<path d="M1572.35 1931.92C1574.14 1929.71 1574.47 1926.93 1573.02 1925.77C1571.57 1924.62 1568.95 1925.5 1567.17 1927.71C1565.38 1929.93 1565.05 1932.71 1566.5 1933.86C1567.95 1935.02 1570.57 1934.13 1572.35 1931.92Z" fill="#3F2B4F"/>
<path d="M1587 1932.71C1585.5 1930.28 1585.43 1927.52 1586.99 1926.54C1588.55 1925.55 1591.07 1926.71 1592.59 1929.06C1594.09 1931.5 1594.16 1934.25 1592.61 1935.24C1591.15 1936.24 1588.6 1935.17 1587 1932.71Z" fill="#3F2B4F"/>
<path d="M1578.64 1938.1C1579.29 1935.18 1578.33 1932.46 1576.45 1932.01C1574.58 1931.56 1572.43 1933.6 1571.78 1936.52C1571.04 1939.42 1572 1942.15 1573.88 1942.6C1575.85 1943.07 1577.9 1941 1578.64 1938.1Z" fill="#3F2B4F"/>
<path d="M1580.19 1938.2C1579.87 1935.2 1581.05 1932.58 1583.05 1932.36C1585.05 1932.15 1586.8 1934.34 1587.21 1937.36C1587.53 1940.36 1586.35 1942.98 1584.35 1943.19C1582.35 1943.4 1580.51 1941.2 1580.19 1938.2Z" fill="#3F2B4F"/>
</g>
<g opacity="0.1" filter="url(#filter9_f_1_8814)">
<path d="M411.119 2533C409.345 2535.42 406.628 2534.41 402.922 2535.23C397.464 2536.43 395.206 2533.89 396.028 2531.53C396.914 2529.09 400.315 2528.9 401.76 2526.7C403.342 2524.5 402.198 2521.15 404.154 2519.54C406.11 2517.93 409.315 2519.12 410.101 2524.6C410.787 2528.31 412.75 2530.45 411.119 2533Z" fill="#3F2B4F"/>
<path d="M408.804 2540.36C407.835 2537.69 405.624 2535.97 403.886 2536.61C402.149 2537.26 401.55 2539.95 402.519 2542.62C403.488 2545.3 405.7 2547.02 407.437 2546.37C409.175 2545.73 409.774 2543.03 408.804 2540.36Z" fill="#3F2B4F"/>
<path d="M417.059 2528.23C414.195 2528.26 411.799 2526.89 411.763 2525.05C411.728 2523.21 414.028 2521.65 416.82 2521.56C419.684 2521.53 422.08 2522.9 422.115 2524.74C422.215 2526.51 419.987 2528.13 417.059 2528.23Z" fill="#3F2B4F"/>
<path d="M417.345 2538.17C415.183 2536.11 412.353 2535.52 410.997 2536.89C409.642 2538.27 410.282 2541.16 412.445 2543.23C414.543 2545.36 417.374 2545.95 418.729 2544.58C420.149 2543.13 419.444 2540.31 417.345 2538.17Z" fill="#3F2B4F"/>
<path d="M418.229 2536.9C415.496 2535.62 413.862 2533.25 414.715 2531.43C415.567 2529.61 418.344 2529.25 421.141 2530.46C423.873 2531.74 425.507 2534.1 424.655 2535.92C423.802 2537.74 420.961 2538.18 418.229 2536.9Z" fill="#3F2B4F"/>
<path d="M363.63 2610.2C361.252 2612.03 358.923 2610.3 355.135 2610.06C349.56 2609.69 348.097 2606.63 349.545 2604.58C351.074 2602.49 354.394 2603.25 356.393 2601.54C358.526 2599.87 358.359 2596.33 360.686 2595.33C363.013 2594.33 365.762 2596.36 364.991 2601.84C364.616 2605.6 365.905 2608.2 363.63 2610.2Z" fill="#3F2B4F"/>
<path d="M359.358 2616.62C359.171 2613.78 357.525 2611.52 355.677 2611.65C353.83 2611.79 352.504 2614.21 352.691 2617.05C352.877 2619.89 354.523 2622.15 356.371 2622.02C358.219 2621.88 359.544 2619.46 359.358 2616.62Z" fill="#3F2B4F"/>
<path d="M370.662 2607.27C367.904 2606.5 365.983 2604.52 366.461 2602.74C366.94 2600.96 369.583 2600.1 372.29 2600.79C375.047 2601.57 376.969 2603.55 376.49 2605.32C376.094 2607.05 373.501 2607.99 370.662 2607.27Z" fill="#3F2B4F"/>
<path d="M368.169 2616.9C366.666 2614.32 364.112 2612.96 362.429 2613.9C360.745 2614.84 360.553 2617.81 362.056 2620.39C363.478 2623.02 366.032 2624.38 367.716 2623.44C369.481 2622.44 369.591 2619.53 368.169 2616.9Z" fill="#3F2B4F"/>
<path d="M369.374 2615.92C367.105 2613.93 366.194 2611.2 367.52 2609.69C368.846 2608.18 371.613 2608.61 373.963 2610.54C376.232 2612.53 377.143 2615.26 375.817 2616.77C374.491 2618.28 371.642 2617.91 369.374 2615.92Z" fill="#3F2B4F"/>
</g>
<g opacity="0.1" filter="url(#filter10_f_1_8814)">
<path d="M947.931 3500.28C945.018 3499.56 944.915 3496.66 942.743 3493.55C939.561 3488.96 941.045 3485.9 943.545 3485.76C946.136 3485.66 947.608 3488.73 950.189 3489.23C952.829 3489.85 955.488 3487.52 957.722 3488.71C959.957 3489.91 960.082 3493.32 955.312 3496.14C952.14 3498.19 950.907 3500.82 947.931 3500.28Z" fill="#3F2B4F"/>
<path d="M940.243 3500.94C942.347 3499.03 943.093 3496.33 941.836 3494.97C940.58 3493.6 937.86 3494.08 935.757 3495.99C933.653 3497.9 932.906 3500.6 934.163 3501.97C935.419 3503.33 938.139 3502.85 940.243 3500.94Z" fill="#3F2B4F"/>
<path d="M954.602 3503.96C953.488 3501.32 953.839 3498.58 955.527 3497.85C957.215 3497.11 959.535 3498.65 960.68 3501.19C961.793 3503.83 961.442 3506.57 959.755 3507.3C958.157 3508.07 955.806 3506.63 954.602 3503.96Z" fill="#3F2B4F"/>
<path d="M945.516 3508.01C946.599 3505.22 946.068 3502.38 944.283 3501.65C942.498 3500.92 940.062 3502.61 938.98 3505.4C937.806 3508.15 938.337 3510.99 940.122 3511.72C941.998 3512.49 944.342 3510.76 945.516 3508.01Z" fill="#3F2B4F"/>
<path d="M947.034 3508.34C947.176 3505.32 948.74 3502.91 950.749 3503.01C952.758 3503.1 954.149 3505.53 954.098 3508.58C953.955 3511.59 952.391 3514 950.382 3513.91C948.373 3513.81 946.892 3511.35 947.034 3508.34Z" fill="#3F2B4F"/>
<path d="M858.468 3485.76C855.871 3484.25 856.577 3481.44 855.359 3477.85C853.581 3472.55 855.855 3470.03 858.296 3470.59C860.815 3471.21 861.373 3474.57 863.713 3475.77C866.075 3477.1 869.278 3475.6 871.091 3477.37C872.904 3479.14 872.074 3482.46 866.71 3483.83C863.093 3484.92 861.177 3487.1 858.468 3485.76Z" fill="#3F2B4F"/>
<path d="M850.899 3484.25C853.452 3483 854.92 3480.61 854.093 3478.96C853.265 3477.3 850.522 3477 847.968 3478.25C845.414 3479.5 843.946 3481.89 844.774 3483.54C845.602 3485.2 848.345 3485.5 850.899 3484.25Z" fill="#3F2B4F"/>
<path d="M863.851 3491.14C863.516 3488.3 864.615 3485.77 866.44 3485.54C868.266 3485.3 870.067 3487.42 870.458 3490.18C870.792 3493.03 869.694 3495.56 867.868 3495.79C866.121 3496.08 864.264 3494.04 863.851 3491.14Z" fill="#3F2B4F"/>
<path d="M853.997 3492.51C855.812 3490.13 856.093 3487.25 854.582 3486.06C853.071 3484.86 850.26 3485.81 848.445 3488.18C846.551 3490.5 846.27 3493.38 847.781 3494.57C849.37 3495.83 852.103 3494.82 853.997 3492.51Z" fill="#3F2B4F"/>
<path d="M855.362 3493.25C856.338 3490.39 858.511 3488.51 860.414 3489.16C862.318 3489.81 862.977 3492.53 862.08 3495.44C861.104 3498.3 858.931 3500.18 857.028 3499.53C855.124 3498.88 854.387 3496.1 855.362 3493.25Z" fill="#3F2B4F"/>
</g>
<g opacity="0.1" filter="url(#filter11_f_1_8814)">
<path d="M1190.44 4420.03C1188.02 4418.26 1189.02 4415.54 1188.19 4411.84C1186.99 4406.38 1189.52 4404.12 1191.88 4404.94C1194.32 4405.82 1194.52 4409.22 1196.72 4410.66C1198.93 4412.23 1202.27 4411.08 1203.89 4413.04C1205.5 4414.99 1204.32 4418.2 1198.84 4418.99C1195.13 4419.69 1192.99 4421.65 1190.44 4420.03Z" fill="#3F2B4F"/>
<path d="M1183.08 4417.73C1185.75 4416.76 1187.46 4414.54 1186.82 4412.8C1186.17 4411.07 1183.47 4410.47 1180.8 4411.45C1178.13 4412.42 1176.42 4414.64 1177.06 4416.37C1177.71 4418.11 1180.4 4418.7 1183.08 4417.73Z" fill="#3F2B4F"/>
<path d="M1195.22 4425.96C1195.19 4423.1 1196.55 4420.7 1198.39 4420.66C1200.23 4420.62 1201.8 4422.92 1201.9 4425.71C1201.93 4428.57 1200.56 4430.97 1198.72 4431.01C1196.96 4431.11 1195.33 4428.89 1195.22 4425.96Z" fill="#3F2B4F"/>
<path d="M1185.28 4426.27C1187.34 4424.1 1187.92 4421.27 1186.55 4419.92C1185.17 4418.56 1182.28 4419.21 1180.22 4421.38C1178.09 4423.48 1177.51 4426.31 1178.88 4427.66C1180.33 4429.08 1183.15 4428.37 1185.28 4426.27Z" fill="#3F2B4F"/>
<path d="M1186.56 4427.15C1187.83 4424.41 1190.19 4422.77 1192.02 4423.62C1193.84 4424.47 1194.21 4427.25 1193.01 4430.05C1191.73 4432.78 1189.37 4434.42 1187.55 4433.57C1185.73 4432.72 1185.29 4429.88 1186.56 4427.15Z" fill="#3F2B4F"/>
<path d="M1113.15 4372.7C1111.32 4370.32 1113.04 4367.99 1113.27 4364.2C1113.63 4358.62 1116.69 4357.16 1118.74 4358.6C1120.83 4360.12 1120.08 4363.45 1121.79 4365.44C1123.47 4367.57 1127 4367.4 1128.01 4369.72C1129.02 4372.05 1126.99 4374.8 1121.51 4374.04C1117.75 4373.67 1115.15 4374.97 1113.15 4372.7Z" fill="#3F2B4F"/>
<path d="M1106.72 4368.44C1109.55 4368.24 1111.82 4366.59 1111.68 4364.75C1111.54 4362.9 1109.12 4361.58 1106.28 4361.77C1103.44 4361.96 1101.18 4363.61 1101.32 4365.46C1101.45 4367.31 1103.88 4368.63 1106.72 4368.44Z" fill="#3F2B4F"/>
<path d="M1116.09 4379.72C1116.86 4376.96 1118.84 4375.04 1120.61 4375.51C1122.39 4375.99 1123.26 4378.63 1122.57 4381.34C1121.8 4384.1 1119.83 4386.02 1118.05 4385.55C1116.32 4385.15 1115.38 4382.56 1116.09 4379.72Z" fill="#3F2B4F"/>
<path d="M1106.46 4377.25C1109.04 4375.74 1110.39 4373.18 1109.44 4371.5C1108.5 4369.82 1105.54 4369.63 1102.96 4371.14C1100.33 4372.57 1098.98 4375.13 1099.92 4376.81C1100.92 4378.57 1103.83 4378.68 1106.46 4377.25Z" fill="#3F2B4F"/>
<path d="M1107.44 4378.45C1109.42 4376.18 1112.15 4375.26 1113.66 4376.58C1115.18 4377.91 1114.76 4380.68 1112.82 4383.03C1110.84 4385.3 1108.12 4386.22 1106.6 4384.9C1105.09 4383.57 1105.46 4380.72 1107.44 4378.45Z" fill="#3F2B4F"/>
</g>
<g opacity="0.1" filter="url(#filter12_f_1_8814)">
<path d="M738.215 1624.19C736.724 1621.59 738.747 1619.51 739.499 1615.79C740.622 1610.32 743.854 1609.28 745.683 1611C747.551 1612.79 746.346 1615.98 747.767 1618.19C749.139 1620.53 752.662 1620.85 753.34 1623.29C754.019 1625.73 751.636 1628.18 746.307 1626.67C742.635 1625.79 739.882 1626.72 738.215 1624.19Z" fill="#3F2B4F"/>
<path d="M732.426 1619.09C735.264 1619.29 737.731 1617.96 737.848 1616.12C737.965 1614.27 735.745 1612.63 732.908 1612.43C730.07 1612.23 727.603 1613.55 727.486 1615.4C727.369 1617.25 729.589 1618.89 732.426 1619.09Z" fill="#3F2B4F"/>
<path d="M740.163 1631.56C741.303 1628.93 743.523 1627.29 745.219 1628.01C746.915 1628.72 747.41 1631.46 746.358 1634.04C745.218 1636.67 742.998 1638.31 741.302 1637.59C739.645 1636.97 739.063 1634.27 740.163 1631.56Z" fill="#3F2B4F"/>
<path d="M730.959 1627.78C733.72 1626.64 735.409 1624.3 734.705 1622.5C734 1620.7 731.092 1620.11 728.331 1621.25C725.53 1622.31 723.841 1624.65 724.545 1626.45C725.289 1628.33 728.158 1628.83 730.959 1627.78Z" fill="#3F2B4F"/>
<path d="M731.768 1629.11C734.046 1627.13 736.869 1626.6 738.188 1628.11C739.507 1629.63 738.71 1632.32 736.472 1634.38C734.195 1636.36 731.371 1636.9 730.052 1635.38C728.733 1633.86 729.49 1631.09 731.768 1629.11Z" fill="#3F2B4F"/>
<path d="M682.259 1569.84C681.551 1566.92 684.072 1565.49 685.83 1562.13C688.433 1557.18 691.825 1557.09 693.105 1559.24C694.398 1561.49 692.354 1564.21 693.103 1566.74C693.77 1569.36 697.066 1570.65 697.038 1573.18C697.01 1575.71 694.04 1577.4 689.341 1574.47C686.059 1572.6 683.157 1572.73 682.259 1569.84Z" fill="#3F2B4F"/>
<path d="M678.119 1563.33C680.789 1564.31 683.527 1563.72 684.154 1561.98C684.781 1560.24 683.106 1558.04 680.436 1557.06C677.767 1556.08 675.029 1556.66 674.401 1558.41C673.774 1560.15 675.449 1562.34 678.119 1563.33Z" fill="#3F2B4F"/>
<path d="M682.08 1577.45C683.906 1575.25 686.494 1574.29 687.924 1575.45C689.354 1576.61 689.068 1579.38 687.337 1581.57C685.511 1583.77 682.922 1584.73 681.492 1583.57C680.076 1582.51 680.267 1579.75 682.08 1577.45Z" fill="#3F2B4F"/>
<path d="M674.289 1571.27C677.259 1570.94 679.535 1569.16 679.358 1567.24C679.181 1565.32 676.553 1563.94 673.583 1564.26C670.6 1564.5 668.324 1566.28 668.501 1568.2C668.691 1570.22 671.306 1571.5 674.289 1571.27Z" fill="#3F2B4F"/>
<path d="M674.698 1572.77C677.436 1571.5 680.297 1571.77 681.141 1573.6C681.985 1575.42 680.472 1577.78 677.747 1579.14C675.009 1580.41 672.148 1580.13 671.304 1578.31C670.46 1576.48 671.959 1574.03 674.698 1572.77Z" fill="#3F2B4F"/>
</g>
<g opacity="0.1" filter="url(#filter13_f_1_8814)">
<path d="M1635.29 2085.21C1632.3 2084.96 1631.74 2082.12 1629.1 2079.39C1625.23 2075.36 1626.21 2072.11 1628.66 2071.58C1631.2 2071.06 1633.14 2073.86 1635.77 2073.94C1638.47 2074.14 1640.73 2071.42 1643.13 2072.24C1645.52 2073.07 1646.19 2076.42 1641.92 2079.95C1639.11 2082.48 1638.31 2085.27 1635.29 2085.21Z" fill="#3F2B4F"/>
<path d="M1627.8 2087.08C1629.58 2084.86 1629.89 2082.08 1628.43 2080.93C1626.97 2079.79 1624.36 2080.68 1622.59 2082.91C1620.82 2085.13 1620.51 2087.91 1621.96 2089.06C1623.42 2090.2 1626.03 2089.31 1627.8 2087.08Z" fill="#3F2B4F"/>
<path d="M1642.46 2087.78C1640.94 2085.36 1640.86 2082.6 1642.41 2081.61C1643.96 2080.62 1646.49 2081.76 1648.02 2084.09C1649.54 2086.52 1649.63 2089.28 1648.08 2090.27C1646.62 2091.28 1644.07 2090.23 1642.46 2087.78Z" fill="#3F2B4F"/>
<path d="M1634.13 2093.22C1634.76 2090.3 1633.78 2087.58 1631.91 2087.14C1630.03 2086.7 1627.89 2088.76 1627.26 2091.68C1626.54 2094.59 1627.52 2097.31 1629.39 2097.75C1631.37 2098.21 1633.41 2096.13 1634.13 2093.22Z" fill="#3F2B4F"/>
<path d="M1635.68 2093.31C1635.34 2090.31 1636.51 2087.68 1638.51 2087.46C1640.5 2087.23 1642.26 2089.41 1642.69 2092.43C1643.03 2095.43 1641.87 2098.05 1639.87 2098.28C1637.87 2098.5 1636.02 2096.31 1635.68 2093.31Z" fill="#3F2B4F"/>
<path d="M1558.79 2100.46C1555.98 2099.39 1556.24 2096.5 1554.46 2093.15C1551.87 2088.2 1553.71 2085.35 1556.21 2085.52C1558.8 2085.73 1559.88 2088.96 1562.38 2089.77C1564.93 2090.71 1567.85 2088.72 1569.92 2090.18C1571.99 2091.64 1571.7 2095.05 1566.62 2097.26C1563.22 2098.9 1561.67 2101.36 1558.79 2100.46Z" fill="#3F2B4F"/>
<path d="M1551.07 2100.17C1553.4 2098.53 1554.47 2095.95 1553.39 2094.44C1552.31 2092.94 1549.55 2093.07 1547.23 2094.71C1544.91 2096.35 1543.83 2098.94 1544.91 2100.45C1546 2101.95 1548.75 2101.82 1551.07 2100.17Z" fill="#3F2B4F"/>
<path d="M1564.96 2104.93C1564.17 2102.17 1564.86 2099.5 1566.62 2098.98C1568.39 2098.46 1570.5 2100.26 1571.33 2102.93C1572.11 2105.69 1571.42 2108.36 1569.66 2108.88C1567.98 2109.44 1565.82 2107.73 1564.96 2104.93Z" fill="#3F2B4F"/>
<path d="M1555.44 2107.83C1556.86 2105.2 1556.68 2102.32 1555 2101.37C1553.32 2100.43 1550.69 2101.81 1549.27 2104.44C1547.77 2107.03 1547.95 2109.92 1549.63 2110.86C1551.4 2111.85 1553.94 2110.42 1555.44 2107.83Z" fill="#3F2B4F"/>
<path d="M1556.91 2108.35C1557.42 2105.37 1559.27 2103.17 1561.25 2103.51C1563.23 2103.85 1564.31 2106.44 1563.89 2109.45C1563.38 2112.43 1561.53 2114.63 1559.55 2114.29C1557.57 2113.95 1556.4 2111.32 1556.91 2108.35Z" fill="#3F2B4F"/>
</g>
<g opacity="0.1" filter="url(#filter14_f_1_8814)">
<path d="M602.497 2594.26C600.131 2596.1 597.791 2594.39 594.001 2594.17C588.424 2593.84 586.942 2590.78 588.377 2588.73C589.894 2586.63 593.217 2587.37 595.206 2585.65C597.328 2583.96 597.14 2580.43 599.461 2579.41C601.781 2578.39 604.542 2580.41 603.806 2585.89C603.455 2589.65 604.76 2592.25 602.497 2594.26Z" fill="#3F2B4F"/>
<path d="M598.265 2600.71C598.061 2597.87 596.401 2595.62 594.553 2595.76C592.706 2595.91 591.396 2598.34 591.6 2601.17C591.804 2604.01 593.464 2606.27 595.311 2606.12C597.159 2605.97 598.469 2603.55 598.265 2600.71Z" fill="#3F2B4F"/>
<path d="M609.511 2591.29C606.749 2590.53 604.815 2588.56 605.282 2586.78C605.749 2585 608.388 2584.13 611.098 2584.8C613.861 2585.56 615.794 2587.52 615.327 2589.3C614.941 2591.03 612.354 2591.99 609.511 2591.29Z" fill="#3F2B4F"/>
<path d="M607.078 2600.93C605.559 2598.36 602.997 2597.02 601.319 2597.97C599.641 2598.92 599.468 2601.88 600.987 2604.46C602.425 2607.08 604.987 2608.42 606.665 2607.47C608.425 2606.47 608.516 2603.56 607.078 2600.93Z" fill="#3F2B4F"/>
<path d="M608.276 2599.94C605.995 2597.97 605.067 2595.25 606.383 2593.73C607.7 2592.21 610.47 2592.62 612.832 2594.54C615.113 2596.51 616.041 2599.23 614.725 2600.75C613.408 2602.27 610.557 2601.92 608.276 2599.94Z" fill="#3F2B4F"/>
<path d="M556.608 2657.34C553.822 2658.45 552.05 2656.16 548.471 2654.9C543.208 2653.02 542.635 2649.67 544.585 2648.1C546.627 2646.5 549.613 2648.14 552.002 2647.04C554.51 2646.01 555.312 2642.57 557.824 2642.24C560.337 2641.91 562.428 2644.61 560.193 2649.67C558.809 2653.19 559.34 2656.04 556.608 2657.34Z" fill="#3F2B4F"/>
<path d="M550.747 2662.36C551.341 2659.58 550.374 2656.95 548.559 2656.58C546.745 2656.2 544.81 2658.17 544.216 2660.95C543.622 2663.73 544.589 2666.36 546.404 2666.74C548.218 2667.11 550.153 2665.14 550.747 2662.36Z" fill="#3F2B4F"/>
<path d="M564.171 2656.44C561.729 2654.94 560.419 2652.52 561.363 2650.94C562.308 2649.36 565.086 2649.25 567.501 2650.65C569.944 2652.15 571.253 2654.58 570.309 2656.16C569.457 2657.71 566.706 2657.91 564.171 2656.44Z" fill="#3F2B4F"/>
<path d="M559.15 2665.03C558.407 2662.13 556.319 2660.13 554.442 2660.58C552.566 2661.03 551.575 2663.82 552.318 2666.72C552.969 2669.64 555.057 2671.64 556.933 2671.19C558.902 2670.72 559.8 2667.95 559.15 2665.03Z" fill="#3F2B4F"/>
<path d="M560.576 2664.41C558.935 2661.88 558.801 2659.01 560.488 2657.91C562.176 2656.82 564.723 2657.99 566.456 2660.49C568.097 2663.02 568.231 2665.89 566.544 2666.99C564.856 2668.08 562.217 2666.94 560.576 2664.41Z" fill="#3F2B4F"/>
</g>
<g opacity="0.1" filter="url(#filter15_f_1_8814)">
<path d="M1438.88 3615.51C1436.28 3614.02 1436.97 3611.21 1435.72 3607.62C1433.91 3602.34 1436.17 3599.8 1438.62 3600.35C1441.14 3600.95 1441.72 3604.31 1444.07 3605.49C1446.44 3606.81 1449.63 3605.29 1451.45 3607.05C1453.28 3608.81 1452.47 3612.13 1447.11 3613.54C1443.5 3614.64 1441.6 3616.84 1438.88 3615.51Z" fill="#3F2B4F"/>
<path d="M1431.3 3614.05C1433.85 3612.78 1435.3 3610.39 1434.47 3608.74C1433.63 3607.09 1430.88 3606.8 1428.34 3608.07C1425.79 3609.34 1424.34 3611.73 1425.18 3613.38C1426.01 3615.04 1428.76 3615.32 1431.3 3614.05Z" fill="#3F2B4F"/>
<path d="M1444.3 3620.86C1443.95 3618.02 1445.03 3615.49 1446.85 3615.24C1448.68 3614.99 1450.49 3617.1 1450.9 3619.86C1451.25 3622.71 1450.17 3625.24 1448.35 3625.49C1446.6 3625.79 1444.73 3623.76 1444.3 3620.86Z" fill="#3F2B4F"/>
<path d="M1434.45 3622.29C1436.25 3619.9 1436.52 3617.02 1435 3615.83C1433.48 3614.65 1430.68 3615.61 1428.88 3618C1427 3620.33 1426.73 3623.21 1428.25 3624.39C1429.85 3625.64 1432.58 3624.62 1434.45 3622.29Z" fill="#3F2B4F"/>
<path d="M1435.82 3623.02C1436.78 3620.16 1438.94 3618.26 1440.85 3618.9C1442.76 3619.54 1443.43 3622.26 1442.56 3625.17C1441.6 3628.04 1439.44 3629.93 1437.53 3629.29C1435.62 3628.65 1434.87 3625.88 1435.82 3623.02Z" fill="#3F2B4F"/>
<path d="M1363.08 3597.09C1360.99 3594.94 1362.43 3592.43 1362.24 3588.64C1361.97 3583.06 1364.85 3581.25 1367.04 3582.46C1369.3 3583.74 1368.92 3587.12 1370.85 3588.91C1372.76 3590.84 1376.25 3590.27 1377.51 3592.47C1378.77 3594.67 1377.07 3597.63 1371.53 3597.49C1367.76 3597.55 1365.32 3599.13 1363.08 3597.09Z" fill="#3F2B4F"/>
<path d="M1356.21 3593.59C1359 3593.08 1361.07 3591.18 1360.72 3589.36C1360.38 3587.54 1357.82 3586.5 1355.02 3587.01C1352.22 3587.52 1350.16 3589.41 1350.51 3591.24C1350.85 3593.06 1353.41 3594.1 1356.21 3593.59Z" fill="#3F2B4F"/>
<path d="M1366.79 3603.75C1367.24 3600.92 1368.99 3598.78 1370.81 3599.05C1372.63 3599.33 1373.79 3601.85 1373.41 3604.62C1372.96 3607.45 1371.21 3609.58 1369.39 3609.31C1367.63 3609.12 1366.4 3606.65 1366.79 3603.75Z" fill="#3F2B4F"/>
<path d="M1356.94 3602.37C1359.33 3600.58 1360.39 3597.89 1359.26 3596.32C1358.13 3594.76 1355.17 3594.91 1352.77 3596.7C1350.32 3598.41 1349.27 3601.1 1350.39 3602.67C1351.58 3604.31 1354.48 3604.08 1356.94 3602.37Z" fill="#3F2B4F"/>
<path d="M1358.05 3603.45C1359.77 3600.97 1362.37 3599.76 1364.02 3600.9C1365.68 3602.05 1365.57 3604.84 1363.92 3607.4C1362.2 3609.88 1359.6 3611.1 1357.94 3609.95C1356.29 3608.81 1356.33 3605.94 1358.05 3603.45Z" fill="#3F2B4F"/>
</g>
<g opacity="0.1" filter="url(#filter16_f_1_8814)">
<path d="M1011.69 4501.02C1010.38 4498.32 1012.54 4496.39 1013.54 4492.73C1015.04 4487.34 1018.33 4486.53 1020.04 4488.36C1021.78 4490.29 1020.36 4493.38 1021.63 4495.69C1022.84 4498.11 1026.33 4498.67 1026.84 4501.15C1027.35 4503.63 1024.81 4505.91 1019.6 4504.04C1015.99 4502.92 1013.18 4503.65 1011.69 4501.02Z" fill="#3F2B4F"/>
<path d="M1006.26 4495.53C1009.08 4495.93 1011.63 4494.77 1011.88 4492.94C1012.12 4491.1 1010.02 4489.31 1007.2 4488.92C1004.38 4488.53 1001.83 4489.68 1001.59 4491.52C1001.34 4493.35 1003.45 4495.14 1006.26 4495.53Z" fill="#3F2B4F"/>
<path d="M1013.13 4508.5C1014.45 4505.96 1016.78 4504.47 1018.42 4505.3C1020.06 4506.13 1020.37 4508.89 1019.14 4511.4C1017.83 4513.95 1015.5 4515.43 1013.86 4514.6C1012.25 4513.86 1011.85 4511.13 1013.13 4508.5Z" fill="#3F2B4F"/>
<path d="M1004.21 4504.11C1007.04 4503.16 1008.88 4500.93 1008.3 4499.09C1007.72 4497.25 1004.86 4496.47 1002.03 4497.41C999.164 4498.27 997.319 4500.5 997.899 4502.34C998.513 4504.27 1001.34 4504.97 1004.21 4504.11Z" fill="#3F2B4F"/>
<path d="M1004.92 4505.49C1007.33 4503.67 1010.18 4503.33 1011.4 4504.93C1012.61 4506.54 1011.63 4509.16 1009.26 4511.07C1006.85 4512.89 1004 4513.23 1002.78 4511.62C1001.57 4510.02 1002.52 4507.3 1004.92 4505.49Z" fill="#3F2B4F"/>
<path d="M959.57 4442.98C959.063 4440.02 961.675 4438.77 963.658 4435.53C966.592 4430.78 969.983 4430.91 971.113 4433.15C972.25 4435.48 970.025 4438.06 970.6 4440.62C971.086 4443.29 974.288 4444.79 974.087 4447.32C973.886 4449.85 970.808 4451.33 966.32 4448.08C963.172 4446 960.269 4445.92 959.57 4442.98Z" fill="#3F2B4F"/>
<path d="M955.884 4436.2C958.48 4437.36 961.252 4436.96 961.997 4435.27C962.741 4433.57 961.22 4431.27 958.623 4430.11C956.026 4428.94 953.255 4429.34 952.51 4431.04C951.766 4432.74 953.287 4435.04 955.884 4436.2Z" fill="#3F2B4F"/>
<path d="M958.872 4450.56C960.845 4448.49 963.492 4447.71 964.84 4448.97C966.188 4450.22 965.713 4452.96 963.837 4455.03C961.865 4457.1 959.217 4457.88 957.87 4456.63C956.529 4455.47 956.907 4452.74 958.872 4450.56Z" fill="#3F2B4F"/>
<path d="M951.522 4443.86C954.507 4443.74 956.898 4442.11 956.853 4440.18C956.808 4438.26 954.279 4436.7 951.294 4436.83C948.302 4436.85 945.91 4438.48 945.955 4440.41C946.008 4442.43 948.53 4443.89 951.522 4443.86Z" fill="#3F2B4F"/>
<path d="M951.827 4445.38C954.645 4444.31 957.481 4444.77 958.198 4446.65C958.916 4448.53 957.246 4450.78 954.435 4451.95C951.616 4453.03 948.781 4452.56 948.063 4450.68C947.346 4448.8 949.008 4446.46 951.827 4445.38Z" fill="#3F2B4F"/>
</g>
<g opacity="0.1" filter="url(#filter17_f_1_8814)">
<path d="M1042.6 6918.57C1039.61 6918.77 1038.63 6916.04 1035.61 6913.73C1031.19 6910.32 1031.67 6906.97 1034.01 6906.07C1036.45 6905.18 1038.78 6907.66 1041.4 6907.36C1044.1 6907.15 1045.93 6904.12 1048.42 6904.58C1050.91 6905.04 1052.07 6908.26 1048.38 6912.38C1045.97 6915.3 1045.6 6918.18 1042.6 6918.57Z" fill="#3F2B4F"/>
<path d="M1035.48 6921.54C1036.9 6919.07 1036.79 6916.28 1035.18 6915.36C1033.57 6914.44 1031.12 6915.72 1029.7 6918.18C1028.27 6920.64 1028.38 6923.44 1029.99 6924.36C1031.6 6925.27 1034.05 6924 1035.48 6921.54Z" fill="#3F2B4F"/>
<path d="M1050.07 6920.05C1048.21 6917.87 1047.71 6915.16 1049.1 6913.95C1050.48 6912.74 1053.16 6913.49 1055.03 6915.57C1056.89 6917.75 1057.38 6920.46 1056 6921.67C1054.71 6922.89 1052.03 6922.23 1050.07 6920.05Z" fill="#3F2B4F"/>
<path d="M1042.65 6926.67C1042.83 6923.68 1041.46 6921.14 1039.54 6920.98C1037.62 6920.83 1035.81 6923.18 1035.63 6926.17C1035.34 6929.14 1036.71 6931.69 1038.63 6931.85C1040.65 6932 1042.36 6929.65 1042.65 6926.67Z" fill="#3F2B4F"/>
<path d="M1044.19 6926.52C1043.41 6923.61 1044.17 6920.83 1046.11 6920.31C1048.06 6919.79 1050.12 6921.69 1050.99 6924.6C1051.77 6927.52 1051.02 6930.29 1049.07 6930.81C1047.13 6931.33 1044.97 6929.43 1044.19 6926.52Z" fill="#3F2B4F"/>
<path d="M952.951 6931.9C950.02 6931.26 949.84 6928.36 947.588 6925.31C944.285 6920.8 945.687 6917.71 948.183 6917.5C950.771 6917.33 952.323 6920.36 954.916 6920.79C957.572 6921.35 960.169 6918.94 962.434 6920.08C964.699 6921.22 964.914 6924.63 960.22 6927.56C957.103 6929.7 955.94 6932.36 952.951 6931.9Z" fill="#3F2B4F"/>
<path d="M945.282 6932.76C947.335 6930.79 948.01 6928.08 946.718 6926.75C945.426 6925.42 942.72 6925.96 940.667 6927.93C938.614 6929.9 937.94 6932.62 939.232 6933.95C940.524 6935.28 943.23 6934.73 945.282 6932.76Z" fill="#3F2B4F"/>
<path d="M959.716 6935.4C958.533 6932.79 958.812 6930.04 960.48 6929.27C962.148 6928.49 964.507 6929.96 965.719 6932.48C966.902 6935.09 966.623 6937.83 964.955 6938.61C963.379 6939.41 960.99 6938.04 959.716 6935.4Z" fill="#3F2B4F"/>
<path d="M950.74 6939.69C951.749 6936.88 951.144 6934.05 949.34 6933.36C947.536 6932.68 945.146 6934.44 944.137 6937.25C943.037 6940.03 943.643 6942.86 945.446 6943.55C947.342 6944.26 949.64 6942.47 950.74 6939.69Z" fill="#3F2B4F"/>
<path d="M952.266 6939.98C952.329 6936.96 953.829 6934.51 955.84 6934.55C957.851 6934.59 959.305 6936.99 959.334 6940.03C959.271 6943.05 957.772 6945.5 955.761 6945.46C953.75 6945.42 952.204 6942.99 952.266 6939.98Z" fill="#3F2B4F"/>
</g>
<g opacity="0.1" filter="url(#filter18_f_1_8814)">
<path d="M996.647 7054.97C993.712 7054.34 993.514 7051.45 991.242 7048.41C987.912 7043.93 989.295 7040.83 991.789 7040.6C994.376 7040.41 995.947 7043.43 998.543 7043.85C1001.2 7044.39 1003.78 7041.97 1006.06 7043.09C1008.33 7044.21 1008.56 7047.62 1003.89 7050.59C1000.78 7052.74 999.639 7055.41 996.647 7054.97Z" fill="#3F2B4F"/>
<path d="M988.984 7055.88C991.025 7053.9 991.682 7051.18 990.382 7049.86C989.082 7048.54 986.379 7049.1 984.339 7051.08C982.299 7053.06 981.641 7055.78 982.941 7057.1C984.242 7058.42 986.944 7057.86 988.984 7055.88Z" fill="#3F2B4F"/>
<path d="M1003.43 7058.42C1002.24 7055.82 1002.5 7053.08 1004.16 7052.29C1005.82 7051.5 1008.19 7052.96 1009.42 7055.47C1010.62 7058.07 1010.36 7060.81 1008.69 7061.6C1007.12 7062.42 1004.72 7061.05 1003.43 7058.42Z" fill="#3F2B4F"/>
<path d="M994.485 7062.77C995.477 7059.95 994.853 7057.13 993.045 7056.46C991.237 7055.78 988.859 7057.56 987.867 7060.38C986.784 7063.17 987.407 7065.99 989.215 7066.66C991.115 7067.36 993.402 7065.56 994.485 7062.77Z" fill="#3F2B4F"/>
<path d="M996.013 7063.05C996.057 7060.03 997.541 7057.57 999.552 7057.6C1001.56 7057.63 1003.03 7060.02 1003.08 7063.06C1003.04 7066.08 1001.55 7068.54 999.542 7068.51C997.53 7068.48 995.969 7066.07 996.013 7063.05Z" fill="#3F2B4F"/>
<path d="M918.83 7060.44C916.185 7059.02 916.8 7056.19 915.464 7052.64C913.515 7047.4 915.706 7044.81 918.163 7045.29C920.701 7045.83 921.369 7049.17 923.747 7050.29C926.151 7051.54 929.303 7049.94 931.173 7051.65C933.043 7053.36 932.322 7056.7 927.005 7058.25C923.425 7059.45 921.581 7061.69 918.83 7060.44Z" fill="#3F2B4F"/>
<path d="M911.216 7059.18C913.727 7057.85 915.117 7055.42 914.235 7053.79C913.354 7052.16 910.602 7051.94 908.091 7053.28C905.579 7054.61 904.19 7057.04 905.071 7058.67C905.953 7060.3 908.704 7060.52 911.216 7059.18Z" fill="#3F2B4F"/>
<path d="M924.386 7065.65C923.959 7062.82 924.974 7060.25 926.791 7059.96C928.608 7059.66 930.478 7061.72 930.958 7064.47C931.385 7067.31 930.37 7069.87 928.553 7070.16C926.817 7070.51 924.893 7068.53 924.386 7065.65Z" fill="#3F2B4F"/>
<path d="M914.582 7067.33C916.318 7064.9 916.506 7062.02 914.956 7060.87C913.407 7059.72 910.628 7060.76 908.892 7063.19C907.075 7065.57 906.888 7068.45 908.437 7069.6C910.066 7070.8 912.765 7069.71 914.582 7067.33Z" fill="#3F2B4F"/>
<path d="M915.971 7068.03C916.853 7065.14 918.964 7063.19 920.887 7063.78C922.811 7064.37 923.558 7067.07 922.757 7070C921.875 7072.89 919.764 7074.84 917.84 7074.25C915.917 7073.66 915.089 7070.91 915.971 7068.03Z" fill="#3F2B4F"/>
</g>
<circle opacity="0.1" cx="426" cy="2966" r="49" fill="#91F082"/>
<circle opacity="0.06" cx="1216.5" cy="3279.5" r="37.5" fill="#91F082"/>
<circle opacity="0.06" cx="1501.5" cy="3342.5" r="58.5" fill="#91F082"/>
<circle opacity="0.06" cx="692.5" cy="3360.5" r="24.5" fill="#F8A35B"/>
<circle opacity="0.06" cx="674.5" cy="3371.5" r="22.5" fill="#F8A35B"/>
<g opacity="0.15" filter="url(#filter19_f_1_8814)">
<circle cx="1527" cy="7195" r="123" fill="#F8A35B"/>
</g>
<g opacity="0.2" filter="url(#filter20_f_1_8814)">
<path d="M488.91 896.872C485.789 895.361 486.365 892.063 484.655 888.023C482.157 882.07 484.564 878.974 487.424 879.414C490.38 879.911 491.308 883.735 494.107 884.918C496.942 886.255 500.506 884.255 502.746 886.141C504.986 888.027 504.31 891.917 498.245 893.957C494.168 895.514 492.146 898.192 488.91 896.872Z" fill="#3F2B4F"/>
<path d="M480.06 895.78C482.896 894.12 484.385 891.247 483.291 889.407C482.196 887.567 479.009 887.45 476.172 889.111C473.336 890.771 471.846 893.644 472.941 895.484C474.036 897.324 477.223 897.441 480.06 895.78Z" fill="#3F2B4F"/>
<path d="M495.571 902.624C494.944 899.374 495.995 896.365 498.079 895.94C500.163 895.515 502.419 897.802 503.104 900.957C503.731 904.206 502.68 907.215 500.596 907.64C498.607 908.123 496.293 905.931 495.571 902.624Z" fill="#3F2B4F"/>
<path d="M484.33 905.03C486.221 902.141 486.301 898.801 484.457 897.547C482.614 896.294 479.455 897.628 477.565 900.517C475.58 903.348 475.5 906.688 477.343 907.941C479.281 909.252 482.345 907.861 484.33 905.03Z" fill="#3F2B4F"/>
<path d="M485.968 905.766C486.849 902.393 489.194 900.042 491.443 900.63C493.691 901.218 494.682 904.298 493.896 907.729C493.014 911.102 490.669 913.453 488.42 912.865C486.172 912.277 485.086 909.139 485.968 905.766Z" fill="#3F2B4F"/>
<path d="M426.398 870.647C423.821 868.328 425.292 865.32 424.775 860.964C424.032 854.55 427.206 852.247 429.831 853.465C432.531 854.766 432.359 858.697 434.717 860.613C437.068 862.686 441.048 861.758 442.674 864.193C444.3 866.628 442.569 870.175 436.175 870.446C431.826 870.806 429.138 872.815 426.398 870.647Z" fill="#3F2B4F"/>
<path d="M418.201 867.135C421.387 866.33 423.618 863.986 423.078 861.914C422.539 859.842 419.511 858.842 416.324 859.647C413.137 860.453 410.907 862.797 411.446 864.869C411.985 866.941 415.014 867.941 418.201 867.135Z" fill="#3F2B4F"/>
<path d="M431.194 878.026C431.496 874.731 433.344 872.133 435.463 872.305C437.583 872.477 439.113 875.302 438.893 878.522C438.591 881.818 436.743 884.415 434.624 884.243C432.579 884.154 430.967 881.404 431.194 878.026Z" fill="#3F2B4F"/>
<path d="M419.728 877.208C422.348 874.96 423.354 871.774 421.933 870.057C420.512 868.34 417.106 868.742 414.487 870.99C411.792 873.156 410.785 876.342 412.206 878.059C413.703 879.858 417.033 879.374 419.728 877.208Z" fill="#3F2B4F"/>
<path d="M421.095 878.371C422.881 875.377 425.788 873.771 427.784 874.962C429.78 876.153 429.874 879.387 428.163 882.463C426.377 885.457 423.471 887.063 421.474 885.872C419.478 884.681 419.309 881.365 421.095 878.371Z" fill="#3F2B4F"/>
</g>
<path d="M240 834.802C240 834.802 459.411 803 600 803C740.589 803 960 836.854 960 836.854C960 836.854 1179.41 864.552 1320 864.552C1460.59 864.552 1680 833.776 1680 833.776V1826C1680 1826 1460.59 1826 1320 1826C1179.41 1826 960 1826 960 1826C960 1826 740.589 1826 600 1826C459.411 1826 240 1826 240 1826V834.802Z" fill="url(#paint0_linear_1_8814)"/>
<g opacity="0.15" filter="url(#filter21_f_1_8814)">
<circle cx="514.5" cy="267.5" r="122.5" fill="#F8A35B"/>
</g>
<circle cx="1022" cy="261" r="13" stroke="#91F082" stroke-width="4"/>
<circle opacity="0.2" cx="1247" cy="183" r="25" fill="#91F082"/>
<circle cx="1650" cy="196" r="14" fill="#91F082"/>
<circle cx="334" cy="607" r="14" fill="#91F082"/>
<circle cx="348" cy="631" r="7" fill="#91F082"/>
<circle cx="312.5" cy="624.5" r="3.5" fill="#91F082"/>
<g opacity="0.32" filter="url(#filter22_f_1_8814)">
<circle cx="1511.5" cy="530.5" r="15.5" fill="#91F082"/>
</g>
<g opacity="0.15" filter="url(#filter23_f_1_8814)">
<ellipse cx="385.5" cy="335" rx="65.5" ry="65" fill="#F8A35B"/>
</g>
<circle cx="237.5" cy="205.5" r="33.5" stroke="#91F082" stroke-width="8"/>
<circle cx="1674.5" cy="1791.5" r="39.5" stroke="#91F082" stroke-width="8"/>
<circle cx="1673.5" cy="682.5" r="33.5" stroke="#91F082" stroke-width="8"/>
<rect x="240" width="1" height="1" fill="#C4C4C4"/>
<circle opacity="0.1" r="66.5" transform="matrix(-1 0 0 1 869.5 4936.5)" stroke="#F8A35B" stroke-width="10"/>
<circle opacity="0.1" r="27.5" transform="matrix(-1 0 0 1 593.5 4846.5)" fill="#F8A35B"/>
<circle opacity="0.1" r="56.5" transform="matrix(-1 0 0 1 1397.5 5658.5)" fill="#91F082"/>
<circle opacity="0.1" r="29.5" transform="matrix(-1 0 0 1 1347.5 5688.5)" fill="#91F082"/>
<g opacity="0.1" filter="url(#filter24_f_1_8814)">
<path d="M1172.12 4710C1170.35 4712.42 1167.63 4711.41 1163.92 4712.23C1158.46 4713.43 1156.21 4710.89 1157.03 4708.53C1157.91 4706.09 1161.31 4705.9 1162.76 4703.7C1164.34 4701.5 1163.2 4698.15 1165.15 4696.54C1167.11 4694.93 1170.31 4696.12 1171.1 4701.6C1171.79 4705.31 1173.75 4707.45 1172.12 4710Z" fill="#3F2B4F"/>
<path d="M1169.8 4717.36C1168.84 4714.69 1166.62 4712.97 1164.89 4713.61C1163.15 4714.26 1162.55 4716.95 1163.52 4719.62C1164.49 4722.3 1166.7 4724.02 1168.44 4723.37C1170.17 4722.73 1170.77 4720.03 1169.8 4717.36Z" fill="#3F2B4F"/>
<path d="M1178.06 4705.23C1175.2 4705.25 1172.8 4703.89 1172.76 4702.05C1172.73 4700.21 1175.03 4698.65 1177.82 4698.56C1180.68 4698.53 1183.08 4699.9 1183.12 4701.74C1183.21 4703.51 1180.99 4705.13 1178.06 4705.23Z" fill="#3F2B4F"/>
<path d="M1178.35 4715.17C1176.18 4713.11 1173.35 4712.52 1172 4713.89C1170.64 4715.27 1171.28 4718.16 1173.45 4720.22C1175.54 4722.36 1178.37 4722.95 1179.73 4721.58C1181.15 4720.13 1180.44 4717.31 1178.35 4715.17Z" fill="#3F2B4F"/>
<path d="M1179.23 4713.9C1176.5 4712.62 1174.86 4710.25 1175.71 4708.43C1176.57 4706.61 1179.34 4706.25 1182.14 4707.46C1184.87 4708.73 1186.51 4711.1 1185.65 4712.92C1184.8 4714.74 1181.96 4715.17 1179.23 4713.9Z" fill="#3F2B4F"/>
<path d="M1124.63 4787.2C1122.25 4789.03 1119.92 4787.3 1116.13 4787.06C1110.56 4786.69 1109.1 4783.63 1110.54 4781.58C1112.07 4779.49 1115.39 4780.25 1117.39 4778.54C1119.53 4776.87 1119.36 4773.33 1121.69 4772.33C1124.01 4771.33 1126.76 4773.36 1125.99 4778.84C1125.62 4782.6 1126.91 4785.2 1124.63 4787.2Z" fill="#3F2B4F"/>
<path d="M1120.36 4793.62C1120.17 4790.78 1118.53 4788.52 1116.68 4788.65C1114.83 4788.79 1113.5 4791.21 1113.69 4794.05C1113.88 4796.89 1115.52 4799.15 1117.37 4799.02C1119.22 4798.88 1120.54 4796.46 1120.36 4793.62Z" fill="#3F2B4F"/>
<path d="M1131.66 4784.27C1128.9 4783.5 1126.98 4781.52 1127.46 4779.74C1127.94 4777.96 1130.58 4777.1 1133.29 4777.79C1136.05 4778.57 1137.97 4780.55 1137.49 4782.32C1137.09 4784.05 1134.5 4784.99 1131.66 4784.27Z" fill="#3F2B4F"/>
<path d="M1129.17 4793.9C1127.67 4791.32 1125.11 4789.96 1123.43 4790.9C1121.74 4791.84 1121.55 4794.81 1123.06 4797.39C1124.48 4800.02 1127.03 4801.38 1128.72 4800.43C1130.48 4799.44 1130.59 4796.53 1129.17 4793.9Z" fill="#3F2B4F"/>
<path d="M1130.37 4792.92C1128.1 4790.93 1127.19 4788.2 1128.52 4786.69C1129.85 4785.18 1132.61 4785.61 1134.96 4787.54C1137.23 4789.53 1138.14 4792.26 1136.82 4793.77C1135.49 4795.28 1132.64 4794.91 1130.37 4792.92Z" fill="#3F2B4F"/>
</g>
<g opacity="0.1" filter="url(#filter25_f_1_8814)">
<path d="M971.69 5452.76C969.749 5450.47 971.358 5448.06 971.418 5444.26C971.523 5438.68 974.511 5437.07 976.621 5438.42C978.787 5439.85 978.184 5443.2 979.985 5445.11C981.762 5447.16 985.282 5446.83 986.396 5449.1C987.509 5451.38 985.614 5454.22 980.099 5453.71C976.328 5453.52 973.79 5454.93 971.69 5452.76Z" fill="#3F2B4F"/>
<path d="M965.067 5448.8C967.893 5448.47 970.076 5446.72 969.854 5444.88C969.631 5443.04 967.149 5441.84 964.323 5442.16C961.497 5442.48 959.313 5444.23 959.536 5446.07C959.759 5447.91 962.241 5449.12 965.067 5448.8Z" fill="#3F2B4F"/>
<path d="M974.951 5459.64C975.591 5456.85 977.476 5454.83 979.274 5455.23C981.072 5455.62 982.058 5458.22 981.497 5460.96C980.856 5463.75 978.972 5465.76 977.174 5465.37C975.431 5465.06 974.366 5462.51 974.951 5459.64Z" fill="#3F2B4F"/>
<path d="M965.212 5457.61C967.719 5455.99 968.95 5453.37 967.93 5451.73C966.909 5450.1 963.942 5450.05 961.436 5451.67C958.874 5453.22 957.642 5455.84 958.663 5457.47C959.738 5459.19 962.65 5459.16 965.212 5457.61Z" fill="#3F2B4F"/>
<path d="M966.25 5458.77C968.128 5456.41 970.807 5455.37 972.381 5456.62C973.955 5457.87 973.662 5460.65 971.839 5463.09C969.961 5465.46 967.283 5466.5 965.708 5465.24C964.134 5463.99 964.372 5461.13 966.25 5458.77Z" fill="#3F2B4F"/>
<path d="M907.616 5388.66C906.387 5385.92 908.604 5384.05 909.718 5380.42C911.374 5375.09 914.692 5374.37 916.343 5376.26C918.026 5378.23 916.514 5381.28 917.71 5383.62C918.846 5386.09 922.321 5386.74 922.757 5389.24C923.192 5391.74 920.581 5393.94 915.425 5391.92C911.857 5390.68 909.026 5391.33 907.616 5388.66Z" fill="#3F2B4F"/>
<path d="M902.355 5383.01C905.16 5383.49 907.745 5382.41 908.043 5380.58C908.341 5378.75 906.293 5376.9 903.489 5376.42C900.685 5375.95 898.1 5377.02 897.802 5378.85C897.504 5380.68 899.551 5382.53 902.355 5383.01Z" fill="#3F2B4F"/>
<path d="M908.831 5396.17C910.223 5393.67 912.594 5392.26 914.211 5393.14C915.829 5394.02 916.052 5396.79 914.751 5399.26C913.359 5401.76 910.989 5403.17 909.371 5402.29C907.784 5401.51 907.47 5398.77 908.831 5396.17Z" fill="#3F2B4F"/>
<path d="M900.041 5391.52C902.902 5390.65 904.813 5388.48 904.288 5386.63C903.764 5384.77 900.928 5383.9 898.067 5384.76C895.176 5385.53 893.265 5387.7 893.79 5389.56C894.345 5391.51 897.15 5392.29 900.041 5391.52Z" fill="#3F2B4F"/>
<path d="M900.717 5392.91C903.178 5391.17 906.04 5390.92 907.203 5392.56C908.367 5394.2 907.31 5396.79 904.88 5398.63C902.419 5400.37 899.557 5400.63 898.393 5398.98C897.23 5397.34 898.256 5394.66 900.717 5392.91Z" fill="#3F2B4F"/>
</g>
<g opacity="0.1" filter="url(#filter26_f_1_8814)">
<path d="M1363.5 4771.26C1361.13 4773.1 1358.79 4771.39 1355 4771.17C1349.42 4770.84 1347.94 4767.78 1349.38 4765.73C1350.89 4763.63 1354.22 4764.37 1356.21 4762.65C1358.33 4760.96 1358.14 4757.43 1360.46 4756.41C1362.78 4755.39 1365.54 4757.41 1364.81 4762.89C1364.45 4766.65 1365.76 4769.25 1363.5 4771.26Z" fill="#3F2B4F"/>
<path d="M1359.26 4777.71C1359.06 4774.87 1357.4 4772.62 1355.55 4772.76C1353.71 4772.91 1352.4 4775.34 1352.6 4778.17C1352.8 4781.01 1354.46 4783.27 1356.31 4783.12C1358.16 4782.97 1359.47 4780.55 1359.26 4777.71Z" fill="#3F2B4F"/>
<path d="M1370.51 4768.29C1367.75 4767.53 1365.81 4765.56 1366.28 4763.78C1366.75 4762 1369.39 4761.13 1372.1 4761.8C1374.86 4762.56 1376.79 4764.52 1376.33 4766.3C1375.94 4768.03 1373.35 4768.99 1370.51 4768.29Z" fill="#3F2B4F"/>
<path d="M1368.08 4777.93C1366.56 4775.36 1364 4774.02 1362.32 4774.97C1360.64 4775.92 1360.47 4778.88 1361.99 4781.46C1363.43 4784.08 1365.99 4785.42 1367.67 4784.47C1369.42 4783.47 1369.52 4780.55 1368.08 4777.93Z" fill="#3F2B4F"/>
<path d="M1369.28 4776.94C1367 4774.97 1366.07 4772.25 1367.38 4770.73C1368.7 4769.21 1371.47 4769.62 1373.83 4771.54C1376.11 4773.51 1377.04 4776.23 1375.72 4777.75C1374.41 4779.27 1371.56 4778.92 1369.28 4776.94Z" fill="#3F2B4F"/>
<path d="M1317.61 4834.34C1314.82 4835.45 1313.05 4833.16 1309.47 4831.9C1304.21 4830.02 1303.63 4826.67 1305.58 4825.1C1307.63 4823.5 1310.61 4825.14 1313 4824.04C1315.51 4823.01 1316.31 4819.57 1318.82 4819.24C1321.34 4818.91 1323.43 4821.61 1321.19 4826.67C1319.81 4830.19 1320.34 4833.04 1317.61 4834.34Z" fill="#3F2B4F"/>
<path d="M1311.75 4839.36C1312.34 4836.58 1311.37 4833.95 1309.56 4833.58C1307.74 4833.2 1305.81 4835.17 1305.22 4837.95C1304.62 4840.73 1305.59 4843.36 1307.4 4843.74C1309.22 4844.11 1311.15 4842.14 1311.75 4839.36Z" fill="#3F2B4F"/>
<path d="M1325.17 4833.44C1322.73 4831.94 1321.42 4829.52 1322.36 4827.94C1323.31 4826.36 1326.09 4826.25 1328.5 4827.65C1330.94 4829.15 1332.25 4831.58 1331.31 4833.16C1330.46 4834.71 1327.71 4834.91 1325.17 4833.44Z" fill="#3F2B4F"/>
<path d="M1320.15 4842.03C1319.41 4839.13 1317.32 4837.13 1315.44 4837.58C1313.57 4838.03 1312.58 4840.82 1313.32 4843.72C1313.97 4846.64 1316.06 4848.64 1317.93 4848.19C1319.9 4847.72 1320.8 4844.95 1320.15 4842.03Z" fill="#3F2B4F"/>
<path d="M1321.58 4841.41C1319.93 4838.88 1319.8 4836.01 1321.49 4834.91C1323.18 4833.82 1325.72 4834.98 1327.46 4837.49C1329.1 4840.02 1329.23 4842.89 1327.54 4843.99C1325.86 4845.08 1323.22 4843.94 1321.58 4841.41Z" fill="#3F2B4F"/>
</g>
<g opacity="0.1" filter="url(#filter27_f_1_8814)">
<path d="M823.024 5542.7C821.778 5539.97 823.984 5538.09 825.075 5534.46C826.697 5529.11 830.011 5528.38 831.674 5530.25C833.369 5532.21 831.876 5535.27 833.087 5537.61C834.238 5540.06 837.717 5540.7 838.168 5543.19C838.619 5545.69 836.022 5547.91 830.854 5545.92C827.278 5544.7 824.451 5545.37 823.024 5542.7Z" fill="#3F2B4F"/>
<path d="M817.729 5537.09C820.537 5537.55 823.115 5536.46 823.402 5534.63C823.688 5532.8 821.629 5530.96 818.822 5530.5C816.015 5530.04 813.436 5531.13 813.15 5532.96C812.863 5534.79 814.922 5536.63 817.729 5537.09Z" fill="#3F2B4F"/>
<path d="M824.286 5550.21C825.663 5547.7 828.025 5546.28 829.648 5547.15C831.271 5548.01 831.511 5550.78 830.226 5553.26C828.85 5555.77 826.488 5557.2 824.865 5556.33C823.273 5555.56 822.941 5552.82 824.286 5550.21Z" fill="#3F2B4F"/>
<path d="M815.468 5545.61C818.323 5544.73 820.22 5542.55 819.684 5540.7C819.148 5538.84 816.307 5537.99 813.452 5538.87C810.566 5539.66 808.668 5541.84 809.205 5543.69C809.772 5545.64 812.582 5546.4 815.468 5545.61Z" fill="#3F2B4F"/>
<path d="M816.152 5547.01C818.602 5545.24 821.463 5544.97 822.637 5546.61C823.81 5548.24 822.77 5550.84 820.351 5552.69C817.901 5554.45 815.04 5554.72 813.867 5553.09C812.693 5551.46 813.702 5548.77 816.152 5547.01Z" fill="#3F2B4F"/>
<path d="M772.306 5483.43C771.869 5480.46 774.51 5479.27 776.571 5476.08C779.618 5471.4 783.004 5471.62 784.08 5473.88C785.162 5476.24 782.876 5478.76 783.389 5481.34C783.811 5484.02 786.976 5485.6 786.715 5488.12C786.454 5490.64 783.341 5492.05 778.932 5488.7C775.835 5486.54 772.934 5486.39 772.306 5483.43Z" fill="#3F2B4F"/>
<path d="M768.783 5476.57C771.351 5477.79 774.131 5477.46 774.916 5475.78C775.701 5474.1 774.235 5471.76 771.667 5470.54C769.099 5469.32 766.318 5469.65 765.533 5471.33C764.748 5473 766.215 5475.34 768.783 5476.57Z" fill="#3F2B4F"/>
<path d="M771.427 5491C773.448 5488.97 776.113 5488.26 777.431 5489.54C778.748 5490.83 778.208 5493.56 776.283 5495.58C774.262 5497.61 771.597 5498.32 770.28 5497.03C768.967 5495.85 769.411 5493.12 771.427 5491Z" fill="#3F2B4F"/>
<path d="M764.239 5484.12C767.226 5484.07 769.656 5482.5 769.657 5480.57C769.657 5478.65 767.166 5477.03 764.179 5477.08C761.187 5477.04 758.758 5478.61 758.757 5480.54C758.761 5482.56 761.247 5484.08 764.239 5484.12Z" fill="#3F2B4F"/>
<path d="M764.507 5485.65C767.351 5484.64 770.174 5485.18 770.846 5487.07C771.519 5488.97 769.796 5491.18 766.957 5492.28C764.114 5493.29 761.291 5492.75 760.618 5490.86C759.946 5488.96 761.664 5486.66 764.507 5485.65Z" fill="#3F2B4F"/>
</g>
<circle r="14" transform="matrix(-1 0 0 1 272 4278)" fill="#91F082"/>
<circle r="14" transform="matrix(-1 0 0 1 1588 4689)" fill="#91F082"/>
<circle r="7" transform="matrix(-1 0 0 1 1574 4713)" fill="#91F082"/>
<circle r="3.5" transform="matrix(-1 0 0 1 1609.5 4706.5)" fill="#91F082"/>
<circle r="14" transform="matrix(-1 0 0 1 1526 6270)" fill="#91F082"/>
<circle r="7" transform="matrix(-1 0 0 1 1512 6294)" fill="#91F082"/>
<circle r="3.5" transform="matrix(-1 0 0 1 1547.5 6287.5)" fill="#91F082"/>
<circle r="14" transform="matrix(-1 0 0 1 445 5571)" fill="#91F082"/>
<circle r="7" transform="matrix(-1 0 0 1 431 5595)" fill="#91F082"/>
<circle r="3.5" transform="matrix(-1 0 0 1 466.5 5588.5)" fill="#91F082"/>
<g opacity="0.15" filter="url(#filter28_f_1_8814)">
<ellipse rx="65.5" ry="65" transform="matrix(-1 0 0 1 1536.5 4417)" fill="#F8A35B"/>
</g>
<circle r="33.5" transform="matrix(-1 0 0 1 1684.5 4287.5)" stroke="#91F082" stroke-width="8"/>
<circle r="33.5" transform="matrix(-1 0 0 1 248.5 4764.5)" stroke="#91F082" stroke-width="8"/>
<circle opacity="0.1" cx="408.951" cy="6105.51" r="64.1031" transform="rotate(105 408.951 6105.51)" fill="#F8A35B"/>
<circle opacity="0.1" cx="354.976" cy="6136.67" r="44.0709" transform="rotate(105 354.976 6136.67)" fill="#F8A35B"/>
<circle opacity="0.1" r="74" transform="matrix(-1 1.07034e-08 1.07034e-08 1 1638 3988)" fill="#91F082"/>
<circle opacity="0.1" r="51" transform="matrix(-1 1.07034e-08 1.07034e-08 1 1587 4039)" fill="#91F082"/>
<circle opacity="0.1" cx="327" cy="2400" r="32" fill="#91F082"/>
<circle opacity="0.1" cx="1660.63" cy="841.912" r="47.2849" transform="rotate(105 1660.63 841.912)" fill="#F8A35B"/>
<circle opacity="0.1" cx="349" cy="2422" r="22" fill="#91F082"/>
<circle opacity="0.1" cx="1620.81" cy="864.899" r="32.5084" transform="rotate(105 1620.81 864.899)" fill="#F8A35B"/>
<circle opacity="0.1" cx="441.551" cy="7009.5" r="16.5" transform="rotate(22.1039 441.551 7009.5)" fill="#91F082"/>
<circle opacity="0.1" cx="446.113" cy="7042.11" r="8" transform="rotate(22.1039 446.113 7042.11)" fill="#91F082"/>
<circle opacity="0.1" cx="410.211" cy="7550.89" r="4" transform="rotate(22.1039 410.211 7550.89)" fill="#91F082"/>
<g opacity="0.1" filter="url(#filter29_f_1_8814)">
<path d="M379.546 602.605C381.858 600.539 380.552 597.844 381.029 593.95C381.714 588.215 378.883 586.145 376.531 587.226C374.111 588.381 374.253 591.898 372.138 593.604C370.028 595.45 366.471 594.607 365.009 596.779C363.546 598.952 365.083 602.131 370.801 602.394C374.689 602.73 377.087 604.536 379.546 602.605Z" fill="#3F2B4F"/>
<path d="M386.888 599.491C384.041 598.76 382.054 596.656 382.543 594.804C383.032 592.953 385.744 592.069 388.591 592.799C391.439 593.53 393.426 595.634 392.937 597.486C392.448 599.337 389.736 600.221 386.888 599.491Z" fill="#3F2B4F"/>
<path d="M375.232 609.19C374.972 606.241 373.328 603.912 371.432 604.059C369.535 604.206 368.157 606.727 368.344 609.609C368.604 612.557 370.248 614.887 372.144 614.74C373.973 614.666 375.424 612.212 375.232 609.19Z" fill="#3F2B4F"/>
<path d="M385.49 608.495C383.154 606.476 382.264 603.623 383.541 602.092C384.818 600.561 387.862 600.931 390.198 602.951C392.602 604.897 393.492 607.75 392.215 609.281C390.87 610.885 387.893 610.441 385.49 608.495Z" fill="#3F2B4F"/>
<path d="M384.263 609.531C382.676 606.847 380.081 605.402 378.292 606.46C376.503 607.519 376.408 610.411 377.928 613.168C379.516 615.852 382.11 617.298 383.9 616.239C385.689 615.181 385.851 612.215 384.263 609.531Z" fill="#3F2B4F"/>
<path d="M378.221 540.144C379.867 537.516 377.862 535.291 377.236 531.418C376.297 525.719 373.002 524.519 371.044 526.213C369.041 527.995 370.157 531.333 368.6 533.561C367.087 535.921 363.437 536.102 362.637 538.596C361.837 541.089 364.198 543.715 369.763 542.376C373.592 541.616 376.397 542.683 378.221 540.144Z" fill="#3F2B4F"/>
<path d="M384.407 535.109C381.468 535.2 378.974 533.732 378.928 531.818C378.883 529.903 381.241 528.299 384.18 528.208C387.118 528.117 389.613 529.585 389.658 531.499C389.704 533.414 387.345 535.018 384.407 535.109Z" fill="#3F2B4F"/>
<path d="M375.911 547.669C374.841 544.91 372.613 543.13 370.833 543.799C369.052 544.468 368.431 547.274 369.412 549.989C370.482 552.749 372.71 554.528 374.49 553.859C376.226 553.279 376.937 550.518 375.911 547.669Z" fill="#3F2B4F"/>
<path d="M385.57 544.147C382.765 542.857 381.116 540.365 381.916 538.539C382.716 536.713 385.743 536.221 388.549 537.511C391.4 538.711 393.049 541.203 392.248 543.029C391.404 544.944 388.421 545.347 385.57 544.147Z" fill="#3F2B4F"/>
<path d="M384.681 545.483C382.409 543.347 379.514 542.681 378.09 544.196C376.666 545.711 377.381 548.515 379.608 550.74C381.88 552.876 384.775 553.542 386.199 552.027C387.622 550.512 386.953 547.618 384.681 545.483Z" fill="#3F2B4F"/>
</g>
<g opacity="0.1" filter="url(#filter30_f_1_8814)">
<path d="M245.239 421.681C248.334 422.041 249.489 419.261 252.734 417.022C257.5 413.711 257.168 410.203 254.786 409.156C252.305 408.108 249.756 410.561 247.063 410.108C244.268 409.755 242.529 406.519 239.92 406.869C237.312 407.219 235.948 410.495 239.565 414.968C241.906 418.115 242.148 421.121 245.239 421.681Z" fill="#3F2B4F"/>
<path d="M252.478 425.122C251.127 422.494 251.383 419.597 253.101 418.73C254.819 417.862 257.293 419.311 258.643 421.938C259.993 424.566 259.737 427.463 258.02 428.33C256.302 429.198 253.828 427.749 252.478 425.122Z" fill="#3F2B4F"/>
<path d="M237.413 422.831C239.455 420.669 240.109 417.88 238.734 416.553C237.359 415.225 234.544 415.872 232.504 417.934C230.461 420.096 229.807 422.885 231.182 424.213C232.457 425.538 235.27 424.992 237.413 422.831Z" fill="#3F2B4F"/>
<path d="M244.778 430.077C244.737 426.975 246.288 424.403 248.29 424.341C250.293 424.28 252.045 426.815 252.086 429.918C252.226 433.023 250.676 435.594 248.673 435.656C246.571 435.716 244.918 433.182 244.778 430.077Z" fill="#3F2B4F"/>
<path d="M243.181 429.846C244.139 426.863 243.495 423.949 241.506 423.31C239.517 422.671 237.279 424.53 236.221 427.511C235.264 430.495 235.908 433.409 237.897 434.048C239.886 434.686 242.223 432.83 243.181 429.846Z" fill="#3F2B4F"/>
<path d="M291.299 379.02C294.372 378.504 294.707 375.513 297.2 372.459C300.857 367.952 299.56 364.675 296.982 364.333C294.307 364.017 292.541 367.082 289.829 367.397C287.046 367.836 284.475 365.212 282.067 366.275C279.659 367.337 279.261 370.863 283.98 374.152C287.104 376.523 288.174 379.343 291.299 379.02Z" fill="#3F2B4F"/>
<path d="M299.21 380.31C297.181 378.162 296.621 375.309 298.029 373.997C299.437 372.686 302.217 373.388 304.245 375.536C306.274 377.684 306.834 380.538 305.426 381.849C304.018 383.161 301.239 382.458 299.21 380.31Z" fill="#3F2B4F"/>
<path d="M284.102 382.304C285.462 379.658 285.314 376.797 283.624 375.905C281.933 375.013 279.41 376.418 278.024 378.966C276.664 381.612 276.812 384.473 278.503 385.365C280.096 386.283 282.646 384.975 284.102 382.304Z" fill="#3F2B4F"/>
<path d="M293.193 387.213C292.291 384.244 293.064 381.343 294.97 380.726C296.876 380.109 299.265 382.057 300.168 385.025C301.167 387.968 300.394 390.87 298.488 391.487C296.485 392.129 294.192 390.156 293.193 387.213Z" fill="#3F2B4F"/>
<path d="M291.595 387.436C291.685 384.303 290.255 381.684 288.167 381.624C286.078 381.564 284.447 383.972 284.261 387.13C284.171 390.263 285.602 392.882 287.69 392.942C289.778 393.002 291.506 390.568 291.595 387.436Z" fill="#3F2B4F"/>
</g>
<g opacity="0.1" filter="url(#filter31_f_1_8814)">
<path d="M936.323 692.19C935.015 689.632 937.045 687.739 937.934 684.213C939.258 679.028 942.397 678.185 944.069 679.905C945.774 681.712 944.476 684.704 945.735 686.886C946.941 689.187 950.297 689.647 950.835 692.014C951.373 694.38 948.982 696.614 943.952 694.931C940.479 693.922 937.803 694.681 936.323 692.19Z" fill="#3F2B4F"/>
<path d="M931.017 687.044C933.723 687.364 936.144 686.21 936.34 684.446C936.536 682.682 934.487 681.011 931.782 680.691C929.076 680.371 926.655 681.525 926.459 683.289C926.263 685.053 928.312 686.724 931.017 687.044Z" fill="#3F2B4F"/>
<path d="M937.851 699.324C939.061 696.862 941.261 695.398 942.851 696.159C944.441 696.92 944.789 699.56 943.665 701.988C942.455 704.45 940.256 705.913 938.666 705.153C937.109 704.478 936.675 701.872 937.851 699.324Z" fill="#3F2B4F"/>
<path d="M929.217 695.295C931.911 694.33 933.634 692.161 933.042 690.411C932.45 688.661 929.694 687.964 927 688.929C924.272 689.808 922.549 691.976 923.141 693.726C923.767 695.562 926.489 696.174 929.217 695.295Z" fill="#3F2B4F"/>
<path d="M929.931 696.6C932.2 694.811 934.926 694.429 936.119 695.942C937.311 697.455 936.427 699.987 934.191 701.862C931.922 703.651 929.196 704.033 928.003 702.52C926.811 701.007 927.661 698.389 929.931 696.6Z" fill="#3F2B4F"/>
<path d="M868.127 650.674C867.583 647.852 870.06 646.599 871.895 643.461C874.611 638.849 877.86 638.913 878.987 641.031C880.122 643.241 878.042 645.754 878.644 648.199C879.162 650.745 882.257 652.121 882.115 654.544C881.973 656.967 879.054 658.447 874.692 655.43C871.637 653.494 868.855 653.478 868.127 650.674Z" fill="#3F2B4F"/>
<path d="M864.463 644.254C866.973 645.315 869.619 644.88 870.299 643.241C870.978 641.601 869.476 639.426 866.966 638.365C864.456 637.304 861.81 637.739 861.131 639.379C860.451 641.018 861.954 643.194 864.463 644.254Z" fill="#3F2B4F"/>
<path d="M867.609 657.951C869.457 655.923 871.976 655.13 873.292 656.303C874.607 657.476 874.207 660.109 872.451 662.128C870.604 664.156 868.084 664.95 866.768 663.776C865.462 662.695 865.77 660.071 867.609 657.951Z" fill="#3F2B4F"/>
<path d="M860.437 651.678C863.293 651.501 865.552 649.898 865.47 648.052C865.389 646.206 862.936 644.769 860.08 644.946C857.215 645.031 854.957 646.634 855.038 648.48C855.129 650.417 857.572 651.762 860.437 651.678Z" fill="#3F2B4F"/>
<path d="M860.76 653.13C863.437 652.043 866.162 652.435 866.886 654.22C867.611 656.005 866.056 658.191 863.387 659.369C860.709 660.456 857.985 660.064 857.26 658.279C856.536 656.494 858.082 654.217 860.76 653.13Z" fill="#3F2B4F"/>
</g>
<g opacity="0.1" filter="url(#filter32_f_1_8814)">
<path d="M749.371 726.635C746.678 725.554 746.968 722.766 745.307 719.492C742.876 714.664 744.707 711.94 747.122 712.142C749.618 712.386 750.615 715.526 753.02 716.353C755.465 717.305 758.326 715.429 760.305 716.874C762.284 718.32 761.945 721.607 756.998 723.661C753.684 725.197 752.15 727.55 749.371 726.635Z" fill="#3F2B4F"/>
<path d="M741.917 726.235C744.19 724.685 745.268 722.2 744.247 720.727C743.227 719.253 740.558 719.34 738.286 720.891C736.013 722.441 734.935 724.926 735.956 726.399C736.976 727.873 739.645 727.786 741.917 726.235Z" fill="#3F2B4F"/>
<path d="M755.266 731.054C754.555 728.376 755.259 725.803 756.974 725.328C758.69 724.852 760.706 726.632 761.46 729.226C762.172 731.904 761.468 734.477 759.752 734.952C758.12 735.471 756.06 733.774 755.266 731.054Z" fill="#3F2B4F"/>
<path d="M746.019 733.712C747.43 731.191 747.304 728.397 745.692 727.457C744.081 726.517 741.52 727.813 740.108 730.335C738.614 732.814 738.74 735.608 740.352 736.548C742.046 737.53 744.524 736.191 746.019 733.712Z" fill="#3F2B4F"/>
<path d="M747.428 734.233C747.969 731.365 749.792 729.266 751.703 729.627C753.615 729.988 754.621 732.503 754.162 735.413C753.62 738.281 751.798 740.38 749.887 740.019C747.975 739.658 746.887 737.1 747.428 734.233Z" fill="#3F2B4F"/>
<path d="M677.76 706.424C675.474 704.636 676.529 702.039 675.845 698.432C674.854 693.119 677.371 691.012 679.634 691.878C681.964 692.808 682.047 696.101 684.127 697.564C686.21 699.159 689.48 698.154 690.979 700.093C692.477 702.033 691.236 705.096 685.913 705.691C682.302 706.243 680.174 708.076 677.76 706.424Z" fill="#3F2B4F"/>
<path d="M670.712 703.965C673.326 703.109 675.053 701.022 674.483 699.323C673.913 697.624 671.326 696.964 668.711 697.821C666.097 698.678 664.37 700.764 664.94 702.463C665.51 704.162 668.097 704.822 670.712 703.965Z" fill="#3F2B4F"/>
<path d="M682.191 712.309C682.253 709.539 683.646 707.263 685.426 707.285C687.206 707.306 688.647 709.576 688.649 712.278C688.587 715.047 687.195 717.323 685.415 717.302C683.702 717.345 682.197 715.143 682.191 712.309Z" fill="#3F2B4F"/>
<path d="M672.569 712.288C674.627 710.259 675.283 707.541 673.997 706.189C672.711 704.838 669.89 705.37 667.832 707.399C665.707 709.364 665.051 712.082 666.337 713.434C667.691 714.85 670.444 714.253 672.569 712.288Z" fill="#3F2B4F"/>
<path d="M673.778 713.181C675.097 710.577 677.431 709.068 679.167 709.947C680.902 710.826 681.168 713.522 679.917 716.189C678.599 718.793 676.264 720.301 674.529 719.423C672.793 718.544 672.46 715.784 673.778 713.181Z" fill="#3F2B4F"/>
</g>
<g opacity="0.1" filter="url(#filter33_f_1_8814)">
<path d="M377.177 1364.34C374.79 1365.83 372.776 1364 369.265 1363.43C364.099 1362.56 363.017 1359.57 364.557 1357.8C366.178 1355.99 369.204 1357 371.227 1355.6C373.372 1354.23 373.543 1350.92 375.807 1350.2C378.071 1349.48 380.447 1351.63 379.22 1356.67C378.522 1360.14 379.484 1362.69 377.177 1364.34Z" fill="#3F2B4F"/>
<path d="M372.596 1369.94C372.685 1367.27 371.359 1365.01 369.623 1364.96C367.887 1364.92 366.426 1367.05 366.337 1369.72C366.248 1372.38 367.574 1374.65 369.31 1374.69C371.047 1374.74 372.507 1372.6 372.596 1369.94Z" fill="#3F2B4F"/>
<path d="M384.007 1362.26C381.507 1361.28 379.898 1359.26 380.508 1357.64C381.119 1356.03 383.665 1355.47 386.125 1356.37C388.626 1357.35 390.235 1359.37 389.625 1360.98C389.095 1362.56 386.589 1363.2 384.007 1362.26Z" fill="#3F2B4F"/>
<path d="M380.791 1371.01C379.628 1368.46 377.371 1366.96 375.713 1367.69C374.055 1368.41 373.602 1371.15 374.766 1373.7C375.848 1376.29 378.105 1377.79 379.763 1377.07C381.502 1376.3 381.873 1373.6 380.791 1371.01Z" fill="#3F2B4F"/>
<path d="M382.005 1370.21C380.073 1368.14 379.475 1365.52 380.852 1364.23C382.229 1362.94 384.771 1363.59 386.784 1365.62C388.716 1367.68 389.314 1370.31 387.937 1371.6C386.56 1372.89 383.937 1372.27 382.005 1370.21Z" fill="#3F2B4F"/>
<path d="M332.118 1395.87C329.412 1396.63 327.985 1394.32 324.773 1392.79C320.052 1390.52 319.846 1387.35 321.818 1386.07C323.88 1384.78 326.502 1386.6 328.837 1385.82C331.277 1385.1 332.364 1381.97 334.739 1381.91C337.113 1381.85 338.797 1384.57 336.215 1389.07C334.579 1392.21 334.793 1394.93 332.118 1395.87Z" fill="#3F2B4F"/>
<path d="M326.16 1399.97C326.987 1397.44 326.345 1394.89 324.69 1394.36C323.035 1393.84 321.038 1395.48 320.21 1398.02C319.383 1400.55 320.026 1403.1 321.681 1403.62C323.336 1404.15 325.333 1402.51 326.16 1399.97Z" fill="#3F2B4F"/>
<path d="M339.258 1395.77C337.128 1394.14 336.146 1391.75 337.182 1390.37C338.217 1388.99 340.818 1389.16 342.932 1390.71C345.062 1392.34 346.044 1394.73 345.008 1396.11C344.061 1397.48 341.477 1397.39 339.258 1395.77Z" fill="#3F2B4F"/>
<path d="M333.731 1403.28C333.323 1400.51 331.574 1398.44 329.78 1398.68C327.987 1398.91 326.788 1401.42 327.196 1404.19C327.516 1406.97 329.265 1409.04 331.059 1408.81C332.941 1408.57 334.051 1406.07 333.731 1403.28Z" fill="#3F2B4F"/>
<path d="M335.121 1402.85C333.841 1400.33 333.998 1397.64 335.679 1396.79C337.36 1395.93 339.62 1397.27 340.989 1399.77C342.27 1402.29 342.112 1404.98 340.431 1405.84C338.75 1406.69 336.402 1405.37 335.121 1402.85Z" fill="#3F2B4F"/>
</g>
<g opacity="0.1" filter="url(#filter34_f_1_8814)">
<path d="M388.974 1216.27C386.775 1218.07 384.523 1216.5 380.932 1216.38C375.646 1216.17 374.178 1213.32 375.492 1211.34C376.883 1209.32 380.044 1209.95 381.89 1208.28C383.862 1206.64 383.608 1203.3 385.782 1202.29C387.957 1201.27 390.613 1203.12 390.033 1208.33C389.782 1211.9 391.073 1214.32 388.974 1216.27Z" fill="#3F2B4F"/>
<path d="M385.107 1222.47C384.853 1219.79 383.234 1217.69 381.489 1217.87C379.744 1218.04 378.556 1220.37 378.81 1223.05C379.064 1225.73 380.683 1227.83 382.428 1227.65C384.173 1227.48 385.361 1225.15 385.107 1222.47Z" fill="#3F2B4F"/>
<path d="M395.549 1213.31C392.918 1212.65 391.046 1210.83 391.45 1209.14C391.854 1207.44 394.332 1206.56 396.912 1207.14C399.543 1207.79 401.415 1209.61 401.011 1211.31C400.683 1212.95 398.255 1213.92 395.549 1213.31Z" fill="#3F2B4F"/>
<path d="M393.453 1222.49C391.96 1220.09 389.507 1218.88 387.939 1219.81C386.371 1220.75 386.271 1223.56 387.764 1225.96C389.181 1228.41 391.635 1229.62 393.203 1228.69C394.846 1227.7 394.871 1224.94 393.453 1222.49Z" fill="#3F2B4F"/>
<path d="M394.566 1221.53C392.365 1219.71 391.428 1217.15 392.641 1215.69C393.855 1214.22 396.485 1214.55 398.762 1216.32C400.963 1218.14 401.9 1220.69 400.686 1222.16C399.473 1223.63 396.766 1223.35 394.566 1221.53Z" fill="#3F2B4F"/>
<path d="M330.707 1231.89C328.095 1233 326.368 1230.87 322.954 1229.75C317.933 1228.08 317.318 1224.93 319.13 1223.4C321.029 1221.85 323.89 1223.33 326.127 1222.24C328.479 1221.21 329.164 1217.93 331.535 1217.57C333.905 1217.2 335.943 1219.71 333.936 1224.55C332.701 1227.91 333.265 1230.6 330.707 1231.89Z" fill="#3F2B4F"/>
<path d="M325.268 1236.76C325.77 1234.12 324.799 1231.65 323.073 1231.34C321.348 1231.02 319.559 1232.93 319.057 1235.57C318.554 1238.22 319.525 1240.68 321.251 1241C322.976 1241.31 324.765 1239.41 325.268 1236.76Z" fill="#3F2B4F"/>
<path d="M337.846 1230.87C335.502 1229.51 334.211 1227.24 335.071 1225.73C335.93 1224.21 338.557 1224.05 340.874 1225.33C343.217 1226.69 344.509 1228.96 343.649 1230.47C342.876 1231.96 340.277 1232.21 337.846 1230.87Z" fill="#3F2B4F"/>
<path d="M333.278 1239.11C332.512 1236.39 330.493 1234.54 328.727 1235C326.961 1235.46 326.083 1238.13 326.848 1240.85C327.526 1243.6 329.545 1245.45 331.312 1244.99C333.165 1244.5 333.956 1241.86 333.278 1239.11Z" fill="#3F2B4F"/>
<path d="M334.614 1238.49C333.007 1236.13 332.818 1233.42 334.392 1232.35C335.966 1231.28 338.401 1232.32 340.095 1234.66C341.702 1237.02 341.891 1239.73 340.317 1240.8C338.743 1241.87 336.221 1240.85 334.614 1238.49Z" fill="#3F2B4F"/>
</g>
<g opacity="0.1" filter="url(#filter35_f_1_8814)">
<path d="M928.645 8412.02C925.961 8413.36 924.005 8411.22 920.334 8410.26C914.933 8408.82 914.084 8405.54 915.897 8403.81C917.8 8402.05 920.911 8403.43 923.201 8402.14C925.615 8400.9 926.129 8397.4 928.605 8396.87C931.081 8396.33 933.39 8398.85 931.582 8404.08C930.494 8407.7 931.26 8410.5 928.645 8412.02Z" fill="#3F2B4F"/>
<path d="M923.22 8417.51C923.581 8414.68 922.4 8412.15 920.561 8411.92C918.721 8411.7 916.957 8413.82 916.596 8416.64C916.234 8419.47 917.416 8422 919.255 8422.23C921.095 8422.45 922.859 8420.33 923.22 8417.51Z" fill="#3F2B4F"/>
<path d="M936.108 8410.49C933.55 8409.21 932.044 8406.89 932.854 8405.24C933.664 8403.59 936.423 8403.25 938.947 8404.45C941.505 8405.74 943.011 8408.05 942.201 8409.7C941.481 8411.32 938.756 8411.75 936.108 8410.49Z" fill="#3F2B4F"/>
<path d="M931.816 8419.47C930.835 8416.64 928.589 8414.82 926.756 8415.43C924.923 8416.03 924.167 8418.9 925.148 8421.72C926.038 8424.57 928.285 8426.39 930.118 8425.79C932.041 8425.16 932.706 8422.32 931.816 8419.47Z" fill="#3F2B4F"/>
<path d="M933.186 8418.73C931.34 8416.35 930.968 8413.5 932.56 8412.27C934.151 8411.04 936.785 8411.99 938.72 8414.34C940.566 8416.73 940.938 8419.58 939.346 8420.81C937.755 8422.04 935.031 8421.12 933.186 8418.73Z" fill="#3F2B4F"/>
<path d="M851.11 8458.95C848.159 8459.49 846.875 8456.89 843.617 8454.95C838.83 8452.07 838.929 8448.67 841.151 8447.52C843.469 8446.36 846.072 8448.55 848.631 8447.95C851.294 8447.43 852.762 8444.21 855.29 8444.39C857.818 8444.56 859.334 8447.62 856.14 8452.15C854.089 8455.32 854.045 8458.22 851.11 8458.95Z" fill="#3F2B4F"/>
<path d="M844.372 8462.71C845.504 8460.1 845.076 8457.34 843.371 8456.61C841.667 8455.89 839.381 8457.43 838.249 8460.04C837.116 8462.65 837.544 8465.42 839.249 8466.14C840.954 8466.87 843.239 8465.32 844.372 8462.71Z" fill="#3F2B4F"/>
<path d="M858.702 8459.57C856.603 8457.62 855.8 8454.98 857.038 8453.62C858.276 8452.25 861.02 8452.7 863.111 8454.55C865.209 8456.5 866.013 8459.14 864.775 8460.5C863.633 8461.85 860.896 8461.51 858.702 8459.57Z" fill="#3F2B4F"/>
<path d="M852.081 8466.99C851.925 8464.01 850.274 8461.63 848.346 8461.7C846.418 8461.77 844.894 8464.31 845.05 8467.3C845.11 8470.29 846.761 8472.66 848.689 8472.59C850.713 8472.52 852.141 8469.98 852.081 8466.99Z" fill="#3F2B4F"/>
<path d="M853.601 8466.67C852.493 8463.86 852.929 8461.02 854.8 8460.28C856.671 8459.54 858.937 8461.19 860.141 8463.99C861.248 8466.79 860.812 8469.63 858.941 8470.37C857.071 8471.11 854.709 8469.47 853.601 8466.67Z" fill="#3F2B4F"/>
</g>
<g opacity="0.1" filter="url(#filter36_f_1_8814)">
<path d="M980.533 8577.85C977.585 8578.41 976.285 8575.82 973.015 8573.89C968.21 8571.04 968.288 8567.65 970.503 8566.48C972.814 8565.3 975.43 8567.48 977.985 8566.86C980.645 8566.33 982.092 8563.1 984.621 8563.26C987.15 8563.41 988.686 8566.47 985.52 8571.01C983.489 8574.19 983.463 8577.1 980.533 8577.85Z" fill="#3F2B4F"/>
<path d="M973.818 8581.65C974.934 8579.03 974.489 8576.27 972.78 8575.55C971.07 8574.84 968.795 8576.4 967.679 8579.02C966.563 8581.63 967.008 8584.4 968.717 8585.11C970.426 8585.83 972.702 8584.27 973.818 8581.65Z" fill="#3F2B4F"/>
<path d="M988.129 8578.41C986.018 8576.48 985.198 8573.84 986.428 8572.47C987.657 8571.11 990.404 8571.53 992.506 8573.37C994.617 8575.31 995.437 8577.94 994.207 8579.31C993.074 8580.67 990.335 8580.34 988.129 8578.41Z" fill="#3F2B4F"/>
<path d="M981.554 8585.88C981.379 8582.9 979.713 8580.53 977.786 8580.61C975.859 8580.69 974.35 8583.25 974.525 8586.23C974.604 8589.22 976.27 8591.58 978.197 8591.5C980.22 8591.42 981.633 8588.87 981.554 8585.88Z" fill="#3F2B4F"/>
<path d="M983.072 8585.55C981.946 8582.75 982.365 8579.9 984.231 8579.15C986.097 8578.4 988.373 8580.03 989.595 8582.83C990.72 8585.62 990.302 8588.47 988.435 8589.22C986.569 8589.97 984.197 8588.35 983.072 8585.55Z" fill="#3F2B4F"/>
<path d="M910.874 8612.96C907.888 8612.68 907.361 8609.83 904.756 8607.07C900.934 8602.99 901.954 8599.76 904.406 8599.25C906.954 8598.76 908.86 8601.58 911.487 8601.7C914.189 8601.93 916.478 8599.23 918.863 8600.09C921.249 8600.94 921.873 8604.3 917.568 8607.78C914.731 8610.28 913.898 8613.06 910.874 8612.96Z" fill="#3F2B4F"/>
<path d="M903.366 8614.75C905.167 8612.54 905.509 8609.77 904.066 8608.6C902.623 8607.44 900.003 8608.31 898.202 8610.51C896.402 8612.71 896.06 8615.49 897.503 8616.65C898.946 8617.81 901.566 8616.95 903.366 8614.75Z" fill="#3F2B4F"/>
<path d="M918.012 8615.62C916.524 8613.17 916.47 8610.42 918.032 8609.44C919.594 8608.47 922.113 8609.65 923.62 8612C925.108 8614.44 925.163 8617.2 923.601 8618.18C922.133 8619.17 919.595 8618.09 918.012 8615.62Z" fill="#3F2B4F"/>
<path d="M909.619 8620.96C910.282 8618.05 909.34 8615.31 907.467 8614.85C905.594 8614.39 903.433 8616.43 902.771 8619.34C902.014 8622.24 902.956 8624.97 904.829 8625.43C906.797 8625.91 908.862 8623.86 909.619 8620.96Z" fill="#3F2B4F"/>
<path d="M911.169 8621.07C910.868 8618.06 912.061 8615.45 914.062 8615.25C916.063 8615.05 917.796 8617.25 918.192 8620.27C918.493 8623.27 917.3 8625.88 915.299 8626.08C913.298 8626.29 911.471 8624.07 911.169 8621.07Z" fill="#3F2B4F"/>
</g>
<path fill-rule="evenodd" clip-rule="evenodd" d="M19.3004 491H22.0691V483.185H24.3779L24.725 480.504H22.0691V478.798C22.0691 478.024 22.2866 477.497 23.395 477.497H24.8003V475.105C24.5577 475.071 23.717 475 22.7383 475C20.6973 475 19.3004 476.246 19.3004 478.534V480.508H17V483.189H19.3004V491ZM22.431 491C22.4479 490.994 22.4648 490.989 22.4816 490.983L22.4772 491H22.431Z" fill="white"/>
<path d="M24.2528 440C24.2528 441.796 22.7965 443.253 21 443.253C19.2036 443.253 17.7473 441.796 17.7473 440C17.7473 438.203 19.2036 436.747 21 436.747C22.7965 436.747 24.2528 438.203 24.2528 440Z" fill="white"/>
<path d="M28.6071 434.245C28.4507 433.821 28.2013 433.438 27.8772 433.123C27.5624 432.799 27.1791 432.549 26.7551 432.393C26.4113 432.259 25.8948 432.1 24.9434 432.057C23.9142 432.01 23.6056 432 21.0001 432C18.3943 432 18.0858 432.01 17.0568 432.057C16.1054 432.1 15.5887 432.259 15.2451 432.393C14.8211 432.549 14.4376 432.799 14.1231 433.123C13.7989 433.438 13.5495 433.821 13.3928 434.245C13.2593 434.589 13.1004 435.105 13.057 436.057C13.0101 437.086 13 437.394 13 440C13 442.606 13.0101 442.914 13.057 443.943C13.1004 444.895 13.2593 445.411 13.3928 445.755C13.5495 446.179 13.7987 446.562 14.1228 446.877C14.4376 447.201 14.8208 447.451 15.2448 447.607C15.5887 447.741 16.1054 447.9 17.0568 447.943C18.0858 447.99 18.3941 448 20.9998 448C23.6059 448 23.9144 447.99 24.9431 447.943C25.8945 447.9 26.4113 447.741 26.7551 447.607C27.6062 447.279 28.2788 446.606 28.6071 445.755C28.7406 445.411 28.8996 444.895 28.9432 443.943C28.9901 442.914 29 442.606 29 440C29 437.394 28.9901 437.086 28.9432 436.057C28.8999 435.105 28.7409 434.589 28.6071 434.245V434.245ZM21.0001 445.011C18.2325 445.011 15.989 442.767 15.989 440C15.989 437.232 18.2325 434.989 21.0001 434.989C23.7674 434.989 26.0109 437.232 26.0109 440C26.0109 442.767 23.7674 445.011 21.0001 445.011ZM26.209 435.962C25.5623 435.962 25.038 435.438 25.038 434.791C25.038 434.144 25.5623 433.62 26.209 433.62C26.8558 433.62 27.3801 434.144 27.3801 434.791C27.3798 435.438 26.8558 435.962 26.209 435.962Z" fill="white"/>
<rect x="10" y="461" width="22" height="1" fill="white"/>
</g>
<defs>
<filter id="filter0_f_1_8814" x="-9" y="3914" width="438" height="438" filterUnits="userSpaceOnUse" color-interpolation-filters="sRGB">
<feFlood flood-opacity="0" result="BackgroundImageFix"/>
<feBlend mode="normal" in="SourceGraphic" in2="BackgroundImageFix" result="shape"/>
<feGaussianBlur stdDeviation="17.5" result="effect1_foregroundBlur_1_8814"/>
</filter>
<filter id="filter1_f_1_8814" x="97" y="5830" width="812" height="812" filterUnits="userSpaceOnUse" color-interpolation-filters="sRGB">
<feFlood flood-opacity="0" result="BackgroundImageFix"/>
<feBlend mode="normal" in="SourceGraphic" in2="BackgroundImageFix" result="shape"/>
<feGaussianBlur stdDeviation="122" result="effect1_foregroundBlur_1_8814"/>
</filter>
<filter id="filter2_f_1_8814" x="545.227" y="7329.96" width="118.556" height="84.5195" filterUnits="userSpaceOnUse" color-interpolation-filters="sRGB">
<feFlood flood-opacity="0" result="BackgroundImageFix"/>
<feBlend mode="normal" in="SourceGraphic" in2="BackgroundImageFix" result="shape"/>
<feGaussianBlur stdDeviation="3" result="effect1_foregroundBlur_1_8814"/>
</filter>
<filter id="filter3_f_1_8814" x="440.853" y="7459.85" width="106.033" height="81.3596" filterUnits="userSpaceOnUse" color-interpolation-filters="sRGB">
<feFlood flood-opacity="0" result="BackgroundImageFix"/>
<feBlend mode="normal" in="SourceGraphic" in2="BackgroundImageFix" result="shape"/>
<feGaussianBlur stdDeviation="3" result="effect1_foregroundBlur_1_8814"/>
</filter>
<filter id="filter4_f_1_8814" x="759.163" y="6408.07" width="113.277" height="92.6418" filterUnits="userSpaceOnUse" color-interpolation-filters="sRGB">
<feFlood flood-opacity="0" result="BackgroundImageFix"/>
<feBlend mode="normal" in="SourceGraphic" in2="BackgroundImageFix" result="shape"/>
<feGaussianBlur stdDeviation="3" result="effect1_foregroundBlur_1_8814"/>
</filter>
<filter id="filter5_f_1_8814" x="892.39" y="6556.81" width="107.734" height="79.0173" filterUnits="userSpaceOnUse" color-interpolation-filters="sRGB">
<feFlood flood-opacity="0" result="BackgroundImageFix"/>
<feBlend mode="normal" in="SourceGraphic" in2="BackgroundImageFix" result="shape"/>
<feGaussianBlur stdDeviation="3" result="effect1_foregroundBlur_1_8814"/>
</filter>
<filter id="filter6_f_1_8814" x="254.141" y="129.418" width="1391.28" height="8423.58" filterUnits="userSpaceOnUse" color-interpolation-filters="sRGB">
<feFlood flood-opacity="0" result="BackgroundImageFix"/>
<feBlend mode="normal" in="SourceGraphic" in2="BackgroundImageFix" result="shape"/>
<feGaussianBlur stdDeviation="7" result="effect1_foregroundBlur_1_8814"/>
</filter>
<filter id="filter7_f_1_8814" x="775.567" y="1506.53" width="110.278" height="97.2332" filterUnits="userSpaceOnUse" color-interpolation-filters="sRGB">
<feFlood flood-opacity="0" result="BackgroundImageFix"/>
<feBlend mode="normal" in="SourceGraphic" in2="BackgroundImageFix" result="shape"/>
<feGaussianBlur stdDeviation="3" result="effect1_foregroundBlur_1_8814"/>
</filter>
<filter id="filter8_f_1_8814" x="1559.59" y="1884.94" width="127.76" height="64.2637" filterUnits="userSpaceOnUse" color-interpolation-filters="sRGB">
<feFlood flood-opacity="0" result="BackgroundImageFix"/>
<feBlend mode="normal" in="SourceGraphic" in2="BackgroundImageFix" result="shape"/>
<feGaussianBlur stdDeviation="3" result="effect1_foregroundBlur_1_8814"/>
</filter>
<filter id="filter9_f_1_8814" x="343.022" y="2512.88" width="87.8596" height="116.855" filterUnits="userSpaceOnUse" color-interpolation-filters="sRGB">
<feFlood flood-opacity="0" result="BackgroundImageFix"/>
<feBlend mode="normal" in="SourceGraphic" in2="BackgroundImageFix" result="shape"/>
<feGaussianBlur stdDeviation="3" result="effect1_foregroundBlur_1_8814"/>
</filter>
<filter id="filter10_f_1_8814" x="838.542" y="3464.52" width="128.78" height="55.3923" filterUnits="userSpaceOnUse" color-interpolation-filters="sRGB">
<feFlood flood-opacity="0" result="BackgroundImageFix"/>
<feBlend mode="normal" in="SourceGraphic" in2="BackgroundImageFix" result="shape"/>
<feGaussianBlur stdDeviation="3" result="effect1_foregroundBlur_1_8814"/>
</filter>
<filter id="filter11_f_1_8814" x="1093.62" y="4352.08" width="116.934" height="87.7162" filterUnits="userSpaceOnUse" color-interpolation-filters="sRGB">
<feFlood flood-opacity="0" result="BackgroundImageFix"/>
<feBlend mode="normal" in="SourceGraphic" in2="BackgroundImageFix" result="shape"/>
<feGaussianBlur stdDeviation="3" result="effect1_foregroundBlur_1_8814"/>
</filter>
<filter id="filter12_f_1_8814" x="662.491" y="1550.59" width="96.9619" height="93.1758" filterUnits="userSpaceOnUse" color-interpolation-filters="sRGB">
<feFlood flood-opacity="0" result="BackgroundImageFix"/>
<feBlend mode="normal" in="SourceGraphic" in2="BackgroundImageFix" result="shape"/>
<feGaussianBlur stdDeviation="3" result="effect1_foregroundBlur_1_8814"/>
</filter>
<filter id="filter13_f_1_8814" x="1538.49" y="2065.51" width="116.709" height="54.8091" filterUnits="userSpaceOnUse" color-interpolation-filters="sRGB">
<feFlood flood-opacity="0" result="BackgroundImageFix"/>
<feBlend mode="normal" in="SourceGraphic" in2="BackgroundImageFix" result="shape"/>
<feGaussianBlur stdDeviation="3" result="effect1_foregroundBlur_1_8814"/>
</filter>
<filter id="filter14_f_1_8814" x="537.556" y="2573.16" width="83.8409" height="104.097" filterUnits="userSpaceOnUse" color-interpolation-filters="sRGB">
<feFlood flood-opacity="0" result="BackgroundImageFix"/>
<feBlend mode="normal" in="SourceGraphic" in2="BackgroundImageFix" result="shape"/>
<feGaussianBlur stdDeviation="3" result="effect1_foregroundBlur_1_8814"/>
</filter>
<filter id="filter15_f_1_8814" x="1343.94" y="3576.1" width="114.391" height="59.3116" filterUnits="userSpaceOnUse" color-interpolation-filters="sRGB">
<feFlood flood-opacity="0" result="BackgroundImageFix"/>
<feBlend mode="normal" in="SourceGraphic" in2="BackgroundImageFix" result="shape"/>
<feGaussianBlur stdDeviation="3" result="effect1_foregroundBlur_1_8814"/>
</filter>
<filter id="filter16_f_1_8814" x="939.955" y="4423.44" width="92.9521" height="97.3886" filterUnits="userSpaceOnUse" color-interpolation-filters="sRGB">
<feFlood flood-opacity="0" result="BackgroundImageFix"/>
<feBlend mode="normal" in="SourceGraphic" in2="BackgroundImageFix" result="shape"/>
<feGaussianBlur stdDeviation="3" result="effect1_foregroundBlur_1_8814"/>
</filter>
<filter id="filter17_f_1_8814" x="932.573" y="6898.53" width="130.218" height="52.9263" filterUnits="userSpaceOnUse" color-interpolation-filters="sRGB">
<feFlood flood-opacity="0" result="BackgroundImageFix"/>
<feBlend mode="normal" in="SourceGraphic" in2="BackgroundImageFix" result="shape"/>
<feGaussianBlur stdDeviation="3" result="effect1_foregroundBlur_1_8814"/>
</filter>
<filter id="filter18_f_1_8814" x="898.806" y="7034.6" width="117.356" height="45.7607" filterUnits="userSpaceOnUse" color-interpolation-filters="sRGB">
<feFlood flood-opacity="0" result="BackgroundImageFix"/>
<feBlend mode="normal" in="SourceGraphic" in2="BackgroundImageFix" result="shape"/>
<feGaussianBlur stdDeviation="3" result="effect1_foregroundBlur_1_8814"/>
</filter>
<filter id="filter19_f_1_8814" x="1170" y="6838" width="714" height="714" filterUnits="userSpaceOnUse" color-interpolation-filters="sRGB">
<feFlood flood-opacity="0" result="BackgroundImageFix"/>
<feBlend mode="normal" in="SourceGraphic" in2="BackgroundImageFix" result="shape"/>
<feGaussianBlur stdDeviation="117" result="effect1_foregroundBlur_1_8814"/>
</filter>
<filter id="filter20_f_1_8814" x="403.366" y="845.152" width="108.557" height="75.8027" filterUnits="userSpaceOnUse" color-interpolation-filters="sRGB">
<feFlood flood-opacity="0" result="BackgroundImageFix"/>
<feBlend mode="normal" in="SourceGraphic" in2="BackgroundImageFix" result="shape"/>
<feGaussianBlur stdDeviation="4" result="effect1_foregroundBlur_1_8814"/>
</filter>
<filter id="filter21_f_1_8814" x="148" y="-99" width="733" height="733" filterUnits="userSpaceOnUse" color-interpolation-filters="sRGB">
<feFlood flood-opacity="0" result="BackgroundImageFix"/>
<feBlend mode="normal" in="SourceGraphic" in2="BackgroundImageFix" result="shape"/>
<feGaussianBlur stdDeviation="122" result="effect1_foregroundBlur_1_8814"/>
</filter>
<filter id="filter22_f_1_8814" x="1484" y="503" width="55" height="55" filterUnits="userSpaceOnUse" color-interpolation-filters="sRGB">
<feFlood flood-opacity="0" result="BackgroundImageFix"/>
<feBlend mode="normal" in="SourceGraphic" in2="BackgroundImageFix" result="shape"/>
<feGaussianBlur stdDeviation="6" result="effect1_foregroundBlur_1_8814"/>
</filter>
<filter id="filter23_f_1_8814" x="76" y="26" width="619" height="618" filterUnits="userSpaceOnUse" color-interpolation-filters="sRGB">
<feFlood flood-opacity="0" result="BackgroundImageFix"/>
<feBlend mode="normal" in="SourceGraphic" in2="BackgroundImageFix" result="shape"/>
<feGaussianBlur stdDeviation="122" result="effect1_foregroundBlur_1_8814"/>
</filter>
<filter id="filter24_f_1_8814" x="1104.02" y="4689.88" width="87.8596" height="116.855" filterUnits="userSpaceOnUse" color-interpolation-filters="sRGB">
<feFlood flood-opacity="0" result="BackgroundImageFix"/>
<feBlend mode="normal" in="SourceGraphic" in2="BackgroundImageFix" result="shape"/>
<feGaussianBlur stdDeviation="3" result="effect1_foregroundBlur_1_8814"/>
</filter>
<filter id="filter25_f_1_8814" x="887.703" y="5369.31" width="104.997" height="102.467" filterUnits="userSpaceOnUse" color-interpolation-filters="sRGB">
<feFlood flood-opacity="0" result="BackgroundImageFix"/>
<feBlend mode="normal" in="SourceGraphic" in2="BackgroundImageFix" result="shape"/>
<feGaussianBlur stdDeviation="3" result="effect1_foregroundBlur_1_8814"/>
</filter>
<filter id="filter26_f_1_8814" x="1298.56" y="4750.16" width="83.8408" height="104.097" filterUnits="userSpaceOnUse" color-interpolation-filters="sRGB">
<feFlood flood-opacity="0" result="BackgroundImageFix"/>
<feBlend mode="normal" in="SourceGraphic" in2="BackgroundImageFix" result="shape"/>
<feGaussianBlur stdDeviation="3" result="effect1_foregroundBlur_1_8814"/>
</filter>
<filter id="filter27_f_1_8814" x="752.757" y="5463.81" width="91.4619" height="98.7815" filterUnits="userSpaceOnUse" color-interpolation-filters="sRGB">
<feFlood flood-opacity="0" result="BackgroundImageFix"/>
<feBlend mode="normal" in="SourceGraphic" in2="BackgroundImageFix" result="shape"/>
<feGaussianBlur stdDeviation="3" result="effect1_foregroundBlur_1_8814"/>
</filter>
<filter id="filter28_f_1_8814" x="1227" y="4108" width="619" height="618" filterUnits="userSpaceOnUse" color-interpolation-filters="sRGB">
<feFlood flood-opacity="0" result="BackgroundImageFix"/>
<feBlend mode="normal" in="SourceGraphic" in2="BackgroundImageFix" result="shape"/>
<feGaussianBlur stdDeviation="122" result="effect1_foregroundBlur_1_8814"/>
</filter>
<filter id="filter29_f_1_8814" x="356.485" y="519.505" width="42.5262" height="103.082" filterUnits="userSpaceOnUse" color-interpolation-filters="sRGB">
<feFlood flood-opacity="0" result="BackgroundImageFix"/>
<feBlend mode="normal" in="SourceGraphic" in2="BackgroundImageFix" result="shape"/>
<feGaussianBlur stdDeviation="3" result="effect1_foregroundBlur_1_8814"/>
</filter>
<filter id="filter30_f_1_8814" x="224.456" y="358.31" width="87.7504" height="83.3467" filterUnits="userSpaceOnUse" color-interpolation-filters="sRGB">
<feFlood flood-opacity="0" result="BackgroundImageFix"/>
<feBlend mode="normal" in="SourceGraphic" in2="BackgroundImageFix" result="shape"/>
<feGaussianBlur stdDeviation="3" result="effect1_foregroundBlur_1_8814"/>
</filter>
<filter id="filter31_f_1_8814" x="849.036" y="631.787" width="107.873" height="79.5671" filterUnits="userSpaceOnUse" color-interpolation-filters="sRGB">
<feFlood flood-opacity="0" result="BackgroundImageFix"/>
<feBlend mode="normal" in="SourceGraphic" in2="BackgroundImageFix" result="shape"/>
<feGaussianBlur stdDeviation="3" result="effect1_foregroundBlur_1_8814"/>
</filter>
<filter id="filter32_f_1_8814" x="658.831" y="685.689" width="108.904" height="60.3701" filterUnits="userSpaceOnUse" color-interpolation-filters="sRGB">
<feFlood flood-opacity="0" result="BackgroundImageFix"/>
<feBlend mode="normal" in="SourceGraphic" in2="BackgroundImageFix" result="shape"/>
<feGaussianBlur stdDeviation="3" result="effect1_foregroundBlur_1_8814"/>
</filter>
<filter id="filter33_f_1_8814" x="313.85" y="1344.06" width="81.9039" height="70.7659" filterUnits="userSpaceOnUse" color-interpolation-filters="sRGB">
<feFlood flood-opacity="0" result="BackgroundImageFix"/>
<feBlend mode="normal" in="SourceGraphic" in2="BackgroundImageFix" result="shape"/>
<feGaussianBlur stdDeviation="3" result="effect1_foregroundBlur_1_8814"/>
</filter>
<filter id="filter34_f_1_8814" x="312.2" y="1196.02" width="95.0214" height="55.0403" filterUnits="userSpaceOnUse" color-interpolation-filters="sRGB">
<feFlood flood-opacity="0" result="BackgroundImageFix"/>
<feBlend mode="normal" in="SourceGraphic" in2="BackgroundImageFix" result="shape"/>
<feGaussianBlur stdDeviation="3" result="effect1_foregroundBlur_1_8814"/>
</filter>
<filter id="filter35_f_1_8814" x="831.618" y="8390.79" width="116.803" height="87.8015" filterUnits="userSpaceOnUse" color-interpolation-filters="sRGB">
<feFlood flood-opacity="0" result="BackgroundImageFix"/>
<feBlend mode="normal" in="SourceGraphic" in2="BackgroundImageFix" result="shape"/>
<feGaussianBlur stdDeviation="3" result="effect1_foregroundBlur_1_8814"/>
</filter>
<filter id="filter36_f_1_8814" x="890.605" y="8557.25" width="110.178" height="74.8459" filterUnits="userSpaceOnUse" color-interpolation-filters="sRGB">
<feFlood flood-opacity="0" result="BackgroundImageFix"/>
<feBlend mode="normal" in="SourceGraphic" in2="BackgroundImageFix" result="shape"/>
<feGaussianBlur stdDeviation="3" result="effect1_foregroundBlur_1_8814"/>
</filter>
<linearGradient id="paint0_linear_1_8814" x1="974" y1="748.872" x2="974" y2="1527.4" gradientUnits="userSpaceOnUse">
<stop offset="0.00642238" stop-color="#F8A35B" stop-opacity="0.06"/>
<stop offset="1" stop-color="#EBEBEB" stop-opacity="0"/>
</linearGradient>
<clipPath id="clip0_1_8814">
<rect width="1920" height="9457" fill="white"/>
</clipPath>
</defs>
</svg>
