<svg width="16" height="16" viewBox="0 0 16 16" fill="none" xmlns="http://www.w3.org/2000/svg">
<path d="M11.2535 7.99881C11.2535 9.79528 9.79725 11.2515 8.00078 11.2515C6.20431 11.2515 4.74805 9.79528 4.74805 7.99881C4.74805 6.20235 6.20431 4.74609 8.00078 4.74609C9.79725 4.74609 11.2535 6.20235 11.2535 7.99881Z" fill="white"/>
<path d="M15.6071 2.24482C15.4507 1.82111 15.2013 1.4376 14.8772 1.1228C14.5624 0.798665 14.1791 0.549212 13.7551 0.39285C13.4113 0.259307 12.8948 0.100352 11.9434 0.0570475C10.9142 0.010113 10.6056 0 8.00011 0C5.39434 0 5.08577 0.00985367 4.05684 0.0567882C3.10545 0.100352 2.58865 0.259307 2.24507 0.39285C1.82111 0.549212 1.43759 0.798665 1.12305 1.1228C0.798922 1.4376 0.549469 1.82085 0.392849 2.24482C0.259306 2.58866 0.100351 3.10546 0.0570473 4.05685C0.0101129 5.08578 0 5.39436 0 8.00013C0 10.6056 0.0101129 10.9142 0.0570473 11.9434C0.100351 12.8948 0.259306 13.4113 0.392849 13.7552C0.549469 14.1791 0.798662 14.5624 1.12279 14.8772C1.43759 15.2013 1.82085 15.4508 2.24481 15.6072C2.58865 15.741 3.10545 15.8999 4.05684 15.9432C5.08577 15.9901 5.39408 16 7.99985 16C10.6059 16 10.9144 15.9901 11.9431 15.9432C12.8945 15.8999 13.4113 15.741 13.7551 15.6072C14.6062 15.2789 15.2788 14.6062 15.6071 13.7552C15.7407 13.4113 15.8996 12.8948 15.9432 11.9434C15.9901 10.9142 16 10.6056 16 8.00013C16 5.39436 15.9901 5.08578 15.9432 4.05685C15.8999 3.10546 15.7409 2.58866 15.6071 2.24482ZM8.00011 13.0107C5.23253 13.0107 2.98902 10.7675 2.98902 7.99987C2.98902 5.23229 5.23253 2.98903 8.00011 2.98903C10.7674 2.98903 13.0109 5.23229 13.0109 7.99987C13.0109 10.7675 10.7674 13.0107 8.00011 13.0107ZM13.209 3.96195C12.5623 3.96195 12.038 3.43763 12.038 2.79092C12.038 2.14421 12.5623 1.61989 13.209 1.61989C13.8558 1.61989 14.3801 2.14421 14.3801 2.79092C14.3798 3.43763 13.8558 3.96195 13.209 3.96195Z" fill="white"/>
</svg>
