<svg width="32" height="42" viewBox="0 0 32 42" fill="none" xmlns="http://www.w3.org/2000/svg">
<path d="M31.5 16.7317C31.5 18.9164 30.5477 21.5617 29.0592 24.3423C27.5774 27.1103 25.5958 29.9555 23.6048 32.5248C21.6152 35.0924 19.6244 37.3742 18.1303 39.0146C17.3836 39.8346 16.7615 40.4936 16.3266 40.9472C16.2018 41.0774 16.0925 41.1906 16 41.2858C15.9075 41.1906 15.7982 41.0774 15.6734 40.9472C15.2385 40.4936 14.6164 39.8346 13.8697 39.0146C12.3756 37.3742 10.3848 35.0924 8.39523 32.5248C6.40425 29.9555 4.42256 27.1103 2.94081 24.3423C1.45227 21.5617 0.5 18.9164 0.5 16.7317C0.5 7.74588 7.46042 0.5 16 0.5C24.5396 0.5 31.5 7.74588 31.5 16.7317Z" fill="#B01C1C" stroke="white"/>
<path d="M16.3557 15.1384C14.7642 14.9843 14.1995 16.4218 12.5566 17.6026C10.1437 19.3482 10.3491 21.145 11.5812 21.6584C12.8647 22.1718 14.1482 20.8883 15.5343 21.0937C16.9718 21.2477 17.8959 22.8906 19.2307 22.6852C20.5655 22.4798 21.233 20.7857 19.3334 18.5267C18.1013 16.9352 17.9472 15.395 16.3557 15.1384Z" fill="white"/>
<path d="M12.6078 13.4426C13.3265 14.7774 13.2238 16.2663 12.3511 16.7283C11.4783 17.1904 10.1948 16.4716 9.47607 15.1368C8.75732 13.802 8.86 12.3131 9.73276 11.8511C10.6055 11.389 11.889 12.1078 12.6078 13.4426Z" fill="white"/>
<path d="M20.3593 14.4706C19.3326 15.6 19.0245 17.0375 19.7433 17.7049C20.462 18.3723 21.8995 18.013 22.9263 16.9348C23.9531 15.8054 24.2611 14.3679 23.5424 13.7005C22.875 13.0331 21.4375 13.3411 20.3593 14.4706Z" fill="white"/>
<path d="M16.5089 10.8251C16.5602 12.4167 15.7901 13.7515 14.7634 13.8028C13.7366 13.8541 12.8125 12.5707 12.7611 10.9792C12.6585 9.38764 13.4286 8.05283 14.4553 8.00149C15.5335 7.95015 16.4062 9.23363 16.5089 10.8251Z" fill="white"/>
<path d="M17.3303 10.9284C16.8683 12.4686 17.2277 13.9574 18.2544 14.2654C19.2812 14.5735 20.4107 13.598 20.9241 12.0579C21.3861 10.5177 21.0267 9.02885 20 8.72082C18.9732 8.41278 17.7924 9.38823 17.3303 10.9284Z" fill="white"/>
</svg>
