<svg width="361" height="143" viewBox="0 0 361 143" fill="none" xmlns="http://www.w3.org/2000/svg">
<g filter="url(#filter0_d_104_63560)">
<path d="M35.6419 59.6056C34.786 58.5881 34.786 56.9493 35.6419 55.9317L42.3056 48.0091C44.1561 45.809 45.1942 42.8384 45.1942 39.7429L45.1942 31.5282C45.1942 27.9227 47.678 24.9999 50.742 24.9999L319.595 24.9999C322.659 24.9999 325.143 27.9227 325.143 31.5282L325.143 91.0283C325.143 94.6338 322.659 97.5566 319.595 97.5566L50.742 97.5566C47.678 97.5566 45.1942 94.6338 45.1942 91.0283L45.1942 75.7946C45.1942 72.699 44.1562 69.7284 42.3056 67.5283L35.6419 59.6056Z" fill="white"/>
<path d="M35.8332 59.4447C35.0556 58.5202 35.0556 57.0172 35.8332 56.0927L35.6425 55.9322L35.8332 56.0927L42.4969 48.17C44.3884 45.9212 45.4442 42.8925 45.4442 39.7429L45.4442 31.5282C45.4442 28.0211 47.8527 25.2499 50.742 25.2499L319.595 25.2499C322.484 25.2499 324.893 28.0211 324.893 31.5282L324.893 91.0283C324.893 94.5354 322.484 97.3066 319.595 97.3066L50.742 97.3066C47.8527 97.3066 45.4442 94.5354 45.4442 91.0283L45.4442 75.7946C45.4442 72.645 44.3884 69.6162 42.4969 67.3674L35.8332 59.4447L35.643 59.6047L35.8332 59.4447Z" stroke="#F8A35B" stroke-width="0.5"/>
</g>
<defs>
<filter id="filter0_d_104_63560" x="0" y="0" width="360.143" height="142.557" filterUnits="userSpaceOnUse" color-interpolation-filters="sRGB">
<feFlood flood-opacity="0" result="BackgroundImageFix"/>
<feColorMatrix in="SourceAlpha" type="matrix" values="0 0 0 0 0 0 0 0 0 0 0 0 0 0 0 0 0 0 127 0" result="hardAlpha"/>
<feOffset dy="10"/>
<feGaussianBlur stdDeviation="17.5"/>
<feColorMatrix type="matrix" values="0 0 0 0 0.354167 0 0 0 0 0.354167 0 0 0 0 0.354167 0 0 0 0.11 0"/>
<feBlend mode="normal" in2="BackgroundImageFix" result="effect1_dropShadow_104_63560"/>
<feBlend mode="normal" in="SourceGraphic" in2="effect1_dropShadow_104_63560" result="shape"/>
</filter>
</defs>
</svg>
