<svg width="33" height="44" viewBox="0 0 33 44" fill="none" xmlns="http://www.w3.org/2000/svg">
<path d="M16.5 42.3239L16.1342 42.6647L16.5 43.0574L16.8658 42.6647L16.5 42.3239ZM16.5 42.3239C16.8658 42.6647 16.8659 42.6646 16.8661 42.6645L16.8667 42.6638L16.869 42.6613L16.8777 42.6519L16.9117 42.6152C16.9415 42.583 16.9855 42.5352 17.0428 42.4727C17.1573 42.3476 17.3249 42.1635 17.538 41.9264C17.964 41.4521 18.5721 40.7656 19.3014 39.9151C20.7597 38.2144 22.7053 35.8553 24.652 33.2233C26.5973 30.5931 28.5513 27.6805 30.0211 24.8739C31.4829 22.0824 32.5 19.3328 32.5 17.0464C32.5 8.13262 25.341 0.898438 16.5 0.898438C7.65898 0.898438 0.5 8.13262 0.5 17.0464C0.5 19.3328 1.51712 22.0824 2.97893 24.8739C4.44868 27.6805 6.40266 30.5931 8.34801 33.2233C10.2947 35.8553 12.2403 38.2144 13.6986 39.9151C14.4279 40.7656 15.036 41.4521 15.462 41.9264C15.6751 42.1635 15.8427 42.3476 15.9572 42.4727C16.0145 42.5352 16.0585 42.583 16.0883 42.6152L16.1223 42.6519L16.131 42.6613L16.1333 42.6638L16.1339 42.6645C16.1341 42.6646 16.1342 42.6647 16.5 42.3239Z" fill="#F8A35B" stroke="white"/>
<path d="M16.4153 17.689C15.1363 17.5635 14.6825 18.7347 13.3623 19.6968C11.4232 21.119 11.5882 22.5831 12.5784 23.0014C13.6098 23.4197 14.6413 22.3739 15.7552 22.5413C16.9104 22.6667 17.6531 24.0053 18.7258 23.838C19.7985 23.6707 20.3348 22.2903 18.8083 20.4498C17.8181 19.153 17.6943 17.8981 16.4153 17.689Z" fill="white"/>
<path d="M13.3993 16.3133C13.9769 17.4009 13.8944 18.6139 13.193 18.9904C12.4916 19.3669 11.4602 18.7812 10.8826 17.6937C10.305 16.6061 10.3875 15.393 11.0889 15.0165C11.7903 14.6401 12.8217 15.2257 13.3993 16.3133Z" fill="white"/>
<path d="M19.6263 17.1461C18.8011 18.0664 18.5536 19.2376 19.1312 19.7814C19.7088 20.3252 20.864 20.0324 21.6892 19.154C22.5143 18.2337 22.7619 17.0625 22.1843 16.5187C21.6479 15.9749 20.4927 16.2259 19.6263 17.1461Z" fill="white"/>
<path d="M16.5348 14.1769C16.5761 15.4736 15.9572 16.5612 15.1321 16.603C14.3069 16.6448 13.5643 15.5991 13.523 14.3024C13.4405 13.0056 14.0594 11.918 14.8845 11.8762C15.7509 11.8344 16.4523 12.8801 16.5348 14.1769Z" fill="white"/>
<path d="M17.1947 14.2649C16.8234 15.5198 17.1122 16.7328 17.9373 16.9838C18.7625 17.2348 19.6701 16.44 20.0827 15.1851C20.454 13.9302 20.1652 12.7171 19.3401 12.4662C18.5149 12.2152 17.566 13.01 17.1947 14.2649Z" fill="white"/>
<path d="M15.4451 4.39062C16.148 4.39062 16.8515 4.39062 17.5544 4.39062C17.8244 4.51117 17.9056 4.72751 17.8988 5.00913C17.8877 5.43866 17.8961 5.86819 17.8961 6.29772C17.8961 6.61987 17.8961 6.94149 17.8961 7.26574C20.3055 7.62 22.3647 8.61644 24.0654 10.3151C25.7708 12.0179 26.769 14.0819 27.1197 16.4743C27.8891 16.4743 28.6353 16.4812 29.3804 16.4706C29.663 16.4669 29.8792 16.5433 30 16.8128C30 17.5145 30 18.2167 30 18.9183C29.8792 19.1884 29.6625 19.2663 29.3799 19.2605C28.8441 19.2489 28.3083 19.2573 27.7725 19.2573C27.5558 19.2573 27.3391 19.2573 27.1181 19.2573C26.7648 21.6629 25.765 23.7184 24.0649 25.4165C22.36 27.1194 20.2928 28.1169 17.8961 28.4664C17.8961 29.2344 17.8898 29.9787 17.8993 30.723C17.903 31.0046 17.8233 31.2205 17.5549 31.3415C16.852 31.3415 16.1485 31.3415 15.4456 31.3415C15.1761 31.221 15.0954 31.0052 15.1012 30.7236C15.1123 30.224 15.1044 29.724 15.1044 29.2244C15.1044 28.9728 15.1044 28.7212 15.1044 28.4638C12.6961 28.1116 10.6368 27.1136 8.93567 25.4165C7.22974 23.7147 6.23044 21.6508 5.88082 19.2578C5.11092 19.2578 4.36527 19.2515 3.62014 19.261C3.33749 19.2647 3.1197 19.1894 3 18.9188C3 18.2172 3 17.515 3 16.8133C3.11549 16.5575 3.31693 16.4654 3.59272 16.4717C4.04939 16.4827 4.50606 16.4743 4.96326 16.4743C5.26806 16.4743 5.57339 16.4743 5.8824 16.4743C6.23414 14.0687 7.23396 12.0132 8.93514 10.3156C10.6405 8.61328 12.7082 7.61579 15.1044 7.26679C15.1044 6.49722 15.1107 5.75291 15.1012 5.0086C15.097 4.72698 15.1751 4.51064 15.4451 4.39062ZM8.58815 17.8477C8.57761 22.2088 12.1113 25.7524 16.4808 25.7634C20.8497 25.7745 24.4018 22.2456 24.4113 17.8856C24.4203 13.5208 20.8908 9.97925 16.5208 9.96873C12.1577 9.9582 8.5987 13.4929 8.58815 17.8477Z" fill="white"/>
</svg>
