<svg width="21" height="16" viewBox="0 0 21 16" fill="none" xmlns="http://www.w3.org/2000/svg">
<path d="M20.4464 7.36071C18.5107 2.98214 14.675 0 10.2857 0C5.89643 0 2.06036 2.98571 0.123893 7.36071C0.0558214 7.55 0 7.82143 0 8C0 8.17775 0.0557857 8.45 0.123893 8.60821C2.06143 13.0179 5.89643 16 10.2857 16C14.675 16 18.5107 13.015 20.4464 8.63929C20.5143 8.45 20.5714 8.14643 20.5714 8C20.5714 7.82143 20.5143 7.55 20.4464 7.36071ZM15.4286 8C15.4286 10.8375 13.1261 13.1429 10.2893 13.1429C7.45 13.1429 5.14286 10.8393 5.14286 8C5.14286 5.16071 7.44643 2.85714 10.2857 2.85714C13.125 2.85714 15.4286 5.16071 15.4286 8ZM10.2857 4.57143C10.2036 4.57143 10.0857 4.58571 9.98214 4.6C10.1714 4.92857 10.2857 5.30714 10.2857 5.71429C10.2857 6.97679 9.2625 8 8 8C7.59286 8 7.18214 7.88214 6.88214 7.69643C6.87143 7.80357 6.85714 7.91429 6.85714 8C6.85714 9.86071 8.39286 11.4286 10.2857 11.4286C12.1786 11.4286 13.7143 9.89322 13.7143 8.00036C13.7143 6.1075 12.1464 4.57143 10.2857 4.57143Z" fill="#F8A35B"/>
</svg>
