<svg width="18" height="14" viewBox="0 0 18 14" fill="none" xmlns="http://www.w3.org/2000/svg">
<path d="M17.8906 6.44063C16.1969 2.60938 12.8406 0 9 0C5.15937 0 1.80281 2.6125 0.108406 6.44063C0.0488437 6.60625 0 6.84375 0 7C0 7.15553 0.0488125 7.39375 0.108406 7.53219C1.80375 11.3906 5.15937 14 9 14C12.8406 14 16.1969 11.3881 17.8906 7.55937C17.95 7.39375 18 7.12812 18 7C18 6.84375 17.95 6.60625 17.8906 6.44063ZM13.5 7C13.5 9.48281 11.4853 11.5 9.00312 11.5C6.51875 11.5 4.5 9.48438 4.5 7C4.5 4.51562 6.51562 2.5 9 2.5C11.4844 2.5 13.5 4.51562 13.5 7ZM9 4C8.92812 4 8.825 4.0125 8.73437 4.025C8.9 4.3125 9 4.64375 9 5C9 6.10469 8.10469 7 7 7C6.64375 7 6.28437 6.89687 6.02187 6.73438C6.0125 6.82812 6 6.925 6 7C6 8.62812 7.34375 10 9 10C10.6562 10 12 8.65656 12 7.00031C12 5.34406 10.6281 4 9 4Z" fill="#FFAA63"/>
</svg>
