<svg width="98" height="98" viewBox="0 0 98 98" fill="none" xmlns="http://www.w3.org/2000/svg">
<g filter="url(#filter0_d_104_65777)">
<circle cx="49" cy="41" r="40" fill="#F8A35B"/>
</g>
<path d="M58.7547 40.9964C58.7547 46.3858 54.3859 50.7546 48.9965 50.7546C43.6071 50.7546 39.2383 46.3858 39.2383 40.9964C39.2383 35.6071 43.6071 31.2383 48.9965 31.2383C54.3859 31.2383 58.7547 35.6071 58.7547 40.9964Z" fill="white"/>
<path d="M71.8213 23.7345C71.3522 22.4633 70.6039 21.3128 69.6315 20.3684C68.6871 19.396 67.5373 18.6476 66.2654 18.1785C65.2339 17.7779 63.6843 17.3011 60.8301 17.1711C57.7426 17.0303 56.8168 17 49.0003 17C41.183 17 40.2573 17.0296 37.1705 17.1704C34.3163 17.3011 32.766 17.7779 31.7352 18.1785C30.4633 18.6476 29.3128 19.396 28.3692 20.3684C27.3968 21.3128 26.6484 22.4626 26.1785 23.7345C25.7779 24.766 25.3011 26.3164 25.1711 29.1706C25.0303 32.2573 25 33.1831 25 41.0004C25 48.8169 25.0303 49.7427 25.1711 52.8302C25.3011 55.6844 25.7779 57.234 26.1785 58.2655C26.6484 59.5374 27.396 60.6872 28.3684 61.6316C29.3128 62.604 30.4625 63.3524 31.7344 63.8214C32.766 64.2229 34.3163 64.6997 37.1705 64.8296C40.2573 64.9704 41.1822 65 48.9995 65C56.8176 65 57.7433 64.9704 60.8293 64.8296C63.6835 64.6997 65.2339 64.2229 66.2654 63.8214C68.8186 62.8366 70.8365 60.8187 71.8213 58.2655C72.2219 57.234 72.6988 55.6844 72.8295 52.8302C72.9703 49.7427 72.9999 48.8169 72.9999 41.0004C72.9999 33.1831 72.9703 32.2573 72.8295 29.1706C72.6996 26.3164 72.2227 24.766 71.8213 23.7345ZM49.0003 56.0321C40.6976 56.0321 33.9671 49.3023 33.9671 40.9996C33.9671 32.6969 40.6976 25.9671 49.0003 25.9671C57.3023 25.9671 64.0328 32.6969 64.0328 40.9996C64.0328 49.3023 57.3023 56.0321 49.0003 56.0321ZM64.6271 28.8858C62.687 28.8858 61.1141 27.3129 61.1141 25.3728C61.1141 23.4326 62.687 21.8597 64.6271 21.8597C66.5673 21.8597 68.1402 23.4326 68.1402 25.3728C68.1394 27.3129 66.5673 28.8858 64.6271 28.8858Z" fill="white"/>
<defs>
<filter id="filter0_d_104_65777" x="0" y="0" width="98" height="98" filterUnits="userSpaceOnUse" color-interpolation-filters="sRGB">
<feFlood flood-opacity="0" result="BackgroundImageFix"/>
<feColorMatrix in="SourceAlpha" type="matrix" values="0 0 0 0 0 0 0 0 0 0 0 0 0 0 0 0 0 0 127 0" result="hardAlpha"/>
<feOffset dy="8"/>
<feGaussianBlur stdDeviation="4.5"/>
<feComposite in2="hardAlpha" operator="out"/>
<feColorMatrix type="matrix" values="0 0 0 0 0.516667 0 0 0 0 0.516667 0 0 0 0 0.516667 0 0 0 0.05 0"/>
<feBlend mode="normal" in2="BackgroundImageFix" result="effect1_dropShadow_104_65777"/>
<feBlend mode="normal" in="SourceGraphic" in2="effect1_dropShadow_104_65777" result="shape"/>
</filter>
</defs>
</svg>
