<svg width="98" height="98" viewBox="0 0 98 98" fill="none" xmlns="http://www.w3.org/2000/svg">
<g filter="url(#filter0_d_346_28510)">
<circle cx="49" cy="41" r="40" fill="#F8A35B"/>
</g>
<path opacity="0.49" d="M47.1562 37.3513C47.1562 36.4781 47.8808 35.7617 48.7638 35.7617C49.6468 35.7617 50.3713 36.4781 50.3713 37.3513C50.3713 38.2244 49.6694 38.9409 48.7638 38.9409C47.8581 38.9409 47.1562 38.2244 47.1562 37.3513Z" fill="white"/>
<path d="M49.3053 48.4334C49.9393 48.3886 50.3921 47.8513 50.3695 47.2244C50.3242 46.5975 49.7808 46.1498 49.1469 46.1721C48.5355 46.2169 48.3318 46.2169 48.2865 46.2169C45.2299 46.2169 42.762 44.9408 41.3357 42.6124C41.0187 42.0751 40.3168 41.9183 39.7734 42.2318C39.23 42.5452 39.0715 43.2393 39.3885 43.7766C41.2224 46.7542 44.4601 48.4558 48.2865 48.4558C48.3544 48.5005 48.5582 48.5005 49.3053 48.4334ZM39.9545 35.4929C40.7243 31.351 44.3696 28.4405 48.8299 28.4405C52.86 28.4405 56.1883 30.8808 57.343 34.6645C57.5467 35.3138 58.226 35.6944 58.9052 35.4929C59.5618 35.2914 59.9467 34.6197 59.7429 33.9481C58.2712 29.1121 53.9921 25.9778 48.8525 25.9778C43.1922 25.9778 38.5281 29.6943 37.5319 35.0227C37.4187 35.6944 37.8489 36.3436 38.5281 36.4556C38.5961 36.4779 38.6866 36.4779 38.7546 36.4779C39.3206 36.5003 39.8413 36.075 39.9545 35.4929ZM67.7579 45.8587C68.9352 43.2393 69.5239 40.4407 69.5239 37.5302C69.5239 26.2017 60.2184 17 48.762 17C37.3055 17 28 26.2017 28 37.5302C28 37.7093 28 37.9108 28 38.0899C28.0226 38.8287 28.634 39.4108 29.4038 39.3884C30.1509 39.3661 30.7396 38.7616 30.7169 38.0004C30.7169 37.8436 30.7169 37.6869 30.7169 37.5078C30.7169 27.7017 38.8225 19.6866 48.762 19.6866C58.7014 19.6866 66.807 27.7017 66.807 37.5302C66.807 40.0377 66.2862 42.4781 65.2674 44.7617C64.973 45.4333 65.2674 46.2393 65.9692 46.5304C66.1504 46.6199 66.3315 46.6423 66.5126 46.6423C67.0334 46.6647 67.5315 46.3513 67.7579 45.8587Z" fill="white"/>
<path d="M69.8394 59.2476C66.5791 59.0461 62.9112 59.0685 59.198 59.2476C59.4018 58.1058 59.9678 57.0983 60.5339 56.0908C61.1452 55.0162 61.7791 53.9415 62.3452 52.8669C62.5489 52.4863 62.7527 52.1057 62.9338 51.7251C63.7942 49.9564 64.3149 48.0534 64.3376 46.0608V45.9936C64.3602 42.5682 63.1829 39.5682 61.1225 36.8592C61.032 36.7472 60.9414 36.6353 60.8056 36.5457C60.6244 36.4114 60.4433 36.3218 60.2622 36.2547C60.1263 36.2099 59.9905 36.1875 59.8773 36.1875C59.2886 36.1875 58.7226 36.5681 58.4509 37.2621C58.0433 38.2696 57.6358 39.2995 57.2056 40.3518C57.183 40.3294 57.1377 40.3294 57.1151 40.307C57.0019 40.2622 56.8886 40.2174 56.7981 40.1726C55.5302 39.5905 54.2396 39.0084 52.9717 38.4487C52.7227 38.3368 52.4963 38.292 52.2698 38.292C51.3642 38.292 50.6397 39.0308 50.7529 40.0383C50.7755 40.3294 50.9567 40.6428 51.1151 40.8891C52.1114 42.3667 52.6095 43.8444 52.6321 45.322C52.6321 46.3742 52.4057 47.4265 51.8849 48.4788C51.6585 48.9713 51.3642 49.4415 51.0246 49.9116C50.3453 50.8519 49.5982 51.7251 48.8284 52.5758C48.1039 53.3818 47.3114 54.143 46.5643 54.949C45.8624 55.7326 45.1832 56.5386 44.6398 57.5013C44.5492 57.6804 44.436 57.8595 44.3454 58.0386C44.2549 57.8595 44.1417 57.7028 44.0058 57.5685C43.9153 57.4789 43.8021 57.367 43.7115 57.2998C43.1002 56.7177 42.4889 56.1132 41.8096 55.5983C40.8134 54.8595 39.7266 54.2326 38.6625 53.5609C37.1908 52.6654 35.6965 51.7923 34.3833 50.6504C33.2286 49.643 32.3003 48.4788 31.8249 47.0011C31.3947 45.6578 31.44 44.3817 31.8702 43.307C32.4135 41.9413 33.6135 40.8667 35.3116 40.3518C35.9682 40.1503 36.6022 40.0607 37.2361 40.0607C37.304 40.0607 37.3493 40.0607 37.4172 40.0607C38.4814 40.0831 39.5229 40.3965 40.5417 40.9339C40.5644 40.9339 40.5644 40.9562 40.587 40.9562C40.8134 41.0682 41.0398 41.113 41.2436 41.113C41.6964 41.113 42.104 40.8891 42.3304 40.4637C42.7153 39.8368 42.4889 39.0532 41.8096 38.7174C41.1757 38.3816 40.5417 38.1129 39.8851 37.9114C39.0248 37.6428 38.1418 37.5084 37.2588 37.5084C37.2135 37.5084 37.1908 37.5084 37.1455 37.5084C36.0588 37.5084 34.9494 37.7323 33.8173 38.1801C32.7305 38.6055 31.8022 39.2099 31.0777 39.9711C30.0136 41.0458 29.3343 42.4115 29.1079 43.9115C28.9947 44.5608 28.9947 45.2324 29.04 45.9265C29.2664 48.3892 30.4438 50.4042 32.2324 52.0833C33.5909 53.3818 35.1758 54.3669 36.7606 55.352C38.1418 56.2252 39.5455 57.0983 40.8813 58.0386C41.8549 58.7327 42.6021 59.6058 43.0323 60.7029C36.2625 61.576 31.2136 62.4715 30.7607 62.5611C30.0815 62.673 29.6287 63.3223 29.7645 63.994C29.8777 64.5984 30.3985 65.0014 30.9871 65.0014C31.0551 65.0014 31.1456 65.0014 31.2136 64.979C31.44 64.9343 54.9641 60.7029 69.6356 61.6432C70.3149 61.6879 70.9035 61.173 70.9488 60.5014C71.0394 59.8745 70.5186 59.2924 69.8394 59.2476ZM47.4699 57.8595C47.5831 57.6804 47.719 57.5237 47.8548 57.367C48.3529 56.7849 48.8737 56.2252 49.3944 55.6878C49.6208 55.464 49.8246 55.2401 50.051 55.0162C51.2284 53.8072 52.3378 52.5535 53.2887 51.143C54.1943 49.8221 54.8057 48.4564 55.0547 47.0235C55.2585 45.9041 55.2358 44.7847 55.0094 43.5981C54.9189 43.1279 54.8057 42.6802 54.6472 42.21C54.6245 42.1428 54.6245 42.0533 54.6019 41.9413C55.0547 42.1428 55.5075 42.3443 55.9377 42.5458C56.3 42.7025 56.6622 42.8816 57.0245 43.0384C57.3188 43.1727 57.5905 43.2399 57.8396 43.2399C58.4509 43.2399 58.949 42.8593 59.2433 42.1428C59.4697 41.5607 59.6961 41.001 59.9678 40.3518C60.0358 40.195 60.1037 40.0383 60.1716 39.8592C60.2169 39.9711 60.2395 40.0159 60.2622 40.0607C61.4169 42.1652 62.0056 44.3817 61.7565 46.7996C61.6207 48.0982 61.2357 49.3295 60.715 50.4937C60.5339 50.8967 60.3527 51.2773 60.149 51.6579C59.4018 53.0684 58.5415 54.4117 57.7717 55.7998C57.7717 55.8222 57.749 55.8222 57.749 55.8446C57.2283 56.7849 56.866 57.77 56.6849 58.7998C56.6622 58.8894 56.6396 58.9566 56.6396 59.0461C56.6396 59.0685 56.6396 59.1133 56.6396 59.1357C56.6396 59.2252 56.6396 59.2924 56.6622 59.3595C55.9151 59.4043 55.1679 59.4715 54.4208 59.5163C54.5113 58.5759 54.8283 57.6804 55.2585 56.8296C55.349 56.6282 55.4623 56.4267 55.5755 56.2476C55.9604 55.5535 56.3679 54.8595 56.7302 54.1654C56.9113 53.8296 56.9113 53.449 56.7981 53.1579C56.617 52.6878 56.1641 52.3296 55.5528 52.3072C55.1 52.3296 54.7151 52.5535 54.466 53.0236C54.217 53.4714 53.9679 53.9192 53.7189 54.3669C53.5151 54.7251 53.334 55.061 53.1302 55.4192C52.7453 56.1356 52.451 56.852 52.2246 57.5909C52.0208 58.2849 51.8849 59.0237 51.8397 59.7625C49.9378 59.9416 48.0812 60.1431 46.2926 60.3446C46.4963 59.4491 46.9039 58.6207 47.4699 57.8595Z" fill="white"/>
<defs>
<filter id="filter0_d_346_28510" x="0" y="0" width="98" height="98" filterUnits="userSpaceOnUse" color-interpolation-filters="sRGB">
<feFlood flood-opacity="0" result="BackgroundImageFix"/>
<feColorMatrix in="SourceAlpha" type="matrix" values="0 0 0 0 0 0 0 0 0 0 0 0 0 0 0 0 0 0 127 0" result="hardAlpha"/>
<feOffset dy="8"/>
<feGaussianBlur stdDeviation="4.5"/>
<feComposite in2="hardAlpha" operator="out"/>
<feColorMatrix type="matrix" values="0 0 0 0 0.516667 0 0 0 0 0.516667 0 0 0 0 0.516667 0 0 0 0.05 0"/>
<feBlend mode="normal" in2="BackgroundImageFix" result="effect1_dropShadow_346_28510"/>
<feBlend mode="normal" in="SourceGraphic" in2="effect1_dropShadow_346_28510" result="shape"/>
</filter>
</defs>
</svg>
