<svg width="312" height="263" viewBox="0 0 312 263" fill="none" xmlns="http://www.w3.org/2000/svg">
<rect opacity="0.8" x="275" y="220" width="275" height="195" rx="20" transform="rotate(-180 275 220)" fill="url(#paint0_linear_104_64506)"/>
<rect opacity="0.8" x="291" y="263" width="275" height="186" rx="10" transform="rotate(180 291 263)" fill="url(#paint1_linear_104_64506)"/>
<path d="M132.521 142.299C116.292 149.553 112.303 144.366 103.795 134.156C95.2859 123.945 81.915 101.822 78.5115 100.85C75.108 99.8775 63.5277 98.7119 65.3837 92.3412C67.04 86.6557 74.8649 84.3187 83.6167 86.9928C92.3686 89.667 101.662 100.85 101.662 100.85L132.521 142.299Z" fill="#37474F"/>
<path d="M71.2198 89.6404C71.3355 89.5417 71.4105 89.1429 71.1634 89.1736C69.9699 89.4199 68.851 89.9431 67.8967 90.7008C66.9424 91.4585 66.1792 92.4297 65.6687 93.5362C65.5174 93.828 65.3828 94.1283 65.2656 94.4354C65.4767 95.3325 65.9726 96.137 66.6793 96.7286C66.7553 96.1847 66.8736 95.6477 67.0333 95.1222C67.8718 92.93 69.3256 91.0264 71.2198 89.6404Z" fill="#263238"/>
<path d="M72.5833 95.5908C72.912 94.8159 73.3276 94.0809 73.8222 93.3998C74.5026 92.4931 75.4094 91.781 76.4517 91.335C76.6953 91.2262 76.6909 90.6306 76.3652 90.6919C74.6471 91.0354 73.0807 91.9107 71.8877 93.1938C70.6223 94.6879 69.8305 96.5249 69.6133 98.4707C70.2887 98.7522 71 99.0004 71.7214 99.2194C71.822 97.973 72.1127 96.7493 72.5833 95.5908Z" fill="#263238"/>
<path d="M255.356 157.799C250.667 157.726 246.078 156.43 242.044 154.039C238.01 151.648 234.671 148.245 232.357 144.166L228.194 167.611L255.356 157.799Z" fill="#263238"/>
<path d="M186.151 189.247C177.208 193.475 161.36 192.088 155.14 180.44C148.921 168.792 150.949 127.369 167.268 122.012C183.587 116.655 200.64 171.985 186.151 189.247Z" fill="#FAFAFA"/>
<path d="M190.66 179.177L184.082 154.666C185.182 152.203 186.669 149.931 188.487 147.938C188.124 146.654 187.735 145.387 187.32 144.146C183.997 146.742 181.243 149.993 179.229 153.697C171.839 167.404 176.432 185.417 176.432 185.417C176.432 185.417 171.04 189.805 161.054 179.603C156.732 175.188 153.833 169.126 151.934 163.668C152.15 170.756 153.272 176.942 155.141 180.441C161.36 192.089 177.209 193.475 186.151 189.248C188.445 186.304 189.992 182.848 190.66 179.177Z" fill="#EBEBEB"/>
<path d="M115.182 52.3579C103.539 67.6615 97.5009 95.9308 104.911 114.869C112.322 133.806 131.293 142.314 137.314 149.45C143.336 156.586 146.629 177.445 142.238 191.168C142.238 191.168 130.162 194.187 133.73 200.225C137.298 206.264 143.885 205.989 148.825 204.617C153.765 203.245 173.526 189.522 172.703 137.1C178.059 141.78 182 147.864 184.082 154.665C181.485 160.375 180.193 166.593 180.301 172.865C180.601 181.647 186.151 189.247 186.151 189.247C182.472 189.106 178.789 189.382 175.173 190.07C174.298 190.202 173.464 190.528 172.731 191.023C171.999 191.519 171.386 192.173 170.939 192.936C170.492 193.699 170.221 194.552 170.146 195.434C170.071 196.315 170.195 197.202 170.507 198.03C171.605 200.774 176.82 203.519 182.034 202.421C187.249 201.323 215.244 189.796 224.576 182.111C233.907 174.426 234.182 153.018 231.163 135.178C228.144 117.339 215.793 95.6563 185.328 77.8165L165.658 45.6191L115.182 52.3579Z" fill="#F8A35B"/>
<path d="M115.182 52.3579C96.6479 67.6641 103.105 94.8814 115.207 117.906C115.207 117.906 117.876 106.298 131.48 97.1154C148.111 85.889 177.187 72.2547 165.658 45.6191L115.182 52.3579Z" fill="#F5F5F5"/>
<path d="M165.658 45.6191L115.182 52.3578L115.178 52.3606C114.722 52.7374 114.293 53.127 113.867 53.5179C111.516 55.6433 109.515 58.1263 107.938 60.8753C110.351 65.2147 114.321 68.4766 119.046 70.0017C127.25 72.6314 155.798 63.8845 160.49 55.1698C160.49 55.1698 161.648 66.6356 143.401 81.1857C133.797 88.844 119.17 91.4986 115.207 117.905L115.207 117.905C115.208 117.9 117.879 106.296 131.479 97.1154C148.111 85.889 177.187 72.2546 165.658 45.6191Z" fill="#E0E0E0"/>
<path d="M201.997 137.123C194.184 138.918 187.177 143.232 182.057 149.401C182.877 151.096 183.555 152.858 184.083 154.666C188.216 144.835 201.997 137.123 201.997 137.123Z" fill="#37474F"/>
<path d="M176.746 141.218L176.745 141.209C176.101 124.595 169.315 116.404 169.315 116.404C169.315 116.404 172.386 122.952 172.703 137.099C174.167 138.353 175.52 139.731 176.746 141.218Z" fill="#37474F"/>
<path d="M143.252 187.246L143.251 187.246C142.985 188.571 142.646 189.881 142.238 191.169C143.993 190.779 145.814 190.805 147.557 191.245C149.299 191.686 150.914 192.528 152.273 193.704C152.273 193.704 154.392 188.103 143.252 187.246Z" fill="#37474F"/>
<path d="M193.206 193.703C190.474 192.929 188.024 191.381 186.152 189.247C183.979 189.177 181.804 189.23 179.637 189.406C184.431 195.266 193.206 193.703 193.206 193.703Z" fill="#37474F"/>
<path d="M145.667 197.216C145.58 197.176 145.485 197.161 145.39 197.171C144.519 197.168 143.657 197.338 142.853 197.672C141.619 198.309 140.653 199.364 140.128 200.649C139.635 201.837 139.476 203.138 139.668 204.41C139.694 204.593 139.726 204.778 139.762 204.964C140.397 205.142 141.045 205.267 141.7 205.339C141.657 205.181 141.606 205.026 141.577 204.864C141.393 203.82 141.49 202.746 141.859 201.751C142.643 199.976 143.976 198.5 145.662 197.54C145.699 197.52 145.73 197.491 145.754 197.456C145.768 197.43 145.773 197.401 145.771 197.371C145.769 197.342 145.759 197.314 145.742 197.29C145.723 197.26 145.697 197.234 145.667 197.216Z" fill="#263238"/>
<path d="M135.901 202.873C135.832 201.533 136.061 200.194 136.572 198.953C137.082 197.712 137.862 196.6 138.854 195.697C138.929 195.649 138.991 195.583 139.034 195.506C139.078 195.428 139.101 195.341 139.103 195.252C138.985 194.723 136.735 196.174 136.502 196.372C135.581 197.209 134.907 198.281 134.551 199.474C134.395 199.964 134.288 200.468 134.229 200.979C134.708 201.675 135.27 202.311 135.901 202.873Z" fill="#263238"/>
<path d="M181.058 196.336C180.986 196.274 180.898 196.232 180.805 196.216C179.969 195.972 179.093 195.897 178.228 195.995C176.866 196.266 175.646 197.013 174.786 198.102C174.111 198.95 173.644 199.944 173.422 201.005C173.97 201.324 174.544 201.598 175.137 201.824C175.325 201.037 175.668 200.295 176.144 199.641C177.388 198.152 179.078 197.102 180.964 196.646C181.005 196.636 181.043 196.617 181.076 196.591C181.096 196.569 181.11 196.543 181.116 196.514C181.122 196.485 181.12 196.455 181.11 196.428C181.1 196.393 181.082 196.362 181.058 196.336Z" fill="#263238"/>
<path d="M171.195 199.158C171.513 197.873 172.108 196.674 172.937 195.642C173.766 194.61 174.81 193.772 175.996 193.186C176.151 193.111 176.329 193.016 176.359 192.827C176.392 192.286 173.829 193.058 173.549 193.183C172.433 193.733 171.488 194.577 170.816 195.624C170.573 195.992 170.36 196.379 170.181 196.781C170.24 197.209 170.349 197.628 170.507 198.03C170.679 198.438 170.911 198.818 171.195 199.158Z" fill="#263238"/>
<path d="M160.995 26.321C164.868 19.5147 163.809 3.61043 158.059 0.385308C152.631 -2.65965 140.141 13.3427 140.141 13.3427C140.141 13.3427 150.412 24.6734 160.995 26.321Z" fill="#BA7A44"/>
<path d="M154.436 22.2349C147.203 18.0298 140.141 13.3422 140.141 13.3422C140.141 13.3422 152.059 -1.87025 156.517 0.671076C159.329 1.87155 162.181 10.7952 154.436 22.2349Z" fill="#FFA8A7"/>
<path d="M144.248 13.5898C145.469 12.9923 146.493 12.0559 147.196 10.8924C148.117 9.59782 148.598 8.04166 148.568 6.45312C151.252 8.29119 152.368 12.7219 152.368 12.7219C153.437 12.5611 154.406 12.005 155.085 11.1636C155.763 10.3222 156.101 9.25684 156.032 8.17823C158.022 10.3255 157.956 15.7436 154.528 18.5584C152.673 18.7969 150.788 18.4804 149.112 17.6486C146.05 16.2471 144.456 14.6646 144.248 13.5898Z" fill="#F28F8F"/>
<path d="M152.45 19.5845C155.02 17.7964 156.632 14.001 155.547 11.3844C155.547 11.3844 153.77 13.6246 151.699 13.7048C151.699 13.7048 150.688 6.30468 146.591 5.17773C146.591 5.17773 147.48 10.0473 143.851 12.7035C142.717 19.5829 152.45 19.5845 152.45 19.5845Z" fill="#7C512E"/>
<path d="M130.239 10.0291C126.647 4.04453 116.298 -1.83772 110.043 2.52901C106.518 4.99015 113.379 22.4823 113.379 22.4823C113.379 22.4823 125.108 17.7431 130.239 10.0291Z" fill="#BA7A44"/>
<path d="M125.231 14.9093C119.451 18.8669 113.379 22.4828 113.379 22.4828C113.379 22.4828 106.518 4.9907 110.043 2.52955C112.449 1.39725 119.651 3.86695 125.231 14.9093Z" fill="#FFA8A7"/>
<path d="M114.096 18.6133C113.72 17.8657 113.222 17.1856 112.624 16.6003C112.24 15.4949 111.814 14.2037 111.41 12.8407C113.167 11.9773 115.095 11.5174 117.052 11.4947C116.968 10.0651 116.401 8.70637 115.444 7.64104C117.766 6.97431 121.614 9.23957 122.424 13.1668C121.853 14.6642 120.987 16.0312 119.876 17.1862C118.598 17.8657 117.439 18.4376 116.483 18.8883C115.677 18.9735 114.862 18.8796 114.096 18.6133Z" fill="#F28F8F"/>
<path d="M121.428 14.5172C120.657 11.7978 118.067 9.30239 115.738 9.45596C116.464 10.6436 116.771 12.0401 116.611 13.4228C116.611 13.4228 110.532 12.102 108.629 15.2639C109.825 15.4997 110.939 16.0445 111.86 16.8441C112.78 17.6437 113.476 18.6704 113.876 19.822C119.013 22.8194 121.428 14.5172 121.428 14.5172Z" fill="#7C512E"/>
<path d="M132.652 9.58789C115.499 11.2548 104.961 27.1116 100.268 38.0937C97.9898 43.4257 108.088 61.4615 121.521 63.4928C140.141 66.3087 159.399 56.2975 166.352 45.9924C172.457 36.9429 154.335 10.5292 132.652 9.58789Z" fill="#F8A35B"/>
<path d="M131.445 42.6726C123.897 38.3301 127.846 19.584 127.846 19.584C123.907 27.7675 122.435 37.4975 114.637 40.7033C107.858 43.4906 104.231 45.77 105.884 53.2004C109.403 58.3456 114.868 63.2049 121.336 64.0298C128.33 64.7994 135.409 64.0721 142.1 61.8963C145.631 51.942 140.992 48.1651 131.445 42.6726Z" fill="#FAFAFA"/>
<path d="M140.008 35.6019C140.09 36.1398 140.012 36.6902 139.781 37.1834C139.551 37.6765 139.18 38.0904 138.714 38.3725C138.249 38.6546 137.71 38.7925 137.167 38.7685C136.623 38.7445 136.099 38.5599 135.66 38.2379C135.221 37.9158 134.888 37.471 134.702 36.9595C134.516 36.4479 134.486 35.8928 134.615 35.3642C134.745 34.8356 135.028 34.3573 135.43 33.9898C135.831 33.6222 136.332 33.382 136.87 33.2994C137.228 33.2446 137.592 33.2607 137.943 33.3467C138.294 33.4328 138.625 33.5871 138.916 33.8009C139.207 34.0147 139.454 34.2838 139.641 34.5928C139.828 34.9018 139.953 35.2447 140.008 35.6019Z" fill="#263238"/>
<path d="M116.135 33.2171C116.217 33.7551 116.139 34.3054 115.908 34.7986C115.678 35.2918 115.307 35.7056 114.841 35.9877C114.376 36.2699 113.837 36.4077 113.294 36.3837C112.75 36.3597 112.226 36.1751 111.787 35.8531C111.348 35.5311 111.015 35.0862 110.829 34.5747C110.643 34.0632 110.613 33.508 110.742 32.9794C110.872 32.4508 111.155 31.9725 111.557 31.605C111.958 31.2375 112.459 30.9972 112.997 30.9147C113.355 30.8598 113.719 30.8759 114.07 30.9619C114.421 31.048 114.752 31.2023 115.043 31.4161C115.334 31.6299 115.581 31.899 115.768 32.208C115.955 32.517 116.08 32.8599 116.135 33.2171Z" fill="#263238"/>
<path d="M143.27 47.4492C143.255 47.4415 143.241 47.4331 143.227 47.4239C143.113 47.3434 143.033 47.2226 143.005 47.0859C142.977 46.9492 143.002 46.8069 143.075 46.6881C143.969 44.9565 145.373 43.541 147.097 42.6326C148.822 41.7243 150.783 41.3669 152.717 41.6088C152.852 41.629 152.974 41.7023 153.055 41.8123C153.137 41.9224 153.171 42.0604 153.151 42.1958L153.15 42.1993C153.138 42.3366 153.071 42.4633 152.965 42.5517C152.86 42.6401 152.723 42.683 152.586 42.6711C150.847 42.4566 149.084 42.7805 147.535 43.5991C145.986 44.4178 144.725 45.6918 143.923 47.2493C143.861 47.3604 143.758 47.4431 143.637 47.4804C143.515 47.5176 143.384 47.5064 143.27 47.4492Z" fill="#263238"/>
<path d="M144.699 48.72C144.648 48.6929 144.601 48.6569 144.563 48.6137C144.47 48.5082 144.421 48.3719 144.425 48.2318C144.429 48.0917 144.485 47.9581 144.583 47.8576C145.531 47.0252 146.646 46.4048 147.853 46.0378C149.061 45.6707 150.332 45.5655 151.584 45.7292C151.716 45.7634 151.83 45.8466 151.903 45.9619C151.976 46.0772 152.002 46.2159 151.976 46.3499C151.95 46.4838 151.874 46.6029 151.764 46.6829C151.653 46.7629 151.516 46.7978 151.381 46.7804C150.291 46.6433 149.185 46.7361 148.133 47.0531C147.081 47.37 146.107 47.904 145.274 48.6205C145.202 48.6973 145.107 48.7485 145.003 48.7664C144.899 48.7843 144.793 48.768 144.699 48.72Z" fill="#263238"/>
<path d="M144.496 50.9182C144.403 50.8625 144.33 50.7782 144.289 50.6777C144.235 50.5484 144.232 50.4035 144.28 50.2719C144.328 50.1403 144.424 50.0314 144.548 49.967C146.069 49.3239 147.722 49.058 149.368 49.1919C151.014 49.3258 152.603 49.8556 154 50.736C154.115 50.8134 154.197 50.9322 154.228 51.068C154.259 51.2038 154.236 51.3463 154.165 51.466C154.135 51.5237 154.093 51.5747 154.043 51.6163C153.993 51.6579 153.935 51.6892 153.873 51.7084C153.81 51.7276 153.745 51.7343 153.68 51.7283C153.615 51.7222 153.552 51.7033 153.494 51.6729L153.482 51.6659L153.472 51.66C152.216 50.8604 150.785 50.3767 149.302 50.2503C147.818 50.1239 146.326 50.3586 144.954 50.9343C144.882 50.9701 144.803 50.9874 144.723 50.9846C144.643 50.9818 144.565 50.9589 144.496 50.9182Z" fill="#263238"/>
<path d="M105.51 41.8748C105.526 41.8703 105.542 41.8649 105.558 41.8586C105.685 41.8022 105.787 41.6993 105.841 41.5709C105.896 41.4424 105.899 41.298 105.851 41.167C105.316 39.2931 104.219 37.6285 102.708 36.398C101.197 35.1674 99.3444 34.4302 97.4009 34.2858C97.2642 34.279 97.1303 34.3267 97.0288 34.4186C96.9273 34.5105 96.8664 34.6389 96.8596 34.7756L96.8594 34.7793C96.8447 34.9164 96.8849 35.0537 96.9712 35.1612C97.0574 35.2688 97.1828 35.3377 97.3198 35.3531C99.0669 35.4858 100.731 36.1511 102.088 37.2592C103.446 38.3673 104.43 39.8649 104.91 41.5501C104.949 41.6712 105.033 41.7726 105.145 41.8331C105.256 41.8936 105.387 41.9086 105.51 41.8748Z" fill="#263238"/>
<path d="M103.858 42.8388C103.914 42.8223 103.966 42.7962 104.013 42.7616C104.124 42.6763 104.199 42.5524 104.223 42.4143C104.247 42.2762 104.218 42.1342 104.142 42.0164C103.377 41.0133 102.406 40.1851 101.295 39.5871C100.184 38.9891 98.9576 38.6352 97.6987 38.5488C97.5624 38.5562 97.4341 38.6152 97.3399 38.7139C97.2456 38.8126 97.1925 38.9434 97.1914 39.0799C97.1903 39.2163 97.2412 39.3481 97.3338 39.4483C97.4264 39.5485 97.5538 39.6096 97.6899 39.6192C98.7855 39.6998 99.852 40.0091 100.821 40.5273C101.789 41.0455 102.639 41.7611 103.314 42.6277C103.369 42.7172 103.452 42.7862 103.551 42.8243C103.649 42.8623 103.757 42.8674 103.858 42.8388Z" fill="#263238"/>
<path d="M103.624 45.0323C103.727 44.9961 103.815 44.9277 103.875 44.8374C103.953 44.7212 103.985 44.5799 103.964 44.4414C103.943 44.3029 103.871 44.1773 103.761 44.0896C102.397 43.1592 100.829 42.5724 99.1888 42.3791C97.549 42.1857 95.8867 42.3916 94.3436 42.9792C94.2149 43.0323 94.1114 43.1327 94.0545 43.2598C93.9975 43.3868 93.9914 43.5309 94.0374 43.6623C94.0748 43.7885 94.1608 43.8948 94.2765 43.9576C94.3922 44.0204 94.5281 44.0347 94.6543 43.9973L94.6681 43.993L94.679 43.9892C96.0678 43.453 97.5658 43.261 99.045 43.4297C100.524 43.5983 101.94 44.1227 103.173 44.9578C103.236 45.007 103.31 45.0396 103.389 45.0527C103.468 45.0657 103.549 45.0587 103.624 45.0323Z" fill="#263238"/>
<path d="M130.015 52.6901C124.83 54.0173 121.869 49.8956 121.756 46.2559C121.602 48.4817 119.158 52.7092 114.834 50.8595" stroke="#263238" stroke-width="2.61951" stroke-linecap="round" stroke-linejoin="round"/>
<path d="M121.638 47.7267C120.885 47.4201 120.216 46.9394 119.685 46.3241C119.154 45.7087 118.777 44.9763 118.584 44.1869C118.506 42.7637 125.539 43.7171 125.547 44.8364C125.559 46.4218 122.511 47.7905 121.638 47.7267Z" fill="#F28F8F"/>
<path d="M266.509 159.64C252.366 154.648 216.036 159.64 206.052 171.01C196.068 182.38 194.404 195.97 194.959 208.172C194.959 208.172 217.665 217.287 237.118 206.73C257.286 195.786 285.922 167.682 266.509 159.64Z" fill="#37474F"/>
<path d="M194.958 208.172C194.958 208.172 212.814 217.274 231.89 209.086C242.576 203.095 244.176 198.351 245.061 194.702C240.328 197.688 228.194 195.135 228.194 195.135C228.194 195.135 239.978 182.577 241.259 175.296C232.329 178.841 217.634 177.736 217.634 177.736C217.634 177.736 218.574 170.332 223.746 166.233C220.627 165.809 217.454 166.013 214.415 166.833C211.377 167.654 208.533 169.074 206.051 171.01C194.135 182.7 193.147 196.231 194.958 208.172Z" fill="#FAFAFA"/>
<path d="M245.061 194.703C243.969 196.944 240.49 202.214 229.078 205.489C218.613 208.292 207.567 208.068 197.224 204.844C195.709 198.974 195.325 192.869 196.094 186.855C194.076 193.778 193.687 201.075 194.958 208.173C194.958 208.173 212.814 217.275 231.891 209.086C241.273 203.826 244.27 199.383 245.061 194.703Z" fill="#F0F0F0"/>
<path d="M238.777 71.5391H47.0713V243.001H238.777V71.5391Z" fill="#7C522E"/>
<path opacity="0.2" d="M238.777 71.5391H47.0713V243.001H238.777V71.5391Z" fill="#BA7A44"/>
<path d="M279.36 71.5391H87.6543V243.001H279.36V71.5391Z" fill="#F8A35B"/>
<path d="M16 122.444C22.0959 113.072 47.0648 71.5323 47.0648 71.5323L87.6331 71.5293L66.8994 122.444H16Z" fill="#BA7A44"/>
<path d="M310.96 124.106C304.836 114.478 279.479 71.8027 279.479 71.8027H239.002L259.83 124.106H310.96Z" fill="#BA7A44"/>
<path d="M136.193 199.184C138.969 199.184 141.746 199.187 144.522 199.178C144.814 199.177 144.986 199.214 145.03 199.558C145.706 203.625 145.026 207.802 143.094 211.444C142.037 213.395 140.582 215.102 138.823 216.455C137.064 217.808 135.041 218.777 132.884 219.299C130.183 220.072 127.346 220.25 124.57 219.82C121.793 219.39 119.143 218.363 116.802 216.808C114.404 215.351 112.375 213.359 110.875 210.987C109.375 208.616 108.444 205.929 108.156 203.137C107.306 195.297 110.452 189.217 116.938 184.865C120.48 182.518 124.717 181.451 128.949 181.84C133.173 182.125 137.163 183.884 140.221 186.811C140.442 187.015 140.428 187.119 140.224 187.32C139.169 188.354 138.124 189.399 137.089 190.453C136.886 190.66 136.769 190.709 136.523 190.486C135.205 189.277 133.655 188.348 131.967 187.755C130.279 187.162 128.489 186.917 126.704 187.035C124.011 187.213 121.428 188.169 119.268 189.787C117.108 191.406 115.465 193.616 114.537 196.15C113.609 198.684 113.437 201.433 114.042 204.064C114.647 206.694 116.002 209.092 117.943 210.966C120.188 213.203 123.18 214.532 126.345 214.7C129.491 215.009 132.646 214.206 135.263 212.432C136.489 211.599 137.523 210.515 138.297 209.251C139.071 207.987 139.566 206.572 139.751 205.102C139.861 204.385 139.856 204.384 139.119 204.384C135.373 204.384 131.626 204.377 127.88 204.395C127.456 204.397 127.367 204.27 127.373 203.874C127.396 202.457 127.397 201.039 127.374 199.621C127.369 199.268 127.466 199.174 127.819 199.175C130.61 199.19 133.402 199.184 136.193 199.184Z" fill="white"/>
<path d="M224.562 207.79C224.562 211.236 224.57 214.683 224.559 218.13C224.624 220.463 224.177 222.782 223.25 224.924C222.559 226.481 221.483 227.837 220.123 228.863C218.763 229.889 217.164 230.552 215.477 230.789C212.885 231.332 210.187 231.022 207.786 229.906C205.259 228.693 203.241 226.626 202.09 224.07C201.974 223.825 202.006 223.714 202.268 223.607C203.606 223.061 204.941 222.508 206.266 221.931C206.585 221.793 206.693 221.884 206.832 222.164C207.218 223.033 207.784 223.811 208.491 224.447C209.198 225.083 210.031 225.563 210.936 225.857C212.212 226.275 213.586 226.291 214.871 225.903C216.157 225.514 217.292 224.74 218.122 223.685C218.892 222.487 219.32 221.101 219.362 219.678C219.408 218.934 219.379 218.186 219.38 217.44C219.38 217.358 219.417 217.25 219.313 217.202C219.215 217.156 219.15 217.227 219.085 217.293C217.832 218.62 216.198 219.524 214.408 219.882C212.618 220.239 210.762 220.032 209.095 219.289C206.859 218.544 204.895 217.15 203.454 215.285C202.013 213.421 201.159 211.169 201.002 208.818C200.727 206.002 201.427 203.178 202.985 200.816C204.542 198.454 206.863 196.699 209.559 195.842C210.933 195.368 212.398 195.218 213.839 195.403C215.281 195.589 216.66 196.105 217.869 196.912C218.302 197.206 218.697 197.55 219.048 197.938C219.117 198.012 219.18 198.136 219.294 198.1C219.45 198.052 219.376 197.897 219.378 197.791C219.387 197.373 219.398 196.954 219.376 196.538C219.36 196.241 219.428 196.119 219.761 196.123C221.239 196.141 222.716 196.141 224.194 196.124C224.497 196.121 224.571 196.224 224.568 196.509C224.555 197.732 224.562 198.956 224.562 200.179C224.562 202.716 224.562 205.253 224.562 207.79ZM219.747 207.757C219.772 206.754 219.612 205.756 219.276 204.811C218.949 203.669 218.308 202.641 217.425 201.844C216.543 201.048 215.455 200.515 214.285 200.306C213.139 200.082 211.954 200.183 210.863 200.596C209.772 201.01 208.818 201.721 208.109 202.648C206.925 204.129 206.303 205.98 206.35 207.875C206.398 209.77 207.114 211.587 208.371 213.006C209.493 214.239 211.05 214.989 212.714 215.097C214.377 215.206 216.018 214.665 217.291 213.588C218.1 212.853 218.738 211.95 219.162 210.943C219.586 209.936 219.786 208.849 219.747 207.757Z" fill="white"/>
<path d="M186.338 195.403C188.767 195.414 191.138 196.145 193.152 197.503C195.166 198.861 196.733 200.785 197.654 203.033C198.575 205.281 198.809 207.751 198.327 210.132C197.845 212.512 196.668 214.697 194.946 216.41C193.223 218.122 191.031 219.286 188.648 219.753C186.264 220.221 183.795 219.972 181.553 219.038C179.311 218.104 177.396 216.526 176.05 214.504C174.704 212.482 173.987 210.106 173.99 207.677C173.968 206.088 174.258 204.51 174.845 203.033C175.433 201.556 176.305 200.209 177.413 199.069C178.52 197.929 179.842 197.018 181.302 196.389C182.761 195.76 184.33 195.424 185.92 195.402C186.059 195.4 186.198 195.4 186.338 195.403ZM193.301 207.681C193.284 206.869 193.168 206.063 192.956 205.279C192.644 204.114 192.029 203.052 191.175 202.201C190.32 201.35 189.256 200.739 188.09 200.432C186.924 200.124 185.697 200.13 184.534 200.449C183.37 200.768 182.312 201.389 181.466 202.248C180.187 203.663 179.451 205.486 179.389 207.393C179.327 209.299 179.944 211.166 181.13 212.66C182.194 213.963 183.709 214.817 185.374 215.055C187.039 215.293 188.732 214.897 190.119 213.944C191.126 213.245 191.943 212.307 192.499 211.214C193.054 210.12 193.329 208.907 193.301 207.681Z" fill="white"/>
<path d="M147.075 207.673C147.072 205.234 147.792 202.85 149.144 200.82C150.496 198.791 152.419 197.208 154.671 196.271C156.922 195.335 159.401 195.087 161.793 195.56C164.186 196.032 166.384 197.203 168.111 198.925C169.838 200.647 171.015 202.842 171.494 205.233C171.973 207.624 171.733 210.104 170.803 212.358C169.873 214.612 168.295 216.54 166.269 217.898C164.244 219.255 161.861 219.982 159.422 219.985C159.406 219.985 159.391 219.985 159.375 219.985C157.789 220.014 156.212 219.73 154.736 219.15C153.259 218.57 151.911 217.705 150.769 216.603C149.627 215.502 148.713 214.187 148.079 212.732C147.445 211.278 147.104 209.713 147.075 208.127C147.072 207.976 147.073 207.824 147.075 207.673ZM152.452 207.642C152.432 208.511 152.565 209.377 152.846 210.2C153.198 211.43 153.892 212.534 154.848 213.384C155.804 214.235 156.982 214.796 158.244 215.002C159.462 215.253 160.727 215.145 161.885 214.691C163.043 214.237 164.044 213.456 164.767 212.444C165.523 211.473 166.036 210.335 166.262 209.125C166.489 207.915 166.423 206.669 166.07 205.49C165.833 204.468 165.365 203.514 164.699 202.702C164.034 201.89 163.191 201.243 162.236 200.81C161.28 200.377 160.237 200.171 159.188 200.206C158.14 200.242 157.113 200.518 156.189 201.015C155.009 201.66 154.034 202.623 153.374 203.795C152.713 204.966 152.394 206.299 152.452 207.642Z" fill="white"/>
<path d="M236.278 207.642C236.224 205.786 236.596 203.942 237.366 202.252C238.135 200.562 239.281 199.071 240.716 197.892C241.952 196.864 243.399 196.119 244.954 195.712C246.51 195.304 248.136 195.244 249.717 195.534C251.299 195.825 252.797 196.46 254.106 197.394C255.414 198.328 256.502 199.539 257.291 200.94C257.892 202.02 258.409 203.145 258.838 204.304C258.974 204.639 258.769 204.677 258.558 204.764C254.692 206.363 250.825 207.964 246.959 209.566C245.597 210.13 244.241 210.707 242.869 211.248C242.52 211.385 242.548 211.508 242.7 211.786C243.244 212.715 244.002 213.501 244.91 214.079C245.818 214.658 246.85 215.012 247.922 215.114C248.994 215.215 250.074 215.06 251.075 214.662C252.075 214.263 252.966 213.633 253.675 212.822C253.812 212.665 253.951 212.509 254.082 212.346C254.566 211.748 254.565 211.747 255.22 212.185C256.298 212.906 257.371 213.635 258.457 214.344C258.694 214.499 258.7 214.6 258.533 214.819C257.262 216.654 255.506 218.1 253.46 218.995C251.414 219.889 249.16 220.197 246.95 219.883C244.305 219.615 241.828 218.464 239.918 216.616C238.008 214.768 236.775 212.331 236.42 209.697C236.314 209.017 236.266 208.33 236.278 207.642ZM247.999 200.11C247.762 200.141 247.388 200.161 247.026 200.24C245.507 200.55 244.14 201.372 243.155 202.569C242.17 203.766 241.626 205.265 241.614 206.816C241.599 207.306 241.599 207.305 242.056 207.116C245.289 205.78 248.522 204.444 251.754 203.108C252.726 202.706 252.754 202.618 252.043 201.784C251.529 201.23 250.902 200.793 250.204 200.505C249.506 200.216 248.754 200.081 247.999 200.11L247.999 200.11Z" fill="white"/>
<path d="M228.257 201.165C228.257 195.301 228.255 189.438 228.249 183.575C228.248 183.197 228.314 183.064 228.73 183.073C230.207 183.102 231.685 183.1 233.162 183.074C233.561 183.067 233.653 183.177 233.652 183.568C233.641 194.638 233.638 205.708 233.643 216.779C233.643 217.45 233.627 218.122 233.65 218.793C233.662 219.13 233.583 219.255 233.213 219.249C231.707 219.227 230.199 219.227 228.692 219.249C228.332 219.254 228.249 219.147 228.25 218.8C228.26 212.922 228.263 207.043 228.257 201.165Z" fill="white"/>
<path d="M107.869 138.395H128.621V142.148H120.461V163.25H115.974V142.148H107.851V138.395L107.869 138.395ZM127.734 145.253H131.57V148.726H131.642C131.781 148.211 132.021 147.728 132.348 147.305C132.703 146.829 133.123 146.404 133.596 146.042C134.093 145.658 134.641 145.345 135.224 145.113C135.807 144.885 136.426 144.766 137.052 144.762C137.522 144.762 137.866 144.779 138.047 144.797C138.228 144.815 138.409 144.85 138.608 144.867V148.691C138.318 148.639 138.029 148.603 137.721 148.568C137.427 148.534 137.131 148.516 136.835 148.516C136.163 148.515 135.498 148.653 134.881 148.919C134.269 149.188 133.725 149.589 133.289 150.094C132.809 150.664 132.44 151.318 132.203 152.024C131.921 152.878 131.787 153.774 131.805 154.673V163.233H127.716V145.253L127.734 145.253ZM157.405 163.25H153.389V160.742H153.317C152.795 161.669 152.016 162.424 151.073 162.917C150.146 163.445 149.1 163.729 148.034 163.741C147.077 163.832 146.111 163.723 145.199 163.421C144.286 163.119 143.446 162.631 142.733 161.987C141.538 160.485 140.956 158.586 141.104 156.672V145.253H145.193V156.286C145.071 157.482 145.407 158.679 146.134 159.637C146.479 159.974 146.89 160.236 147.342 160.405C147.794 160.574 148.276 160.647 148.758 160.619C149.495 160.645 150.229 160.514 150.911 160.233C151.452 160.006 151.93 159.651 152.304 159.198C152.674 158.748 152.94 158.221 153.082 157.655C153.246 157.019 153.325 156.364 153.317 155.707V145.271H157.405L157.405 163.25ZM164.372 157.479C164.386 157.964 164.516 158.439 164.753 158.864C164.989 159.288 165.323 159.649 165.728 159.917C166.596 160.398 167.576 160.64 168.568 160.619C169.004 160.612 169.438 160.583 169.871 160.531C170.342 160.479 170.804 160.367 171.246 160.198C171.656 160.05 172.023 159.803 172.314 159.479C172.595 159.135 172.732 158.694 172.694 158.251C172.691 158.014 172.638 157.781 172.538 157.566C172.438 157.351 172.294 157.16 172.115 157.006C171.712 156.656 171.245 156.388 170.74 156.216C170.113 156.002 169.472 155.832 168.822 155.708C168.098 155.567 167.375 155.409 166.633 155.252C165.887 155.092 165.15 154.893 164.426 154.655C163.747 154.44 163.106 154.121 162.525 153.708C161.964 153.321 161.504 152.803 161.187 152.199C160.824 151.496 160.65 150.71 160.68 149.919C160.653 149.041 160.913 148.179 161.422 147.463C161.917 146.799 162.554 146.254 163.286 145.867C164.076 145.455 164.923 145.165 165.8 145.008C166.672 144.852 167.556 144.77 168.442 144.762C169.367 144.761 170.289 144.861 171.192 145.06C172.034 145.238 172.836 145.565 173.562 146.025C174.264 146.466 174.862 147.052 175.317 147.744C175.808 148.517 176.112 149.394 176.204 150.305H171.934C171.885 149.901 171.738 149.515 171.504 149.181C171.27 148.848 170.958 148.577 170.595 148.393C169.833 148.052 169.005 147.884 168.171 147.902C167.826 147.903 167.481 147.926 167.139 147.972C166.757 148.022 166.382 148.11 166.018 148.235C165.685 148.356 165.382 148.547 165.131 148.797C165.01 148.925 164.915 149.077 164.853 149.243C164.791 149.408 164.762 149.584 164.769 149.761C164.762 149.984 164.806 150.205 164.897 150.409C164.988 150.612 165.123 150.793 165.294 150.936C165.698 151.266 166.158 151.521 166.651 151.691C167.277 151.905 167.918 152.075 168.568 152.199C169.292 152.34 170.034 152.498 170.794 152.655C171.536 152.813 172.26 153.024 172.983 153.252C173.669 153.463 174.317 153.782 174.901 154.199C175.455 154.593 175.918 155.101 176.257 155.69C176.625 156.374 176.805 157.142 176.782 157.918C176.811 158.88 176.546 159.829 176.022 160.637C175.516 161.379 174.848 161.997 174.068 162.443C173.233 162.918 172.33 163.261 171.391 163.461C170.434 163.669 169.457 163.775 168.478 163.776C167.38 163.789 166.286 163.659 165.221 163.39C164.297 163.161 163.421 162.769 162.634 162.233C161.921 161.722 161.334 161.057 160.916 160.286C160.481 159.426 160.252 158.477 160.246 157.514H164.372L164.372 157.479ZM177.868 145.253H180.962V139.85H185.051V145.253H188.741V148.218H185.051V157.83C185.048 158.193 185.066 158.556 185.105 158.918C185.134 159.19 185.221 159.453 185.359 159.689C185.498 159.91 185.708 160.078 185.955 160.163C186.305 160.282 186.673 160.335 187.041 160.321C187.33 160.321 187.62 160.321 187.909 160.303C188.202 160.288 188.493 160.247 188.778 160.181V163.25C188.325 163.303 187.873 163.338 187.457 163.39C187.019 163.441 186.578 163.464 186.136 163.461C185.258 163.483 184.381 163.383 183.531 163.162C182.95 163.011 182.42 162.708 181.993 162.285C181.613 161.885 181.35 161.387 181.233 160.847C181.092 160.195 181.014 159.532 180.998 158.865V148.253H177.904V145.253L177.868 145.253ZM191.637 145.253H195.508V147.691H195.58C196.105 146.692 196.954 145.901 197.987 145.446C199.041 144.984 200.182 144.751 201.334 144.762C202.646 144.728 203.95 144.986 205.151 145.516C206.202 145.981 207.131 146.684 207.866 147.568C208.596 148.471 209.143 149.508 209.475 150.621C209.843 151.825 210.026 153.079 210.018 154.339C210.022 155.526 209.857 156.707 209.53 157.848C209.229 158.934 208.732 159.957 208.064 160.865C207.404 161.743 206.55 162.458 205.568 162.952C204.461 163.501 203.238 163.772 202.003 163.741C201.403 163.741 200.803 163.688 200.212 163.583C199.622 163.478 199.045 163.308 198.493 163.075C197.947 162.85 197.435 162.549 196.974 162.18C196.519 161.822 196.122 161.396 195.798 160.917H195.726V169.898H191.637L191.637 145.253ZM205.929 154.269C205.93 153.469 205.821 152.672 205.604 151.901C205.403 151.17 205.072 150.48 204.626 149.866C204.201 149.28 203.651 148.795 203.016 148.446C202.332 148.081 201.566 147.894 200.791 147.902C200.05 147.853 199.309 147.986 198.631 148.288C197.953 148.591 197.359 149.054 196.901 149.638C195.972 150.998 195.515 152.625 195.599 154.269C195.588 155.124 195.703 155.975 195.942 156.795C196.147 157.525 196.498 158.205 196.974 158.795C197.414 159.347 197.97 159.796 198.602 160.11C199.321 160.445 200.106 160.613 200.899 160.601C201.692 160.589 202.472 160.397 203.18 160.04C203.809 159.683 204.353 159.192 204.772 158.602C205.198 157.992 205.504 157.308 205.676 156.585C205.843 155.824 205.928 155.048 205.929 154.269H205.929ZM213.148 138.395H217.237V142.148H213.148L213.148 138.395ZM213.148 145.253H217.237V163.25H213.148L213.148 145.253ZM220.892 138.395H224.98V163.25H220.892V138.395ZM237.519 163.741C236.164 163.762 234.818 163.518 233.557 163.022C232.45 162.575 231.446 161.906 230.607 161.058C229.796 160.196 229.174 159.174 228.78 158.058C228.349 156.83 228.135 155.536 228.147 154.234C228.137 152.944 228.351 151.662 228.78 150.445C229.174 149.329 229.796 148.308 230.607 147.446C231.438 146.587 232.444 145.917 233.557 145.481C236.111 144.522 238.926 144.522 241.481 145.481C242.587 145.928 243.591 146.597 244.43 147.446C245.241 148.308 245.863 149.329 246.257 150.445C246.686 151.662 246.901 152.944 246.89 154.234C246.902 155.536 246.688 156.83 246.257 158.058C245.863 159.174 245.241 160.196 244.43 161.058C243.599 161.916 242.593 162.586 241.481 163.022C240.219 163.518 238.874 163.762 237.519 163.741L237.519 163.741ZM237.519 160.601C238.343 160.619 239.159 160.426 239.889 160.04C240.539 159.683 241.102 159.186 241.535 158.584C241.972 157.967 242.296 157.279 242.494 156.55C242.904 155.039 242.904 153.447 242.494 151.936C242.308 151.203 241.982 150.512 241.535 149.901C241.101 149.305 240.538 148.813 239.889 148.463C239.153 148.094 238.342 147.902 237.519 147.902C236.696 147.902 235.884 148.094 235.149 148.463C234.503 148.819 233.941 149.309 233.502 149.901C233.062 150.516 232.738 151.206 232.543 151.936C232.134 153.447 232.134 155.039 232.543 156.55C232.733 157.282 233.058 157.972 233.502 158.584C233.936 159.186 234.498 159.683 235.149 160.04C235.875 160.434 236.693 160.627 237.519 160.601L237.519 160.601ZM248.085 145.253H251.179V139.851H255.268V145.253H258.958V148.218H255.268V157.83C255.265 158.193 255.283 158.556 255.321 158.918C255.351 159.19 255.438 159.452 255.575 159.689C255.714 159.91 255.925 160.077 256.171 160.163C256.521 160.282 256.889 160.335 257.257 160.321C257.547 160.321 257.837 160.321 258.125 160.303C258.418 160.288 258.709 160.247 258.995 160.181V163.25C258.542 163.303 258.09 163.338 257.673 163.39C257.235 163.441 256.794 163.464 256.352 163.461C255.474 163.483 254.598 163.383 253.748 163.162C253.167 163.011 252.636 162.708 252.209 162.285C251.829 161.885 251.566 161.387 251.45 160.847C251.309 160.195 251.23 159.532 251.214 158.865V148.253H248.12V145.253L248.085 145.253Z" fill="white"/>
<path d="M279.489 71.6113L297.139 124.561H96.9296L87.6543 71.6113H279.489Z" fill="#F9B57C"/>
<path d="M184.063 176.218C225.993 176.218 259.984 175.93 259.984 175.575C259.984 175.22 225.993 174.932 184.063 174.932C142.133 174.932 108.143 175.22 108.143 175.575C108.143 175.93 142.133 176.218 184.063 176.218Z" fill="white"/>
<path d="M124.95 85.9414L131.458 95.0464L141.993 96.5275L136.186 103.723L140.228 114.04L129.917 109.134L121.711 114.005L121.333 103.704L112.464 96.5032L122.344 95.0397L124.95 85.9414Z" fill="white"/>
<path d="M157.012 85.9453L163.778 95.0685L174.393 96.5529L168.746 103.762L173.068 114.102L162.59 109.185L154.476 114.066L153.833 103.744L144.745 96.5286L154.627 95.0618L157.012 85.9453Z" fill="white"/>
<path d="M189.19 85.9492L196.217 95.091L206.913 96.5783L201.428 103.802L206.032 114.163L195.386 109.236L187.364 114.127L186.455 103.784L177.146 96.5539L187.029 95.0843L189.19 85.9492Z" fill="white"/>
<path d="M221.485 85.9551L228.774 95.115L239.551 96.6051L234.231 103.845L239.119 114.227L228.303 109.289L220.374 114.191L219.196 103.825L209.664 96.5808L219.55 95.1083L221.485 85.9551Z" fill="white"/>
<path d="M253.899 85.959L261.452 95.1375L272.311 96.631L267.156 103.885L272.331 114.289L261.345 109.341L253.509 114.252L252.06 103.866L242.304 96.6066L252.191 95.1308L253.899 85.959Z" fill="white"/>
<defs>
<linearGradient id="paint0_linear_104_64506" x1="136.485" y1="509.286" x2="268.792" y2="50.0104" gradientUnits="userSpaceOnUse">
<stop stop-color="#F8A35B"/>
<stop offset="1" stop-color="white" stop-opacity="0"/>
</linearGradient>
<linearGradient id="paint1_linear_104_64506" x1="547.208" y1="204.49" x2="448.765" y2="535.678" gradientUnits="userSpaceOnUse">
<stop stop-color="#91F082"/>
<stop offset="1" stop-color="white" stop-opacity="0"/>
</linearGradient>
</defs>
</svg>
