<svg width="16" height="16" viewBox="0 0 16 16" fill="none" xmlns="http://www.w3.org/2000/svg">
<path d="M8 0C3.58125 0 0 3.58125 0 8C0 12.4187 3.58125 16 8 16C12.4187 16 16 12.4187 16 8C16 3.58125 12.4187 0 8 0ZM10.5 5.5C11.0525 5.5 11.4991 5.94531 11.4991 6.5C11.4991 7.05469 11.0525 7.5 10.5 7.5C9.94375 7.5 9.49719 7.05469 9.49719 6.5C9.49719 5.94531 9.94375 5.5 10.5 5.5ZM5.47188 5.5C6.02813 5.5 6.47469 5.94531 6.47469 6.5C6.47469 7.05469 6.02813 7.5 5.47188 7.5C4.91938 7.5 4.47281 7.05469 4.47281 6.5C4.47281 5.94531 4.94688 5.5 5.47188 5.5ZM8 13.5C6.10781 13.5 3.79688 12.3047 3.50312 10.5859C3.44256 10.2147 3.7945 9.91031 4.15031 10.0234C5.09688 10.3281 6.5 10.5 8 10.5C9.5 10.5 10.9025 10.3281 11.85 10.0234C12.2019 9.91016 12.5538 10.2148 12.4972 10.5859C12.2031 12.3062 9.89062 13.5 8 13.5Z" fill="#F8A35B"/>
</svg>
