<svg width="14" height="14" viewBox="0 0 14 14" fill="none" xmlns="http://www.w3.org/2000/svg">
<g opacity="0.5">
<path d="M7 0C3.13359 0 0 3.13359 0 7C0 10.8664 3.13359 14 7 14C10.8664 14 14 10.8664 14 7C14 3.13359 10.8664 0 7 0ZM9.1875 4.8125C9.67094 4.8125 10.0617 5.20215 10.0617 5.6875C10.0617 6.17285 9.67094 6.5625 9.1875 6.5625C8.70078 6.5625 8.31004 6.17285 8.31004 5.6875C8.31004 5.20215 8.70078 4.8125 9.1875 4.8125ZM4.78789 4.8125C5.27461 4.8125 5.66535 5.20215 5.66535 5.6875C5.66535 6.17285 5.27461 6.5625 4.78789 6.5625C4.30445 6.5625 3.91371 6.17285 3.91371 5.6875C3.91371 5.20215 4.32852 4.8125 4.78789 4.8125ZM7 11.8125C5.34434 11.8125 3.32227 10.7666 3.06523 9.2627C3.01224 8.93785 3.32019 8.67152 3.63152 8.77051C4.45977 9.03711 5.6875 9.1875 7 9.1875C8.3125 9.1875 9.53969 9.03711 10.3688 8.77051C10.6766 8.67139 10.9845 8.93799 10.935 9.2627C10.6777 10.768 8.6543 11.8125 7 11.8125Z" fill="#FF7400"/>
</g>
</svg>
