<svg width="538" height="259" viewBox="0 0 538 259" fill="none" xmlns="http://www.w3.org/2000/svg">
<rect width="538" height="259" fill="white"/>
<path d="M368.5 94.5L370.439 94.0115L368.5 94.5ZM169 106L167.148 105.244L167.066 105.447L167.029 105.663L169 106ZM346.54 58.3975L345.326 59.9871L346.54 58.3975ZM218.874 48.3192L217.976 46.5319L218.874 48.3192ZM96.6311 170.336C97.7231 170.17 98.4733 169.149 98.3067 168.057C98.1401 166.966 97.1199 166.215 96.028 166.382L96.6311 170.336ZM106.459 164.265C105.388 164.535 104.739 165.622 105.009 166.693C105.278 167.764 106.366 168.413 107.437 168.143L106.459 164.265ZM117.949 164.968C118.99 164.599 119.535 163.456 119.166 162.415C118.797 161.374 117.654 160.829 116.613 161.198L117.949 164.968ZM126.412 157.153C125.414 157.628 124.991 158.821 125.466 159.819C125.941 160.816 127.134 161.239 128.132 160.764L126.412 157.153ZM137.814 155.444C138.748 154.854 139.027 153.619 138.437 152.685C137.847 151.751 136.612 151.472 135.678 152.061L137.814 155.444ZM144.185 145.865C143.339 146.575 143.23 147.837 143.941 148.683C144.652 149.528 145.913 149.637 146.759 148.927L144.185 145.865ZM154.699 141.165C155.427 140.334 155.343 139.07 154.513 138.342C153.682 137.615 152.418 137.698 151.69 138.529L154.699 141.165ZM157.927 130.124C157.344 131.062 157.631 132.296 158.569 132.879C159.507 133.462 160.74 133.175 161.324 132.237L157.927 130.124ZM166.406 122.334C166.829 121.313 166.344 120.143 165.324 119.721C164.303 119.298 163.133 119.782 162.71 120.803L166.406 122.334ZM165.962 110.819C165.7 111.892 166.357 112.974 167.43 113.236C168.504 113.498 169.586 112.841 169.848 111.768L165.962 110.819ZM172.743 102.33C173.193 101.321 172.741 100.139 171.732 99.6881C170.723 99.2377 169.541 99.6901 169.09 100.699L172.743 102.33ZM173.424 91.824C172.905 92.7987 173.274 94.0101 174.249 94.5297C175.223 95.0492 176.435 94.6802 176.954 93.7055L173.424 91.824ZM181.783 85.4187C182.375 84.4868 182.101 83.2507 181.169 82.6577C180.237 82.0648 179.001 82.3396 178.408 83.2715L181.783 85.4187ZM184.068 75.1413C183.399 76.02 183.568 77.2749 184.447 77.9442C185.326 78.6134 186.581 78.4436 187.25 77.5649L184.068 75.1413ZM193.378 70.231C194.124 69.417 194.07 68.1518 193.256 67.4052C192.442 66.6585 191.177 66.713 190.43 67.527L193.378 70.231ZM197.494 60.5385C196.672 61.2755 196.602 62.54 197.339 63.3626C198.076 64.1853 199.341 64.2547 200.163 63.5177L197.494 60.5385ZM207.579 57.5294C208.473 56.8811 208.673 55.6305 208.024 54.7362C207.376 53.8419 206.125 53.6426 205.231 54.2909L207.579 57.5294ZM213.591 48.8864C212.632 49.4353 212.3 50.6573 212.849 51.6158C213.398 52.5744 214.62 52.9065 215.578 52.3577L213.591 48.8864ZM224.391 48.637C225.471 48.402 226.155 47.3366 225.92 46.2573C225.685 45.178 224.62 44.4936 223.54 44.7286L224.391 48.637ZM234.537 43.2593C233.436 43.345 232.612 44.3071 232.698 45.4084C232.784 46.5096 233.746 47.3329 234.847 47.2473L234.537 43.2593ZM245.53 46.7502C246.634 46.727 247.511 45.813 247.488 44.7087C247.464 43.6044 246.55 42.7279 245.446 42.7511L245.53 46.7502ZM256.336 42.7275C255.231 42.7113 254.323 43.5936 254.307 44.698C254.291 45.8025 255.173 46.7109 256.277 46.727L256.336 42.7275ZM267.038 47.0353C268.142 47.0814 269.074 46.2242 269.12 45.1206C269.166 44.017 268.309 43.0849 267.205 43.0388L267.038 47.0353ZM278.05 43.6217C276.947 43.5497 275.995 44.3848 275.923 45.487C275.851 46.5892 276.686 47.5411 277.789 47.6132L278.05 43.6217ZM288.522 48.4366C289.622 48.5335 290.593 47.7201 290.69 46.6198C290.786 45.5195 289.973 44.5489 288.873 44.452L288.522 48.4366ZM299.679 45.5318C298.582 45.4087 297.592 46.1987 297.469 47.2964C297.346 48.394 298.136 49.3837 299.233 49.5069L299.679 45.5318ZM309.913 50.851C311.007 51.0047 312.018 50.2427 312.172 49.1489C312.326 48.0551 311.563 47.0437 310.47 46.8899L309.913 50.851ZM321.23 48.5947C320.142 48.4005 319.103 49.1244 318.909 50.2118C318.715 51.2991 319.439 52.3381 320.526 52.5324L321.23 48.5947ZM330.991 54.6936C332.065 54.9525 333.145 54.2918 333.404 53.218C333.663 52.1442 333.002 51.0639 331.929 50.805L330.991 54.6936ZM342.561 54.0417C341.536 53.629 340.371 54.1251 339.958 55.1497C339.546 56.1743 340.042 57.3394 341.066 57.7521L342.561 54.0417ZM349.27 63.3368C350.074 64.0945 351.34 64.0573 352.097 63.2536C352.855 62.4499 352.818 61.1841 352.014 60.4264L349.27 63.3368ZM359.317 68.8489C358.678 67.948 357.429 67.7357 356.528 68.3748C355.627 69.0139 355.415 70.2623 356.054 71.1632L359.317 68.8489ZM361.307 80.1563C361.783 81.153 362.976 81.5751 363.973 81.0991C364.97 80.623 365.392 79.4291 364.916 78.4324L361.307 80.1563ZM368.941 88.7141C368.609 87.6607 367.485 87.0763 366.432 87.4088C365.378 87.7412 364.794 88.8646 365.126 89.918L368.941 88.7141ZM367.853 99.6941C368.169 100.753 369.283 101.355 370.341 101.039C371.4 100.723 372.002 99.6095 371.686 98.551L367.853 99.6941ZM374.76 107.38C374.349 106.355 373.184 105.857 372.159 106.268C371.134 106.679 370.636 107.844 371.047 108.869L374.76 107.38ZM375.095 117.694C375.605 118.674 376.812 119.055 377.792 118.546C378.772 118.036 379.153 116.828 378.644 115.848L375.095 117.694ZM383.374 123.9C382.765 122.978 381.525 122.724 380.603 123.332C379.681 123.941 379.427 125.181 380.035 126.103L383.374 123.9ZM385.824 133.942C386.526 134.794 387.787 134.916 388.639 134.214C389.492 133.511 389.613 132.251 388.911 131.398L385.824 133.942ZM395.209 138.269C394.421 137.495 393.154 137.506 392.38 138.294C391.606 139.082 391.618 140.349 392.406 141.123L395.209 138.269ZM399.69 147.58C400.553 148.27 401.811 148.13 402.501 147.267C403.191 146.405 403.052 145.146 402.189 144.456L399.69 147.58ZM409.753 149.926C408.828 149.322 407.589 149.582 406.985 150.507C406.381 151.431 406.641 152.671 407.566 153.275L409.753 149.926ZM415.933 158.213C416.908 158.732 418.119 158.363 418.638 157.388C419.157 156.413 418.788 155.202 417.813 154.682L415.933 158.213ZM426.258 158.739C425.244 158.301 424.067 158.768 423.629 159.782C423.191 160.796 423.658 161.973 424.671 162.411L426.258 158.739ZM433.684 165.922C434.727 166.287 435.868 165.738 436.233 164.696C436.599 163.654 436.05 162.512 435.008 162.147L433.684 165.922ZM444.026 165.069C442.973 164.737 441.85 165.322 441.518 166.376C441.186 167.429 441.771 168.552 442.825 168.884L444.026 165.069ZM91 169C91.1321 170.996 91.1322 170.996 91.1324 170.996C91.1324 170.996 91.1326 170.996 91.1327 170.996C91.133 170.996 91.1332 170.996 91.1336 170.996C91.1342 170.996 91.1349 170.996 91.1358 170.996C91.1375 170.996 91.1397 170.996 91.1424 170.995C91.1478 170.995 91.1551 170.995 91.1643 170.994C91.1827 170.993 91.2088 170.991 91.2423 170.988C91.3094 170.983 91.4064 170.975 91.5322 170.965C91.7836 170.943 92.1499 170.91 92.6211 170.86C93.5636 170.76 94.9266 170.596 96.6311 170.336L96.028 166.382C94.3892 166.632 93.0874 166.788 92.2009 166.882C91.7577 166.929 91.4185 166.96 91.193 166.979C91.0803 166.989 90.996 166.995 90.9414 166.999C90.9141 167.002 90.8942 167.003 90.8819 167.004C90.8758 167.004 90.8715 167.005 90.8692 167.005C90.868 167.005 90.8673 167.005 90.8671 167.005C90.867 167.005 90.867 167.005 90.8672 167.005C90.8672 167.005 90.8673 167.005 90.8675 167.005C90.8675 167.005 90.8676 167.005 90.8677 167.005C90.8678 167.005 90.8679 167.005 91 169ZM107.437 168.143C110.664 167.33 114.218 166.292 117.949 164.968L116.613 161.198C113.012 162.475 109.579 163.478 106.459 164.265L107.437 168.143ZM128.132 160.764C131.352 159.23 134.608 157.468 137.814 155.444L135.678 152.061C132.619 153.993 129.504 155.68 126.412 157.153L128.132 160.764ZM146.759 148.927C149.534 146.594 152.202 144.015 154.699 141.165L151.69 138.529C149.337 141.216 146.815 143.654 144.185 145.865L146.759 148.927ZM161.324 132.237C163.226 129.178 164.935 125.883 166.406 122.334L162.71 120.803C161.325 124.147 159.716 127.248 157.927 130.124L161.324 132.237ZM169.848 111.768C170.277 110.008 170.653 108.199 170.971 106.337L167.029 105.663C166.726 107.434 166.369 109.151 165.962 110.819L169.848 111.768ZM170.852 106.756C171.467 105.249 172.098 103.773 172.743 102.33L169.09 100.699C168.428 102.182 167.78 103.697 167.148 105.244L170.852 106.756ZM176.954 93.7055C178.506 90.7951 180.118 88.0351 181.783 85.4187L178.408 83.2715C176.687 85.9759 175.023 88.8246 173.424 91.824L176.954 93.7055ZM187.25 77.5649C189.241 74.9507 191.288 72.5092 193.378 70.231L190.43 67.527C188.257 69.8958 186.132 72.4309 184.068 75.1413L187.25 77.5649ZM200.163 63.5177C202.601 61.3336 205.079 59.3419 207.579 57.5294L205.231 54.2909C202.62 56.1838 200.035 58.2619 197.494 60.5385L200.163 63.5177ZM215.578 52.3577C216.975 51.5579 218.374 50.8082 219.771 50.1065L217.976 46.5319C216.514 47.266 215.051 48.0501 213.591 48.8864L215.578 52.3577ZM219.771 50.1065C220.818 49.5806 222.356 49.0801 224.391 48.637L223.54 44.7286C221.355 45.2044 219.45 45.7915 217.976 46.5319L219.771 50.1065ZM234.847 47.2473C238.09 46.9951 241.68 46.8311 245.53 46.7502L245.446 42.7511C241.537 42.8332 237.87 43.0001 234.537 43.2593L234.847 47.2473ZM256.277 46.727C259.762 46.7779 263.366 46.8818 267.038 47.0353L267.205 43.0388C263.499 42.8839 259.859 42.7789 256.336 42.7275L256.277 46.727ZM277.789 47.6132C281.363 47.8469 284.955 48.1223 288.522 48.4366L288.873 44.452C285.276 44.1351 281.654 43.8573 278.05 43.6217L277.789 47.6132ZM299.233 49.5069C302.887 49.9168 306.463 50.366 309.913 50.851L310.47 46.8899C306.98 46.3993 303.367 45.9455 299.679 45.5318L299.233 49.5069ZM320.526 52.5324C324.317 53.2097 327.834 53.9325 330.991 54.6936L331.929 50.805C328.678 50.0213 325.081 49.2828 321.23 48.5947L320.526 52.5324ZM341.066 57.7521C342.991 58.5273 344.405 59.2833 345.326 59.9871L347.754 56.8079C346.425 55.7932 344.639 54.8788 342.561 54.0417L341.066 57.7521ZM345.326 59.9871C346.674 61.0157 347.99 62.1302 349.27 63.3368L352.014 60.4264C350.632 59.1235 349.21 57.9194 347.754 56.8079L345.326 59.9871ZM356.054 71.1632C357.955 73.843 359.718 76.8296 361.307 80.1563L364.916 78.4324C363.232 74.9068 361.355 71.7219 359.317 68.8489L356.054 71.1632ZM365.126 89.918C365.64 91.5447 366.119 93.2341 366.561 94.9885L370.439 94.0115C369.979 92.1832 369.479 90.418 368.941 88.7141L365.126 89.918ZM366.561 94.9885C366.964 96.5911 367.396 98.1594 367.853 99.6941L371.686 98.551C371.245 97.0718 370.829 95.5589 370.439 94.0115L366.561 94.9885ZM371.047 108.869C372.289 111.966 373.644 114.905 375.095 117.694L378.644 115.848C377.253 113.176 375.953 110.356 374.76 107.38L371.047 108.869ZM380.035 126.103C381.875 128.892 383.813 131.501 385.824 133.942L388.911 131.398C386.988 129.064 385.135 126.569 383.374 123.9L380.035 126.103ZM392.406 141.123C394.788 143.464 397.228 145.61 399.69 147.58L402.189 144.456C399.827 142.567 397.49 140.51 395.209 138.269L392.406 141.123ZM407.566 153.275C410.391 155.119 413.197 156.757 415.933 158.213L417.813 154.682C415.173 153.277 412.47 151.7 409.753 149.926L407.566 153.275ZM424.671 162.411C427.921 163.815 430.962 164.967 433.684 165.922L435.008 162.147C432.356 161.217 429.405 160.099 426.258 158.739L424.671 162.411ZM442.825 168.884C444.437 169.392 445.39 169.722 445.833 169.95C445.93 169.999 445.922 170.004 445.865 169.959C445.84 169.939 445.554 169.716 445.397 169.255C445.186 168.633 445.35 168.019 445.652 167.614C445.774 167.452 445.894 167.352 445.963 167.301C446.033 167.249 446.084 167.223 446.096 167.217L447.904 170.784C448.135 170.667 448.538 170.435 448.857 170.008C449.255 169.475 449.442 168.729 449.185 167.971C448.983 167.373 448.58 167.01 448.373 166.843C448.133 166.65 447.876 166.502 447.659 166.391C446.848 165.975 445.525 165.541 444.026 165.069L442.825 168.884Z" fill="url(#paint0_radial_332_28520)"/>
<defs>
<radialGradient id="paint0_radial_332_28520" cx="0" cy="0" r="1" gradientUnits="userSpaceOnUse" gradientTransform="translate(269.5 -27.5) rotate(90.7976) scale(215.521 591.567)">
<stop stop-color="#F8A35B"/>
<stop offset="1" stop-color="#F8A35B" stop-opacity="0"/>
</radialGradient>
</defs>
</svg>
