<svg width="14" height="16" viewBox="0 0 14 16" fill="none" xmlns="http://www.w3.org/2000/svg">
<path d="M0.5 1.00001H4.25L4.54375 0.41563C4.60598 0.290697 4.70183 0.185606 4.82053 0.11218C4.93922 0.0387537 5.07605 -9.46239e-05 5.21562 5.47897e-06H8.7875C8.92676 -0.00052985 9.06335 0.0381736 9.18162 0.111682C9.2999 0.18519 9.39508 0.290529 9.45625 0.41563L9.75 1.00001H13.5C13.6326 1.00001 13.7598 1.05268 13.8536 1.14645C13.9473 1.24022 14 1.3674 14 1.50001V2.50001C14 2.63261 13.9473 2.75979 13.8536 2.85356C13.7598 2.94733 13.6326 3.00001 13.5 3.00001H0.5C0.367392 3.00001 0.240214 2.94733 0.146446 2.85356C0.0526781 2.75979 0 2.63261 0 2.50001V1.50001C0 1.3674 0.0526781 1.24022 0.146446 1.14645C0.240214 1.05268 0.367392 1.00001 0.5 1.00001ZM12.3375 14.5938C12.3137 14.9746 12.1456 15.332 11.8675 15.5932C11.5894 15.8545 11.2222 16 10.8406 16H3.15938C2.77781 16 2.41061 15.8545 2.13252 15.5932C1.85443 15.332 1.68635 14.9746 1.6625 14.5938L1 4.00001H13L12.3375 14.5938Z" fill="white"/>
</svg>
