<svg width="613" height="321" viewBox="0 0 613 321" fill="none" xmlns="http://www.w3.org/2000/svg">
<rect opacity="0.1" width="613" height="321" rx="7" transform="matrix(-1 0 0 1 613 0)" fill="#F8A35B"/>
<rect x="17.5" y="17.5" width="578" height="286" rx="8.5" stroke="#F8A35B" stroke-width="3" stroke-dasharray="12 12"/>
<path d="M241.36 193.312L239.584 195.136V198H237.504V186.8H239.584V192.544L245.12 186.8H247.456L242.752 191.808L247.744 198H245.312L241.36 193.312ZM248.812 189.456H250.812V198H248.812V189.456ZM249.82 188.048C249.457 188.048 249.153 187.936 248.908 187.712C248.663 187.477 248.54 187.189 248.54 186.848C248.54 186.507 248.663 186.224 248.908 186C249.153 185.765 249.457 185.648 249.82 185.648C250.183 185.648 250.487 185.76 250.732 185.984C250.977 186.197 251.1 186.469 251.1 186.8C251.1 187.152 250.977 187.451 250.732 187.696C250.497 187.931 250.193 188.048 249.82 188.048ZM261.469 193.776C261.469 193.915 261.458 194.112 261.437 194.368H254.733C254.85 194.997 255.154 195.499 255.645 195.872C256.146 196.235 256.765 196.416 257.501 196.416C258.44 196.416 259.213 196.107 259.821 195.488L260.893 196.72C260.509 197.179 260.024 197.525 259.437 197.76C258.85 197.995 258.189 198.112 257.453 198.112C256.514 198.112 255.688 197.925 254.973 197.552C254.258 197.179 253.704 196.661 253.309 196C252.925 195.328 252.733 194.571 252.733 193.728C252.733 192.896 252.92 192.149 253.293 191.488C253.677 190.816 254.205 190.293 254.877 189.92C255.549 189.547 256.306 189.36 257.149 189.36C257.981 189.36 258.722 189.547 259.373 189.92C260.034 190.283 260.546 190.8 260.909 191.472C261.282 192.133 261.469 192.901 261.469 193.776ZM257.149 190.96C256.509 190.96 255.965 191.152 255.517 191.536C255.08 191.909 254.813 192.411 254.717 193.04H259.565C259.48 192.421 259.218 191.92 258.781 191.536C258.344 191.152 257.8 190.96 257.149 190.96ZM266.03 198.112C265.337 198.112 264.659 198.021 263.998 197.84C263.337 197.659 262.809 197.429 262.414 197.152L263.182 195.632C263.566 195.888 264.025 196.096 264.558 196.256C265.102 196.405 265.635 196.48 266.158 196.48C267.353 196.48 267.95 196.165 267.95 195.536C267.95 195.237 267.795 195.029 267.486 194.912C267.187 194.795 266.702 194.683 266.03 194.576C265.326 194.469 264.75 194.347 264.302 194.208C263.865 194.069 263.481 193.829 263.15 193.488C262.83 193.136 262.67 192.651 262.67 192.032C262.67 191.221 263.006 190.576 263.678 190.096C264.361 189.605 265.278 189.36 266.43 189.36C267.017 189.36 267.603 189.429 268.19 189.568C268.777 189.696 269.257 189.872 269.63 190.096L268.862 191.616C268.137 191.189 267.321 190.976 266.414 190.976C265.827 190.976 265.379 191.067 265.07 191.248C264.771 191.419 264.622 191.648 264.622 191.936C264.622 192.256 264.782 192.485 265.102 192.624C265.433 192.752 265.939 192.875 266.622 192.992C267.305 193.099 267.865 193.221 268.302 193.36C268.739 193.499 269.113 193.733 269.422 194.064C269.742 194.395 269.902 194.864 269.902 195.472C269.902 196.272 269.555 196.912 268.862 197.392C268.169 197.872 267.225 198.112 266.03 198.112ZM284.078 193.776C284.078 193.915 284.068 194.112 284.046 194.368H277.342C277.46 194.997 277.764 195.499 278.254 195.872C278.756 196.235 279.374 196.416 280.11 196.416C281.049 196.416 281.822 196.107 282.43 195.488L283.502 196.72C283.118 197.179 282.633 197.525 282.046 197.76C281.46 197.995 280.798 198.112 280.062 198.112C279.124 198.112 278.297 197.925 277.582 197.552C276.868 197.179 276.313 196.661 275.918 196C275.534 195.328 275.342 194.571 275.342 193.728C275.342 192.896 275.529 192.149 275.902 191.488C276.286 190.816 276.814 190.293 277.486 189.92C278.158 189.547 278.916 189.36 279.758 189.36C280.59 189.36 281.332 189.547 281.982 189.92C282.644 190.283 283.156 190.8 283.518 191.472C283.892 192.133 284.078 192.901 284.078 193.776ZM279.758 190.96C279.118 190.96 278.574 191.152 278.126 191.536C277.689 191.909 277.422 192.411 277.326 193.04H282.174C282.089 192.421 281.828 191.92 281.39 191.536C280.953 191.152 280.409 190.96 279.758 190.96ZM294.032 193.776C294.032 193.915 294.021 194.112 294 194.368H287.296C287.413 194.997 287.717 195.499 288.208 195.872C288.709 196.235 289.328 196.416 290.064 196.416C291.002 196.416 291.776 196.107 292.384 195.488L293.456 196.72C293.072 197.179 292.586 197.525 292 197.76C291.413 197.995 290.752 198.112 290.016 198.112C289.077 198.112 288.25 197.925 287.536 197.552C286.821 197.179 286.266 196.661 285.872 196C285.488 195.328 285.296 194.571 285.296 193.728C285.296 192.896 285.482 192.149 285.856 191.488C286.24 190.816 286.768 190.293 287.44 189.92C288.112 189.547 288.869 189.36 289.712 189.36C290.544 189.36 291.285 189.547 291.936 189.92C292.597 190.283 293.109 190.8 293.472 191.472C293.845 192.133 294.032 192.901 294.032 193.776ZM289.712 190.96C289.072 190.96 288.528 191.152 288.08 191.536C287.642 191.909 287.376 192.411 287.28 193.04H292.128C292.042 192.421 291.781 191.92 291.344 191.536C290.906 191.152 290.362 190.96 289.712 190.96ZM300.801 189.36C301.878 189.36 302.742 189.675 303.393 190.304C304.043 190.933 304.369 191.867 304.369 193.104V198H302.369V193.36C302.369 192.613 302.193 192.053 301.841 191.68C301.489 191.296 300.987 191.104 300.337 191.104C299.601 191.104 299.019 191.328 298.593 191.776C298.166 192.213 297.953 192.848 297.953 193.68V198H295.953V189.456H297.857V190.56C298.187 190.165 298.603 189.867 299.105 189.664C299.606 189.461 300.171 189.36 300.801 189.36ZM316.064 189.36C316.896 189.36 317.637 189.541 318.288 189.904C318.949 190.267 319.466 190.779 319.84 191.44C320.213 192.101 320.4 192.864 320.4 193.728C320.4 194.592 320.213 195.36 319.84 196.032C319.466 196.693 318.949 197.205 318.288 197.568C317.637 197.931 316.896 198.112 316.064 198.112C315.477 198.112 314.938 198.011 314.448 197.808C313.968 197.605 313.562 197.301 313.232 196.896V198H311.328V186.128H313.328V190.496C313.669 190.123 314.069 189.84 314.528 189.648C314.997 189.456 315.509 189.36 316.064 189.36ZM315.84 196.4C316.576 196.4 317.178 196.155 317.648 195.664C318.128 195.173 318.368 194.528 318.368 193.728C318.368 192.928 318.128 192.283 317.648 191.792C317.178 191.301 316.576 191.056 315.84 191.056C315.36 191.056 314.928 191.168 314.544 191.392C314.16 191.605 313.856 191.915 313.632 192.32C313.408 192.725 313.296 193.195 313.296 193.728C313.296 194.261 313.408 194.731 313.632 195.136C313.856 195.541 314.16 195.856 314.544 196.08C314.928 196.293 315.36 196.4 315.84 196.4ZM330.328 193.776C330.328 193.915 330.318 194.112 330.296 194.368H323.592C323.71 194.997 324.014 195.499 324.504 195.872C325.006 196.235 325.624 196.416 326.36 196.416C327.299 196.416 328.072 196.107 328.68 195.488L329.752 196.72C329.368 197.179 328.883 197.525 328.296 197.76C327.71 197.995 327.048 198.112 326.312 198.112C325.374 198.112 324.547 197.925 323.832 197.552C323.118 197.179 322.563 196.661 322.168 196C321.784 195.328 321.592 194.571 321.592 193.728C321.592 192.896 321.779 192.149 322.152 191.488C322.536 190.816 323.064 190.293 323.736 189.92C324.408 189.547 325.166 189.36 326.008 189.36C326.84 189.36 327.582 189.547 328.232 189.92C328.894 190.283 329.406 190.8 329.768 191.472C330.142 192.133 330.328 192.901 330.328 193.776ZM326.008 190.96C325.368 190.96 324.824 191.152 324.376 191.536C323.939 191.909 323.672 192.411 323.576 193.04H328.424C328.339 192.421 328.078 191.92 327.64 191.536C327.203 191.152 326.659 190.96 326.008 190.96ZM334.89 198.112C334.196 198.112 333.519 198.021 332.858 197.84C332.196 197.659 331.668 197.429 331.274 197.152L332.042 195.632C332.426 195.888 332.884 196.096 333.418 196.256C333.962 196.405 334.495 196.48 335.018 196.48C336.212 196.48 336.81 196.165 336.81 195.536C336.81 195.237 336.655 195.029 336.346 194.912C336.047 194.795 335.562 194.683 334.89 194.576C334.186 194.469 333.61 194.347 333.162 194.208C332.724 194.069 332.34 193.829 332.01 193.488C331.69 193.136 331.53 192.651 331.53 192.032C331.53 191.221 331.866 190.576 332.538 190.096C333.22 189.605 334.138 189.36 335.29 189.36C335.876 189.36 336.463 189.429 337.05 189.568C337.636 189.696 338.116 189.872 338.49 190.096L337.722 191.616C336.996 191.189 336.18 190.976 335.274 190.976C334.687 190.976 334.239 191.067 333.93 191.248C333.631 191.419 333.482 191.648 333.482 191.936C333.482 192.256 333.642 192.485 333.962 192.624C334.292 192.752 334.799 192.875 335.482 192.992C336.164 193.099 336.724 193.221 337.162 193.36C337.599 193.499 337.972 193.733 338.282 194.064C338.602 194.395 338.762 194.864 338.762 195.472C338.762 196.272 338.415 196.912 337.722 197.392C337.028 197.872 336.084 198.112 334.89 198.112ZM345.62 197.536C345.385 197.728 345.097 197.872 344.756 197.968C344.425 198.064 344.073 198.112 343.7 198.112C342.761 198.112 342.036 197.867 341.524 197.376C341.012 196.885 340.756 196.171 340.756 195.232V191.12H339.348V189.52H340.756V187.568H342.756V189.52H345.044V191.12H342.756V195.184C342.756 195.6 342.857 195.92 343.06 196.144C343.263 196.357 343.556 196.464 343.94 196.464C344.388 196.464 344.761 196.347 345.06 196.112L345.62 197.536ZM350.529 189.36C351.788 189.36 352.748 189.664 353.409 190.272C354.081 190.869 354.417 191.776 354.417 192.992V198H352.529V196.96C352.284 197.333 351.932 197.621 351.473 197.824C351.025 198.016 350.481 198.112 349.841 198.112C349.201 198.112 348.641 198.005 348.161 197.792C347.681 197.568 347.308 197.264 347.041 196.88C346.785 196.485 346.657 196.043 346.657 195.552C346.657 194.784 346.94 194.171 347.505 193.712C348.081 193.243 348.982 193.008 350.209 193.008H352.417V192.88C352.417 192.283 352.236 191.824 351.873 191.504C351.521 191.184 350.993 191.024 350.289 191.024C349.809 191.024 349.334 191.099 348.865 191.248C348.406 191.397 348.017 191.605 347.697 191.872L346.913 190.416C347.361 190.075 347.9 189.813 348.529 189.632C349.158 189.451 349.825 189.36 350.529 189.36ZM350.257 196.656C350.758 196.656 351.201 196.544 351.585 196.32C351.98 196.085 352.257 195.755 352.417 195.328V194.336H350.353C349.201 194.336 348.625 194.715 348.625 195.472C348.625 195.835 348.769 196.123 349.057 196.336C349.345 196.549 349.745 196.656 350.257 196.656ZM361.832 189.36C362.909 189.36 363.773 189.675 364.424 190.304C365.075 190.933 365.4 191.867 365.4 193.104V198H363.4V193.36C363.4 192.613 363.224 192.053 362.872 191.68C362.52 191.296 362.019 191.104 361.368 191.104C360.632 191.104 360.051 191.328 359.624 191.776C359.197 192.213 358.984 192.848 358.984 193.68V198H356.984V189.456H358.888V190.56C359.219 190.165 359.635 189.867 360.136 189.664C360.637 189.461 361.203 189.36 361.832 189.36ZM376.383 186.128V198H374.463V196.896C374.132 197.301 373.722 197.605 373.231 197.808C372.751 198.011 372.218 198.112 371.631 198.112C370.81 198.112 370.068 197.931 369.407 197.568C368.756 197.205 368.244 196.693 367.871 196.032C367.498 195.36 367.311 194.592 367.311 193.728C367.311 192.864 367.498 192.101 367.871 191.44C368.244 190.779 368.756 190.267 369.407 189.904C370.068 189.541 370.81 189.36 371.631 189.36C372.196 189.36 372.714 189.456 373.183 189.648C373.652 189.84 374.052 190.128 374.383 190.512V186.128H376.383ZM371.871 196.4C372.351 196.4 372.783 196.293 373.167 196.08C373.551 195.856 373.855 195.541 374.079 195.136C374.303 194.731 374.415 194.261 374.415 193.728C374.415 193.195 374.303 192.725 374.079 192.32C373.855 191.915 373.551 191.605 373.167 191.392C372.783 191.168 372.351 191.056 371.871 191.056C371.391 191.056 370.959 191.168 370.575 191.392C370.191 191.605 369.887 191.915 369.663 192.32C369.439 192.725 369.327 193.195 369.327 193.728C369.327 194.261 369.439 194.731 369.663 195.136C369.887 195.541 370.191 195.856 370.575 196.08C370.959 196.293 371.391 196.4 371.871 196.4Z" fill="#F8A35B"/>
<path d="M303.056 173C297.563 173 293.026 168.787 293.026 163.942V135.294C292.548 128.342 298.757 122.444 306.638 122.023C314.52 121.601 321.207 127.079 321.684 134.03C321.684 134.451 321.684 134.872 321.684 135.294V149.618C321.684 150.46 320.968 151.092 320.012 151.092C319.057 151.092 318.341 150.46 318.341 149.618V135.294C318.58 129.817 313.564 125.393 307.355 125.393C301.146 125.183 296.13 129.607 296.13 135.083C296.13 135.294 296.13 135.294 296.13 135.505V164.152C296.13 167.523 298.996 170.261 302.817 170.261C306.639 170.261 309.743 167.734 309.743 164.363C309.743 164.153 309.743 164.153 309.743 163.942V137.19C309.743 135.715 308.31 134.451 306.638 134.451C304.967 134.451 303.534 135.715 303.534 137.19V161.625C303.534 162.467 302.817 163.099 301.862 163.099C300.907 163.099 300.19 162.467 300.19 161.625V137.19C300.19 134.241 302.817 131.713 306.161 131.502C309.504 131.502 312.37 133.819 312.609 136.768V136.979V163.731C313.325 168.997 308.788 173 303.056 173Z" fill="#F8A35B"/>
</svg>
