<svg width="175" height="173" viewBox="0 0 175 173" fill="none" xmlns="http://www.w3.org/2000/svg">
<path d="M88.2143 172.989C40.2839 172.988 1.42855 134.264 1.42855 86.4942C1.42855 38.7248 40.2839 -1.17773e-05 88.2143 -7.58705e-06C136.145 -3.39683e-06 175 38.7248 175 86.4943C175 134.264 136.145 172.989 88.2143 172.989Z" fill="#F8A35B"/>
<path d="M34.5536 24.7832C34.7747 25.3082 35.0455 25.8112 35.3621 26.2851L37.8617 30.3882C38.9644 32.1832 40.3244 34.3448 42.089 36.726C43.8535 39.1072 45.7648 41.9647 48.1542 44.8223L51.83 49.4016C53.1165 50.9769 54.6237 52.5155 56.0938 54.1641C58.9611 57.4977 62.3795 60.7583 65.9081 64.2386C73.7904 71.5582 82.22 78.2695 91.1241 84.3143C100.134 90.215 109.598 95.3966 119.428 99.8106C124.023 101.752 128.323 103.657 132.55 105.013C134.609 105.745 136.594 106.514 138.579 107.101L144.24 108.749C147.915 109.885 151.15 110.508 154.054 111.204C156.958 111.9 159.494 112.34 161.406 112.669L166.184 113.402C166.746 113.46 167.313 113.46 167.875 113.402L166.221 112.962L161.516 111.973C159.457 111.607 156.958 111.094 154.164 110.325C151.37 109.555 147.989 108.859 144.423 107.687L138.836 105.965C136.888 105.343 134.903 104.537 132.844 103.804C128.691 102.412 124.427 100.47 119.869 98.5285C110.149 94.0599 100.774 88.8802 91.8221 83.0321C82.9669 77.0486 74.5747 70.4114 66.7162 63.1762C63.0405 59.7325 59.7322 56.5453 56.8284 53.2481C55.3579 51.6362 53.8878 50.1343 52.5645 48.5588L48.8887 44.0895C46.426 41.2686 44.5145 38.4843 42.7134 36.1399C40.9123 33.7954 39.4419 31.707 38.3024 29.9486C37.1629 28.1902 36.2807 27.0179 35.5823 25.992C35.2874 25.5508 34.9422 25.1452 34.5536 24.7832Z" fill="#263238"/>
<path d="M99.1393 90.0929C99.9233 89.1797 100.624 88.1989 101.235 87.1622C102.024 85.9811 102.748 84.7582 103.403 83.4987C104.357 81.8954 105.228 80.2447 106.013 78.5532C108.133 74.181 109.903 69.6486 111.306 64.9983C113.024 59.2995 114.253 53.466 114.982 47.5602C115.629 41.6478 115.752 35.6899 115.35 29.7559C115.018 24.9086 114.305 20.0948 113.218 15.3586C112.813 13.3071 112.225 11.6952 111.784 9.97345C111.42 8.60631 110.978 7.2609 110.461 5.94373C110.104 4.80184 109.637 3.69746 109.064 2.64648C108.807 2.64648 110.608 7.51894 112.262 15.542C113.198 20.2576 113.812 25.0311 114.1 29.8296C114.389 35.6947 114.229 41.5732 113.622 47.4141C112.918 53.2459 111.763 59.0147 110.167 64.6691C108.829 69.2723 107.171 73.7771 105.204 78.1506C101.749 85.66 98.882 89.9462 99.1393 90.0929Z" fill="#263238"/>
<path d="M75.8684 69.8023C76.5672 69.1489 77.1955 68.4245 77.743 67.6408C79.32 65.5772 80.7567 63.411 82.0437 61.1564C83.9761 57.8145 85.6355 54.3229 87.0059 50.7156C88.6325 46.29 89.8626 41.7296 90.6817 37.0876C91.5098 32.4316 91.928 27.7123 91.9316 22.9836C91.9332 19.1294 91.6135 15.2818 90.9759 11.4803C90.5804 8.91504 90.0031 6.38088 89.2483 3.89689C89.0482 2.96255 88.7139 2.06188 88.2558 1.22266C88.0353 1.22266 89.1747 5.17927 90.0201 11.627C90.4924 15.3938 90.7134 19.1877 90.6817 22.9836C90.5933 32.2992 88.9024 41.5306 85.6827 50.2764C84.3751 53.8443 82.8278 57.3203 81.0511 60.6808C78.1106 66.3953 75.6478 69.6192 75.8684 69.8023Z" fill="#263238"/>
<path d="M54.2934 50.0104C55.9828 48.2785 57.4182 46.3174 58.5572 44.1854C61.5283 39.1696 63.7218 33.7352 65.0635 28.0661C66.3854 22.3782 66.8194 16.5211 66.35 10.7013C66.2658 8.29498 65.8324 5.91344 65.0635 3.63086C65.0392 6.07735 65.1497 8.52334 65.3944 10.9578C65.5527 16.6602 64.9845 22.3597 63.7034 27.9196C62.3962 33.4295 60.3825 38.7486 57.7118 43.7458C55.6534 47.6291 54.1096 49.8637 54.2934 50.0104Z" fill="#263238"/>
<path d="M11.8332 42.9336C12.0352 43.502 12.3067 44.0434 12.6417 44.5455L15.1413 49.0148C16.2072 50.9566 17.6041 53.301 19.3686 55.9388C21.1331 58.5766 23.0444 61.6538 25.397 64.8409L29.0728 69.8965C30.3593 71.6182 31.8664 73.3402 33.3366 75.1719C36.2039 78.8354 39.6589 82.4988 43.1878 86.4554C58.9096 103.159 77.1835 117.279 97.3323 128.292C102.001 130.747 106.411 133.165 110.749 135.033C112.881 135.985 114.903 136.975 116.924 137.817L122.769 140.125C126.445 141.664 129.9 142.726 132.914 143.789C135.928 144.851 138.538 145.584 140.707 146.133L145.669 147.452C146.243 147.636 146.834 147.759 147.434 147.818C146.887 147.568 146.322 147.359 145.743 147.196L140.854 145.62C138.722 144.998 136.112 144.192 133.171 143.056C130.23 141.921 126.775 140.858 123.136 139.393L117.365 137.011C115.344 136.169 113.358 135.143 111.227 134.19C106.963 132.285 102.589 129.831 97.9571 127.376C77.9825 116.322 59.8222 102.288 44.1064 85.7595C40.4306 81.8762 37.1224 78.4326 34.1818 74.7691C32.7114 72.974 31.2044 71.1056 29.9179 69.5672C28.6314 68.0288 27.3449 66.1969 26.2422 64.5849C23.7794 61.4711 21.8311 58.4304 20.03 55.8659C18.2289 53.3014 16.7953 50.9566 15.619 49.052L12.8989 44.7291C12.6314 44.083 12.2726 43.4783 11.8332 42.9336Z" fill="#263238"/>
<path d="M3.8147e-05 54.7344C0.128349 55.3127 0.313011 55.8772 0.55146 56.4197L2.42621 61.0723C2.86729 62.0982 3.30833 63.1972 3.82297 64.4426C4.33762 65.6881 4.99924 66.9338 5.69766 68.3259C7.0945 71.0735 8.52809 74.334 10.5498 77.6677L13.6375 82.9797C14.7034 84.8115 15.9901 86.6432 17.3134 88.5483C19.7393 92.468 22.7903 96.3148 25.8781 100.455C32.9062 109.212 40.652 117.373 49.0356 124.853C57.5568 132.173 66.6803 138.766 76.31 144.562C80.8312 147.127 85.0584 149.618 89.2489 151.523C91.3441 152.512 93.329 153.538 95.2773 154.381L100.975 156.725C104.651 158.301 107.959 159.29 110.899 160.389C112.37 160.865 113.73 161.378 115.016 161.744L118.692 162.66L123.581 163.906C124.128 164.089 124.696 164.2 125.272 164.236C124.746 163.975 124.191 163.778 123.618 163.65L118.839 162.148L115.164 161.122C113.914 160.719 112.554 160.169 111.12 159.656C108.216 158.594 104.834 157.531 101.306 155.993L95.6818 153.611C93.7335 152.732 91.7854 151.67 89.727 150.681C85.5733 148.739 81.3828 146.248 76.9353 143.684C67.4069 137.871 58.3712 131.291 49.9183 124.011C41.59 116.59 33.8707 108.516 26.8341 99.8686C23.7463 95.8022 20.6955 91.9556 18.2326 88.1088C16.9461 86.2037 15.6596 84.4454 14.5568 82.6136C13.454 80.7819 12.4248 78.9502 11.4324 77.3749C9.37401 74.0777 7.7567 70.8905 6.39664 68.1796C5.69826 66.7874 4.99979 65.542 4.44833 64.333L2.94138 61.0358L0.846153 56.4931C0.631645 55.8769 0.347794 55.2869 3.8147e-05 54.7344Z" fill="#263238"/>
<path d="M109.469 69.8995C112.206 69.0165 114.893 67.9893 117.519 66.8221C123.952 64.3034 130.531 62.1746 137.222 60.4476C143.927 58.754 150.727 57.4574 157.586 56.5643C160.459 56.3249 163.318 55.9335 166.15 55.392C165.369 55.3016 164.579 55.3016 163.798 55.392C161.685 55.3652 159.574 55.4754 157.476 55.7218C150.526 56.383 143.641 57.6082 136.891 59.3853C130.131 61.1007 123.528 63.3801 117.152 66.1992C115.207 67.0162 113.305 67.9333 111.455 68.9468C110.752 69.1709 110.084 69.4915 109.469 69.8995Z" fill="#263238"/>
<path d="M111.961 40.5914C112.145 40.9577 119.864 36.928 130.082 33.8141C140.301 30.7002 148.976 29.711 148.939 29.3081C147.024 29.1014 145.089 29.2004 143.205 29.6012C138.631 30.1842 134.117 31.1648 129.715 32.5319C125.289 33.861 120.985 35.5647 116.85 37.6242C115.064 38.3318 113.411 39.3349 111.961 40.5914Z" fill="#263238"/>
<path d="M119.721 96.3476C122.228 95.6481 124.684 94.779 127.072 93.7465C138.825 89.3492 151.09 86.4564 163.573 85.1375C166.176 84.9841 168.767 84.6659 171.329 84.1849C168.727 83.9045 166.102 83.9045 163.5 84.1849C157.182 84.578 150.911 85.5095 144.753 86.9692C138.598 88.4264 132.574 90.3869 126.742 92.8306C124.274 93.7321 121.919 94.9121 119.721 96.3476Z" fill="#263238"/>
<path d="M44.9944 72.0971C41.5031 69.1819 38.2119 66.0364 35.1432 62.682C27.8377 54.5139 22.5285 44.7711 19.6315 34.2168C18.7874 31.2643 18.403 28.2002 18.4918 25.1315C18.5204 22.328 19.391 19.5973 20.9914 17.2916C22.5031 15.2608 24.6711 13.8117 27.1299 13.1886C29.3197 12.6588 31.592 12.5592 33.8199 12.8954C37.0664 13.4794 40.2111 14.5282 43.1564 16.0093C44.2491 16.5733 45.3789 17.0629 46.5381 17.4747C45.5695 16.7177 44.522 16.0667 43.4137 15.533C40.4873 13.8046 37.2959 12.567 33.9669 11.8696C31.6277 11.3794 29.2118 11.3794 26.8726 11.8696C24.1246 12.4855 21.6796 14.0409 19.9621 16.2658C18.1751 18.7585 17.1998 21.7383 17.1684 24.8017C17.0564 28.0161 17.4408 31.2285 18.3079 34.3266C21.2355 45.0879 26.7777 54.9649 34.4447 63.0847C36.7098 65.5245 39.1683 67.7788 41.7963 69.8255C42.7719 70.7019 43.8449 71.4641 44.9944 72.0971Z" fill="#455A64"/>
</svg>
