<svg width="92" height="122" viewBox="0 0 92 122" fill="none" xmlns="http://www.w3.org/2000/svg">
<path opacity="0.49" d="M40.6714 43.2116C40.6714 41.3576 42.2098 39.8364 44.0847 39.8364C45.9596 39.8364 47.498 41.3576 47.498 43.2116C47.498 45.0656 46.0077 46.5868 44.0847 46.5868C42.1617 46.5868 40.6714 45.0656 40.6714 43.2116Z" fill="#1EE100"/>
<path d="M45.2383 66.7436C46.5844 66.6485 47.5459 65.5076 47.4979 64.1765C47.4017 62.8454 46.2479 61.8947 44.9018 61.9422C43.6038 62.0373 43.1711 62.0373 43.075 62.0373C36.5849 62.0373 31.3447 59.3276 28.316 54.3836C27.643 53.2427 26.1527 52.91 24.9989 53.5755C23.8451 54.241 23.5086 55.7147 24.1816 56.8556C28.0757 63.1782 34.9503 66.7911 43.075 66.7911C43.2192 66.8862 43.6519 66.8862 45.2383 66.7436ZM25.3835 39.2665C27.018 30.4719 34.758 24.292 44.2288 24.292C52.7861 24.292 59.8531 29.4736 62.3049 37.5076C62.7376 38.8862 64.1798 39.6943 65.622 39.2665C67.0162 38.8387 67.8335 37.4125 67.4008 35.9864C64.276 25.7181 55.1898 19.0628 44.2769 19.0628C32.2582 19.0628 22.3548 26.9541 20.2395 38.2682C19.9991 39.6943 20.9125 41.073 22.3548 41.3106C22.499 41.3582 22.6913 41.3582 22.8355 41.3582C24.0374 41.4057 25.1431 40.5025 25.3835 39.2665ZM84.4193 61.2767C86.9192 55.7147 88.1691 49.7724 88.1691 43.5925C88.1691 19.5382 68.4104 0 44.0846 0C19.7587 0 0 19.5382 0 43.5925C0 43.9728 0 44.4006 0 44.7809C0.0480748 46.3497 1.34609 47.5857 2.98063 47.5381C4.5671 47.4906 5.81705 46.2071 5.76897 44.5908C5.76897 44.258 5.76897 43.9252 5.76897 43.5449C5.76897 22.7232 22.9797 5.70458 44.0846 5.70458C65.1894 5.70458 82.4001 22.7232 82.4001 43.5925C82.4001 48.9167 81.2944 54.0984 79.1311 58.9473C78.5061 60.3734 79.1311 62.0848 80.6214 62.7028C81.006 62.893 81.3906 62.9405 81.7752 62.9405C82.8809 62.988 83.9385 62.3225 84.4193 61.2767Z" fill="url(#paint0_linear_15_1983)"/>
<path d="M88.8421 89.7027C81.9194 89.2748 74.1313 89.3224 66.247 89.7027C66.6797 87.2782 67.8815 85.139 69.0834 82.9998C70.3814 80.718 71.7275 78.4361 72.9294 76.1543C73.3621 75.3462 73.7947 74.538 74.1793 73.7299C76.0062 69.9744 77.1119 65.9336 77.16 61.7027V61.5601C77.208 54.2868 74.7082 47.9167 70.3334 42.1645C70.1411 41.9269 69.9488 41.6892 69.6603 41.499C69.2757 41.2138 68.8911 41.0236 68.5065 40.881C68.2181 40.7859 67.9296 40.7384 67.6892 40.7384C66.4393 40.7384 65.2374 41.5466 64.6605 43.0202C63.7952 45.1595 62.9298 47.3462 62.0164 49.5805C61.9683 49.533 61.8722 49.533 61.8241 49.4854C61.5838 49.3903 61.3434 49.2953 61.1511 49.2002C58.4589 47.9642 55.7186 46.7282 53.0264 45.5398C52.4976 45.3021 52.0169 45.207 51.5361 45.207C49.6131 45.207 48.0747 46.7757 48.3151 48.915C48.3632 49.533 48.7478 50.1985 49.0843 50.7214C51.1996 53.8589 52.2573 56.9964 52.3053 60.134C52.3053 62.3683 51.8246 64.6026 50.7189 66.8368C50.2381 67.8827 49.6131 68.881 48.892 69.8793C47.4498 71.8759 45.8633 73.7299 44.2288 75.5363C42.6904 77.2477 41.0078 78.864 39.4213 80.5754C37.931 82.2392 36.4887 83.9506 35.3349 85.9947C35.1426 86.375 34.9023 86.7553 34.71 87.1356C34.5177 86.7553 34.2773 86.4226 33.9888 86.1373C33.7965 85.9472 33.5562 85.7095 33.3639 85.5669C32.0659 84.3309 30.7678 83.0473 29.3256 81.954C27.2103 80.3852 24.9027 79.0541 22.6432 77.628C19.5183 75.7265 16.3454 73.8725 13.5571 71.448C11.1053 69.3088 9.1342 66.8368 8.12463 63.6993C7.21121 60.847 7.30736 58.1374 8.22078 55.8555C9.37457 52.9557 11.9225 50.6739 15.5281 49.5805C16.9223 49.1527 18.2684 48.9625 19.6145 48.9625C19.7587 48.9625 19.8549 48.9625 19.9991 48.9625C22.2586 49.01 24.47 49.6756 26.6334 50.8165C26.6815 50.8165 26.6815 50.864 26.7296 50.864C27.2103 51.1017 27.6911 51.1968 28.1237 51.1968C29.0852 51.1968 29.9506 50.7214 30.4313 49.8182C31.2486 48.4871 30.7678 46.8233 29.3256 46.1102C27.9795 45.3971 26.6334 44.8267 25.2392 44.3988C23.4124 43.8284 21.5375 43.5432 19.6626 43.5432C19.5664 43.5432 19.5183 43.5432 19.4222 43.5432C17.1146 43.5432 14.7589 44.0185 12.3552 44.9693C10.0476 45.8725 8.07656 47.1561 6.53816 48.7723C4.27865 51.0542 2.83641 53.954 2.35566 57.1391C2.11529 58.5177 2.11529 59.9438 2.21144 61.4175C2.69218 66.6467 5.19207 70.9251 8.98998 74.4905C11.8745 77.2477 15.2397 79.3394 18.6049 81.4311C21.5375 83.285 24.5181 85.139 27.3545 87.1356C29.4217 88.6093 31.0082 90.4633 31.9216 92.7927C17.5473 94.6467 6.82661 96.5482 5.86512 96.7383C4.42288 96.976 3.46138 98.3546 3.74983 99.7808C3.9902 101.064 5.09592 101.92 6.34587 101.92C6.49009 101.92 6.68239 101.92 6.82661 101.872C7.30736 101.777 57.257 92.7927 88.4095 94.7893C89.8517 94.8843 91.1016 93.791 91.1978 92.3648C91.3901 91.0338 90.2844 89.7978 88.8421 89.7027ZM41.3443 86.7553C41.5847 86.375 41.8731 86.0423 42.1616 85.7095C43.2192 84.4735 44.3249 83.285 45.4306 82.1441C45.9114 81.6687 46.3441 81.1934 46.8248 80.718C49.3247 78.1509 51.6804 75.4888 53.6995 72.4939C55.6225 69.6891 56.9205 66.7893 57.4493 63.7469C57.882 61.37 57.8339 58.9931 57.3532 56.4735C57.1609 55.4752 56.9205 54.5245 56.584 53.5262C56.5359 53.3835 56.5359 53.1934 56.4878 52.9557C57.4493 53.3836 58.4108 53.8114 59.3242 54.2392C60.0934 54.572 60.8626 54.9523 61.6318 55.2851C62.2568 55.5703 62.8337 55.7129 63.3625 55.7129C64.6605 55.7129 65.7182 54.9048 66.3432 53.3836C66.8239 52.1476 67.3046 50.9591 67.8815 49.5805C68.0258 49.2477 68.17 48.915 68.3142 48.5347C68.4104 48.7723 68.4584 48.8674 68.5065 48.9625C70.9583 53.4311 72.2083 58.1374 71.6795 63.2715C71.391 66.0287 70.5737 68.6433 69.468 71.1153C69.0834 71.971 68.6988 72.7791 68.2661 73.5873C66.6797 76.5822 64.8528 79.4345 63.2183 82.3818C63.2183 82.4294 63.1702 82.4294 63.1702 82.4769C62.0645 84.4735 61.2953 86.5652 60.9107 88.7519C60.8626 88.9421 60.8146 89.0847 60.8146 89.2748C60.8146 89.3224 60.8146 89.4175 60.8146 89.465C60.8146 89.6551 60.8146 89.7978 60.8626 89.9404C59.2762 90.0355 57.6897 90.1781 56.1032 90.2731C56.2955 88.2765 56.9686 86.375 57.882 84.5686C58.0743 84.1407 58.3147 83.7129 58.555 83.3326C59.3723 81.8589 60.2377 80.3852 61.0069 78.9115C61.3915 78.1985 61.3915 77.3903 61.1511 76.7723C60.7665 75.774 59.805 75.0134 58.507 74.9659C57.5455 75.0134 56.7282 75.4888 56.1994 76.4871C55.6706 77.4378 55.1417 78.3886 54.6129 79.3394C54.1802 80.1 53.7956 80.8131 53.363 81.5737C52.5457 83.0949 51.9207 84.6161 51.44 86.1849C51.0073 87.6586 50.7189 89.2273 50.6227 90.7961C46.5844 91.1764 42.6423 91.6042 38.8444 92.0321C39.2771 90.1305 40.1424 88.3716 41.3443 86.7553Z" fill="#F8A35B"/>
<path d="M8.54913 118.724C9.15196 119.654 9.45374 120.302 9.45374 120.667C9.45887 120.991 9.33068 121.303 9.09849 121.531C8.87142 121.765 8.55646 121.896 8.22904 121.89C7.77417 121.89 7.3823 121.599 7.05268 121.017C6.13855 119.413 5.29841 118.154 4.53297 117.241L3.48187 118.05V120.685C3.48846 121.015 3.35734 121.333 3.12002 121.564C2.63952 122.046 1.85723 122.05 1.3716 121.573C1.36867 121.57 1.36501 121.567 1.36208 121.564C1.12476 121.333 0.993645 121.015 1.00024 120.685V113.261C0.995842 112.931 1.12622 112.614 1.36208 112.382C1.84258 111.9 2.62487 111.896 3.1105 112.373C3.11343 112.376 3.11709 112.38 3.12002 112.382C3.35588 112.614 3.48699 112.931 3.48187 113.261V116.087C5.37165 114.632 5.66171 114.198 6.54508 113.138C6.61027 113.06 6.67473 112.981 6.73625 112.901C7.03291 112.514 7.65405 112.087 7.93678 112.028C8.00783 112.015 8.07962 112.008 8.15213 112.007C8.50445 112.007 8.72053 112.208 8.79964 112.609C8.80403 112.639 8.80623 112.669 8.80623 112.698C8.80623 113.257 7.99685 114.34 6.37734 115.949C6.77801 116.367 7.1567 116.806 7.51195 117.263C7.87818 117.737 8.22391 118.223 8.54913 118.724Z" fill="#3F2B4F"/>
<path d="M17.6823 117.571L17.7036 120.555C17.7087 120.865 17.5849 121.162 17.3622 121.378C17.1505 121.6 16.8546 121.722 16.5477 121.717C16.0423 121.717 15.69 121.486 15.49 121.025L15.4344 120.887C14.9868 121.579 14.2683 121.926 13.2801 121.926C12.8429 121.93 12.4092 121.846 12.0064 121.677C11.6343 121.521 11.3135 121.265 11.0813 120.937C10.8388 120.589 10.7136 120.173 10.7238 119.749C10.7121 119.313 10.8549 118.888 11.1274 118.546C11.4021 118.212 11.7537 117.948 12.1529 117.778C12.574 117.591 13.0172 117.457 13.4713 117.377C13.9196 117.301 14.3737 117.262 14.8286 117.26H15.3091C15.3091 116.817 15.1978 116.46 14.9751 116.188C14.7524 115.917 14.425 115.78 13.9936 115.78C13.8266 115.775 13.661 115.813 13.5131 115.89C13.3519 115.992 13.201 116.107 13.0611 116.236C12.9205 116.366 12.7667 116.479 12.6011 116.575C12.451 116.652 12.284 116.69 12.1155 116.685C11.8994 116.69 11.687 116.632 11.5032 116.519C11.3296 116.409 11.2285 116.214 11.2387 116.01C11.2387 115.71 11.4175 115.475 11.7749 115.304C12.1587 115.121 12.5704 114.999 12.993 114.945C13.3805 114.882 13.7724 114.847 14.165 114.841C14.9465 114.841 15.6167 114.959 16.1764 115.194L16.2247 115.214C16.3294 115.259 16.4313 115.31 16.5309 115.366C16.9535 115.607 17.2502 115.904 17.4223 116.259C17.5944 116.614 17.6809 117.051 17.6823 117.571ZM15.386 118.145H15.1282C14.5759 118.145 14.1005 118.284 13.7013 118.56C13.3021 118.837 13.1051 119.238 13.1102 119.763C13.1036 120.021 13.1871 120.273 13.3468 120.476C13.505 120.672 13.7475 120.782 14.0009 120.773C14.4228 120.773 14.7847 120.547 15.0864 120.095C15.2146 119.898 15.3003 119.677 15.3369 119.445C15.3743 119.164 15.3904 118.879 15.386 118.595V118.145Z" fill="#3F2B4F"/>
<path d="M22.8913 120.427C22.9975 120.351 23.1096 120.281 23.2253 120.22C23.3352 120.164 23.4575 120.136 23.5805 120.137C23.7952 120.133 24.0002 120.221 24.1445 120.379C24.2969 120.534 24.3797 120.744 24.3738 120.961C24.3738 121.285 24.2134 121.527 23.8933 121.689C23.5695 121.85 23.2121 121.933 22.8495 121.931C22.35 121.94 21.8563 121.82 21.4161 121.585C20.9964 121.347 20.6646 120.982 20.4697 120.543C20.3086 120.196 20.2075 119.824 20.1701 119.443C20.1284 119.042 20.1071 117.857 20.1079 115.888H19.8288C19.5087 115.888 19.3021 115.833 19.2099 115.722C19.122 115.622 19.0743 115.492 19.0773 115.358C19.0773 115.109 19.1425 114.954 19.2721 114.895C19.4018 114.835 19.6061 114.798 19.8991 114.798H20.1079V113.173C20.1079 112.396 20.5019 112.007 21.2908 112.004C22.0797 112.001 22.4738 112.39 22.4738 113.173V114.798H22.9191C23.2949 114.798 23.5593 114.833 23.7124 114.902C23.8655 114.971 23.9387 115.128 23.9321 115.372C23.9321 115.584 23.8669 115.724 23.7366 115.794C23.5608 115.866 23.3703 115.899 23.1799 115.89H22.4562V119.757C22.4562 120.282 22.528 120.545 22.6723 120.545L22.8913 120.427Z" fill="#3F2B4F"/>
<path d="M28.7936 120.427C28.8998 120.35 29.0112 120.281 29.1276 120.22C29.2375 120.164 29.3598 120.136 29.4829 120.137C29.6968 120.133 29.9026 120.221 30.0462 120.379C30.1992 120.534 30.282 120.744 30.2762 120.961C30.2762 121.285 30.1157 121.527 29.7957 121.689C29.4719 121.85 29.1144 121.933 28.7519 121.931C28.2523 121.94 27.7586 121.82 27.3184 121.585C26.8987 121.347 26.5669 120.982 26.3713 120.543C26.2109 120.196 26.1098 119.824 26.0725 119.443C26.0307 119.042 26.0102 117.857 26.0095 115.888H25.7311C25.411 115.888 25.2052 115.833 25.1122 115.722C25.0243 115.622 24.9767 115.492 24.9796 115.358C24.9796 115.109 25.0448 114.954 25.1745 114.895C25.3041 114.835 25.5085 114.798 25.8007 114.798H26.0095V113.173C26.0095 112.396 26.4043 112.007 27.1932 112.004C27.982 112.001 28.3768 112.39 28.3776 113.173V114.798H28.8229C29.1987 114.798 29.4631 114.833 29.6162 114.902C29.7693 114.971 29.8425 115.128 29.8359 115.372C29.8359 115.584 29.7707 115.724 29.6411 115.794C29.4646 115.866 29.2749 115.899 29.0844 115.89H28.3607V119.757C28.3607 120.282 28.4325 120.545 28.5761 120.545L28.7936 120.427Z" fill="#3F2B4F"/>
<path d="M34.5132 120.421C34.845 120.706 35.2713 120.859 35.7101 120.849C36.0565 120.854 36.3993 120.779 36.7121 120.631C37.0534 120.464 37.3677 120.247 37.6445 119.988C37.8027 119.854 37.9097 119.769 37.9646 119.732C38.0481 119.688 38.1426 119.669 38.2364 119.677C38.3419 119.678 38.4429 119.718 38.522 119.787C38.6055 119.852 38.6539 119.951 38.6539 120.057C38.6539 120.292 38.5242 120.536 38.2642 120.79C38.0357 121.028 37.7735 121.231 37.4849 121.392C36.8117 121.798 36.0177 122.001 35.1043 122C34.6187 122 34.1367 121.921 33.6775 121.765C33.2226 121.616 32.7978 121.387 32.4249 121.087C32.0624 120.797 31.7672 120.431 31.5621 120.015C31.3453 119.581 31.2354 119.103 31.242 118.619C31.242 117.842 31.4412 117.164 31.8404 116.585C32.2389 116 32.7897 115.534 33.4343 115.237C34.1008 114.927 34.8282 114.769 35.5636 114.773C36.0272 114.774 36.488 114.848 36.9282 114.992C37.3589 115.124 37.7485 115.362 38.0628 115.683C38.3616 116.001 38.5213 116.424 38.5081 116.859C38.5133 117.327 38.3001 117.772 37.9302 118.062C37.5178 118.397 37.0461 118.651 36.5385 118.809C36.2682 118.893 35.9943 118.962 35.7167 119.017C35.4156 119.076 35.0787 119.135 34.708 119.19C34.3374 119.245 34.0422 119.282 33.8518 119.314C33.9419 119.747 34.1748 120.136 34.5132 120.421ZM35.4654 117.889C35.9994 117.626 36.2668 117.233 36.266 116.706C36.266 116.421 36.1928 116.196 36.0463 116.029C35.8998 115.862 35.6866 115.777 35.4061 115.773C34.8772 115.773 34.4641 116.038 34.1675 116.568C33.8701 117.116 33.7192 117.731 33.728 118.353C34.3323 118.313 34.9227 118.155 35.4654 117.889Z" fill="#3F2B4F"/>
<path d="M47.5347 120.773C47.5347 121.543 47.1399 121.928 46.351 121.928C45.5621 121.928 45.1673 121.543 45.1681 120.773L45.1615 117.668C45.1615 117.147 45.0985 116.741 44.9732 116.451C44.848 116.16 44.5528 116.017 44.0891 116.022C43.5881 116.022 43.2168 116.214 42.9758 116.596C42.8549 116.785 42.7853 117.094 42.767 117.523V120.773C42.767 121.543 42.3729 121.928 41.5841 121.928C40.7952 121.928 40.4011 121.543 40.4004 120.773V116.001C40.4004 115.224 40.7952 114.836 41.5841 114.836C42.173 114.836 42.5509 115.113 42.7179 115.666C43.2658 115.113 43.9741 114.836 44.8421 114.836C45.7101 114.836 46.3972 115.085 46.9026 115.583C47.3157 115.984 47.5222 116.663 47.5222 117.621L47.5347 120.773Z" fill="#3F2B4F"/>
<path d="M57.5599 114.701C57.5599 115.6 57.3673 116.287 56.982 116.762C56.73 117.065 56.4173 117.313 56.0635 117.489C57.0333 118.654 57.5182 119.696 57.5182 120.616C57.5248 120.964 57.3863 121.299 57.1358 121.542C56.8985 121.795 56.5645 121.935 56.2166 121.929C55.5764 121.929 55.1611 121.623 54.9714 121.01C54.7106 120.153 54.3634 119.324 53.9349 118.535C53.8543 118.387 53.7635 118.244 53.6631 118.107L51.9301 118.19V120.686C51.9374 121.014 51.8092 121.332 51.5756 121.565C51.3507 121.803 51.0343 121.935 50.7054 121.929C50.3765 121.934 50.0608 121.802 49.8352 121.565C49.5979 121.334 49.4668 121.016 49.4734 120.686V113.249C49.4734 112.525 49.8257 112.109 50.5311 112.004H53.6009C55.0527 112.004 56.1125 112.299 56.7813 112.889C57.3006 113.341 57.5599 113.945 57.5599 114.701ZM51.9433 117.142C53.127 117.142 53.962 116.856 54.4491 116.285C54.7692 115.902 54.9289 115.402 54.9289 114.784C54.9369 114.441 54.8527 114.102 54.6857 113.802C54.5231 113.53 54.2836 113.311 53.9964 113.173C53.6837 113.026 53.3409 112.952 52.9944 112.959C52.5769 112.959 52.2941 113.034 52.1455 113.186C52.0107 113.325 51.9433 113.592 51.9433 113.987V117.142Z" fill="#3F2B4F"/>
<path d="M65.9531 117.571L65.9743 120.555C65.9795 120.865 65.8564 121.163 65.633 121.379C65.4213 121.599 65.1261 121.722 64.8192 121.717C64.3131 121.717 63.96 121.486 63.7608 121.026L63.7051 120.887C63.2598 121.58 62.5442 121.926 61.5582 121.926C61.1209 121.93 60.6881 121.846 60.2852 121.677C59.9131 121.521 59.5923 121.265 59.3593 120.938C59.1169 120.588 58.9931 120.172 59.0041 119.748C58.9924 119.312 59.1352 118.886 59.4077 118.544C59.6824 118.21 60.034 117.946 60.4332 117.776C60.8543 117.589 61.2975 117.455 61.7516 117.375C62.1999 117.299 62.654 117.26 63.1089 117.258H63.5894C63.5894 116.815 63.4781 116.458 63.2554 116.186C63.0327 115.915 62.7053 115.779 62.2739 115.778C62.1069 115.773 61.9413 115.811 61.7934 115.888C61.6322 115.99 61.4813 116.105 61.3414 116.234C61.2008 116.363 61.047 116.477 60.8822 116.573C60.732 116.651 60.5643 116.688 60.3951 116.684C60.179 116.688 59.9658 116.631 59.782 116.518C59.6084 116.407 59.508 116.213 59.5176 116.009C59.5176 115.709 59.6963 115.474 60.0537 115.303C60.4376 115.12 60.8492 114.998 61.2718 114.944C61.6593 114.88 62.0512 114.845 62.4438 114.84C63.2283 114.84 63.8992 114.958 64.4552 115.193L64.5043 115.213C64.609 115.259 64.7108 115.309 64.8104 115.365C65.2323 115.605 65.529 115.903 65.7011 116.257C65.8733 116.612 65.9568 117.05 65.9531 117.571ZM63.6568 118.146H63.399C62.8467 118.146 62.3713 118.284 61.9721 118.56C61.5729 118.837 61.3759 119.238 61.381 119.764C61.3744 120.021 61.4579 120.273 61.6176 120.476C61.7758 120.673 62.019 120.783 62.2717 120.773C62.6936 120.773 63.0554 120.547 63.3572 120.095C63.4854 119.898 63.5711 119.677 63.6077 119.445C63.6451 119.164 63.6619 118.879 63.6568 118.595V118.146Z" fill="#3F2B4F"/>
<path d="M75.4454 120.538C75.4454 121.315 75.0484 121.703 74.2551 121.703C73.6984 121.703 73.3249 121.448 73.1352 120.936C72.6803 121.595 71.9859 121.924 71.0535 121.924C70.4462 121.933 69.8485 121.773 69.3277 121.461C68.8194 121.159 68.4048 120.723 68.1309 120.202C67.8416 119.667 67.6936 119.067 67.6995 118.46C67.6921 117.804 67.8577 117.158 68.1792 116.585C68.4891 116.029 68.9469 115.567 69.5021 115.251C70.0756 114.925 70.7275 114.758 71.3882 114.767C71.9822 114.775 72.5646 114.935 73.0788 115.23V113.169C73.0788 112.392 73.4736 112.003 74.2624 112C75.0513 111.997 75.4461 112.387 75.4454 113.169V120.538ZM71.7566 120.787C72.2064 120.8 72.6283 120.573 72.8634 120.192C72.9982 119.985 73.07 119.685 73.0788 119.293V117.195C73.0656 116.766 72.9652 116.444 72.7799 116.227C72.5433 115.95 72.1932 115.794 71.8277 115.805C71.2527 115.805 70.8374 116.069 70.5825 116.6C70.3276 117.15 70.1994 117.751 70.2067 118.356C70.1965 118.938 70.3151 119.514 70.5546 120.044C70.7854 120.54 71.186 120.787 71.7566 120.787Z" fill="#3F2B4F"/>
<path d="M84.0408 117.571L84.0613 120.555C84.0665 120.865 83.9434 121.162 83.7207 121.378C83.509 121.6 83.2131 121.722 82.9062 121.717C82.4008 121.717 82.0485 121.486 81.8485 121.025L81.7928 120.887C81.3475 121.579 80.6304 121.924 79.6423 121.924C79.205 121.929 78.7714 121.844 78.3685 121.675C77.9964 121.52 77.6756 121.263 77.4427 120.936C77.201 120.587 77.0764 120.169 77.0882 119.746C77.0764 119.31 77.2193 118.884 77.4918 118.543C77.7657 118.208 78.118 117.944 78.5172 117.775C78.9384 117.588 79.3815 117.453 79.8357 117.374C80.2839 117.297 80.7381 117.258 81.193 117.257H81.6727C81.6727 116.813 81.5614 116.456 81.3387 116.184C81.116 115.913 80.7894 115.777 80.3579 115.776C80.1909 115.771 80.0254 115.809 79.8774 115.887C79.7163 115.988 79.5647 116.104 79.4248 116.232C79.2849 116.362 79.1303 116.476 78.9655 116.572C78.8153 116.65 78.6476 116.689 78.4784 116.685C78.2623 116.69 78.0499 116.632 77.866 116.519C77.6925 116.409 77.5914 116.214 77.6016 116.01C77.6016 115.71 77.7804 115.475 78.1371 115.304C78.5209 115.121 78.9325 114.999 79.3552 114.945C79.7427 114.882 80.1345 114.847 80.5271 114.841C81.3109 114.841 81.9811 114.959 82.5385 115.194L82.5869 115.214C82.6916 115.259 82.7934 115.31 82.893 115.366C83.3149 115.607 83.6116 115.904 83.7837 116.259C83.9558 116.614 84.0415 117.051 84.0408 117.571ZM81.7438 118.145H81.4867C80.9344 118.145 80.459 118.284 80.0598 118.56C79.6606 118.837 79.4636 119.238 79.468 119.763C79.4614 120.021 79.5449 120.273 79.7046 120.476C79.8635 120.672 80.106 120.782 80.3594 120.773C80.7813 120.773 81.1431 120.547 81.4449 120.095C81.5731 119.898 81.6588 119.677 81.6954 119.445C81.7321 119.164 81.7482 118.879 81.7438 118.595V118.145V118.145Z" fill="#3F2B4F"/>
<path d="M90.6996 115.13C90.9003 115.326 91.0094 115.597 90.9992 115.877C91.0007 116.115 90.9303 116.349 90.797 116.548C90.682 116.735 90.4755 116.849 90.2542 116.845C90.085 116.84 89.918 116.81 89.7576 116.758C89.6111 116.709 89.4595 116.678 89.305 116.669C89.0501 116.669 88.834 116.841 88.6574 117.187C88.5139 117.445 88.4282 117.824 88.4003 118.321V120.769C88.4062 121.077 88.2853 121.375 88.0663 121.592C87.6224 122.039 86.898 122.044 86.4483 121.603C86.4446 121.6 86.441 121.596 86.4373 121.592C86.2183 121.375 86.0974 121.077 86.1033 120.769V115.997C86.0967 115.691 86.2175 115.396 86.4373 115.182C86.649 114.96 86.9442 114.837 87.2518 114.842C87.9103 114.842 88.289 115.17 88.3864 115.824C88.5329 115.625 88.6985 115.439 88.8801 115.271C89.2097 114.985 89.5628 114.842 89.9386 114.842C90.2213 114.831 90.496 114.935 90.6996 115.13Z" fill="#3F2B4F"/>
<defs>
<linearGradient id="paint0_linear_15_1983" x1="41.1532" y1="-11.8111" x2="44.4395" y2="51.3372" gradientUnits="userSpaceOnUse">
<stop stop-color="#1EE100"/>
<stop offset="0.1099" stop-color="#4CE734"/>
<stop offset="0.2388" stop-color="#7BED69"/>
<stop offset="0.3695" stop-color="#A3F397"/>
<stop offset="0.4992" stop-color="#C4F7BC"/>
<stop offset="0.6277" stop-color="#DEFBDA"/>
<stop offset="0.7548" stop-color="#F0FDEE"/>
<stop offset="0.8797" stop-color="#FBFFFB"/>
<stop offset="1" stop-color="white"/>
</linearGradient>
</defs>
</svg>
