<svg width="27" height="27" viewBox="0 0 27 27" fill="none" xmlns="http://www.w3.org/2000/svg">
<path d="M0 7C0 3.13401 3.13401 0 7 0H20C23.866 0 27 3.13401 27 7V20C27 23.866 23.866 27 20 27H7C3.13401 27 0 23.866 0 20V7Z" fill="#F8A35B"/>
<path d="M11.3592 22H14.1989V13.6965H16.5668L16.9228 10.848H14.1989V9.03495C14.1989 8.21285 14.422 7.65293 15.5587 7.65293H17V5.11109C16.7512 5.07554 15.889 5 14.8853 5C12.792 5 11.3592 6.32424 11.3592 8.75499V10.8524H9V13.7009H11.3592V22Z" fill="white"/>
<path d="M14.5691 22C14.5872 21.9939 14.6054 21.9877 14.6235 21.9815L14.6188 22H14.5691Z" fill="white"/>
</svg>
