<svg width="27" height="27" viewBox="0 0 27 27" fill="none" xmlns="http://www.w3.org/2000/svg">
<path d="M18.9917 13.4968C18.9917 16.5283 16.5342 18.9858 13.5027 18.9858C10.4711 18.9858 8.01367 16.5283 8.01367 13.4968C8.01367 10.4653 10.4711 8.00781 13.5027 8.00781C16.5342 8.00781 18.9917 10.4653 18.9917 13.4968Z" fill="#F8A35B"/>
<path d="M26.3371 3.78814C26.0732 3.07313 25.6523 2.42595 25.1053 1.89473C24.5741 1.34775 23.9273 0.926797 23.2119 0.662936C22.6316 0.437581 21.76 0.169344 20.1545 0.0962679C18.4177 0.0170657 17.897 0 13.5002 0C9.10298 0 8.58226 0.0166281 6.84594 0.0958303C5.24046 0.169344 4.36836 0.437581 3.78857 0.662936C3.07312 0.926797 2.42594 1.34775 1.89516 1.89473C1.34818 2.42595 0.927232 3.0727 0.662934 3.78814C0.43758 4.36837 0.169344 5.24047 0.0962676 6.84596C0.0170656 8.58228 0 9.103 0 13.5003C0 17.8971 0.0170656 18.4178 0.0962676 20.1546C0.169344 21.76 0.43758 22.6317 0.662934 23.2119C0.927232 23.9274 1.34775 24.5741 1.89472 25.1054C2.42594 25.6523 3.07269 26.0733 3.78813 26.3371C4.36836 26.5629 5.24046 26.8312 6.84594 26.9042C8.58226 26.9835 9.10254 27.0001 13.4998 27.0001C17.8975 27.0001 18.4182 26.9835 20.1541 26.9042C21.7595 26.8312 22.6316 26.5629 23.2119 26.3371C24.648 25.7832 25.7831 24.6481 26.3371 23.2119C26.5624 22.6317 26.8307 21.76 26.9042 20.1546C26.9834 18.4178 27 17.8971 27 13.5003C27 9.103 26.9834 8.58228 26.9042 6.84596C26.8311 5.24047 26.5629 4.36837 26.3371 3.78814ZM13.5002 21.9556C8.82993 21.9556 5.04398 18.1701 5.04398 13.4998C5.04398 8.82952 8.82993 5.044 13.5002 5.044C18.1701 5.044 21.956 8.82952 21.956 13.4998C21.956 18.1701 18.1701 21.9556 13.5002 21.9556ZM22.2903 6.6858C21.199 6.6858 20.3142 5.80102 20.3142 4.70969C20.3142 3.61836 21.199 2.73357 22.2903 2.73357C23.3817 2.73357 24.2664 3.61836 24.2664 4.70969C24.266 5.80102 23.3817 6.6858 22.2903 6.6858Z" fill="#F8A35B"/>
</svg>
