<svg width="20" height="20" viewBox="0 0 20 20" fill="none" xmlns="http://www.w3.org/2000/svg">
<circle cx="10" cy="10" r="10" fill="#F8A35B"/>
<path d="M10.1488 16.6673H7.5L9.25345 7.12646H11.9023L10.1488 16.6673ZM9.56123 4.70156C9.5488 4.3077 9.68559 3.98144 9.97161 3.72279C10.2576 3.46413 10.6027 3.3348 11.0069 3.3348C11.4048 3.32305 11.7499 3.43768 12.0422 3.6787C12.3344 3.91972 12.4868 4.23128 12.4992 4.61339C12.5116 4.97785 12.381 5.2953 12.1075 5.56571C11.8401 5.83612 11.4888 5.97721 11.0535 5.98896C10.6618 6.00072 10.3167 5.88903 10.0182 5.65389C9.72601 5.41874 9.57367 5.1013 9.56123 4.70156Z" fill="white"/>
</svg>
