<svg width="248" height="48" viewBox="0 0 248 48" fill="none" xmlns="http://www.w3.org/2000/svg">
<path opacity="0.49" d="M19.1543 20.3511C19.1543 19.4779 19.8788 18.7615 20.7618 18.7615C21.6448 18.7615 22.3693 19.4779 22.3693 20.3511C22.3693 21.2242 21.6675 21.9406 20.7618 21.9406C19.8562 21.9406 19.1543 21.2242 19.1543 20.3511Z" fill="#1EE100"/>
<path d="M21.3053 31.4334C21.9393 31.3886 22.3921 30.8513 22.3695 30.2244C22.3242 29.5975 21.7808 29.1498 21.1469 29.1721C20.5355 29.2169 20.3318 29.2169 20.2865 29.2169C17.2299 29.2169 14.762 27.9408 13.3357 25.6124C13.0187 25.0751 12.3168 24.9183 11.7734 25.2318C11.23 25.5452 11.0715 26.2393 11.3885 26.7766C13.2224 29.7542 16.4601 31.4558 20.2865 31.4558C20.3544 31.5005 20.5582 31.5005 21.3053 31.4334ZM11.9545 18.4929C12.7243 14.351 16.3696 11.4405 20.8299 11.4405C24.86 11.4405 28.1883 13.8808 29.343 17.6645C29.5467 18.3138 30.226 18.6944 30.9052 18.4929C31.5618 18.2914 31.9467 17.6197 31.7429 16.9481C30.2712 12.1121 25.9921 8.97777 20.8525 8.97777C15.1922 8.97777 10.5281 12.6943 9.53193 18.0227C9.41873 18.6944 9.84891 19.3436 10.5281 19.4556C10.5961 19.4779 10.6866 19.4779 10.7546 19.4779C11.3206 19.5003 11.8413 19.075 11.9545 18.4929ZM39.7579 28.8587C40.9352 26.2393 41.5239 23.4407 41.5239 20.5302C41.5239 9.20165 32.2184 0 20.762 0C9.30552 0 0 9.20165 0 20.5302C0 20.7093 0 20.9108 0 21.0899C0.0226412 21.8287 0.633953 22.4108 1.40375 22.3884C2.15091 22.3661 2.73958 21.7616 2.71694 21.0004C2.71694 20.8436 2.71694 20.6869 2.71694 20.5078C2.71694 10.7017 10.8225 2.68661 20.762 2.68661C30.7014 2.68661 38.807 10.7017 38.807 20.5302C38.807 23.0377 38.2862 25.4781 37.2674 27.7617C36.973 28.4333 37.2674 29.2393 37.9692 29.5304C38.1504 29.6199 38.3315 29.6423 38.5126 29.6423C39.0334 29.6647 39.5315 29.3513 39.7579 28.8587Z" fill="url(#paint0_linear_1_1873)"/>
<path d="M41.8409 42.2464C38.5805 42.0449 34.9127 42.0673 31.1995 42.2464C31.4033 41.1046 31.9693 40.0971 32.5353 39.0896C33.1466 38.015 33.7806 36.9403 34.3466 35.8657C34.5504 35.4851 34.7542 35.1045 34.9353 34.7239C35.7957 32.9552 36.3164 31.0522 36.3391 29.0596V28.9924C36.3617 25.567 35.1844 22.5669 33.124 19.8579C33.0334 19.746 32.9429 19.634 32.807 19.5445C32.6259 19.4102 32.4448 19.3206 32.2636 19.2534C32.1278 19.2087 31.992 19.1863 31.8787 19.1863C31.2901 19.1863 30.724 19.5669 30.4524 20.2609C30.0448 21.2684 29.6373 22.2983 29.2071 23.3505C29.1844 23.3281 29.1392 23.3281 29.1165 23.3058C29.0033 23.261 28.8901 23.2162 28.7995 23.1714C27.5316 22.5893 26.2411 22.0072 24.9732 21.4475C24.7241 21.3356 24.4977 21.2908 24.2713 21.2908C23.3657 21.2908 22.6411 22.0296 22.7544 23.0371C22.777 23.3281 22.9581 23.6416 23.1166 23.8879C24.1128 25.3655 24.6109 26.8431 24.6336 28.3208C24.6336 29.373 24.4072 30.4253 23.8864 31.4775C23.66 31.9701 23.3657 32.4402 23.026 32.9104C22.3468 33.8507 21.5997 34.7239 20.8299 35.5746C20.1053 36.3806 19.3129 37.1418 18.5657 37.9478C17.8639 38.7314 17.1846 39.5374 16.6412 40.5001C16.5507 40.6792 16.4375 40.8583 16.3469 41.0374C16.2563 40.8583 16.1431 40.7016 16.0073 40.5672C15.9167 40.4777 15.8035 40.3658 15.713 40.2986C15.1016 39.7165 14.4903 39.112 13.8111 38.5971C12.8149 37.8582 11.7281 37.2314 10.664 36.5597C9.19229 35.6642 7.69798 34.791 6.38479 33.6492C5.23009 32.6417 4.3018 31.4775 3.82634 29.9999C3.39616 28.6566 3.44144 27.3805 3.87162 26.3058C4.41501 24.9401 5.61499 23.8655 7.31308 23.3505C7.96967 23.149 8.60362 23.0595 9.23758 23.0595C9.3055 23.0595 9.35078 23.0595 9.41871 23.0595C10.4828 23.0819 11.5243 23.3953 12.5432 23.9326C12.5658 23.9326 12.5658 23.955 12.5885 23.955C12.8149 24.067 13.0413 24.1117 13.2451 24.1117C13.6979 24.1117 14.1054 23.8879 14.3318 23.4625C14.7167 22.8356 14.4903 22.052 13.8111 21.7162C13.1771 21.3803 12.5432 21.1117 11.8866 20.9102C11.0262 20.6415 10.1432 20.5072 9.26022 20.5072C9.21494 20.5072 9.1923 20.5072 9.14701 20.5072C8.06024 20.5072 6.95082 20.7311 5.81876 21.1789C4.73198 21.6042 3.8037 22.2087 3.07918 22.9699C2.01504 24.0446 1.33581 25.4103 1.1094 26.9103C0.996192 27.5596 0.996192 28.2312 1.04147 28.9253C1.26789 31.388 2.44523 33.4029 4.23388 35.0821C5.59235 36.3806 7.17723 37.3657 8.76211 38.3508C10.1432 39.2239 11.547 40.0971 12.8828 41.0374C13.8564 41.7314 14.6035 42.6046 15.0337 43.7016C8.26401 44.5748 3.21503 45.4703 2.7622 45.5599C2.08297 45.6718 1.63014 46.3211 1.76599 46.9927C1.8792 47.5972 2.39994 48.0002 2.98861 48.0002C3.05654 48.0002 3.1471 48.0002 3.21503 47.9778C3.44144 47.933 26.9656 43.7016 41.6371 44.6419C42.3163 44.6867 42.905 44.1718 42.9503 43.5001C43.0408 42.8733 42.5201 42.2912 41.8409 42.2464ZM19.4714 40.8583C19.5846 40.6792 19.7204 40.5225 19.8563 40.3658C20.3544 39.7837 20.8751 39.2239 21.3959 38.6866C21.6223 38.4627 21.8261 38.2389 22.0525 38.015C23.2298 36.806 24.3392 35.5522 25.2902 34.1418C26.1958 32.8208 26.8071 31.4552 27.0562 30.0223C27.2599 28.9029 27.2373 27.7834 27.0109 26.5969C26.9203 26.1267 26.8071 25.6789 26.6486 25.2088C26.626 25.1416 26.626 25.0521 26.6034 24.9401C27.0562 25.1416 27.509 25.3431 27.9392 25.5446C28.3014 25.7013 28.6637 25.8804 29.026 26.0371C29.3203 26.1715 29.592 26.2386 29.841 26.2386C30.4524 26.2386 30.9505 25.858 31.2448 25.1416C31.4712 24.5595 31.6976 23.9998 31.9693 23.3505C32.0372 23.1938 32.1052 23.0371 32.1731 22.858C32.2184 22.9699 32.241 23.0147 32.2636 23.0595C33.4183 25.164 34.007 27.3805 33.758 29.7984C33.6221 31.0969 33.2372 32.3283 32.7165 33.4925C32.5353 33.8955 32.3542 34.2761 32.1504 34.6567C31.4033 36.0672 30.5429 37.4105 29.7731 38.7986C29.7731 38.821 29.7505 38.821 29.7505 38.8433C29.2297 39.7837 28.8675 40.7687 28.6863 41.7986C28.6637 41.8882 28.6411 41.9553 28.6411 42.0449C28.6411 42.0673 28.6411 42.1121 28.6411 42.1344C28.6411 42.224 28.6411 42.2912 28.6637 42.3583C27.9165 42.4031 27.1694 42.4703 26.4222 42.515C26.5128 41.5747 26.8298 40.6792 27.2599 39.8284C27.3505 39.6269 27.4637 39.4254 27.5769 39.2463C27.9618 38.5523 28.3694 37.8582 28.7316 37.1642C28.9128 36.8284 28.9128 36.4478 28.7995 36.1567C28.6184 35.6866 28.1656 35.3284 27.5543 35.306C27.1015 35.3284 26.7166 35.5522 26.4675 36.0224C26.2185 36.4702 25.9694 36.9179 25.7203 37.3657C25.5166 37.7239 25.3354 38.0597 25.1317 38.418C24.7468 39.1344 24.4524 39.8508 24.226 40.5896C24.0223 41.2837 23.8864 42.0225 23.8411 42.7613C21.9393 42.9404 20.0827 43.1419 18.294 43.3434C18.4978 42.4479 18.9054 41.6195 19.4714 40.8583Z" fill="#F8A35B"/>
<path d="M71.1654 28.1571C72.4524 30.1343 73.0967 31.5102 73.0967 32.2847C73.1077 32.9726 72.834 33.6358 72.3383 34.1197C71.8535 34.6175 71.181 34.8942 70.482 34.8834C69.5108 34.8834 68.6742 34.265 67.9704 33.0283C66.0188 29.6211 64.225 26.9482 62.5908 25.008L60.3467 26.7271V32.3233C60.3607 33.0237 60.0808 33.6992 59.5741 34.1893C58.5482 35.2142 56.8781 35.222 55.8412 34.2094C55.835 34.2032 55.8272 34.1955 55.8209 34.1893C55.3142 33.6992 55.0343 33.0237 55.0484 32.3233V16.5549C55.039 15.8546 55.3173 15.1805 55.8209 14.6889C56.8468 13.664 58.517 13.6563 59.5538 14.6688C59.5601 14.675 59.5679 14.6828 59.5741 14.6889C60.0777 15.1805 60.3576 15.8546 60.3467 16.5549V22.5577C64.3814 19.4659 65.0007 18.546 66.8867 16.2936C67.0259 16.1282 67.1635 15.9612 67.2948 15.7912C67.9282 14.9687 69.2544 14.0613 69.858 13.9361C70.0097 13.9082 70.1629 13.8928 70.3178 13.8912C71.07 13.8912 71.5313 14.3179 71.7002 15.1697C71.7096 15.2331 71.7143 15.2965 71.7143 15.3599C71.7143 16.5456 69.9862 18.8459 66.5286 22.264C67.384 23.1529 68.1925 24.0851 68.951 25.0559C69.7329 26.0608 70.471 27.0935 71.1654 28.1571Z" fill="#3F2B4F"/>
<path d="M90.6666 25.7087L90.7119 32.047C90.7229 32.704 90.4586 33.3363 89.9832 33.7954C89.5312 34.2654 88.8994 34.5251 88.2442 34.5143C87.1651 34.5143 86.4129 34.0242 85.986 33.0457L85.8671 32.7519C84.9116 34.2221 83.3775 34.958 81.2678 34.958C80.3342 34.9673 79.4084 34.7879 78.5483 34.4293C77.7539 34.0984 77.0689 33.5543 76.5732 32.8586C76.0555 32.1181 75.7881 31.2354 75.81 30.3357C75.785 29.4096 76.0899 28.5053 76.6717 27.7802C77.2581 27.0691 78.0088 26.5095 78.8611 26.1493C79.7603 25.752 80.7064 25.466 81.676 25.2975C82.6331 25.1352 83.6027 25.0517 84.5738 25.0486H85.5997C85.5997 24.1071 85.362 23.3481 84.8866 22.7714C84.4112 22.1948 83.7121 21.9057 82.791 21.9042C82.4345 21.8933 82.081 21.9737 81.7651 22.1391C81.4211 22.354 81.0989 22.5998 80.8003 22.8735C80.5 23.1486 80.1716 23.3898 79.8182 23.5939C79.4976 23.7577 79.141 23.8381 78.7813 23.8273C78.32 23.8366 77.8665 23.7144 77.4739 23.4748C77.1033 23.2398 76.8875 22.8271 76.9094 22.3927C76.9094 21.7558 77.291 21.2564 78.0541 20.8947C78.8736 20.5051 79.7525 20.2469 80.6548 20.131C81.4821 19.9965 82.3187 19.9223 83.157 19.9099C84.8256 19.9099 86.2565 20.1604 87.4513 20.6597L87.5545 20.703C87.7781 20.7988 87.9955 20.907 88.2082 21.0261C89.1105 21.5362 89.7439 22.1685 90.1114 22.9214C90.4789 23.6758 90.6634 24.6049 90.6666 25.7087ZM85.7639 26.9284H85.2134C84.0343 26.9284 83.0193 27.2222 82.1671 27.8096C81.3148 28.3971 80.8941 29.2489 80.905 30.365C80.891 30.9123 81.0692 31.4472 81.4102 31.8785C81.7479 32.2959 82.2656 32.5293 82.8067 32.5092C83.7074 32.5092 84.48 32.03 85.1243 31.07C85.398 30.651 85.5809 30.1811 85.6591 29.6895C85.7389 29.0912 85.7733 28.4867 85.7639 27.8838V26.9284Z" fill="#3F2B4F"/>
<path d="M101.786 31.7747C102.013 31.6124 102.252 31.464 102.499 31.3341C102.734 31.2167 102.995 31.1564 103.258 31.1579C103.716 31.1502 104.154 31.3372 104.462 31.6727C104.787 32.002 104.964 32.4488 104.952 32.9094C104.952 33.5958 104.609 34.1106 103.926 34.4554C103.234 34.797 102.471 34.9733 101.697 34.9686C100.631 34.9872 99.5766 34.7336 98.6367 34.2343C97.7406 33.7288 97.0322 32.9527 96.6162 32.0205C96.2722 31.2831 96.0564 30.4932 95.9766 29.6846C95.8875 28.8328 95.8421 26.3161 95.8437 22.1343H95.2478C94.5644 22.1343 94.1234 22.0168 93.9264 21.7819C93.7387 21.5685 93.6371 21.2918 93.6433 21.0089C93.6433 20.4802 93.7825 20.1509 94.0593 20.0241C94.3361 19.8974 94.7724 19.8185 95.398 19.8185H95.8437V16.3665C95.8437 14.717 96.685 13.8899 98.3693 13.8837C100.054 13.8775 100.895 14.7046 100.895 16.3665V19.8185H101.846C102.648 19.8185 103.213 19.8927 103.539 20.0396C103.866 20.1865 104.023 20.5204 104.009 21.0383C104.009 21.4881 103.869 21.7865 103.591 21.9334C103.216 22.0879 102.809 22.1575 102.402 22.139H100.857V30.3509C100.857 31.4671 101.011 32.0252 101.319 32.0252L101.786 31.7747Z" fill="#3F2B4F"/>
<path d="M114.388 31.7747C114.615 31.6109 114.852 31.464 115.101 31.3341C115.336 31.2167 115.597 31.1564 115.859 31.1579C116.316 31.1502 116.756 31.3372 117.062 31.6727C117.389 32.002 117.566 32.4488 117.553 32.9094C117.553 33.5958 117.211 34.1106 116.527 34.4554C115.836 34.797 115.073 34.9733 114.299 34.9686C113.232 34.9872 112.178 34.7336 111.238 34.2343C110.342 33.7288 109.634 32.9527 109.216 32.0205C108.874 31.2831 108.658 30.4932 108.578 29.6846C108.489 28.8328 108.445 26.3161 108.444 22.1343H107.849C107.166 22.1343 106.727 22.0168 106.528 21.7819C106.34 21.5685 106.239 21.2918 106.245 21.0089C106.245 20.4802 106.384 20.1509 106.661 20.0241C106.938 19.8974 107.374 19.8185 107.998 19.8185H108.444V16.3665C108.444 14.717 109.287 13.8899 110.971 13.8837C112.655 13.8775 113.498 14.7046 113.5 16.3665V19.8185H114.45C115.253 19.8185 115.817 19.8927 116.144 20.0396C116.471 20.1865 116.627 20.5204 116.613 21.0383C116.613 21.4881 116.474 21.7865 116.197 21.9334C115.82 22.0879 115.415 22.1575 115.009 22.139H113.464V30.3509C113.464 31.4671 113.617 32.0252 113.923 32.0252L114.388 31.7747Z" fill="#3F2B4F"/>
<path d="M126.599 31.761C127.308 32.3671 128.218 32.6917 129.155 32.6716C129.894 32.6809 130.626 32.5216 131.294 32.2078C132.023 31.8538 132.694 31.3931 133.285 30.8412C133.623 30.5583 133.851 30.3774 133.968 30.2986C134.147 30.2043 134.348 30.1641 134.548 30.1811C134.774 30.1842 134.99 30.2677 135.158 30.4161C135.337 30.5537 135.44 30.7639 135.44 30.9881C135.44 31.4874 135.163 32.0069 134.608 32.5464C134.12 33.0504 133.56 33.4817 132.944 33.8233C131.507 34.6859 129.812 35.1173 127.861 35.1157C126.825 35.1157 125.796 34.9472 124.815 34.6164C123.844 34.2995 122.937 33.8125 122.141 33.1771C121.367 32.5603 120.737 31.7827 120.299 30.9C119.836 29.9786 119.601 28.9614 119.615 27.9333C119.615 26.2838 120.041 24.8446 120.893 23.614C121.744 22.3726 122.92 21.3817 124.296 20.7509C125.719 20.0924 127.272 19.7569 128.842 19.7662C129.832 19.7677 130.816 19.9239 131.755 20.23C132.675 20.5113 133.507 21.0168 134.178 21.6986C134.816 22.3742 135.157 23.2723 135.129 24.1968C135.14 25.1908 134.685 26.1354 133.895 26.7522C133.014 27.4618 132.007 28.0013 130.924 28.3384C130.346 28.5161 129.762 28.663 129.169 28.7789C128.526 28.9057 127.807 29.0294 127.015 29.1469C126.224 29.2644 125.594 29.3417 125.187 29.4112C125.38 30.3295 125.877 31.1566 126.599 31.761ZM128.632 26.3843C129.773 25.8262 130.343 24.9899 130.342 23.8722C130.342 23.2662 130.185 22.7869 129.873 22.4329C129.56 22.0789 129.105 21.898 128.506 21.8903C127.377 21.8903 126.495 22.453 125.861 23.5784C125.226 24.7425 124.904 26.0473 124.923 27.3691C126.213 27.284 127.474 26.9486 128.632 26.3843Z" fill="#3F2B4F"/>
<path d="M154.402 32.509C154.402 34.1446 153.559 34.9624 151.875 34.9624C150.19 34.9624 149.347 34.1446 149.349 32.509L149.335 25.9141C149.335 24.8087 149.2 23.9461 148.933 23.3293C148.666 22.7124 148.035 22.4079 147.045 22.4187C145.976 22.4187 145.183 22.8253 144.668 23.6369C144.41 24.0388 144.262 24.6959 144.223 25.6064V32.509C144.223 34.1446 143.381 34.9624 141.697 34.9624C140.013 34.9624 139.171 34.1446 139.17 32.509V22.3739C139.17 20.7244 140.013 19.9004 141.697 19.9004C142.954 19.9004 143.761 20.4878 144.118 21.6627C145.288 20.4878 146.8 19.9004 148.653 19.9004C150.506 19.9004 151.973 20.4291 153.052 21.4865C153.934 22.3383 154.375 23.7807 154.375 25.8151L154.402 32.509Z" fill="#3F2B4F"/>
<path d="M175.805 19.6129C175.805 21.5221 175.394 22.9815 174.571 23.9894C174.033 24.6341 173.365 25.1597 172.61 25.5353C174.681 28.0088 175.716 30.2226 175.716 32.1751C175.73 32.914 175.434 33.6267 174.899 34.1431C174.393 34.6795 173.68 34.9779 172.937 34.9655C171.57 34.9655 170.683 34.3147 170.278 33.013C169.722 31.1919 168.98 29.4311 168.065 27.7568C167.893 27.4415 167.7 27.1369 167.485 26.8463L163.785 27.0225V32.325C163.801 33.0223 163.527 33.6963 163.028 34.191C162.548 34.698 161.873 34.9779 161.17 34.9639C160.468 34.9748 159.794 34.695 159.313 34.191C158.806 33.7009 158.526 33.0254 158.54 32.325V16.5288C158.54 14.9906 159.292 14.1078 160.798 13.8837H167.352C170.452 13.8837 172.715 14.5113 174.143 15.7651C175.251 16.7235 175.805 18.0067 175.805 19.6129ZM163.813 24.7979C166.341 24.7979 168.123 24.1904 169.163 22.9768C169.847 22.1637 170.188 21.1016 170.188 19.7891C170.205 19.061 170.025 18.3406 169.668 17.7037C169.321 17.1255 168.81 16.6602 168.197 16.3664C167.529 16.0542 166.797 15.898 166.057 15.9119C165.166 15.9119 164.562 16.0727 164.245 16.3958C163.957 16.6895 163.813 17.2569 163.813 18.0963V24.7979Z" fill="#3F2B4F"/>
<path d="M193.725 25.7085L193.77 32.0468C193.781 32.7038 193.518 33.3376 193.041 33.7952C192.59 34.2637 191.959 34.5249 191.304 34.5141C190.223 34.5141 189.47 34.024 189.044 33.0455L188.925 32.7517C187.975 34.2219 186.447 34.9578 184.342 34.9578C183.408 34.9671 182.484 34.7877 181.624 34.4291C180.829 34.0982 180.144 33.5541 179.647 32.8584C179.129 32.1164 178.865 31.2321 178.889 30.3308C178.864 29.4048 179.169 28.5004 179.75 27.7754C180.337 27.0643 181.087 26.5046 181.94 26.1444C182.839 25.7471 183.785 25.4611 184.755 25.2926C185.712 25.1303 186.681 25.0468 187.652 25.0437H188.678C188.678 24.1023 188.441 23.3432 187.965 22.7666C187.49 22.19 186.791 21.9009 185.87 21.8993C185.513 21.8885 185.16 21.9689 184.844 22.1343C184.5 22.3492 184.178 22.595 183.879 22.8686C183.579 23.1422 183.25 23.385 182.898 23.589C182.578 23.7529 182.22 23.8333 181.858 23.824C181.397 23.8333 180.942 23.7111 180.549 23.4715C180.179 23.2365 179.965 22.8238 179.985 22.3894C179.985 21.7525 180.366 21.2531 181.13 20.8914C181.949 20.5018 182.828 20.2436 183.73 20.1277C184.558 19.9932 185.394 19.919 186.232 19.9066C187.907 19.9066 189.34 20.1571 190.527 20.6564L190.632 20.6997C190.855 20.7971 191.073 20.9037 191.285 21.0228C192.186 21.5329 192.819 22.1652 193.187 22.9181C193.554 23.671 193.733 24.6016 193.725 25.7085ZM188.822 26.9282H188.272C187.093 26.9282 186.078 27.222 185.225 27.8094C184.373 28.3969 183.952 29.2487 183.963 30.3648C183.949 30.9121 184.128 31.447 184.468 31.8783C184.806 32.2957 185.325 32.5291 185.865 32.509C186.766 32.509 187.538 32.0298 188.183 31.0698C188.456 30.6508 188.639 30.1809 188.717 29.6893C188.797 29.091 188.833 28.4865 188.822 27.8836V26.9282Z" fill="#3F2B4F"/>
<path d="M213.992 32.0113C213.992 33.6608 213.144 34.4848 211.451 34.4848C210.262 34.4848 209.464 33.9422 209.059 32.8554C208.088 34.2544 206.606 34.9548 204.615 34.9548C203.319 34.9733 202.042 34.6332 200.931 33.9715C199.845 33.33 198.96 32.404 198.375 31.2971C197.757 30.1593 197.442 28.887 197.454 27.5961C197.438 26.2032 197.792 24.832 198.478 23.6154C199.14 22.4327 200.117 21.4526 201.303 20.7801C202.527 20.0876 203.919 19.7335 205.33 19.7521C206.598 19.7706 207.841 20.1092 208.939 20.7368V16.3588C208.939 14.7093 209.782 13.8822 211.466 13.876C213.15 13.8698 213.993 14.6969 213.992 16.3588V32.0113ZM206.116 32.54C207.076 32.5663 207.977 32.084 208.479 31.2754C208.767 30.8349 208.92 30.1979 208.939 29.3662V24.9093C208.911 23.9988 208.697 23.3139 208.301 22.8532C207.796 22.2658 207.048 21.9349 206.268 21.9566C205.04 21.9566 204.154 22.5193 203.609 23.6463C203.065 24.815 202.792 26.0904 202.807 27.3766C202.785 28.6118 203.039 29.8346 203.55 30.9616C204.043 32.0144 204.898 32.54 206.116 32.54Z" fill="#3F2B4F"/>
<path d="M232.342 25.7087L232.386 32.047C232.397 32.704 232.134 33.3363 231.659 33.7954C231.207 34.2654 230.575 34.5251 229.92 34.5143C228.841 34.5143 228.089 34.0242 227.662 33.0457L227.543 32.7519C226.592 34.2206 225.061 34.9549 222.951 34.9549C222.018 34.9642 221.092 34.7848 220.232 34.4262C219.437 34.0954 218.752 33.5512 218.255 32.8555C217.739 32.1135 217.473 31.2277 217.498 30.3279C217.473 29.4019 217.778 28.4975 218.36 27.7725C218.945 27.0614 219.697 26.5018 220.549 26.1416C221.448 25.7442 222.395 25.4582 223.364 25.2897C224.321 25.1274 225.291 25.0439 226.262 25.0408H227.286C227.286 24.0994 227.049 23.3403 226.573 22.7637C226.098 22.1871 225.4 21.898 224.479 21.8964C224.123 21.8856 223.769 21.966 223.453 22.1314C223.109 22.3463 222.786 22.5921 222.487 22.8657C222.188 23.1409 221.858 23.3821 221.506 23.5861C221.186 23.7531 220.828 23.835 220.466 23.8273C220.005 23.8366 219.552 23.7144 219.159 23.4748C218.788 23.2398 218.573 22.8271 218.594 22.3927C218.594 21.7558 218.976 21.2564 219.738 20.8947C220.557 20.5051 221.436 20.2469 222.338 20.131C223.166 19.9965 224.002 19.9223 224.84 19.9099C226.514 19.9099 227.945 20.1604 229.135 20.6597L229.238 20.703C229.462 20.7988 229.679 20.907 229.892 21.0261C230.792 21.5362 231.426 22.1685 231.793 22.9214C232.161 23.6758 232.344 24.6049 232.342 25.7087ZM227.438 26.9284H226.889C225.71 26.9284 224.695 27.2222 223.843 27.8096C222.99 28.3971 222.57 29.2489 222.579 30.365C222.565 30.9123 222.743 31.4472 223.084 31.8785C223.424 32.2959 223.941 32.5293 224.482 32.5092C225.383 32.5092 226.156 32.03 226.8 31.07C227.074 30.651 227.257 30.1811 227.335 29.6895C227.413 29.0912 227.447 28.4867 227.438 27.8838V26.9284V26.9284Z" fill="#3F2B4F"/>
<path d="M246.559 20.5237C246.988 20.9395 247.221 21.5162 247.199 22.1098C247.202 22.6169 247.052 23.1131 246.767 23.5351C246.522 23.934 246.081 24.1752 245.609 24.1674C245.247 24.1551 244.891 24.0932 244.548 23.9819C244.235 23.8768 243.912 23.8119 243.582 23.7918C243.038 23.7918 242.576 24.1582 242.199 24.8925C241.893 25.4413 241.71 26.2452 241.65 27.301V32.5015C241.663 33.1555 241.405 33.7877 240.937 34.25C239.99 35.1992 238.443 35.21 237.483 34.2732C237.475 34.2654 237.467 34.2577 237.459 34.25C236.992 33.7877 236.734 33.1555 236.746 32.5015V22.3664C236.732 21.7156 236.99 21.0895 237.459 20.6334C237.911 20.1635 238.541 19.9022 239.198 19.913C240.604 19.913 241.413 20.6087 241.621 21.9985C241.933 21.5749 242.287 21.1807 242.675 20.8236C243.378 20.216 244.132 19.9115 244.935 19.913C245.538 19.8898 246.125 20.1109 246.559 20.5237Z" fill="#3F2B4F"/>
<defs>
<linearGradient id="paint0_linear_1_1873" x1="19.3814" y1="-5.56252" x2="20.9291" y2="24.1776" gradientUnits="userSpaceOnUse">
<stop stop-color="#1EE100"/>
<stop offset="0.1099" stop-color="#4CE734"/>
<stop offset="0.2388" stop-color="#7BED69"/>
<stop offset="0.3695" stop-color="#A3F397"/>
<stop offset="0.4992" stop-color="#C4F7BC"/>
<stop offset="0.6277" stop-color="#DEFBDA"/>
<stop offset="0.7548" stop-color="#F0FDEE"/>
<stop offset="0.8797" stop-color="#FBFFFB"/>
<stop offset="1" stop-color="white"/>
</linearGradient>
</defs>
</svg>
