<svg width="26" height="25" viewBox="0 0 26 25" fill="none" xmlns="http://www.w3.org/2000/svg">
<g clip-path="url(#clip0_171_3211)">
<path d="M24.0004 2H2V13.0002H24.0004V2Z" fill="#000066"/>
<path d="M2 2V3.22986L21.5408 13.0002H24.0004V11.7704L4.45965 2.00004H2L2 2ZM24.0004 2V3.22982L4.45965 13.0002H2V11.7704L21.5408 2H24.0004Z" fill="white"/>
<path d="M11.1669 2V13.0002H14.8336V2H11.1669ZM2 5.66674V9.33348H24.0004V5.66674H2Z" fill="white"/>
<path d="M2 6.40009V8.60013H24.0004V6.40009H2ZM11.9002 2V13.0002H14.1002V2H11.9002Z" fill="#CC0000"/>
<path d="M2 13.0002L9.33348 9.33348H10.9732L3.63977 13.0002H2H2ZM2 2L9.33348 5.66674H7.69371L2 2.81992V2H2ZM15.0272 5.66674L22.3607 2H24.0004L16.667 5.66674H15.0272ZM24.0004 13.0002L16.667 9.33348H18.3067L24.0004 12.1803V13.0002Z" fill="#CC0000"/>
</g>
<rect x="1" y="1" width="24" height="13" rx="3" stroke="#F8A35B" stroke-width="2"/>
<path d="M17.7614 20.4142C19.0213 19.1543 18.129 17 16.3472 17L10.004 17C8.2222 17 7.32987 19.1543 8.5898 20.4142L11.7614 23.5858C12.5424 24.3668 13.8087 24.3668 14.5898 23.5858L17.7614 20.4142Z" fill="#F8A35B"/>
<defs>
<clipPath id="clip0_171_3211">
<rect x="2" y="2" width="22" height="11" rx="2" fill="white"/>
</clipPath>
</defs>
</svg>
