<svg width="131" height="269" viewBox="0 0 131 269" fill="none" xmlns="http://www.w3.org/2000/svg">
<g clip-path="url(#clip0_93_2246)">
<g filter="url(#filter0_d_93_2246)">
<path d="M103.531 37.2721C108.502 -0.000764086 105.812 -0.000244141 105.812 -0.000244141L45.0599 -9.49064e-05H0V269.014H125.988C125.988 269.014 104.429 228.673 96.5686 171.073C89.2226 117.242 96.653 88.8307 103.531 37.2721Z" fill="#B01C1C"/>
<path d="M125.988 271.007H129.313L127.746 268.075L127.746 268.075L127.746 268.075L127.744 268.071L127.733 268.052L127.69 267.97C127.676 267.942 127.659 267.91 127.639 267.872C127.605 267.807 127.564 267.728 127.515 267.633C127.36 267.332 127.129 266.879 126.831 266.281C126.235 265.083 125.371 263.302 124.309 260.981C122.183 256.34 119.263 249.544 116.096 240.954C109.761 223.77 102.449 199.428 98.543 170.804C92.5302 126.742 96.4674 99.9272 101.896 62.9513C103.059 55.0348 104.29 46.6526 105.506 37.5356C107.994 18.8794 108.581 9.44483 108.528 4.63677C108.502 2.25826 108.321 0.866846 108.064 0.0100271C107.936 -0.415547 107.746 -0.86609 107.416 -1.24155C107.241 -1.44116 107.012 -1.63596 106.721 -1.77919C106.576 -1.85041 106.424 -1.90489 106.267 -1.94104C106.189 -1.95899 106.111 -1.97203 106.035 -1.98055C105.997 -1.9848 105.959 -1.98791 105.922 -1.98995C105.903 -1.99096 105.885 -1.99172 105.866 -1.99221L105.839 -1.99276C105.826 -1.9929 105.813 -1.99294 105.812 -0.158034L105.812 -1.99294L45.0599 -1.99279H0H-1.9927V-9.49064e-05V269.014V271.007H0H125.988Z" stroke="white" stroke-width="3.9854"/>
</g>
<path d="M10.6239 255.852C11.0264 255.852 11.3492 255.969 11.5923 256.205C11.8354 256.44 11.957 256.788 11.957 257.251V259.08H11.2097V257.346C11.2097 257.067 11.144 256.858 11.0125 256.719C10.8809 256.575 10.6936 256.504 10.4505 256.504C10.1755 256.504 9.95832 256.587 9.79891 256.755C9.63949 256.918 9.55979 257.155 9.55979 257.466V259.08H8.81252V254.644H9.55979V256.258C9.68333 256.127 9.83478 256.027 10.0141 255.96C10.1974 255.888 10.4007 255.852 10.6239 255.852ZM15.9351 257.502C15.9351 257.554 15.9312 257.627 15.9232 257.723H13.4184C13.4622 257.958 13.5758 258.146 13.7591 258.285C13.9464 258.42 14.1776 258.488 14.4526 258.488C14.8033 258.488 15.0922 258.373 15.3194 258.142L15.7199 258.602C15.5765 258.773 15.3951 258.903 15.1759 258.99C14.9567 259.078 14.7096 259.122 14.4346 259.122C14.0839 259.122 13.7751 259.052 13.508 258.913C13.241 258.773 13.0338 258.58 12.8863 258.333C12.7428 258.082 12.6711 257.799 12.6711 257.484C12.6711 257.173 12.7408 256.894 12.8803 256.647C13.0238 256.396 13.2211 256.201 13.4722 256.061C13.7232 255.922 14.0062 255.852 14.3211 255.852C14.6319 255.852 14.9089 255.922 15.152 256.061C15.3991 256.197 15.5904 256.39 15.7259 256.641C15.8654 256.888 15.9351 257.175 15.9351 257.502ZM14.3211 256.45C14.0819 256.45 13.8787 256.521 13.7113 256.665C13.5479 256.804 13.4483 256.992 13.4124 257.227H15.2238C15.1919 256.996 15.0942 256.808 14.9308 256.665C14.7674 256.521 14.5642 256.45 14.3211 256.45ZM16.6529 254.644H17.4002V259.08H16.6529V254.644ZM20.1505 255.852C20.4614 255.852 20.7383 255.92 20.9815 256.055C21.2285 256.191 21.4218 256.382 21.5613 256.629C21.7008 256.876 21.7706 257.161 21.7706 257.484C21.7706 257.807 21.7008 258.094 21.5613 258.345C21.4218 258.592 21.2285 258.783 20.9815 258.919C20.7383 259.054 20.4614 259.122 20.1505 259.122C19.7201 259.122 19.3793 258.978 19.1282 258.692V260.24H18.381V255.888H19.0924V256.306C19.2159 256.155 19.3674 256.041 19.5467 255.965C19.73 255.89 19.9313 255.852 20.1505 255.852ZM20.0668 258.482C20.3418 258.482 20.567 258.391 20.7423 258.207C20.9217 258.024 21.0113 257.783 21.0113 257.484C21.0113 257.185 20.9217 256.944 20.7423 256.761C20.567 256.577 20.3418 256.486 20.0668 256.486C19.8875 256.486 19.7261 256.527 19.5826 256.611C19.4391 256.691 19.3255 256.806 19.2418 256.958C19.1581 257.109 19.1163 257.285 19.1163 257.484C19.1163 257.683 19.1581 257.859 19.2418 258.01C19.3255 258.161 19.4391 258.279 19.5826 258.363C19.7261 258.442 19.8875 258.482 20.0668 258.482ZM24.3982 258.907C24.3105 258.978 24.2029 259.032 24.0754 259.068C23.9519 259.104 23.8203 259.122 23.6808 259.122C23.3301 259.122 23.0591 259.03 22.8678 258.847C22.6765 258.664 22.5809 258.397 22.5809 258.046V256.509H22.0548V255.912H22.5809V255.182H23.3281V255.912H24.183V256.509H23.3281V258.028C23.3281 258.183 23.366 258.303 23.4417 258.387C23.5174 258.466 23.627 258.506 23.7705 258.506C23.9379 258.506 24.0774 258.462 24.189 258.375L24.3982 258.907ZM26.3363 260.282C26.0214 260.282 25.7823 260.22 25.6189 260.096L25.8341 259.54C25.9457 259.624 26.0912 259.666 26.2705 259.666C26.41 259.666 26.5156 259.622 26.5874 259.534C26.6631 259.451 26.701 259.325 26.701 259.158V255.888H27.4482V259.14C27.4482 259.495 27.3506 259.774 27.1553 259.977C26.96 260.18 26.687 260.282 26.3363 260.282ZM27.0716 255.362C26.9361 255.362 26.8225 255.32 26.7308 255.236C26.6392 255.148 26.5933 255.041 26.5933 254.913C26.5933 254.786 26.6392 254.68 26.7308 254.597C26.8225 254.509 26.9361 254.465 27.0716 254.465C27.2071 254.465 27.3207 254.507 27.4123 254.591C27.504 254.67 27.5498 254.772 27.5498 254.895C27.5498 255.027 27.504 255.139 27.4123 255.23C27.3247 255.318 27.2111 255.362 27.0716 255.362ZM31.4292 257.502C31.4292 257.554 31.4252 257.627 31.4172 257.723H28.9124C28.9562 257.958 29.0698 258.146 29.2531 258.285C29.4404 258.42 29.6716 258.488 29.9466 258.488C30.2973 258.488 30.5862 258.373 30.8134 258.142L31.2139 258.602C31.0705 258.773 30.8891 258.903 30.6699 258.99C30.4507 259.078 30.2036 259.122 29.9287 259.122C29.5779 259.122 29.2691 259.052 29.0021 258.913C28.735 258.773 28.5278 258.58 28.3803 258.333C28.2369 258.082 28.1651 257.799 28.1651 257.484C28.1651 257.173 28.2349 256.894 28.3744 256.647C28.5178 256.396 28.7151 256.201 28.9662 256.061C29.2173 255.922 29.5002 255.852 29.8151 255.852C30.1259 255.852 30.4029 255.922 30.646 256.061C30.8931 256.197 31.0844 256.39 31.2199 256.641C31.3594 256.888 31.4292 257.175 31.4292 257.502ZM29.8151 256.45C29.5759 256.45 29.3727 256.521 29.2053 256.665C29.0419 256.804 28.9423 256.992 28.9064 257.227H30.7178C30.6859 256.996 30.5882 256.808 30.4248 256.665C30.2614 256.521 30.0582 256.45 29.8151 256.45ZM35.1023 257.711L34.5464 258.237V259.08H33.7991V254.644H34.5464V257.323L36.0947 255.888H36.9914L35.6583 257.227L37.1169 259.08H36.2083L35.1023 257.711ZM38.7608 255.852C39.2311 255.852 39.5897 255.965 39.8368 256.193C40.0879 256.416 40.2135 256.755 40.2135 257.209V259.08H39.508V258.692C39.4164 258.831 39.2849 258.939 39.1135 259.014C38.9461 259.086 38.7428 259.122 38.5037 259.122C38.2646 259.122 38.0554 259.082 37.876 259.002C37.6967 258.919 37.5572 258.805 37.4576 258.662C37.3619 258.514 37.3141 258.349 37.3141 258.165C37.3141 257.878 37.4197 257.649 37.6309 257.478C37.8461 257.303 38.1829 257.215 38.6412 257.215H39.4662V257.167C39.4662 256.944 39.3984 256.773 39.2629 256.653C39.1314 256.533 38.9341 256.474 38.6711 256.474C38.4918 256.474 38.3144 256.502 38.1391 256.557C37.9677 256.613 37.8222 256.691 37.7027 256.79L37.4097 256.246C37.5771 256.119 37.7784 256.021 38.0135 255.954C38.2487 255.886 38.4977 255.852 38.7608 255.852ZM38.6592 258.578C38.8465 258.578 39.0119 258.536 39.1553 258.452C39.3028 258.365 39.4064 258.241 39.4662 258.082V257.711H38.695C38.2646 257.711 38.0494 257.853 38.0494 258.136C38.0494 258.271 38.1032 258.379 38.2108 258.458C38.3184 258.538 38.4679 258.578 38.6592 258.578ZM43.0914 258.907C43.0038 258.978 42.8962 259.032 42.7686 259.068C42.6451 259.104 42.5136 259.122 42.3741 259.122C42.0234 259.122 41.7523 259.03 41.5611 258.847C41.3698 258.664 41.2741 258.397 41.2741 258.046V256.509H40.748V255.912H41.2741V255.182H42.0214V255.912H42.8762V256.509H42.0214V258.028C42.0214 258.183 42.0592 258.303 42.1349 258.387C42.2107 258.466 42.3203 258.506 42.4637 258.506C42.6311 258.506 42.7706 258.462 42.8822 258.375L43.0914 258.907ZM47.2773 258.907C47.1896 258.978 47.082 259.032 46.9545 259.068C46.8309 259.104 46.6994 259.122 46.5599 259.122C46.2092 259.122 45.9382 259.03 45.7469 258.847C45.5556 258.664 45.4599 258.397 45.4599 258.046V256.509H44.9339V255.912H45.4599V255.182H46.2072V255.912H47.0621V256.509H46.2072V258.028C46.2072 258.183 46.2451 258.303 46.3208 258.387C46.3965 258.466 46.5061 258.506 46.6496 258.506C46.817 258.506 46.9565 258.462 47.068 258.375L47.2773 258.907ZM50.7879 257.502C50.7879 257.554 50.7839 257.627 50.776 257.723H48.2711C48.315 257.958 48.4286 258.146 48.6119 258.285C48.7992 258.42 49.0304 258.488 49.3054 258.488C49.6561 258.488 49.945 258.373 50.1722 258.142L50.5727 258.602C50.4292 258.773 50.2479 258.903 50.0287 258.99C49.8095 259.078 49.5624 259.122 49.2874 259.122C48.9367 259.122 48.6278 259.052 48.3608 258.913C48.0938 258.773 47.8865 258.58 47.7391 258.333C47.5956 258.082 47.5239 257.799 47.5239 257.484C47.5239 257.173 47.5936 256.894 47.7331 256.647C47.8766 256.396 48.0739 256.201 48.3249 256.061C48.576 255.922 48.859 255.852 49.1738 255.852C49.4847 255.852 49.7617 255.922 50.0048 256.061C50.2519 256.197 50.4432 256.39 50.5787 256.641C50.7182 256.888 50.7879 257.175 50.7879 257.502ZM49.1738 256.45C48.9347 256.45 48.7315 256.521 48.5641 256.665C48.4007 256.804 48.301 256.992 48.2652 257.227H50.0765C50.0446 256.996 49.947 256.808 49.7836 256.665C49.6202 256.521 49.4169 256.45 49.1738 256.45ZM52.2171 256.354C52.4323 256.019 52.8109 255.852 53.3529 255.852V256.563C53.2892 256.551 53.2314 256.545 53.1796 256.545C52.8886 256.545 52.6615 256.631 52.4981 256.802C52.3347 256.97 52.253 257.213 52.253 257.532V259.08H51.5057V255.888H52.2171V256.354ZM57.1067 255.888V259.08H56.3953V258.674C56.2758 258.817 56.1263 258.929 55.947 259.008C55.7676 259.084 55.5743 259.122 55.3671 259.122C54.9407 259.122 54.6039 259.004 54.3568 258.769C54.1137 258.53 53.9921 258.177 53.9921 257.711V255.888H54.7394V257.609C54.7394 257.896 54.8032 258.112 54.9307 258.255C55.0622 258.395 55.2475 258.464 55.4867 258.464C55.7537 258.464 55.9649 258.383 56.1203 258.219C56.2798 258.052 56.3595 257.813 56.3595 257.502V255.888H57.1067ZM61.2535 255.888V258.596C61.2535 259.72 60.6796 260.282 59.5318 260.282C59.2249 260.282 58.934 260.242 58.659 260.162C58.384 260.086 58.1569 259.975 57.9775 259.827L58.3123 259.265C58.4518 259.381 58.6271 259.473 58.8384 259.54C59.0536 259.612 59.2708 259.648 59.49 259.648C59.8407 259.648 60.0977 259.568 60.2611 259.409C60.4245 259.249 60.5063 259.006 60.5063 258.68V258.512C60.3787 258.652 60.2233 258.757 60.04 258.829C59.8566 258.901 59.6554 258.937 59.4362 258.937C59.1333 258.937 58.8583 258.873 58.6112 258.745C58.3681 258.614 58.1748 258.43 58.0313 258.195C57.8918 257.96 57.8221 257.691 57.8221 257.388C57.8221 257.085 57.8918 256.818 58.0313 256.587C58.1748 256.352 58.3681 256.171 58.6112 256.043C58.8583 255.916 59.1333 255.852 59.4362 255.852C59.6673 255.852 59.8766 255.89 60.0639 255.965C60.2552 256.041 60.4146 256.157 60.5421 256.312V255.888H61.2535ZM59.5498 258.303C59.8327 258.303 60.0639 258.219 60.2432 258.052C60.4265 257.88 60.5182 257.659 60.5182 257.388C60.5182 257.121 60.4265 256.904 60.2432 256.737C60.0639 256.569 59.8327 256.486 59.5498 256.486C59.2628 256.486 59.0277 256.569 58.8443 256.737C58.665 256.904 58.5753 257.121 58.5753 257.388C58.5753 257.659 58.665 257.88 58.8443 258.052C59.0277 258.219 59.2628 258.303 59.5498 258.303ZM65.225 255.888L63.856 259.08H63.0848L61.7158 255.888H62.493L63.4853 258.255L64.5076 255.888H65.225ZM65.692 255.888H66.4393V259.08H65.692V255.888ZM66.0686 255.362C65.9331 255.362 65.8195 255.32 65.7279 255.236C65.6362 255.148 65.5904 255.041 65.5904 254.913C65.5904 254.786 65.6362 254.68 65.7279 254.597C65.8195 254.509 65.9331 254.465 66.0686 254.465C66.2041 254.465 66.3177 254.507 66.4094 254.591C66.501 254.67 66.5469 254.772 66.5469 254.895C66.5469 255.027 66.501 255.139 66.4094 255.23C66.3217 255.318 66.2081 255.362 66.0686 255.362ZM69.2314 255.852C69.6339 255.852 69.9568 255.969 70.1999 256.205C70.443 256.44 70.5645 256.788 70.5645 257.251V259.08H69.8173V257.346C69.8173 257.067 69.7515 256.858 69.62 256.719C69.4885 256.575 69.3012 256.504 69.0581 256.504C68.7831 256.504 68.5659 256.587 68.4064 256.755C68.247 256.918 68.1673 257.155 68.1673 257.466V259.08H67.4201V255.888H68.1315V256.3C68.255 256.153 68.4104 256.041 68.5977 255.965C68.7851 255.89 68.9963 255.852 69.2314 255.852ZM74.6682 254.644V259.08H73.9508V258.668C73.8273 258.819 73.6739 258.933 73.4905 259.008C73.3112 259.084 73.1119 259.122 72.8927 259.122C72.5859 259.122 72.3089 259.054 72.0618 258.919C71.8187 258.783 71.6274 258.592 71.4879 258.345C71.3484 258.094 71.2786 257.807 71.2786 257.484C71.2786 257.161 71.3484 256.876 71.4879 256.629C71.6274 256.382 71.8187 256.191 72.0618 256.055C72.3089 255.92 72.5859 255.852 72.8927 255.852C73.104 255.852 73.2972 255.888 73.4726 255.96C73.648 256.031 73.7974 256.139 73.921 256.282V254.644H74.6682ZM72.9824 258.482C73.1617 258.482 73.3231 258.442 73.4666 258.363C73.6101 258.279 73.7237 258.161 73.8074 258.01C73.8911 257.859 73.9329 257.683 73.9329 257.484C73.9329 257.285 73.8911 257.109 73.8074 256.958C73.7237 256.806 73.6101 256.691 73.4666 256.611C73.3231 256.527 73.1617 256.486 72.9824 256.486C72.8031 256.486 72.6416 256.527 72.4982 256.611C72.3547 256.691 72.2411 256.806 72.1574 256.958C72.0737 257.109 72.0319 257.285 72.0319 257.484C72.0319 257.683 72.0737 257.859 72.1574 258.01C72.2411 258.161 72.3547 258.279 72.4982 258.363C72.6416 258.442 72.8031 258.482 72.9824 258.482ZM78.6468 257.502C78.6468 257.554 78.6428 257.627 78.6348 257.723H76.13C76.1738 257.958 76.2874 258.146 76.4708 258.285C76.6581 258.42 76.8892 258.488 77.1642 258.488C77.5149 258.488 77.8039 258.373 78.031 258.142L78.4316 258.602C78.2881 258.773 78.1068 258.903 77.8876 258.99C77.6684 259.078 77.4213 259.122 77.1463 259.122C76.7956 259.122 76.4867 259.052 76.2197 258.913C75.9527 258.773 75.7454 258.58 75.598 258.333C75.4545 258.082 75.3827 257.799 75.3827 257.484C75.3827 257.173 75.4525 256.894 75.592 256.647C75.7355 256.396 75.9327 256.201 76.1838 256.061C76.4349 255.922 76.7179 255.852 77.0327 255.852C77.3436 255.852 77.6205 255.922 77.8637 256.061C78.1108 256.197 78.3021 256.39 78.4376 256.641C78.577 256.888 78.6468 257.175 78.6468 257.502ZM77.0327 256.45C76.7936 256.45 76.5903 256.521 76.4229 256.665C76.2595 256.804 76.1599 256.992 76.124 257.227H77.9354C77.9035 256.996 77.8059 256.808 77.6425 256.665C77.4791 256.521 77.2758 256.45 77.0327 256.45ZM81.1759 255.852C81.5785 255.852 81.9013 255.969 82.1444 256.205C82.3875 256.44 82.5091 256.788 82.5091 257.251V259.08H81.7618V257.346C81.7618 257.067 81.696 256.858 81.5645 256.719C81.433 256.575 81.2457 256.504 81.0026 256.504C80.7276 256.504 80.5104 256.587 80.351 256.755C80.1915 256.918 80.1118 257.155 80.1118 257.466V259.08H79.3646V255.888H80.076V256.3C80.1995 256.153 80.3549 256.041 80.5423 255.965C80.7296 255.89 80.9408 255.852 81.1759 255.852Z" fill="white"/>
<path d="M13.9444 249.048C14.3062 249.58 14.4872 249.951 14.4872 250.159C14.4903 250.345 14.4134 250.523 14.2741 250.653C14.1378 250.787 13.9488 250.862 13.7524 250.859C13.4794 250.859 13.2443 250.693 13.0465 250.36C12.498 249.442 11.9938 248.722 11.5345 248.2L10.9038 248.663V250.17C10.9078 250.358 10.8291 250.54 10.6867 250.672C10.3983 250.948 9.92894 250.95 9.63753 250.678C9.63577 250.676 9.63358 250.674 9.63182 250.672C9.48941 250.54 9.41074 250.358 9.41469 250.17V245.923C9.41206 245.735 9.49029 245.553 9.63182 245.421C9.92015 245.145 10.3896 245.143 10.681 245.415C10.6827 245.417 10.6849 245.419 10.6867 245.421C10.8282 245.553 10.9069 245.735 10.9038 245.923V247.54C12.0378 246.707 12.2118 246.459 12.7419 245.853C12.781 245.808 12.8197 245.763 12.8566 245.718C13.0346 245.496 13.4073 245.252 13.577 245.218C13.6196 245.21 13.6627 245.206 13.7062 245.206C13.9176 245.206 14.0473 245.321 14.0947 245.55C14.0974 245.567 14.0987 245.584 14.0987 245.601C14.0987 245.921 13.613 246.54 12.6412 247.461C12.8817 247.7 13.1089 247.951 13.3221 248.213C13.5418 248.483 13.7493 248.761 13.9444 249.048Z" fill="white"/>
<path d="M19.4252 248.388L19.438 250.095C19.441 250.272 19.3668 250.442 19.2331 250.566C19.1061 250.693 18.9286 250.763 18.7444 250.76C18.4411 250.76 18.2297 250.628 18.1097 250.364L18.0763 250.285C17.8078 250.681 17.3766 250.879 16.7837 250.879C16.5213 250.882 16.2611 250.833 16.0194 250.737C15.7961 250.648 15.6036 250.501 15.4642 250.314C15.3188 250.114 15.2436 249.877 15.2497 249.634C15.2427 249.385 15.3284 249.141 15.4919 248.946C15.6567 248.755 15.8677 248.604 16.1073 248.507C16.36 248.4 16.6259 248.323 16.8984 248.278C17.1674 248.234 17.4399 248.211 17.7128 248.211H18.0012C18.0012 247.957 17.9344 247.753 17.8007 247.597C17.6671 247.442 17.4707 247.364 17.2118 247.364C17.1116 247.361 17.0122 247.382 16.9235 247.427C16.8268 247.485 16.7362 247.551 16.6523 247.625C16.5679 247.699 16.4756 247.764 16.3762 247.819C16.2861 247.863 16.1859 247.885 16.0848 247.882C15.9552 247.884 15.8277 247.851 15.7174 247.787C15.6132 247.723 15.5526 247.612 15.5587 247.495C15.5587 247.324 15.666 247.189 15.8805 247.092C16.1108 246.987 16.3578 246.917 16.6114 246.886C16.8439 246.85 17.079 246.83 17.3146 246.827C17.7836 246.827 18.1858 246.894 18.5216 247.029L18.5506 247.04C18.6134 247.066 18.6745 247.095 18.7343 247.127C18.9879 247.265 19.1659 247.435 19.2692 247.638C19.3725 247.841 19.4243 248.091 19.4252 248.388ZM18.0473 248.717H17.8926C17.5612 248.717 17.2759 248.796 17.0364 248.954C16.7969 249.112 16.6786 249.342 16.6817 249.642C16.6778 249.79 16.7279 249.934 16.8237 250.05C16.9186 250.162 17.0641 250.225 17.2162 250.22C17.4693 250.22 17.6865 250.091 17.8675 249.832C17.9445 249.719 17.9959 249.593 18.0179 249.46C18.0403 249.299 18.05 249.136 18.0473 248.974V248.717Z" fill="white"/>
<path d="M22.5505 250.022C22.6143 249.978 22.6815 249.938 22.7509 249.903C22.8169 249.872 22.8903 249.855 22.9641 249.856C23.0929 249.854 23.216 249.904 23.3025 249.994C23.394 250.083 23.4436 250.203 23.4401 250.327C23.4401 250.512 23.3439 250.651 23.1518 250.744C22.9575 250.836 22.743 250.883 22.5255 250.882C22.2257 250.887 21.9295 250.819 21.6653 250.684C21.4135 250.548 21.2144 250.339 21.0975 250.088C21.0008 249.889 20.9401 249.677 20.9177 249.459C20.8926 249.23 20.8799 248.552 20.8803 247.426H20.7129C20.5208 247.426 20.3969 247.394 20.3415 247.331C20.2887 247.273 20.2602 247.199 20.2619 247.123C20.2619 246.98 20.301 246.892 20.3788 246.857C20.4566 246.823 20.5793 246.802 20.7551 246.802H20.8803V245.872C20.8803 245.428 21.1168 245.205 21.5902 245.204C22.0635 245.202 22.3 245.425 22.3 245.872V246.802H22.5672C22.7927 246.802 22.9514 246.822 23.0432 246.862C23.1351 246.901 23.179 246.991 23.1751 247.131C23.1751 247.252 23.136 247.332 23.0577 247.372C22.9522 247.413 22.838 247.432 22.7237 247.427H22.2894V249.638C22.2894 249.939 22.3325 250.089 22.4191 250.089L22.5505 250.022Z" fill="white"/>
<path d="M26.0922 250.022C26.156 249.978 26.2228 249.938 26.2927 249.903C26.3586 249.872 26.432 249.855 26.5058 249.856C26.6342 249.854 26.7577 249.904 26.8438 249.994C26.9357 250.083 26.9853 250.203 26.9818 250.327C26.9818 250.512 26.8856 250.651 26.6935 250.744C26.4992 250.836 26.2847 250.883 26.0672 250.882C25.7674 250.887 25.4712 250.819 25.207 250.684C24.9552 250.548 24.7561 250.339 24.6387 250.088C24.5425 249.889 24.4818 249.677 24.4594 249.459C24.4343 249.23 24.422 248.552 24.4216 247.426H24.2546C24.0625 247.426 23.939 247.394 23.8832 247.331C23.8304 247.273 23.8019 247.199 23.8036 247.123C23.8036 246.98 23.8427 246.892 23.9205 246.857C23.9983 246.823 24.121 246.802 24.2963 246.802H24.4216V245.872C24.4216 245.428 24.6585 245.205 25.1319 245.204C25.6052 245.202 25.8421 245.425 25.8426 245.872V246.802H26.1098C26.3353 246.802 26.494 246.822 26.5858 246.862C26.6777 246.901 26.7216 246.991 26.7177 247.131C26.7177 247.252 26.6786 247.332 26.6008 247.372C26.4948 247.413 26.381 247.432 26.2667 247.427H25.8325V249.638C25.8325 249.939 25.8755 250.089 25.9617 250.089L26.0922 250.022Z" fill="white"/>
<path d="M29.5244 250.018C29.7235 250.181 29.9793 250.269 30.2426 250.263C30.4505 250.266 30.6562 250.223 30.8439 250.138C31.0487 250.043 31.2372 249.919 31.4034 249.77C31.4983 249.694 31.5625 249.645 31.5954 249.624C31.6455 249.599 31.7022 249.588 31.7585 249.593C31.8218 249.593 31.8824 249.616 31.9299 249.656C31.98 249.693 32.009 249.75 32.009 249.81C32.009 249.944 31.9312 250.084 31.7752 250.23C31.6381 250.365 31.4807 250.481 31.3075 250.573C30.9036 250.806 30.4272 250.922 29.8791 250.921C29.5877 250.921 29.2985 250.876 29.0229 250.787C28.75 250.702 28.495 250.571 28.2713 250.399C28.0538 250.233 27.8766 250.024 27.7536 249.786C27.6235 249.538 27.5575 249.264 27.5615 248.987C27.5615 248.543 27.681 248.155 27.9206 247.824C28.1597 247.49 28.4902 247.223 28.877 247.053C29.277 246.876 29.7134 246.785 30.1547 246.788C30.4329 246.788 30.7094 246.83 30.9735 246.913C31.232 246.988 31.4658 247.125 31.6543 247.308C31.8337 247.49 31.9295 247.732 31.9216 247.981C31.9246 248.249 31.7967 248.503 31.5748 248.669C31.3273 248.86 31.0443 249.006 30.7397 249.096C30.5775 249.144 30.4131 249.184 30.2465 249.215C30.0659 249.249 29.8637 249.282 29.6413 249.314C29.4189 249.346 29.2418 249.367 29.1275 249.385C29.1816 249.633 29.3213 249.855 29.5244 250.018ZM30.0958 248.57C30.4162 248.42 30.5766 248.195 30.5762 247.894C30.5762 247.73 30.5322 247.601 30.4443 247.506C30.3564 247.411 30.2285 247.362 30.0602 247.36C29.7428 247.36 29.495 247.511 29.3169 247.814C29.1385 248.128 29.048 248.479 29.0532 248.835C29.4158 248.812 29.7701 248.722 30.0958 248.57Z" fill="white"/>
<path d="M37.3382 250.22C37.3382 250.66 37.1013 250.88 36.6279 250.88C36.1546 250.88 35.9176 250.66 35.9181 250.22L35.9141 248.444C35.9141 248.146 35.8763 247.914 35.8012 247.747C35.726 247.581 35.5489 247.499 35.2707 247.502C34.97 247.502 34.7472 247.612 34.6026 247.83C34.5301 247.939 34.4883 248.115 34.4773 248.361V250.22C34.4773 250.66 34.2409 250.88 33.7675 250.88C33.2941 250.88 33.0577 250.66 33.0572 250.22V247.49C33.0572 247.046 33.2941 246.824 33.7675 246.824C34.1209 246.824 34.3477 246.982 34.4479 247.299C34.7766 246.982 35.2017 246.824 35.7225 246.824C36.2433 246.824 36.6556 246.966 36.9589 247.251C37.2068 247.481 37.3307 247.869 37.3307 248.417L37.3382 250.22Z" fill="white"/>
<path d="M43.3536 246.747C43.3536 247.261 43.238 247.654 43.0068 247.925C42.8556 248.099 42.6679 248.24 42.4557 248.342C43.0376 249.008 43.3286 249.604 43.3286 250.13C43.3325 250.329 43.2494 250.521 43.0991 250.66C42.9567 250.804 42.7563 250.884 42.5475 250.881C42.1634 250.881 41.9142 250.706 41.8003 250.355C41.6439 249.865 41.4355 249.391 41.1784 248.94C41.1301 248.855 41.0756 248.773 41.0153 248.695L39.9754 248.742V250.17C39.9798 250.358 39.9029 250.539 39.7627 250.673C39.6278 250.809 39.4379 250.884 39.2405 250.881C39.0432 250.884 38.8538 250.808 38.7184 250.673C38.576 250.541 38.4973 250.359 38.5013 250.17V245.916C38.5013 245.502 38.7127 245.264 39.1359 245.204H40.978C41.8491 245.204 42.4851 245.373 42.8864 245.71C43.198 245.969 43.3536 246.314 43.3536 246.747ZM39.9833 248.143C40.6936 248.143 41.1947 247.979 41.4869 247.653C41.679 247.434 41.7748 247.148 41.7748 246.794C41.7797 246.598 41.7291 246.404 41.6289 246.232C41.5313 246.077 41.3876 245.951 41.2153 245.872C41.0276 245.788 40.8219 245.746 40.614 245.75C40.3635 245.75 40.1939 245.793 40.1046 245.88C40.0238 245.959 39.9833 246.112 39.9833 246.338V248.143Z" fill="white"/>
<path d="M48.3901 248.388L48.4029 250.095C48.4059 250.272 48.3321 250.443 48.1981 250.566C48.071 250.692 47.8939 250.762 47.7097 250.759C47.406 250.759 47.1942 250.627 47.0746 250.364L47.0412 250.285C46.774 250.681 46.3446 250.879 45.753 250.879C45.4906 250.881 45.2308 250.833 44.9891 250.737C44.7658 250.647 44.5733 250.501 44.4335 250.314C44.288 250.114 44.2138 249.876 44.2204 249.633C44.2133 249.384 44.299 249.14 44.4625 248.945C44.6274 248.753 44.8383 248.602 45.0779 248.505C45.3306 248.398 45.5965 248.321 45.869 248.276C46.138 248.232 46.4105 248.21 46.6835 248.209H46.9718C46.9718 247.956 46.905 247.751 46.7714 247.596C46.6377 247.441 46.4413 247.363 46.1824 247.362C46.0822 247.359 45.9829 247.381 45.8941 247.426C45.7974 247.483 45.7068 247.55 45.6229 247.623C45.5385 247.697 45.4462 247.762 45.3473 247.817C45.2572 247.861 45.1565 247.883 45.055 247.881C44.9254 247.883 44.7975 247.85 44.6871 247.786C44.583 247.722 44.5227 247.611 44.5285 247.494C44.5285 247.323 44.6357 247.188 44.8502 247.091C45.0805 246.986 45.3275 246.916 45.5811 246.885C45.8136 246.849 46.0488 246.829 46.2844 246.826C46.7551 246.826 47.1577 246.893 47.4913 247.028L47.5207 247.039C47.5836 247.065 47.6447 247.094 47.7045 247.126C47.9576 247.264 48.1356 247.434 48.2389 247.637C48.3422 247.839 48.3923 248.09 48.3901 248.388ZM47.0122 248.717H46.8575C46.5261 248.717 46.2409 248.796 46.0013 248.954C45.7618 249.112 45.6435 249.341 45.6466 249.642C45.6427 249.789 45.6928 249.933 45.7886 250.05C45.8835 250.162 46.0294 250.225 46.1811 250.219C46.4342 250.219 46.6514 250.09 46.8325 249.832C46.9094 249.719 46.9608 249.592 46.9828 249.46C47.0052 249.299 47.0153 249.136 47.0122 248.974V248.717Z" fill="white"/>
<path d="M54.0862 250.086C54.0862 250.53 53.848 250.752 53.372 250.752C53.0379 250.752 52.8138 250.606 52.6999 250.313C52.427 250.69 52.0103 250.878 51.4508 250.878C51.0864 250.883 50.7278 250.792 50.4153 250.613C50.1103 250.441 49.8615 250.191 49.6971 249.893C49.5235 249.587 49.4347 249.244 49.4382 248.897C49.4338 248.521 49.5332 248.152 49.7261 247.824C49.912 247.506 50.1867 247.242 50.5199 247.061C50.864 246.874 51.2552 246.779 51.6517 246.784C52.0081 246.789 52.3575 246.88 52.6661 247.049V245.87C52.6661 245.426 52.903 245.203 53.3764 245.202C53.8497 245.2 54.0866 245.423 54.0862 245.87V250.086ZM51.8728 250.228C52.1426 250.235 52.3958 250.105 52.5369 249.887C52.6177 249.769 52.6608 249.597 52.6661 249.373V248.173C52.6582 247.928 52.598 247.743 52.4868 247.619C52.3448 247.461 52.1347 247.372 51.9154 247.378C51.5704 247.378 51.3212 247.529 51.1682 247.833C51.0152 248.148 50.9383 248.491 50.9427 248.837C50.9366 249.17 51.0078 249.499 51.1515 249.803C51.2899 250.086 51.5304 250.228 51.8728 250.228Z" fill="white"/>
<path d="M59.2436 248.388L59.2559 250.095C59.259 250.272 59.1851 250.442 59.0515 250.566C58.9245 250.693 58.7469 250.763 58.5627 250.76C58.2595 250.76 58.0481 250.628 57.9281 250.364L57.8947 250.285C57.6274 250.681 57.1971 250.878 56.6042 250.878C56.3418 250.881 56.0816 250.833 55.8399 250.736C55.6166 250.647 55.4241 250.5 55.2843 250.313C55.1393 250.113 55.0646 249.875 55.0716 249.632C55.0646 249.383 55.1503 249.139 55.3138 248.944C55.4782 248.753 55.6896 248.602 55.9291 248.505C56.1819 248.398 56.4478 248.321 56.7203 248.275C56.9893 248.232 57.2618 248.209 57.5347 248.208H57.8226C57.8226 247.955 57.7558 247.75 57.6222 247.595C57.4886 247.44 57.2925 247.362 57.0336 247.362C56.9334 247.359 56.8341 247.38 56.7453 247.425C56.6486 247.483 56.5576 247.549 56.4737 247.623C56.3897 247.697 56.297 247.762 56.1981 247.817C56.108 247.862 56.0074 247.884 55.9058 247.882C55.7762 247.884 55.6487 247.851 55.5384 247.787C55.4342 247.723 55.3736 247.612 55.3797 247.495C55.3797 247.324 55.487 247.189 55.701 247.092C55.9313 246.987 56.1783 246.917 56.4319 246.886C56.6644 246.85 56.8996 246.83 57.1352 246.827C57.6055 246.827 58.0076 246.894 58.3421 247.029L58.3711 247.04C58.434 247.066 58.4951 247.095 58.5548 247.127C58.808 247.265 58.986 247.435 59.0893 247.638C59.1926 247.841 59.244 248.091 59.2436 248.388ZM57.8652 248.717H57.711C57.3796 248.717 57.0943 248.796 56.8548 248.954C56.6152 249.112 56.497 249.342 56.4996 249.642C56.4957 249.79 56.5458 249.934 56.6416 250.05C56.737 250.162 56.8824 250.225 57.0345 250.22C57.2877 250.22 57.5048 250.091 57.6859 249.832C57.7628 249.719 57.8142 249.593 57.8362 249.46C57.8582 249.299 57.8679 249.136 57.8652 248.974V248.717Z" fill="white"/>
<path d="M63.2395 246.992C63.3599 247.104 63.4254 247.259 63.4192 247.419C63.4201 247.556 63.3779 247.689 63.2979 247.803C63.2289 247.91 63.105 247.975 62.9722 247.973C62.8707 247.97 62.7705 247.953 62.6742 247.923C62.5863 247.895 62.4954 247.877 62.4026 247.872C62.2497 247.872 62.12 247.971 62.0141 248.168C61.9279 248.316 61.8765 248.533 61.8598 248.817V250.217C61.8633 250.394 61.7908 250.564 61.6594 250.688C61.393 250.944 60.9583 250.947 60.6885 250.695C60.6863 250.693 60.6841 250.69 60.6819 250.688C60.5504 250.564 60.4779 250.394 60.4814 250.217V247.488C60.4775 247.313 60.55 247.144 60.6819 247.021C60.8089 246.895 60.986 246.824 61.1706 246.827C61.5657 246.827 61.793 247.015 61.8514 247.389C61.9393 247.275 62.0387 247.169 62.1477 247.073C62.3455 246.909 62.5573 246.827 62.7828 246.827C62.9525 246.821 63.1173 246.881 63.2395 246.992Z" fill="white"/>
<path d="M64.2531 250.914C64.0398 250.914 63.8476 250.854 63.6764 250.733C63.5052 250.615 63.4196 250.457 63.4196 250.259C63.4196 250.122 63.4589 250.004 63.5375 249.905C63.6161 249.803 63.7199 249.727 63.849 249.676C63.9781 249.622 64.11 249.595 64.2447 249.595C64.3794 249.595 64.5084 249.623 64.6319 249.68C64.7582 249.736 64.8606 249.815 64.9392 249.917C65.015 250.021 65.0528 250.138 65.0528 250.267C65.0528 250.457 64.9715 250.612 64.8087 250.733C64.6431 250.854 64.4579 250.914 64.2531 250.914Z" fill="white"/>
<path d="M67.4311 248.88C67.4311 249.247 67.5251 249.566 67.7131 249.836C67.8983 250.11 68.1719 250.246 68.5339 250.246H68.5676C68.7416 250.246 68.917 250.208 69.0938 250.13C69.2706 250.052 69.4263 249.949 69.561 249.82C69.7041 249.681 69.8234 249.611 69.9188 249.611C69.9918 249.611 70.0521 249.637 70.0998 249.688C70.1475 249.739 70.1714 249.799 70.1714 249.869C70.1714 250.072 70.0086 250.287 69.6831 250.512C69.2229 250.807 68.75 250.954 68.2646 250.954C67.9531 250.954 67.6556 250.907 67.3722 250.813C67.0887 250.717 66.839 250.58 66.6229 250.403C66.4068 250.226 66.2371 250.009 66.1136 249.752C65.9901 249.495 65.9284 249.212 65.9284 248.904C65.9284 248.48 66.0322 248.104 66.2399 247.774C66.4503 247.447 66.7366 247.195 67.0986 247.018C67.4606 246.841 67.8577 246.753 68.2898 246.753C68.5059 246.753 68.7542 246.785 69.0349 246.849C69.3183 246.911 69.5624 247.012 69.7673 247.151C69.9721 247.288 70.0746 247.46 70.0746 247.67C70.0746 247.804 70.0255 247.912 69.9272 247.995C69.8262 248.078 69.7069 248.12 69.5694 248.12C69.4291 248.12 69.3183 248.09 69.2369 248.031C69.1527 247.97 69.0601 247.875 68.9591 247.746C68.8553 247.617 68.7598 247.521 68.6729 247.456C68.5859 247.392 68.4708 247.36 68.3277 247.36C68.106 247.36 67.9292 247.443 67.7973 247.609C67.6626 247.775 67.5672 247.975 67.5111 248.208C67.455 248.439 67.4255 248.663 67.4227 248.88H67.4311Z" fill="white"/>
<path d="M73.1347 250.375C73.7914 250.375 74.1197 249.842 74.1197 248.775C74.1197 248.4 74.0468 248.069 73.9008 247.782C73.7521 247.495 73.5038 247.352 73.1558 247.352C72.7966 247.352 72.5412 247.501 72.3897 247.798C72.2382 248.096 72.1624 248.436 72.1624 248.819C72.1624 249.232 72.2325 249.595 72.3728 249.909C72.5132 250.22 72.7671 250.375 73.1347 250.375ZM73.1305 250.954C72.4402 250.954 71.8762 250.781 71.4384 250.435C71.1886 250.237 70.9964 250.003 70.8617 249.732C70.727 249.461 70.6597 249.173 70.6597 248.868C70.6597 248.583 70.7256 248.31 70.8575 248.047C70.9894 247.782 71.1704 247.55 71.4005 247.352C71.8776 246.953 72.4795 246.753 73.2063 246.753C73.5178 246.753 73.818 246.801 74.1071 246.898C74.3961 246.997 74.6557 247.139 74.8858 247.324C75.1131 247.511 75.2927 247.733 75.4246 247.987C75.5565 248.244 75.6224 248.524 75.6224 248.827C75.6224 249.243 75.506 249.613 75.2731 249.937C75.0373 250.264 74.7287 250.514 74.347 250.689C73.9626 250.866 73.5571 250.954 73.1305 250.954Z" fill="white"/>
<path d="M83.195 250.242C83.195 250.427 83.1263 250.586 82.9887 250.717C82.8512 250.848 82.6857 250.914 82.4921 250.914C82.2984 250.914 82.1329 250.848 81.9954 250.717C81.8607 250.586 81.7933 250.427 81.7933 250.242V248.449C81.7905 248.283 81.7807 248.143 81.7638 248.027C81.747 247.896 81.6965 247.782 81.6123 247.686C81.5309 247.586 81.4032 247.537 81.2293 247.537C80.9823 247.537 80.7831 247.631 80.6315 247.818C80.581 247.883 80.5375 247.983 80.501 248.12C80.4758 248.222 80.4632 248.364 80.4632 248.546V250.242C80.4632 250.427 80.3944 250.586 80.2569 250.717C80.1194 250.848 79.9538 250.914 79.7602 250.914C79.5666 250.914 79.401 250.848 79.2635 250.717C79.1288 250.586 79.0615 250.427 79.0615 250.242V248.478C79.0587 248.301 79.0488 248.151 79.032 248.027C79.0152 247.896 78.9646 247.782 78.8805 247.686C78.7991 247.586 78.6714 247.537 78.4974 247.537C78.2533 247.537 78.054 247.631 77.8997 247.818C77.8323 247.904 77.7902 248.005 77.7734 248.12C77.7425 248.305 77.7271 248.445 77.7271 248.542V250.242C77.7271 250.427 77.6598 250.586 77.5251 250.717C77.3876 250.848 77.222 250.914 77.0284 250.914C76.8347 250.914 76.6692 250.848 76.5317 250.717C76.397 250.586 76.3296 250.427 76.3296 250.242V247.464C76.3296 247.28 76.397 247.121 76.5317 246.99C76.6692 246.859 76.8347 246.793 77.0284 246.793C77.3904 246.793 77.6163 246.962 77.7061 247.3C78.0568 246.962 78.4918 246.793 79.0109 246.793C79.2747 246.793 79.5161 246.851 79.7349 246.966C79.951 247.079 80.1222 247.245 80.2485 247.464C80.5628 247.017 81.0567 246.793 81.7302 246.793C81.9322 246.793 82.1301 246.825 82.3237 246.89C82.5173 246.954 82.6843 247.048 82.8246 247.171C83.0687 247.393 83.1908 247.771 83.1908 248.305V248.325L83.195 250.242Z" fill="white"/>
<path d="M98.7095 249.789C98.7095 249.438 99.0005 249.151 99.3551 249.151C99.7098 249.151 100.001 249.438 100.001 249.789C100.001 250.14 99.7189 250.428 99.3551 250.428C98.9914 250.428 98.7095 250.14 98.7095 249.789Z" fill="white"/>
<path d="M99.5738 254.24C99.8284 254.222 100.01 254.006 100.001 253.754C99.983 253.502 99.7647 253.323 99.5101 253.332C99.2646 253.35 99.1827 253.35 99.1646 253.35C97.9369 253.35 96.9457 252.837 96.3728 251.902C96.2455 251.686 95.9636 251.623 95.7453 251.749C95.5271 251.875 95.4634 252.154 95.5907 252.369C96.3273 253.565 97.6277 254.249 99.1646 254.249C99.1918 254.267 99.2737 254.267 99.5738 254.24ZM95.8181 249.042C96.1273 247.379 97.5913 246.21 99.3828 246.21C101.001 246.21 102.338 247.19 102.802 248.71C102.884 248.97 103.157 249.123 103.43 249.042C103.693 248.961 103.848 248.692 103.766 248.422C103.175 246.48 101.456 245.221 99.3919 245.221C97.1185 245.221 95.2452 246.713 94.8451 248.853C94.7996 249.123 94.9724 249.384 95.2452 249.429C95.2725 249.438 95.3088 249.438 95.3361 249.438C95.5635 249.447 95.7726 249.276 95.8181 249.042ZM106.985 253.206C107.458 252.154 107.694 251.03 107.694 249.861C107.694 245.311 103.957 241.615 99.3555 241.615C94.7541 241.615 91.0166 245.311 91.0166 249.861C91.0166 249.933 91.0166 250.013 91.0166 250.085C91.0257 250.382 91.2712 250.616 91.5804 250.607C91.8805 250.598 92.1169 250.355 92.1078 250.049C92.1078 249.986 92.1078 249.924 92.1078 249.852C92.1078 245.913 95.3634 242.694 99.3555 242.694C103.348 242.694 106.603 245.913 106.603 249.861C106.603 250.868 106.394 251.848 105.985 252.765C105.867 253.035 105.985 253.359 106.267 253.475C106.339 253.511 106.412 253.52 106.485 253.52C106.694 253.529 106.894 253.404 106.985 253.206Z" fill="white"/>
<path d="M107.821 258.583C106.512 258.502 105.038 258.511 103.547 258.583C103.629 258.124 103.856 257.72 104.084 257.315C104.329 256.883 104.584 256.452 104.811 256.02C104.893 255.867 104.975 255.714 105.047 255.561C105.393 254.851 105.602 254.087 105.611 253.286V253.259C105.62 251.884 105.148 250.679 104.32 249.591C104.284 249.546 104.247 249.501 104.193 249.465C104.12 249.411 104.047 249.375 103.974 249.348C103.92 249.33 103.865 249.321 103.82 249.321C103.583 249.321 103.356 249.474 103.247 249.752C103.083 250.157 102.92 250.571 102.747 250.993C102.738 250.984 102.719 250.984 102.71 250.975C102.665 250.957 102.619 250.939 102.583 250.921C102.074 250.688 101.556 250.454 101.046 250.229C100.946 250.184 100.855 250.166 100.764 250.166C100.401 250.166 100.11 250.463 100.155 250.867C100.164 250.984 100.237 251.11 100.301 251.209C100.701 251.803 100.901 252.396 100.91 252.99C100.91 253.412 100.819 253.835 100.61 254.258C100.519 254.455 100.401 254.644 100.264 254.833C99.9914 255.211 99.6913 255.561 99.3821 255.903C99.0911 256.227 98.7728 256.533 98.4727 256.856C98.1908 257.171 97.918 257.495 97.6998 257.881C97.6634 257.953 97.6179 258.025 97.5816 258.097C97.5452 258.025 97.4997 257.962 97.4452 257.908C97.4088 257.872 97.3633 257.827 97.3269 257.8C97.0814 257.567 96.8359 257.324 96.5631 257.117C96.1629 256.82 95.7264 256.569 95.299 256.299C94.7079 255.939 94.1078 255.588 93.5803 255.13C93.1165 254.725 92.7437 254.258 92.5527 253.664C92.38 253.125 92.3981 252.612 92.5709 252.18C92.7892 251.632 93.2711 251.2 93.9532 250.993C94.2169 250.912 94.4715 250.876 94.7261 250.876C94.7534 250.876 94.7716 250.876 94.7989 250.876C95.2263 250.885 95.6446 251.011 96.0538 251.227C96.0629 251.227 96.0629 251.236 96.072 251.236C96.1629 251.281 96.2539 251.299 96.3357 251.299C96.5176 251.299 96.6813 251.209 96.7722 251.038C96.9268 250.787 96.8359 250.472 96.5631 250.337C96.3084 250.202 96.0538 250.094 95.7901 250.013C95.4445 249.905 95.0899 249.851 94.7352 249.851C94.717 249.851 94.7079 249.851 94.6898 249.851C94.2533 249.851 93.8077 249.941 93.353 250.121C92.9165 250.292 92.5436 250.535 92.2526 250.84C91.8252 251.272 91.5524 251.821 91.4615 252.423C91.416 252.684 91.416 252.954 91.4342 253.232C91.5252 254.222 91.998 255.031 92.7164 255.705C93.262 256.227 93.8986 256.622 94.5352 257.018C95.0899 257.369 95.6537 257.72 96.1902 258.097C96.5812 258.376 96.8813 258.727 97.0541 259.167C94.3351 259.518 92.3072 259.878 92.1253 259.914C91.8525 259.959 91.6707 260.219 91.7252 260.489C91.7707 260.732 91.9798 260.894 92.2163 260.894C92.2436 260.894 92.2799 260.894 92.3072 260.885C92.3981 260.867 101.847 259.167 107.739 259.545C108.012 259.563 108.248 259.356 108.267 259.086C108.303 258.835 108.094 258.601 107.821 258.583ZM98.8365 258.025C98.882 257.953 98.9365 257.89 98.9911 257.827C99.1911 257.594 99.4003 257.369 99.6095 257.153C99.7004 257.063 99.7822 256.973 99.8732 256.883C100.346 256.398 100.792 255.894 101.174 255.328C101.537 254.797 101.783 254.249 101.883 253.673C101.965 253.223 101.956 252.774 101.865 252.297C101.828 252.108 101.783 251.929 101.719 251.74C101.71 251.713 101.71 251.677 101.701 251.632C101.883 251.713 102.065 251.794 102.238 251.875C102.383 251.938 102.529 252.009 102.674 252.072C102.792 252.126 102.901 252.153 103.001 252.153C103.247 252.153 103.447 252 103.565 251.713C103.656 251.479 103.747 251.254 103.856 250.993C103.883 250.93 103.911 250.867 103.938 250.796C103.956 250.84 103.965 250.858 103.974 250.876C104.438 251.722 104.675 252.612 104.575 253.583C104.52 254.105 104.365 254.599 104.156 255.067C104.084 255.229 104.011 255.382 103.929 255.534C103.629 256.101 103.283 256.64 102.974 257.198C102.974 257.207 102.965 257.207 102.965 257.216C102.756 257.594 102.61 257.989 102.538 258.403C102.529 258.439 102.519 258.466 102.519 258.502C102.519 258.511 102.519 258.529 102.519 258.538C102.519 258.574 102.519 258.601 102.529 258.628C102.228 258.646 101.928 258.673 101.628 258.691C101.665 258.313 101.792 257.953 101.965 257.612C102.001 257.531 102.047 257.45 102.092 257.378C102.247 257.099 102.41 256.82 102.556 256.542C102.629 256.407 102.629 256.254 102.583 256.137C102.51 255.948 102.328 255.804 102.083 255.795C101.901 255.804 101.746 255.894 101.646 256.083C101.546 256.263 101.446 256.443 101.346 256.622C101.265 256.766 101.192 256.901 101.11 257.045C100.955 257.333 100.837 257.621 100.746 257.917C100.664 258.196 100.61 258.493 100.592 258.79C99.8277 258.862 99.082 258.942 98.3636 259.023C98.4455 258.664 98.6091 258.331 98.8365 258.025Z" fill="white"/>
<path d="M15.8335 16.3738C15.8335 15.9818 16.1587 15.6602 16.5551 15.6602C16.9515 15.6602 17.2768 15.9818 17.2768 16.3738C17.2768 16.7657 16.9617 17.0873 16.5551 17.0873C16.1486 17.0873 15.8335 16.7657 15.8335 16.3738Z" fill="white"/>
<path d="M27.2952 24.5706C25.8315 24.4802 24.185 24.4902 22.518 24.5706C22.6095 24.0581 22.8636 23.6058 23.1177 23.1535C23.3922 22.6711 23.6767 22.1887 23.9309 21.7062C24.0223 21.5354 24.1138 21.3645 24.1951 21.1936C24.5814 20.3996 24.8151 19.5453 24.8253 18.6508V18.6207C24.8355 17.0829 24.3069 15.7362 23.382 14.52C23.3413 14.4698 23.3007 14.4195 23.2397 14.3793C23.1584 14.319 23.0771 14.2788 22.9958 14.2487C22.9348 14.2286 22.8738 14.2185 22.823 14.2185C22.5587 14.2185 22.3046 14.3894 22.1826 14.7009C21.9997 15.1532 21.8167 15.6155 21.6236 16.0879C21.6134 16.0779 21.5931 16.0779 21.5829 16.0678C21.5321 16.0477 21.4813 16.0276 21.4407 16.0075C20.8715 15.7462 20.2921 15.4849 19.7229 15.2336C19.6111 15.1834 19.5095 15.1633 19.4078 15.1633C19.0013 15.1633 18.676 15.4949 18.7268 15.9472C18.737 16.0779 18.8183 16.2186 18.8895 16.3291C19.3367 16.9925 19.5603 17.6558 19.5705 18.3192C19.5705 18.7915 19.4688 19.2639 19.235 19.7363C19.1334 19.9574 19.0013 20.1685 18.8488 20.3795C18.5439 20.8017 18.2085 21.1936 17.8629 21.5756C17.5376 21.9374 17.1819 22.2791 16.8465 22.6409C16.5314 22.9927 16.2265 23.3545 15.9825 23.7867C15.9419 23.8671 15.8911 23.9475 15.8504 24.0279C15.8098 23.9475 15.7589 23.8772 15.6979 23.8169C15.6573 23.7766 15.6065 23.7264 15.5658 23.6962C15.2914 23.4349 15.017 23.1636 14.712 22.9324C14.2648 22.6007 13.7769 22.3193 13.2992 22.0178C12.6386 21.6158 11.9677 21.2238 11.3782 20.7112C10.8599 20.2589 10.4431 19.7363 10.2297 19.073C10.0366 18.4699 10.0569 17.897 10.25 17.4146C10.4939 16.8015 11.0326 16.3191 11.7949 16.0879C12.0897 15.9975 12.3743 15.9573 12.6589 15.9573C12.6894 15.9573 12.7097 15.9573 12.7402 15.9573C13.2179 15.9673 13.6855 16.108 14.1428 16.3492C14.153 16.3492 14.153 16.3593 14.1632 16.3593C14.2648 16.4095 14.3665 16.4296 14.4579 16.4296C14.6612 16.4296 14.8442 16.3291 14.9458 16.1382C15.1186 15.8568 15.017 15.505 14.712 15.3542C14.4274 15.2035 14.1428 15.0829 13.8481 14.9924C13.4619 14.8718 13.0655 14.8115 12.6691 14.8115C12.6487 14.8115 12.6386 14.8115 12.6182 14.8115C12.1304 14.8115 11.6323 14.912 11.1241 15.113C10.6362 15.304 10.2195 15.5753 9.89426 15.9171C9.41655 16.3995 9.11163 17.0126 9.00999 17.686C8.95917 17.9774 8.95917 18.279 8.9795 18.5905C9.08114 19.6961 9.60967 20.6007 10.4126 21.3544C11.0225 21.9374 11.734 22.3796 12.4454 22.8218C13.0655 23.2138 13.6956 23.6058 14.2953 24.0279C14.7324 24.3395 15.0678 24.7315 15.2609 25.2239C12.2218 25.6159 9.95525 26.0179 9.75197 26.0581C9.44704 26.1084 9.24376 26.3999 9.30475 26.7014C9.35557 26.9727 9.58934 27.1537 9.85361 27.1537C9.8841 27.1537 9.92476 27.1537 9.95525 27.1436C10.0569 27.1235 20.6174 25.2239 27.2037 25.6461C27.5086 25.6662 27.7729 25.435 27.7932 25.1335C27.8339 24.8521 27.6001 24.5908 27.2952 24.5706ZM17.2531 23.9475C17.3039 23.8671 17.3649 23.7968 17.4258 23.7264C17.6495 23.4651 17.8832 23.2138 18.117 22.9726C18.2186 22.8721 18.3101 22.7716 18.4118 22.6711C18.9403 22.1283 19.4383 21.5655 19.8652 20.9323C20.2718 20.3393 20.5462 19.7262 20.658 19.083C20.7495 18.5805 20.7393 18.0779 20.6377 17.5453C20.597 17.3342 20.5462 17.1332 20.4751 16.9221C20.4649 16.892 20.4649 16.8518 20.4547 16.8015C20.658 16.892 20.8613 16.9824 21.0544 17.0729C21.217 17.1432 21.3797 17.2236 21.5423 17.294C21.6744 17.3543 21.7964 17.3845 21.9082 17.3845C22.1826 17.3845 22.4062 17.2136 22.5384 16.892C22.64 16.6307 22.7417 16.3794 22.8636 16.0879C22.8941 16.0176 22.9246 15.9472 22.9551 15.8668C22.9754 15.9171 22.9856 15.9372 22.9958 15.9573C23.5141 16.902 23.7784 17.897 23.6666 18.9825C23.6056 19.5654 23.4328 20.1182 23.199 20.6409C23.1177 20.8218 23.0364 20.9926 22.9449 21.1635C22.6095 21.7967 22.2233 22.3997 21.8777 23.0229C21.8777 23.0329 21.8675 23.0329 21.8675 23.043C21.6338 23.4651 21.4711 23.9073 21.3898 24.3696C21.3797 24.4098 21.3695 24.44 21.3695 24.4802C21.3695 24.4902 21.3695 24.5103 21.3695 24.5204C21.3695 24.5606 21.3695 24.5908 21.3797 24.6209C21.0443 24.641 20.7088 24.6712 20.3734 24.6913C20.4141 24.2691 20.5564 23.8671 20.7495 23.4852C20.7902 23.3947 20.841 23.3043 20.8918 23.2239C21.0646 22.9123 21.2475 22.6007 21.4102 22.2892C21.4915 22.1384 21.4915 21.9675 21.4407 21.8369C21.3593 21.6258 21.1561 21.465 20.8816 21.455C20.6783 21.465 20.5056 21.5655 20.3938 21.7766C20.2819 21.9776 20.1701 22.1786 20.0583 22.3796C19.9669 22.5404 19.8855 22.6912 19.7941 22.852C19.6213 23.1736 19.4891 23.4952 19.3875 23.8269C19.296 24.1385 19.235 24.4701 19.2147 24.8018C18.3609 24.8822 17.5275 24.9727 16.7245 25.0631C16.816 24.6611 16.999 24.2892 17.2531 23.9475Z" fill="white"/>
<line x1="16.8328" y1="13.822" x2="17.2789" y2="8.24569" stroke="white" stroke-width="1.14306" stroke-linecap="round"/>
</g>
<defs>
<filter id="filter0_d_93_2246" x="-5.77878" y="-3.9856" width="140.209" height="280.572" filterUnits="userSpaceOnUse" color-interpolation-filters="sRGB">
<feFlood flood-opacity="0" result="BackgroundImageFix"/>
<feColorMatrix in="SourceAlpha" type="matrix" values="0 0 0 0 0 0 0 0 0 0 0 0 0 0 0 0 0 0 127 0" result="hardAlpha"/>
<feOffset dy="1.79343"/>
<feGaussianBlur stdDeviation="0.896715"/>
<feComposite in2="hardAlpha" operator="out"/>
<feColorMatrix type="matrix" values="0 0 0 0 0 0 0 0 0 0 0 0 0 0 0 0 0 0 0.25 0"/>
<feBlend mode="normal" in2="BackgroundImageFix" result="effect1_dropShadow_93_2246"/>
<feBlend mode="normal" in="SourceGraphic" in2="effect1_dropShadow_93_2246" result="shape"/>
</filter>
<clipPath id="clip0_93_2246">
<rect width="131" height="269" fill="white"/>
</clipPath>
</defs>
</svg>
